<?xml version="1.0" encoding="UTF-8" standalone="no"?>
<!-- Created with Inkscape (http://www.inkscape.org/) -->

<svg
   width="1000"
   height="1000"
   viewBox="0 0 1000 1000"
   version="1.1"
   id="svg1"
   xmlns:xlink="http://www.w3.org/1999/xlink"
   xmlns="http://www.w3.org/2000/svg"
   xmlns:svg="http://www.w3.org/2000/svg">
  <defs
     id="defs1">
    <pattern
       xlink:href="#pattern359"
       preserveAspectRatio="xMidYMid"
       id="pattern372"
       patternTransform="matrix(0.5,0,0,0.5,147.15462,1548.2922)" />
    <pattern
       xlink:href="#pattern357"
       preserveAspectRatio="xMidYMid"
       id="pattern371"
       patternTransform="matrix(0.5,0,0,0.5,221.32076,1552.4298)" />
    <pattern
       xlink:href="#pattern358"
       preserveAspectRatio="xMidYMid"
       id="pattern370"
       patternTransform="matrix(0.5,0,0,0.5,230.96346,1527.8214)" />
    <pattern
       xlink:href="#pattern355"
       preserveAspectRatio="xMidYMid"
       id="pattern369"
       patternTransform="matrix(0.5,0,0,0.5,287.08178,1553.6581)" />
    <pattern
       xlink:href="#pattern354"
       preserveAspectRatio="xMidYMid"
       id="pattern368"
       patternTransform="matrix(0.5,0,0,0.5,230.97274,1529.1717)" />
    <pattern
       xlink:href="#pattern342"
       preserveAspectRatio="xMidYMid"
       id="pattern360"
       patternTransform="matrix(0.5,0,0,0.5,210.45332,1525.5392)" />
    <pattern
       xlink:href="#pattern342"
       preserveAspectRatio="xMidYMid"
       id="pattern359"
       patternTransform="matrix(0.5,0,0,0.5,152.11125,1550.7705)" />
    <pattern
       xlink:href="#pattern342"
       preserveAspectRatio="xMidYMid"
       id="pattern358"
       patternTransform="matrix(0.5,0,0,0.5,202.11125,1533.2444)" />
    <pattern
       xlink:href="#pattern342"
       preserveAspectRatio="xMidYMid"
       id="pattern357"
       patternTransform="matrix(0.5,0,0,0.5,211.4075,1546.234)" />
    <pattern
       xlink:href="#pattern342"
       preserveAspectRatio="xMidYMid"
       id="pattern356"
       patternTransform="matrix(0.5,0,0,0.5,232.14929,1573.2544)" />
    <pattern
       xlink:href="#pattern342"
       preserveAspectRatio="xMidYMid"
       id="pattern355"
       patternTransform="matrix(0.5,0,0,0.5,275,1552.7287)" />
    <pattern
       xlink:href="#pattern342"
       preserveAspectRatio="xMidYMid"
       id="pattern354"
       patternTransform="matrix(0.5,0,0,0.5,235,1529.7913)" />
    <pattern
       xlink:href="#shading24"
       preserveAspectRatio="xMidYMid"
       id="pattern342"
       patternTransform="matrix(0.5,0,0,0.5,213.95332,1537.5392)"
       x="0"
       y="0" />
    <pattern
       patternUnits="userSpaceOnUse"
       width="338.5925"
       height="42.989567"
       patternTransform="translate(213.95332,1537.5392) scale(0.5)"
       preserveAspectRatio="xMidYMid"
       id="shading24"
       style="fill:#000000">
      <path
         style="fill-rule:nonzero;stroke:none;stroke-width:0.1;stroke-linecap:square;paint-order:markers fill stroke;stop-color:#000000"
         d="m 1806.4991,-758.06464 v 18.86792 c 55.9187,0 121.0493,0.59523 193.5686,3.15628 72.9408,2.57593 146.0589,6.87694 222.9288,13.47675 119.09,10.22471 223.0762,23.76065 340.6056,39.2177 117.5025,15.4535 222.0471,29.0563 341.8507,39.3312 77.366,6.63525 151.0001,10.96128 224.4674,13.55245 73.0344,2.5759 138.631,3.17493 194.9247,3.17493 -55.9642,0 -122.2215,-1.36594 -194.8324,-5.25394 -73.2143,-3.92032 -146.9676,-10.0663 -223.8166,-18.88656 -118.8791,-13.6442 -223.3242,-31.02113 -339.8009,-50.57815 -116.4705,-19.55598 -221.1862,-36.99475 -340.3724,-50.69165 -77.0605,-8.8558 -150.9942,-15.0266 -224.3694,-18.96225 -72.7637,-3.90286 -139.1256,-5.27261 -195.1541,-5.27261 z m 0,37.81515 v 18.86793 c 55.9187,0 121.0493,0.59523 193.5686,3.15627 72.9408,2.57593 146.0589,6.87694 222.9288,13.47676 119.09,10.22471 223.0762,23.76065 340.6056,39.2177 117.5025,15.4535 222.0471,29.0563 341.8507,39.33119 77.366,6.63526 151.0001,10.96128 224.4674,13.55245 73.0344,2.5759 138.631,3.17493 194.9247,3.17493 -55.9642,0 -122.2215,-1.36594 -194.8324,-5.25394 -73.2143,-3.92031 -146.9676,-10.0663 -223.8166,-18.88656 -118.8791,-13.6442 -223.3242,-31.02112 -339.8009,-50.57815 -116.4705,-19.55598 -221.1862,-36.99475 -340.3724,-50.69165 -77.0605,-8.8558 -150.9942,-15.02659 -224.3694,-18.96225 -72.7637,-3.90286 -139.1256,-5.2726 -195.1541,-5.2726 z m 0,37.81516 v 18.86792 c 55.9187,0 121.0493,0.59523 193.5686,3.15628 72.9408,2.57593 146.0589,6.87694 222.9288,13.47675 119.09,10.22471 223.0762,23.76065 340.6056,39.2177 117.5025,15.4535 222.0471,29.0563 341.8507,39.3312 77.366,6.63525 151.0001,10.96128 224.4674,13.55245 73.0344,2.5759 138.631,3.17493 194.9247,3.17493 -55.9642,0 -122.2215,-1.36594 -194.8324,-5.25394 -73.2143,-3.92032 -146.9676,-10.0663 -223.8166,-18.88656 -118.8791,-13.6442 -223.3242,-31.02113 -339.8009,-50.57815 -116.4705,-19.55598 -221.1862,-36.99475 -340.3724,-50.69165 -77.0605,-8.8558 -150.9942,-15.0266 -224.3694,-18.96225 -72.7637,-3.90286 -139.1256,-5.27261 -195.1541,-5.27261 z m 0,37.81515 v 18.86793 c 55.9187,0 121.0493,0.59523 193.5686,3.15627 72.9408,2.57593 146.0589,6.87694 222.9288,13.47676 119.09,10.22471 223.0762,23.76065 340.6056,39.2177 117.5025,15.4535 222.0471,29.0563 341.8507,39.33119 77.366,6.63526 151.0001,10.96128 224.4674,13.55245 73.0344,2.5759 138.631,3.17494 194.9247,3.17494 -55.9642,0 -122.2215,-1.36595 -194.8324,-5.25395 -73.2143,-3.92031 -146.9676,-10.0663 -223.8166,-18.88656 -118.8791,-13.6442 -223.3242,-31.02112 -339.8009,-50.57815 -116.4705,-19.55598 -221.1862,-36.99475 -340.3724,-50.69165 -77.0605,-8.8558 -150.9942,-15.02659 -224.3694,-18.96225 -72.7637,-3.90286 -139.1256,-5.2726 -195.1541,-5.2726 z m 0,37.81516 v 18.86792 c 55.9187,0 121.0493,0.59523 193.5686,3.15628 72.9408,2.57593 146.0589,6.87694 222.9288,13.47675 119.09,10.22471 223.0762,23.76065 340.6056,39.2177 117.5025,15.4535 222.0471,29.0563 341.8507,39.3312 77.366,6.63525 151.0001,10.96128 224.4674,13.55245 73.0344,2.5759 138.631,3.17493 194.9247,3.17493 -55.9642,0 -122.2215,-1.36594 -194.8324,-5.25394 -73.2143,-3.92032 -146.9676,-10.0663 -223.8166,-18.88656 -118.8791,-13.6442 -223.3242,-31.02113 -339.8009,-50.57815 -116.4705,-19.55598 -221.1862,-36.99475 -340.3724,-50.69165 -77.0605,-8.8558 -150.9942,-15.0266 -224.3694,-18.96225 -72.7637,-3.90286 -139.1256,-5.27261 -195.1541,-5.27261 z m 0,37.81515 v 18.86793 c 55.9187,0 121.0493,0.59523 193.5686,3.15627 72.9408,2.57593 146.0589,6.87694 222.9288,13.47676 119.09,10.22471 223.0762,23.76065 340.6056,39.2177 117.5025,15.4535 222.0471,29.0563 341.8507,39.33119 77.366,6.63526 151.0001,10.96128 224.4674,13.55245 73.0344,2.5759 138.631,3.17494 194.9247,3.17494 -55.9642,0 -122.2215,-1.36595 -194.8324,-5.25395 -73.2143,-3.92031 -146.9676,-10.0663 -223.8166,-18.88656 -118.8791,-13.6442 -223.3242,-31.02112 -339.8009,-50.57815 -116.4705,-19.55598 -221.1862,-36.99475 -340.3724,-50.69165 -77.0605,-8.8558 -150.9942,-15.02659 -224.3694,-18.96225 -72.7637,-3.90286 -139.1256,-5.2726 -195.1541,-5.2726 z m 0,37.81516 v 18.86792 c 55.9187,0 121.0493,0.59523 193.5686,3.15628 72.9408,2.57593 146.0589,6.87694 222.9288,13.47675 119.09,10.22471 223.0762,23.76065 340.6056,39.2177 117.5025,15.4535 222.0471,29.0563 341.8507,39.3312 77.366,6.63525 151.0001,10.96128 224.4674,13.55245 73.0344,2.5759 138.631,3.17493 194.9247,3.17493 -55.9642,0 -122.2215,-1.36594 -194.8324,-5.25394 -73.2143,-3.92032 -146.9676,-10.0663 -223.8166,-18.88656 -118.8791,-13.6442 -223.3242,-31.02113 -339.8009,-50.57815 -116.4705,-19.55598 -221.1862,-36.99475 -340.3724,-50.69165 -77.0605,-8.8558 -150.9942,-15.0266 -224.3694,-18.96225 -72.7637,-3.90286 -139.1256,-5.27261 -195.1541,-5.27261 z"
         id="use26"
         transform="matrix(0.22300099,0,0,0.37823052,-402.85121,237.25945)" />
    </pattern>
    <linearGradient
       id="swatch75">
      <stop
         style="stop-color:#000000;stop-opacity:1;"
         offset="0"
         id="stop75" />
    </linearGradient>
  </defs>
  <g
     id="layer3"
     style="display:none;fill:#000000">
    <rect
       style="display:inline;opacity:0.5;fill:#fff6d5;stroke-width:2.13808"
       id="rect1"
       width="800"
       height="800"
       x="100"
       y="100" />
    <rect
       style="opacity:0.5;fill:#ff0000;stroke-width:2.58199"
       id="rect45"
       width="20"
       height="800"
       x="490"
       y="100" />
    <rect
       style="opacity:0.5;fill:#ff0000;stroke-width:2.58198"
       id="rect44"
       width="800"
       height="19.999985"
       x="100"
       y="530" />
    <rect
       style="opacity:0.5;fill:#1a1a1a"
       id="rect46"
       width="20"
       height="20"
       x="490"
       y="530" />
    <rect
       style="opacity:0.5;fill:#ff00ff;stroke-width:1.07044"
       id="rect47"
       width="550"
       height="20"
       x="225"
       y="830" />
    <rect
       style="opacity:0.5;fill:#ff00ff;stroke-width:1.07044"
       id="rect51"
       width="550"
       height="20"
       x="225"
       y="130" />
    <rect
       style="display:inline;opacity:0.2;fill:#ff0000;stroke-width:5.01375"
       id="rect48"
       width="700"
       height="700"
       x="150"
       y="150" />
    <rect
       style="display:inline;opacity:0.2;fill:#00ff00;stroke-width:1.09772"
       id="rect49"
       width="550"
       height="800"
       x="225"
       y="100" />
    <rect
       style="display:inline;opacity:0.2;fill:#ff00ff;stroke-width:1.09772"
       id="rect50"
       width="550"
       height="800"
       x="-815"
       y="100"
       transform="rotate(-90)" />
  </g>
  <g
     id="layer1"
     style="display:inline;opacity:0.5">
    <g
       id="layer19"
       style="display:none">
      <g
         id="g83"
         style="display:inline">
        <g
           id="layer10"
           style="display:none;opacity:1">
          <path
             id="path89"
             style="display:inline;opacity:1;fill:none;fill-opacity:1;fill-rule:evenodd;stroke:#000000;stroke-width:10;stroke-dasharray:none;stroke-opacity:1"
             d="m 255,205 v 585 h 153.125 l -1.25,-10 H 265 V 215 H 735 V 780 H 590.79883 l -0.85742,10 H 745 V 205 Z" />
        </g>
        <g
           id="layer9"
           style="display:inline"
           transform="translate(0,40)">
          <path
             id="path90"
             style="display:inline;opacity:1;fill:none;fill-opacity:1;fill-rule:evenodd;stroke:#000000;stroke-width:10;stroke-dasharray:none;stroke-opacity:1"
             d="M 265,780 H 735 V 215 H 265 Z m -10,10 H 745 V 205 H 255 Z" />
        </g>
        <g
           id="g103"
           style="display:none">
          <path
             id="path103"
             style="display:inline;opacity:1;fill:none;fill-opacity:1;fill-rule:evenodd;stroke:#000000;stroke-width:10;stroke-dasharray:none;stroke-opacity:1"
             d="M 265,780 H 735 V 215 H 265 Z m -10,10 H 745 V 205 H 255 Z" />
        </g>
      </g>
      <g
         id="layer11"
         style="display:inline">
        <g
           id="layer16"
           style="display:inline;opacity:1"
           transform="translate(0,40)">
          <path
             id="path94"
             style="opacity:1;fill:none;fill-opacity:1;fill-rule:evenodd;stroke:#000000;stroke-width:10;stroke-dasharray:none;stroke-opacity:1"
             d="M 600,530 400,700 Z m -200,0 200,170 z" />
        </g>
        <g
           id="layer12"
           style="display:none">
          <path
             id="path79"
             style="display:inline;opacity:1;fill:none;stroke:#000000;stroke-width:10;stroke-dasharray:none;stroke-opacity:1"
             d="m 468,575 h -73 v 80 h 73 m 64,0 h 73 v -80 h -73" />
        </g>
        <g
           id="g84"
           style="display:none;opacity:1">
          <path
             style="display:inline;opacity:1;fill:none;stroke:#000000;stroke-width:10;stroke-dasharray:none;stroke-opacity:1"
             d="m 395,575 v 80 h 210 v -80 z"
             id="path63" />
        </g>
        <g
           id="g87"
           style="display:none"
           transform="translate(0,40)">
          <path
             id="rect66"
             style="display:inline;opacity:1;fill:#000000;stroke-width:10"
             d="M 270,520 H 730 V 775 H 270 Z" />
        </g>
        <g
           id="g86"
           style="display:none"
           transform="translate(0,40)">
          <path
             id="rect65"
             style="display:inline;opacity:1;stroke-width:10"
             d="M 270,520 H 730 V 710 H 270 Z" />
        </g>
        <g
           id="g85"
           style="display:none;opacity:1"
           transform="translate(0,40)">
          <path
             id="rect64"
             style="display:inline;opacity:1;stroke-width:9.2932"
             d="M 390,520 H 610 V 710 H 390 Z" />
        </g>
      </g>
      <g
         id="layer13"
         style="display:inline">
        <g
           id="g95"
           style="display:none"
           transform="translate(0,39.999534)">
          <path
             id="path97"
             style="opacity:1;fill:none;fill-opacity:1;fill-rule:evenodd;stroke:#000000;stroke-width:10;stroke-dasharray:none;stroke-opacity:1"
             d="m 640,340 -80,80 z m -80,0 80,80 z m -120,0 -80,80 z m -80,0 80,80 z" />
        </g>
        <g
           id="layer17"
           style="display:inline"
           transform="translate(0,40)">
          <path
             id="rect54"
             style="display:inline;opacity:1;fill:#000000"
             d="M 350,330 V 430 H 450 V 330 Z m 200,0 V 430 H 650 V 330 Z" />
        </g>
        <g
           id="g104"
           style="display:none">
          <path
             id="path104"
             style="display:inline;opacity:1;fill:#000000"
             d="M 350,330 V 430 H 450 V 330 Z m 200,0 V 430 H 650 V 330 Z" />
        </g>
      </g>
      <g
         id="layer14"
         style="display:none">
        <path
           id="path61"
           style="display:inline;opacity:1;fill:none;stroke:#000000;stroke-width:20;stroke-dasharray:none;stroke-opacity:1"
           d="m 387,110 -27,90 v 10 h 80 v -10 l -28,-90 z m 200,0 -27,90 v 10 h 80 v -10 l -28,-90 z" />
      </g>
      <g
         id="layer15"
         style="display:none">
        <path
           id="path77"
           style="display:inline;opacity:1;fill:#000000;fill-opacity:1;fill-rule:evenodd;stroke:#000000;stroke-width:10;stroke-dasharray:none;stroke-opacity:1"
           d="m 483,675 h 17 l 17,4.5553 V 520 h -34 z m -10,0 h 27 l 78,20.90039 -1.64549,19.2156 L 500.57812,874 485,827.90625 504,782 521.82617,738.92773 530,720 Z M 430,805 424.12305,757.98438 459,748 492.73929,773.49191 504,782 485,827.90625 Z m 30,-130 h -1 l -44,10 9.12305,72.98438 L 426.875,780 l 1.25,10 1.875,15 55,22.90625 L 500.57812,874 507,893 l 106,-41 -44,-51 0.94196,-11 0.85633,-10 5.55622,-64.88401 L 578,695.90039 517,679.5553 500,675 h -27 l 57,45 -8.17383,18.92773 L 485,714 492.73929,773.49191 459,748 Z" />
      </g>
      <g
         id="layer18"
         style="display:inline"
         transform="translate(0,40)">
        <path
           id="path102"
           style="display:inline;opacity:1;fill:#000000;fill-opacity:1;fill-rule:evenodd;stroke:#000000;stroke-width:10;stroke-dasharray:none;stroke-opacity:1"
           d="m 130,380 70,-40 h 15 v 185 h -15 l -70,-40 z m 70,-165 -20,20 V 351.42773 L 200,340 h 15 30 V 525 H 215 200 L 130,485 V 380 l 10,-5.71484 V 165 H 860 V 374.28516 L 870,380 v 105 l -70,40 H 785 755 V 340 h 30 15 l 20,11.42773 V 235 l -20,-20 z m 670,165 -70,-40 h -15 v 185 h 15 l 70,-40 z" />
      </g>
    </g>
    <g
       id="layer2"
       style="display:none">
      <g
         id="layer4">
        <path
           id="path33"
           style="display:none;fill:none;fill-opacity:1;fill-rule:evenodd;stroke:#000000;stroke-width:20;stroke-dasharray:none;stroke-opacity:1"
           d="m 535,140 h -70 v 547 l 70,-25 z M 275,770 h 450 v 70 H 275 Z m 0,0 v 70 h 450 v -70 z" />
        <path
           id="path31"
           style="display:none;fill:none;fill-opacity:1;fill-rule:evenodd;stroke:#000000;stroke-width:20;stroke-dasharray:none;stroke-opacity:1"
           d="m 535,140 h -70 v 409 l 70,-25 z M 275,770 h 450 v 70 H 275 Z m 0,0 v 70 h 450 v -70 z" />
        <path
           id="path29"
           style="display:none;fill:none;fill-opacity:1;fill-rule:evenodd;stroke:#000000;stroke-width:20;stroke-dasharray:none;stroke-opacity:1"
           d="m 535,140 h -70 v 265 l 70,-25 z M 275,770 h 450 v 70 H 275 Z m 0,0 v 70 h 450 v -70 z" />
        <path
           id="path27"
           style="display:inline;fill:none;fill-opacity:1;fill-rule:evenodd;stroke:#000000;stroke-width:20;stroke-dasharray:none;stroke-opacity:1"
           d="m 535,140 h -70 v 125 l 70,-25 z M 275,770 h 450 v 70 H 275 Z m 0,0 v 70 h 450 v -70 z" />
        <path
           id="path24"
           style="display:none;fill:#000000;fill-opacity:1;fill-rule:evenodd;stroke:#000000;stroke-width:20;stroke-dasharray:none"
           d="M 535,140 V 770 H 465 V 140 Z M 275,770 h 450 v 70 H 275 Z M 465,140 V 770 H 275 v 70 H 725 V 770 H 535 V 140 Z" />
      </g>
      <g
         id="layer5"
         style="display:inline">
        <path
           id="path23"
           style="display:inline;fill:#000000;fill-opacity:1;fill-rule:evenodd;stroke:#000000;stroke-width:20;stroke-dasharray:none;stroke-opacity:1"
           d="M 725,700 H 529.99967 L 381.24966,770 H 555.12633 725 Z m 0,-70 H 529.99967 L 274.99966,750 v 20 H 555.12633 725 Z" />
        <path
           id="path22"
           style="display:inline;fill:#000000;fill-opacity:1;fill-rule:evenodd;stroke:#000000;stroke-width:20;stroke-dasharray:none;stroke-opacity:1"
           d="M 725,560 H 529.99967 L 274.99966,680 v 20 56.84981 L 555.12633,630 H 725 Z m 0,-70 H 529.99967 L 274.99966,610 v 90 56.84981 L 555.12633,630 H 725 Z" />
        <path
           id="path21"
           style="display:inline;fill:#000000;fill-opacity:1;fill-rule:evenodd;stroke:#000000;stroke-width:20;stroke-dasharray:none;stroke-opacity:1"
           d="M 725,420 H 529.99967 L 274.99966,540 v 20 56.84981 L 555.12633,490 H 725 Z m 0,-70 H 529.99967 L 274.99966,470 v 90 56.84981 L 555.12633,490 H 725 Z" />
        <path
           id="path18"
           style="display:inline;fill:#000000;fill-opacity:1;fill-rule:evenodd;stroke:#000000;stroke-width:20;stroke-dasharray:none;stroke-opacity:1"
           d="M 725,280 H 529.99967 L 274.99966,400 v 20 56.84981 L 555.12633,350 H 725 Z m 0,-70 H 529.99967 L 274.99966,330 v 90 56.84981 L 555.12633,350 H 725 Z" />
      </g>
    </g>
    <g
       id="layer6"
       style="display:none">
      <g
         id="layer7">
        <path
           id="path37"
           style="opacity:1;fill:#000000;fill-opacity:1;fill-rule:evenodd;stroke:#000000;stroke-width:20"
           d="m 720.55684,451.36198 -129.20231,129.19791 -182.71657,-0.003 -129.1979,-129.20231 0.003,-182.71656 129.20231,-129.19791 182.71656,0.003 129.19791,129.20231 z m 0,0 -129.20231,129.19791 -182.71657,-0.003 -129.1979,-129.20189 0.003,-182.71698 129.20231,-129.19791 182.71656,0.003 129.19791,129.20231 z M 408.638,825 h 182.71687 l -3.4e-4,-244.44011 -182.71653,-0.003 z m 0,-244.44311 182.71653,0.003 3.4e-4,244.44011 1.3e-4,35 H 408.638 v -35 z" />
      </g>
      <g
         id="layer8">
        <path
           style="display:none;opacity:1;fill:#000000;fill-opacity:1;fill-rule:evenodd;stroke:#000000;stroke-width:20;stroke-dasharray:none;stroke-opacity:1"
           d="m 591.35285,580.55989 129.01743,-129.01304 0.18488,-0.18487 2.2e-4,-0.26898 -220.55716,-39.731 -220.55969,39.73114 -1.5e-4,0.26144 0.19269,0.19269 129.00522,129.00962 z"
           id="path43" />
        <path
           style="display:none;opacity:1;fill:#000000;fill-opacity:1;fill-rule:evenodd;stroke:#000000;stroke-width:20;stroke-dasharray:none;stroke-opacity:1"
           d="M 720.55984,268.64542 720.36715,268.45273 500,308.638 v 122.717 l 220.37028,20.19185 0.18656,-0.18487 z"
           id="path42" />
        <path
           style="display:none;opacity:1;fill:#000000;fill-opacity:1;fill-rule:evenodd;stroke:#000000;stroke-width:20;stroke-dasharray:none;stroke-opacity:1"
           d="m 500,308.638 -220.37206,-40.18485 -0.18488,0.18487 -0.003,182.71656 0.19101,0.19269 220.36668,-40.18527 z"
           id="path44" />
        <path
           style="display:none;opacity:1;fill:#000000;fill-opacity:1;fill-rule:evenodd;stroke:#000000;stroke-width:20;stroke-dasharray:none;stroke-opacity:1"
           d="m 408.64537,139.44011 -129.01743,129.01304 -0.18488,0.18487 -2.2e-4,0.26898 L 500,308.638 l 220.55969,-39.73114 1.5e-4,-0.26144 -0.19269,-0.19269 -129.00522,-129.00962 z"
           id="path41" />
      </g>
    </g>
    <g
       id="layer20"
       style="display:none">
      <g
         id="layer21"
         style="display:inline">
        <path
           id="path52"
           style="display:inline;opacity:1;fill:#000000;fill-rule:evenodd;stroke:#000000;stroke-width:20"
           d="m 638.58193,647.40251 -81.17941,81.17942 H 442.59749 L 361.41807,647.40252 V 532.59749 l 81.17941,-81.17942 h 114.80503 l 81.17942,81.17941 z m 0,0 V 532.59748 L 557.40251,451.41807 H 442.59748 l -81.17941,81.17942 v 114.80503 l 81.17942,81.17941 h 114.80503 z m 0,0 -81.17941,81.17942 H 442.59749 L 361.41807,647.40252 V 532.59749 l 81.17941,-81.17942 h 114.80503 l 81.17942,81.17941 z M 690,320 h 102.49331 v -94.24799 h -5 L 690,255 Z M 130,423 V 795 H 870 V 320 h -77.50669 v -94.24799 h -5 L 690,255 v 65 H 473.333 Z" />
        <path
           style="display:inline;opacity:1;fill:#000000;fill-opacity:1;fill-rule:evenodd;stroke:#000000;stroke-width:10;stroke-dasharray:none;stroke-opacity:1"
           d="m 760,265 v 10 h 10 v -10 z"
           id="path48" />
      </g>
      <g
         id="layer22"
         style="display:inline">
        <path
           id="path54"
           style="display:none;opacity:1;fill-rule:evenodd;stroke:#000000;stroke-width:20"
           transform="rotate(22.5,500,590)"
           d="M 605,590 574.24621,664.24621 500,695 425.75379,664.24621 395,590 425.75379,515.75379 500,485 l 74.24621,30.75379 z" />
      </g>
    </g>
    <g
       id="layer23"
       transform="translate(0,30)"
       style="display:none">
      <g
         id="layer24"
         transform="translate(0,-30)">
        <path
           id="path55"
           style="opacity:1;fill:none;fill-opacity:1;fill-rule:evenodd;stroke:#000000;stroke-width:20;stroke-dasharray:none;stroke-opacity:1"
           transform="translate(0,30)"
           d="m 760,315 h 90 l 40,45 v 115 l -60,65 H 760 Z M 240,240 H 760 V 670.00002 L 680,780 l -360,2e-5 -80,-110 z m -35,600 h 600 z" />
      </g>
      <g
         id="layer25"
         transform="translate(0,-30)">
        <path
           style="display:inline;opacity:1;fill:#000000;fill-opacity:1;fill-rule:evenodd;stroke:#000000;stroke-width:20;stroke-dasharray:none;stroke-opacity:1"
           d="M 760,570 240,690 v 10 l 80,110 h 360 l 80,-110 z"
           id="path56" />
        <path
           id="path57"
           style="display:inline;opacity:1;fill:#000000;fill-opacity:1;fill-rule:evenodd;stroke:#000000;stroke-width:20;stroke-dasharray:none;stroke-opacity:1"
           d="M 760,340 240,460 V 690 L 760,570 Z" />
      </g>
    </g>
    <g
       id="layer26"
       transform="translate(0,30)"
       style="display:none">
      <g
         id="layer27">
        <path
           id="path78"
           style="display:none;opacity:1;fill:#000000;fill-opacity:1;fill-rule:evenodd;stroke:#000000;stroke-width:20;stroke-dasharray:none;stroke-opacity:1"
           d="M 345,380 H 260 Z M 260,690 H 190 V 265 h 70 z M 740,380 H 655 M 190,265 v 425 h -30 v 100 h 113.78906 l 60,50 h 332.42188 l 60,-50 H 840 V 690 H 810 V 265 h -70 v 425 h -50 l -60,50 H 370 L 310,690 H 260 V 265 Z M 810,690 H 740 V 265 h 70 z" />
        <path
           id="path73"
           style="display:inline;opacity:1;fill:#000000;fill-opacity:1;fill-rule:evenodd;stroke:#000000;stroke-width:20;stroke-dasharray:none;stroke-opacity:1"
           d="M 260,690 H 190 V 265 h 70 z m 0,-310 H 740 Z M 190,265 v 425 h -30 v 100 h 113.78906 l 60,50 h 332.42188 l 60,-50 H 840 V 690 H 810 V 265 h -70 v 425 h -50 l -60,50 H 370 L 310,690 H 260 V 265 Z M 810,690 H 740 V 265 h 70 z" />
      </g>
      <g
         id="layer28">
        <path
           id="path75"
           style="display:none;opacity:1;fill:#000000;fill-opacity:1;fill-rule:evenodd;stroke:#000000;stroke-width:20;stroke-dasharray:none;stroke-opacity:1"
           d="m 593.79,110 60,50 V 640 H 346.21 V 160 l 60,-50 z m 60,530 H 346.21 Z m 0,0 H 346.21 Z m -60,-530 H 406.21 l -60,50 V 640 H 653.79 V 160 Z" />
        <path
           id="path71"
           style="display:inline;opacity:1;fill:#000000;fill-opacity:1;fill-rule:evenodd;stroke:#000000;stroke-width:20;stroke-dasharray:none;stroke-opacity:1"
           d="m 346.21,110 h 307.58 z m 60,530 h 187.58 l 60,-50 V 110 H 346.21 v 480 z" />
      </g>
    </g>
    <g
       id="layer29"
       transform="translate(0,30)"
       style="display:none">
      <path
         id="path91"
         style="opacity:1;fill:#000000;fill-opacity:1;fill-rule:evenodd;stroke:#000000;stroke-width:20;stroke-dasharray:none;stroke-opacity:1"
         d="M 830,463.87695 V 371.42773 L 621,170 h -1 v 92.44922 z M 620,330 V 262.44922 L 524.617,170 H 380 V 330 Z M 310,830 H 690 V 470 H 310 Z M 830,371.42773 621,170 H 170 v 660 h 660 z" />
    </g>
    <g
       id="layer30"
       style="display:none">
      <g
         id="layer31"
         style="display:inline">
        <path
           id="path98"
           style="display:inline;opacity:1;fill:#000000;fill-opacity:1;fill-rule:evenodd;stroke:#000000;stroke-width:20;stroke-dasharray:none;stroke-opacity:1"
           d="M 765.25806,546.9954 765,430 H 672.30575 L 335,622.74614 H 235 V 850 Z M 235,622.74614 H 335 L 672.30575,430 H 765 V 890 H 235 Z" />
        <path
           id="path93"
           style="display:none;opacity:1;fill:#000000;fill-opacity:1;fill-rule:evenodd;stroke:#000000;stroke-width:20;stroke-dasharray:none;stroke-opacity:1"
           d="M 765,820 V 535.71429 L 267.5,820 Z M 235,552.74614 H 335 L 672.30575,360 H 765 V 820 H 235 Z" />
      </g>
      <g
         id="layer32">
        <path
           id="path101"
           style="display:inline;opacity:1;fill:#000000;fill-opacity:1;fill-rule:evenodd;stroke:#000000;stroke-width:20;stroke-dasharray:none;stroke-opacity:1"
           d="M 383.0742,140 719.15826,332.04777 V 430 H 672.30575 L 331.85251,622.74614 H 285.50539 L 285.03067,140 Z m 0,0 336.08406,192.04777 V 430 H 672.30575 L 331.85251,622.74614 H 285.50539 L 285.03067,140 Z" />
        <path
           id="path100"
           style="display:none;opacity:1;fill:#000000;fill-opacity:1;fill-rule:evenodd;stroke:#000000;stroke-width:20;stroke-dasharray:none;stroke-opacity:1"
           d="M 621.08406,204.962 285,397.00977 v 155.73637 h 50 L 672.30575,360 h 46.34712 l 0.47472,-155.038 z m 0,0 L 285,397.00977 v 155.73637 h 50 L 672.30575,360 h 46.34712 l 0.47472,-155.038 z" />
      </g>
    </g>
    <g
       id="layer33"
       transform="matrix(2,0,0,2,-500,-540)"
       style="display:none;stroke-width:10;stroke-dasharray:none">
      <g
         id="layer34"
         style="stroke-width:10;stroke-dasharray:none">
        <path
           id="path116"
           style="opacity:1;fill:#000000;fill-opacity:1;fill-rule:evenodd;stroke:#000000;stroke-width:10;stroke-dasharray:none;stroke-opacity:1"
           d="m 425,625 v -50 l 125,-25 v 75 z m 0,0 H 550 V 550 L 425,575 Z M 550,535 V 640 H 655 V 535 Z m 0,0 H 655 V 640 H 550 Z m -205,25 v 80 h 80 v -80 z m 0,0 h 80 v 80 h -80 z m 300,-55 h 10 v 10 H 645 Z M 315,670 H 685 V 481.5 h -90 l -50,25 h -90 l -50,25 h -90 z m 0,-138.5 h 90 l 50,-25 h 90 l 50,-25 h 90 V 670 H 315 Z m 345,-50 V 410 H 340 v 121.5 h 20 v -89 L 372.5,430 h 255 l 12.5,12.5 v 39 z" />
      </g>
      <g
         id="layer35"
         style="stroke-width:10;stroke-dasharray:none">
        <path
           id="rect116"
           style="display:none;opacity:1;fill-rule:evenodd;stroke:#000000;stroke-width:10;stroke-dasharray:none"
           d="m 345,560 h 80 v 80 h -80 z" />
        <path
           style="display:none;opacity:1;fill:#000000;fill-opacity:1;fill-rule:evenodd;stroke:#000000;stroke-width:10;stroke-dasharray:none;stroke-opacity:1"
           d="M 425,575 476.77096,564.64581 495.50508,625 H 425 Z"
           id="path117" />
        <path
           style="display:none;opacity:1;fill:#000000;fill-opacity:1;fill-rule:evenodd;stroke:#000000;stroke-width:10;stroke-dasharray:none;stroke-opacity:1"
           d="m 550,550 v 75 h -54.49492 l -18.73412,-60.35419 z"
           id="path118" />
        <path
           id="rect117"
           style="display:none;opacity:1;fill-rule:evenodd;stroke:#000000;stroke-width:10;stroke-dasharray:none"
           d="M 550,535 H 655 V 640 H 550 Z" />
      </g>
    </g>
    <g
       id="layer36"
       style="display:none">
      <path
         id="path128"
         style="opacity:1;fill:#000000;fill-opacity:1;fill-rule:evenodd;stroke:#000000;stroke-width:20;stroke-dasharray:none;stroke-opacity:1"
         d="M 750,270 H 535 v 100 l 115,185 h 100 z m 0,500 V 555 H 650 L 465,670 v 100 z m -500,0 H 465 V 670 L 350,485 H 250 Z m 0,-285 H 350 L 535,370 V 270 H 250 Z m -47.26027,0 H 250 V 370 Z m -34.93151,85 v 0 H 250 V 670 H 130 v -8 z M 250,670 V 370 L 202.73973,485 167.80822,570 130,662 v 8 z M 465,817.26027 V 770 H 350 Z m 85,34.93151 v 0 V 770 h 100 v 120 h -8 z M 650,770 H 350 l 115,47.26027 85,34.93151 L 642,890 h 8 z M 797.26027,555 H 750 v 115 z m 34.93151,-85 v 0 H 750 V 370 h 120 v 8 z M 750,370 V 670 L 797.26027,555 832.19178,470 870,378 v -8 z M 535,222.73973 V 270 h 115 z m -85,-34.93151 v 0 V 270 H 350 V 150 h 8 z M 350,270 H 650 L 535,222.73973 450,187.80822 358,150 h -8 z m -100,0 H 750 V 770 H 250 Z" />
    </g>
  </g>
  <g
     id="g368"
     style="display:inline"
     transform="translate(0,-5.0000153)">
    <path
       id="path360"
       style="display:inline;opacity:1;fill:#000000;fill-opacity:1;fill-rule:evenodd;stroke:#000000;stroke-width:20;stroke-dasharray:none;stroke-opacity:1"
       d="m 594.54364,530 v 50 l 10,10 h 51.2727 l 18.7273,-29.7651 V 530 h -40 l -10,-10 -10,10 z M 197.287,500 h 20 v 0 z M 372.25568,404.727 394.28532,470 h -94.38725 l 41.06779,-65.273 z M 552.91189,419.69854 444.1495,407.61392 404.89807,470 H 569.88863 Z M 718.125,441.38889 V 470 H 583.31264 l 25.63367,-40.74207 z M 729.6875,534.443 743.88202,507.26719 825,483 v -2.44444 L 729.99992,470 761.85415,420 H 868.125 v 114.443 z m -47.1875,75 17.06299,50.557 h 72.5 L 729.6875,534.443 Z M 606.37549,695 h 105 L 682.5,609.443 h -105 z m -320,0 H 339.9375 L 328.125,660 H 274.56299 Z M 577.5,609.443 594.56299,660 H 328.125 274.56299 l -5.43849,-16.11406 5e-4,-34.44294 H 682.5 Z M 177.28703,470 h 60 v 60 h -60 z M 252.4375,594.443 H 193.125 l -60,-30 V 545 h 119.3125 z m 16.687,49.44294 -135.9995,6e-5 v -19.443 l 60,-30 h 76 v 15 z M 594.54364,580 l -10,10 h -40 l -10,-10 v -50 h 20 l 10,-10 10,10 h 20 z m -60,0 -10,10 h -40 l -10,-10 v -50 h 20 l 10,-10 10,10 h 20 z m -60,0 -10,10 h -40 l -10,-10 v -50 h 20 l 10,-10 10,10 h 20 z m -60,0 -10,10 h -40 l -10,-10 v -50 h 20 l 10,-10 10,10 h 20 z m -60,0 -10,10 h -40 l -10,-10 v -50 h 20 l 10,-10 10,10 h 20 z m 330,-60 -10,10 h -40 l -10,-10 v -50 h 60 z m -60,0 -10,10 h -40 l -10,-10 v -50 h 60 z m -60,0 -10,10 h -40 l -10,-10 v -50 h 60 z m -60,0 -10,10 h -40 l -10,-10 v -50 h 60 z m -60,0 -10,10 h -40 l -10,-10 v -50 h 60 z m -60,0 -10,10 h -40 l -10,-10 v -50 h 60 z m -60,0 -10,10 h -40 l -10,-10 v -50 h 60 z m 270,60 -10,10 h -40 l -10,-10 v -50 h 20 l 10,-10 10,10 h 20 z m -60,0 -10,10 h -40 l -10,-10 v -50 h 20 l 10,-10 10,10 h 20 z m -60,0 -10,10 h -40 l -10,-10 v -50 h 20 l 10,-10 10,10 h 20 z m -60,0 -10,10 h -40 l -10,-10 v -50 h 20 l 10,-10 10,10 h 20 z m -60,0 -10,10 h -40 l -10,-10 v -50 h 20 l 10,-10 10,10 h 20 z m 330,-60 -10,10 h -40 l -10,-10 v -50 h 60 z m -60,0 -10,10 h -40 l -10,-10 v -50 h 60 z m -60,0 -10,10 h -40 l -10,-10 v -50 h 60 z m -60,0 -10,10 h -40 l -10,-10 v -50 h 60 z m -60,0 -10,10 h -40 l -10,-10 v -50 h 60 z m -60,0 -10,10 h -40 l -10,-10 v -50 h 60 z m -60,0 -10,10 h -40 l -10,-10 v -50 h 60 z m 270,10 h -20 l -10,-10 -10,10 h -20 v 50 l 10,10 h 40 l 10,-10 z m -60,0 h -20 l -10,-10 -10,10 h -20 v 50 l 10,10 h 40 l 10,-10 z m -60,0 h -20 l -10,-10 -10,10 h -20 v 50 l 10,10 h 40 l 10,-10 z m -60,0 h -20 l -10,-10 -10,10 h -20 v 50 l 10,10 h 40 l 10,-10 z m -60,0 h -20 l -10,-10 -10,10 h -20 v 50 l 10,10 h 40 l 10,-10 z m 330,-60 h -60 v 50 l 10,10 h 40 l 10,-10 z m -60,0 h -60 v 50 l 10,10 h 40 l 10,-10 z m -60,0 h -60 v 50 l 10,10 h 40 l 10,-10 z m -60,0 h -60 v 50 l 10,10 h 40 l 10,-10 z m -60,0 h -60 v 50 l 10,10 h 40 l 10,-10 z m -60,0 h -60 v 50 l 10,10 h 40 l 10,-10 z m -60,0 h -60 v 50 l 10,10 h 40 l 10,-10 z M 340.96586,404.727 299.89807,470 h -130 L 133.125,528.44698 V 545 564.443 l 60,30 -60,30 v 19.443 h 136 l 5.43799,16.114 11.8125,35 H 339.9375 L 328.125,660 h 266.43799 l 11.8125,35 h 105 l -11.8125,-35 v 0 h 72.5 L 729.6875,534.443 H 868.125 V 420 H 761.85415 l -31.85423,50 H 718.125 V 441.38889 L 608.94631,429.25793 583.31264,470 H 394.28532 L 372.25568,404.727 Z M 404.89807,470 h -20.35443 60 125.34499 L 552.91189,419.69854 444.1495,407.61392 Z" />
    <g
       id="g367"
       style="display:inline">
      <path
         d="m 274.5625,660 11.8125,35 h 53.5625 L 328.125,660 Z"
         style="opacity:1;fill:url(#pattern368);fill-rule:evenodd;stroke:#000000;stroke-width:10"
         id="path361" />
      <path
         d="M 608.94631,429.25793 583.31264,470 H 718.125 v -28.61111 z"
         style="opacity:1;fill:url(#pattern371);fill-rule:evenodd;stroke:#000000;stroke-width:10"
         id="path362" />
      <path
         d="M 699.5625,660 682.5,609.44336 h -105 L 606.375,695 h 105 z"
         style="opacity:1;fill:url(#pattern360);fill-rule:evenodd;stroke:#000000;stroke-width:10"
         id="path363" />
      <path
         d="m 729.6875,534.44336 -47.1875,75 L 699.5625,660 h 72.5 z"
         style="opacity:1;fill:url(#pattern372);fill-rule:evenodd;stroke:#000000;stroke-width:10"
         id="path364" />
      <path
         d="M 761.85415,420 729.99992,470 825,480.55556 V 483 L 743.88202,507.26719 729.6875,534.44336 868.125,534.443 V 420 Z"
         style="opacity:1;fill:url(#pattern370);fill-rule:evenodd;stroke:#000000;stroke-width:10"
         id="path365" />
      <path
         d="M 444.1495,407.61392 404.89807,470 h 164.99056 l -16.97674,-50.30146 z"
         style="opacity:1;fill:url(#pattern356);fill-rule:evenodd;stroke:#000000;stroke-width:10"
         id="path366" />
      <path
         d="M 340.96586,404.727 299.89807,470 h 94.38725 l -22.02964,-65.273 z"
         style="opacity:1;fill:url(#pattern369);fill-rule:evenodd;stroke:#000000;stroke-width:10"
         id="path367" />
    </g>
  </g>
</svg>
