<?xml version="1.0" encoding="UTF-8" standalone="no"?>
<!-- Created with Inkscape (http://www.inkscape.org/) -->

<svg
   width="1000"
   height="1000"
   viewBox="0 0 1000 1000"
   version="1.1"
   id="svg1"
   xmlns:xlink="http://www.w3.org/1999/xlink"
   xmlns="http://www.w3.org/2000/svg"
   xmlns:svg="http://www.w3.org/2000/svg">
  <defs
     id="defs1">
    <pattern
       xlink:href="#pattern359"
       preserveAspectRatio="xMidYMid"
       id="pattern372"
       patternTransform="matrix(0.5,0,0,0.5,147.15462,1548.2922)" />
    <pattern
       xlink:href="#pattern357"
       preserveAspectRatio="xMidYMid"
       id="pattern371"
       patternTransform="matrix(0.5,0,0,0.5,221.32076,1552.4298)" />
    <pattern
       xlink:href="#pattern358"
       preserveAspectRatio="xMidYMid"
       id="pattern370"
       patternTransform="matrix(0.5,0,0,0.5,230.96346,1527.8214)" />
    <pattern
       xlink:href="#pattern355"
       preserveAspectRatio="xMidYMid"
       id="pattern369"
       patternTransform="matrix(0.5,0,0,0.5,287.08178,1553.6581)" />
    <pattern
       xlink:href="#pattern354"
       preserveAspectRatio="xMidYMid"
       id="pattern368"
       patternTransform="matrix(0.5,0,0,0.5,230.97274,1529.1717)" />
    <pattern
       xlink:href="#pattern342"
       preserveAspectRatio="xMidYMid"
       id="pattern360"
       patternTransform="matrix(0.5,0,0,0.5,210.45332,1525.5392)" />
    <pattern
       xlink:href="#pattern342"
       preserveAspectRatio="xMidYMid"
       id="pattern359"
       patternTransform="matrix(0.5,0,0,0.5,152.11125,1550.7705)" />
    <pattern
       xlink:href="#pattern342"
       preserveAspectRatio="xMidYMid"
       id="pattern358"
       patternTransform="matrix(0.5,0,0,0.5,202.11125,1533.2444)" />
    <pattern
       xlink:href="#pattern342"
       preserveAspectRatio="xMidYMid"
       id="pattern357"
       patternTransform="matrix(0.5,0,0,0.5,211.4075,1546.234)" />
    <pattern
       xlink:href="#pattern342"
       preserveAspectRatio="xMidYMid"
       id="pattern356"
       patternTransform="matrix(0.5,0,0,0.5,232.14929,1573.2544)" />
    <pattern
       xlink:href="#pattern342"
       preserveAspectRatio="xMidYMid"
       id="pattern355"
       patternTransform="matrix(0.5,0,0,0.5,275,1552.7287)" />
    <pattern
       xlink:href="#pattern342"
       preserveAspectRatio="xMidYMid"
       id="pattern354"
       patternTransform="matrix(0.5,0,0,0.5,235,1529.7913)" />
    <pattern
       xlink:href="#shading24"
       preserveAspectRatio="xMidYMid"
       id="pattern342"
       patternTransform="matrix(0.5,0,0,0.5,213.95332,1537.5392)"
       x="0"
       y="0" />
    <pattern
       patternUnits="userSpaceOnUse"
       width="338.5925"
       height="42.989567"
       patternTransform="translate(213.95332,1537.5392) scale(0.5)"
       preserveAspectRatio="xMidYMid"
       id="shading24"
       style="fill:#000000">
      <path
         style="fill-rule:nonzero;stroke:none;stroke-width:0.1;stroke-linecap:square;paint-order:markers fill stroke;stop-color:#000000"
         d="m 1806.4991,-758.06464 v 18.86792 c 55.9187,0 121.0493,0.59523 193.5686,3.15628 72.9408,2.57593 146.0589,6.87694 222.9288,13.47675 119.09,10.22471 223.0762,23.76065 340.6056,39.2177 117.5025,15.4535 222.0471,29.0563 341.8507,39.3312 77.366,6.63525 151.0001,10.96128 224.4674,13.55245 73.0344,2.5759 138.631,3.17493 194.9247,3.17493 -55.9642,0 -122.2215,-1.36594 -194.8324,-5.25394 -73.2143,-3.92032 -146.9676,-10.0663 -223.8166,-18.88656 -118.8791,-13.6442 -223.3242,-31.02113 -339.8009,-50.57815 -116.4705,-19.55598 -221.1862,-36.99475 -340.3724,-50.69165 -77.0605,-8.8558 -150.9942,-15.0266 -224.3694,-18.96225 -72.7637,-3.90286 -139.1256,-5.27261 -195.1541,-5.27261 z m 0,37.81515 v 18.86793 c 55.9187,0 121.0493,0.59523 193.5686,3.15627 72.9408,2.57593 146.0589,6.87694 222.9288,13.47676 119.09,10.22471 223.0762,23.76065 340.6056,39.2177 117.5025,15.4535 222.0471,29.0563 341.8507,39.33119 77.366,6.63526 151.0001,10.96128 224.4674,13.55245 73.0344,2.5759 138.631,3.17493 194.9247,3.17493 -55.9642,0 -122.2215,-1.36594 -194.8324,-5.25394 -73.2143,-3.92031 -146.9676,-10.0663 -223.8166,-18.88656 -118.8791,-13.6442 -223.3242,-31.02112 -339.8009,-50.57815 -116.4705,-19.55598 -221.1862,-36.99475 -340.3724,-50.69165 -77.0605,-8.8558 -150.9942,-15.02659 -224.3694,-18.96225 -72.7637,-3.90286 -139.1256,-5.2726 -195.1541,-5.2726 z m 0,37.81516 v 18.86792 c 55.9187,0 121.0493,0.59523 193.5686,3.15628 72.9408,2.57593 146.0589,6.87694 222.9288,13.47675 119.09,10.22471 223.0762,23.76065 340.6056,39.2177 117.5025,15.4535 222.0471,29.0563 341.8507,39.3312 77.366,6.63525 151.0001,10.96128 224.4674,13.55245 73.0344,2.5759 138.631,3.17493 194.9247,3.17493 -55.9642,0 -122.2215,-1.36594 -194.8324,-5.25394 -73.2143,-3.92032 -146.9676,-10.0663 -223.8166,-18.88656 -118.8791,-13.6442 -223.3242,-31.02113 -339.8009,-50.57815 -116.4705,-19.55598 -221.1862,-36.99475 -340.3724,-50.69165 -77.0605,-8.8558 -150.9942,-15.0266 -224.3694,-18.96225 -72.7637,-3.90286 -139.1256,-5.27261 -195.1541,-5.27261 z m 0,37.81515 v 18.86793 c 55.9187,0 121.0493,0.59523 193.5686,3.15627 72.9408,2.57593 146.0589,6.87694 222.9288,13.47676 119.09,10.22471 223.0762,23.76065 340.6056,39.2177 117.5025,15.4535 222.0471,29.0563 341.8507,39.33119 77.366,6.63526 151.0001,10.96128 224.4674,13.55245 73.0344,2.5759 138.631,3.17494 194.9247,3.17494 -55.9642,0 -122.2215,-1.36595 -194.8324,-5.25395 -73.2143,-3.92031 -146.9676,-10.0663 -223.8166,-18.88656 -118.8791,-13.6442 -223.3242,-31.02112 -339.8009,-50.57815 -116.4705,-19.55598 -221.1862,-36.99475 -340.3724,-50.69165 -77.0605,-8.8558 -150.9942,-15.02659 -224.3694,-18.96225 -72.7637,-3.90286 -139.1256,-5.2726 -195.1541,-5.2726 z m 0,37.81516 v 18.86792 c 55.9187,0 121.0493,0.59523 193.5686,3.15628 72.9408,2.57593 146.0589,6.87694 222.9288,13.47675 119.09,10.22471 223.0762,23.76065 340.6056,39.2177 117.5025,15.4535 222.0471,29.0563 341.8507,39.3312 77.366,6.63525 151.0001,10.96128 224.4674,13.55245 73.0344,2.5759 138.631,3.17493 194.9247,3.17493 -55.9642,0 -122.2215,-1.36594 -194.8324,-5.25394 -73.2143,-3.92032 -146.9676,-10.0663 -223.8166,-18.88656 -118.8791,-13.6442 -223.3242,-31.02113 -339.8009,-50.57815 -116.4705,-19.55598 -221.1862,-36.99475 -340.3724,-50.69165 -77.0605,-8.8558 -150.9942,-15.0266 -224.3694,-18.96225 -72.7637,-3.90286 -139.1256,-5.27261 -195.1541,-5.27261 z m 0,37.81515 v 18.86793 c 55.9187,0 121.0493,0.59523 193.5686,3.15627 72.9408,2.57593 146.0589,6.87694 222.9288,13.47676 119.09,10.22471 223.0762,23.76065 340.6056,39.2177 117.5025,15.4535 222.0471,29.0563 341.8507,39.33119 77.366,6.63526 151.0001,10.96128 224.4674,13.55245 73.0344,2.5759 138.631,3.17494 194.9247,3.17494 -55.9642,0 -122.2215,-1.36595 -194.8324,-5.25395 -73.2143,-3.92031 -146.9676,-10.0663 -223.8166,-18.88656 -118.8791,-13.6442 -223.3242,-31.02112 -339.8009,-50.57815 -116.4705,-19.55598 -221.1862,-36.99475 -340.3724,-50.69165 -77.0605,-8.8558 -150.9942,-15.02659 -224.3694,-18.96225 -72.7637,-3.90286 -139.1256,-5.2726 -195.1541,-5.2726 z m 0,37.81516 v 18.86792 c 55.9187,0 121.0493,0.59523 193.5686,3.15628 72.9408,2.57593 146.0589,6.87694 222.9288,13.47675 119.09,10.22471 223.0762,23.76065 340.6056,39.2177 117.5025,15.4535 222.0471,29.0563 341.8507,39.3312 77.366,6.63525 151.0001,10.96128 224.4674,13.55245 73.0344,2.5759 138.631,3.17493 194.9247,3.17493 -55.9642,0 -122.2215,-1.36594 -194.8324,-5.25394 -73.2143,-3.92032 -146.9676,-10.0663 -223.8166,-18.88656 -118.8791,-13.6442 -223.3242,-31.02113 -339.8009,-50.57815 -116.4705,-19.55598 -221.1862,-36.99475 -340.3724,-50.69165 -77.0605,-8.8558 -150.9942,-15.0266 -224.3694,-18.96225 -72.7637,-3.90286 -139.1256,-5.27261 -195.1541,-5.27261 z"
         id="use26"
         transform="matrix(0.22300099,0,0,0.37823052,-402.85121,237.25945)" />
    </pattern>
    <clipPath
       clipPathUnits="userSpaceOnUse"
       id="clipPath54">
      <path
         id="path336"
         style="stroke-width:0.0999999;stroke-linecap:square;paint-order:markers fill stroke;stop-color:#000000"
         d="m 1691.1994,-792.32001 h 1634.8919 v 92.82806 H 1691.1994 Z" />
    </clipPath>
    <clipPath
       clipPathUnits="userSpaceOnUse"
       id="clipPath33">
      <rect
         style="fill:#000000;stroke:none;stroke-width:0.999995;stroke-linecap:butt;stroke-linejoin:bevel;paint-order:stroke markers fill;stop-color:#000000"
         id="rect33"
         width="46.19186"
         height="80.006783"
         x="74.999985"
         y="399.99661" />
    </clipPath>
    <clipPath
       clipPathUnits="userSpaceOnUse"
       id="clipPath27">
      <rect
         style="fill:none;stroke:#000000;stroke-width:0.999999;stroke-linecap:butt;stroke-linejoin:bevel;paint-order:stroke markers fill;stop-color:#000000"
         id="rect28-6"
         width="46.160622"
         height="39.922417"
         x="86.574379"
         y="420.06253" />
    </clipPath>
    <clipPath
       clipPathUnits="userSpaceOnUse"
       id="clipPath25">
      <rect
         style="fill:#ff0000;stroke:none;stroke-width:3;stroke-linecap:square;stroke-linejoin:miter;paint-order:stroke markers fill;stop-color:#000000"
         id="rect25-8"
         width="78"
         height="45.033199"
         x="763.61322"
         y="452.82422" />
    </clipPath>
    <clipPath
       clipPathUnits="userSpaceOnUse"
       id="clipPath15">
      <rect
         style="fill:none;stroke:#000000;stroke-linecap:butt;stroke-linejoin:bevel;paint-order:stroke markers fill;stop-color:#000000"
         id="rect15-7"
         width="45.034248"
         height="38.955639"
         x="262.48285"
         y="121.00073" />
    </clipPath>
    <linearGradient
       id="swatch75">
      <stop
         style="stop-color:#000000;stop-opacity:1;"
         offset="0"
         id="stop75" />
    </linearGradient>
  </defs>
  <g
     id="layer51"
     style="display:inline">
    <g
       id="layer45"
       style="display:inline">
      <path
         style="baseline-shift:baseline;display:inline;overflow:visible;opacity:1;vector-effect:none;fill-rule:evenodd;enable-background:accumulate;stop-color:#000000;stop-opacity:1"
         d="m 227.20117,215.88672 -19.79883,2.83008 c 0.64551,4.51849 1.4314,8.36594 1.68164,11.61914 0.19038,2.47495 -0.0293,5.73188 -0.0293,9.74804 v 10.51368 12.26757 c 0,6.30105 0.38549,11.85248 0.0312,16.63086 -2.1568,17.24038 -3.2318,25.2785 -3.63867,28.24414 -0.10298,0.75054 -0.16401,1.18294 -0.19922,1.4375 -0.009,0.0636 -0.0145,0.1143 -0.0234,0.18164 -0.009,0.0673 0.005,-0.93724 -0.082,0.89063 -0.002,0.0348 1.24612,0.31281 1.44922,0.38867 0.0149,3.11332 -0.14145,10.21512 -1.02539,25.24219 -0.55737,9.47524 -2.90969,19.91568 -3.50977,31.61719 -0.67872,13.23518 0.51207,25.55093 -0.002,36.85937 -0.57791,12.714 -2.71356,26.04904 -3.5,40.20508 -0.46227,8.32066 -0.0156,16.11383 -0.0156,23.33789 v 36.80078 26.28516 c 0,10.05592 -0.76311,20.82754 0.0234,32.23242 0.58865,8.53549 3.06172,14.76126 3.47852,19.24023 -0.004,14.23648 -0.0834,21.28729 -0.13086,23.6875 -0.0108,0.54453 -0.018,0.80703 -0.0215,0.91602 -0.002,0.0777 -0.0143,0.24334 -0.0156,0.3125 -0.001,0.0736 -0.004,0.13889 -0.004,0.25781 -1.1e-4,0.0595 -2.2e-4,0.12068 0.004,0.28906 0.002,0.0842 0.004,0.18101 0.0215,0.44336 0.0179,0.26235 0.99399,3.7165 0.99414,3.7168 10e-6,2e-5 1.07074,-0.12462 1.21875,-0.14062 0.4329,3.15245 0.95959,7.07888 1.48242,12.83007 0.47246,5.19703 -0.041,11.34194 -0.041,18.3711 v 17.52539 70.0957 26.28711 10.51563 c 0,-0.44863 -0.76882,1.65905 0.29883,5.92968 0.68431,2.73725 1.36997,4.22821 1.77343,4.78711 0.0943,0.44394 0.0243,0.69973 0.19336,1.20703 0.52421,1.57262 0.90472,2.3505 1.24024,3.01954 v 4.33203 15.77343 3.50391 c 0,-2.06497 0.1901,-1.98193 -0.0234,-0.68555 -0.18192,1.10443 -0.3287,4.63634 1.77539,7.85352 v 20.87109 8.76172 c 0,-2.06491 0.19205,-1.97996 -0.0215,-0.68359 -0.18185,1.104 -0.32806,4.63143 1.77343,7.84765 v 3.35157 c 0,2.64909 0.39933,3.2339 0.28907,2.56445 -0.0735,-0.44603 -0.17644,-2.43539 0.6289,-4.62109 0.10744,0.11792 0.14411,0.24957 0.25977,0.36523 2.18365,2.1837 5.07265,2.76182 7.07031,2.85547 v 10.58789 c -2.06501,0 -1.98193,-0.19205 -0.68555,0.0215 1.29639,0.21354 5.96993,0.58876 9.50977,-2.95117 3.53988,-3.53988 3.16275,-8.21144 2.94922,-9.50781 -0.21353,-1.29637 -0.0215,-1.37941 -0.0215,0.68555 v -7.00977 c 0,2.06491 -0.19204,1.97996 0.0215,0.68359 0.18191,-1.1044 0.33055,-4.63442 -1.77344,-7.85156 V 834.1582 811.37695 809.625 c 0,2.06496 -0.19205,1.97996 0.0215,0.68359 0.18185,-1.104 0.32807,-4.63142 -1.77343,-7.84765 v -15.61914 -5.25586 c 0,1.52403 1.00433,-0.36191 -0.51367,-4.91602 -0.62997,-1.88988 -1.15207,-3.03405 -1.49024,-3.62695 -0.0975,-0.56853 -0.0334,-0.94391 -0.26172,-1.62891 -0.58259,-1.7478 -0.92541,-2.49975 -1.22851,-3.13672 -0.006,-0.3093 -0.0117,-0.2871 -0.0117,-0.71093 v -10.51563 -26.28711 -70.0957 -17.52539 c 0,-5.82203 0.65001,-12.58027 -0.041,-20.18164 -1.2303,-13.53328 -1.4606,-17.89816 -3.03711,-22.80078 -0.0953,-0.29634 -0.37112,-0.81406 -0.52148,-1.1875 0.0429,-3.91913 0.0957,-6.65636 0.0957,-17.16407 v -0.41601 l -0.0351,-0.41602 c -0.71065,-8.52783 -3.19068,-14.7325 -3.49415,-19.13281 -0.66031,-9.5745 0.0234,-19.88414 0.0234,-30.85742 v -26.28516 -36.80078 c 0,-7.96368 -0.39584,-15.3848 -0.0156,-22.22852 0.70969,-12.77445 2.86293,-26.17602 3.50976,-40.40625 0.60002,-13.20031 -0.57973,-25.47548 -0.002,-36.74218 0.48356,-9.42934 2.81489,-19.8219 3.5,-31.46875 1.04668,-17.79356 1.30462,-25.38483 1.06055,-29.78711 -0.0506,-0.91319 -0.0373,-1.66503 -0.4961,-3.27735 0.57445,-4.29517 1.16052,-8.5986 2.88086,-22.36132 l 0.0293,-0.23633 0.0195,-0.23633 c 0.52644,-6.84383 0.0293,-12.96087 0.0293,-18.29102 v -12.26757 -10.51368 c 0,-2.99355 0.31794,-6.76709 -0.0293,-11.28125 -0.38335,-4.9835 -1.30142,-9.25649 -1.82422,-12.91601 z m -19.56445,95.03125 c 3.2038,0.98087 10.93788,2.80273 14.0918,3.51953 -1.53654,1.01377 -4.12743,2.14126 -7.12891,1.625 -3.35539,-0.57713 -5.39096,-2.65363 -6.29297,-3.87891 -0.45489,-0.61791 -0.47346,-0.85529 -0.66992,-1.26562 z m 11.6914,298.92187 c -0.39692,0.37792 -0.7896,0.76031 -1.41406,1.16211 -1.6523,1.06318 -4.59185,1.87081 -7.11914,1.41211 -1.17995,-0.21415 -2.10126,-0.54212 -2.89062,-0.91015 4.45138,-0.50359 8.86956,-1.10382 11.42382,-1.66407 z m -11.91015,164.08789 c -0.0116,0.0751 -0.0648,0.55335 -0.11524,0.83399 0.0159,-0.67861 0.1388,-0.98684 0.11524,-0.83399 z m 19.88281,2.21289 c -0.0159,0.67863 -0.1388,0.98685 -0.11523,0.83399 0.0116,-0.0751 0.0648,-0.55334 0.11523,-0.83399 z m -6.49414,69.42579 v 8.66796 c -1.70995,-0.28029 -3.69656,-0.86843 -5.31836,-2.49023 -0.57727,-0.57728 -0.92879,-1.19921 -1.29101,-1.81445 0.3622,-0.61514 0.71383,-1.23532 1.29101,-1.8125 1.79886,-1.7989 3.71715,-2.35286 5.31836,-2.55078 z"
         id="path386" />
      <path
         style="baseline-shift:baseline;display:inline;overflow:visible;opacity:1;vector-effect:none;fill-rule:evenodd;enable-background:accumulate;stop-color:#000000;stop-opacity:1"
         d="m 596.28906,122.91016 c -1.7692,0.0783 -3.10271,0.27539 -3.96679,0.27539 h -17.52344 -24.53516 c -2.56205,0 -6.59143,-0.66272 -11.92773,0.0996 -6.48863,0.92694 -10.067,1.60207 -12.98633,2.50781 -1.89176,0.58693 -3.74372,1.7695 -5.09961,2.71094 -0.0725,0.0222 -0.0656,0.0246 -0.20898,0.0605 -1.20589,0.30225 -4.67928,0.92597 -11.25196,1.69922 -2.79456,0.32877 -7.25215,-0.3337 -13.30469,-0.0586 -8.40633,0.3821 -16.73399,1.03317 -24.98437,1.7832 -45.09085,4.09916 -20.13295,2.04096 -56.53906,7.0625 -9.16283,1.26384 -18.48367,2.30948 -27.91407,3.48828 -9.41619,1.17702 -18.71539,2.43868 -27.93359,3.49219 -15.70623,1.795 -48.29952,4.87446 -64.98437,7.02734 -7.97852,1.0295 -15.60041,2.43993 -22.9668,3.53125 -8.34757,1.23668 -16.35603,2.63441 -24.11524,3.45118 -5.79986,0.61051 -3.98138,0.36307 -7.14257,-0.0996 -3.1612,-0.46269 -7.36696,-0.0122 -15.41797,2.13476 -6.08509,1.6227 -10.89177,4.03364 -14.95313,5.55664 l 7.02149,18.72656 c 5.28496,-1.98185 9.5262,-4.00971 13.08593,-4.95898 7.37078,-1.96554 7.14092,-1.70333 7.36915,-1.66992 0.22823,0.0334 4.85179,0.96739 12.13085,0.20117 8.6721,-0.91286 16.95503,-2.37397 24.95118,-3.55859 7.83415,-1.16062 15.33606,-2.54153 22.59765,-3.47852 15.78657,-2.03697 48.465,-5.13729 64.69532,-6.99219 9.49805,-1.08549 18.86615,-2.35803 28.14257,-3.51757 9.26223,-1.15778 18.66743,-2.21134 28.16602,-3.52149 36.89902,-5.08952 10.58136,-2.86287 55.61719,-6.95703 8.08,-0.73455 16.10756,-1.36018 24.08203,-1.72266 3.28414,-0.14927 8.24663,0.70663 14.73437,-0.0566 6.9203,-0.81415 10.78438,-1.41391 13.77735,-2.16406 1.49648,-0.37508 2.85176,-0.79969 4.29297,-1.53906 0.93136,-0.47781 1.48417,-1.00551 2.14453,-1.54102 0.824,-0.25246 3.81604,-0.94079 9.82226,-1.79883 1.60298,-0.22899 4.65195,0.10157 9.09961,0.10157 h 24.53516 17.52344 c 4.11328,0 6.44569,-0.25792 6.97265,-0.16211 1.77965,0.32357 4.74329,1.68591 9.14258,3.15234 l 0.48828,0.16406 0.50391,0.11133 c 4.85364,1.07859 10.24431,2.65217 16.38086,3.6211 6.97914,1.10196 12.88536,0.97893 17.4414,1.73828 7.49672,1.24945 9.44995,1.9164 12.08203,2.98047 2.54195,1.02762 6.44024,2.84111 13.97657,5.23828 10.69026,5.23034 20.1844,4.05966 25.41015,5.55273 l 1.70703,0.48633 1.76954,-0.12891 c 1.24903,-0.0913 2.30517,0.25355 5.04296,1.91211 2.73779,1.65857 6.49176,4.68717 12.38477,6.45508 6.00997,1.80299 9.62133,1.46102 10.22461,1.66211 1.64341,0.5478 4.61773,2.68708 9.61523,4.9082 4.19123,1.86277 7.58988,2.46549 7.6875,2.48828 0.0976,0.0228 -0.38118,-0.36544 3.09375,1.95118 -1.88884,-1.25924 -1.13238,0.41171 3.50586,3.5039 4.07461,2.71639 6.81472,3.39031 7.25586,3.66602 2.43891,1.52431 3.21969,2.05465 4.11328,2.64844 0.0236,0.0363 0.0514,0.13417 0.0742,0.16796 1.8646,2.76015 2.98508,3.35681 5.38086,5.27344 1.80104,1.44083 3.09911,2.32203 3.85352,2.74805 0.27043,0.58562 0.54011,1.18711 1.08203,2 2.11629,3.17444 4.13897,5.45198 5.4414,7.27539 0.97432,1.36405 2.03474,3.0609 3.32227,4.99219 h -0.002 c 1.84166,2.7625 2.76149,3.94412 2.63476,3.64843 -0.24171,-0.564 -0.29831,1.889 1.66016,6.78516 2.07217,5.18042 4.4174,8.41752 5.25586,10.51367 0.78539,1.96349 0.71328,7.0381 3.50586,14.01953 1.86654,4.66638 4.09281,8.26375 5.59765,11.27344 1.91329,3.82657 2.82065,5.33621 2.66993,4.63281 0.87369,4.07722 0.68722,9.76067 1.61914,16.75 0.58422,4.3817 1.57284,7.16149 1.72656,8.54493 0.0141,0.12716 -0.50193,2.49237 0,7.00976 0.69028,6.21254 0.64512,7.76709 1.5625,11.12305 0.11467,0.41949 0.22997,0.89992 0.66992,1.83984 0.3399,0.72616 0.55552,2.19382 2.7793,3.72852 0.14284,0.67292 0.21609,0.88711 0.37695,1.6914 0.06,0.29992 -0.19336,2.57262 -0.19336,6.80078 v 17.52344 17.52539 5.25586 c 0,3.36935 -0.0605,4.2692 0.29883,2.83203 -0.14195,0.56781 -1.98622,3.18522 -3.45117,8.55664 -1.80031,6.60114 -2.54697,9.1982 -2.95899,12 -0.103,0.70046 -0.39256,1.16686 -0.0371,3.55664 0.11469,0.77104 0.28464,2.06792 1.19532,3.59961 -0.0728,0.43639 -0.0653,0.52034 -0.15235,1.01368 -1.0929,6.19312 -3.24531,12.87772 -5.11133,20.34179 -0.7424,2.96966 -1.09571,5.03323 -1.46679,6.07227 -1.84973,5.17923 -4.67736,10.85857 -7.03125,17.58398 -2.3887,6.82484 -3.4208,12.78573 -5.13867,17.20313 -1.05807,2.72075 -4.85619,7.05189 -7.23438,14.66211 -2.50161,8.00516 -1.4066,12.97371 -1.69531,13.83984 -1.46898,4.40693 -4.87639,9.53013 -8.21875,16.21484 -1.94438,3.88877 -3.40926,7.304 -4.95117,9.94727 -1.30263,2.23308 -4.51515,5.47756 -7.31641,11.08008 -3.29051,6.58103 -4.92301,9.95705 -5.96094,12.65625 -0.51896,1.3496 -1.2642,2.16646 -1.12304,5.71289 0.0333,0.83581 0.28213,1.9942 0.71484,3.17969 -0.26119,1.11506 -0.52769,2.32916 -1.18359,4.29687 -0.9943,2.9829 -1.03953,3.00254 -1.69141,4.90039 -1.23184,0.74315 -2.08299,1.48338 -2.64648,2.08985 -1.61516,1.73833 -2.43943,3.16402 -3.61915,5.22851 -2.74851,4.80992 -3.26893,8.25466 -3.76757,9.25195 -0.70191,1.4038 -3.20068,4.11019 -5.45118,9.17383 -2.37838,5.35136 -2.17396,7.95929 -1.75195,7.00977 -0.5162,1.16145 -2.71786,3.66229 -5.0625,8.35156 -2.09104,4.18205 -2.19272,6.13349 -1.7539,5.25586 -1.99253,3.98504 -2.74758,4.91299 -4.09766,6.89063 -1.35008,1.97763 -3.11842,4.9269 -5.00391,9.64062 -1.92242,4.80605 -2.53463,8.35275 -3.32422,10.08984 -0.81375,1.79027 -2.56684,4.24266 -4.66992,7.66016 -2.70184,4.3905 -5.90973,9.01733 -8.92773,14.29883 -2.72213,4.76374 -3.84447,8.34971 -4.89649,9.92773 -1.21444,1.82168 -5.19822,4.71227 -8.95703,10.82032 -3.99138,6.48598 -4.48051,11.08991 -5.0625,11.96289 -2.39112,3.58669 -6.89055,7.47803 -11.6289,13.16406 -2.62835,3.15401 -4.06169,5.63998 -5.09961,6.82617 -1.04638,1.19586 -4.06358,3.1925 -7.37891,7.45508 -3.62475,4.66039 -4.66021,8.01471 -5.17187,8.6543 -4.07656,5.09568 -4.86557,5.63853 -6.42383,6.63867 -1.55827,1.00014 -5.23183,2.85717 -11.1836,7.48633 -3.26165,2.53685 -5.02169,4.91231 -6.18945,6.08007 l -8.76172,8.76368 c -3.20702,3.20702 -4.36733,4.38943 -5.35937,5.39648 -0.0489,0.0394 -0.1259,0.0972 -0.18164,0.13281 -0.51021,0.32595 -0.86563,0.59099 -1.26758,0.89453 -1.60781,1.21416 -3.87149,3.11118 -8.47656,7.14063 -2.20431,1.92876 -4.40604,4.32894 -6.95313,6.96094 -1.27354,1.31599 -2.51467,2.59441 -3.48828,3.57226 -0.97361,0.97785 -2.11161,1.9336 -1.38086,1.36524 -1.17299,0.91232 -4.13955,2.14316 -8.16992,4.83007 -4.71758,3.14506 -8.6211,6.33204 -12.26563,8.76172 -1.73483,1.15656 -5.14134,2.52153 -9.21679,5.57813 -5.73424,4.30067 -9.04174,8.41146 -11.67383,10.10351 -1.69014,1.08652 -5.66866,2.05709 -11.11719,4.6211 -5.78658,2.7231 -12.06129,5.50044 -18.33594,9.1914 -5.80531,3.4149 -9.4502,7.07168 -12.34179,8.80664 -3.60329,2.16198 -8.21717,4.07538 -13.34766,6.64063 -3.50488,1.75243 -7.0088,3.50342 -10.51367,5.25586 -5.08344,2.5417 -9.41848,5.06792 -13.39453,6.72461 0.6764,-0.28183 -2.016,-0.47119 -7.22461,1.84375 -5.06363,2.25051 -7.77006,4.74928 -9.17383,5.45117 -3.3678,1.6839 -4.96763,2.36257 -5.54492,2.58984 -0.21339,0.0139 -0.45681,-0.0358 -0.64844,-0.004 -1.77663,0.29528 -2.61088,0.7267 -3.42969,1.10156 -1.6376,0.74971 -3.30693,1.68125 -6.63672,3.58398 -2.90774,1.66156 -4.27181,2.65605 -4.28711,2.87891 -0.72289,0.0872 -3.10974,0.18538 -7.51953,1.44531 -4.14585,1.18454 -5.43157,2.46834 -4.4707,2.08399 -0.62468,0.24987 -2.45227,0.62973 -5.25781,1.75195 -3.11833,1.24734 -4.02586,1.90836 -2.95313,1.55078 -0.82965,0.27655 -3.26965,0.50525 -7.00976,1.75195 -3.55108,1.18369 -4.74952,2.23223 -4.05664,1.95508 -0.11066,0.0443 -2.32881,0.2484 -6.01563,2.0918 -1.62774,0.81387 -2.61909,1.56184 -3.37305,2.19141 -0.84605,-0.0848 -2.7118,0.0165 -5.24023,0.31054 -4.04037,0.0522 -7.24009,1.28282 -9.29883,2.15235 -2.31156,0.97631 -3.5181,1.39405 -3.5625,1.40039 0.64032,-0.0915 -1.84511,-0.86208 -7.24023,0.0371 -2.02144,0.3369 -3.33669,0.93973 -4.29102,1.50781 -1.03086,-0.27649 -3.42979,-0.6699 -8.29297,0.30273 -6.51664,1.30332 -9.18421,3.59628 -8.9707,3.54883 0.54256,-0.12057 -1.05708,-0.23828 -4.83984,-0.23828 -1.60034,0 -4.32949,-0.3601 -8.11524,0.0606 -4.47542,0.49725 -7.42805,1.55613 -9.07226,1.79101 0.71009,-0.10144 0.0212,-0.0996 -2.08985,-0.0996 H 311.93353 297.914 283.89447 c -2.84843,0 -4.04687,0.0645 -3.61328,0.13672 1.25474,0.20912 -0.35889,-0.93743 -5.25781,-1.7539 -3.36411,-0.56069 -5.33251,-0.27508 -6.29492,-0.18164 -0.57662,-0.56897 -1.11136,-1.1413 -2.06836,-1.7793 -3.31994,-2.21331 -6.57332,-1.86378 -7.70704,-1.71289 -1.13371,0.15088 -1.15072,0.0332 0.40625,0.0332 h -7.54492 c -0.79391,-0.41042 -1.90955,-0.91832 -4.04883,-1.45312 -2.32756,-0.58192 -3.86273,-0.61477 -4.84179,-0.52735 -0.93484,-0.42465 -2.25643,-0.9044 -4.38477,-1.33008 -4.28249,-0.85649 -6.77376,-0.19335 -7.21875,-0.19336 -1.03191,0 -1.51255,-0.0102 -1.85937,-0.008 -0.22449,-0.22279 -1.53184,-0.86887 -4.94141,-1.55078 -1.1443,-0.22886 -2.00415,-0.24671 -2.75976,-0.24023 -0.64883,-0.30306 -1.35015,-0.62714 -3.04883,-1.19336 -1.73039,-0.5768 -2.91209,-2.50816 -8.79492,0.0703 -2.94142,1.28923 -5.95075,5.88153 -6.10938,8.80469 -0.15863,2.92315 0.5999,4.19436 1.01172,5.05664 0.13686,0.28656 0.24804,0.46418 0.36328,0.66406 l -0.20898,0.20898 c 0.87515,0.87516 1.19723,1.25134 1.14453,1.18946 -0.0264,-0.0309 -0.14722,-0.17174 -0.36133,-0.47071 -0.0262,-0.0365 -0.0827,-0.11733 -0.084,-0.11914 0,0 0.0831,-0.058 0.084,-0.0586 0.16539,-0.11345 16.40809,-11.25581 16.43945,-11.20898 0.0622,0.0928 0.126,0.19215 0.19531,0.30468 0.13864,0.22506 0.29517,0.49537 0.47461,0.8711 0.35889,0.75145 1.06276,1.87035 0.91211,4.64648 -0.15065,2.77613 -3.08887,7.22735 -5.83203,8.42969 -5.48631,2.40467 -5.7621,0.51615 -5.55859,0.58398 -1.92919,-0.64305 -0.73799,0.72175 4.24219,1.9668 2.07802,0.51951 3.41466,0.43896 4.33593,0.33984 0.33002,0.25665 1.61606,0.86267 4.89063,1.51758 3.70971,0.74194 5.60399,0.19532 5.46484,0.19531 1.86168,0 1.5972,-0.0738 2.00586,-0.11914 0.52801,0.26722 1.51559,0.66404 3.5957,1.35743 4.55411,1.51801 6.43805,0.51367 4.91407,0.51367 0.42733,0 0.40589,0.005 0.71679,0.0117 0.6378,0.30311 1.38625,0.64503 3.13086,1.22656 4.55411,1.51801 6.4381,0.51367 4.91407,0.51367 h 6.10742 c 0.81808,0.79918 1.89845,1.67872 3.43945,2.44922 3.18913,1.59455 5.96705,1.33438 7.26172,1.19336 1.29467,-0.14103 1.62337,-0.13672 0.7168,-0.13672 2.84843,0 4.04686,-0.0644 3.61328,-0.13672 -1.25472,-0.20912 0.35694,0.93547 5.25586,1.75195 3.89076,0.64847 6.24591,0.13672 6.90234,0.13672 h 14.01953 14.01953 8.76172 c 0.22549,0 1.89673,0.33032 4.91992,-0.10156 4.25304,-0.60757 7.00589,-1.55231 8.45118,-1.71289 0.85883,-0.0954 2.83344,0.0625 5.90625,0.0625 0.89039,0 4.07329,0.89603 9.17773,-0.23828 6.35511,-1.41227 8.90209,-3.53042 8.55469,-3.46094 -0.61951,0.1239 2.15741,0.95909 8.21484,0.0937 2.16105,-0.30871 3.52486,-0.94274 4.52539,-1.54297 0.89055,0.1691 2.58129,0.27605 5.99024,-0.21093 4.16549,-0.59508 6.86235,-2.07629 8.51757,-2.7754 1.65523,-0.6991 2.00067,-0.62913 1.67774,-0.65039 l 0.95117,0.0625 0.94531,-0.11718 c -1.15739,0.14467 1.97077,1.56193 8.51758,-0.3086 3.35239,-0.95782 5.27974,-2.66948 6.32617,-3.53906 1.04644,-0.86958 1.37318,-0.99518 0.65625,-0.63672 -0.38239,0.1912 1.17849,-0.0843 4.49805,-1.41211 3.1184,-1.24735 4.02588,-1.90641 2.95313,-1.54883 0.82966,-0.27655 3.26963,-0.50717 7.00976,-1.7539 3.55105,-1.18368 4.74943,-2.23024 4.05664,-1.95313 0.62466,-0.24986 2.45228,-0.6317 5.25781,-1.7539 3.3864,-1.35458 4.17306,-1.88874 2.53907,-1.42188 0.79455,-0.22701 4.22932,-0.0179 9.52539,-2.0039 5.23051,-1.96144 6.99747,-4.35152 6.70703,-4.18555 2.5957,-1.48326 3.52381,-1.95214 4.12305,-2.25977 1.33074,-0.1945 2.24872,-0.48991 3.16406,-0.82617 1.91873,-0.70487 4.09737,-1.71275 7.99609,-3.66211 4.68927,-2.34463 7.19009,-4.54629 8.35156,-5.0625 -0.80679,0.35858 1.67209,0.47436 6.79493,-1.66015 5.66965,-2.36236 10.38164,-5.16545 14.64453,-7.29688 3.50486,-1.75244 7.01076,-3.50539 10.51562,-5.25781 4.21581,-2.10791 9.33433,-4.16466 14.69141,-7.37891 5.72622,-3.43574 9.33428,-7.03613 12.1914,-8.7168 4.98382,-2.93165 10.68086,-5.49537 16.7129,-8.33398 2.602,-1.22447 7.62183,-2.16774 13.41601,-5.89258 6.42831,-4.13248 9.97675,-8.76577 12.85938,-10.92773 1.37434,-1.03076 4.37726,-2.31336 8.31054,-4.93555 4.71758,-3.14505 8.6211,-6.33398 12.26563,-8.76367 1.63774,-1.09183 5.1512,-2.41362 9.35547,-5.68359 1.60696,-1.24987 2.14778,-1.91047 3.27343,-3.04102 1.12566,-1.13055 2.40542,-2.45057 3.6875,-3.77539 2.56418,-2.64965 5.61969,-5.70262 5.75196,-5.81836 3.84013,-3.36011 5.38855,-4.61225 6.32226,-5.35547 0.008,-0.004 0.0334,-0.008 0.041,-0.0117 0.55939,-0.26402 0.87597,-0.46361 1.125,-0.62304 1.99222,-1.27544 1.41447,-1.09079 1.55078,-1.22071 0.13631,-0.12991 0.20237,-0.1965 0.27344,-0.26758 0.14213,-0.14215 0.27963,-0.28223 0.48047,-0.48632 0.80332,-0.8164 2.56753,-2.61246 6.46484,-6.50977 l 8.76172,-8.76172 c 2.3371,-2.33711 3.67531,-3.92932 4.32617,-4.43555 4.94354,-3.84497 6.53674,-4.40662 9.70703,-6.4414 3.1703,-2.03479 6.57085,-5.14227 11.23828,-10.97656 3.74389,-4.67988 4.78423,-8.15227 5.3418,-8.86914 0.74209,-0.95412 3.33699,-2.78665 6.64258,-6.56446 2.8087,-3.20994 4.30281,-5.85985 5.41406,-7.19336 3.21215,-3.85457 8.40656,-8.12644 12.9043,-14.87304 4.35341,-6.53013 4.78334,-11.48265 5.45508,-12.57422 1.02339,-1.66301 4.71747,-4.4385 8.56445,-10.20899 3.29524,-4.94285 4.45297,-9.0588 5.61914,-11.09961 2.45025,-4.28794 5.5231,-8.74409 8.59766,-13.74023 1.4672,-2.3842 3.83858,-5.45386 5.84375,-9.86524 2.26797,-4.98952 2.86378,-8.8831 3.68554,-10.9375 1.48985,-3.72462 1.8795,-4.21547 2.95508,-5.79101 1.07558,-1.57554 3.01294,-4.31494 5.4668,-9.22266 2.09103,-4.18205 2.19077,-6.13544 1.75195,-5.25781 0.70189,-1.40377 3.20067,-4.11018 5.45117,-9.17383 2.37837,-5.35134 2.17593,-7.95736 1.75391,-7.00781 0.5162,-1.16146 2.71786,-3.66232 5.0625,-8.35156 0.77236,-1.54474 1.12919,-2.60207 1.56836,-3.75586 1.98192,-0.69736 2.99106,-1.58929 3.64062,-2.21094 1.35519,-1.29695 1.59035,-1.91193 1.875,-2.40625 0.56931,-0.98863 0.73936,-1.46753 0.98438,-2.06836 0.98008,-2.4033 2.19808,-6.01807 4.74219,-13.65039 1.92191,-5.76573 2.88789,-8.37884 2.8164,-12.62305 -0.009,-0.52779 -0.28381,-1.36051 -0.41211,-2.06445 0.71994,-1.6276 1.54211,-3.49632 4.0625,-8.53711 0.96636,-1.93272 3.76083,-4.90332 6.70313,-9.94726 2.40699,-4.12627 4.00397,-7.96108 5.56445,-11.08204 2.4991,-4.99818 6.64314,-10.84934 9.30469,-18.83398 2.68985,-8.06957 1.50269,-13.21409 1.81054,-14.19922 0.73863,-2.36362 4.0539,-6.35872 6.78321,-13.37695 2.70298,-6.95052 3.73625,-13.15802 5.37695,-17.84571 1.80285,-5.151 4.60593,-10.79427 6.98828,-17.46484 1.24904,-3.4973 1.61124,-6.24377 2.03711,-7.94726 1.63885,-6.55539 3.98389,-13.67888 5.40235,-21.7168 0.52776,-2.99065 0.8556,-5.19878 1.03906,-7.03711 0.18346,-1.83833 0.57426,-2.82632 -0.20313,-6.01367 -0.0542,-0.22217 -0.31207,-0.67765 -0.39843,-0.97071 0.40271,-1.62985 0.32019,-1.44604 1.11523,-4.36132 v -0.002 c 0.19145,-0.6993 2.17505,-3.43264 3.55859,-8.96679 1.20936,-4.83739 0.29883,-7.54808 0.29883,-7.6836 v -5.25586 -17.52539 -17.52344 c 0,-1.61327 0.89226,-5.2965 -0.19336,-10.7246 -0.64862,-3.2431 -1.18555,-5.62649 -1.68945,-7.51954 -0.50391,-1.89304 -0.67517,-3.02374 -1.99024,-5.3125 -0.26102,-0.45428 -0.68037,-1.18677 -1.21093,-1.90429 -0.1534,-1.13661 -0.0729,-0.47655 -0.23438,-1.92969 -0.0141,-0.12719 0.50193,-2.49237 0,-7.00977 -0.50414,-4.53726 -1.5762,-7.45728 -1.77929,-8.98046 -0.61985,-4.64883 -0.30029,-10.89355 -1.88672,-18.29688 -1.24545,-5.81216 -3.9146,-8.54012 -4.33789,-9.38672 -2.00003,-4.00005 -3.8739,-7.14761 -4.91797,-9.75781 -0.78539,-1.96347 -0.71134,-7.0381 -3.50391,-14.01953 -2.07216,-5.18043 -4.41934,-8.41749 -5.25781,-10.51367 0.16949,0.42371 0.29351,-2.24287 -1.8457,-7.23438 -1.78605,-4.16743 -3.88009,-6.12286 -4.375,-6.86523 -1.04905,-1.57357 -2.21542,-3.45977 -3.68946,-5.52344 -1.95278,-2.73388 -3.59613,-4.6631 -4.73437,-6.29297 -0.0404,-0.0944 -0.0299,-0.0483 -0.0859,-0.19922 -0.33804,-0.91019 -1.01829,-3.04564 -3.25391,-5.28125 -3.74221,-3.74221 -6.3652,-4.46872 -6.08203,-4.24219 -0.41748,-0.33398 -0.51443,-0.46782 -0.80273,-0.73828 -0.50056,-0.95056 -1.01346,-1.68031 -1.40235,-2.12109 -1.26022,-1.42841 -1.82667,-1.70969 -2.53906,-2.2207 -1.42477,-1.02203 -3.25685,-2.19105 -6.7168,-4.35352 -3.10738,-1.94211 -4.93316,-2.62764 -5.88476,-2.98828 0.23262,-0.18356 -1.03447,-1.6291 -4.38281,-3.86133 -4.16046,-2.77364 -7.26796,-4.23268 -9.64258,-4.78711 -2.37462,-0.55443 -1.29281,-0.0364 -4.11133,-1.28906 -2.16413,-0.96184 -5.62253,-3.67495 -11.41406,-5.60547 -6.13848,-2.04615 -10.00598,-1.60472 -10.80274,-1.84375 -1.3806,-0.41418 -3.92141,-2.07504 -7.76953,-4.40625 -3.42445,-2.07455 -8.47814,-4.4975 -14.60351,-4.66602 -10.01839,-2.63963 -17.35155,-2.08683 -21.41211,-4.2207 l -0.80274,-0.42187 -0.86523,-0.27149 c -7.21698,-2.2553 -9.46348,-3.45078 -13.08789,-4.91601 -3.62442,-1.46524 -8.03975,-2.78886 -16.29102,-4.16407 -7.02535,-1.17089 -12.98908,-1.03836 -17.60742,-1.76757 -4.30444,-0.67965 -9.13989,-2.02561 -14.49609,-3.24024 -2.59975,-0.91117 -6.25661,-2.76577 -11.5625,-3.73047 -2.61013,-0.47456 -4.81479,-0.51386 -6.58399,-0.43554 z m -76.20898,5.71289 c -0.60973,0.43028 -1.42024,0.99359 -1.45117,1.02343 -0.0491,0.0474 0.90595,-0.74388 1.43945,-1.01757 0.008,-0.004 0.004,-0.002 0.0117,-0.006 z m 259.12695,60.01562 c 0.0303,0.34537 0.038,0.68119 0.0293,1.04883 0.0336,-0.36278 -0.032,-0.68794 -0.0293,-1.04883 z m -0.12695,2.31445 c -0.0515,0.31837 -0.0268,0.61234 -0.11719,0.93946 -0.22843,0.82656 -0.39732,1.01685 -0.62891,1.58984 0.31214,-0.64953 0.55791,-1.55469 0.7461,-2.5293 z m 47.40039,119.22461 c 0.0244,-0.12602 0.11014,0.0286 -0.16211,0.69727 4.7e-4,-0.0867 0.15073,-0.63836 0.16211,-0.69727 z m -19.46875,74.28516 c -0.22024,0.32997 -0.34003,0.60236 -0.45508,0.75781 -0.13877,0.1875 -0.20877,0.26847 -0.0254,0.0449 0.0958,-0.11679 0.0698,-0.37173 0.48047,-0.80273 z m -37.3457,159.94531 c -0.0975,0.4414 -0.1957,0.46277 -0.0898,0.1875 0.006,-0.0166 0.0827,-0.16938 0.0898,-0.1875 z m -12.39844,8.28907 c 0.17495,0.0456 0.48647,0.17121 0.60742,0.19921 0.93591,0.21669 0.41092,0.17172 -0.60742,-0.19921 z M 608.66797,756.56836 c -0.0436,0.0611 -0.0543,0.0196 -0.47656,0.72656 -0.0673,0.11265 -0.19614,0.3653 -0.30664,0.57617 0.29185,-0.64173 0.5244,-0.9107 0.63281,-1.07812 0.17773,-0.2745 0.23763,-0.34681 0.15039,-0.22461 z m -1.62891,6.22656 c 0.34572,0.84452 1.50252,3.67177 2.19922,5.37305 -1.52487,-1.90372 -2.11931,-3.78551 -2.19922,-5.37305 z m 4.27344,7.33789 c 1.60095,0.52996 4.00355,1.32429 5.4375,1.79883 -1.54579,0.0593 -3.31351,-0.27048 -5.4375,-1.79883 z M 360.7832,882.75586 c -0.053,0.0405 -0.22423,0.15203 -0.26367,0.17969 -0.27165,0.1905 -0.18282,0.0481 0.26367,-0.17969 z m 11.21875,16.55469 c 0.3058,-0.21445 0.22843,-0.0877 -0.19922,0.13281 0.038,-0.0284 0.16827,-0.1111 0.19922,-0.13281 z"
         id="path387" />
    </g>
  </g>
</svg>
