<?xml version="1.0" encoding="UTF-8" standalone="no"?>
<!-- Created with Inkscape (http://www.inkscape.org/) -->

<svg
   width="1000"
   height="1000"
   viewBox="0 0 1000 1000"
   version="1.1"
   id="svg1"
   xmlns:xlink="http://www.w3.org/1999/xlink"
   xmlns="http://www.w3.org/2000/svg"
   xmlns:svg="http://www.w3.org/2000/svg">
  <defs
     id="defs1">
    <pattern
       xlink:href="#pattern359"
       preserveAspectRatio="xMidYMid"
       id="pattern372"
       patternTransform="matrix(0.5,0,0,0.5,147.15462,1548.2922)" />
    <pattern
       xlink:href="#pattern357"
       preserveAspectRatio="xMidYMid"
       id="pattern371"
       patternTransform="matrix(0.5,0,0,0.5,221.32076,1552.4298)" />
    <pattern
       xlink:href="#pattern358"
       preserveAspectRatio="xMidYMid"
       id="pattern370"
       patternTransform="matrix(0.5,0,0,0.5,230.96346,1527.8214)" />
    <pattern
       xlink:href="#pattern355"
       preserveAspectRatio="xMidYMid"
       id="pattern369"
       patternTransform="matrix(0.5,0,0,0.5,287.08178,1553.6581)" />
    <pattern
       xlink:href="#pattern354"
       preserveAspectRatio="xMidYMid"
       id="pattern368"
       patternTransform="matrix(0.5,0,0,0.5,230.97274,1529.1717)" />
    <pattern
       xlink:href="#pattern342"
       preserveAspectRatio="xMidYMid"
       id="pattern360"
       patternTransform="matrix(0.5,0,0,0.5,210.45332,1525.5392)" />
    <pattern
       xlink:href="#pattern342"
       preserveAspectRatio="xMidYMid"
       id="pattern359"
       patternTransform="matrix(0.5,0,0,0.5,152.11125,1550.7705)" />
    <pattern
       xlink:href="#pattern342"
       preserveAspectRatio="xMidYMid"
       id="pattern358"
       patternTransform="matrix(0.5,0,0,0.5,202.11125,1533.2444)" />
    <pattern
       xlink:href="#pattern342"
       preserveAspectRatio="xMidYMid"
       id="pattern357"
       patternTransform="matrix(0.5,0,0,0.5,211.4075,1546.234)" />
    <pattern
       xlink:href="#pattern342"
       preserveAspectRatio="xMidYMid"
       id="pattern356"
       patternTransform="matrix(0.5,0,0,0.5,232.14929,1573.2544)" />
    <pattern
       xlink:href="#pattern342"
       preserveAspectRatio="xMidYMid"
       id="pattern355"
       patternTransform="matrix(0.5,0,0,0.5,275,1552.7287)" />
    <pattern
       xlink:href="#pattern342"
       preserveAspectRatio="xMidYMid"
       id="pattern354"
       patternTransform="matrix(0.5,0,0,0.5,235,1529.7913)" />
    <pattern
       xlink:href="#shading24"
       preserveAspectRatio="xMidYMid"
       id="pattern342"
       patternTransform="matrix(0.5,0,0,0.5,213.95332,1537.5392)"
       x="0"
       y="0" />
    <pattern
       patternUnits="userSpaceOnUse"
       width="338.5925"
       height="42.989567"
       patternTransform="translate(213.95332,1537.5392) scale(0.5)"
       preserveAspectRatio="xMidYMid"
       id="shading24"
       style="fill:#000000">
      <path
         style="fill-rule:nonzero;stroke:none;stroke-width:0.1;stroke-linecap:square;paint-order:markers fill stroke;stop-color:#000000"
         d="m 1806.4991,-758.06464 v 18.86792 c 55.9187,0 121.0493,0.59523 193.5686,3.15628 72.9408,2.57593 146.0589,6.87694 222.9288,13.47675 119.09,10.22471 223.0762,23.76065 340.6056,39.2177 117.5025,15.4535 222.0471,29.0563 341.8507,39.3312 77.366,6.63525 151.0001,10.96128 224.4674,13.55245 73.0344,2.5759 138.631,3.17493 194.9247,3.17493 -55.9642,0 -122.2215,-1.36594 -194.8324,-5.25394 -73.2143,-3.92032 -146.9676,-10.0663 -223.8166,-18.88656 -118.8791,-13.6442 -223.3242,-31.02113 -339.8009,-50.57815 -116.4705,-19.55598 -221.1862,-36.99475 -340.3724,-50.69165 -77.0605,-8.8558 -150.9942,-15.0266 -224.3694,-18.96225 -72.7637,-3.90286 -139.1256,-5.27261 -195.1541,-5.27261 z m 0,37.81515 v 18.86793 c 55.9187,0 121.0493,0.59523 193.5686,3.15627 72.9408,2.57593 146.0589,6.87694 222.9288,13.47676 119.09,10.22471 223.0762,23.76065 340.6056,39.2177 117.5025,15.4535 222.0471,29.0563 341.8507,39.33119 77.366,6.63526 151.0001,10.96128 224.4674,13.55245 73.0344,2.5759 138.631,3.17493 194.9247,3.17493 -55.9642,0 -122.2215,-1.36594 -194.8324,-5.25394 -73.2143,-3.92031 -146.9676,-10.0663 -223.8166,-18.88656 -118.8791,-13.6442 -223.3242,-31.02112 -339.8009,-50.57815 -116.4705,-19.55598 -221.1862,-36.99475 -340.3724,-50.69165 -77.0605,-8.8558 -150.9942,-15.02659 -224.3694,-18.96225 -72.7637,-3.90286 -139.1256,-5.2726 -195.1541,-5.2726 z m 0,37.81516 v 18.86792 c 55.9187,0 121.0493,0.59523 193.5686,3.15628 72.9408,2.57593 146.0589,6.87694 222.9288,13.47675 119.09,10.22471 223.0762,23.76065 340.6056,39.2177 117.5025,15.4535 222.0471,29.0563 341.8507,39.3312 77.366,6.63525 151.0001,10.96128 224.4674,13.55245 73.0344,2.5759 138.631,3.17493 194.9247,3.17493 -55.9642,0 -122.2215,-1.36594 -194.8324,-5.25394 -73.2143,-3.92032 -146.9676,-10.0663 -223.8166,-18.88656 -118.8791,-13.6442 -223.3242,-31.02113 -339.8009,-50.57815 -116.4705,-19.55598 -221.1862,-36.99475 -340.3724,-50.69165 -77.0605,-8.8558 -150.9942,-15.0266 -224.3694,-18.96225 -72.7637,-3.90286 -139.1256,-5.27261 -195.1541,-5.27261 z m 0,37.81515 v 18.86793 c 55.9187,0 121.0493,0.59523 193.5686,3.15627 72.9408,2.57593 146.0589,6.87694 222.9288,13.47676 119.09,10.22471 223.0762,23.76065 340.6056,39.2177 117.5025,15.4535 222.0471,29.0563 341.8507,39.33119 77.366,6.63526 151.0001,10.96128 224.4674,13.55245 73.0344,2.5759 138.631,3.17494 194.9247,3.17494 -55.9642,0 -122.2215,-1.36595 -194.8324,-5.25395 -73.2143,-3.92031 -146.9676,-10.0663 -223.8166,-18.88656 -118.8791,-13.6442 -223.3242,-31.02112 -339.8009,-50.57815 -116.4705,-19.55598 -221.1862,-36.99475 -340.3724,-50.69165 -77.0605,-8.8558 -150.9942,-15.02659 -224.3694,-18.96225 -72.7637,-3.90286 -139.1256,-5.2726 -195.1541,-5.2726 z m 0,37.81516 v 18.86792 c 55.9187,0 121.0493,0.59523 193.5686,3.15628 72.9408,2.57593 146.0589,6.87694 222.9288,13.47675 119.09,10.22471 223.0762,23.76065 340.6056,39.2177 117.5025,15.4535 222.0471,29.0563 341.8507,39.3312 77.366,6.63525 151.0001,10.96128 224.4674,13.55245 73.0344,2.5759 138.631,3.17493 194.9247,3.17493 -55.9642,0 -122.2215,-1.36594 -194.8324,-5.25394 -73.2143,-3.92032 -146.9676,-10.0663 -223.8166,-18.88656 -118.8791,-13.6442 -223.3242,-31.02113 -339.8009,-50.57815 -116.4705,-19.55598 -221.1862,-36.99475 -340.3724,-50.69165 -77.0605,-8.8558 -150.9942,-15.0266 -224.3694,-18.96225 -72.7637,-3.90286 -139.1256,-5.27261 -195.1541,-5.27261 z m 0,37.81515 v 18.86793 c 55.9187,0 121.0493,0.59523 193.5686,3.15627 72.9408,2.57593 146.0589,6.87694 222.9288,13.47676 119.09,10.22471 223.0762,23.76065 340.6056,39.2177 117.5025,15.4535 222.0471,29.0563 341.8507,39.33119 77.366,6.63526 151.0001,10.96128 224.4674,13.55245 73.0344,2.5759 138.631,3.17494 194.9247,3.17494 -55.9642,0 -122.2215,-1.36595 -194.8324,-5.25395 -73.2143,-3.92031 -146.9676,-10.0663 -223.8166,-18.88656 -118.8791,-13.6442 -223.3242,-31.02112 -339.8009,-50.57815 -116.4705,-19.55598 -221.1862,-36.99475 -340.3724,-50.69165 -77.0605,-8.8558 -150.9942,-15.02659 -224.3694,-18.96225 -72.7637,-3.90286 -139.1256,-5.2726 -195.1541,-5.2726 z m 0,37.81516 v 18.86792 c 55.9187,0 121.0493,0.59523 193.5686,3.15628 72.9408,2.57593 146.0589,6.87694 222.9288,13.47675 119.09,10.22471 223.0762,23.76065 340.6056,39.2177 117.5025,15.4535 222.0471,29.0563 341.8507,39.3312 77.366,6.63525 151.0001,10.96128 224.4674,13.55245 73.0344,2.5759 138.631,3.17493 194.9247,3.17493 -55.9642,0 -122.2215,-1.36594 -194.8324,-5.25394 -73.2143,-3.92032 -146.9676,-10.0663 -223.8166,-18.88656 -118.8791,-13.6442 -223.3242,-31.02113 -339.8009,-50.57815 -116.4705,-19.55598 -221.1862,-36.99475 -340.3724,-50.69165 -77.0605,-8.8558 -150.9942,-15.0266 -224.3694,-18.96225 -72.7637,-3.90286 -139.1256,-5.27261 -195.1541,-5.27261 z"
         id="use26"
         transform="matrix(0.22300099,0,0,0.37823052,-402.85121,237.25945)" />
    </pattern>
    <clipPath
       clipPathUnits="userSpaceOnUse"
       id="clipPath54">
      <path
         id="path336"
         style="stroke-width:0.0999999;stroke-linecap:square;paint-order:markers fill stroke;stop-color:#000000"
         d="m 1691.1994,-792.32001 h 1634.8919 v 92.82806 H 1691.1994 Z" />
    </clipPath>
    <clipPath
       clipPathUnits="userSpaceOnUse"
       id="clipPath33">
      <rect
         style="fill:#000000;stroke:none;stroke-width:0.999995;stroke-linecap:butt;stroke-linejoin:bevel;paint-order:stroke markers fill;stop-color:#000000"
         id="rect33"
         width="46.19186"
         height="80.006783"
         x="74.999985"
         y="399.99661" />
    </clipPath>
    <clipPath
       clipPathUnits="userSpaceOnUse"
       id="clipPath27">
      <rect
         style="fill:none;stroke:#000000;stroke-width:0.999999;stroke-linecap:butt;stroke-linejoin:bevel;paint-order:stroke markers fill;stop-color:#000000"
         id="rect28-6"
         width="46.160622"
         height="39.922417"
         x="86.574379"
         y="420.06253" />
    </clipPath>
    <clipPath
       clipPathUnits="userSpaceOnUse"
       id="clipPath25">
      <rect
         style="fill:#ff0000;stroke:none;stroke-width:3;stroke-linecap:square;stroke-linejoin:miter;paint-order:stroke markers fill;stop-color:#000000"
         id="rect25-8"
         width="78"
         height="45.033199"
         x="763.61322"
         y="452.82422" />
    </clipPath>
    <clipPath
       clipPathUnits="userSpaceOnUse"
       id="clipPath15">
      <rect
         style="fill:none;stroke:#000000;stroke-linecap:butt;stroke-linejoin:bevel;paint-order:stroke markers fill;stop-color:#000000"
         id="rect15-7"
         width="45.034248"
         height="38.955639"
         x="262.48285"
         y="121.00073" />
    </clipPath>
    <linearGradient
       id="swatch75">
      <stop
         style="stop-color:#000000;stop-opacity:1;"
         offset="0"
         id="stop75" />
    </linearGradient>
  </defs>
  <g
     id="layer51"
     style="display:inline">
    <g
       id="layer46"
       style="display:inline">
      <path
         style="baseline-shift:baseline;display:inline;overflow:visible;opacity:1;vector-effect:none;fill-rule:evenodd;enable-background:accumulate;stop-color:#000000;stop-opacity:1"
         d="m 233.58789,171.73828 v 87.62109 17.5254 c 0,5.26391 -0.56899,11.42042 0.0371,18.39062 0.78546,9.03285 3.01995,16.46643 3.49805,22.68164 0.45967,5.97586 -0.79439,13.65564 0.008,22.88086 0.69992,8.0492 3.12758,13.75425 3.51758,17.6543 0.3918,3.91801 -0.67727,9.76309 -0.0137,17.39453 0.7837,9.01252 2.99966,16.45869 3.5,22.71289 1.21696,15.21198 -0.94481,19.04178 -0.0156,34.83789 0.37011,6.29192 1.48758,11.51613 1.75586,15.80859 0.1346,2.15357 -0.98319,6.68485 0.11719,13.28711 0.61674,3.70046 2.05808,6.03275 2.80078,7.42969 0.74269,1.39694 0.78158,1.84587 0.68359,1.20898 0.4023,2.61498 -0.11718,6.81315 -0.11719,12.5 v 12.26758 c 0,2.90129 -0.38559,6.72725 0.041,11.41992 0.45712,5.02846 1.66549,7.88929 1.76172,8.85157 0.094,0.9403 0.0343,5.31279 -0.11719,9.45312 -0.15147,4.14033 -0.54936,7.70967 0.20313,12.22461 0.62263,3.7358 2.08712,6.06744 2.82617,7.44922 0.73904,1.38178 0.74539,1.78999 0.64453,1.08398 0.47683,3.33781 -0.10156,8.15732 -0.10156,14.35743 0,1.72813 -0.78705,5.33048 0.16211,10.55078 1.18438,6.51412 3.36784,9.70508 3.47851,10.36914 0.21584,1.29501 -0.13476,4.27022 -0.13476,8.87109 v 10.51367 10.51563 c 0,3.716 0.09,4.85864 0.27929,4.30859 -0.0884,0.1648 -0.16526,0.32334 -0.4414,0.74805 -0.74824,1.15079 -2.31501,3.23588 -3.10547,6.79297 -1.1267,5.0701 -0.68214,7.54257 -0.36914,8.53515 -0.56079,0.95379 -1.15325,2.27112 -1.48438,4.25782 -0.86497,5.18989 -0.10214,7.78259 -0.0762,7.54883 -0.13085,1.17764 -0.24521,1.71121 -0.38476,2.67773 -0.32145,0.6208 -0.66802,1.30423 -0.83008,1.64453 -0.95531,2.00601 -0.82469,2.36007 -0.94532,2.98047 -0.48249,2.4816 -0.73814,5.27589 -1.36523,12.17383 -0.49266,5.41931 0.0971,7.9908 0.1543,7.70508 0.13944,-0.69719 -2.37806,1.97339 -3.5625,9.08007 -1.03259,6.19554 -0.13672,10.91715 -0.13672,13.91016 v 36.80078 33.29688 12.26757 c 0,0.61131 -0.008,0.65175 -0.0176,1.0254 -0.4742,0.79604 -1.00949,1.8544 -1.43555,3.55859 -1.06765,4.27064 -0.29882,6.37829 -0.29882,5.92969 v 3.50586 12.26757 c 0,2.26426 -0.0335,2.8691 0.13476,1.85938 -0.13375,0.8025 -1.0938,3.06083 -1.75195,7.00976 -0.55245,3.31461 -0.13672,5.07812 -0.13672,5.1504 v 5.25585 12.26758 12.26758 5.23828 c -0.32833,0.65993 -0.95586,2.06251 -1.55664,5.06641 -0.74194,3.70971 -0.19531,5.60594 -0.19531,5.4668 v 2.99609 c -0.45137,0.72773 -0.88853,1.55428 -1.23829,2.60351 -1.7028,5.10836 -0.51367,7.60789 -0.51367,6.66797 v 1.75196 12.26757 1.57618 c -0.23916,0.37395 -0.46732,0.50104 -0.69726,0.96093 -1.40981,2.81957 -1.2104,5.16168 -1.09766,6.22461 h -1.71094 c 0,-0.90655 0.004,-0.57982 -0.13672,0.71485 -0.14102,1.29466 -0.40119,4.07258 1.19336,7.26172 2.71645,5.43277 7.61193,5.96922 10.15039,5.87109 2.53847,-0.0981 4.64676,-0.30112 7.61719,-3.27148 3.15558,-3.15565 3.11442,-6.8986 2.93555,-8.66016 0.23636,-0.37056 0.46217,-0.49466 0.68945,-0.94922 1.464,-2.92795 1.20408,-5.41331 1.09571,-6.4082 -0.10838,-0.9949 -0.0391,-1.01508 -0.0391,0.18359 v -3.50391 -12.26757 -1.24414 c 0.45137,-0.72774 0.88853,-1.55428 1.23828,-2.60352 1.7028,-5.10835 0.51368,-7.60789 0.51368,-6.66797 v -3.5039 c 0,-1.18264 0.0193,-1.84884 0.01,-2.13282 0.12394,-0.12518 0.65871,-1.05866 1.44531,-4.20508 0.92594,-3.70388 0.29688,-5.21044 0.29688,-4.17773 v -5.25586 -12.26758 -12.26758 -5.25585 c 0,-2.26431 0.0335,-2.87115 -0.13477,-1.86133 0.13375,-0.8025 1.09381,-3.06083 1.75196,-7.00977 0.5524,-3.3145 0.13672,-5.07611 0.13672,-5.14844 v -12.26757 -3.50586 c 0,-0.6118 0.006,-0.65164 0.0156,-1.02539 0.4741,-0.79606 1.01164,-1.85517 1.4375,-3.5586 1.06765,-4.27063 0.29883,-6.37829 0.29883,-5.92969 v -12.26757 -33.29688 -36.80078 c 0,-5.185 -0.44859,-8.75183 -0.13672,-10.62305 -0.15014,0.90087 2.07397,-1.57886 3.44727,-8.44531 1.20274,-6.01372 0.11614,-9.41825 0.15234,-9.81641 0.32518,-3.57695 0.37674,-3.69544 0.57226,-5.39257 0.0578,-0.11008 0.20978,-0.3031 0.26172,-0.39453 0.5821,-1.02465 0.74782,-1.58534 0.90235,-2.0586 1.2362,-3.78604 1.07313,-5.14062 1.75,-11.23242 0.34589,-3.11293 0.25815,-4.7143 0.125,-5.61133 0.61281,-0.9989 1.26954,-2.36538 1.58789,-4.59375 0.80899,-5.66299 0.2064,-8.02036 -0.0566,-7.77539 0.0832,-0.15151 0.0871,-0.18339 0.26758,-0.46094 0.70412,-1.08294 2.2315,-3.06663 3.0957,-6.52343 1.35103,-5.4041 0.29883,-8.71589 0.29883,-9.43555 v -10.51563 -10.51367 c 0,-2.40887 0.79984,-6.53885 -0.13672,-12.1582 -1.10405,-6.62432 -3.39192,-9.90456 -3.5293,-10.66016 -0.0958,-0.52692 0.16016,-2.85935 0.16016,-6.97265 0,-4.3145 0.91054,-10.11639 -0.0996,-17.1875 -0.54573,-3.8201 -2.03376,-6.24245 -2.80664,-7.6875 -0.77289,-1.44505 -0.83986,-1.93758 -0.73438,-1.30469 0.0515,0.30911 -0.0942,-4.13205 0.0547,-8.20313 0.14894,-4.07107 0.43792,-8.10913 0.0312,-12.17578 -0.49653,-4.96528 -1.66194,-7.7696 -1.74414,-8.67383 -0.20803,-2.28826 0.041,-5.49897 0.041,-9.60742 v -12.26758 c 0,-3.65944 0.90363,-8.91836 -0.11523,-15.54101 -0.57631,-3.74603 -2.0321,-6.12551 -2.79297,-7.55664 -0.76087,-1.43113 -0.83201,-1.92567 -0.73242,-1.32813 -0.24408,-1.46447 0.49273,-5.23756 0.11719,-11.24609 -0.39164,-6.26623 -1.49888,-11.46718 -1.75,-15.73633 -0.80162,-13.62744 1.36361,-18.01928 -0.0156,-35.25976 -0.72506,-9.06331 -2.96227,-16.55347 -3.50976,-22.84961 -0.34848,-4.00754 0.75897,-9.94546 -0.0117,-17.65235 -0.7955,-7.95509 -3.16195,-13.5762 -3.49414,-17.39648 -0.51352,-5.90544 0.71493,-13.51448 0.01,-22.68164 -0.70046,-9.10597 -2.96795,-16.60503 -3.51367,-22.88086 -0.40598,-4.66877 0.0371,-10.23924 0.0371,-16.6582 v -17.5254 -87.62109 z m 21.97656,458.6543 c -0.0275,0.0393 -0.13748,0.21099 -0.17773,0.26367 0.22737,-0.44531 0.36806,-0.53507 0.17773,-0.26367 z m 16.50782,11.28515 c -0.22052,0.42763 -0.34727,0.50502 -0.13282,0.19922 0.0217,-0.0309 0.10446,-0.16123 0.13282,-0.19922 z m -20.91993,12.97071 c -0.0387,-0.19482 -0.0182,-0.10199 0.008,0.0723 0.0182,0.12175 0.22219,0.828 0.22656,0.99805 -0.24537,-0.67447 -0.21061,-0.95061 -0.23438,-1.07031 z m -6.8789,207.04883 c -0.0935,0.0607 -0.65252,0.48078 -1.01172,0.70312 0.70255,-0.67557 1.20251,-0.82707 1.01172,-0.70312 z m 11.9082,16.06835 c -0.70255,0.67557 -1.20251,0.82707 -1.01172,0.70313 0.0935,-0.0607 0.65252,-0.48078 1.01172,-0.70313 z m -14.12305,8.78516 c -0.0621,0.0455 -0.37815,0.30317 -0.5332,0.40625 0.45112,-0.43352 0.71076,-0.53637 0.5332,-0.40625 z m 3.71485,4.55859 c 1.83082,-0.0708 6.05651,0.25962 8.51172,5.16993 0.19251,0.38503 0.17333,0.62193 0.28906,0.96679 h -16.66211 c 0.39116,-1.18516 0.96728,-2.42428 2.10937,-3.5664 2.55738,-2.55731 3.92114,-2.49954 5.75196,-2.57032 z m 8.64062,11.16797 c -0.45113,0.43356 -0.71075,0.53637 -0.5332,0.40625 0.0621,-0.0455 0.37816,-0.30317 0.5332,-0.40625 z"
         id="path388" />
      <path
         style="baseline-shift:baseline;display:inline;overflow:visible;opacity:1;vector-effect:none;fill-rule:evenodd;enable-background:accumulate;stop-color:#000000;stop-opacity:1"
         d="m 639.9375,161.5918 c -1.37887,-0.0426 -3.06513,-0.0229 -5.04492,0.22461 -4.50813,0.56352 -6.87779,1.72149 -7.41211,1.81054 1.00978,-0.1683 0.40298,-0.13672 -1.86133,-0.13672 h -5.25781 c 0.13915,0 -1.75709,-0.54662 -5.4668,0.19532 -3.40815,0.68163 -4.7138,1.32759 -4.93945,1.55078 -0.34676,-0.002 -0.82924,0.008 -1.86133,0.008 h -5.25586 c 1.19864,0 1.17849,0.0693 0.18359,-0.0391 -0.99489,-0.10838 -3.48032,-0.37019 -6.4082,1.09375 -0.46002,0.23001 -0.58689,0.45803 -0.96094,0.69726 h -5.08203 -3.50586 c 1.52399,0 -0.35987,-1.00439 -4.91406,0.51368 -1.56965,0.52321 -2.34425,0.90292 -3.01367,1.23828 h -2.58594 c 0.72331,0 -0.57598,-0.43403 -3.71289,0.19336 h -0.002 c -3.86083,0.77217 -5.84652,1.58711 -6.15235,1.62109 0.007,-7.3e-4 -3.44124,-1.24311 -9.82617,0.17578 -3.92318,0.87181 -5.96181,2.65513 -6.96484,3.35156 -4.97821,0.45338 -11.36455,-0.37111 -19.27539,-0.0781 -9.4277,0.34917 -18.12896,1.52599 -26.19336,1.75 -11.89223,0.33033 -24.07129,-0.004 -36.52344,-0.004 h -68.3457 c -27.59747,0 -43.93554,-0.90745 -73.3711,3.6211 -10.90976,1.67842 -20.22591,5.25051 -28.6875,7.13086 -5.83458,1.29657 -12.20384,2.17469 -18.94922,3.43945 -2.55616,0.47928 -5.8429,0.87253 -9.66601,1.96484 -5.88534,1.68153 -11.20493,3.72587 -16.1875,5.38672 l 6.32422,18.97266 c 5.53202,-1.84401 10.58584,-3.7656 15.35742,-5.12891 1.90481,-0.54423 4.55849,-0.92051 7.85742,-1.53906 6.09276,-1.1424 12.68728,-2.03337 19.60352,-3.57031 10.34749,-2.29944 19.25457,-5.63728 27.38867,-6.88868 27.96908,-4.30293 42.29598,-3.38867 70.33008,-3.38867 h 68.3457 c 12.08193,0 24.44575,0.34699 37.07813,-0.004 9.49205,-0.26367 18.2554,-1.45499 26.3789,-1.75586 5.68412,-0.21052 13.0583,1.0347 21.89844,-0.0703 4.28712,-0.53588 6.73353,-2.50624 7.95703,-3.34961 0.22195,-0.15299 0.2046,-0.12589 0.35352,-0.21484 0.14768,0.22273 2.27632,0.63727 7.32617,0.0762 3.90574,-0.43398 6.07725,-1.31529 7.20508,-1.67383 0.20521,-0.008 0.13604,-0.0176 0.45312,-0.0176 h 3.50391 c -1.52415,0 0.36175,1.00447 4.91601,-0.51368 1.57035,-0.52344 2.34434,-0.90288 3.01367,-1.23828 h 2.58594 5.25781 1.75196 c -1.19867,0 -1.17849,-0.0693 -0.1836,0.0391 0.9949,0.10837 3.48026,0.3683 6.40821,-1.09571 0.45852,-0.22926 0.58394,-0.45686 0.95703,-0.69531 h 3.33203 c -0.13915,0 1.7571,0.54663 5.4668,-0.19531 3.40959,-0.68192 4.71693,-1.32799 4.9414,-1.55078 0.34712,0.002 0.82837,-0.008 1.85938,-0.008 h 5.25781 c 0.0723,0 1.83385,0.41768 5.14844,-0.13476 4.21709,-0.70285 6.33381,-1.6594 6.60547,-1.69336 0.67748,-0.0847 2.60604,0.0762 5.76953,0.0762 h 7.00976 c 2.26431,0 2.87116,0.0316 1.86133,-0.13672 0.64962,0.10827 2.97208,1.17933 7.24024,1.78906 3.60148,0.5145 5.86029,0.0996 6.66992,0.0996 h 5.25781 22.78125 v -20 h -22.78125 -5.25781 c -2.69524,0 -3.97364,0.0827 -3.8418,0.10157 -0.50041,-0.0715 -2.67942,-1.03317 -6.78125,-1.7168 -3.31461,-0.55245 -5.07616,-0.13672 -5.14844,-0.13672 h -7.00976 c -0.75484,0 -1.82621,-0.10392 -3.20508,-0.14648 z m -47.38867,8.08398 c -0.10294,0.15486 -0.36078,0.47115 -0.40625,0.5332 -0.13013,0.17756 -0.0273,-0.0821 0.40625,-0.5332 z m 15.72461,12.35547 c 0.13,-0.17738 0.0282,0.0789 -0.4043,0.5293 0.102,-0.15354 0.35908,-0.4676 0.4043,-0.5293 z"
         id="path389" />
      <path
         style="baseline-shift:baseline;display:inline;overflow:visible;opacity:1;vector-effect:none;fill-rule:evenodd;enable-background:accumulate;stop-color:#000000;stop-opacity:1"
         d="m 715.67773,522.7168 c -1.12571,-0.18543 -4.77023,-0.33389 -8.03515,1.90625 -0.71826,0.0602 -1.22165,-0.0476 -2.08399,0.16797 -3.58786,0.89696 -5.10517,1.71048 -4.79492,1.64843 0.84569,-0.16913 0.19903,-0.0472 -1.88672,-0.34961 -2.08574,-0.30238 -5.95081,-0.93684 -10.44336,0.89649 l 1.60743,-0.50391 c -6.56485,1.45885 -8.99741,3.52919 -8.23633,3.40235 -1.8712,0.31186 -5.43804,-0.13477 -10.62305,-0.13477 h -26.28711 -87.62109 c -11.9573,0 -24.39303,-0.58896 -37.26563,0.01 -15.75717,0.73289 -75.34784,7.30847 -86.73828,8.84179 -15.15785,2.04049 -29.64832,5.12109 -43.79883,7.00781 -11.2196,1.49596 -22.8255,2.30662 -34.69726,3.46485 -12.47387,1.21696 -24.58306,2.77843 -36.41797,3.47461 -6.79919,0.39994 -14.20801,-0.0176 -22.19336,-0.0176 H 280.38867 269.875 c -3.74762,0 -6.26434,0.23331 -7.52148,0.0762 1.94298,0.24289 0.40216,-0.94477 -5.08399,-1.72851 -4.17975,-0.59711 -7.03005,-0.0996 -8.42383,-0.0996 v 20 c 3.27939,0 5.14928,-0.16534 5.59571,-0.10157 -1.82883,-0.26126 -0.17726,1.07425 5.43164,1.77539 4.53919,0.5674 7.90813,0.0781 10.00195,0.0781 h 10.51367 15.77344 c 7.20241,0 15.00481,0.47432 23.36719,-0.0176 12.76763,-0.75104 25.13079,-2.35908 37.18554,-3.53515 11.4996,-1.12192 23.34171,-1.93736 35.39844,-3.54493 15.16874,-2.02249 29.66779,-5.10604 43.82422,-7.01172 9.43218,-1.26971 72.91992,-8.12172 85,-8.68359 11.63497,-0.54116 23.75916,0.0117 36.33594,0.0117 h 87.62109 26.28711 c 2.99302,0 7.71657,0.89587 13.91211,-0.13672 6.96692,-1.16114 9.71033,-3.70147 9.28711,-3.60742 l 0.82617,-0.18359 0.0371,-0.0156 c 0.087,0.004 0.19225,-0.007 0.76367,0.0762 1.47017,0.21314 4.39719,1.02447 8.67969,0.16797 2.80973,-0.56195 4.17939,-1.13833 4.92969,-1.49609 1.62666,0.25709 4.70497,0.57622 8.0957,-1.11914 1.82964,-0.91481 3.82928,-2.89086 4.75781,-4.92578 0.92854,-2.03493 0.97864,-3.7578 0.91797,-4.88282 -0.0671,-1.24518 -0.20038,-1.25662 -0.33984,-1.71093 0.16898,1.38505 0.004,5.15261 -2.73828,7.89453 -1.14139,1.14138 -2.37996,1.71808 -3.56446,2.10937 v -19.17969 h -1.7539 c 2.06495,0 1.98191,0.1901 0.68554,-0.0234 z"
         id="path390" />
      <path
         style="baseline-shift:baseline;display:inline;overflow:visible;opacity:1;vector-effect:none;fill-rule:evenodd;enable-background:accumulate;stop-color:#000000;stop-opacity:1"
         d="m 417.36133,871.01172 c -3.80281,0.0565 -7.64867,0.20235 -11.53516,0.49023 -16.8687,1.24953 -59.46542,7.84866 -80.29101,12.47657 -7.12077,1.58239 -13.61863,3.70209 -19.73829,5.37109 l -0.55078,0.15234 -0.53125,0.21094 c -3.86841,1.54736 -6.22079,2.79855 -7.29687,3.04688 -2.99623,0.69143 -7.56087,0.655 -13.41602,1.63085 -4.10182,0.68364 -6.27887,1.64727 -6.77929,1.71875 0.1319,-0.0188 -1.14848,-0.10156 -3.84375,-0.10156 0.74733,0 -1.58823,-1.01473 -6.37696,0.42188 -2.87366,0.8621 -5.87524,1.87641 -8.91406,3.0332 -1.54135,0.39134 -2.77217,0.85363 -3.81055,1.31445 -1.37841,0.61174 -2.45466,1.17874 -3.33789,1.69141 -0.2208,0.12817 -0.42424,0.24941 -0.70117,0.42773 -0.13846,0.0892 -0.28913,0.18575 -0.54492,0.3711 -0.25579,0.18535 -0.4078,0.075 -1.6875,1.52929 -0.31993,0.36357 -0.74809,0.82567 -1.33594,1.9375 -0.29392,0.55592 -0.9022,2.41539 -0.90234,2.41602 -1.5e-4,6.3e-4 0.0253,4.62647 0.0254,4.62695 1.2e-4,4.9e-4 3.09532,5.12857 3.0957,5.12891 3.9e-4,3.4e-4 3.79427,2.09942 3.79492,2.09961 6.6e-4,1.9e-4 1.77207,0.37075 2.35743,0.39844 0.58535,0.0277 1.01496,0.002 1.36523,-0.0293 0.67776,-0.0605 0.76791,-0.12246 1.13672,-0.18555 -0.27452,0.14671 1.40784,-0.06 3.38867,-0.15429 1.27893,-0.0609 2.84084,0.15239 5.95703,-1.4375 1.13356,-0.57835 2.48472,-1.77474 3.66992,-3.29493 0.23585,-0.0744 0.45723,-0.15473 0.69532,-0.22851 0.23415,-0.01 0.77533,-0.0664 2.125,-0.0664 0.8096,0 3.07033,0.41492 6.67187,-0.0996 4.26816,-0.60973 6.59062,-1.68079 7.24024,-1.78906 3.43573,-0.57262 8.44143,-0.44652 14.62304,-1.87305 4.83116,-1.11489 7.88824,-2.94736 9.87891,-3.80078 6.42925,-1.77526 12.42907,-3.68714 18.08203,-4.94336 18.96801,-4.21511 63.5509,-11.02677 77.42773,-12.05468 13.58145,-1.00603 27.97618,0.0273 43.07227,0.0273 h 77.10742 c 8.03734,0 15.4251,-0.46958 22.11719,-0.0234 9.32805,0.62187 19.03788,2.21701 29.25195,3.45508 8.91893,1.08108 18.38679,2.87527 28.57813,3.55469 15.99149,1.0661 23.52661,1.43284 28.76172,1.51953 3.38832,0.5398 6.61515,1.06081 12.54687,1.9082 4.17975,0.5971 7.03005,0.0996 8.42383,0.0996 h 17.52539 5.25586 0.53711 c 0.79391,0.41043 1.90955,0.91832 4.04883,1.45313 4.27063,1.06765 6.37829,0.29882 5.92968,0.29882 2.11109,0 2.79999,0.002 2.08985,-0.0996 2.83378,0.40484 5.29758,0.8301 7.30273,1.43165 1.87729,0.56318 4.45069,1.82245 7.92188,3.21093 l 1.78906,0.71485 h 1.92578 c 4.69744,0 7.62295,-0.36241 8.72461,-0.16211 -0.56853,-0.10337 -0.0214,0.005 1.45703,0.79297 1.47842,0.7883 3.93792,2.2757 7.77344,2.78711 7.53693,1.00492 13.88536,0.0879 18.8457,0.0879 h 12.26758 15.77148 7.00977 c -3.0412,0 -2.23604,-0.25072 -0.86523,0.0234 0.6854,0.13708 1.63567,0.66791 4.67382,-0.0332 1.51908,-0.35055 3.84579,-1.33613 5.5918,-3.44336 1.74601,-2.10723 2.35156,-4.80718 2.35156,-6.54687 0,-1.73967 -0.60557,-4.44159 -2.35156,-6.54883 -1.74598,-2.10724 -4.0727,-3.09084 -5.5918,-3.44141 -3.03819,-0.70113 -3.98841,-0.17224 -4.67382,-0.0352 -1.37082,0.27416 -2.17603,0.0254 0.86523,0.0254 h -7.00977 -15.77148 -12.26758 c -6.72253,0 -12.15966,0.62507 -16.20312,0.0859 0.7174,0.0957 0.34353,0.11209 -1.00586,-0.60742 -1.3494,-0.71951 -3.62555,-2.15618 -7.28906,-2.82226 -4.72403,-0.85892 -8.06707,-0.46915 -10.51172,-0.2793 -2.08825,-0.92004 -4.49572,-2.00966 -7.67969,-2.96484 -3.70074,-1.11023 -7.15917,-1.63658 -10.22266,-2.07422 -3.02322,-0.43189 -4.6925,-0.10157 -4.91797,-0.10157 -0.42732,0 -0.40589,-0.005 -0.71679,-0.0117 -0.6376,-0.30312 -1.3855,-0.64478 -3.13086,-1.22657 -4.55422,-1.51807 -6.43809,-0.51367 -4.91406,-0.51367 h -1.75391 -5.25586 -17.52539 c -3.27938,0 -5.14925,0.16534 -5.5957,0.10156 -2.15817,-0.30831 -2.69815,-0.41705 -4.47852,-0.67968 -0.68012,-0.40399 -1.38895,-0.81841 -1.74219,-0.95508 -1.01199,-0.39154 -1.45727,-0.46964 -1.93945,-0.58008 -1.92872,-0.44177 -3.68938,-0.65433 -5.82617,-0.91406 -2.13679,-0.25973 -4.3598,-0.48462 -6.20313,-0.61524 -0.92166,-0.0653 -1.67491,-0.11683 -2.66211,-0.10937 -0.49359,0.004 -0.77187,-0.11824 -2.50781,0.25781 -0.55299,0.11979 -1.51516,-0.0964 -2.98633,0.84375 -4.40778,-0.2376 -7.98573,-0.40035 -14.46093,-0.83203 -8.60505,-0.57366 -17.71969,-2.26936 -27.50196,-3.45508 -9.6385,-1.16831 -19.70258,-2.84632 -30.32812,-3.55469 -8.46201,-0.56413 -16.29685,-0.0215 -23.44727,-0.0215 H 450.375 c -10.58335,0 -21.60526,-0.63251 -33.01367,-0.46289 z m 214.42383,7.79297 c 0.0501,0.0126 0.31791,0.21451 0.38671,0.24218 -0.0988,-0.0202 -0.37946,-0.0673 -0.45703,-0.084 -0.2815,-0.0606 -0.43568,-0.10532 -0.29297,-0.0644 0.0714,0.0204 0.0388,-0.17545 0.36329,-0.0937 z m 151.55273,14.125 v 19.14648 c -0.2816,-0.0479 -0.34377,0.003 -0.6875,-0.0762 -1.40044,-0.32318 -3.63269,-1.25778 -5.3125,-3.28516 -1.67981,-2.02737 -2.24805,-4.6173 -2.24805,-6.21093 0,-1.59367 0.56821,-4.18552 2.24805,-6.21289 1.67984,-2.02737 3.91208,-2.96199 5.3125,-3.28516 0.34376,-0.0793 0.40589,-0.0283 0.6875,-0.0762 z m -530.66797,8.84179 c -0.43094,0.20379 -0.85614,0.33335 -1.28711,0.54883 -0.0134,0.007 -0.0402,-0.003 0.50977,-0.2207 0.15832,-0.0626 0.30866,-0.18869 0.77734,-0.32813 z m 1.66797,3.42383 2.98047,11.91992 c -1.8051,-1.29696 -3.63846,-3.11438 -4.1543,-5.17773 -0.33121,-1.32483 -0.42147,-3.79718 0.64649,-6.02539 0.14238,-0.29708 0.36194,-0.45117 0.52734,-0.7168 z"
         id="path391" />
    </g>
  </g>
</svg>
