<?xml version="1.0" encoding="UTF-8" standalone="no"?>
<!-- Created with Inkscape (http://www.inkscape.org/) -->

<svg
   width="1000"
   height="1000"
   viewBox="0 0 1000 1000"
   version="1.1"
   id="svg1"
   xmlns:xlink="http://www.w3.org/1999/xlink"
   xmlns="http://www.w3.org/2000/svg"
   xmlns:svg="http://www.w3.org/2000/svg">
  <defs
     id="defs1">
    <pattern
       xlink:href="#pattern359"
       preserveAspectRatio="xMidYMid"
       id="pattern372"
       patternTransform="matrix(0.5,0,0,0.5,147.15462,1548.2922)" />
    <pattern
       xlink:href="#pattern357"
       preserveAspectRatio="xMidYMid"
       id="pattern371"
       patternTransform="matrix(0.5,0,0,0.5,221.32076,1552.4298)" />
    <pattern
       xlink:href="#pattern358"
       preserveAspectRatio="xMidYMid"
       id="pattern370"
       patternTransform="matrix(0.5,0,0,0.5,230.96346,1527.8214)" />
    <pattern
       xlink:href="#pattern355"
       preserveAspectRatio="xMidYMid"
       id="pattern369"
       patternTransform="matrix(0.5,0,0,0.5,287.08178,1553.6581)" />
    <pattern
       xlink:href="#pattern354"
       preserveAspectRatio="xMidYMid"
       id="pattern368"
       patternTransform="matrix(0.5,0,0,0.5,230.97274,1529.1717)" />
    <pattern
       xlink:href="#pattern342"
       preserveAspectRatio="xMidYMid"
       id="pattern360"
       patternTransform="matrix(0.5,0,0,0.5,210.45332,1525.5392)" />
    <pattern
       xlink:href="#pattern342"
       preserveAspectRatio="xMidYMid"
       id="pattern359"
       patternTransform="matrix(0.5,0,0,0.5,152.11125,1550.7705)" />
    <pattern
       xlink:href="#pattern342"
       preserveAspectRatio="xMidYMid"
       id="pattern358"
       patternTransform="matrix(0.5,0,0,0.5,202.11125,1533.2444)" />
    <pattern
       xlink:href="#pattern342"
       preserveAspectRatio="xMidYMid"
       id="pattern357"
       patternTransform="matrix(0.5,0,0,0.5,211.4075,1546.234)" />
    <pattern
       xlink:href="#pattern342"
       preserveAspectRatio="xMidYMid"
       id="pattern356"
       patternTransform="matrix(0.5,0,0,0.5,232.14929,1573.2544)" />
    <pattern
       xlink:href="#pattern342"
       preserveAspectRatio="xMidYMid"
       id="pattern355"
       patternTransform="matrix(0.5,0,0,0.5,275,1552.7287)" />
    <pattern
       xlink:href="#pattern342"
       preserveAspectRatio="xMidYMid"
       id="pattern354"
       patternTransform="matrix(0.5,0,0,0.5,235,1529.7913)" />
    <pattern
       xlink:href="#shading24"
       preserveAspectRatio="xMidYMid"
       id="pattern342"
       patternTransform="matrix(0.5,0,0,0.5,213.95332,1537.5392)"
       x="0"
       y="0" />
    <pattern
       patternUnits="userSpaceOnUse"
       width="338.5925"
       height="42.989567"
       patternTransform="translate(213.95332,1537.5392) scale(0.5)"
       preserveAspectRatio="xMidYMid"
       id="shading24"
       style="fill:#000000">
      <path
         style="fill-rule:nonzero;stroke:none;stroke-width:0.1;stroke-linecap:square;paint-order:markers fill stroke;stop-color:#000000"
         d="m 1806.4991,-758.06464 v 18.86792 c 55.9187,0 121.0493,0.59523 193.5686,3.15628 72.9408,2.57593 146.0589,6.87694 222.9288,13.47675 119.09,10.22471 223.0762,23.76065 340.6056,39.2177 117.5025,15.4535 222.0471,29.0563 341.8507,39.3312 77.366,6.63525 151.0001,10.96128 224.4674,13.55245 73.0344,2.5759 138.631,3.17493 194.9247,3.17493 -55.9642,0 -122.2215,-1.36594 -194.8324,-5.25394 -73.2143,-3.92032 -146.9676,-10.0663 -223.8166,-18.88656 -118.8791,-13.6442 -223.3242,-31.02113 -339.8009,-50.57815 -116.4705,-19.55598 -221.1862,-36.99475 -340.3724,-50.69165 -77.0605,-8.8558 -150.9942,-15.0266 -224.3694,-18.96225 -72.7637,-3.90286 -139.1256,-5.27261 -195.1541,-5.27261 z m 0,37.81515 v 18.86793 c 55.9187,0 121.0493,0.59523 193.5686,3.15627 72.9408,2.57593 146.0589,6.87694 222.9288,13.47676 119.09,10.22471 223.0762,23.76065 340.6056,39.2177 117.5025,15.4535 222.0471,29.0563 341.8507,39.33119 77.366,6.63526 151.0001,10.96128 224.4674,13.55245 73.0344,2.5759 138.631,3.17493 194.9247,3.17493 -55.9642,0 -122.2215,-1.36594 -194.8324,-5.25394 -73.2143,-3.92031 -146.9676,-10.0663 -223.8166,-18.88656 -118.8791,-13.6442 -223.3242,-31.02112 -339.8009,-50.57815 -116.4705,-19.55598 -221.1862,-36.99475 -340.3724,-50.69165 -77.0605,-8.8558 -150.9942,-15.02659 -224.3694,-18.96225 -72.7637,-3.90286 -139.1256,-5.2726 -195.1541,-5.2726 z m 0,37.81516 v 18.86792 c 55.9187,0 121.0493,0.59523 193.5686,3.15628 72.9408,2.57593 146.0589,6.87694 222.9288,13.47675 119.09,10.22471 223.0762,23.76065 340.6056,39.2177 117.5025,15.4535 222.0471,29.0563 341.8507,39.3312 77.366,6.63525 151.0001,10.96128 224.4674,13.55245 73.0344,2.5759 138.631,3.17493 194.9247,3.17493 -55.9642,0 -122.2215,-1.36594 -194.8324,-5.25394 -73.2143,-3.92032 -146.9676,-10.0663 -223.8166,-18.88656 -118.8791,-13.6442 -223.3242,-31.02113 -339.8009,-50.57815 -116.4705,-19.55598 -221.1862,-36.99475 -340.3724,-50.69165 -77.0605,-8.8558 -150.9942,-15.0266 -224.3694,-18.96225 -72.7637,-3.90286 -139.1256,-5.27261 -195.1541,-5.27261 z m 0,37.81515 v 18.86793 c 55.9187,0 121.0493,0.59523 193.5686,3.15627 72.9408,2.57593 146.0589,6.87694 222.9288,13.47676 119.09,10.22471 223.0762,23.76065 340.6056,39.2177 117.5025,15.4535 222.0471,29.0563 341.8507,39.33119 77.366,6.63526 151.0001,10.96128 224.4674,13.55245 73.0344,2.5759 138.631,3.17494 194.9247,3.17494 -55.9642,0 -122.2215,-1.36595 -194.8324,-5.25395 -73.2143,-3.92031 -146.9676,-10.0663 -223.8166,-18.88656 -118.8791,-13.6442 -223.3242,-31.02112 -339.8009,-50.57815 -116.4705,-19.55598 -221.1862,-36.99475 -340.3724,-50.69165 -77.0605,-8.8558 -150.9942,-15.02659 -224.3694,-18.96225 -72.7637,-3.90286 -139.1256,-5.2726 -195.1541,-5.2726 z m 0,37.81516 v 18.86792 c 55.9187,0 121.0493,0.59523 193.5686,3.15628 72.9408,2.57593 146.0589,6.87694 222.9288,13.47675 119.09,10.22471 223.0762,23.76065 340.6056,39.2177 117.5025,15.4535 222.0471,29.0563 341.8507,39.3312 77.366,6.63525 151.0001,10.96128 224.4674,13.55245 73.0344,2.5759 138.631,3.17493 194.9247,3.17493 -55.9642,0 -122.2215,-1.36594 -194.8324,-5.25394 -73.2143,-3.92032 -146.9676,-10.0663 -223.8166,-18.88656 -118.8791,-13.6442 -223.3242,-31.02113 -339.8009,-50.57815 -116.4705,-19.55598 -221.1862,-36.99475 -340.3724,-50.69165 -77.0605,-8.8558 -150.9942,-15.0266 -224.3694,-18.96225 -72.7637,-3.90286 -139.1256,-5.27261 -195.1541,-5.27261 z m 0,37.81515 v 18.86793 c 55.9187,0 121.0493,0.59523 193.5686,3.15627 72.9408,2.57593 146.0589,6.87694 222.9288,13.47676 119.09,10.22471 223.0762,23.76065 340.6056,39.2177 117.5025,15.4535 222.0471,29.0563 341.8507,39.33119 77.366,6.63526 151.0001,10.96128 224.4674,13.55245 73.0344,2.5759 138.631,3.17494 194.9247,3.17494 -55.9642,0 -122.2215,-1.36595 -194.8324,-5.25395 -73.2143,-3.92031 -146.9676,-10.0663 -223.8166,-18.88656 -118.8791,-13.6442 -223.3242,-31.02112 -339.8009,-50.57815 -116.4705,-19.55598 -221.1862,-36.99475 -340.3724,-50.69165 -77.0605,-8.8558 -150.9942,-15.02659 -224.3694,-18.96225 -72.7637,-3.90286 -139.1256,-5.2726 -195.1541,-5.2726 z m 0,37.81516 v 18.86792 c 55.9187,0 121.0493,0.59523 193.5686,3.15628 72.9408,2.57593 146.0589,6.87694 222.9288,13.47675 119.09,10.22471 223.0762,23.76065 340.6056,39.2177 117.5025,15.4535 222.0471,29.0563 341.8507,39.3312 77.366,6.63525 151.0001,10.96128 224.4674,13.55245 73.0344,2.5759 138.631,3.17493 194.9247,3.17493 -55.9642,0 -122.2215,-1.36594 -194.8324,-5.25394 -73.2143,-3.92032 -146.9676,-10.0663 -223.8166,-18.88656 -118.8791,-13.6442 -223.3242,-31.02113 -339.8009,-50.57815 -116.4705,-19.55598 -221.1862,-36.99475 -340.3724,-50.69165 -77.0605,-8.8558 -150.9942,-15.0266 -224.3694,-18.96225 -72.7637,-3.90286 -139.1256,-5.27261 -195.1541,-5.27261 z"
         id="use26"
         transform="matrix(0.22300099,0,0,0.37823052,-402.85121,237.25945)" />
    </pattern>
    <clipPath
       clipPathUnits="userSpaceOnUse"
       id="clipPath54">
      <path
         id="path336"
         style="stroke-width:0.0999999;stroke-linecap:square;paint-order:markers fill stroke;stop-color:#000000"
         d="m 1691.1994,-792.32001 h 1634.8919 v 92.82806 H 1691.1994 Z" />
    </clipPath>
    <clipPath
       clipPathUnits="userSpaceOnUse"
       id="clipPath33">
      <rect
         style="fill:#000000;stroke:none;stroke-width:0.999995;stroke-linecap:butt;stroke-linejoin:bevel;paint-order:stroke markers fill;stop-color:#000000"
         id="rect33"
         width="46.19186"
         height="80.006783"
         x="74.999985"
         y="399.99661" />
    </clipPath>
    <clipPath
       clipPathUnits="userSpaceOnUse"
       id="clipPath27">
      <rect
         style="fill:none;stroke:#000000;stroke-width:0.999999;stroke-linecap:butt;stroke-linejoin:bevel;paint-order:stroke markers fill;stop-color:#000000"
         id="rect28-6"
         width="46.160622"
         height="39.922417"
         x="86.574379"
         y="420.06253" />
    </clipPath>
    <clipPath
       clipPathUnits="userSpaceOnUse"
       id="clipPath25">
      <rect
         style="fill:#ff0000;stroke:none;stroke-width:3;stroke-linecap:square;stroke-linejoin:miter;paint-order:stroke markers fill;stop-color:#000000"
         id="rect25-8"
         width="78"
         height="45.033199"
         x="763.61322"
         y="452.82422" />
    </clipPath>
    <clipPath
       clipPathUnits="userSpaceOnUse"
       id="clipPath15">
      <rect
         style="fill:none;stroke:#000000;stroke-linecap:butt;stroke-linejoin:bevel;paint-order:stroke markers fill;stop-color:#000000"
         id="rect15-7"
         width="45.034248"
         height="38.955639"
         x="262.48285"
         y="121.00073" />
    </clipPath>
    <linearGradient
       id="swatch75">
      <stop
         style="stop-color:#000000;stop-opacity:1;"
         offset="0"
         id="stop75" />
    </linearGradient>
  </defs>
  <g
     id="layer51"
     style="display:inline">
    <g
       id="layer53"
       style="display:inline">
      <path
         style="baseline-shift:baseline;display:inline;overflow:visible;opacity:1;vector-effect:none;fill-rule:evenodd;enable-background:accumulate;stop-color:#000000;stop-opacity:1"
         d="m 748.75195,128.26172 c -0.92018,-0.0442 -2.32093,0.004 -4.17578,0.375 -3.40957,0.68191 -4.71691,1.32798 -4.9414,1.55078 -0.34677,-0.002 -0.82924,0.008 -1.86133,0.008 h -7.00977 c -0.80962,0 -3.06844,-0.41488 -6.66992,0.0996 -4.42159,0.63165 -6.66276,1.70238 -7.00977,1.75195 0.13184,-0.0188 -1.14851,-0.0996 -3.84375,-0.0996 h -3.5039 -19.27735 -5.25781 c -0.445,0 -2.93625,-0.66315 -7.21875,0.19335 -5.96575,1.19315 -9.76988,3.08405 -11.94922,3.44727 -0.2539,0.0423 -2.87235,-0.46545 -7.83008,-0.11133 -5.49451,0.39247 -11.04788,0.96994 -16.61914,1.84961 -6.47009,1.02159 -12.36758,2.50751 -17.85351,3.5625 -9.4438,1.81612 -18.65857,3.73998 -27.74219,5.20508 -8.3371,1.34469 -17.06342,2.22971 -26.06055,3.4707 -8.17636,1.12778 -16.4146,2.25429 -24.68945,3.52735 -7.70483,1.18536 -14.41855,2.90978 -20.375,3.42773 -4.67534,0.40656 -11.14982,-0.70674 -19.27734,0 -8.7066,0.7571 -15.53799,3.08135 -20.92969,3.49609 -7.13434,0.5488 -15.0763,-0.0293 -23.76563,-0.0293 h -24.53515 -96.38281 -31.54493 -15.77148 c -3.48544,0 -7.89748,-0.43848 -13.17188,0.041 -5.32737,0.4843 -7.60971,1.81601 -7.20898,1.77149 -1.43943,0.15994 -4.00127,-0.0606 -7.6582,-0.0606 h -5.69141 c -1.25569,-0.51182 -2.35321,-0.79174 -3.20117,-0.90234 -2.51081,-0.3275 -4.11384,-0.0945 -5.66406,0.12695 -1.55023,0.22146 -2.70801,0.44108 -4.26758,0.96094 -0.38989,0.12996 -0.79952,0.26283 -1.51367,0.60742 -0.71416,0.34459 -1.92374,-0.61293 -4.60743,4.37109 -1.34184,2.49202 -1.02114,8.74536 1.29493,11.38086 2.31606,2.63551 3.95307,2.80402 4.91015,3.06836 1.91418,0.52868 2.40605,0.38672 2.96875,0.38672 -2.16504,0 -0.0462,0.18842 2.41992,0.68164 1.23305,0.24661 2.67812,0.8321 6.07227,0.0488 0.5378,-0.12411 1.2205,-0.45626 1.86914,-0.73047 h 5.41016 c 2.18451,0 5.50091,0.4246 9.86718,-0.0606 5.18825,-0.57646 7.34073,-1.78061 6.81055,-1.73242 2.87003,-0.26091 6.66875,0.041 11.36133,0.041 h 15.77148 31.54493 96.38281 24.53515 c 7.66672,0 16.12725,0.67635 25.30079,-0.0293 8.77927,-0.67533 15.6761,-3.03951 21.1289,-3.51367 4.67536,-0.40656 11.14787,0.70675 19.27539,0 8.20298,-0.71331 15.34085,-2.60817 21.6836,-3.58399 8.05511,-1.23924 16.19008,-2.35265 24.38086,-3.48242 8.51647,-1.17469 17.39496,-2.06666 26.51171,-3.53711 9.69209,-1.56324 19.10358,-3.53508 28.33594,-5.31054 6.21395,-1.19499 11.89695,-2.61069 17.19531,-3.44727 4.87859,-0.7703 9.86593,-1.29497 14.92383,-1.65625 0.86888,-0.0621 4.18531,0.80865 9.69336,-0.10937 6.21022,-1.03504 10.20962,-3.08958 12.58399,-3.56446 -0.8457,0.16914 0.237,0.19532 3.29687,0.19532 h 5.25781 19.27735 3.5039 c 0.80963,0 3.0704,0.41293 6.67188,-0.10157 4.42156,-0.63166 6.66279,-1.70238 7.00976,-1.75195 -0.13183,0.0188 1.14657,0.10156 3.8418,0.10156 h 7.00977 c -0.13915,0 1.75709,0.54663 5.46679,-0.19531 3.40957,-0.68191 4.71692,-1.32799 4.94141,-1.55078 0.34711,0.002 0.82836,-0.008 1.85938,-0.008 h 7.00976 v -20 h -7.00976 c 0.0696,0 -0.36888,-0.1355 -1.28907,-0.17969 z M 248.8457,165.28711 v 12.80078 c -1.49013,-1.61421 -2.99023,-3.9894 -2.99023,-6.34961 0,-1.37459 0.51319,-3.8014 2.09375,-5.70898 0.27466,-0.33149 0.59842,-0.47155 0.89648,-0.74219 z"
         id="path403" />
      <path
         style="baseline-shift:baseline;display:inline;overflow:visible;opacity:1;vector-effect:none;fill-rule:evenodd;enable-background:accumulate;stop-color:#000000;stop-opacity:1"
         d="m 500.91406,192.72461 -16.96094,10.59961 c 9.83235,15.73174 10.89035,14.99904 16.39063,34.25 0.64076,2.24264 0.40644,6.70217 1.51953,13.00976 1.00741,5.70867 2.33018,11.17815 3.65039,16.45899 1.26993,5.07969 2.82118,8.90667 3.40039,11.80273 0.7221,3.61051 0.9453,8.12 1.64649,13.37891 0.61412,4.60596 1.42638,8.50334 1.69922,11.77734 0.0593,0.71122 -0.82936,3.98867 0.10156,9.57422 1.10609,6.63656 3.25015,10.39376 3.45703,11.94531 0.16723,1.25424 0.1614,5.78858 -0.008,10.35743 -0.16922,4.56884 -0.44658,9.27715 -0.0391,13.75976 0.43166,4.7482 1.5945,7.7591 1.81055,9.27149 -0.33179,-2.32257 -1.0942,-0.65812 0.19922,4.51562 1.24505,4.98018 2.60985,6.17132 1.9668,4.24219 0.43824,1.31473 0.82894,3.44078 1.53711,6.27344 0.66105,2.64423 1.30047,4.80511 1.64843,6.54492 0.40822,2.04107 0.22375,6.17121 2.07227,11.71679 0.99292,2.97875 2.2641,4.40165 3.16211,5.32032 0.10381,1.70171 -0.17188,4.30723 -0.17188,9.04101 0,3.57771 -0.36079,7.93664 0.0312,13.03321 0.40466,5.26044 1.60037,8.71218 1.75586,10.57812 0.19911,2.38929 -0.0332,5.62704 -0.0332,9.68555 v 21.02929 10.51368 c 0,-0.66316 -0.94245,1.60664 0.38477,6.25195 1.4858,5.20028 3.25654,7.79572 3.41796,8.44141 -0.35929,-1.43717 -0.29882,-0.53732 -0.29882,2.83203 v 5.25586 28.03906 15.77148 3.50586 c 0,0.43901 -0.01,0.36593 -0.0176,0.72071 -1.06847,1.0596 -2.20771,2.57824 -2.97461,4.8789 -2.07221,6.21666 -0.51172,9.94348 -0.51172,10.17188 v 7.00976 c 0,1.00286 -0.009,1.45296 -0.008,1.8086 -0.22374,0.0975 -0.97172,1.48455 -1.60938,5.31054 -0.64846,3.89077 -0.13672,6.24397 -0.13672,6.90039 v 10.51563 c 0,2.84844 0.0645,4.04686 0.13672,3.61328 0.17378,-1.0427 -0.80243,0.48481 -1.69336,4.93945 -0.74194,3.70971 -0.19531,5.60595 -0.19531,5.4668 v 5.25586 7.00977 5.25781 5.25781 c 0,4.60132 0.31052,7.17605 0.1875,8.17773 -0.0683,0.13106 -0.0779,0.17027 -0.26562,0.4629 -0.63962,0.99676 -2.04627,2.81764 -3.00391,6.00976 -1.74498,5.81657 -1.45686,9.52352 -1.75391,10.51367 -0.62787,2.09293 -1.01027,2.8067 -1.0332,2.85352 -0.0552,0.0566 0.0185,-0.03 -0.0742,0.0684 -0.81814,0.86757 -2.67749,3.672 -3.32422,5.84961 -0.64673,2.17761 -0.89998,4.15418 -1.19726,7.12695 -0.42291,4.22908 -0.5293,6.95898 -0.42578,9.19531 0.10351,2.23634 0.56434,4.24762 0.55664,4.20703 -0.008,-0.0406 0.0143,-1.39441 -0.10938,-0.58398 -0.12372,0.81043 -0.57055,2.96188 -1.52539,6.78125 -0.41878,1.67511 -2.55139,5.15957 -3.64062,11.15039 -1.06697,5.86825 -0.0738,9.16195 -0.11329,9.55664 -0.11857,1.18578 -1.15372,3.94852 -1.72461,8.51563 -0.42251,3.37998 -0.0762,5.57254 -0.0762,6.49804 0,1.2552 -0.0123,1.62042 -0.0234,2.19336 -0.86896,0.97906 -2.05705,2.42505 -2.96875,5.16016 -1.48946,4.46837 -0.72328,6.66573 -0.56055,8.39062 0.0762,0.80765 0.0695,1.46334 0.0723,1.8418 -0.18621,0.1186 -0.877,1.45338 -1.58398,4.98828 -0.25104,1.25519 -0.28267,2.24059 -0.26172,3.02735 -0.5273,0.89054 -1.10914,2.07702 -1.49023,3.98242 -0.8565,4.28251 -0.19336,6.77181 -0.19336,7.21679 v 14.01954 c 0,2.2643 -0.0335,2.87116 0.13476,1.86132 -0.10826,0.64962 -1.17737,2.97209 -1.78711,7.24024 -0.51449,3.60148 -0.0996,5.86225 -0.0996,6.67187 v 10.51367 c 0,1.25593 -0.0123,1.62048 -0.0234,2.19336 -0.86896,0.979 -2.05689,2.42262 -2.96875,5.15821 -1.88745,5.66245 -0.51368,8.77565 -0.51368,8.41992 v 3.50586 c 0,0.42733 -0.005,0.40589 -0.0117,0.7168 -0.30312,0.63779 -0.64503,1.38624 -1.22657,3.13085 -0.22777,0.68335 -0.16417,1.05756 -0.26172,1.625 -0.33809,0.59219 -0.86152,1.73886 -1.49218,3.63086 -0.043,0.12884 -0.0421,0.21707 -0.0801,0.3418 l -1.00781,1.00781 c 0.82055,-0.82055 -0.98326,-0.13062 -3.00196,3.32227 -1.49915,0.74645 -2.68482,1.60897 -3.2832,2.26172 -1.31723,1.43691 -1.74866,2.25494 -2.12305,3.05273 -1.42521,0.73632 -2.55425,1.57182 -3.13476,2.20508 -1.83664,2.00352 -1.98779,2.80369 -2.59766,4.02344 -0.10566,0.21132 -0.11734,0.37384 -0.20703,0.57812 -0.2044,0.0897 -0.36667,0.10131 -0.57812,0.20703 -0.47502,0.23752 -0.60871,0.47356 -0.99219,0.72071 -1.68006,0.0781 -3.54273,0.5213 -5.59375,2.0039 -1.64136,0.45451 -3.37724,1.25615 -4.77539,2.6543 -0.74315,0.74315 -0.99087,1.34168 -1.43164,2.01172 -0.38219,0.2194 -0.57874,0.42628 -0.89063,0.64844 -0.27226,0.0727 -0.48568,0.0838 -0.7793,0.18164 -1.57034,0.52344 -2.34434,0.90288 -3.01367,1.23828 h -2.58593 -9.7129 c -0.71029,-0.59756 -1.0133,-0.99065 -2.26367,-1.82422 -3.31999,-2.21333 -6.57334,-1.86572 -7.70703,-1.71484 -1.13368,0.15087 -1.15066,0.0351 0.40625,0.0351 -1.05576,0 -1.56356,-0.0111 -1.90234,-0.008 -0.40564,-0.13521 -0.81116,-0.27104 -1.2168,-0.40625 -0.94119,-0.91185 -2.1888,-1.89694 -4.23242,-2.57813 -1.10184,-0.36728 -1.83812,-0.34011 -2.68359,-0.41992 -0.0904,-0.0629 -0.0939,-0.10234 -0.18946,-0.16601 -2.46285,-1.64191 -4.1514,-2.16262 -4.58008,-2.37696 -0.32497,-0.16248 -1.7864,-1.28558 -4.81445,-2.29492 -1.91822,-0.63943 -3.2424,-0.78513 -4.1582,-0.79297 -0.76312,-0.24226 -1.81606,-0.5647 -2.29883,-0.75781 -0.20401,-0.0816 -0.12671,-0.0522 -0.3125,-0.12695 -0.28067,-0.23766 -0.58245,-0.50915 -0.81836,-0.71094 -0.77489,-0.66283 -1.46342,-1.14814 -2.29297,-1.70117 -1.43994,-0.95997 -2.43216,-1.59781 -3.58008,-2.20703 -0.49664,-0.26358 -1.12312,-0.5567 -2.13281,-0.89063 -1.23872,-1.02776 -1.62209,-1.33774 -3.94726,-3.27539 0.22419,0.18683 -0.74946,-1.3023 -3.66016,-3.63086 -3.35727,-2.68581 -4.33363,-3.57212 -6.26367,-4.81445 -0.48251,-0.31058 0.0538,-0.90277 -4.01563,-1.59961 -0.34576,-0.0592 -0.8631,-0.0859 -1.35156,-0.11719 -0.63834,-0.7647 -1.51007,-1.6903 -3.08789,-2.74219 -3.12893,-2.08594 -5.05884,-2.92836 -5.86133,-3.10156 -0.49114,-1.02483 -1.24881,-2.53201 -3.12891,-4.41211 -2.23562,-2.23562 -4.37106,-2.91587 -5.28125,-3.2539 -0.1444,-0.0536 -0.0988,-0.0427 -0.1914,-0.082 -1.63088,-1.13815 -3.56351,-2.78504 -6.30078,-4.74024 -2.84925,-2.03517 -3.79664,-2.48038 -3.64063,-2.21875 -0.0763,-0.13 -0.0747,-0.10582 -0.18945,-0.33398 -0.5597,-1.11333 -1.59555,-3.55691 -4.49805,-5.87891 -2.37745,-1.90198 -4.33551,-2.40594 -5.73437,-2.68359 -0.52498,-0.5581 -1.43799,-1.38759 -3.27539,-2.76563 -0.81561,-0.6117 -1.42213,-0.88554 -2.05274,-1.20508 -0.31953,-0.6306 -0.59337,-1.23712 -1.20508,-2.05273 -1.41364,-1.88485 -2.28816,-2.85412 -2.83789,-3.35938 -0.25514,-1.20212 -0.68163,-2.82518 -2.09765,-4.94921 -2.63935,-3.95903 -5.16361,-5.61474 -6.17774,-6.50391 -1.74495,-2.26997 -3.34819,-4.18836 -4.17773,-5.51563 -0.56147,-0.89834 -1.38689,-3.22336 -3.24414,-6.5664 -2.00284,-3.60512 -3.95622,-6.38068 -5.21875,-8.69531 -1.64852,-3.02229 -3.23294,-6.47956 -5.0918,-10.19727 -1.95756,-3.91512 -3.81639,-7.11834 -4.9707,-9.88867 -0.8596,-2.06304 -1.52357,-5.75813 -3.50586,-10.51563 -2.15435,-5.17043 -4.42934,-8.26954 -5.08985,-10.08593 -0.22327,-0.61402 -0.32858,-3.28695 -1.44921,-7.76954 -1.15654,-4.62614 -2.78584,-7.83404 -2.73438,-7.73437 0.0515,0.0997 0.17054,0.9158 -0.60742,-3.75195 0.43589,2.6153 1.16876,1.03837 -0.16211,-4.28516 -0.3743,-1.49719 -0.85457,-2.53982 -1.29297,-3.32617 0.12349,-1.77109 -0.008,-4.05328 -1.8418,-6.80469 -0.77385,-1.16077 -1.61041,-1.99754 -2.44531,-2.67578 -0.16715,-0.52168 -0.15472,-0.94616 -0.43555,-1.50781 -0.82428,-1.64857 -1.21031,-3.01643 -3.92187,-5.16407 -1.35578,-1.07381 -3.95005,-2.48867 -7.20117,-2.26953 -1.89724,0.12789 -3.41253,0.82435 -4.66211,1.60742 0.76751,-0.40164 2.20764,-1.0119 2.20703,-1.01171 -7e-4,2e-4 4.46546,-0.28897 4.46484,-0.28907 -6.2e-4,-10e-5 4.58063,2.01606 4.58008,2.01563 -5.4e-4,-4.3e-4 2.35594,2.65897 2.35547,2.6582 -4.7e-4,-7.7e-4 0.71593,1.38538 0.88867,1.87695 0.19582,0.55725 0.20006,0.76451 0.26563,1.09375 -1.38918,-0.79716 -2.45706,-1.07951 -3.0586,-1.23242 0.49681,0.22975 1.20534,0.61745 2.20899,1.6211 0.0192,0.0192 0.024,0.0412 0.043,0.0605 h -18.86524 c 0,0.85993 -0.009,0.73309 -0.0273,1.40625 -0.005,0.16829 -0.1366,0.0888 0.0918,1.73243 0.0571,0.41089 0.12557,0.95957 0.47265,1.94726 0.17354,0.49384 0.89016,1.88204 0.89063,1.88281 7e-5,1.2e-4 0.26129,0.29479 0.34961,0.39453 0.1218,2.01434 0.62463,4.44099 2.90234,6.71875 0.32876,0.32876 0.61827,0.50164 0.93359,0.76758 0.34814,1.32043 0.77813,2.33974 1.17969,3.08008 0.0565,0.73768 0.0698,1.3014 0.35156,2.99219 0.86101,5.16607 1.69116,7.94737 2.56446,9.63867 0.87329,1.6913 0.17662,-0.29741 1.10351,3.41016 0.32417,1.29667 0.24412,4.76943 2.05664,9.7539 2.01777,5.54886 4.5639,8.87951 5.42383,10.94336 0.85959,2.06302 1.52162,5.75617 3.50391,10.51367 1.85997,4.46393 3.99762,8.04603 5.54492,11.14063 1.64602,3.29203 3.31758,6.97416 5.42187,10.83203 1.99953,3.6658 3.98946,6.48024 5.29493,8.83008 0.68011,1.22419 1.55797,3.92089 3.76562,7.45312 2.14723,3.43558 4.32505,5.82468 5.73828,7.70899 l 0.42578,0.56836 0.50391,0.5039 c 2.36689,2.36691 3.30883,3.13571 3.54297,3.30078 0.18033,1.00246 0.47556,2.80824 1.96289,5.28711 1.93258,3.22096 3.42662,4.58415 4.01953,4.8418 0.4362,1.08615 1.11019,2.46369 2.74023,4.09375 1.63124,1.63124 3.00945,2.30619 4.09571,2.74219 0.2599,0.59435 1.62218,2.08891 4.83984,4.01953 1.63136,0.97881 2.96044,1.43126 4.01563,1.6875 0.5279,1.02323 1.28143,2.27753 2.82226,3.81836 3.4878,3.4878 6.21832,4.35795 6.51563,4.57031 1.8234,1.30244 4.10094,3.32512 7.27539,5.44141 0.8612,0.57414 1.51249,0.87365 2.11719,1.14648 0.59033,1.19284 1.56535,3.16479 4.0371,5.22461 4.53898,3.78248 7.36451,4.23929 7.53125,4.07227 0.61187,0.78164 1.74937,2.33555 4.24024,3.83008 1.77004,1.06202 3.1253,1.82335 4.4082,2.44531 1.03707,0.50277 1.98863,1.03242 4.10352,1.33789 0.53696,0.41958 0.25624,0.19171 0.90039,0.70703 -0.33038,-0.2643 0.58689,1.07666 3.34961,3.37891 4.42705,3.68921 6.58083,5.48613 7.77734,6.44921 0.29913,0.24078 0.51774,0.41902 0.87695,0.6836 0.17961,0.13229 0.34035,0.26715 0.91407,0.61133 0.28686,0.17208 0.58478,0.40471 1.70117,0.81836 0.0717,0.0266 0.30749,0.0484 0.38672,0.0781 0.87782,0.83262 1.49977,1.13925 1.84179,1.33399 0.52346,0.29804 0.79304,0.41648 1.05274,0.53515 1.0388,0.47469 1.91395,0.80894 3.91016,1.60742 2.44211,0.97686 4.42757,1.49474 5.80859,1.95508 l 1.53906,0.51172 h 1.14258 c 0.30899,0.1779 0.10581,0.11736 1.26562,0.69727 1.33727,0.66863 1.44468,0.68959 1.70313,0.79101 0.849,1.03207 2.15921,2.3545 4.86328,3.25586 0.97914,0.32638 1.60699,0.28019 2.38477,0.37305 l 0.63281,0.63281 2.24023,0.74805 c 1.7524,0.58412 3.50535,1.1678 5.25782,1.75195 l 0.58984,0.19727 0.61133,0.12109 c 1.33429,0.26686 2.14927,0.25086 3.0039,0.26953 0.70158,0.58359 0.97229,0.95027 2.17188,1.75 3.31993,2.21324 6.57139,1.86572 7.70508,1.71484 1.13369,-0.15087 1.15066,-0.0352 -0.40625,-0.0352 h 12.26758 3.50585 c -1.52398,0 0.35988,1.00439 4.91407,-0.51367 1.54938,-0.51646 2.3027,-0.88841 2.97461,-1.22266 1.05038,-0.13007 2.2209,-0.38683 3.59179,-1.07227 0.74338,-0.37168 1.02712,-0.74066 1.55274,-1.12695 1.58224,-0.46121 3.23843,-1.18371 4.55273,-2.49805 0.31962,-0.31961 0.3561,-0.55582 0.61524,-0.86523 1.29284,-0.37558 2.60679,-1.07342 3.79492,-2.01172 0.59709,-0.17573 1.09927,-0.18147 1.75195,-0.50781 0.65181,-0.3259 0.87862,-0.6488 1.36133,-0.98828 0.68139,-0.19278 1.36111,-0.37196 2.14453,-0.76367 2.95848,-1.47926 4.19021,-2.87931 4.50586,-3.47266 0.53628,-0.28684 1.7186,-1.42232 3.04297,-3.80078 0.9509,-0.43727 1.79554,-0.7858 3.48437,-2.33399 0.63302,-0.58029 1.46696,-1.70851 2.20313,-3.13281 0.7983,-0.37454 1.61486,-0.80688 3.05273,-2.125 0.95897,-0.87909 2.54258,-2.6841 3.16797,-5.61914 l 0.66602,-0.66601 c -0.90653,0.90652 1.36994,0.16044 3.625,-4.34961 v -0.002 c 0.68502,-1.37007 0.94204,-2.53985 1.07226,-3.58984 0.3343,-0.67181 0.70591,-1.42631 1.22266,-2.97656 0.16891,-0.50676 0.0991,-0.76156 0.19336,-1.20508 0.40342,-0.55859 1.08898,-2.05118 1.77344,-4.78906 1.06772,-4.27076 0.29883,-6.37835 0.29882,-5.92969 v -3.50586 c 0,-1.25593 0.0123,-1.62047 0.0234,-2.19336 0.86897,-0.97918 2.05735,-2.42402 2.96875,-5.1582 1.88752,-5.66252 0.51367,-8.77567 0.51367,-8.41993 V 788.5957 c 0,-2.69523 -0.0827,-3.97559 -0.10156,-3.84375 0.0715,-0.50041 1.03317,-2.67747 1.7168,-6.77929 0.55245,-3.31462 0.13672,-5.07812 0.13672,-5.15039 v -14.01954 c 0,-2.33613 -0.0663,-2.46294 -0.14844,-2.51562 0.50477,-0.78235 1.11663,-1.88058 1.60156,-3.82031 0.51934,-2.07736 0.43696,-3.41457 0.33789,-4.33594 0.25635,-0.32907 0.86437,-1.61479 1.51953,-4.89063 0.77141,-3.85699 0.20011,-5.87297 0.0586,-7.37304 -0.005,-0.0495 0.005,-0.0514 0.002,-0.0996 0.86131,-0.95435 2.15937,-2.44884 3.125,-5.34571 1.88747,-5.66246 0.51367,-8.77562 0.51367,-8.41992 0,-2.57935 -0.0903,-3.9178 -0.0781,-4.01562 0.168,-1.34402 1.30707,-4.26604 1.78125,-9.00781 0.54177,-5.41777 -0.0913,-8.08978 -0.11328,-7.96875 0.23252,-1.27891 1.99584,-4.38572 3.36914,-9.87891 1.00985,-4.03942 1.56605,-6.47243 1.89258,-8.61133 0.32652,-2.1389 0.24642,-4.80656 -0.0117,-6.16601 -0.25815,-1.35946 -0.19468,-0.67128 -0.22852,-1.40235 -0.0338,-0.73107 -0.0189,-2.61344 0.34766,-6.2793 0.20235,-2.02352 0.34782,-2.60364 0.38867,-2.83398 0.58371,-0.68023 0.93239,-0.9474 1.57031,-2.05078 1.13199,-1.95795 2.00159,-4.16869 2.92774,-7.25586 1.74497,-5.81657 1.4549,-9.52548 1.75195,-10.51563 -0.20698,0.68993 -0.11739,0.28707 0.67969,-0.95507 0.79707,-1.24215 2.34195,-3.4129 3.05273,-6.9668 1.20018,-6.0009 0.19336,-10.27718 0.19336,-12.47461 v -5.25781 -5.25781 -7.00977 -5.25586 c 0,-1.00285 0.009,-1.45295 0.008,-1.80859 0.22375,-0.0975 0.97172,-1.48456 1.60938,-5.31055 0.64846,-3.89076 0.13476,-6.24395 0.13476,-6.90039 v -10.51563 c 0,-2.84843 -0.0625,-4.04686 -0.13476,-3.61328 -0.17379,1.04272 0.80243,-0.4848 1.69336,-4.93945 0.74194,-3.7097 0.19531,-5.60594 0.19531,-5.4668 v -7.00976 c 0,-1.30837 -0.0163,-1.7568 -0.0215,-2.50782 0.96658,-0.95517 1.99889,-2.26387 2.81054,-4.29296 2.48992,-6.22479 0.71485,-9.69423 0.71485,-8.97071 v -3.50586 -15.77148 -28.03906 -5.25586 c 0,-0.13552 0.91052,-2.84621 -0.29883,-7.6836 -1.15197,-4.60785 -2.5477,-6.96776 -3.16211,-8.20703 -0.0189,-0.37392 -0.043,-0.61496 -0.043,-1.63476 v -10.51368 -21.02929 c 0,-2.95121 0.34787,-6.74947 -0.0352,-11.34571 -0.43465,-5.21592 -1.60766,-8.62613 -1.74804,-10.45117 -0.23518,-3.05737 0.0293,-6.89968 0.0293,-11.5 0,-2.78157 1.12138,-7.65481 -0.19336,-14.22851 -0.84012,-4.20065 -3.01935,-6.29136 -3.95117,-7.28125 -0.31638,-1.40974 -0.40819,-3.99799 -1.30664,-8.49024 -0.59672,-2.98361 -1.34824,-5.44568 -1.85547,-7.47461 -0.46013,-1.8405 -0.88373,-4.49104 -1.96875,-7.74609 -0.51212,-1.53636 -0.78099,-2.07987 -1.08008,-2.75586 -0.0591,-0.69926 -0.0543,-1.08098 -0.25781,-2.50586 -0.6264,-4.38487 -1.58568,-7.06944 -1.69336,-8.25391 -0.17663,-1.94297 -0.0641,-6.57755 0.10742,-11.20898 0.17154,-4.63142 0.45734,-9.15303 -0.15429,-13.74023 -0.91723,-6.87913 -3.26057,-10.83685 -3.55274,-12.58985 -0.0294,-0.1764 0.52742,-2.83917 0.10157,-7.94922 -0.41321,-4.95852 -1.32897,-9.17517 -1.80664,-12.75781 -0.54367,-4.07751 -0.73426,-9.03257 -1.85938,-14.6582 -1.08881,-5.44404 -2.81646,-9.56079 -3.60937,-12.73242 -1.29217,-5.16867 -2.49298,-10.18546 -3.35743,-15.08399 -0.52378,-2.96813 -0.0375,-8.2153 -1.98437,-15.0293 -5.80544,-20.31903 -9.23566,-24.27431 -18.66016,-39.35351 z m 28.06055,205.68359 c 6.7e-4,7.3e-4 0.003,0.003 0.004,0.004 0.31686,0.34468 0.22222,0.35252 -0.004,-0.004 z m 6.95312,141.76563 c -0.048,0.0319 -0.2397,0.18275 -0.30468,0.22265 0.48218,-0.46677 0.72215,-0.50043 0.30468,-0.22265 z m 11.55274,16.32226 c -0.51559,0.51255 -0.81276,0.55443 -0.47266,0.32813 0.0683,-0.0455 0.35964,-0.26254 0.47266,-0.32813 z M 268.05859,667.64453 c -0.0363,0.0372 -0.13066,0.0893 -0.16406,0.125 -0.10199,0.10897 -0.0945,0.12435 -0.17969,0.22266 0.12145,-0.12203 0.16827,-0.18253 0.34375,-0.34766 z m 8.54883,16.73633 c -0.19179,0.0258 -0.35896,0.0941 -0.55664,0.10742 -0.1287,0.009 -0.20972,-0.0542 -0.33594,-0.0508 0.44603,-0.0288 0.51408,-0.0322 0.89258,-0.0566 z m 13.75781,0.6875 c -0.0266,0.62618 -0.12994,0.78751 -0.0156,0.18555 0.005,-0.0286 0.009,-0.15269 0.0156,-0.18555 z m 95.91407,138.47461 c 0.45389,0.13738 0.46136,0.24286 0.23437,0.13281 -0.0321,-0.0156 -0.1942,-0.11261 -0.23437,-0.13281 z m 128.30468,1.20508 c -0.0236,-0.15286 0.0993,0.15538 0.11524,0.83398 -0.0504,-0.28009 -0.10368,-0.75899 -0.11524,-0.83398 z m -19.88086,2.21875 c 0.0501,0.27726 0.10375,0.75358 0.11524,0.82812 0.0235,0.15267 -0.099,-0.15131 -0.11524,-0.82812 z m 18.10938,2.76757 c -0.0489,-0.26616 0.0965,0.14152 0.12305,0.97852 -0.0578,-0.2988 -0.1041,-0.87533 -0.12305,-0.97852 z m -110.61719,8.67188 c 0.49263,-0.11538 0.60132,-0.006 0.42774,0.0293 -0.0944,0.019 -0.30053,0.007 -0.75,0.12695 0.069,-0.0204 0.26416,-0.14264 0.32226,-0.15625 z m -23.99804,1.69727 c -0.11145,-0.0717 0.68487,0.53281 0.69531,0.54687 -0.53037,-0.27247 -0.59154,-0.48008 -0.69531,-0.54687 z m 105.35546,3.29101 c 0.98949,0.0325 1.47406,0.29047 1.32032,0.25781 -0.0956,-0.0203 -0.8327,-0.14278 -1.38672,-0.25195 0.0181,4.4e-4 0.0486,-0.006 0.0664,-0.006 z m 13.40625,3.58203 c -0.0332,-0.1565 0.22733,0.35909 0.25196,1.38477 -0.10909,-0.5527 -0.23168,-1.28931 -0.25196,-1.38477 z m -72.3164,0.008 c 0.0181,-5.1e-4 0.0747,0.0178 0.0937,0.0176 -0.092,0.0186 -0.35863,0.0455 -0.41797,0.0547 -0.29957,0.0462 -0.1783,-0.0579 0.32422,-0.0723 z m 48.74023,0.88282 c -0.10308,0.15505 -0.36074,0.4711 -0.40625,0.5332 -0.13011,0.17754 -0.0273,-0.0821 0.40625,-0.5332 z m 3.75977,1.8789 c 0.10908,0.5527 0.23167,1.28931 0.25195,1.38477 0.0332,0.15651 -0.22732,-0.35907 -0.25195,-1.38477 z m -16.02344,5.12891 c -0.10388,0.15617 -0.36248,0.47277 -0.4082,0.53516 -0.13031,0.1778 -0.027,-0.0828 0.4082,-0.53516 z m -49.49219,0.42578 c -0.23373,0.2368 -0.41835,0.405 -0.64648,0.58984 0.21437,-0.17164 0.42372,-0.37894 0.64648,-0.58984 z m 51.23828,0.0273 c -0.0181,0.0649 -0.0904,0.25984 -0.10546,0.30665 -0.10786,0.3359 -0.12176,0.16062 0.10546,-0.30665 z m -53.73242,1.78516 c -0.0246,0.0125 -0.0742,0.0525 -0.0976,0.0644 -0.12293,0.0626 -0.03,-0.005 -0.14063,0.0488 0.0828,-0.0396 0.14986,-0.0683 0.23828,-0.11328 z m 79.97656,3.10938 c 0.13013,-0.17756 0.0273,0.0821 -0.40625,0.5332 0.10309,-0.15505 0.36074,-0.4711 0.40625,-0.5332 z m -7.30664,1.52734 c 0.10764,-0.33522 0.12212,-0.16226 -0.10351,0.30273 0.0178,-0.0638 0.0887,-0.25656 0.10351,-0.30273 z m -0.54101,1.56641 c 0.16033,0.0495 0.48059,0.078 0.7832,0.14062 -0.007,0.004 -0.0126,0.0114 -0.0195,0.0156 -0.56872,-0.0211 -0.56367,-0.0813 -0.76562,-0.15039 9e-4,-0.002 0.001,-0.003 0.002,-0.006 z m -53.89649,3.50586 c 0.31078,-0.0479 0.12704,0.0491 -0.42382,0.0566 0.0937,-0.0189 0.36369,-0.0474 0.42382,-0.0566 z m 49.47657,0.41015 c 0.13012,-0.17756 0.0273,0.0821 -0.40625,0.5332 0.10308,-0.15505 0.36073,-0.4711 0.40625,-0.5332 z m -8.81055,2.94141 c 0.25522,0.067 1.1869,0.2602 2.44727,0.34179 -1.97284,0.21232 -2.8571,-0.44935 -2.44727,-0.34179 z m -2.80273,1.88672 c 0.10279,0.0189 0.67763,0.0674 0.9746,0.125 -0.83577,-0.0267 -1.2406,-0.17385 -0.9746,-0.125 z"
         id="path404" />
    </g>
  </g>
</svg>
