<?xml version="1.0" encoding="UTF-8" standalone="no"?>
<!-- Created with Inkscape (http://www.inkscape.org/) -->

<svg
   width="1000"
   height="1000"
   viewBox="0 0 1000 1000"
   version="1.1"
   id="svg1"
   xmlns:xlink="http://www.w3.org/1999/xlink"
   xmlns="http://www.w3.org/2000/svg"
   xmlns:svg="http://www.w3.org/2000/svg">
  <defs
     id="defs1">
    <pattern
       xlink:href="#pattern359"
       preserveAspectRatio="xMidYMid"
       id="pattern372"
       patternTransform="matrix(0.5,0,0,0.5,147.15462,1548.2922)" />
    <pattern
       xlink:href="#pattern357"
       preserveAspectRatio="xMidYMid"
       id="pattern371"
       patternTransform="matrix(0.5,0,0,0.5,221.32076,1552.4298)" />
    <pattern
       xlink:href="#pattern358"
       preserveAspectRatio="xMidYMid"
       id="pattern370"
       patternTransform="matrix(0.5,0,0,0.5,230.96346,1527.8214)" />
    <pattern
       xlink:href="#pattern355"
       preserveAspectRatio="xMidYMid"
       id="pattern369"
       patternTransform="matrix(0.5,0,0,0.5,287.08178,1553.6581)" />
    <pattern
       xlink:href="#pattern354"
       preserveAspectRatio="xMidYMid"
       id="pattern368"
       patternTransform="matrix(0.5,0,0,0.5,230.97274,1529.1717)" />
    <pattern
       xlink:href="#pattern342"
       preserveAspectRatio="xMidYMid"
       id="pattern360"
       patternTransform="matrix(0.5,0,0,0.5,210.45332,1525.5392)" />
    <pattern
       xlink:href="#pattern342"
       preserveAspectRatio="xMidYMid"
       id="pattern359"
       patternTransform="matrix(0.5,0,0,0.5,152.11125,1550.7705)" />
    <pattern
       xlink:href="#pattern342"
       preserveAspectRatio="xMidYMid"
       id="pattern358"
       patternTransform="matrix(0.5,0,0,0.5,202.11125,1533.2444)" />
    <pattern
       xlink:href="#pattern342"
       preserveAspectRatio="xMidYMid"
       id="pattern357"
       patternTransform="matrix(0.5,0,0,0.5,211.4075,1546.234)" />
    <pattern
       xlink:href="#pattern342"
       preserveAspectRatio="xMidYMid"
       id="pattern356"
       patternTransform="matrix(0.5,0,0,0.5,232.14929,1573.2544)" />
    <pattern
       xlink:href="#pattern342"
       preserveAspectRatio="xMidYMid"
       id="pattern355"
       patternTransform="matrix(0.5,0,0,0.5,275,1552.7287)" />
    <pattern
       xlink:href="#pattern342"
       preserveAspectRatio="xMidYMid"
       id="pattern354"
       patternTransform="matrix(0.5,0,0,0.5,235,1529.7913)" />
    <pattern
       xlink:href="#shading24"
       preserveAspectRatio="xMidYMid"
       id="pattern342"
       patternTransform="matrix(0.5,0,0,0.5,213.95332,1537.5392)"
       x="0"
       y="0" />
    <pattern
       patternUnits="userSpaceOnUse"
       width="338.5925"
       height="42.989567"
       patternTransform="translate(213.95332,1537.5392) scale(0.5)"
       preserveAspectRatio="xMidYMid"
       id="shading24"
       style="fill:#000000">
      <path
         style="fill-rule:nonzero;stroke:none;stroke-width:0.1;stroke-linecap:square;paint-order:markers fill stroke;stop-color:#000000"
         d="m 1806.4991,-758.06464 v 18.86792 c 55.9187,0 121.0493,0.59523 193.5686,3.15628 72.9408,2.57593 146.0589,6.87694 222.9288,13.47675 119.09,10.22471 223.0762,23.76065 340.6056,39.2177 117.5025,15.4535 222.0471,29.0563 341.8507,39.3312 77.366,6.63525 151.0001,10.96128 224.4674,13.55245 73.0344,2.5759 138.631,3.17493 194.9247,3.17493 -55.9642,0 -122.2215,-1.36594 -194.8324,-5.25394 -73.2143,-3.92032 -146.9676,-10.0663 -223.8166,-18.88656 -118.8791,-13.6442 -223.3242,-31.02113 -339.8009,-50.57815 -116.4705,-19.55598 -221.1862,-36.99475 -340.3724,-50.69165 -77.0605,-8.8558 -150.9942,-15.0266 -224.3694,-18.96225 -72.7637,-3.90286 -139.1256,-5.27261 -195.1541,-5.27261 z m 0,37.81515 v 18.86793 c 55.9187,0 121.0493,0.59523 193.5686,3.15627 72.9408,2.57593 146.0589,6.87694 222.9288,13.47676 119.09,10.22471 223.0762,23.76065 340.6056,39.2177 117.5025,15.4535 222.0471,29.0563 341.8507,39.33119 77.366,6.63526 151.0001,10.96128 224.4674,13.55245 73.0344,2.5759 138.631,3.17493 194.9247,3.17493 -55.9642,0 -122.2215,-1.36594 -194.8324,-5.25394 -73.2143,-3.92031 -146.9676,-10.0663 -223.8166,-18.88656 -118.8791,-13.6442 -223.3242,-31.02112 -339.8009,-50.57815 -116.4705,-19.55598 -221.1862,-36.99475 -340.3724,-50.69165 -77.0605,-8.8558 -150.9942,-15.02659 -224.3694,-18.96225 -72.7637,-3.90286 -139.1256,-5.2726 -195.1541,-5.2726 z m 0,37.81516 v 18.86792 c 55.9187,0 121.0493,0.59523 193.5686,3.15628 72.9408,2.57593 146.0589,6.87694 222.9288,13.47675 119.09,10.22471 223.0762,23.76065 340.6056,39.2177 117.5025,15.4535 222.0471,29.0563 341.8507,39.3312 77.366,6.63525 151.0001,10.96128 224.4674,13.55245 73.0344,2.5759 138.631,3.17493 194.9247,3.17493 -55.9642,0 -122.2215,-1.36594 -194.8324,-5.25394 -73.2143,-3.92032 -146.9676,-10.0663 -223.8166,-18.88656 -118.8791,-13.6442 -223.3242,-31.02113 -339.8009,-50.57815 -116.4705,-19.55598 -221.1862,-36.99475 -340.3724,-50.69165 -77.0605,-8.8558 -150.9942,-15.0266 -224.3694,-18.96225 -72.7637,-3.90286 -139.1256,-5.27261 -195.1541,-5.27261 z m 0,37.81515 v 18.86793 c 55.9187,0 121.0493,0.59523 193.5686,3.15627 72.9408,2.57593 146.0589,6.87694 222.9288,13.47676 119.09,10.22471 223.0762,23.76065 340.6056,39.2177 117.5025,15.4535 222.0471,29.0563 341.8507,39.33119 77.366,6.63526 151.0001,10.96128 224.4674,13.55245 73.0344,2.5759 138.631,3.17494 194.9247,3.17494 -55.9642,0 -122.2215,-1.36595 -194.8324,-5.25395 -73.2143,-3.92031 -146.9676,-10.0663 -223.8166,-18.88656 -118.8791,-13.6442 -223.3242,-31.02112 -339.8009,-50.57815 -116.4705,-19.55598 -221.1862,-36.99475 -340.3724,-50.69165 -77.0605,-8.8558 -150.9942,-15.02659 -224.3694,-18.96225 -72.7637,-3.90286 -139.1256,-5.2726 -195.1541,-5.2726 z m 0,37.81516 v 18.86792 c 55.9187,0 121.0493,0.59523 193.5686,3.15628 72.9408,2.57593 146.0589,6.87694 222.9288,13.47675 119.09,10.22471 223.0762,23.76065 340.6056,39.2177 117.5025,15.4535 222.0471,29.0563 341.8507,39.3312 77.366,6.63525 151.0001,10.96128 224.4674,13.55245 73.0344,2.5759 138.631,3.17493 194.9247,3.17493 -55.9642,0 -122.2215,-1.36594 -194.8324,-5.25394 -73.2143,-3.92032 -146.9676,-10.0663 -223.8166,-18.88656 -118.8791,-13.6442 -223.3242,-31.02113 -339.8009,-50.57815 -116.4705,-19.55598 -221.1862,-36.99475 -340.3724,-50.69165 -77.0605,-8.8558 -150.9942,-15.0266 -224.3694,-18.96225 -72.7637,-3.90286 -139.1256,-5.27261 -195.1541,-5.27261 z m 0,37.81515 v 18.86793 c 55.9187,0 121.0493,0.59523 193.5686,3.15627 72.9408,2.57593 146.0589,6.87694 222.9288,13.47676 119.09,10.22471 223.0762,23.76065 340.6056,39.2177 117.5025,15.4535 222.0471,29.0563 341.8507,39.33119 77.366,6.63526 151.0001,10.96128 224.4674,13.55245 73.0344,2.5759 138.631,3.17494 194.9247,3.17494 -55.9642,0 -122.2215,-1.36595 -194.8324,-5.25395 -73.2143,-3.92031 -146.9676,-10.0663 -223.8166,-18.88656 -118.8791,-13.6442 -223.3242,-31.02112 -339.8009,-50.57815 -116.4705,-19.55598 -221.1862,-36.99475 -340.3724,-50.69165 -77.0605,-8.8558 -150.9942,-15.02659 -224.3694,-18.96225 -72.7637,-3.90286 -139.1256,-5.2726 -195.1541,-5.2726 z m 0,37.81516 v 18.86792 c 55.9187,0 121.0493,0.59523 193.5686,3.15628 72.9408,2.57593 146.0589,6.87694 222.9288,13.47675 119.09,10.22471 223.0762,23.76065 340.6056,39.2177 117.5025,15.4535 222.0471,29.0563 341.8507,39.3312 77.366,6.63525 151.0001,10.96128 224.4674,13.55245 73.0344,2.5759 138.631,3.17493 194.9247,3.17493 -55.9642,0 -122.2215,-1.36594 -194.8324,-5.25394 -73.2143,-3.92032 -146.9676,-10.0663 -223.8166,-18.88656 -118.8791,-13.6442 -223.3242,-31.02113 -339.8009,-50.57815 -116.4705,-19.55598 -221.1862,-36.99475 -340.3724,-50.69165 -77.0605,-8.8558 -150.9942,-15.0266 -224.3694,-18.96225 -72.7637,-3.90286 -139.1256,-5.27261 -195.1541,-5.27261 z"
         id="use26"
         transform="matrix(0.22300099,0,0,0.37823052,-402.85121,237.25945)" />
    </pattern>
    <clipPath
       clipPathUnits="userSpaceOnUse"
       id="clipPath54">
      <path
         id="path336"
         style="stroke-width:0.0999999;stroke-linecap:square;paint-order:markers fill stroke;stop-color:#000000"
         d="m 1691.1994,-792.32001 h 1634.8919 v 92.82806 H 1691.1994 Z" />
    </clipPath>
    <clipPath
       clipPathUnits="userSpaceOnUse"
       id="clipPath33">
      <rect
         style="fill:#000000;stroke:none;stroke-width:0.999995;stroke-linecap:butt;stroke-linejoin:bevel;paint-order:stroke markers fill;stop-color:#000000"
         id="rect33"
         width="46.19186"
         height="80.006783"
         x="74.999985"
         y="399.99661" />
    </clipPath>
    <clipPath
       clipPathUnits="userSpaceOnUse"
       id="clipPath27">
      <rect
         style="fill:none;stroke:#000000;stroke-width:0.999999;stroke-linecap:butt;stroke-linejoin:bevel;paint-order:stroke markers fill;stop-color:#000000"
         id="rect28-6"
         width="46.160622"
         height="39.922417"
         x="86.574379"
         y="420.06253" />
    </clipPath>
    <clipPath
       clipPathUnits="userSpaceOnUse"
       id="clipPath25">
      <rect
         style="fill:#ff0000;stroke:none;stroke-width:3;stroke-linecap:square;stroke-linejoin:miter;paint-order:stroke markers fill;stop-color:#000000"
         id="rect25-8"
         width="78"
         height="45.033199"
         x="763.61322"
         y="452.82422" />
    </clipPath>
    <clipPath
       clipPathUnits="userSpaceOnUse"
       id="clipPath15">
      <rect
         style="fill:none;stroke:#000000;stroke-linecap:butt;stroke-linejoin:bevel;paint-order:stroke markers fill;stop-color:#000000"
         id="rect15-7"
         width="45.034248"
         height="38.955639"
         x="262.48285"
         y="121.00073" />
    </clipPath>
    <linearGradient
       id="swatch75">
      <stop
         style="stop-color:#000000;stop-opacity:1;"
         offset="0"
         id="stop75" />
    </linearGradient>
  </defs>
  <g
     id="layer51"
     style="display:inline">
    <g
       id="layer56"
       style="display:inline">
      <path
         style="baseline-shift:baseline;display:inline;overflow:visible;opacity:1;vector-effect:none;fill-rule:evenodd;enable-background:accumulate;stop-color:#000000;stop-opacity:1"
         d="m 791.38281,187.97266 c -0.002,-1.7e-4 -6.06686,1.31748 -6.06836,1.31836 -7.4e-4,4.3e-4 -1.50385,1.04217 -2.02929,1.56835 -0.52545,0.52619 -0.91164,1.02704 -1.21485,1.47657 -0.52816,0.78304 -0.78797,1.35413 -0.99414,1.86914 -0.27288,-0.23927 -1.51205,-1.32188 -1.51172,-1.32227 0.007,-0.008 0.012,-0.0151 0.0176,-0.0215 0.0113,-0.0128 0.02,-0.0231 0.0273,-0.0312 0.11704,-0.13124 -0.26589,0.30495 -1.58984,1.6289 -0.29736,0.29736 -0.295,0.2855 -0.48828,0.46875 -1.04489,0.38489 -2.80067,1.06629 -4.76953,3.03516 -1.50516,1.50516 -2.25808,2.74107 -2.78906,3.75781 -1.25289,0.28844 -2.80034,0.81805 -4.71485,2.18555 -3.79323,2.70945 -5.79808,4.1792 -7.66015,5.97852 -0.93104,0.89965 -2.07503,1.78516 -3.15821,4.53906 -0.2419,0.61502 -0.35134,1.37403 -0.41211,2.1582 -0.22424,0.26696 -0.22019,0.33543 -0.54297,0.6582 -3.69155,3.69156 -4.42016,4.05744 -6.11914,5.07813 -1.69897,1.02069 -4.90776,2.90077 -9.27148,6.82812 -3.80633,3.42571 -6.87793,6.80146 -9.86133,9.84375 -2.14274,1.15312 -5.38078,2.55591 -9.12695,5.67774 -5.76233,4.80193 -9.2174,9.65258 -12.37305,12.35742 -2.5909,2.22076 -7.07168,4.50787 -12.0918,8.61523 -3.85482,3.15397 -5.9256,6.01899 -7.36718,7.31641 -2.80046,2.52041 -6.56233,5.16906 -10.55078,8.79492 -3.97268,3.61153 -6.43483,6.80962 -8.4375,8.47852 -2.97936,2.4828 -6.94057,4.95405 -11.23047,7.99023 -2.17447,1.27023 -5.69649,2.74587 -9.64453,5.9043 -3.73786,2.99029 -7.30237,6.43843 -10.40821,10.43164 -3.59335,4.62002 -4.07354,7.81845 -4.09179,7.84766 -1.01044,1.6167 -2.67361,3.60518 -4.66993,6.17187 -5.12616,6.59078 -5.97435,7.61278 -5.70507,7.37695 0.26927,-0.23582 -2.20652,1.39131 -8.68164,6.94141 -2.03085,1.74074 -3.26161,3.21864 -4.06836,4.02539 -3.10913,3.10913 -5.83107,6.04614 -8.47461,8.48633 -3.97629,3.67042 -9.16352,7.39985 -14.30664,12.54297 -4.66887,4.66887 -6.83517,8.70878 -8.51368,10.27539 -10.26725,9.58276 -12.50719,11.00879 -15.77929,12.70117 -3.2721,1.69239 -8.98996,4.06966 -21.57422,12.62695 -8.85355,6.02042 -15.83995,12.73573 -22.83594,17.56055 -15.91942,10.97892 -20.62644,13.3638 -25.86523,16.26172 -5.2388,2.89792 -10.73694,6.21586 -25.33008,17.30664 -7.84689,5.96364 -14.54122,12.32907 -21.22461,17.67578 -7.13716,5.70972 -15.03634,11.21407 -22.85156,17.58203 -8.64056,7.04046 -16.64491,14.35112 -24.67578,21.14649 -6.91092,5.8477 -13.91019,11.64242 -20.93946,17.44922 -6.40871,5.29415 -12.76118,10.55737 -19.15429,15.67187 -4.75745,3.80595 -10.45081,7.59782 -16.11133,12.55078 -9.62403,8.42103 -17.6354,17.32019 -26.10352,24.37696 -3.76277,3.13564 -9.06778,5.97813 -14.91601,9.87695 l -0.34571,0.23047 c -0.43618,-1.08935 -1.11676,-2.54645 -2.80859,-4.23828 -1.49605,-1.49606 -2.72728,-2.24955 -3.74219,-2.78125 -0.29717,-1.31035 -0.84915,-2.92519 -2.33789,-4.91016 -1.06796,-1.42395 -2.17924,-2.28757 -3.22656,-2.94531 -0.35595,-0.56614 -0.71268,-1.13651 -1.20703,-1.63086 -1.34281,-1.34281 -3.02076,-2.15758 -4.60547,-2.62305 -0.22544,-0.29121 -0.38529,-0.61379 -0.65235,-0.88086 -0.30446,-0.30446 -0.66873,-0.49351 -1.0039,-0.74414 -0.25164,-0.33698 -0.44204,-0.70377 -0.74805,-1.00976 -0.18587,-0.18587 -0.41516,-0.28763 -0.61328,-0.45313 0.005,-0.52832 0.0371,-0.60321 0.0371,-1.23633 v -1.23242 l -0.29883,-1.19336 c -0.58942,-2.35767 -1.74262,-3.89864 -2.88281,-5.09766 0.0397,-0.97017 -0.0177,-2.4537 -0.51758,-4.95312 -0.45814,-2.29078 -0.9831,-3.68962 -1.42578,-4.60156 0.0417,-0.86467 0.0174,-2.12206 -0.26953,-3.84375 -0.39358,-2.36142 -0.8286,-3.91573 -1.1836,-5.04883 0.57532,-1.47714 0.6382,-2.32266 0.6836,-2.9082 0.0948,-1.22216 0.007,-1.63555 -0.0352,-2.0293 -0.0849,-0.7875 -0.17286,-1.18146 -0.27539,-1.69141 -0.41013,-2.03978 -1.18971,-5.22173 -2.85547,-11.88476 -1.29052,-5.16209 -3.01999,-8.45511 -3.47265,-10.37891 -1.24003,-5.27013 -1.65991,-11.90327 -3.53711,-19.41211 -1.51007,-6.04026 -3.4386,-8.50187 -3.38282,-8.20898 -1.53793,-8.07416 -1.63111,-17.54755 -3.48437,-27.92578 -1.48577,-8.32029 -4.09346,-15.21533 -5.29688,-21.23243 -1.35429,-6.77142 -1.97804,-14.39978 -3.4707,-22.60937 -4.52138,-24.86758 -6.56546,-36.03121 -7.43555,-40.43359 -0.21752,-1.1006 -0.27265,-1.50604 -0.5664,-2.58204 -0.0734,-0.269 0.003,-0.36625 -0.61719,-1.70312 -0.15511,-0.33422 -0.34277,-0.76278 -0.88476,-1.53711 -0.1629,-0.23273 -0.80039,-0.61587 -1.4004,-1.08984 -0.93175,-4.11403 -1.74425,-7.61448 -3.17578,-14.29493 -1.43829,-6.71206 -2.12015,-14.21526 -3.4082,-22.26562 -1.09405,-6.83783 -2.03985,-14.05032 -3.58984,-21.49024 -1.58128,-7.59014 -3.65725,-14.66026 -5.34571,-21.41406 -1.24519,-4.98078 -2.58008,-9.4551 -3.40039,-13.55664 -0.73178,-3.65888 -1.25408,-7.41015 -1.59961,-11.21094 0.065,0.71479 1.46595,-2.51763 -0.34375,-8.85156 -0.85021,-2.97576 -2.16695,-4.59342 -3.0957,-5.66211 -0.006,-0.2117 -0.0234,-0.10307 -0.0234,-0.35156 v -5.25781 c 0,0.0789 0.13922,-0.84723 -0.0508,-2.74805 -0.54092,-5.40918 -1.18761,-10.69636 -1.76367,-15.88086 l -19.93945,1.10352 V 269.875 c 0,10.72283 0.32127,21.13727 0.006,31.23047 -0.25407,8.12996 -0.59409,15.98476 -1.65821,23.43359 -1.61497,11.30484 -5.38896,23.41456 -7.03711,37.01172 -1.03542,8.54221 -1.26978,13.73824 -1.02539,17.70899 0.2444,3.97074 1.3025,7.13549 1.44922,7.64453 0.14672,0.50903 0.17408,-0.71599 -0.14844,1.60937 -0.32251,2.32537 -1.33349,7.11012 -3.52929,15.52735 -0.92401,3.54205 -4.94471,8.91511 -7.05664,17.71484 -3.59948,14.99782 -5.04973,21.64962 -5.41993,26.52539 -0.0925,1.21894 -0.21965,2.30055 0.1836,4.33203 0.20162,1.01574 0.51613,2.37788 1.73242,4.13086 0.25077,0.36142 0.76129,0.70353 1.12109,1.07031 -0.53438,3.76853 -1.42168,9.20999 -2.95703,16.88672 -0.62529,3.12649 -4.38137,8.2088 -6.81836,16.73828 -4.67422,16.35978 -4.85027,35.95531 -7.21289,48.16211 -1.43865,7.43309 -5.18394,15.93688 -7.03906,26.44922 -2.1609,12.24517 -1.97466,23.59149 -3.53516,33.47461 -1.61914,10.25453 -4.98291,21.13185 -6.99609,33.21094 -4.01593,24.0956 -3.072,35.51087 -6.99414,57.73633 -1.71332,9.70879 -5.03802,20.04435 -7.01758,31.59179 -1.88238,10.98055 -1.88377,21.03801 -3.48047,29.66016 -0.79175,4.27547 -3.32247,9.70201 -5.12695,16.91992 -1.633,6.53201 -2.40251,12.55248 -3.56445,17.78125 -0.8199,3.68953 -2.74263,8.47373 -3.64258,14.77344 -0.84029,5.88208 0.0542,9.65213 -0.0664,11.09961 -0.16817,2.01808 -1.24355,5.40221 -1.73828,10.34961 -0.44689,4.46891 0.0318,6.74334 0.0293,6.76367 0.0202,-0.16142 -1.2698,2.14148 -1.78125,7.25586 -0.48075,4.80758 -0.0488,8.66824 -0.0488,11.50976 v 10.51368 3.50586 c 0,-0.93989 -1.19104,1.55768 0.51172,6.66601 v 0.002 c 0.34996,1.04986 0.78857,1.87553 1.24023,2.60352 v 1.24219 12.26758 h 20 v -12.26758 -1.75196 c 0,0.93987 1.18909,-1.5577 -0.51367,-6.66601 -0.34975,-1.04924 -0.78691,-1.87578 -1.23828,-2.60352 v -2.99804 -10.51368 c 0,-4.16821 -0.26751,-7.35216 -0.0508,-9.51953 -0.0321,0.32132 1.10695,-1.82247 1.72461,-6.76367 0.57708,-4.61675 0.0112,-7.07481 0.0293,-7.25586 0.21237,-2.12376 1.34559,-5.61589 1.76757,-10.67969 0.4615,-5.53804 -0.21743,-8.87248 -0.0664,-9.92968 0.46248,-3.23743 2.09718,-7.55061 3.36718,-13.26563 1.42262,-6.40177 2.18674,-12.24107 3.44336,-17.26758 1.1538,-4.61519 3.95943,-10.41099 5.38868,-18.1289 2.0447,-11.04142 2.03275,-21.19206 3.52929,-29.92188 1.66029,-9.68501 4.97156,-19.99051 7.00196,-31.49609 4.21146,-23.86494 3.27061,-35.39515 7.02539,-57.92383 1.71605,-10.29633 5.1047,-21.22891 7.02343,-33.38086 1.92061,-12.16386 1.75662,-23.3838 3.47461,-33.11914 1.29678,-7.3484 4.97277,-15.74987 6.98047,-26.12305 2.97443,-15.36782 3.38444,-34.49104 6.80664,-46.46875 1.01978,-3.56923 5.35682,-9.09853 7.19922,-18.31054 3.012,-15.06001 4.13603,-21.70435 4.02149,-27.09766 -0.0286,-1.34833 -0.0269,-2.6633 -0.82227,-4.8418 -0.29228,-0.80052 -1.00146,-1.86158 -1.88281,-2.91992 0.76333,-3.85826 1.9295,-9.30067 3.85937,-17.3418 0.82457,-3.43569 4.71072,-8.70064 6.96289,-17.33398 2.27249,-8.7112 3.43624,-13.85993 3.98633,-17.82617 0.55009,-3.96624 0.14867,-7.84253 -0.44336,-9.89649 -0.59202,-2.05395 -0.58371,-1.36212 -0.70508,-3.33398 -0.12136,-1.97186 -0.0382,-6.18599 0.91797,-14.07422 1.35716,-11.19651 5.06538,-23.17054 6.98242,-36.58984 0.0639,-0.44753 0.0736,-0.87966 0.13282,-1.32617 0.35125,2.29241 0.74333,4.38707 1.12109,6.74804 1.13969,7.12308 1.82016,14.98361 3.60156,23.29688 2.15278,10.0463 3.70749,17.00469 4.83399,21.7539 1.1265,4.74922 1.45749,6.57024 2.5664,9.29297 0.20313,0.49875 0.33182,1.23391 1.5293,2.62891 1.17411,6.31808 1.9487,10.41024 5.0293,27.35351 1.25618,6.90899 1.87778,14.65847 3.53711,22.95508 1.63064,8.15321 4.16417,14.91861 5.21875,20.82422 1.4583,8.16651 1.54044,17.72112 3.52734,28.15234 1.23299,6.47322 3.61112,9.25309 3.62695,9.31641 1.29076,5.16304 1.71906,11.69807 3.47071,19.14258 1.2397,5.26868 3.03555,8.64418 3.53711,10.65039 0.82216,3.28866 0.8874,3.66235 1.32031,5.46289 -0.0294,0.48886 -0.16781,1.15715 -0.20899,1.45898 -0.16944,1.24209 -0.13201,1.94146 -0.10156,2.6875 0.0609,1.49209 0.23733,2.99727 0.54492,5.1504 0.60975,4.26809 1.68079,6.59056 1.78907,7.24023 -0.16829,-1.00973 -0.13672,-0.40488 -0.13672,1.85937 0,-1.52414 -1.00447,0.36176 0.51367,4.91602 0.45326,1.3598 0.61555,1.65701 0.88672,2.34961 -0.0399,0.61629 0.17714,2.07768 0.35937,3.43164 -0.14199,2.01898 0.004,4.12738 0.86719,5.9668 0.7574,1.61445 1.66638,2.74137 2.52734,3.57422 -1.8e-4,0.002 -0.002,0.037 -0.002,0.0391 -0.008,0.0701 -0.064,0.1874 -0.0723,0.25781 -0.0566,0.4847 -0.13925,0.77387 -0.0527,2.01367 0.0216,0.30995 0.0476,0.68461 0.19336,1.37891 0.0729,0.34715 0.17117,0.77728 0.4043,1.41016 0.11656,0.31643 0.26773,0.68513 0.5,1.13476 0.23227,0.44963 1.03865,1.61277 1.03906,1.61328 1.9e-4,2.4e-4 0.51546,0.47901 1.02344,0.95117 0.45758,0.91977 1.00102,1.81743 1.75195,2.56836 0.30514,0.30514 0.6699,0.49503 1.00586,0.7461 0.25107,0.33596 0.44096,0.70072 0.74609,1.00586 0.30418,0.30418 0.66908,0.49174 1.00391,0.74218 0.252,0.33765 0.44149,0.70516 0.74805,1.01172 0.30552,0.30552 0.6714,0.49478 1.00781,0.7461 0.25097,0.33578 0.43916,0.70087 0.74414,1.00586 1.31824,1.31824 2.95869,2.11814 4.51758,2.58789 0.37672,0.31213 0.77162,0.69216 1.12304,0.92578 0.38865,1.25706 1.07452,2.78601 2.38477,4.42383 2.08029,2.60037 4.13153,3.60911 5.36328,4.21289 0.25701,0.56726 0.55306,1.18658 1.07031,1.97851 0.10168,1.2405 0.37177,2.65758 1.19336,4.30078 0.59061,1.18119 1.67714,2.32333 2.88282,3.3125 0.46171,1.57985 1.18229,3.23305 2.49414,4.54493 2.84952,2.84952 5.55649,3.23828 7.94726,3.23828 2.39077,0 5.09775,-0.38876 7.94727,-3.23828 3.15325,-3.15325 5.12129,-6.06124 6.82422,-8.34766 4.46914,-2.85425 9.85147,-5.78703 15.28906,-10.31836 9.94714,-8.28928 18.05255,-17.32723 26.46875,-24.69141 4.36419,-3.81867 9.79139,-7.46906 15.43555,-11.98437 6.57282,-5.25826 13.0057,-10.58819 19.39843,-15.86914 7.04021,-5.81583 14.09884,-11.66131 21.11914,-17.60156 8.41413,-7.11966 16.33095,-14.34301 24.39063,-20.91016 7.03934,-5.73576 14.88753,-11.20847 22.71289,-17.46875 7.56687,-6.0535 14.14956,-12.29241 20.83203,-17.37109 14.23637,-10.81964 18.01272,-13.0205 22.9082,-15.72852 4.89549,-2.70802 11.184,-6.01752 27.53907,-17.29688 8.77787,-6.0537 15.73702,-12.7321 22.72851,-17.48632 11.77282,-8.00552 14.84335,-8.98576 19.51563,-11.40235 4.67228,-2.41658 9.53307,-5.85222 20.23828,-15.84375 4.99209,-4.65929 7.22655,-8.97069 9.00976,-10.7539 3.6385,-3.6385 8.58118,-7.23704 13.73047,-11.99024 3.4267,-3.16311 6.31847,-6.30675 9.05078,-9.03906 1.52983,-1.52983 2.46336,-2.57266 2.94141,-2.98242 5.98663,-5.13139 6.33331,-4.8832 8.8418,-7.08008 2.50849,-2.19688 3.31739,-3.71918 8.3164,-10.14648 1.58998,-2.04426 3.75823,-4.51083 5.84375,-7.84766 2.75085,-4.40137 3.30364,-6.66774 2.91797,-6.17188 1.96597,-2.52766 4.4023,-4.92144 7.11524,-7.09179 1.26543,-1.01235 3.97387,-2.28041 7.66015,-4.49219 l 0.3418,-0.20508 0.32617,-0.23242 c 3.6853,-2.63235 8.23289,-5.36465 12.85547,-9.2168 4.34363,-3.6197 6.94789,-7.09946 9.08789,-9.04492 2.76323,-2.51202 6.49475,-5.14489 10.47656,-8.72851 3.47074,-3.12366 5.39418,-5.67212 6.6543,-6.70313 2.75829,-2.25642 7.40239,-4.58906 12.44141,-8.9082 5.62551,-4.82188 9.03764,-9.57565 12.16015,-12.17774 h 0.002 c 1.04223,-0.86852 3.7045,-2.0856 7.5039,-4.36523 l 1.05664,-0.63281 0.86914,-0.8711 c 3.75262,-3.75262 6.97142,-7.30533 10.13477,-10.15234 3.39525,-3.05573 3.98677,-3.22436 6.19141,-4.54883 2.20463,-1.32447 5.48212,-3.60125 9.96093,-8.08008 2.69339,-2.69338 4.40154,-4.0648 5.83008,-8.04687 0.0604,-0.16838 0.0494,-0.44565 0.10156,-0.63282 0.59158,-0.46981 1.06966,-0.83433 2.29297,-1.73828 0.90222,-0.12813 2.44846,-0.32043 4.4961,-1.4082 v 6.50781 c 0,7.08895 0.55618,13.20768 0.0488,18.28125 -0.35276,3.52758 -2.19482,8.39089 -3.39257,14.97852 -1.52771,8.40234 -1.94532,15.97466 -3.41016,22.32226 -0.72918,3.15981 -0.99553,4.11363 -1.59766,6.66602 -1.7426,1.0261 -2.24174,2.17297 -2.64453,2.74805 -1.1791,1.68346 -1.10105,1.99995 -1.25,2.40039 -0.29789,0.80088 -0.37896,1.15696 -0.51172,1.65234 -1.06207,3.96304 -3.08387,13.50339 -8.06445,37.57617 -1.71224,8.27583 -2.39674,16.08555 -3.57617,23.16211 -1.04145,6.24868 -2.2927,12.61077 -3.47852,19.13281 l -0.0195,0.10352 -0.0176,0.10547 c -2.33441,14.59009 -4.70086,29.19466 -7.01172,43.83008 -1.24656,7.89496 -2.08794,15.42834 -3.44531,22.4414 -1.88421,9.73509 -5.36025,20.19061 -7.08789,31.9961 -2.08069,14.21807 -2.24155,27.91224 -3.55664,40.73437 -3.67677,35.84858 -3.92301,22.19723 -7.03125,61.56836 -0.9415,11.92567 -0.43889,22.94957 -1.70312,32.81055 -1.39142,10.85306 -4.54002,22.18627 -6.90821,34.42187 -1.22822,6.34584 -2.56805,12.89298 -3.57812,19.71094 -1.47896,9.98298 -1.92757,19.3243 -3.45313,27.71484 -4.65834,25.62087 -7.98686,29.8923 -13.92383,55.61915 -1.6475,7.13918 -2.35204,13.73045 -3.55078,19.48437 -3.49204,16.76183 -4.21388,19.29278 -5.25976,22.63867 -1.04588,3.34589 -2.56239,7.89079 -6.94141,26.13672 -1.56131,6.5055 -2.31233,12.4524 -3.51562,17.56641 -0.72731,3.09107 -2.40429,7.12169 -3.54883,12.46289 -1.20252,5.6118 -1.11834,9.70772 -1.67578,11.9375 -0.14195,0.56778 -1.98623,3.18516 -3.45117,8.55664 -1.40963,5.16864 -1.36741,8.20046 -1.53125,9.36719 -0.76443,0.85359 -2.44625,2.51843 -3.56446,5.87304 -1.84851,5.54558 -1.66405,9.67377 -2.07226,11.71485 -0.24364,1.21816 -1.18773,3.59125 -1.81055,7.32812 -0.26506,1.59042 -0.2278,2.62338 -0.15234,3.39063 -0.58057,1.60094 -1.58515,3.63069 -2.85157,7.00781 -0.95941,2.55842 -1.37015,4.29549 -1.67382,5.05469 -0.0739,0.18471 -0.58038,1.08459 -1.41211,2.74804 0.20033,-0.40067 -1.66911,1.29466 -2.61329,6.01563 -0.85341,4.26707 -0.20199,6.74504 -0.19726,7.20312 -0.32935,0.66281 -0.95504,2.06427 -1.55469,5.0625 -0.10608,0.53041 -0.0526,0.80424 -0.0977,1.25196 -0.49092,0.76008 -0.95885,1.67343 -1.33594,2.80468 -1.70273,5.10828 -0.51367,7.60784 -0.51367,6.66797 v 7.00977 1.75195 c 0,2.64912 0.39738,3.23588 0.28711,2.56641 -0.11028,-0.66947 -0.48417,-4.75802 2.64257,-7.88477 1.79904,-1.79903 3.71714,-2.35293 5.31836,-2.55078 v 19.62109 c -2.06495,10e-6 -1.98191,-0.19204 -0.68554,0.0215 1.29636,0.21353 5.96793,0.59066 9.50781,-2.94922 3.5398,-3.53981 3.16471,-8.21338 2.95117,-9.50977 -0.21354,-1.29638 -0.0215,-1.37942 -0.0215,0.68555 v -1.75195 -6.50195 c 0.45137,-0.72774 0.88852,-1.55427 1.23828,-2.60352 0.8693,-2.60796 0.69472,-4.34078 0.55468,-5.38477 0.14616,-0.18252 0.64434,-1.03438 1.41407,-4.11328 v -0.002 c 0.92594,-3.70389 0.29687,-5.20849 0.29687,-4.17578 0,-2.34929 -0.065,-2.49108 -0.14844,-2.53125 0.169,-0.35847 0.32971,-0.72776 0.84571,-1.75977 0.33657,-0.67313 1.19742,-2.02287 2.09375,-4.26367 1.0684,-2.67102 1.49227,-4.55818 1.83008,-5.45898 0.76373,-2.03664 2.48025,-5.05586 3.75781,-9.52735 0.74021,-2.59069 0.50944,-4.32298 0.40039,-5.21093 0.25556,-1.1144 0.90315,-2.90058 1.54101,-6.08985 0.91457,-4.57285 1.00053,-7.26744 1.33008,-8.64258 0.74747,-0.84094 2.47544,-2.52593 3.60938,-5.92773 1.99306,-5.97922 1.60563,-9.92117 1.91211,-11.04492 0.19044,-0.69828 2.17464,-3.43296 3.55859,-8.96875 1.44616,-5.78462 1.30168,-10.1318 1.83008,-12.59766 0.63756,-2.97528 2.24021,-6.88222 3.46094,-12.07031 1.52553,-6.48353 2.27499,-12.40264 3.49414,-17.48242 4.31577,-17.98241 5.42475,-21.12742 6.58398,-24.83594 1.15924,-3.70852 2.22325,-7.59697 5.75,-24.52539 1.4653,-7.0334 2.16941,-13.48018 3.45899,-19.06836 5.66945,-24.56763 9.2269,-29.66202 14.11328,-56.53711 1.8443,-10.14369 2.27685,-19.71156 3.55859,-28.36328 0.90413,-6.10288 2.17587,-12.36375 3.42969,-18.8418 2.15975,-11.15873 5.47261,-22.89378 7.11133,-35.67578 1.56241,-12.18678 0.99481,-23.54765 1.80273,-33.78125 3.07324,-38.92783 3.2503,-24.65618 6.98828,-61.10156 1.43683,-14.00915 1.62634,-27.4092 3.45117,-39.87891 1.39167,-9.50967 4.72431,-19.6772 6.9336,-31.0918 1.56259,-8.07339 2.41444,-15.83765 3.56445,-23.12109 2.30017,-14.56772 4.66535,-29.14657 7.00195,-43.75 0.002,-0.0136 0.004,-0.0274 0.006,-0.041 1.14095,-6.26381 2.40012,-12.64878 3.49414,-19.2129 1.34681,-8.08081 2.0325,-15.62845 3.4336,-22.40039 2.25148,-10.88214 2.28624,-10.702 3.53125,-16.51171 1.13407,-1.01546 1.6437,-1.80094 1.93359,-2.28907 1.55088,-2.61141 1.31526,-2.93168 1.73438,-4.32226 0.41912,-1.39059 0.89986,-3.14941 1.5039,-5.4961 1.20809,-4.69336 2.8969,-11.70558 5.26758,-21.97851 1.99046,-8.62532 2.37847,-16.524 3.59961,-23.24024 0.72904,-4.00971 2.89622,-9.37634 3.61523,-16.5664 0.77139,-7.71383 0.0508,-14.50925 0.0508,-20.27149 V 201.711 c 0.0744,-0.50088 0.12442,-0.98057 0.16015,-1.30469 0.17265,-1.56624 0.0498,-2.39429 -0.0566,-3.17383 -0.1064,-0.77953 -0.12176,-1.17633 -0.59375,-2.52344 -0.118,-0.33677 -0.23023,-0.72114 -0.70508,-1.58398 -0.23742,-0.43142 -0.52606,-0.99128 -1.36718,-1.91797 -0.42056,-0.46334 -0.98793,-1.03553 -1.96094,-1.66797 -0.48651,-0.31622 -1.08141,-0.64406 -1.81836,-0.93164 -0.73695,-0.28757 -2.62222,-0.63468 -2.62305,-0.63476 z m -5.90625,3.13867 c 0.51361,-0.0919 1.31421,-0.13352 2.76953,0.0996 1.52407,0.24413 4.11392,1.19977 5.94336,3.45312 1.82944,2.25335 2.23652,4.98141 2.16407,6.54688 -0.14491,3.13094 -0.88966,3.58076 -1.13868,4.00586 -0.24901,0.4251 -0.33489,0.5123 -0.4082,0.60547 -0.0367,0.0466 -0.0681,0.086 -0.10937,0.13476 -0.0206,0.0244 -0.0438,0.0496 -0.0703,0.0801 -0.003,0.004 -0.006,0.007 -0.01,0.0117 -0.003,0.004 -9.9199,-8.67113 -12.99024,-11.36133 0.64654,-1.18796 1.80336,-2.45252 3.84961,-3.57617 z m -13.39258,10.19336 c 0.37343,-0.12109 0.40946,-0.0402 -0.0254,0.0332 -0.008,0.001 -0.0368,0.007 -0.0449,0.008 0.0139,-0.005 0.0572,-0.0368 0.0703,-0.041 z m -17.57226,19.84765 c 0.22942,0.99241 0.42939,2.16587 0.70898,2.63086 0.89377,1.48644 0.26321,0.84846 -0.48242,-1.11718 -0.17006,-0.44833 -0.14651,-0.9996 -0.22656,-1.51368 z m 12.92578,76.74219 c -0.003,0.0224 -0.009,0.0668 -0.0117,0.0898 -0.003,-0.0505 0.0101,-0.047 0.0117,-0.0898 z M 240.47461,372.7793 c 0.0328,0.0586 0.0613,0.18432 0.0605,0.49023 -0.0121,-0.0967 -0.0557,-0.45252 -0.0605,-0.49023 z m 19.85742,197.51562 c -0.0165,0.0532 -0.028,0.10278 -0.043,0.1543 -0.002,-0.008 -0.008,-0.01 -0.01,-0.0176 0.023,-0.0564 0.0269,-0.0751 0.0527,-0.13672 z m -0.54883,1.44336 c -0.003,0.0441 -0.008,0.33536 -0.01,0.36328 -0.0293,-0.0412 -0.0305,-0.1347 0.01,-0.36328 z m 2.11524,1.43945 c -0.008,0.0318 -0.0301,0.26183 -0.043,0.30469 -0.0241,-0.028 -0.0323,-0.0275 -0.0566,-0.0566 0.0231,-6.8e-4 0.11834,-0.31941 0.0996,-0.24805 z m -0.23047,0.57422 c 0.0365,0.0246 0.10009,0.0842 0.13476,0.10742 -0.0967,0.33797 -0.18722,0.85637 -0.24609,1.76563 -0.1269,-1.17801 -0.0574,-1.54551 0.11133,-1.87305 z m 32.94531,12.54297 c 0.14451,0.42728 0.0851,0.51713 0.008,0.0449 -0.001,-0.008 -0.007,-0.0368 -0.008,-0.0449 z m -10.09766,13.00781 c -0.0124,0.0675 -0.0368,0.37036 -0.0586,0.47071 0.0186,-0.66842 0.13759,-0.90084 0.0586,-0.47071 z m 21.7168,4.46094 c 0.21231,1.97284 -0.44935,2.85709 -0.3418,2.44727 0.067,-0.25522 0.26021,-1.1869 0.3418,-2.44727 z m -18.04883,0.95703 c -0.0671,0.25561 -0.25858,1.18681 -0.33984,2.45117 -0.21386,-1.97599 0.44747,-2.86128 0.33984,-2.45117 z m 10.18164,7.65235 c 0.23664,-0.0782 0.0373,0.0999 -1.3125,0.27734 -0.0126,0.002 -0.0514,-0.007 -0.0645,-0.006 0.36451,-0.11215 1.27158,-0.23666 1.37695,-0.27148 z m -7.77148,0.75195 c 0.15485,0.10294 0.47115,0.36078 0.5332,0.40625 0.17755,0.13012 -0.0821,0.0273 -0.5332,-0.40625 z M 118.48047,858.19141 c -0.19066,-0.12386 0.30803,0.0289 1.00976,0.70312 -0.35822,-0.22161 -0.91645,-0.64251 -1.00976,-0.70312 z m -11.91406,16.06445 c 0.36266,0.22495 0.92353,0.64789 1.01757,0.70898 0.19116,0.12419 -0.31284,-0.03 -1.01757,-0.70898 z m 544.27148,59.29101 c -0.0935,0.0607 -0.65252,0.48079 -1.01172,0.70313 0.70256,-0.67557 1.20251,-0.82707 1.01172,-0.70313 z m 11.9082,16.06836 c -0.70256,0.67557 -1.20251,0.82707 -1.01172,0.70313 0.0935,-0.0607 0.65252,-0.48078 1.01172,-0.70313 z"
         id="path410" />
    </g>
  </g>
</svg>
