<?xml version="1.0" encoding="UTF-8" standalone="no"?>
<!-- Created with Inkscape (http://www.inkscape.org/) -->

<svg
   width="1000"
   height="1000"
   viewBox="0 0 1000 1000"
   version="1.1"
   id="svg1"
   xmlns:xlink="http://www.w3.org/1999/xlink"
   xmlns="http://www.w3.org/2000/svg"
   xmlns:svg="http://www.w3.org/2000/svg">
  <defs
     id="defs1">
    <pattern
       xlink:href="#pattern359"
       preserveAspectRatio="xMidYMid"
       id="pattern372"
       patternTransform="matrix(0.5,0,0,0.5,147.15462,1548.2922)" />
    <pattern
       xlink:href="#pattern357"
       preserveAspectRatio="xMidYMid"
       id="pattern371"
       patternTransform="matrix(0.5,0,0,0.5,221.32076,1552.4298)" />
    <pattern
       xlink:href="#pattern358"
       preserveAspectRatio="xMidYMid"
       id="pattern370"
       patternTransform="matrix(0.5,0,0,0.5,230.96346,1527.8214)" />
    <pattern
       xlink:href="#pattern355"
       preserveAspectRatio="xMidYMid"
       id="pattern369"
       patternTransform="matrix(0.5,0,0,0.5,287.08178,1553.6581)" />
    <pattern
       xlink:href="#pattern354"
       preserveAspectRatio="xMidYMid"
       id="pattern368"
       patternTransform="matrix(0.5,0,0,0.5,230.97274,1529.1717)" />
    <pattern
       xlink:href="#pattern342"
       preserveAspectRatio="xMidYMid"
       id="pattern360"
       patternTransform="matrix(0.5,0,0,0.5,210.45332,1525.5392)" />
    <pattern
       xlink:href="#pattern342"
       preserveAspectRatio="xMidYMid"
       id="pattern359"
       patternTransform="matrix(0.5,0,0,0.5,152.11125,1550.7705)" />
    <pattern
       xlink:href="#pattern342"
       preserveAspectRatio="xMidYMid"
       id="pattern358"
       patternTransform="matrix(0.5,0,0,0.5,202.11125,1533.2444)" />
    <pattern
       xlink:href="#pattern342"
       preserveAspectRatio="xMidYMid"
       id="pattern357"
       patternTransform="matrix(0.5,0,0,0.5,211.4075,1546.234)" />
    <pattern
       xlink:href="#pattern342"
       preserveAspectRatio="xMidYMid"
       id="pattern356"
       patternTransform="matrix(0.5,0,0,0.5,232.14929,1573.2544)" />
    <pattern
       xlink:href="#pattern342"
       preserveAspectRatio="xMidYMid"
       id="pattern355"
       patternTransform="matrix(0.5,0,0,0.5,275,1552.7287)" />
    <pattern
       xlink:href="#pattern342"
       preserveAspectRatio="xMidYMid"
       id="pattern354"
       patternTransform="matrix(0.5,0,0,0.5,235,1529.7913)" />
    <pattern
       xlink:href="#shading24"
       preserveAspectRatio="xMidYMid"
       id="pattern342"
       patternTransform="matrix(0.5,0,0,0.5,213.95332,1537.5392)"
       x="0"
       y="0" />
    <pattern
       patternUnits="userSpaceOnUse"
       width="338.5925"
       height="42.989567"
       patternTransform="translate(213.95332,1537.5392) scale(0.5)"
       preserveAspectRatio="xMidYMid"
       id="shading24"
       style="fill:#000000">
      <path
         style="fill-rule:nonzero;stroke:none;stroke-width:0.1;stroke-linecap:square;paint-order:markers fill stroke;stop-color:#000000"
         d="m 1806.4991,-758.06464 v 18.86792 c 55.9187,0 121.0493,0.59523 193.5686,3.15628 72.9408,2.57593 146.0589,6.87694 222.9288,13.47675 119.09,10.22471 223.0762,23.76065 340.6056,39.2177 117.5025,15.4535 222.0471,29.0563 341.8507,39.3312 77.366,6.63525 151.0001,10.96128 224.4674,13.55245 73.0344,2.5759 138.631,3.17493 194.9247,3.17493 -55.9642,0 -122.2215,-1.36594 -194.8324,-5.25394 -73.2143,-3.92032 -146.9676,-10.0663 -223.8166,-18.88656 -118.8791,-13.6442 -223.3242,-31.02113 -339.8009,-50.57815 -116.4705,-19.55598 -221.1862,-36.99475 -340.3724,-50.69165 -77.0605,-8.8558 -150.9942,-15.0266 -224.3694,-18.96225 -72.7637,-3.90286 -139.1256,-5.27261 -195.1541,-5.27261 z m 0,37.81515 v 18.86793 c 55.9187,0 121.0493,0.59523 193.5686,3.15627 72.9408,2.57593 146.0589,6.87694 222.9288,13.47676 119.09,10.22471 223.0762,23.76065 340.6056,39.2177 117.5025,15.4535 222.0471,29.0563 341.8507,39.33119 77.366,6.63526 151.0001,10.96128 224.4674,13.55245 73.0344,2.5759 138.631,3.17493 194.9247,3.17493 -55.9642,0 -122.2215,-1.36594 -194.8324,-5.25394 -73.2143,-3.92031 -146.9676,-10.0663 -223.8166,-18.88656 -118.8791,-13.6442 -223.3242,-31.02112 -339.8009,-50.57815 -116.4705,-19.55598 -221.1862,-36.99475 -340.3724,-50.69165 -77.0605,-8.8558 -150.9942,-15.02659 -224.3694,-18.96225 -72.7637,-3.90286 -139.1256,-5.2726 -195.1541,-5.2726 z m 0,37.81516 v 18.86792 c 55.9187,0 121.0493,0.59523 193.5686,3.15628 72.9408,2.57593 146.0589,6.87694 222.9288,13.47675 119.09,10.22471 223.0762,23.76065 340.6056,39.2177 117.5025,15.4535 222.0471,29.0563 341.8507,39.3312 77.366,6.63525 151.0001,10.96128 224.4674,13.55245 73.0344,2.5759 138.631,3.17493 194.9247,3.17493 -55.9642,0 -122.2215,-1.36594 -194.8324,-5.25394 -73.2143,-3.92032 -146.9676,-10.0663 -223.8166,-18.88656 -118.8791,-13.6442 -223.3242,-31.02113 -339.8009,-50.57815 -116.4705,-19.55598 -221.1862,-36.99475 -340.3724,-50.69165 -77.0605,-8.8558 -150.9942,-15.0266 -224.3694,-18.96225 -72.7637,-3.90286 -139.1256,-5.27261 -195.1541,-5.27261 z m 0,37.81515 v 18.86793 c 55.9187,0 121.0493,0.59523 193.5686,3.15627 72.9408,2.57593 146.0589,6.87694 222.9288,13.47676 119.09,10.22471 223.0762,23.76065 340.6056,39.2177 117.5025,15.4535 222.0471,29.0563 341.8507,39.33119 77.366,6.63526 151.0001,10.96128 224.4674,13.55245 73.0344,2.5759 138.631,3.17494 194.9247,3.17494 -55.9642,0 -122.2215,-1.36595 -194.8324,-5.25395 -73.2143,-3.92031 -146.9676,-10.0663 -223.8166,-18.88656 -118.8791,-13.6442 -223.3242,-31.02112 -339.8009,-50.57815 -116.4705,-19.55598 -221.1862,-36.99475 -340.3724,-50.69165 -77.0605,-8.8558 -150.9942,-15.02659 -224.3694,-18.96225 -72.7637,-3.90286 -139.1256,-5.2726 -195.1541,-5.2726 z m 0,37.81516 v 18.86792 c 55.9187,0 121.0493,0.59523 193.5686,3.15628 72.9408,2.57593 146.0589,6.87694 222.9288,13.47675 119.09,10.22471 223.0762,23.76065 340.6056,39.2177 117.5025,15.4535 222.0471,29.0563 341.8507,39.3312 77.366,6.63525 151.0001,10.96128 224.4674,13.55245 73.0344,2.5759 138.631,3.17493 194.9247,3.17493 -55.9642,0 -122.2215,-1.36594 -194.8324,-5.25394 -73.2143,-3.92032 -146.9676,-10.0663 -223.8166,-18.88656 -118.8791,-13.6442 -223.3242,-31.02113 -339.8009,-50.57815 -116.4705,-19.55598 -221.1862,-36.99475 -340.3724,-50.69165 -77.0605,-8.8558 -150.9942,-15.0266 -224.3694,-18.96225 -72.7637,-3.90286 -139.1256,-5.27261 -195.1541,-5.27261 z m 0,37.81515 v 18.86793 c 55.9187,0 121.0493,0.59523 193.5686,3.15627 72.9408,2.57593 146.0589,6.87694 222.9288,13.47676 119.09,10.22471 223.0762,23.76065 340.6056,39.2177 117.5025,15.4535 222.0471,29.0563 341.8507,39.33119 77.366,6.63526 151.0001,10.96128 224.4674,13.55245 73.0344,2.5759 138.631,3.17494 194.9247,3.17494 -55.9642,0 -122.2215,-1.36595 -194.8324,-5.25395 -73.2143,-3.92031 -146.9676,-10.0663 -223.8166,-18.88656 -118.8791,-13.6442 -223.3242,-31.02112 -339.8009,-50.57815 -116.4705,-19.55598 -221.1862,-36.99475 -340.3724,-50.69165 -77.0605,-8.8558 -150.9942,-15.02659 -224.3694,-18.96225 -72.7637,-3.90286 -139.1256,-5.2726 -195.1541,-5.2726 z m 0,37.81516 v 18.86792 c 55.9187,0 121.0493,0.59523 193.5686,3.15628 72.9408,2.57593 146.0589,6.87694 222.9288,13.47675 119.09,10.22471 223.0762,23.76065 340.6056,39.2177 117.5025,15.4535 222.0471,29.0563 341.8507,39.3312 77.366,6.63525 151.0001,10.96128 224.4674,13.55245 73.0344,2.5759 138.631,3.17493 194.9247,3.17493 -55.9642,0 -122.2215,-1.36594 -194.8324,-5.25394 -73.2143,-3.92032 -146.9676,-10.0663 -223.8166,-18.88656 -118.8791,-13.6442 -223.3242,-31.02113 -339.8009,-50.57815 -116.4705,-19.55598 -221.1862,-36.99475 -340.3724,-50.69165 -77.0605,-8.8558 -150.9942,-15.0266 -224.3694,-18.96225 -72.7637,-3.90286 -139.1256,-5.27261 -195.1541,-5.27261 z"
         id="use26"
         transform="matrix(0.22300099,0,0,0.37823052,-402.85121,237.25945)" />
    </pattern>
    <clipPath
       clipPathUnits="userSpaceOnUse"
       id="clipPath54">
      <path
         id="path336"
         style="stroke-width:0.0999999;stroke-linecap:square;paint-order:markers fill stroke;stop-color:#000000"
         d="m 1691.1994,-792.32001 h 1634.8919 v 92.82806 H 1691.1994 Z" />
    </clipPath>
    <clipPath
       clipPathUnits="userSpaceOnUse"
       id="clipPath33">
      <rect
         style="fill:#000000;stroke:none;stroke-width:0.999995;stroke-linecap:butt;stroke-linejoin:bevel;paint-order:stroke markers fill;stop-color:#000000"
         id="rect33"
         width="46.19186"
         height="80.006783"
         x="74.999985"
         y="399.99661" />
    </clipPath>
    <clipPath
       clipPathUnits="userSpaceOnUse"
       id="clipPath27">
      <rect
         style="fill:none;stroke:#000000;stroke-width:0.999999;stroke-linecap:butt;stroke-linejoin:bevel;paint-order:stroke markers fill;stop-color:#000000"
         id="rect28-6"
         width="46.160622"
         height="39.922417"
         x="86.574379"
         y="420.06253" />
    </clipPath>
    <clipPath
       clipPathUnits="userSpaceOnUse"
       id="clipPath25">
      <rect
         style="fill:#ff0000;stroke:none;stroke-width:3;stroke-linecap:square;stroke-linejoin:miter;paint-order:stroke markers fill;stop-color:#000000"
         id="rect25-8"
         width="78"
         height="45.033199"
         x="763.61322"
         y="452.82422" />
    </clipPath>
    <clipPath
       clipPathUnits="userSpaceOnUse"
       id="clipPath15">
      <rect
         style="fill:none;stroke:#000000;stroke-linecap:butt;stroke-linejoin:bevel;paint-order:stroke markers fill;stop-color:#000000"
         id="rect15-7"
         width="45.034248"
         height="38.955639"
         x="262.48285"
         y="121.00073" />
    </clipPath>
    <linearGradient
       id="swatch75">
      <stop
         style="stop-color:#000000;stop-opacity:1;"
         offset="0"
         id="stop75" />
    </linearGradient>
  </defs>
  <g
     id="layer51"
     style="display:inline">
    <g
       id="layer59"
       style="display:inline">
      <path
         style="baseline-shift:baseline;display:inline;overflow:visible;opacity:1;vector-effect:none;fill-rule:evenodd;enable-background:accumulate;stop-color:#000000;stop-opacity:1"
         d="m 254.90234,219.81641 -15.61718,12.49414 c 2.72626,3.40784 4.18012,4.87878 4.98828,5.9375 -0.0827,0.62098 -0.16992,0.68675 -0.16992,1.83593 v 3.50391 c 0,2.40887 -0.8018,6.53885 0.13476,12.1582 1.12016,6.72102 3.4113,9.94826 3.50586,10.51563 0.21584,1.29501 -0.13672,4.27022 -0.13672,8.87109 v 43.81055 120.91797 40.30469 c 0,5.91427 -0.54195,12.61865 0.0293,20.04492 0.94172,12.24239 1.63855,20.51932 2.16211,25.94726 0.26178,2.71398 0.47722,4.70444 0.67578,6.22071 0.0993,0.75813 0.19169,1.38712 0.31055,2.03515 0.11886,0.64803 -0.0594,0.8811 0.88281,2.99219 0.23554,0.52777 0.51231,1.22581 1.5,2.40625 0.0109,0.013 0.0454,0.0355 0.0566,0.0488 0.50654,7.09514 0.57324,6.77585 1.41406,19.80859 0.39603,6.13855 -0.0215,12.94582 -0.0215,20.38477 v 24.53515 c 0,4.42642 -0.18341,9.22557 0.008,14.38868 0.4235,11.43451 1.37888,22.50901 1.75,33.27148 0.18547,5.37874 -0.006,11.10849 -0.006,17.17969 v 22.78125 43.81054 19.27735 c 0,2.57932 0.0904,3.91968 0.0781,4.01758 -0.17709,1.41668 -1.25937,4.30681 -1.76954,8.89843 -0.35983,3.24018 -0.25131,4.83401 -0.10937,5.67188 -0.47023,0.79534 -0.99626,1.88933 -1.4043,3.52148 -0.5195,2.07803 -0.43896,3.41467 -0.33984,4.33594 -0.25664,0.33002 -0.86267,1.6141 -1.51758,4.88867 -0.74194,3.70971 -0.19336,5.60595 -0.19336,5.4668 v 8.58594 c -0.23933,0.37415 -0.46717,0.50073 -0.69726,0.96093 -1.46395,2.92789 -1.20408,5.41331 -1.09571,6.40821 0.10838,0.99489 0.0391,1.01504 0.0391,-0.1836 v 1.75391 4.92578 c -0.23315,0.37045 -0.46886,0.66234 -0.69531,1.11524 -1.46392,2.9279 -1.20407,5.41333 -1.0957,6.4082 0.10837,0.99487 0.0391,1.01502 0.0391,-0.1836 v 1.75391 7.00781 1.59571 c -2.10405,3.21717 -1.95535,6.74715 -1.77344,7.85156 0.21353,1.29637 0.0215,1.38136 0.0215,-0.68359 v 3.5039 10.51563 1.57617 c -0.23917,0.37396 -0.46732,0.50104 -0.69727,0.96094 -1.46394,2.92788 -1.20212,5.4133 -1.09375,6.4082 0.10838,0.99489 0.0391,1.01504 0.0391,-0.18359 v 1.75195 7.00976 c 0,-2.06491 0.19009,-1.98191 -0.0234,-0.68554 -0.18191,1.1044 -0.32865,4.63635 1.77539,7.85351 v 1.59375 h 1.13086 c 0.0196,0.0199 0.0251,0.0426 0.0449,0.0625 2.60323,2.60329 6.53181,3.15948 8.31055,3.00782 1.77873,-0.15166 2.41655,-0.47181 2.58398,-0.52344 0.16743,-0.0516 -0.13539,0.16516 -1.61133,0.29101 -1.47593,0.12586 -5.13448,-0.37862 -7.53125,-2.77539 -0.02,-0.02 -0.0252,-0.0425 -0.0449,-0.0625 h 17.11719 v -5.25586 c 0,2.06491 -0.19205,1.97996 0.0215,0.6836 0.18185,-1.104 0.328,-4.63146 -1.77343,-7.84766 v -3.17773 c 0.23868,-0.37338 0.46583,-0.50002 0.69531,-0.95899 1.46394,-2.92788 1.20408,-5.4133 1.0957,-6.4082 -0.10837,-0.9949 -0.0391,-1.01508 -0.0391,0.18359 v -3.5039 -10.35938 c 2.10288,-3.21673 1.95532,-6.74537 1.77344,-7.84961 -0.21354,-1.29639 -0.0215,-1.38142 -0.0215,0.6836 v -5.25782 -6.45898 c 0.45998,-0.72695 0.89181,-1.59928 1.24024,-2.64453 1.70273,-5.10828 0.51172,-7.60783 0.51171,-6.66797 v -5.08008 c 0.23934,-0.37415 0.46717,-0.50073 0.69727,-0.96094 1.464,-2.92794 1.20408,-5.4133 1.0957,-6.4082 -0.10837,-0.99489 -0.0391,-1.01507 -0.0391,0.18359 v -1.7539 -8.76172 c 0,-1.03101 0.008,-1.51226 0.006,-1.85938 0.2228,-0.22449 0.86887,-1.53183 1.55078,-4.9414 0.24878,-1.24387 0.28117,-2.21608 0.26172,-3 0.57157,-0.95458 1.20014,-2.23409 1.54883,-4.32617 0.86498,-5.18987 0.10214,-7.7845 0.0762,-7.55079 0.14767,-1.32907 1.17453,-4.13054 1.73633,-8.625 0.42248,-3.3799 0.0762,-5.57249 0.0762,-6.49804 v -19.27735 -43.81054 -22.78125 c 0,-5.6117 0.21129,-11.57195 -0.006,-17.86914 -0.39492,-11.45256 -1.35275,-22.54381 -1.75195,-33.32227 -0.1547,-4.17681 0.006,-8.72853 0.006,-13.64844 v -24.53515 c 0,-6.58053 0.48508,-13.82004 -0.0215,-21.67188 -1.90902,-29.58982 -2.74532,-41.42546 -3.30859,-46.03125 -0.0704,-0.57572 -0.10344,-0.96481 -0.30469,-1.86914 -0.10062,-0.45216 0.19822,-0.65806 -1.15234,-2.99805 -0.28709,-0.4974 -0.85115,-1.24591 -1.69141,-2.08984 -0.2134,-2.66901 -0.31434,-3.51803 -0.56055,-6.71875 -0.41438,-5.38705 0.0293,-11.57287 0.0293,-18.50976 V 439.86133 318.94336 275.13281 c 0,-2.40887 0.79985,-6.5408 -0.13672,-12.16015 -1.12016,-6.72102 -3.40934,-9.94631 -3.5039,-10.51368 -0.21584,-1.295 0.13672,-4.27022 0.13672,-8.87109 v -3.50391 c 0,0.6145 0.0607,-0.0208 0.23437,-1.61523 0.17368,-1.59445 0.43416,-4.66487 -1.29102,-8.11523 -2.92213,-5.84425 -6.68058,-8.70717 -8.14453,-10.53711 z m -0.57812,577.36132 c -0.0617,0.0452 -0.37576,0.3023 -0.5293,0.4043 0.45037,-0.43251 0.70669,-0.5343 0.5293,-0.4043 z m 12.35351,15.72657 c -0.45037,0.43251 -0.70668,0.5343 -0.52929,0.40429 0.0617,-0.0452 0.37575,-0.30229 0.52929,-0.40429 z m -1.86328,14.13086 c -0.5593,0.52656 -0.89315,0.66958 -0.61328,0.47656 0.0792,-0.0546 0.44172,-0.36514 0.61328,-0.47656 z m -15.74609,24.46679 c -0.0621,0.0455 -0.37815,0.30317 -0.5332,0.40625 0.45113,-0.43354 0.71075,-0.53637 0.5332,-0.40625 z m 12.35156,15.72852 c -0.45036,0.43249 -0.70668,0.5343 -0.5293,0.4043 0.0617,-0.0452 0.37576,-0.3023 0.5293,-0.4043 z"
         id="path413" />
      <path
         style="baseline-shift:baseline;display:inline;overflow:visible;opacity:1;vector-effect:none;fill-rule:evenodd;enable-background:accumulate;stop-color:#000000;stop-opacity:1"
         d="m 587.70117,180.88086 c -1.62883,0.0404 -3.01194,0.13477 -4.14062,0.13476 h -26.28711 -64.83985 -36.80078 c -20.16576,0 -36.33987,-0.68734 -57.26953,1.82422 -7.51941,0.90233 -13.18069,3.02117 -17.4375,3.49414 -7.30467,0.81166 -7.55537,0.46025 -10.30664,0.12696 -2.75127,-0.33329 -7.43705,-0.0558 -14.24414,1.98633 -4.35091,1.30526 -7.30562,2.9579 -9.30664,3.68554 -2.61276,0.9501 -6.45649,1.74865 -11.03516,3.71094 -5.30385,2.27308 -10.20768,4.87926 -14.86914,7.42187 -24.77526,13.51379 -19.91961,10.13257 -34.7539,22 l 12.49218,15.61719 c 15.14865,-12.1189 6.71968,-6.35774 31.83789,-20.05859 4.5121,-2.46115 8.87113,-4.75448 13.17188,-6.59766 2.21282,-0.94835 5.66091,-1.72381 9.99219,-3.29883 3.91162,-1.4224 6.54356,-2.82166 8.21875,-3.32421 5.84573,-1.75373 4.59364,-1.4686 6.09179,-1.28711 1.49816,0.18148 6.31186,0.85101 14.91993,-0.10547 7.58457,-0.84273 13.30136,-2.99648 17.61132,-3.51367 19.28697,-2.31444 34.28884,-1.68165 54.88672,-1.68165 h 36.80078 64.83985 26.28711 c 3.58407,0 6.18146,-0.20939 7.76757,-0.0508 0.96228,0.0962 3.82314,1.30459 8.85157,1.76172 4.69264,0.4266 8.51862,0.041 11.41992,0.041 2.48867,0 3.8741,-0.0915 4.15234,-0.0606 2.44884,0.27209 5.90153,1.23927 10.51563,1.75195 3.05048,0.33894 4.5106,0.34706 4.75,0.1875 1.00125,0.55677 3.23099,1.90101 7.94726,3.08008 5.74044,1.43509 8.01378,0.44644 6.26953,0.19727 2.10553,0.30079 6.54565,1.76977 10.51758,3.09375 2.12387,0.70796 3.71892,1.15358 4.70703,1.54883 -0.69287,-0.27715 0.50558,0.77138 4.05664,1.95507 2.091,0.697 3.06562,0.94452 3.97657,1.16211 0.53246,0.9569 1.33873,2.14147 2.6289,3.43164 4.06525,4.06523 6.94448,5.19252 7.00977,5.25782 2.60655,2.60655 2.69251,3.00761 3.61914,4.8789 0.92663,1.87129 2.60893,5.50809 6.07227,9.96094 2.7337,3.51478 5.73243,6.18107 8.39453,8.46289 2.05821,1.76419 3.58525,2.40233 4.35937,2.76953 1.6042,2.20848 2.23336,3.16009 2.70508,3.91016 -0.0422,1.2865 -0.0265,2.58542 0.19336,3.38476 1.10558,4.02031 2.49269,5.48939 5.13281,9.18555 3.14055,4.39678 5.6443,5.76436 5.58594,5.69141 -0.18904,-0.2363 -0.0969,-0.34369 0.18359,0.95312 0.28048,1.29681 0.55226,3.79375 1.84571,7.02735 2.25744,5.64358 5.23961,6.38219 3.96679,5.10937 2.31161,2.31161 2.81371,2.93626 2,1.58008 0.13936,0.23227 0.1715,0.23624 0.25977,0.35937 -0.13461,1.20086 -0.31441,3.54907 0.20312,6.6543 0.58696,3.52172 1.8609,6.34287 2.54493,7.81836 0.58936,1.27131 0.68098,1.57363 0.82812,2.32227 -0.007,0.12393 0.004,0.0957 -0.0176,0.29687 -0.11504,1.06162 -0.49359,3.31538 0.39844,6.4375 1.499,5.24653 3.69483,7.65316 3.92969,8.20117 0.86715,2.02336 2.4905,8.77971 2.75781,11.18555 0.0954,0.85889 -0.0625,2.83151 -0.0625,5.9043 0,2.4094 -0.27314,5.59756 0.0293,9.52929 0.43695,5.68048 1.48546,10.28871 1.74804,13.96485 0.18204,2.54838 -0.0254,5.82287 -0.0254,9.80273 v 10.51367 15.77344 c 0,2.57936 0.0904,3.9178 0.0781,4.01563 -0.20292,1.62334 -1.13386,4.42522 -1.72852,8.58789 -0.2034,1.42381 -0.20064,1.80463 -0.25976,2.5039 -0.29913,0.6759 -0.56764,1.2205 -1.08008,2.75782 -1.15512,3.46538 -1.4818,6.02907 -1.88086,7.42578 -0.12079,0.42278 -1.20025,2.3274 -1.94336,6.04297 -0.29861,1.49305 -0.55302,2.57213 -0.61328,3.96289 -0.13196,0.26076 -0.12728,0.23502 -0.27735,0.53515 -1.1175,2.23499 -1.45596,2.84168 -0.80859,1.97852 -0.22253,0.29671 -0.39467,0.33108 -2.09375,1.95508 -1.69908,1.62399 -4.22398,5.36986 -4.96875,9.09375 -0.10977,0.54884 -0.0276,0.80787 -0.0781,1.2832 -1.24841,0.86052 -2.9,2.13004 -4.31836,4.9668 -1.02205,2.04408 -1.54285,3.51506 -1.78321,4.42382 -1.02247,0.78983 -2.28039,1.94947 -3.47461,4.33789 -1.14904,2.29808 -1.62876,3.74756 -1.8164,4.59961 -1.51916,1.52136 -2.47616,2.49487 -2.82813,2.84571 -0.3751,0.3739 0.71663,-0.53794 0.85742,-0.62696 0.2816,-0.17802 -2.17569,1.32962 -7.53515,5.61719 -2.3698,1.89582 -2.83159,2.61761 -1.75195,1.75391 -1.7929,1.43432 -4.24127,3.04106 -7.00977,5.25586 -2.53238,2.02588 -2.94118,2.63897 -1.50586,1.5625 -0.52427,0.3932 -2.66569,1.32851 -5.6582,3.82226 -3.94269,3.28558 -5.99858,5.92807 -6.625,6.63477 -0.62642,0.7067 -0.4764,0.75046 -4.20117,2.8789 1.8017,-1.02954 -0.24843,-1.11055 -5.25782,1.75196 -4.29153,2.45229 -6.47027,4.86885 -7.5957,5.61914 1.01055,-0.6737 -2.45793,1.15494 -4.99805,2.17383 -1.27006,0.50944 -2.51187,0.98886 -3.48242,1.36132 -0.97055,0.37247 -0.43922,0.0587 -2.37695,0.93946 -4.52103,2.05501 -7.71024,4.12354 -10.0918,5.07617 -0.0907,0.0363 -2.34554,0.18029 -6.45703,1.55078 -5.43706,1.81235 -9.98697,3.91363 -14.01953,5.25781 -0.65881,0.21961 -3.22404,0.37017 -7.26563,1.83985 -9.33827,3.39573 -13.4047,4.86536 -15.51757,5.71289 -0.52822,0.21188 -0.45376,0.003 -2.17188,1.04297 -0.42953,0.26 -0.95933,0.26679 -2.57031,2.21289 -0.40275,0.48652 -0.8947,1.13814 -1.38281,2.19726 -0.0256,0.0556 -0.0236,0.17194 -0.0488,0.24024 -1.76755,0.67537 -4.09497,1.27579 -7.84375,2.52539 -1.75246,0.58415 -3.50542,1.16783 -5.25782,1.75195 -2.89564,0.96522 -6.8644,1.83145 -11.41406,3.85352 -5.09389,2.26395 -6.46454,4.02108 -5.13476,3.45117 -0.0603,0.0258 -2.05258,0.25414 -5.81836,1.33008 -2.82503,0.80714 -4.41612,1.53616 -4.93555,1.66601 -2.27436,0.56859 -5.0652,1.0021 -8.29687,1.64844 -1.57401,0.3148 -5.4778,0.10991 -10.74024,2.36523 -3.14986,1.34995 -4.42807,2.96374 -5.20703,4.13282 l -0.85742,0.32226 -0.30664,0.45313 c -1.85553,-0.66171 -4.82295,-1.54222 -9.96094,-0.0742 -4.90242,1.40068 -7.66327,3.17535 -8.88867,3.54297 l -2.28711,0.68554 -0.92774,0.88086 c -1.44497,-0.14111 -4.97212,-1.28382 -10.35742,0.0625 -5.3136,1.3284 -8.84465,3.24468 -10.25586,3.98243 -1.30747,0.68351 -1.13361,0.71223 -3.68164,0.97265 -6.43587,-0.004 -9.44229,-0.0462 -10.76953,-0.0762 -0.0336,-10e-4 -0.0856,-0.008 -0.11914,-0.01 -0.19913,-0.009 -0.33042,-0.003 -0.50195,-0.01 0.008,10e-4 0.0465,0.0143 0.0547,0.0156 -0.0555,-10e-4 -0.48931,-0.003 -0.53515,-0.004 0.006,-0.004 0.0196,-0.0133 0.0195,-0.0215 -0.34471,-0.008 -0.71221,-0.0278 -1.0918,-0.0215 -0.17859,0.003 0.18708,-0.11157 -1.33203,0.0996 -0.18989,0.0264 -0.42624,0.0574 -0.86523,0.1582 -0.43899,0.1008 -2.63417,1.01334 -2.63477,1.01367 -3e-5,2e-5 -0.17353,0.60042 -0.1914,0.66211 -0.0355,0.004 -0.0345,0.006 -0.0703,0.01 -0.61698,0.0686 -3.62934,-0.64301 -8.89843,0.0156 -5.81561,0.72695 -7.35936,1.98502 -5.1211,1.73633 -2.02001,0.22445 -5.16907,-0.0606 -9.41015,-0.0606 -1.47453,0 -5.25696,-1.02275 -10.93165,0.23829 -3.64267,0.80949 -5.723,2.42952 -6.83789,3.16406 -0.34063,0.22442 -0.40601,0.24635 -0.55859,0.32812 -0.26578,-0.0203 -2.09435,-0.22461 -6.20508,-0.22461 h -15.77344 c -4.18614,0 -5.90827,-0.0279 -6.68945,-0.0371 -0.19529,-0.002 -0.24466,-0.009 -0.67187,0 -0.10681,0.002 -0.23357,0.004 -0.53711,0.0254 -0.15177,0.0109 -0.34161,0.0238 -0.69727,0.0742 -0.17783,0.0252 -0.39705,0.0591 -0.71875,0.12891 -0.32169,0.0698 -1.43889,0.42557 -1.43945,0.42578 -1.1e-4,4e-5 -0.48054,0.31032 -0.71094,0.45899 -0.87709,0.14606 -1.78546,0.33358 -5.41016,0.73632 -0.85886,0.0954 -2.83346,-0.0605 -5.90625,-0.0605 h -21.02929 c -2.25737,0 -5.53147,-0.37381 -9.75781,0.0488 -4.83264,0.48327 -7.70555,1.63417 -8.8711,1.76368 -0.85889,0.0954 -2.83151,-0.0606 -5.9043,-0.0606 h -15.77148 c -0.80959,0 -3.07032,-0.41296 -6.67187,0.10156 -4.26816,0.60974 -6.59062,1.67884 -7.24024,1.78711 1.00968,-0.16827 0.40292,-0.13672 -1.86133,-0.13672 h -8.76172 v 20 h 8.76172 c 0.0723,0 1.83396,0.41763 5.14844,-0.13476 4.10183,-0.68363 6.28084,-1.64531 6.78125,-1.7168 -0.13191,0.0188 1.14848,0.0996 3.84375,0.0996 h 15.77148 c 1.60038,0 4.3276,0.36008 8.11329,-0.0606 4.75515,-0.52835 7.55741,-1.63269 8.65234,-1.74218 1.58609,-0.15861 4.18351,0.0508 7.76758,0.0508 h 21.02929 c 1.60038,0 4.3276,0.36008 8.11329,-0.0606 5.12867,-0.56985 7.50722,-0.8804 9.76367,-1.43555 0.23287,-0.0573 0.60041,-0.20495 0.85937,-0.27929 1.12815,0.0101 1.54664,0.0234 4.04492,0.0234 h 15.77344 c 1.47453,0 5.25501,1.02275 10.92969,-0.23828 3.64269,-0.80948 5.723,-2.42952 6.83789,-3.16406 0.34063,-0.22442 0.40601,-0.24635 0.55859,-0.32813 0.2657,0.0203 2.09623,0.22461 6.20704,0.22461 2.76865,0 6.67228,0.48911 11.61914,-0.0605 4.43259,-0.49251 6.45967,-1.39353 6.28906,-1.69922 1.11956,0.10512 3.44804,0.42309 7.73047,-0.0527 3.04464,-0.33829 5.1483,-0.62007 6.81445,-0.91601 0.83307,-0.14797 1.53593,-0.2848 2.42773,-0.54102 0.47273,-0.13581 0.94301,0.0709 1.79297,-0.27343 1.96109,0.0129 2.11345,0.0391 5.38477,0.0391 h 0.49805 l 0.49609,-0.0508 c 5.12756,-0.51276 9.20567,-2.07426 11.36133,-3.20118 2.15566,-1.12691 2.2999,-1.41921 5.84179,-2.30468 -0.86508,0.21627 0.44994,0.17567 3.83594,0.4707 2.8153,0.24531 7.82435,-0.25026 12.10938,-2.9043 3.70785,-1.28786 6.16026,-2.62503 7.1582,-2.91015 -2.31474,0.66135 -1.2689,0.32551 2.625,1.05664 1.94695,0.36556 4.83882,0.74609 8.25,-0.26172 2.31786,-0.6848 4.40671,-2.22516 6.24023,-3.99219 1.58637,-0.98213 2.40382,-1.8579 3.04493,-2.72656 0.86358,-0.12594 1.98048,-0.22266 5.33984,-0.89453 2.60976,-0.52196 5.72166,-0.9812 9.22656,-1.85742 3.06474,-0.76619 4.85085,-1.6301 5.57813,-1.83789 0.86586,-0.24739 3.83587,-0.30607 8.20312,-2.17774 5.2015,-2.22923 6.62354,-4.10981 5.37891,-3.55664 2.20242,-0.97885 5.50116,-1.78489 9.61523,-3.15625 1.75249,-0.58415 3.50542,-1.16978 5.25782,-1.75391 2.61045,-0.87015 6.83325,-1.55139 11.82421,-4.04687 3.29963,-1.64981 5.54915,-2.85642 7.33204,-3.95703 0.89144,-0.55031 1.65121,-1.03717 2.59961,-1.83594 0.5471,-0.46079 1.47575,-0.83201 2.33398,-2.07812 2.27836,-0.83444 2.22731,-0.8332 5.95703,-2.18946 0.48537,-0.1765 2.84293,-0.3604 6.75391,-1.66406 5.43706,-1.81235 9.98697,-3.91363 14.01953,-5.25781 v 0.002 c 0.4583,-0.15277 3.17881,-0.20239 7.56055,-1.95508 4.89501,-1.95801 8.32582,-4.25144 10.93945,-5.43945 -1.64586,0.74813 0.2613,-0.0865 1.26758,-0.47266 1.00627,-0.38617 2.34232,-0.90252 3.76367,-1.47265 2.8427,-1.14026 5.21497,-1.80738 8.64453,-4.09375 3.73495,-2.48996 5.64356,-4.45062 6.42383,-4.89649 -1.80171,1.02955 0.24843,1.11055 5.25781,-1.75195 4.62809,-2.64462 7.52219,-5.03366 9.24609,-6.97852 1.72391,-1.94485 1.62373,-2.17276 4.46094,-4.53711 0.24349,-0.2029 2.00988,-1.05135 4.85547,-3.18554 2.7571,-2.0678 3.24222,-2.93908 2,-1.94532 1.7929,-1.43431 4.24126,-3.04105 7.00977,-5.25585 2.36979,-1.89583 2.83158,-2.61761 1.75195,-1.75391 5.05492,-4.04393 4.48031,-3.54094 5.72851,-4.33008 0.62411,-0.39457 1.97243,-1.51341 2.57422,-2.11328 0.6018,-0.59987 1.37887,-1.39645 3.03711,-3.05469 -0.9066,0.9066 1.36993,0.15866 3.625,-4.35156 1.02167,-2.04333 1.54272,-3.51496 1.78321,-4.42383 1.02247,-0.78982 2.28039,-1.95142 3.47461,-4.33984 0.81361,-1.62722 1.12358,-2.60466 1.41992,-3.52149 1.79209,-0.7849 4.00842,-2.07743 5.58984,-5.24023 1.61917,-3.23836 1.42652,-5.71988 1.20508,-7.33984 0.82854,-0.74114 1.89961,-1.78803 3.10742,-3.39844 2.21479,-2.95306 2.64647,-4.93161 2.69727,-5.03321 0.9691,-1.9382 1.40858,-2.74176 1.55468,-3.0039 0.0365,-0.0655 0.0491,-0.0867 0.0918,-0.16211 0.0213,-0.0377 0.0398,-0.0656 0.15039,-0.27344 0.0553,-0.10391 0.1213,-0.2058 0.33203,-0.68555 0.10537,-0.23987 0.50568,-1.44266 0.50586,-1.44335 1e-4,-3.5e-4 0.33984,-2.49589 0.33985,-2.4961 0,-2e-5 -0.30887,-0.67425 -0.38282,-0.83594 0.008,-0.25234 -0.0408,-0.30992 0.0215,-0.62109 -0.0186,0.0929 0.66835,-1.34118 1.5625,-4.4707 0.92428,-3.23494 1.25491,-5.48933 1.62304,-6.59375 -0.64306,1.92919 0.72174,0.73798 1.9668,-4.24219 1.29343,-5.17374 0.53101,-6.83814 0.19922,-4.51563 0.2478,-1.73459 1.23943,-4.6497 1.77539,-8.9375 0.42251,-3.37997 0.0762,-5.57057 0.0762,-6.49609 V 380.27677 369.7631 c 0,-3.02987 0.29202,-6.78302 -0.0254,-11.22656 -0.4085,-5.71898 -1.47041,-10.3634 -1.75586,-14.07422 -0.14558,-1.89251 0.0293,-4.56406 0.0293,-7.99609 0,-1.60038 0.36008,-4.32759 -0.0606,-8.11328 -0.55554,-4.99995 -1.84307,-11.23477 -4.25195,-16.85547 -1.45974,-3.40608 -2.38687,-4.84855 -2.75,-5.32618 0.12527,-0.91156 0.30284,-2.33529 -0.082,-4.64453 -0.58696,-3.52172 -1.8609,-6.34481 -2.54492,-7.82031 -0.68403,-1.4755 -0.77913,-1.60442 -0.96094,-2.69531 -0.26223,-1.57341 -0.11624,-0.0963 0.11133,-2.90039 0.22757,-2.80411 -1.02466,-7.56909 -3.15235,-11.11524 -2.41836,-4.03059 -4.69129,-5.22825 -4.89062,-5.34179 -0.14519,-0.638 -0.2233,-0.92479 -0.52344,-2.3125 -0.49687,-2.29731 -1.44773,-5.88438 -4.11523,-9.21875 -3.15475,-3.94344 -5.18731,-5.18567 -4.92774,-4.82227 -0.49477,-0.69268 -0.61226,-0.97755 -0.94336,-1.52148 10e-4,-0.019 0.0128,-0.0396 0.0137,-0.0586 0.15791,-3.2843 -0.74515,-4.86839 -1.42382,-6.27148 -1.35734,-2.80619 -3.11884,-5.29062 -6.54688,-9.86133 -2.19491,-2.92654 -4.65778,-4.10572 -5.91211,-4.75391 -1.25433,-0.64818 -1.49902,-0.9121 -0.83594,-0.34375 -2.35544,-2.01894 -4.30163,-3.85516 -5.625,-5.55664 -2.37662,-3.05565 -2.69482,-4.04711 -3.9375,-6.55664 -1.24267,-2.50952 -3.49489,-6.24099 -7.40039,-10.14648 -3.62967,-3.62965 -6.00007,-4.73499 -6.58007,-5.01563 -0.0655,-0.1203 -0.0542,-0.072 -0.13672,-0.24414 -0.59542,-1.24156 -1.78784,-4.14891 -5.32032,-6.5039 -5.26946,-3.51297 -8.81829,-3.34716 -9.25195,-3.05469 -0.43635,-0.26493 -1.4236,-0.74523 -3.0957,-1.41406 -2.44211,-0.97685 -4.4276,-1.49474 -5.8086,-1.95508 h -0.002 c -3.51794,-1.17265 -8.41761,-3.11854 -14.01367,-3.91797 -3.35149,-0.47878 -4.9431,-0.47532 -5.1543,-0.27539 -1.05221,-0.58887 -3.24664,-1.87953 -7.85351,-3.03125 -5.53986,-1.38497 -7.92078,-0.38529 -6.58008,-0.23633 -2.44886,-0.2721 -5.89955,-1.24123 -10.51367,-1.75391 -3.20518,-0.35614 -5.34512,-0.0605 -6.36133,-0.0605 -4.10842,0 -7.32106,0.24904 -9.60938,0.041 -0.90423,-0.0822 -3.70659,-1.24761 -8.67187,-1.74414 -2.11318,-0.21131 -3.98835,-0.22401 -5.61719,-0.18359 z m 133.9961,78.36328 c -0.11443,0.20762 -0.17109,0.43837 -0.30665,0.63477 -1.79937,2.60696 -3.08369,2.90426 -1.86718,2.01953 0.50625,-0.36819 1.37214,-1.48145 2.17383,-2.6543 z m 15.73046,163.69922 c 1.71499,-0.0273 3.59312,0.76547 5.25977,1.76562 -2.2276,-0.44623 -7.05396,-1.4115 -7.49609,-1.5 0.67481,-0.11526 1.29926,-0.25069 2.23632,-0.26562 z m -2.76953,0.32812 c -0.40368,0.19927 -2.43335,1.19906 -2.43359,1.19922 -5.1e-4,3.6e-4 -1.03812,0.83569 -1.27149,1.05664 0.43429,-0.52327 1.05001,-1.682 3.70508,-2.25586 z m 10.39649,3.1836 c 0.0483,0.0554 0.15823,0.0948 0.20312,0.15039 1.53066,1.89671 1.78186,3.29161 1.94922,4.14062 0.0948,0.48072 0.0403,0.3023 0.0898,0.60938 -0.66929,-1.46333 -1.57578,-3.44353 -2.24218,-4.90039 z m 0.45312,12.75781 c 0.0477,-0.0558 0.0838,-0.0942 -0.041,0.0488 -0.0363,0.0416 -0.19869,0.20845 -0.29883,0.3164 0.11372,-0.12493 0.29131,-0.30844 0.33984,-0.36523 z m -31.1582,15.31055 c 0.276,-0.26248 0.33403,-0.20065 -0.0117,0.0527 -0.009,0.006 -0.0414,0.0323 -0.0508,0.0391 0.0144,-0.0143 0.0491,-0.0791 0.0625,-0.0918 z m 11.86328,16.14648 c -0.31096,0.30848 -0.41327,0.30472 -0.0508,0.0391 0.009,-0.006 0.0414,-0.0323 0.0508,-0.0391 z m -203.21875,84.13867 c -0.0115,0.0189 -0.0498,0.0665 -0.0606,0.084 -0.005,-0.002 -0.0127,-0.002 -0.0176,-0.004 0.053,-0.064 -1.3e-4,-10e-4 0.0781,-0.0801 z m -59.9082,10.91407 c 0.57689,-0.18232 0.74649,0.12481 0.875,0.0879 0.25701,-0.0738 0.0379,-0.006 -0.40039,0.0723 -0.14868,0.0264 -0.73342,0.0908 -0.9375,0.12305 0.14158,-0.0758 0.35322,-0.24855 0.46289,-0.2832 z m 76.17187,0.7207 c 0.27674,-0.40547 0.25362,-0.20491 -0.16992,0.23047 0.0301,-0.0473 0.14446,-0.19316 0.16992,-0.23047 z M 390.875,572.52539 c 0.0874,0.0357 0.016,-0.005 0.11523,0.0371 0.014,0.006 0.048,0.0276 0.0645,0.0352 -0.0483,-0.0137 -0.13527,-0.0609 -0.17969,-0.0723 z m -11.16797,3.5918 c -0.39434,1.66088 -1.14255,4.80577 -1.64062,6.90429 -0.17447,-1.78454 -0.0259,-3.64188 0.57617,-5.01171 0.36825,-0.8378 0.7132,-1.32111 1.06445,-1.89258 z m -0.47266,10.98437 c 0.2798,0.373 0.29353,0.39014 0.57227,0.76172 -0.17484,-0.2384 -0.32712,-0.31805 -0.50586,-0.60547 -0.0268,-0.043 -0.0403,-0.11155 -0.0664,-0.15625 z"
         id="path414" />
    </g>
  </g>
</svg>
