<?xml version="1.0" encoding="UTF-8" standalone="no"?>
<!-- Created with Inkscape (http://www.inkscape.org/) -->

<svg
   width="1000"
   height="1000"
   viewBox="0 0 1000 1000"
   version="1.1"
   id="svg1"
   xmlns:xlink="http://www.w3.org/1999/xlink"
   xmlns="http://www.w3.org/2000/svg"
   xmlns:svg="http://www.w3.org/2000/svg">
  <defs
     id="defs1">
    <pattern
       xlink:href="#pattern359"
       preserveAspectRatio="xMidYMid"
       id="pattern372"
       patternTransform="matrix(0.5,0,0,0.5,147.15462,1548.2922)" />
    <pattern
       xlink:href="#pattern357"
       preserveAspectRatio="xMidYMid"
       id="pattern371"
       patternTransform="matrix(0.5,0,0,0.5,221.32076,1552.4298)" />
    <pattern
       xlink:href="#pattern358"
       preserveAspectRatio="xMidYMid"
       id="pattern370"
       patternTransform="matrix(0.5,0,0,0.5,230.96346,1527.8214)" />
    <pattern
       xlink:href="#pattern355"
       preserveAspectRatio="xMidYMid"
       id="pattern369"
       patternTransform="matrix(0.5,0,0,0.5,287.08178,1553.6581)" />
    <pattern
       xlink:href="#pattern354"
       preserveAspectRatio="xMidYMid"
       id="pattern368"
       patternTransform="matrix(0.5,0,0,0.5,230.97274,1529.1717)" />
    <pattern
       xlink:href="#pattern342"
       preserveAspectRatio="xMidYMid"
       id="pattern360"
       patternTransform="matrix(0.5,0,0,0.5,210.45332,1525.5392)" />
    <pattern
       xlink:href="#pattern342"
       preserveAspectRatio="xMidYMid"
       id="pattern359"
       patternTransform="matrix(0.5,0,0,0.5,152.11125,1550.7705)" />
    <pattern
       xlink:href="#pattern342"
       preserveAspectRatio="xMidYMid"
       id="pattern358"
       patternTransform="matrix(0.5,0,0,0.5,202.11125,1533.2444)" />
    <pattern
       xlink:href="#pattern342"
       preserveAspectRatio="xMidYMid"
       id="pattern357"
       patternTransform="matrix(0.5,0,0,0.5,211.4075,1546.234)" />
    <pattern
       xlink:href="#pattern342"
       preserveAspectRatio="xMidYMid"
       id="pattern356"
       patternTransform="matrix(0.5,0,0,0.5,232.14929,1573.2544)" />
    <pattern
       xlink:href="#pattern342"
       preserveAspectRatio="xMidYMid"
       id="pattern355"
       patternTransform="matrix(0.5,0,0,0.5,275,1552.7287)" />
    <pattern
       xlink:href="#pattern342"
       preserveAspectRatio="xMidYMid"
       id="pattern354"
       patternTransform="matrix(0.5,0,0,0.5,235,1529.7913)" />
    <pattern
       xlink:href="#shading24"
       preserveAspectRatio="xMidYMid"
       id="pattern342"
       patternTransform="matrix(0.5,0,0,0.5,213.95332,1537.5392)"
       x="0"
       y="0" />
    <pattern
       patternUnits="userSpaceOnUse"
       width="338.5925"
       height="42.989567"
       patternTransform="translate(213.95332,1537.5392) scale(0.5)"
       preserveAspectRatio="xMidYMid"
       id="shading24"
       style="fill:#000000">
      <path
         style="fill-rule:nonzero;stroke:none;stroke-width:0.1;stroke-linecap:square;paint-order:markers fill stroke;stop-color:#000000"
         d="m 1806.4991,-758.06464 v 18.86792 c 55.9187,0 121.0493,0.59523 193.5686,3.15628 72.9408,2.57593 146.0589,6.87694 222.9288,13.47675 119.09,10.22471 223.0762,23.76065 340.6056,39.2177 117.5025,15.4535 222.0471,29.0563 341.8507,39.3312 77.366,6.63525 151.0001,10.96128 224.4674,13.55245 73.0344,2.5759 138.631,3.17493 194.9247,3.17493 -55.9642,0 -122.2215,-1.36594 -194.8324,-5.25394 -73.2143,-3.92032 -146.9676,-10.0663 -223.8166,-18.88656 -118.8791,-13.6442 -223.3242,-31.02113 -339.8009,-50.57815 -116.4705,-19.55598 -221.1862,-36.99475 -340.3724,-50.69165 -77.0605,-8.8558 -150.9942,-15.0266 -224.3694,-18.96225 -72.7637,-3.90286 -139.1256,-5.27261 -195.1541,-5.27261 z m 0,37.81515 v 18.86793 c 55.9187,0 121.0493,0.59523 193.5686,3.15627 72.9408,2.57593 146.0589,6.87694 222.9288,13.47676 119.09,10.22471 223.0762,23.76065 340.6056,39.2177 117.5025,15.4535 222.0471,29.0563 341.8507,39.33119 77.366,6.63526 151.0001,10.96128 224.4674,13.55245 73.0344,2.5759 138.631,3.17493 194.9247,3.17493 -55.9642,0 -122.2215,-1.36594 -194.8324,-5.25394 -73.2143,-3.92031 -146.9676,-10.0663 -223.8166,-18.88656 -118.8791,-13.6442 -223.3242,-31.02112 -339.8009,-50.57815 -116.4705,-19.55598 -221.1862,-36.99475 -340.3724,-50.69165 -77.0605,-8.8558 -150.9942,-15.02659 -224.3694,-18.96225 -72.7637,-3.90286 -139.1256,-5.2726 -195.1541,-5.2726 z m 0,37.81516 v 18.86792 c 55.9187,0 121.0493,0.59523 193.5686,3.15628 72.9408,2.57593 146.0589,6.87694 222.9288,13.47675 119.09,10.22471 223.0762,23.76065 340.6056,39.2177 117.5025,15.4535 222.0471,29.0563 341.8507,39.3312 77.366,6.63525 151.0001,10.96128 224.4674,13.55245 73.0344,2.5759 138.631,3.17493 194.9247,3.17493 -55.9642,0 -122.2215,-1.36594 -194.8324,-5.25394 -73.2143,-3.92032 -146.9676,-10.0663 -223.8166,-18.88656 -118.8791,-13.6442 -223.3242,-31.02113 -339.8009,-50.57815 -116.4705,-19.55598 -221.1862,-36.99475 -340.3724,-50.69165 -77.0605,-8.8558 -150.9942,-15.0266 -224.3694,-18.96225 -72.7637,-3.90286 -139.1256,-5.27261 -195.1541,-5.27261 z m 0,37.81515 v 18.86793 c 55.9187,0 121.0493,0.59523 193.5686,3.15627 72.9408,2.57593 146.0589,6.87694 222.9288,13.47676 119.09,10.22471 223.0762,23.76065 340.6056,39.2177 117.5025,15.4535 222.0471,29.0563 341.8507,39.33119 77.366,6.63526 151.0001,10.96128 224.4674,13.55245 73.0344,2.5759 138.631,3.17494 194.9247,3.17494 -55.9642,0 -122.2215,-1.36595 -194.8324,-5.25395 -73.2143,-3.92031 -146.9676,-10.0663 -223.8166,-18.88656 -118.8791,-13.6442 -223.3242,-31.02112 -339.8009,-50.57815 -116.4705,-19.55598 -221.1862,-36.99475 -340.3724,-50.69165 -77.0605,-8.8558 -150.9942,-15.02659 -224.3694,-18.96225 -72.7637,-3.90286 -139.1256,-5.2726 -195.1541,-5.2726 z m 0,37.81516 v 18.86792 c 55.9187,0 121.0493,0.59523 193.5686,3.15628 72.9408,2.57593 146.0589,6.87694 222.9288,13.47675 119.09,10.22471 223.0762,23.76065 340.6056,39.2177 117.5025,15.4535 222.0471,29.0563 341.8507,39.3312 77.366,6.63525 151.0001,10.96128 224.4674,13.55245 73.0344,2.5759 138.631,3.17493 194.9247,3.17493 -55.9642,0 -122.2215,-1.36594 -194.8324,-5.25394 -73.2143,-3.92032 -146.9676,-10.0663 -223.8166,-18.88656 -118.8791,-13.6442 -223.3242,-31.02113 -339.8009,-50.57815 -116.4705,-19.55598 -221.1862,-36.99475 -340.3724,-50.69165 -77.0605,-8.8558 -150.9942,-15.0266 -224.3694,-18.96225 -72.7637,-3.90286 -139.1256,-5.27261 -195.1541,-5.27261 z m 0,37.81515 v 18.86793 c 55.9187,0 121.0493,0.59523 193.5686,3.15627 72.9408,2.57593 146.0589,6.87694 222.9288,13.47676 119.09,10.22471 223.0762,23.76065 340.6056,39.2177 117.5025,15.4535 222.0471,29.0563 341.8507,39.33119 77.366,6.63526 151.0001,10.96128 224.4674,13.55245 73.0344,2.5759 138.631,3.17494 194.9247,3.17494 -55.9642,0 -122.2215,-1.36595 -194.8324,-5.25395 -73.2143,-3.92031 -146.9676,-10.0663 -223.8166,-18.88656 -118.8791,-13.6442 -223.3242,-31.02112 -339.8009,-50.57815 -116.4705,-19.55598 -221.1862,-36.99475 -340.3724,-50.69165 -77.0605,-8.8558 -150.9942,-15.02659 -224.3694,-18.96225 -72.7637,-3.90286 -139.1256,-5.2726 -195.1541,-5.2726 z m 0,37.81516 v 18.86792 c 55.9187,0 121.0493,0.59523 193.5686,3.15628 72.9408,2.57593 146.0589,6.87694 222.9288,13.47675 119.09,10.22471 223.0762,23.76065 340.6056,39.2177 117.5025,15.4535 222.0471,29.0563 341.8507,39.3312 77.366,6.63525 151.0001,10.96128 224.4674,13.55245 73.0344,2.5759 138.631,3.17493 194.9247,3.17493 -55.9642,0 -122.2215,-1.36594 -194.8324,-5.25394 -73.2143,-3.92032 -146.9676,-10.0663 -223.8166,-18.88656 -118.8791,-13.6442 -223.3242,-31.02113 -339.8009,-50.57815 -116.4705,-19.55598 -221.1862,-36.99475 -340.3724,-50.69165 -77.0605,-8.8558 -150.9942,-15.0266 -224.3694,-18.96225 -72.7637,-3.90286 -139.1256,-5.27261 -195.1541,-5.27261 z"
         id="use26"
         transform="matrix(0.22300099,0,0,0.37823052,-402.85121,237.25945)" />
    </pattern>
    <clipPath
       clipPathUnits="userSpaceOnUse"
       id="clipPath54">
      <path
         id="path336"
         style="stroke-width:0.0999999;stroke-linecap:square;paint-order:markers fill stroke;stop-color:#000000"
         d="m 1691.1994,-792.32001 h 1634.8919 v 92.82806 H 1691.1994 Z" />
    </clipPath>
    <clipPath
       clipPathUnits="userSpaceOnUse"
       id="clipPath33">
      <rect
         style="fill:#000000;stroke:none;stroke-width:0.999995;stroke-linecap:butt;stroke-linejoin:bevel;paint-order:stroke markers fill;stop-color:#000000"
         id="rect33"
         width="46.19186"
         height="80.006783"
         x="74.999985"
         y="399.99661" />
    </clipPath>
    <clipPath
       clipPathUnits="userSpaceOnUse"
       id="clipPath27">
      <rect
         style="fill:none;stroke:#000000;stroke-width:0.999999;stroke-linecap:butt;stroke-linejoin:bevel;paint-order:stroke markers fill;stop-color:#000000"
         id="rect28-6"
         width="46.160622"
         height="39.922417"
         x="86.574379"
         y="420.06253" />
    </clipPath>
    <clipPath
       clipPathUnits="userSpaceOnUse"
       id="clipPath25">
      <rect
         style="fill:#ff0000;stroke:none;stroke-width:3;stroke-linecap:square;stroke-linejoin:miter;paint-order:stroke markers fill;stop-color:#000000"
         id="rect25-8"
         width="78"
         height="45.033199"
         x="763.61322"
         y="452.82422" />
    </clipPath>
    <clipPath
       clipPathUnits="userSpaceOnUse"
       id="clipPath15">
      <rect
         style="fill:none;stroke:#000000;stroke-linecap:butt;stroke-linejoin:bevel;paint-order:stroke markers fill;stop-color:#000000"
         id="rect15-7"
         width="45.034248"
         height="38.955639"
         x="262.48285"
         y="121.00073" />
    </clipPath>
    <linearGradient
       id="swatch75">
      <stop
         style="stop-color:#000000;stop-opacity:1;"
         offset="0"
         id="stop75" />
    </linearGradient>
  </defs>
  <g
     id="layer51"
     style="display:inline">
    <g
       id="layer67"
       style="display:inline">
      <path
         style="baseline-shift:baseline;display:inline;overflow:visible;opacity:1;vector-effect:none;fill-rule:evenodd;enable-background:accumulate;stop-color:#000000;stop-opacity:1"
         d="m 252.36133,244.66992 -18.97266,6.32422 c 0.4376,1.3128 0.76068,4.69733 3.22266,9.12891 2.77902,5.0022 5.54713,6.12314 5.06054,5.58789 2.98086,3.27893 5.80893,6.36515 8.26368,9.43359 1.6185,2.02313 3.40213,5.04465 6.07812,8.52344 2.4925,3.24025 4.75322,5.51145 6.12305,7.33789 4.19514,5.59352 6.27882,8.50738 7.14453,9.79883 0.43285,0.64572 0.54162,0.87972 0.40039,0.60351 -0.14123,-0.2762 -0.5283,-1.38542 -0.38086,-0.91406 0.14745,0.47136 0.7529,1.94188 1.24805,2.78711 0.49514,0.84523 0.98616,1.5561 1.71484,2.57422 1.45737,2.03624 3.8931,5.26459 8.54688,11.28711 4.04854,5.23929 8.08093,9.41425 10.97851,13.39844 2.70001,3.71251 5.2432,8.22312 8.29883,13.07617 4.21283,6.69097 8.4263,13.14515 12.25,19.59765 1.9732,3.32978 3.79304,8.63779 7.92383,14.375 5.52241,7.67002 11.5498,12.52362 14.74414,17.16993 3.79551,5.52073 6.64523,13.68659 12.3125,22.1875 5.95031,8.92547 12.73881,15.72398 17.47656,22.49218 8.82725,12.61035 11.04091,16.11846 13.55078,19.98828 0.0688,1.44174 0.35571,2.27717 0.52149,2.73438 0.23866,0.65821 0.3991,0.95537 0.52539,1.20117 0.25257,0.4916 0.38446,0.6913 0.50586,0.88477 0.48557,0.77388 0.79466,1.1865 1.38086,1.99804 2.34477,3.24617 8.05242,10.87785 20.88086,27.98243 8.49616,11.32822 14.06936,18.71108 17.52539,23.24218 1.31342,1.722 2.07407,2.6961 2.83593,3.67383 5.81504,8.05782 7.81688,10.90006 21.6836,29.9668 6.38552,8.78008 10.61257,14.55623 13.29101,18.17773 1.33923,1.81076 2.28627,3.07652 2.95703,3.95508 0.33539,0.43928 0.59281,0.76985 0.86133,1.10156 0.13426,0.16586 0.25632,0.31935 0.50391,0.59571 0.0186,0.0208 0.07,0.0715 0.0898,0.0937 4.80144,6.82449 7.94553,11.31199 20.63477,29.25195 4.42934,6.26218 8.85706,11.56552 12.0039,16.75781 4.12826,6.81163 7.62965,14.83536 12.16407,23.14844 3.35414,6.14928 6.85876,11.84968 9.95117,17.41601 5.90354,10.62639 9.94224,19.82788 18.03906,30.81641 3.60672,4.89484 7.07148,7.72814 8.66016,9.89453 2.93854,4.00711 2.6509,3.85481 3.3125,5.4961 0.6616,1.64128 2.58719,5.16524 6.02539,8.94726 3.86078,4.24687 6.97664,6.45252 8.00976,7.86133 0.6062,0.82662 1.52154,4.13398 4.38282,9.03906 2.00006,3.42866 3.7264,5.00172 4.03515,5.46485 -0.10183,-0.15276 0.0392,0.0539 0.27539,0.64453 -0.46116,-1.15289 -0.67862,1.22815 2.20313,5.55078 1.76465,2.64695 3.13229,3.91512 3.82422,4.38086 0.2524,0.41889 0.4268,0.72791 0.94726,1.51562 0.10139,0.57285 0.0316,0.95207 0.25782,1.63086 0.55883,1.67654 1.35532,2.84518 2.11718,3.72071 0.19781,0.79138 0.44068,1.61962 0.9043,2.54687 1.0767,2.15335 2.12365,3.38044 2.76758,3.93555 0.69461,2.34664 1.33476,3.27821 2.44922,5.22851 1.55979,2.72964 2.67195,4.09556 3.1914,4.54297 0.13136,1.15034 0.37826,2.94124 1.76563,5.36914 1.56897,2.74571 3.27445,3.94849 4.11133,4.58399 0.10813,0.31556 0.44207,1.313 1.40429,3.8789 -0.52865,-1.40975 -1.04809,1.65181 2.79297,6.45313 1.15814,1.44769 2.30609,2.34526 3.26367,2.94531 0.18137,0.49498 0.25286,0.86508 0.5586,1.47656 1.62601,3.25197 3.17882,4.38688 3.375,4.28321 0.40329,0.4358 1.18545,1.11951 2.33398,1.9082 0.3552,0.8676 0.63346,1.70984 1.42969,2.77148 1.05053,1.4007 2.13496,2.23559 3.14062,2.85743 10e-4,0.002 4.8e-4,10e-4 0.002,0.004 0.90272,1.50453 1.90708,3.04213 3.05468,4.57227 v 0.002 c 2.0475,2.72994 2.58481,3.0336 1.23829,1.23828 0.10298,0.13732 0.7873,1.61157 2.66992,3.96485 0.8995,1.12438 1.2947,1.53456 1.71875,1.98632 0.13675,0.7808 0.96766,2.72879 3.36328,5.60352 1.12342,1.3481 2.20736,2.1736 3.12109,2.74805 0.18338,0.50535 0.25992,0.88896 0.57422,1.51757 2.14684,4.29361 4.19087,4.91548 3.11328,3.83789 -0.25362,-0.25362 0.33274,0.68609 2.3086,2.16797 1.09905,0.82429 1.64826,1.19 2.1582,1.52539 0.16831,0.36617 0.29116,0.85565 0.47266,1.13672 1.90776,2.95454 2.94967,3.14028 4.01953,3.85352 1.01203,0.67469 1.47876,0.90518 1.99218,1.17969 0.14186,0.31975 1.07838,1.42085 3.36524,2.79296 2.04483,1.22691 2.6998,1.4156 3.49609,1.74805 0.37127,0.28575 0.67028,0.51299 1.84571,1.39453 2.24555,1.68418 3.49812,2.30905 3.4707,2.28711 -0.23752,-0.19001 0.3076,0.39354 1.6543,1.74024 l 1.23828,1.24023 c -0.31721,-0.31721 0.62953,1.71756 4.40429,3.98242 0.86835,0.52101 1.47073,0.67604 2.1543,0.9336 0.60012,0.9565 1.4945,2.0999 2.93945,3.25586 1.88445,1.50755 3.43422,2.0223 4.64258,2.32812 0.81856,0.92925 2.13407,2.23346 4.63867,3.06836 0.17241,0.0575 0.24834,0.0179 0.41407,0.0664 0.91334,1.29324 1.97875,2.4806 3.23242,3.10742 0.32246,0.16123 0.56728,0.17991 0.87305,0.30664 0.0988,0.10443 0.14011,0.19285 0.24609,0.29883 0.45473,0.45474 0.98221,0.7737 1.5,1.10937 0.3526,0.47533 0.46321,0.8558 0.97656,1.36914 0.36825,0.36825 0.77634,0.53756 1.16406,0.82422 0.049,0.0753 0.0147,0.0514 0.0664,0.12891 1.77448,2.66169 2.99972,3.27511 2.48828,2.76367 -0.51144,-0.51144 0.10198,0.7138 2.76367,2.48828 1.23986,0.82657 1.95329,1.21215 2.43946,1.44727 0.61083,0.53997 1.26309,1.11204 2.35156,1.65625 3.34798,1.674 4.93589,1.78028 4.25,1.48632 1.01108,0.43333 1.80421,0.86659 2.62305,1.30079 0.86482,0.92698 2.12963,1.97057 4.34961,2.71093 0.88507,0.29503 1.5802,0.42298 2.27929,0.5586 0.17588,0.0893 0.3537,0.138 0.53125,0.21679 1.15231,1.18883 2.65588,2.3202 4.49805,2.91993 3.71176,1.20838 4.64781,0.53515 4.5293,0.53515 2.56354,0 3.05032,-0.36758 2.28906,-0.24219 -0.72225,0.11897 -4.49855,0.36655 -7.60742,-2.32031 0.58818,0.0528 1.34938,0.24805 1.76172,0.21289 1.8414,-0.15701 2.54838,-0.49925 2.78515,-0.57226 0.23677,-0.073 0.003,0.12364 -1.41015,0.24414 -0.81452,0.0695 -2.35811,-0.12168 -3.96875,-0.69922 -0.0327,-0.0371 -0.0502,-0.076 -0.082,-0.11328 0.37225,-0.10447 0.49025,-0.22656 0.0352,-0.22656 2.56354,0 3.05227,-0.36758 2.29102,-0.24219 -0.32872,0.0541 -1.47366,0.0717 -2.72071,-0.0879 -1.28119,-1.76039 -1.71526,-3.31598 -1.81836,-4.71289 h 19.64258 c 0.15585,-1.73772 0.15134,-5.27239 -2.88672,-8.31055 -1.10853,-1.10849 -2.31188,-1.73508 -3.5,-2.19141 -0.0819,-0.0895 -0.13274,-0.20111 -0.21875,-0.28711 -1.2101,-1.2101 -2.69775,-1.94572 -4.13476,-2.41601 -2.09718,-1.36091 -3.90304,-1.67064 -5.46485,-1.68555 -2.04159,-1.20531 -4.04974,-2.17143 -5.92382,-2.97461 -1.29107,-0.55331 -2.02852,-0.80245 -2.61719,-0.98828 -0.27944,-0.22152 -0.37573,-0.38265 -0.73047,-0.61914 -1.18773,-0.79183 -1.84069,-1.13764 -2.33789,-1.38477 -0.0449,-0.0464 -0.0343,-0.04 -0.0742,-0.082 -0.0373,-0.11601 0.10511,0.10279 -0.38672,-0.88086 l -2.76367,-5.52929 h -2.19727 c -0.1237,-0.10321 -0.25508,-0.18771 -0.38281,-0.28321 -0.69106,-1.00017 -1.57665,-2.03678 -3.00976,-2.99218 -0.40386,-0.26924 -0.75785,-0.3378 -1.14844,-0.54102 -0.94644,-1.07825 -1.46214,-1.27951 -1.13477,-0.83984 -0.71024,-0.86857 -2.17451,-2.54255 -5.05859,-3.50391 -0.32591,-0.10863 -0.48133,-0.0475 -0.7832,-0.125 -0.68234,-0.54964 -1.55463,-1.15621 -2.86329,-1.81055 -0.61161,-0.3058 -0.9815,-0.37721 -1.47656,-0.55859 -0.60004,-0.95756 -1.49765,-2.10358 -2.94531,-3.26172 -1.94247,-1.55397 -3.50099,-2.06078 -4.71289,-2.34375 -0.25808,-0.24572 -0.27212,-0.25063 -0.6582,-0.63672 l -1.24024,-1.24023 c -0.30551,-0.30551 -1.2387,-1.56519 -3.30078,-3.21485 -2.35328,-1.88263 -3.82756,-2.56695 -3.96484,-2.66992 2.34432,1.7582 1.97836,0.62882 -2.09375,-1.81445 -2.37978,-1.42787 -3.4115,-1.76072 -4.06836,-2.03516 -0.11732,-0.11046 -0.059,-0.0336 -0.20313,-0.17773 0.51144,0.51144 -0.1,-0.71377 -2.76172,-2.48828 -0.49298,-0.32865 -0.59411,-0.34383 -0.9707,-0.57422 -0.79017,-1.29695 -1.59833,-2.26825 -2.46289,-3.13281 -2.53761,-2.53761 -3.98562,-3.18178 -4.37891,-3.25391 -0.31015,-1.20655 -0.83081,-2.73822 -2.31836,-4.59766 -1.32777,-1.65973 -2.54994,-2.53607 -3.57617,-3.12304 -0.3598,-0.77106 -0.90731,-1.81115 -2.10742,-3.61133 -2.50344,-3.75513 -4.00095,-4.44114 -2.99023,-3.17774 0.0219,0.0274 -0.60296,-1.22515 -2.28711,-3.4707 -2.0475,-2.72994 -2.5848,-3.03555 -1.23829,-1.24023 -0.63953,-0.85272 -1.27456,-1.81178 -1.90429,-2.86133 1.14583,1.90976 1.23973,-0.42238 -2.74219,-4.4043 -0.48329,-0.48328 -0.92191,-0.7904 -1.36914,-1.13281 -0.35513,-0.86357 -0.62881,-1.69911 -1.41992,-2.75391 -1.45328,-1.93773 -2.9159,-2.82502 -4.15235,-3.40234 -0.33965,-1.17886 -0.88914,-2.59777 -2.23437,-4.2793 -1.11844,-1.39805 -2.21479,-2.24288 -3.15234,-2.84375 -0.12636,-0.31534 -0.10047,-0.21646 -0.25,-0.61523 -0.46899,-1.25062 -1.00596,-4.21579 -3.36133,-7.98438 -1.18351,-1.89363 -2.25998,-2.86467 -3.1211,-3.55273 -0.14842,-1.0554 -0.4284,-2.40954 -1.37109,-4.29492 -2.13739,-4.2748 -3.76274,-5.56744 -3.80078,-5.31446 -0.0912,-0.88702 -0.29171,-1.54363 -0.4375,-2.02343 -1.11365,-3.66505 -1.56791,-3.36748 -2.58203,-4.88868 -0.35518,-0.53274 -0.54014,-0.65329 -0.8418,-1.02929 -0.19242,-0.86667 -0.49226,-1.81266 -1.01172,-2.85156 -0.65449,-1.30899 -1.26276,-2.18287 -1.8125,-2.86524 -0.0775,-0.30185 -0.0164,-0.45732 -0.125,-0.7832 -0.55247,-1.65734 -1.33366,-2.81385 -2.08008,-3.67969 -0.31713,-0.64724 -0.84194,-1.57832 -2.07617,-3.12109 -1.30787,-1.63486 -2.18339,-2.55069 -2.76367,-3.07813 -0.20697,-0.52534 -0.2942,-0.76774 -0.7168,-1.82422 -0.4498,-1.1245 -1.07665,-2.62079 -2.20312,-4.31054 v -0.002 c -1.98247,-2.97367 -3.31919,-4.30806 -3.40039,-4.44726 -0.86176,-1.47732 -1.76595,-5.65725 -5.5293,-10.78907 -3.80306,-5.18599 -7.69949,-7.68193 -9.33984,-9.48632 -2.655,-2.9205 -1.7708,-1.71892 -2.27539,-2.97071 -0.5046,-1.25178 -2.08269,-4.86808 -5.73438,-9.84765 -3.60444,-4.91515 -7.08497,-7.75678 -8.6875,-9.93164 -6.79554,-9.22251 -10.30157,-17.22563 -16.65625,-28.66407 -3.37663,-6.07792 -6.85254,-11.73452 -9.87695,-17.27929 -3.95911,-7.25835 -7.55221,-15.58224 -12.61719,-23.93946 -4.21969,-6.96249 -9.00122,-12.59803 -12.7793,-17.93945 -13.44109,-19.00292 -17.15063,-24.29297 -21.81445,-30.92578 -0.43324,-0.64826 -0.96223,-1.42462 -1.59961,-2.3457 -1.33532,-1.92969 -3.04867,-4.36895 -4.58203,-6.53907 -1.53336,-2.17011 -2.84846,-4.01754 -3.50391,-4.91992 -0.16386,-0.22559 -0.0907,-0.15765 -0.56054,-0.74414 -0.0587,-0.0733 -0.1261,-0.16024 -0.30274,-0.36133 -0.12212,-0.13903 -0.94454,-0.80957 -1.57812,-1.33203 -1.70611,-2.33752 -2.35469,-3.20302 -4.55078,-6.22265 -12.39388,-17.04159 -13.465,-18.59675 -19.29883,-26.66993 -0.0859,-0.10539 -0.34716,-0.72912 -0.41211,-0.83398 -0.15496,-0.25019 -0.26994,-0.42586 -0.39649,-0.61523 -0.25308,-0.37875 -0.53193,-0.78131 -0.86718,-1.25977 -0.6705,-0.95692 -1.55185,-2.19246 -2.57813,-3.61719 -2.05255,-2.84945 -4.66887,-6.438 -7.08984,-9.73633 -2.42098,-3.29832 -4.62629,-6.27703 -5.92383,-7.99609 -0.32438,-0.42976 -0.58766,-0.77667 -0.82617,-1.08203 -0.11926,-0.15268 -0.22066,-0.28288 -0.39649,-0.49414 -0.0879,-0.10563 -0.17604,-0.21621 -0.42968,-0.48828 -0.12683,-0.13604 -0.26804,-0.30029 -0.6836,-0.66992 -0.0646,-0.0575 -0.59599,-0.25643 -0.84765,-0.38282 -1.08597,-1.44608 -1.26768,-1.67201 -2.46875,-3.27343 -9.93586,-13.24781 -12.99804,-17.37871 -16.01563,-21.45899 -0.0624,-0.25082 -0.12313,-0.55101 -0.17578,-0.74609 -0.74769,-2.77018 -1.13471,-2.82965 -1.69922,-3.80664 -2.25801,-3.90796 -7.18015,-11.22946 -19.0918,-28.2461 -6.06519,-8.66455 -12.71958,-15.36842 -17.21875,-22.11718 -3.76848,-5.65274 -6.6312,-13.92719 -12.47265,-22.42383 -5.43539,-7.90601 -11.61605,-12.8336 -14.99414,-17.52539 -1.91737,-2.66303 -3.64347,-7.31156 -6.94727,-12.88672 -4.12254,-6.9568 -8.44113,-13.55746 -12.5332,-20.05664 -2.68336,-4.26179 -5.41358,-9.18513 -9.04883,-14.1836 -4.00821,-5.51131 -8.19562,-9.81197 -11.32617,-13.86328 -4.60011,-5.95306 -6.99456,-9.14159 -8.10938,-10.69922 -0.49253,-0.68816 -0.63533,-0.92217 -0.63672,-0.91992 -0.16451,-0.43019 -0.19225,-0.58131 -0.40234,-0.99219 -0.47021,-0.91961 -0.93554,-1.65286 -1.59375,-2.63476 -1.31641,-1.96381 -3.47919,-4.95728 -7.75781,-10.66211 -2.50143,-3.33524 -4.82813,-5.65742 -6.26953,-7.53125 -1.65687,-2.15393 -3.4936,-5.29817 -6.31446,-8.82422 -3.03107,-3.78884 -6.15572,-7.17363 -9.08203,-10.39258 -2.64261,-2.90687 -3.19208,-3.44607 -2.41601,-1.98633 -0.0911,-0.21825 -0.50805,-2.04559 -1.69336,-5.60156 z m 339.08984,493.82031 c -0.32275,-0.23566 -0.0613,-0.0929 0.42383,0.35938 -0.10849,-0.0772 -0.36005,-0.31281 -0.42383,-0.35938 z m -15.21289,8.4375 c -0.0117,0.0761 -0.0531,0.48169 -0.0898,0.66407 0.0124,-0.6259 0.12339,-0.88168 0.0898,-0.66407 z m 16.48633,2.33985 c 0.44305,0.0609 0.16404,0.34193 -0.39649,0.33203 -0.37674,-0.007 -1.413,0.1908 -2.32617,0.35351 1.14523,-0.33957 2.41553,-0.72778 2.72266,-0.68554 z m 3.36914,0.0449 c -0.0125,0.625 -0.12337,0.87957 -0.0898,0.66211 0.0117,-0.0758 0.0533,-0.4806 0.0898,-0.66211 z m -17.27539,2.01758 c -0.0233,0.10957 -0.12148,0.804 -0.21875,1.21875 0.0184,-0.9774 0.26608,-1.44161 0.21875,-1.21875 z m 19.78125,2.9375 c -0.0184,0.97738 -0.26609,1.43967 -0.21875,1.21679 0.0232,-0.10941 0.12163,-0.80312 0.21875,-1.21679 z m 13.51953,24.77929 c 0.0156,0.01 0.0613,0.0632 0.0781,0.0742 -0.0234,-0.0105 -0.10246,-0.0508 -0.12305,-0.0605 -0.34839,-0.16442 -0.28405,-0.22085 0.0449,-0.0137 z m 14.1582,17.59375 c 0.15831,0.49362 0.11977,0.66388 0.0606,0.31641 -0.008,-0.0481 -0.0519,-0.25012 -0.0606,-0.31641 z m -22.86132,0.44532 c 0.0236,0.0106 0.10233,0.0527 0.12304,0.0625 0.36514,0.17233 0.24816,0.18165 -0.12304,-0.0625 z m 3.20703,3.23047 c 0.008,0.0484 0.0518,0.25157 0.0605,0.31836 -0.15832,-0.49366 -0.11976,-0.66583 -0.0605,-0.31836 z m 8.24218,10.20703 c 0.16696,0.0427 0.56765,0.20341 0.6543,0.22851 0.35356,0.10244 0.0182,0.0836 -0.6543,-0.22851 z m 39.30274,22.86328 c 0.0457,0.46634 0.19388,0.95666 0.16015,1.38086 -0.15876,1.99678 -0.62216,2.72296 -0.48437,2.33594 0.14536,-0.40829 0.32593,-1.97782 0.32422,-3.7168 z m 25.1914,16.60156 c 0.0161,-4.8e-4 0.0615,0.014 0.0781,0.0137 -0.18238,0.0367 -0.58801,0.0781 -0.66406,0.0899 -0.21184,0.0326 -0.003,-0.0858 0.58593,-0.10352 z m 4.66407,3.64844 c 0.1278,-0.008 0.34763,0.0412 0.49609,0.043 -0.52859,0.11238 -1.38321,0.20989 -1.5293,0.24414 -0.28749,0.0674 0.0873,-0.2265 1.03321,-0.28711 z m -21.44336,5.03125 c 0.01,0.0206 0.05,0.0996 0.0605,0.12305 -0.24462,-0.37173 -0.23297,-0.4884 -0.0605,-0.12305 z m 33.96289,2.83789 c 0.333,0.7221 0.35706,1.08562 0.24609,0.6875 -0.0256,-0.0917 -0.20178,-0.51347 -0.24609,-0.6875 z m 2.37305,2.27734 c 0.26128,0.5467 0.27084,0.80554 0.19531,0.57032 -0.0227,-0.0708 -0.15482,-0.41925 -0.19531,-0.57032 z m -17.09571,6.07617 c 0.21716,-0.0335 -0.0352,0.077 -0.6582,0.0898 0.1799,-0.0363 0.58281,-0.0782 0.6582,-0.0898 z m -1.75,0.60743 c 0.0226,0.0703 0.15336,0.41702 0.19336,0.5664 -0.25974,-0.54451 -0.26875,-0.80121 -0.19336,-0.5664 z m 37.20313,4.29492 c 0.0308,0.004 0.11696,0.0316 0.15234,0.0371 -0.23631,0.022 -0.76855,-0.0415 -0.91406,-0.0176 -0.95486,0.15728 -0.27221,0.0315 0.76172,-0.0195 z m -25.89453,3.84375 c 0.27845,-0.0234 0.86707,0.0466 1.03125,0.0195 1.20455,-0.19841 1.18955,0.0234 -0.96094,0.0234 z m 33.56054,3.22461 c 0.0551,0.23956 0.0931,0.43857 0.125,0.65429 -0.002,-0.17062 -0.10821,-0.45927 -0.125,-0.65429 z m 0.13867,0.88086 c 0.23819,2.08243 -0.4631,3.04786 -0.37109,2.69726 0.0655,-0.2496 0.34049,-1.02983 0.37109,-2.69726 z m -25.05859,3.56445 c 0.055,0.077 0.35659,0.40909 0.46875,0.57031 -0.50368,-0.53767 -0.67052,-0.85286 -0.46875,-0.57031 z"
         id="path425" />
      <path
         style="baseline-shift:baseline;display:inline;overflow:visible;opacity:1;vector-effect:none;fill-rule:evenodd;enable-background:accumulate;stop-color:#000000;stop-opacity:1"
         d="m 777.16406,235.49219 c -0.9245,3.69804 -1.53118,6.85395 -2.3125,9.32812 -3.8198,12.09604 -8.66517,22.04706 -14.44531,34.82422 -4.47206,9.8856 -9.03909,19.76581 -13.60352,29.68164 -27.11948,58.91475 -12.79687,32.36198 -40.38476,78.3418 -9.89186,16.48644 -19.91913,32.96397 -29.77149,49.61914 -7.75526,13.11007 -14.43355,26.22005 -22.0957,38.07812 -8.99979,13.92827 -19.55296,27.40896 -29.5625,41.86719 -13.68393,19.76568 -20.26462,29.39384 -23.4707,34.20508 -1.60304,2.40562 -2.26929,3.39595 -2.96875,4.66602 -0.17487,0.31751 -0.35984,0.636 -0.6543,1.36718 -0.064,0.15893 -0.23051,0.49124 -0.36914,0.6836 -0.46656,0.71333 -0.79255,1.22663 -2.07422,3.10547 -3.70298,5.42828 -11.25055,16.31328 -26.20312,37.72265 -30.59918,43.81245 -15.41957,21.7899 -40.69336,55.48828 -3.52351,4.69802 -6.73297,9.3358 -9.94922,13.67774 -4.84221,6.53699 -9.8857,13.0857 -14.875,19.83593 -2.38999,3.23351 -4.26684,6.17505 -6.06641,8.50391 -4.69334,6.07373 -9.76192,12.13173 -14.79883,18.49414 -2.92176,3.69066 -5.90231,7.45048 -8.83398,11.35938 -7.53387,10.04515 -7.66228,11.92413 -16.62891,21.45117 -1.42184,1.51071 -4.50238,3.48237 -8.24609,7.00586 -4.67899,4.40375 -8.58352,8.78327 -12.41602,12.41406 -2.85265,2.70252 -7.19944,5.65189 -11.58398,10.34961 -3.9472,4.22914 -5.4862,7.79711 -6.56836,9.0957 -0.7427,0.89124 -3.15464,2.60286 -6.14648,6.13867 -3.45414,4.08215 -5.52586,7.68511 -7.39454,9.86524 0.63129,-0.73651 -0.65636,0.67326 -1.82421,1.83789 -1.16786,1.16463 -2.67462,2.65246 -4.20508,4.16211 -3.06093,3.0193 -5.73187,5.58195 -7.38086,7.38086 -2.98236,3.25348 -5.3129,6.31641 -7.4961,8.74219 -0.25921,0.28801 -1.85223,1.4205 -4.02343,4.07421 -3.42991,4.1921 -5.13336,7.32746 -6.50196,8.81446 -0.12228,0.0704 -0.14177,0.0957 -0.44726,0.23633 -1.05309,0.48494 -3.22924,1.27686 -5.69922,3.54101 -4.642,4.25516 -7.029,8.25361 -8.98828,10.21289 -4.40878,4.40878 -4.93347,4.42292 -3.68945,3.83594 1.24402,-0.58698 -2.71646,1.05052 -6.53125,4.01758 -2.73339,2.12596 -5.37808,4.33846 -7.93946,6.61523 -1.57249,1.39778 -2.54223,2.48219 -3.43945,3.41797 -1.99705,1.28288 -4.40777,2.65721 -7.20899,4.83594 l -0.49023,0.38281 -0.44141,0.43945 c -1.41938,1.41939 -2.04947,2.07405 -2.60156,2.64454 -0.99295,0.60498 -1.9871,1.30069 -3.6289,2.52929 -0.37075,0.14296 -0.68673,0.19004 -1.08399,0.38867 -0.71133,0.35567 -1.26145,0.63691 -1.82226,0.94922 -0.56082,0.31231 -0.81515,0.12453 -2.67774,1.93164 -0.16893,0.16391 -0.47016,0.6669 -0.68359,0.90235 -0.15132,0.0605 -0.31332,0.12191 -0.43946,0.17578 -0.91361,0.16027 -1.91135,0.42638 -3.05078,0.99609 -1.46372,0.73187 -2.35618,1.52996 -3.09179,2.25586 -0.22026,0.0954 -0.39607,0.10819 -0.625,0.22266 -0.48651,0.24325 -0.6223,0.47703 -1.00782,0.72851 -1.42648,0.47715 -2.90423,1.21865 -4.07031,2.38477 -0.21575,0.21575 -0.33926,0.47873 -0.52734,0.71094 -0.23221,0.18807 -0.49519,0.3116 -0.71094,0.52734 -0.22476,0.22476 -0.35406,0.49966 -0.54883,0.74219 -1.64906,1.20673 -3.46467,2.88339 -4.32226,5.51758 -1.20842,3.71176 -0.53711,4.64778 -0.53711,4.52929 h 19.94922 c -0.0494,0.30385 -0.1101,0.61801 -0.29883,1.25977 -0.37925,-0.0582 -0.94066,-0.1208 -0.93164,-0.11914 0.01,0.002 0.53079,0.10248 0.91601,0.18554 -0.0528,0.17628 -0.0141,0.13333 -0.0801,0.33594 -0.22021,0.67641 -0.54957,1.26993 -0.90039,1.81446 -0.94887,0.2623 -1.79021,0.39978 -2.41211,0.38281 0.55183,0.0889 1.0282,0.0845 1.91407,-0.01 -1.59945,0.74282 -3.24493,1.10304 -4.2461,1.09571 -1.59068,-0.0117 -2.10964,-0.2614 -2.14062,-0.26954 -0.0546,-0.0143 2.07007,1.27922 6.05078,-0.12109 -0.055,0.063 -0.10721,0.13539 -0.16211,0.19531 -2.16599,1.21876 -4.5922,1.51312 -5.75391,1.41407 -1.52025,-0.12963 -1.87033,-0.36268 -1.75195,-0.32618 0.11838,0.0365 0.70509,0.34236 2.43945,0.49024 0.89681,0.0765 2.37223,-0.0514 3.94141,-0.53125 -0.30188,0.23009 -0.78827,0.65292 -0.82227,0.66992 -1.0799,0.53995 -1.98092,0.81676 -2.78906,1.00195 1.88242,-0.16057 4.66868,-0.91749 6.62695,-2.875 0.21658,-0.21657 0.3406,-0.48169 0.5293,-0.71484 0.23174,-0.18777 0.4956,-0.31005 0.71094,-0.52539 0.0847,-0.0847 0.12668,-0.19188 0.20703,-0.2793 0.31551,-0.12726 0.57794,-0.15909 0.91211,-0.32617 1.39677,-0.69839 2.22055,-1.45031 2.94922,-2.15039 0.67796,-0.23985 1.01722,-0.39128 1.42773,-0.56641 0.91525,-0.15988 1.91438,-0.42888 3.05664,-1 0.4859,-0.24295 0.62071,-0.47734 1.00586,-0.72851 1.4271,-0.47705 2.90558,-1.21808 4.07227,-2.38477 0.44034,-0.44033 0.93541,-0.97435 1.46094,-1.70312 0.85774,-0.63953 1.49064,-1.12451 1.84765,-1.5586 0.77649,-0.55673 1.6646,-1.18603 1.58203,-1.13672 -0.0484,0.0289 -0.4352,0.22716 -0.9375,0.4375 1.89117,-0.73398 3.26699,-1.96361 3.60157,-2.29101 0.34857,-0.34111 0.44312,-0.44982 0.67187,-0.6875 0.36676,-0.38108 1.27041,-1.29968 2.3457,-2.38281 1.57835,-1.18318 3.75521,-2.47352 6.49024,-4.29688 l 0.82422,-0.55078 0.70117,-0.69922 c 1.51597,-1.51597 2.56447,-2.67037 3.28906,-3.31445 2.26099,-2.00977 4.57205,-3.94211 6.93164,-5.77735 2.81742,-2.19132 -0.10743,-0.35195 2.78516,-1.71679 2.89259,-1.36485 4.62925,-3.10972 9.29883,-7.7793 4.09042,-4.09042 6.31629,-7.56343 8.11328,-9.32227 0.13462,-0.0764 0.31735,-0.18738 0.79687,-0.4082 1.17519,-0.54116 3.49486,-1.43626 5.95899,-3.90039 4.45168,-4.45167 6.44263,-8.62043 8.10351,-10.65039 0.0482,-0.0589 1.32473,-1.0442 3.41016,-3.36133 2.91184,-3.23538 5.21084,-6.24457 7.375,-8.60547 0.017,-0.0185 3.6163,-3.63455 6.68164,-6.6582 1.53267,-1.51183 3.05337,-3.01185 4.2832,-4.23828 1.22983,-1.22643 1.7102,-1.61177 2.88672,-2.98438 3.50753,-4.09211 5.59454,-7.73672 7.47656,-9.96093 0.7814,-0.92347 3.24724,-2.65763 6.24414,-6.25391 3.46727,-4.16071 4.92258,-7.28786 5.82422,-8.25391 2.40291,-2.57454 6.34991,-5.33765 10.71875,-9.47656 4.64873,-4.40405 8.5387,-8.76585 12.36719,-12.36914 1.80249,-1.69645 5.30542,-3.82779 9.10352,-7.86328 9.84525,-10.46058 11.22016,-14.03249 18.06445,-23.1582 2.71975,-3.62634 5.59097,-7.25101 8.51562,-10.94532 4.813,-6.07957 9.93172,-12.19656 14.94141,-18.67968 2.54563,-3.29435 4.49216,-6.3644 6.32617,-8.84571 4.83128,-6.53644 9.87109,-13.07693 14.86328,-19.8164 3.47187,-4.68703 6.65872,-9.293 9.87696,-13.58399 25.07063,-33.42751 10.46735,-12.18652 41.09179,-56.03515 14.96568,-21.42813 22.5115,-32.31136 26.32813,-37.90625 1.90832,-2.79745 2.84144,-4.19434 3.50976,-5.28125 0.29341,-0.47716 0.58343,-0.81465 1.1543,-2.375 0.23488,-0.37271 0.4205,-0.6935 1.52149,-2.34571 3.02712,-4.54267 9.60997,-14.17686 23.27148,-33.91015 9.56004,-13.80895 20.25713,-27.44819 29.91602,-42.39649 8.40945,-13.01462 15.19167,-26.37235 22.51367,-38.75 9.76768,-16.51202 19.77239,-32.95591 29.70703,-49.51367 27.42131,-45.70218 14.44081,-21.69793 41.40234,-80.26953 4.5552,-9.89579 9.13901,-19.81335 13.65625,-29.79883 5.64448,-12.47726 10.96657,-23.33846 15.29492,-37.04492 1.27007,-4.02185 1.91684,-7.58921 2.64454,-10.5 z M 606.65039,551.29492 c 0.15704,-0.009 0.45815,0.0822 0.63477,0.084 -0.43044,0.0218 -0.97263,-0.0139 -1.27149,0.0293 0.22992,-0.0395 0.34729,-0.0966 0.63672,-0.11328 z m -1.20117,0.21289 c -0.80387,0.15872 -1.40936,0.33418 -1.64258,0.41992 -0.57238,0.21045 -0.54906,0.0645 1.07813,-0.32031 0.13003,-0.0308 0.4007,-0.0603 0.56445,-0.0996 z m 11.17187,6.81055 c 0.0369,0.10602 0.12952,0.22482 0.15821,0.32812 0.23124,0.83264 0.28274,1.36962 0.3789,1.98047 -0.0564,-0.6485 -0.25722,-1.44013 -0.53711,-2.30859 z m 0.6875,3.09766 c 0.17008,1.74178 -0.13117,2.35523 -0.45703,2.80273 0.18992,-0.55333 0.44208,-1.23682 0.45703,-2.80273 z m -18.06836,5.57617 c 0.29236,0.36977 0.55204,0.74802 0.88868,1.0957 -0.32254,-0.36157 -0.63106,-0.70621 -0.88868,-1.0957 z m 1.06446,1.26562 c 0.5759,0.57485 1.1984,1.10002 1.83593,1.54102 -0.19683,-0.12133 -0.37527,-0.16939 -0.57617,-0.31055 -0.50203,-0.35274 -0.8602,-0.80534 -1.25976,-1.23047 z m 2.67968,1.99805 c 0.36685,0.20332 0.73309,0.40344 1.0918,0.53125 -0.34846,-0.12446 -0.72262,-0.34716 -1.0918,-0.53125 z m 2.07813,0.78711 c 0.59866,0.13217 1.07593,0.17393 1.54102,0.20117 -0.50267,-0.0171 -0.93578,-0.0616 -1.54102,-0.20117 z M 327.14258,879.6543 c 1.03283,0.0348 1.56182,0.30238 1.45312,0.27929 -0.0779,-0.0165 -0.82297,-0.16372 -1.5039,-0.27343 0.0139,3.8e-4 0.037,-0.006 0.0508,-0.006 z m -6.32031,2.37695 c -0.17709,0.23147 -0.85374,0.85194 -0.85938,0.85937 -0.006,0.006 0.30568,-0.36783 0.85938,-0.85937 z m -1.98243,2.58984 c 0.72868,0.0524 1.00238,0.23198 0.80274,0.19532 -0.10321,-0.019 -0.73696,-0.0758 -1.12891,-0.14258 0.0749,0.002 0.25899,-0.0576 0.32617,-0.0527 z m -4.0039,2.14063 c -10e-4,0.003 -0.002,0.008 -0.004,0.0117 -0.0123,0.019 -0.089,0.11715 -0.0977,0.1289 -0.0199,0.0271 0.10096,-0.13025 0.10157,-0.14062 z m -0.10938,0.32812 c -9.5e-4,0.002 -9.9e-4,0.006 -0.002,0.008 -0.0105,-0.002 -0.0128,-0.002 -0.0234,-0.004 0.007,1.9e-4 0.0185,-0.004 0.0254,-0.004 z m -1.77148,1.12891 c 1.06023,0.12221 1.4612,0.52476 1.20312,0.45703 -0.2496,-0.0655 -1.0317,-0.3405 -2.69922,-0.37109 0.54978,-0.0629 1.1159,-0.12976 1.4961,-0.0859 z m -1.72266,0.0996 c -0.17062,0.002 -0.45927,0.10821 -0.6543,0.125 0.23942,-0.055 0.4387,-0.0931 0.6543,-0.125 z m -3.05469,1.3457 c -0.044,0.0662 -0.18474,0.23804 -0.21679,0.28321 -0.003,6e-4 -0.005,-6.2e-4 -0.008,0 -0.0871,0.0848 -0.0894,0.0397 0.22461,-0.28321 z m 22.49414,9.33008 c -0.0601,0.10926 -0.0401,0.11288 -0.3125,0.39844 0.0951,-0.13692 0.24724,-0.31076 0.29883,-0.39258 0.005,-0.002 0.009,-0.004 0.0137,-0.006 z m -6.23242,0.50195 c 0.0777,0.0165 0.82165,0.16568 1.49805,0.27539 -1.05688,-0.0297 -1.60806,-0.29875 -1.49805,-0.27539 z m -0.79101,1.39453 c 0.15951,-0.0273 0.95554,0.0645 1.01172,0.0625 0.13935,-0.005 0.006,0.0344 -0.71875,-0.0293 -0.057,-0.005 -0.22371,-0.032 -0.29297,-0.0332 z m 0.40234,0.93165 c 0.18581,-0.25354 0.12592,-0.0566 -0.25781,0.33789 0.0524,-0.079 0.22206,-0.28912 0.25781,-0.33789 z m -2.51953,0.084 c 0.20277,0.0532 1.11671,0.21365 2.19141,0.30273 -0.0277,0.0277 -0.12318,0.0759 -0.1543,0.10547 -1.58983,0.0244 -2.34689,-0.4895 -2.03711,-0.4082 z m 3.56836,0.23437 c -0.2306,0.0528 -0.4224,0.0898 -0.63086,0.1211 0.16506,-0.002 0.44313,-0.10513 0.63086,-0.1211 z m -1.34766,0.0723 c 0.2322,0.0183 0.17947,0.0588 0.4668,0.0644 -0.19841,0.0224 -0.36478,0.0256 -0.54102,0.0312 0.0173,-0.0259 0.0585,-0.072 0.0742,-0.0957 z m -3.57617,1.12891 c 0.13428,0.0319 0.46396,0.0478 0.70899,0.0898 -0.48482,-0.016 -0.57012,0.008 -0.72657,-0.0469 0.006,-0.0144 0.0119,-0.0286 0.0176,-0.043 z m 0.77734,0.33984 c 0.0398,-0.0543 -0.15401,0.19445 -0.20312,0.28125 -0.005,0.002 -0.009,0.002 -0.0137,0.004 0.0382,-0.0605 0.19769,-0.25909 0.21679,-0.28516 z m -0.48046,0.64844 c -0.005,0.005 -0.0224,0.0143 -0.0274,0.0195 0.004,-0.006 0.009,-0.0115 0.0137,-0.0176 0.005,-0.001 0.008,-8.2e-4 0.0137,-0.002 z m -10.87305,6.60547 c -0.0965,0.0145 -0.15829,0.005 -0.25,0.0156 0.0625,10e-4 0.0364,0.0132 0.10156,0.0137 0.0375,2.8e-4 0.10954,-0.0288 0.14844,-0.0293 z"
         id="path426" />
    </g>
  </g>
</svg>
