<?xml version="1.0" encoding="UTF-8" standalone="no"?>
<!-- Created with Inkscape (http://www.inkscape.org/) -->

<svg
   width="1000"
   height="1000"
   viewBox="0 0 1000 1000"
   version="1.1"
   id="svg1"
   xmlns:xlink="http://www.w3.org/1999/xlink"
   xmlns="http://www.w3.org/2000/svg"
   xmlns:svg="http://www.w3.org/2000/svg">
  <defs
     id="defs1">
    <pattern
       xlink:href="#pattern359"
       preserveAspectRatio="xMidYMid"
       id="pattern372"
       patternTransform="matrix(0.5,0,0,0.5,147.15462,1548.2922)" />
    <pattern
       xlink:href="#pattern357"
       preserveAspectRatio="xMidYMid"
       id="pattern371"
       patternTransform="matrix(0.5,0,0,0.5,221.32076,1552.4298)" />
    <pattern
       xlink:href="#pattern358"
       preserveAspectRatio="xMidYMid"
       id="pattern370"
       patternTransform="matrix(0.5,0,0,0.5,230.96346,1527.8214)" />
    <pattern
       xlink:href="#pattern355"
       preserveAspectRatio="xMidYMid"
       id="pattern369"
       patternTransform="matrix(0.5,0,0,0.5,287.08178,1553.6581)" />
    <pattern
       xlink:href="#pattern354"
       preserveAspectRatio="xMidYMid"
       id="pattern368"
       patternTransform="matrix(0.5,0,0,0.5,230.97274,1529.1717)" />
    <pattern
       xlink:href="#pattern342"
       preserveAspectRatio="xMidYMid"
       id="pattern360"
       patternTransform="matrix(0.5,0,0,0.5,210.45332,1525.5392)" />
    <pattern
       xlink:href="#pattern342"
       preserveAspectRatio="xMidYMid"
       id="pattern359"
       patternTransform="matrix(0.5,0,0,0.5,152.11125,1550.7705)" />
    <pattern
       xlink:href="#pattern342"
       preserveAspectRatio="xMidYMid"
       id="pattern358"
       patternTransform="matrix(0.5,0,0,0.5,202.11125,1533.2444)" />
    <pattern
       xlink:href="#pattern342"
       preserveAspectRatio="xMidYMid"
       id="pattern357"
       patternTransform="matrix(0.5,0,0,0.5,211.4075,1546.234)" />
    <pattern
       xlink:href="#pattern342"
       preserveAspectRatio="xMidYMid"
       id="pattern356"
       patternTransform="matrix(0.5,0,0,0.5,232.14929,1573.2544)" />
    <pattern
       xlink:href="#pattern342"
       preserveAspectRatio="xMidYMid"
       id="pattern355"
       patternTransform="matrix(0.5,0,0,0.5,275,1552.7287)" />
    <pattern
       xlink:href="#pattern342"
       preserveAspectRatio="xMidYMid"
       id="pattern354"
       patternTransform="matrix(0.5,0,0,0.5,235,1529.7913)" />
    <pattern
       xlink:href="#shading24"
       preserveAspectRatio="xMidYMid"
       id="pattern342"
       patternTransform="matrix(0.5,0,0,0.5,213.95332,1537.5392)"
       x="0"
       y="0" />
    <pattern
       patternUnits="userSpaceOnUse"
       width="338.5925"
       height="42.989567"
       patternTransform="translate(213.95332,1537.5392) scale(0.5)"
       preserveAspectRatio="xMidYMid"
       id="shading24"
       style="fill:#000000">
      <path
         style="fill-rule:nonzero;stroke:none;stroke-width:0.1;stroke-linecap:square;paint-order:markers fill stroke;stop-color:#000000"
         d="m 1806.4991,-758.06464 v 18.86792 c 55.9187,0 121.0493,0.59523 193.5686,3.15628 72.9408,2.57593 146.0589,6.87694 222.9288,13.47675 119.09,10.22471 223.0762,23.76065 340.6056,39.2177 117.5025,15.4535 222.0471,29.0563 341.8507,39.3312 77.366,6.63525 151.0001,10.96128 224.4674,13.55245 73.0344,2.5759 138.631,3.17493 194.9247,3.17493 -55.9642,0 -122.2215,-1.36594 -194.8324,-5.25394 -73.2143,-3.92032 -146.9676,-10.0663 -223.8166,-18.88656 -118.8791,-13.6442 -223.3242,-31.02113 -339.8009,-50.57815 -116.4705,-19.55598 -221.1862,-36.99475 -340.3724,-50.69165 -77.0605,-8.8558 -150.9942,-15.0266 -224.3694,-18.96225 -72.7637,-3.90286 -139.1256,-5.27261 -195.1541,-5.27261 z m 0,37.81515 v 18.86793 c 55.9187,0 121.0493,0.59523 193.5686,3.15627 72.9408,2.57593 146.0589,6.87694 222.9288,13.47676 119.09,10.22471 223.0762,23.76065 340.6056,39.2177 117.5025,15.4535 222.0471,29.0563 341.8507,39.33119 77.366,6.63526 151.0001,10.96128 224.4674,13.55245 73.0344,2.5759 138.631,3.17493 194.9247,3.17493 -55.9642,0 -122.2215,-1.36594 -194.8324,-5.25394 -73.2143,-3.92031 -146.9676,-10.0663 -223.8166,-18.88656 -118.8791,-13.6442 -223.3242,-31.02112 -339.8009,-50.57815 -116.4705,-19.55598 -221.1862,-36.99475 -340.3724,-50.69165 -77.0605,-8.8558 -150.9942,-15.02659 -224.3694,-18.96225 -72.7637,-3.90286 -139.1256,-5.2726 -195.1541,-5.2726 z m 0,37.81516 v 18.86792 c 55.9187,0 121.0493,0.59523 193.5686,3.15628 72.9408,2.57593 146.0589,6.87694 222.9288,13.47675 119.09,10.22471 223.0762,23.76065 340.6056,39.2177 117.5025,15.4535 222.0471,29.0563 341.8507,39.3312 77.366,6.63525 151.0001,10.96128 224.4674,13.55245 73.0344,2.5759 138.631,3.17493 194.9247,3.17493 -55.9642,0 -122.2215,-1.36594 -194.8324,-5.25394 -73.2143,-3.92032 -146.9676,-10.0663 -223.8166,-18.88656 -118.8791,-13.6442 -223.3242,-31.02113 -339.8009,-50.57815 -116.4705,-19.55598 -221.1862,-36.99475 -340.3724,-50.69165 -77.0605,-8.8558 -150.9942,-15.0266 -224.3694,-18.96225 -72.7637,-3.90286 -139.1256,-5.27261 -195.1541,-5.27261 z m 0,37.81515 v 18.86793 c 55.9187,0 121.0493,0.59523 193.5686,3.15627 72.9408,2.57593 146.0589,6.87694 222.9288,13.47676 119.09,10.22471 223.0762,23.76065 340.6056,39.2177 117.5025,15.4535 222.0471,29.0563 341.8507,39.33119 77.366,6.63526 151.0001,10.96128 224.4674,13.55245 73.0344,2.5759 138.631,3.17494 194.9247,3.17494 -55.9642,0 -122.2215,-1.36595 -194.8324,-5.25395 -73.2143,-3.92031 -146.9676,-10.0663 -223.8166,-18.88656 -118.8791,-13.6442 -223.3242,-31.02112 -339.8009,-50.57815 -116.4705,-19.55598 -221.1862,-36.99475 -340.3724,-50.69165 -77.0605,-8.8558 -150.9942,-15.02659 -224.3694,-18.96225 -72.7637,-3.90286 -139.1256,-5.2726 -195.1541,-5.2726 z m 0,37.81516 v 18.86792 c 55.9187,0 121.0493,0.59523 193.5686,3.15628 72.9408,2.57593 146.0589,6.87694 222.9288,13.47675 119.09,10.22471 223.0762,23.76065 340.6056,39.2177 117.5025,15.4535 222.0471,29.0563 341.8507,39.3312 77.366,6.63525 151.0001,10.96128 224.4674,13.55245 73.0344,2.5759 138.631,3.17493 194.9247,3.17493 -55.9642,0 -122.2215,-1.36594 -194.8324,-5.25394 -73.2143,-3.92032 -146.9676,-10.0663 -223.8166,-18.88656 -118.8791,-13.6442 -223.3242,-31.02113 -339.8009,-50.57815 -116.4705,-19.55598 -221.1862,-36.99475 -340.3724,-50.69165 -77.0605,-8.8558 -150.9942,-15.0266 -224.3694,-18.96225 -72.7637,-3.90286 -139.1256,-5.27261 -195.1541,-5.27261 z m 0,37.81515 v 18.86793 c 55.9187,0 121.0493,0.59523 193.5686,3.15627 72.9408,2.57593 146.0589,6.87694 222.9288,13.47676 119.09,10.22471 223.0762,23.76065 340.6056,39.2177 117.5025,15.4535 222.0471,29.0563 341.8507,39.33119 77.366,6.63526 151.0001,10.96128 224.4674,13.55245 73.0344,2.5759 138.631,3.17494 194.9247,3.17494 -55.9642,0 -122.2215,-1.36595 -194.8324,-5.25395 -73.2143,-3.92031 -146.9676,-10.0663 -223.8166,-18.88656 -118.8791,-13.6442 -223.3242,-31.02112 -339.8009,-50.57815 -116.4705,-19.55598 -221.1862,-36.99475 -340.3724,-50.69165 -77.0605,-8.8558 -150.9942,-15.02659 -224.3694,-18.96225 -72.7637,-3.90286 -139.1256,-5.2726 -195.1541,-5.2726 z m 0,37.81516 v 18.86792 c 55.9187,0 121.0493,0.59523 193.5686,3.15628 72.9408,2.57593 146.0589,6.87694 222.9288,13.47675 119.09,10.22471 223.0762,23.76065 340.6056,39.2177 117.5025,15.4535 222.0471,29.0563 341.8507,39.3312 77.366,6.63525 151.0001,10.96128 224.4674,13.55245 73.0344,2.5759 138.631,3.17493 194.9247,3.17493 -55.9642,0 -122.2215,-1.36594 -194.8324,-5.25394 -73.2143,-3.92032 -146.9676,-10.0663 -223.8166,-18.88656 -118.8791,-13.6442 -223.3242,-31.02113 -339.8009,-50.57815 -116.4705,-19.55598 -221.1862,-36.99475 -340.3724,-50.69165 -77.0605,-8.8558 -150.9942,-15.0266 -224.3694,-18.96225 -72.7637,-3.90286 -139.1256,-5.27261 -195.1541,-5.27261 z"
         id="use26"
         transform="matrix(0.22300099,0,0,0.37823052,-402.85121,237.25945)" />
    </pattern>
    <clipPath
       clipPathUnits="userSpaceOnUse"
       id="clipPath54">
      <path
         id="path336"
         style="stroke-width:0.0999999;stroke-linecap:square;paint-order:markers fill stroke;stop-color:#000000"
         d="m 1691.1994,-792.32001 h 1634.8919 v 92.82806 H 1691.1994 Z" />
    </clipPath>
    <clipPath
       clipPathUnits="userSpaceOnUse"
       id="clipPath33">
      <rect
         style="fill:#000000;stroke:none;stroke-width:0.999995;stroke-linecap:butt;stroke-linejoin:bevel;paint-order:stroke markers fill;stop-color:#000000"
         id="rect33"
         width="46.19186"
         height="80.006783"
         x="74.999985"
         y="399.99661" />
    </clipPath>
    <clipPath
       clipPathUnits="userSpaceOnUse"
       id="clipPath27">
      <rect
         style="fill:none;stroke:#000000;stroke-width:0.999999;stroke-linecap:butt;stroke-linejoin:bevel;paint-order:stroke markers fill;stop-color:#000000"
         id="rect28-6"
         width="46.160622"
         height="39.922417"
         x="86.574379"
         y="420.06253" />
    </clipPath>
    <clipPath
       clipPathUnits="userSpaceOnUse"
       id="clipPath25">
      <rect
         style="fill:#ff0000;stroke:none;stroke-width:3;stroke-linecap:square;stroke-linejoin:miter;paint-order:stroke markers fill;stop-color:#000000"
         id="rect25-8"
         width="78"
         height="45.033199"
         x="763.61322"
         y="452.82422" />
    </clipPath>
    <clipPath
       clipPathUnits="userSpaceOnUse"
       id="clipPath15">
      <rect
         style="fill:none;stroke:#000000;stroke-linecap:butt;stroke-linejoin:bevel;paint-order:stroke markers fill;stop-color:#000000"
         id="rect15-7"
         width="45.034248"
         height="38.955639"
         x="262.48285"
         y="121.00073" />
    </clipPath>
    <linearGradient
       id="swatch75">
      <stop
         style="stop-color:#000000;stop-opacity:1;"
         offset="0"
         id="stop75" />
    </linearGradient>
  </defs>
  <g
     id="layer51"
     style="display:inline">
    <g
       id="layer41"
       style="display:inline">
      <path
         style="baseline-shift:baseline;display:inline;overflow:visible;opacity:1;vector-effect:none;fill-rule:evenodd;enable-background:accumulate;stop-color:#000000;stop-opacity:1"
         d="m 491.12305,136.40039 c -4.30159,6.45237 -9.34918,12.20925 -11.89649,22.39844 -0.56288,2.25153 -0.5571,3.0524 -0.84375,5.11914 -0.28665,2.06674 -0.61788,4.5762 -0.95898,7.08398 -0.3411,2.50778 -0.69252,5.01715 -1.00196,6.98047 -0.30943,1.96332 -0.89157,4.08294 -0.48437,2.86133 -0.51981,1.55942 -2.73858,4.54624 -4.96289,9.73633 -2.23999,5.22663 -3.74582,10.12149 -5.38477,14.33594 -2.21061,5.68442 -4.65976,11.48058 -7.00976,17.52343 -4.03383,10.37271 -7.99356,22.01369 -12.06641,31.06446 -2.10459,4.67687 -6.29043,10.30103 -9.08789,18.34375 -3.68612,10.59758 -4.55574,16.62978 -5.07226,20.5625 -0.51653,3.93271 -0.53037,5.2948 -3.4375,12.07812 -3.5727,8.33629 -8.16548,16.85285 -12.2461,26.23828 -2.40546,5.53255 -3.67128,10.39596 -5.24805,14 -1.74833,3.99618 -4.40392,8.42834 -6.91015,13.79883 -2.09779,4.49525 -3.68336,8.72406 -5.33203,12.43359 -2.69628,6.06661 -6.0397,12.44887 -8.91016,19.625 -1.69526,4.23817 -1.79233,7.02576 -2.02539,7.78321 -1.63479,5.31306 -3.19227,10.38923 -5.01953,15.08789 -1.73324,4.45691 -4.60071,9.50755 -7.02344,15.80664 -1.35855,3.53221 -1.68124,6.16819 -2.03711,7.77148 -1.71916,4.62673 -3.22089,9.04422 -4.86914,13 -0.2884,0.69216 -2.19504,2.99526 -3.76172,7.69532 -1.32284,3.96851 -1.67324,7.22896 -1.93164,9.04687 -0.2584,1.81791 -0.28729,2.1781 -1.02929,3.66211 -0.37317,0.74633 -0.58655,1.0208 -0.9004,1.53711 -0.96099,0.7368 -1.60014,1.41675 -1.95703,1.88867 -1.96266,2.59529 -1.51568,2.68206 -1.8164,3.47852 -0.60144,1.59291 -1.35795,3.86094 -2.87891,8.42382 -1.15512,3.46539 -1.4818,6.0291 -1.88086,7.42579 -0.34836,1.21928 -0.94929,2.81468 -1.625,4.84179 -1.16829,3.50487 -2.33562,7.01076 -3.5039,10.51563 -1.32214,3.9664 -2.20329,7.31797 -3.25,9.83008 -0.94128,2.25904 -3.27376,5.55451 -5.31055,10.64648 -2.26212,5.65531 -2.21291,7.58402 -1.10547,5.68555 -1.56645,2.68534 -6.79989,6.54508 -10.82031,14.58593 -4.01234,8.02466 -4.19887,14.78622 -5.59766,18.28321 -1.74056,4.35141 -5.90342,9.75266 -8.86133,17.78125 -2.68301,7.28248 -2.59587,12.53106 -3.35742,15.07031 -0.12274,0.15265 -0.15626,0.22152 -0.50195,0.56641 -1.11471,1.11211 -3.59192,3.19761 -5.00586,7.43945 -2.42069,7.26205 -1.63944,12.75825 -2.11328,15.44336 -0.71641,4.05963 -2.76849,9.36023 -3.58985,16.3418 -0.79846,6.78686 0.21585,11.60613 -0.0273,14.28125 -1.5368,16.90476 -2.25133,20.71194 -2.0293,20.06054 0.22204,-0.6514 -1.68168,2.31398 -4.66797,13.26367 -0.51419,1.88547 -0.23275,1.01079 -0.32226,1.46485 -0.0895,0.45406 -0.2039,1.04459 -0.33985,1.74023 -0.27188,1.39129 -0.62618,3.19493 -0.99609,5.00196 -0.24373,1.19064 -0.47231,2.2045 -0.70508,3.25976 -1.4194,0.93455 -2.9374,2.2049 -3.94336,4.2168 -0.76617,1.53235 -1.07244,2.86343 -1.23047,4.08594 -1.66008,1.34007 -2.42745,2.34932 -2.15429,2.07617 0.90662,-0.90664 -1.36992,-0.15865 -3.625,4.35156 -0.49484,0.98966 -0.71037,1.73715 -0.9375,2.47656 -0.75972,0.46898 -1.57286,1.05919 -2.44727,1.9336 -2.34962,2.34961 -3.82198,4.95631 -4.46289,6.21484 -0.40068,0.14867 -2.72666,0.97666 -6.05078,4.30078 -2.70263,2.70262 -3.44366,5.11913 -3.89258,6.63281 -0.88667,0.41192 -2.54119,1.55098 -4.87109,3.88086 -4.25245,4.25245 -4.20496,7.01346 -3.25586,5.43164 -1.12138,1.86897 -1.97101,3.23163 -2.61133,4 -1.41269,1.69524 -1.99722,2.32217 -2.39258,2.74805 -0.55985,0.18037 -0.48527,0.10256 -1.29883,0.45117 -1.7828,0.76394 -3.78135,1.87116 -6.4414,3.64453 -2.48613,1.65743 -3.37311,2.86188 -4.66797,4.31055 -1.29486,1.44867 -2.56623,3.00431 -3.74219,4.48047 -1.08422,1.36101 -2.03172,2.59214 -2.79297,3.57812 -6.22193,2.45734 -9.4886,3.77064 -16.04297,9.38868 -2.20279,1.8881 -4.3971,4.0058 -6.43164,6.44726 -1.43346,1.72015 -2.03896,2.58932 -2.52539,3.33203 -0.83383,0.22324 -1.80795,0.52507 -3.02734,1.13477 -2.35596,1.17796 -3.41213,2.50362 -3.95313,3.19726 -0.71261,0.53296 -0.64162,0.47537 -1.21289,0.9004 -0.20612,0.0853 -0.75338,0.18478 -0.91211,0.25195 -0.95444,0.40387 -1.33359,0.64697 -1.82812,0.93555 -0.98906,0.57715 -2.07489,1.27714 -3.68359,2.3496 -2.78463,1.85642 -4.0276,3.09394 -4.28125,3.59961 -0.74951,0.36677 -1.67665,0.84978 -3.18164,1.97852 -2.83025,2.12269 -4.07455,3.93197 -4.57618,4.43359 -1.68886,1.68887 -2.53931,2.65333 -2.67968,2.76563 -0.87159,0.69727 -1.98239,1.29448 -3.96875,2.59765 -1.98637,1.30318 -4.76648,3.52275 -6.86719,6.67383 -2.32953,3.4943 -2.99459,5.52013 -3.25195,6.32422 -0.22871,-0.0539 -1.41824,1.04591 -3.4375,3.73828 -1.15934,1.54578 -1.67283,2.51878 -2.03125,3.26563 -1.7238,0.31508 -3.61111,1.0214 -5.56446,2.92383 -3.46335,3.37307 -3.37787,7.94133 -3.14648,9.56836 0.23139,1.62703 0.40367,2.11814 0.28906,1.42382 -0.11461,-0.69431 -0.59449,-4.52464 2.61914,-7.73828 0.29718,-0.29718 0.90399,-0.93095 2.38672,-1.5664 1.48273,-0.63546 4.19497,-1.04373 6.58789,-0.2461 4.78584,1.59528 5.48341,4.67484 5.83203,5.72071 0.17431,0.52293 0.24346,0.87178 0.29883,1.18554 0.0138,0.0784 0.0258,0.15349 0.0371,0.22852 0.003,0.0188 0.007,0.0372 0.01,0.0566 10e-4,0.01 -19.79727,2.85077 -19.79882,2.83984 -0.002,-0.0109 -0.003,-0.0203 -0.004,-0.0293 -0.005,-0.0361 -0.01,-0.0701 -0.0137,-0.10157 -0.0161,-0.12585 -0.024,-0.21674 -0.0293,-0.27539 -0.0213,-0.23459 0.0137,0.0518 0.0137,1.01172 h 0.1543 c 0.0702,0.36909 0.14784,0.78139 0.35742,1.41016 0.49466,1.48397 1.48489,5.14796 6.81836,6.92578 2.66674,0.88891 5.71721,0.46969 7.61524,-0.34375 1.89802,-0.81344 2.99562,-1.7925 3.87695,-2.67383 1.03085,-1.03085 1.68419,-2.11753 2.16016,-3.19531 1.74353,-0.89089 4.58373,-3.06407 6.0996,-5.33789 0.94657,-1.41984 1.34537,-2.17752 1.64844,-2.78711 0.61807,-0.40411 1.88483,-1.63584 3.60938,-4.22266 2.82513,-4.23769 3.43087,-6.90021 3.5039,-7.00976 0.31716,-0.47574 0.24399,-0.42147 1.19727,-1.04688 0.95328,-0.62541 3.01587,-1.72012 5.49219,-3.70117 2.43992,-1.95194 3.68041,-3.59643 4.32812,-4.24414 1.42274,-1.42274 1.68976,-1.7516 1.88672,-1.9961 0.13739,0.0869 1.29575,-0.47581 3.59961,-2.01171 1.63751,-1.09167 2.24073,-1.71753 2.96484,-2.38868 1.57135,-0.49991 1.60932,-0.74271 1.83594,-0.88281 0.28505,-0.17621 0.43729,-0.28196 0.5957,-0.39062 1.26729,-0.8693 2.96525,-2.15069 7.32422,-5.41993 0.43287,-0.32464 0.59293,-0.54033 0.9043,-0.82421 1.34212,-0.26977 3.69973,-0.74963 6.35156,-2.8711 5.33895,-4.27115 5.80856,-7.70698 4.93946,-6.66406 1.1386,-1.36634 2.52342,-2.72879 4.08398,-4.06641 7.04926,-6.04223 3.38907,-3.2353 12.97656,-7.07031 l 1.3125,-0.52539 1.11328,-0.86719 c 2.01496,-1.56716 1.47048,-1.38693 1.66797,-1.62109 0.19749,-0.23417 0.33958,-0.41389 0.4961,-0.61133 0.31303,-0.39487 0.65495,-0.83651 1.05273,-1.35156 0.79557,-1.0301 1.79753,-2.33122 2.84375,-3.64453 1.04622,-1.31331 2.14371,-2.64218 3.01172,-3.61328 0.86801,-0.97111 1.9368,-1.72285 0.84961,-0.99805 1.99062,-1.32708 2.95653,-1.78747 3.22461,-1.90234 0.26807,-0.11488 -0.25272,0.12216 1.35156,-0.41797 1.60429,-0.54014 4.14642,-2.16065 5.49023,-3.47071 1.34382,-1.31006 2.48125,-2.66303 4.33594,-4.88867 2.05637,-2.46762 3.3526,-4.77255 4.39844,-6.51562 0.45324,-0.7554 0.45027,-0.75649 0.74609,-1.23438 0.92762,-0.47706 2.56596,-1.65384 4.75977,-3.84765 2.95283,-2.95283 3.63974,-5.70223 4.0625,-7.11915 0.67359,-0.36921 1.81213,-1.10421 3.62891,-2.46679 2.74055,-2.05541 4.98955,-5.71187 5.48828,-6.77539 0.0224,-0.0478 0.0191,-0.0125 0.0371,-0.0527 1.43071,-0.49042 3.30428,-1.35756 5.23632,-3.93359 v -0.002 c 1.90111,-2.53483 2.36764,-4.70263 2.63672,-5.9961 0.16505,-0.16386 0.15296,-0.14619 0.28321,-0.27148 1.68222,-0.5646 4.81911,-1.83742 6.78711,-5.77344 0.80231,-1.60463 1.10034,-2.98724 1.24414,-4.25 0.66142,-0.63134 1.35487,-1.19498 1.89062,-2.08789 1.49111,-2.48518 1.18505,-2.64492 1.40625,-3.41406 0.22121,-0.76914 0.41242,-1.53544 0.61133,-2.37696 0.39782,-1.68303 0.81037,-3.62799 1.20117,-5.53711 0.3908,-1.90911 0.75606,-3.76951 1.03125,-5.17773 0.1376,-0.70411 0.25302,-1.29636 0.33399,-1.70703 0.0179,-0.0906 0.0562,-0.231 0.0918,-0.375 2.55801,-9.28564 2.69827,-7.35085 4.20508,-11.77149 1.53564,-4.50521 1.48026,-7.79066 3.01758,-24.70117 0.60297,-6.6328 -0.32093,-11.26044 -0.0274,-13.75586 0.43715,-3.71575 2.26643,-8.6536 3.42188,-15.20117 1.07787,-6.1079 0.91388,-10.03354 1.32227,-11.94336 0.10015,-0.11635 0.0478,-0.0794 0.22656,-0.25781 1.02091,-1.01853 3.38735,-2.92588 4.94531,-6.97656 2.96163,-7.70027 2.65344,-13.45275 3.55664,-15.9043 1.55765,-4.22791 5.55162,-9.49135 8.66211,-17.26758 3.13117,-7.82791 3.4755,-13.88265 4.91797,-16.76758 1.20432,-2.40864 5.8868,-6.04507 10.20703,-13.45117 3.53456,-6.05927 2.87353,-9.51878 2.40039,-8.33594 0.87385,-2.1846 3.13012,-5.40759 5.20313,-10.38281 1.79517,-4.30841 2.74531,-8.15392 3.75976,-11.19726 1.16828,-3.50485 2.33757,-7.01076 3.50586,-10.51563 0.49259,-1.47775 1.21429,-3.33884 1.88086,-5.67187 0.92428,-3.23494 1.25491,-5.48933 1.62305,-6.59375 1.021,-3.06302 1.32943,-3.92909 1.76758,-5.19336 2.59675,-2.67659 2.96688,-4.049 4.70117,-7.51758 1.88096,-3.76193 2.60302,-7.41039 2.9414,-9.79102 0.33839,-2.38062 0.42869,-3.50675 1.10547,-5.53711 0.0855,-0.25656 1.52693,-2.19549 3.24805,-6.32617 2.10427,-5.05024 3.72249,-9.9071 5.39062,-14.35547 l 0.19922,-0.5332 0.13867,-0.55273 c 0.78125,-3.12495 1.1036,-5.11271 1.38477,-5.84375 1.7078,-4.44027 4.55892,-9.47126 6.99609,-15.73829 2.18987,-5.63107 3.86947,-11.17488 5.49414,-16.45507 1.18355,-3.84652 1.38676,-6.00204 1.48047,-6.23633 2.37229,-5.93069 5.57826,-12.0965 8.61524,-18.92969 1.9649,-4.42105 3.51683,-8.53216 5.18164,-12.09961 1.9127,-4.09865 4.66935,-8.66303 7.10937,-14.24023 2.42416,-5.54092 3.69105,-10.41948 5.26563,-14.04102 3.63018,-8.34943 8.24195,-16.89529 12.28711,-26.33398 3.48532,-8.13243 4.36345,-13.38236 4.88476,-17.35157 0.52132,-3.9692 0.83644,-7.12619 4.13086,-16.59765 h 0.002 c 1.49362,-4.29419 5.18001,-9.47251 8.43554,-16.70703 4.68682,-10.41514 8.68132,-22.28935 12.4668,-32.02344 2.21062,-5.68442 4.65976,-11.48058 7.00977,-17.52344 1.97893,-5.08871 3.43683,-9.75693 5.1289,-13.70508 0.86287,-2.01335 3.59422,-5.41549 5.55274,-11.29101 0.88536,-2.6561 0.91459,-3.83262 1.26757,-6.07227 0.35299,-2.23964 0.7164,-4.83948 1.06446,-7.39843 0.34806,-2.55896 0.67945,-5.07218 0.95117,-7.03125 0.27172,-1.95908 0.73034,-4.18893 0.4375,-3.01758 1.50813,-6.03252 4.07081,-8.56131 9.13281,-16.1543 z M 376.26172,474.06836 c 0.98283,1.22962 0.85435,1.99002 0.55273,1.38672 -0.0917,-0.18336 -0.29181,-0.80128 -0.55273,-1.38672 z m -16.7168,11.93359 c 0.11741,0.15903 0.26538,0.32454 0.42188,0.49805 -0.16168,-0.19109 -0.31692,-0.32445 -0.42188,-0.49805 z m 1.34375,1.37891 c 0.17562,0.14432 0.47509,0.29705 0.67969,0.44531 -0.24142,-0.15388 -0.48453,-0.29501 -0.67969,-0.44531 z M 304.19141,708.5332 c -0.10244,-0.48229 0.0948,-0.23529 0.0937,0.53907 -0.0308,-0.11582 -0.077,-0.45997 -0.0937,-0.53907 z m -19.66016,3.61328 c 0.0311,0.11707 0.0788,0.46322 0.0957,0.54297 0.10263,0.48321 -0.0975,0.23496 -0.0957,-0.54297 z m 2.53711,22.01563 c -0.57104,0.26713 -0.79597,0.25186 -0.33789,0.11914 0.0523,-0.0151 0.26759,-0.1009 0.33789,-0.11914 z m -95.66602,61.3125 c -0.0474,0.0344 -0.52607,0.39085 -0.54492,0.4043 0.0464,-0.0655 0.13947,-0.19435 0.54492,-0.4043 z"
         id="path380" />
      <path
         style="baseline-shift:baseline;display:inline;overflow:visible;opacity:1;vector-effect:none;fill-rule:evenodd;enable-background:accumulate;stop-color:#000000;stop-opacity:1"
         d="m 505.21484,143.69922 c 0,16.8399 -0.14193,16.05401 5.45118,44.01953 3.49852,17.49264 6.67196,35.71913 12.57031,53.72461 5.82557,17.78332 13.89086,34.24045 21.50195,50.25 19.19307,40.37164 31.98515,63.17057 54.91992,99.21094 12.24067,19.23533 25.44024,37.2417 36.67383,55.87304 12.67875,21.02817 40.79629,71.59263 51.88867,98.53125 2.39231,5.8099 3.55458,13.72165 6.91211,22.53516 2.27862,5.98136 3.83214,9.48313 5.26953,12.0918 1.37655,2.49824 3.16749,4.51507 3.56836,4.95312 -0.0284,0.01 -0.12862,-0.13115 0.0176,0.23047 0.4931,1.21961 1.51925,4.26951 3.14258,9.95117 1.08783,3.8074 1.41776,5.43169 1.57226,6.23438 -0.31822,1.76094 -0.25611,3.1578 -0.11328,4.04101 0.37984,2.34871 0.95714,4.014 2.17383,7.66407 1.19108,3.57325 2.58566,6.70834 3.79883,9.53906 1.36553,3.18624 2.44643,4.90377 2.32422,4.63476 -0.12222,-0.269 0.0284,-0.20242 0.45117,3.17969 -0.0782,-0.62578 -1.01683,2.07016 0.11523,7.73047 0.296,1.48001 0.82869,2.61496 1.42188,3.5918 0.11695,1.21194 0.38849,2.56801 1.19336,4.17773 0.37153,0.74306 0.74083,1.0253 1.12695,1.55078 0.4612,1.58224 1.18372,3.23841 2.49805,4.55274 0.0973,0.0973 0.21952,0.14665 0.32031,0.23828 0.12078,0.26681 0.29423,0.76483 0.39063,0.94531 0.0379,0.27785 -0.004,0.40298 0.0586,0.7168 0.70106,3.50532 1.52623,5.67689 1.69531,6.6914 -0.38379,-2.30282 -0.89758,-0.95866 0.0586,3.82227 0.48811,2.44055 0.95951,4.21689 1.66601,5.91797 0.48748,1.17372 0.86298,1.66197 1.22266,2.2207 0.053,0.23077 0.25025,1.18191 0.48242,3.27149 0.0149,0.13374 -1.09595,3.4753 0.13281,9.61914 0.74058,3.70289 1.25802,5.94805 2.00391,8.06836 0.37294,1.06015 0.78903,2.14403 1.70898,3.50585 0.45954,0.68026 1.14909,1.44037 1.91993,2.12696 7.4e-4,6.6e-4 10e-4,0.001 0.002,0.002 0.41896,1.32377 0.79879,3.31043 1.48047,6.03711 0.7787,3.11485 1.42956,5.0283 1.52929,5.82617 -0.0179,-0.14304 -0.59752,2.22967 0,7.00977 0.72119,5.76943 2.49153,10.60773 4.14454,14.74023 0.55582,1.38957 0.76188,1.84914 1.00195,2.39063 -0.015,0.78066 -0.027,2.30952 -0.0352,2.46679 -10e-4,0.023 0.003,-0.0305 0.002,-0.0195 -0.0312,0.14947 -0.1025,-0.24505 -0.0391,1.32813 0.009,0.21458 -0.006,0.43369 0.12891,1.24219 0.0672,0.40425 0.662,2.27513 0.66211,2.27539 1e-5,2e-5 0.85469,0.48517 1.03906,0.58984 0.009,0.34842 0.0293,0.71924 0.0293,1.7832 v 7.00977 c 0,-0.90655 0.004,-0.57787 -0.13672,0.7168 -0.14103,1.29466 -0.40314,4.07259 1.19141,7.26171 0.82218,1.64438 1.74811,2.7593 2.58398,3.57813 0.0454,0.35665 -0.0203,0.51565 0.0606,0.91992 0.65491,3.27457 1.26093,4.56061 1.51757,4.89063 -0.0991,0.92138 -0.17947,2.25866 0.33985,4.33593 1.1506,4.60238 2.63423,5.95863 2.16797,4.79297 0.39524,0.98812 0.84282,2.58122 1.55078,4.70508 0.81328,2.43986 1.15518,3.25194 1.22461,3.33203 -0.0146,2.24649 -0.0348,3.91013 -0.0449,4.22656 3.9e-4,-0.002 0.003,-0.0131 0.004,-0.0156 -0.003,0.0472 -0.003,0.0952 -0.006,0.14062 -7.3e-4,0.0222 -0.004,0.34833 -0.004,0.35743 -9.1e-4,-0.003 -0.008,-10e-4 -0.01,-0.002 -0.0133,0.28766 -0.0419,0.57302 -0.0391,0.9336 10e-4,0.17104 -0.0131,0.27421 0.041,0.89062 0.0271,0.30821 -0.42843,0.0105 0.64454,2.76953 0.10813,0.27807 0.51044,0.78009 0.95703,1.4375 0.028,1.02349 0.0137,1.98446 0.41797,4.00586 0.3533,1.76656 0.89031,2.93909 1.39257,3.82617 -0.11679,1.7705 0.0267,4.04104 1.84571,6.76954 0.72763,1.09145 1.50211,1.89733 2.26757,2.55859 0.0358,0.11576 0.0307,0.19563 0.0703,0.31445 0.47423,1.42269 1.10615,2.43251 1.75,3.28321 0.17421,0.50863 0.26508,0.97158 0.54492,1.53125 0.37212,0.74424 0.74219,1.02868 1.12891,1.55468 0.46143,1.58109 1.18296,3.23567 2.49609,4.54883 0.306,0.30601 0.67278,0.49641 1.00976,0.74805 0.25064,0.33517 0.43967,0.69943 0.74415,1.0039 0.57,0.57001 1.27075,1.18041 2.20507,1.81055 0.37135,0.60279 0.78971,1.18618 1.29883,1.69531 2.70654,2.70651 6.77109,3.28958 8.70117,3.125 1.93008,-0.16457 2.73548,-0.53736 3.07032,-0.64062 0.33484,-0.10326 0.19956,0.0628 -1.125,0.17578 -1.28806,0.10983 -4.63805,-0.37193 -6.93164,-2.50586 0.70082,0.0827 1.38527,0.18896 2.24414,0.0996 2.40993,-0.2507 5.11271,-1.71852 6.57812,-3.33398 0.74623,-0.82264 1.27664,-1.56515 1.66406,-2.23829 h 6.375 c 0,2.06496 -0.19204,1.97996 0.0215,0.6836 0.21353,-1.29637 0.58871,-5.96793 -2.95117,-9.50781 -0.92317,-0.92317 -2.00694,-1.52804 -3.10743,-2.01172 -0.21561,-0.48866 -0.43396,-0.99541 -1.86718,-2.47266 -0.45969,-0.47381 -1.06306,-1.12281 -2.50782,-1.90039 -0.15964,-0.0859 -0.50053,-0.14437 -0.69531,-0.23242 -0.16021,-0.43812 -0.22563,-0.82431 -0.46289,-1.29883 -0.15689,-0.31378 -0.31969,-0.49983 -0.48047,-0.77344 -0.1011,-1.59659 -0.53556,-3.51723 -1.89648,-5.55859 -0.73794,-1.10692 -1.52274,-1.92849 -2.29883,-2.59375 -0.27522,-0.94716 -0.58403,-1.70979 -0.89453,-2.32617 3e-5,-3.1e-4 -3e-5,-0.002 0,-0.002 0.0858,-0.88507 -0.0219,-2.73039 -0.57813,-5.51172 -0.35858,-1.79292 -0.65729,-3.09858 -1.09961,-4.45898 -0.10384,-0.31939 -0.33458,-0.77508 -0.47461,-1.13281 0.002,-0.5839 0.0156,-0.49277 0.0156,-1.20899 v -0.82812 l -0.13477,-0.81641 c -0.64554,-3.87332 -1.87552,-6.00938 -2.13086,-6.77539 -0.46034,-1.38102 -0.97629,-3.36651 -1.95312,-5.80859 -0.49805,-1.24511 -0.71431,-1.68617 -0.9707,-2.24024 0.0203,-0.78556 -0.0117,-1.76526 -0.26172,-3.01562 -0.60885,-3.04425 -1.16108,-4.31325 -1.46289,-4.80274 0.18002,-1.41239 0.30335,-3.56319 -1.15039,-6.4707 -0.77917,-1.55833 -1.64789,-2.6198 -2.44922,-3.42969 v -6.11914 c 0,0.44863 0.76884,-1.65901 -0.29883,-5.92968 -0.37147,-1.4859 -0.69805,-2.63707 -1.13477,-3.8086 -0.11732,-0.31473 -0.24668,-0.6895 -0.34179,-1.02539 0.005,-0.64879 0.0234,-0.65466 0.0234,-1.50195 v -0.99024 l -0.19531,-0.9707 c -1.05012,-5.25068 -2.85604,-6.71434 -2.27344,-5.25781 -0.46323,-1.1581 -2.9841,-10.7303 -2.86718,-9.79492 0.0179,0.14304 0.59752,-2.22967 0,-7.00977 -0.49775,-3.9819 -1.58308,-6.63505 -1.97266,-8.19336 -0.46013,-1.8405 -0.88176,-4.49297 -1.9668,-7.74805 -0.84711,-2.54134 -1.38129,-4.45465 -3.71484,-6.96484 -0.0976,-0.10503 -0.2132,-0.12929 -0.31641,-0.23047 -0.21677,-0.79669 -0.4292,-1.47417 -0.9082,-3.86914 0.0832,0.41584 0.76303,-2.23427 0.13281,-7.90625 -0.29825,-2.68426 -0.56782,-4.50584 -1.0332,-6.29492 -0.46538,-1.78908 -1.53032,-3.9476 -2.10742,-4.81836 -0.0169,-0.0255 10e-4,0.005 -0.0137,-0.0176 0.0137,0.0252 -0.16758,-0.41794 -0.48243,-1.99219 0.49794,2.48971 0.82651,1.42011 0.0586,-3.1875 -0.53499,-3.20997 -1.19318,-4.96547 -1.55469,-6.29492 0.0605,-0.93147 0.0277,-2.1748 -0.57617,-3.98633 -0.59003,-1.77003 -1.05604,-2.76875 -1.39649,-3.39843 -0.32846,-1.82586 -1.09284,-4.0889 -2.77148,-5.76758 -0.13506,-0.13506 -0.30361,-0.20585 -0.44531,-0.33008 -0.12639,-1.19113 -0.40233,-2.51362 -1.18555,-4.08008 -0.18037,-0.36073 -0.36509,-0.56445 -0.54883,-0.87304 0.0384,-1.09414 0.0508,-2.43901 -0.22656,-4.65821 -0.49274,-3.94192 -0.99113,-6.56098 -2.08594,-8.9707 -1.09481,-2.40972 -1.31012,-2.28613 -2.14843,-4.24219 -1.26516,-2.95202 -2.4125,-5.591 -3.21094,-7.98633 -0.76862,-2.30584 -0.8083,-2.56214 -0.96485,-3.11718 0.005,-0.0317 0.0349,-0.0803 0.0391,-0.11133 0.24995,-1.88149 0.0763,-3.00414 -0.0977,-4.18164 -0.34799,-2.35501 -1.00667,-4.99015 -2.35156,-9.69727 -1.69844,-5.94453 -2.77293,-9.33555 -3.83203,-11.95508 -1.0591,-2.61952 -2.93856,-5.29044 -3.79883,-6.21484 -0.86027,-0.9244 -0.16351,0.0512 -0.81055,-1.12305 -0.64704,-1.17429 -1.99004,-4.02807 -4.09765,-9.56054 -2.2994,-6.03591 -3.44946,-14.14371 -7.10743,-23.02735 -12.21778,-29.67174 -40.04957,-79.34299 -53.25586,-101.24609 -11.85566,-19.66307 -25.16114,-37.79285 -36.92773,-56.2832 -22.69827,-35.66872 -34.75838,-57.15373 -53.73047,-97.06055 -7.66964,-16.13271 -15.3048,-31.84884 -20.55859,-47.88672 -5.30567,-16.19626 -8.40318,-33.62331 -11.96289,-51.42188 -5.61472,-28.07357 -5.06446,-22.98551 -5.06446,-40.09765 z m 222.73243,462.2207 c -0.0483,0.15376 -0.0175,0.21092 -0.0762,0.375 -0.0376,0.10529 -0.10122,0.14359 -0.14257,0.2461 0.10276,-0.21736 0.12557,-0.40191 0.21875,-0.6211 z m -0.98633,1.95899 c -0.90959,1.47011 -1.82659,2.47035 -1.08594,1.70507 0.31225,-0.32263 0.70708,-1.07026 1.08594,-1.70507 z m 8.83789,26.32226 c -0.17755,-0.13012 0.0821,-0.0273 0.5332,0.40625 -0.15485,-0.10294 -0.47116,-0.36078 -0.5332,-0.40625 z m -16.56836,3.35938 c -0.0235,0.11069 -0.10055,0.69785 -0.17188,0.96679 0.0114,-0.90161 0.23926,-1.28405 0.17188,-0.96679 z m 19.73633,3.18359 c -0.0109,0.9039 -0.23934,1.28832 -0.17188,0.9707 0.0236,-0.11113 0.10018,-0.70006 0.17188,-0.9707 z m -17.93164,0.77734 c -0.0498,0.18982 -0.15161,1.12149 -0.25391,1.82032 -0.0499,-0.0746 -0.0859,-0.10915 -0.13672,-0.18946 0.0283,-1.36997 0.48197,-1.97892 0.39063,-1.63086 z m -0.34571,2.3711 c 0.006,0.005 0.008,0.005 0.0137,0.01 -0.002,0.0333 -0.008,0.0322 -0.01,0.0664 -0.003,-0.0277 -10e-4,-0.0489 -0.004,-0.0762 z m 1.16797,0.93359 c 0.14371,0.0939 0.42261,0.35465 0.51367,0.41211 -0.002,0.0243 1.6e-4,0.0592 -0.002,0.084 -0.0938,-0.009 -0.12912,-0.13494 -0.51172,-0.4961 z m 20.70508,1.01367 c 0.30206,2.18064 -0.3699,2.78036 -0.22656,2.17188 0.0652,-0.2769 0.15646,-1.26007 0.22656,-2.17188 z m 20.75977,94.08594 c 6.2e-4,0.15115 -0.0325,0.35443 -0.13086,0.70117 0.0172,-0.0915 0.0757,-0.30715 0.0879,-0.375 0.0493,-0.27517 0.0269,-0.2073 0.043,-0.32617 z m -18.19727,2.10547 c 0.002,0.005 0.10568,0.38188 0.13672,0.48047 -6.2e-4,0.0145 0.002,0.14541 0.002,0.16601 -0.24051,-0.47819 -0.14174,-0.65472 -0.13867,-0.64648 z m 0.70898,1.28906 c 1.76091,0.99959 4.6427,2.636 6.83594,3.88086 -2.37307,-0.35707 -4.44675,-1.40412 -5.37109,-2.22851 -0.95738,-0.85386 -1.14628,-1.21207 -1.46485,-1.65235 z m 15.63672,0.32617 c -0.77728,1.10476 -1.99122,2.39276 -4.54297,3.23438 1.84299,-1.31218 3.60801,-2.5686 4.54297,-3.23438 z m 1.48047,5.28516 c 0.0134,0.0127 0.0481,0.0775 0.0625,0.0918 -0.009,-0.007 -0.0419,-0.0326 -0.0508,-0.0391 -0.34575,-0.25338 -0.28772,-0.3152 -0.0117,-0.0527 z m -11.86523,16.14258 c 0.0102,0.007 0.0451,0.0359 0.0547,0.043 0.36315,0.26614 0.25766,0.26738 -0.0547,-0.043 z m 22.77539,32.3125 c 0.18101,0.0186 0.10151,-0.053 0.57226,0.17578 -0.16709,-0.0312 -0.46752,-0.14445 -0.58203,-0.16406 0.003,-0.003 0.007,-0.009 0.01,-0.0117 z m -14.57031,4.94531 c 0.0497,-0.39078 0.1655,-0.2933 0.0664,0.22852 -0.005,0.0289 -0.009,0.15425 -0.0156,0.1875 0.004,-0.0835 -0.0584,-0.35595 -0.0508,-0.41602 z m 22.07226,5.35938 c -0.17739,-0.13 0.0789,-0.0282 0.5293,0.40429 -0.15354,-0.102 -0.4676,-0.35907 -0.5293,-0.40429 z m 1.35938,3.97461 c 0.0208,0.008 0.052,0.0152 0.0723,0.0234 -0.0589,0.20135 -0.1,0.21139 -0.0723,-0.0234 z m -17.92969,0.26171 c -0.0203,0.0955 -0.14287,0.83208 -0.25195,1.38477 0.0246,-1.02569 0.28519,-1.54127 0.25195,-1.38477 z m 19.8164,2.76954 c -0.0246,1.02568 -0.28519,1.54127 -0.25195,1.38476 0.0203,-0.0955 0.14287,-0.83207 0.25195,-1.38476 z m -18.01171,0.31445 c -0.017,0.0646 -0.0531,0.50612 -0.0859,0.61914 -0.0461,-0.0367 -0.0802,-0.045 -0.12695,-0.084 0.10281,-0.18045 0.2532,-0.68876 0.21289,-0.53515 z m -0.39454,0.99023 c 0.11404,0.0426 0.13957,0.0342 0.24805,0.0703 -0.085,0.34474 -0.14705,0.67215 -0.19336,1.38476 -0.0645,-0.60253 -0.11628,-1.07565 -0.0547,-1.45508 z m 1.50391,0.42578 c 0.21595,0.0404 0.62572,0.18991 0.75195,0.21289 -3.4e-4,9.1e-4 -0.002,0.007 -0.002,0.008 -0.0692,0.026 -0.1193,0.0858 -0.75,-0.22071 z m 0.75977,0.21485 c 0.0459,0.008 0.2431,0.0704 0.27539,0.0781 0.1001,0.024 -0.25318,-0.0813 -0.27735,-0.0703 2.2e-4,-2.8e-4 0.002,-0.008 0.002,-0.008 z m 1.39648,2.80859 c 0.0163,0.0438 -0.0327,0.50087 -0.0312,0.54297 0.007,0.20719 -0.0304,0.15086 0.0273,-0.50586 6.1e-4,-0.007 0.003,-0.03 0.004,-0.0371 z m -2.49219,0.57813 c 0.16995,0.1103 0.53074,0.41842 0.60938,0.47265 0.27954,0.1928 -0.0514,0.0521 -0.60938,-0.47265 z m 4.48438,0.24023 c -0.067,0.2552 -0.2602,1.18693 -0.3418,2.44727 -0.21232,-1.97285 0.44934,-2.85706 0.3418,-2.44727 z m 3.61328,5.12695 h 11.89062 c -1.03841,1.23804 -2.4228,2.51296 -4.60156,3.16602 -2.29946,0.68924 -4.21557,0.33245 -5.76367,-0.16602 0.15522,-0.003 0.4415,0.0816 0.57422,0.0703 1.7787,-0.15168 2.41462,-0.47377 2.58203,-0.52539 0.16741,-0.0516 -0.13536,0.16712 -1.61133,0.29296 -0.51293,0.0437 -1.48147,-0.1469 -2.37695,-0.30859 -0.4184,-0.96517 -0.59333,-1.71999 -0.69336,-2.5293 z"
         id="path381" />
      <path
         style="baseline-shift:baseline;display:inline;overflow:visible;opacity:1;vector-effect:none;fill-rule:evenodd;enable-background:accumulate;stop-color:#000000;stop-opacity:1"
         d="m 464.95117,492.69727 c -1.0048,-0.0588 -2.59906,0.015 -4.73437,0.54882 -1.87504,0.46876 -2.96957,1.05922 -3.75977,1.56446 -0.62869,-0.0277 -1.56078,-0.10938 -4.33008,-0.10938 H 450.375 c -1.24058,0 -4.18735,-0.60972 -8.6543,0.13477 -2.00012,0.33336 -3.26045,0.93733 -4.22461,1.48828 -0.62018,-0.16593 -2.13982,-0.36689 -5.31836,0.42773 -1.65573,0.41394 -2.74692,0.94544 -3.54296,1.41992 -0.84221,-0.12961 -2.40423,-0.22969 -5.54102,0.084 -4.40372,0.44036 -8.08951,1.32547 -11.16406,1.83789 -2.98048,0.49674 -6.81628,0.79636 -11.29492,1.91602 -5.49319,1.3733 -8.60001,3.13466 -9.87891,3.36718 -0.52696,0.0958 -2.85938,-0.16211 -6.97266,-0.16211 -1.29544,0 -1.69449,-0.0131 -2.26367,-0.0234 -0.88801,-0.77361 -2.16648,-1.81738 -4.53711,-2.76563 -2.76224,-1.10489 -4.6096,-0.95299 -5.81836,-0.77344 -1.04302,-0.2944 -2.03433,-0.70422 -3.06836,-1.02148 -1.72222,-1.86534 -3.16944,-2.51084 -4.32812,-3.00586 -2.36282,-1.00947 -4.03703,-1.23285 -5.67578,-1.43359 -1.63876,-0.20074 -2.85606,-0.32155 -4.86719,-0.11914 -0.50278,0.0506 -1.05718,0.10261 -2.0293,0.37109 -0.97212,0.26847 -2.7149,-0.0649 -5.5625,3.78711 -1.4238,1.926 -2.36854,5.74026 -1.65039,8.51172 0.71815,2.77146 2.10538,4.1451 3.00391,4.96093 1.79706,1.63168 2.61112,1.76321 3.29101,2.03516 0.31561,0.12624 0.63877,0.22567 0.95508,0.34961 -1.15281,-0.24907 0.55744,0.38823 2.64063,1.375 1.00725,0.47712 2.36249,1.15144 4.9375,1.38281 2.75839,0.9136 5.5354,1.75167 8.32226,2.51172 1.26581,0.34523 2.11885,0.32657 2.99219,0.3457 0.99836,0.85821 2.49805,2.08659 5.23828,3 5.6625,1.8875 8.77569,0.51172 8.41992,0.51172 1.72816,0 5.33052,0.78898 10.55078,-0.16015 5.99082,-1.08924 9.47528,-3.2238 11.15039,-3.64258 2.4156,-0.6039 5.70512,-0.91831 9.73438,-1.58984 3.93517,-0.65586 7.1978,-1.39928 9.86523,-1.66602 -0.0893,0.009 2.54047,0.76702 7.65821,-0.0859 2.1654,-0.36091 3.4587,-1.01949 4.41015,-1.60156 0.36322,-0.009 0.38523,-0.0156 0.95508,-0.0156 -1.52414,0 0.36164,1.00454 4.91602,-0.51367 1.41277,-0.47092 2.30567,-0.94696 2.95508,-1.34961 0.60437,0.0257 1.58371,0.11133 4.39648,0.11133 h 1.75195 c 1.24058,0 4.18736,0.60777 8.6543,-0.13672 2.16479,-0.36079 3.45671,-1.01761 4.4082,-1.59961 0.36354,-0.009 0.38601,-0.0156 0.95703,-0.0156 h 8.76368 17.52343 8.76172 c 2.28046,0 2.35299,-0.0694 2.45703,-0.14649 0.92674,0.61276 2.25977,1.36134 4.66211,1.76172 4.82214,0.80369 9.12174,0.34474 10.66992,-0.0566 1.54819,-0.40138 -0.87176,-0.29362 1.82618,0.0918 2.73126,0.39018 7.21367,2.53358 14.01953,3.50586 3.60147,0.51449 5.86223,0.0996 6.67187,0.0996 1.00177,0 1.4507,0.009 1.80664,0.008 0.0962,0.2233 1.48308,0.97147 5.31055,1.60938 3.89077,0.64846 6.24592,0.13671 6.90234,0.13671 h 7.00977 14.01953 6.83594 c 0.37337,0.23868 0.50002,0.46584 0.95898,0.69532 2.92789,1.46394 5.41331,1.20407 6.40821,1.0957 0.99489,-0.10837 1.01504,-0.0391 -0.1836,-0.0391 h 1.59766 c 3.21623,2.1015 6.74561,1.95528 7.84961,1.77343 1.29636,-0.21353 1.37941,-0.0215 -0.68555,-0.0215 h 4.74805 c 0.72799,0.45167 1.55366,0.89028 2.60351,1.24023 5.10836,1.70281 7.60789,0.51172 6.66797,0.51172 h 6.67578 c 0.37142,0.23393 0.66474,0.47007 1.11914,0.69727 2.92795,1.464 5.41331,1.20408 6.40821,1.0957 0.99489,-0.10837 1.01507,-0.0391 -0.1836,-0.0391 h 5.25782 c 0.58568,0 0.61497,0.006 0.98242,0.0156 0.88895,0.53814 2.08681,1.14509 4.0664,1.54102 4.28249,0.85649 6.77181,0.19531 7.2168,0.19531 h 3.50586 3.50391 c -1.52403,0 0.3619,1.00434 4.91601,-0.51367 1.57031,-0.52344 2.34435,-0.90289 3.01367,-1.23828 h 0.83399 7.00976 v -20 h -7.00976 -1.75391 c 1.52399,0 -0.35987,-1.00634 -4.91406,0.51172 -1.57258,0.5242 -2.35051,0.90472 -3.01953,1.24023 h -2.58008 -3.50586 c -2.33802,0 -2.46668,0.0661 -2.51758,0.14844 -0.78249,-0.50469 -1.87994,-1.11891 -3.81836,-1.60352 -4.27063,-1.06764 -6.37829,-0.29687 -5.92968,-0.29687 h -2.95508 c -0.72695,-0.45998 -1.59928,-0.89181 -2.64453,-1.24023 -5.10836,-1.7028 -7.60789,-0.51368 -6.66797,-0.51368 h -6.50196 c -0.72774,-0.45137 -1.55425,-0.88853 -2.60351,-1.23828 -5.10836,-1.7028 -7.60594,-0.51367 -6.66602,-0.51367 h -1.5957 c -3.21717,-2.10405 -6.74715,-1.95535 -7.85156,-1.77344 -1.29637,0.21353 -1.37941,0.0215 0.68554,0.0215 h -3.33007 c -0.37404,-0.23924 -0.50093,-0.46726 -0.96094,-0.69727 -2.92788,-1.46394 -5.4133,-1.20408 -6.4082,-1.0957 -0.9949,0.10837 -1.01508,0.041 0.18359,0.041 h -1.75195 -7.00977 -14.01953 -7.00977 c -2.84843,0 -4.04686,0.0625 -3.61328,0.13477 1.04272,0.17378 -0.4848,-0.80243 -4.93945,-1.69336 -3.7097,-0.74194 -5.60594,-0.19531 -5.4668,-0.19531 -2.69524,0 -3.97558,0.0827 -3.84375,0.10156 -2.73128,-0.39019 -7.21365,-2.5336 -14.01953,-3.50586 -4.45784,-0.63683 -8.92194,0.15272 -9.67383,0.34766 -0.30824,0.0799 -0.9762,-0.12863 -0.96875,-0.12891 -0.82427,-0.58085 -2.10568,-1.38169 -4.58203,-1.87695 -4.2825,-0.8565 -6.77374,-0.19336 -7.21875,-0.19336 h -8.76172 -17.52343 -8.76368 c 0.22431,0 -0.19051,-0.19314 -1.19531,-0.25195 z m 48.69727,2.75781 c 0.39271,0.19852 0.46214,0.31121 0.19531,0.1289 -0.0303,-0.0207 -0.15752,-0.10121 -0.19531,-0.1289 z m -158.14063,4.92773 -3.00586,12.02735 c -0.96732,-1.87213 -1.7609,-4.39195 -1.20117,-6.63086 0.33177,-1.32507 1.41436,-3.54892 3.4043,-5.01172 0.26546,-0.19514 0.53176,-0.22821 0.80273,-0.38477 z m 14.5293,1.34375 c 0.0341,-0.002 0.16139,0.0303 0.20117,0.0293 -0.0455,0.008 -0.1974,0.0197 -0.23437,0.0254 -0.3803,0.0588 -0.36663,-0.0308 0.0332,-0.0547 z m 225.56445,2.66406 c 0.43355,0.45114 0.53637,0.71075 0.40625,0.53321 -0.0455,-0.062 -0.30331,-0.37835 -0.40625,-0.53321 z m 21.05078,3.48829 c 0.6756,0.70258 0.82708,1.20251 0.70313,1.01171 -0.0607,-0.0935 -0.48078,-0.65251 -0.70313,-1.01171 z m 15.86719,1.88476 c 0.52467,0.55796 0.66544,0.8889 0.47266,0.60938 -0.0542,-0.0786 -0.36246,-0.43959 -0.47266,-0.60938 z m -52.64453,6.98242 c 0.0452,0.0617 0.30229,0.37576 0.4043,0.5293 -0.43248,-0.45034 -0.5343,-0.70669 -0.4043,-0.5293 z m 20.70898,3.04102 c 0.0611,0.094 0.48404,0.65492 0.70899,1.01758 -0.67903,-0.70475 -0.83317,-1.20874 -0.70899,-1.01758 z"
         id="path382" />
    </g>
  </g>
</svg>
