<?xml version="1.0" encoding="UTF-8" standalone="no"?>
<!-- Created with Inkscape (http://www.inkscape.org/) -->

<svg
   width="1000"
   height="1000"
   viewBox="0 0 1000 1000"
   version="1.1"
   id="svg1"
   xmlns:xlink="http://www.w3.org/1999/xlink"
   xmlns="http://www.w3.org/2000/svg"
   xmlns:svg="http://www.w3.org/2000/svg">
  <defs
     id="defs1">
    <pattern
       xlink:href="#pattern359"
       preserveAspectRatio="xMidYMid"
       id="pattern372"
       patternTransform="matrix(0.5,0,0,0.5,147.15462,1548.2922)" />
    <pattern
       xlink:href="#pattern357"
       preserveAspectRatio="xMidYMid"
       id="pattern371"
       patternTransform="matrix(0.5,0,0,0.5,221.32076,1552.4298)" />
    <pattern
       xlink:href="#pattern358"
       preserveAspectRatio="xMidYMid"
       id="pattern370"
       patternTransform="matrix(0.5,0,0,0.5,230.96346,1527.8214)" />
    <pattern
       xlink:href="#pattern355"
       preserveAspectRatio="xMidYMid"
       id="pattern369"
       patternTransform="matrix(0.5,0,0,0.5,287.08178,1553.6581)" />
    <pattern
       xlink:href="#pattern354"
       preserveAspectRatio="xMidYMid"
       id="pattern368"
       patternTransform="matrix(0.5,0,0,0.5,230.97274,1529.1717)" />
    <pattern
       xlink:href="#pattern342"
       preserveAspectRatio="xMidYMid"
       id="pattern360"
       patternTransform="matrix(0.5,0,0,0.5,210.45332,1525.5392)" />
    <pattern
       xlink:href="#pattern342"
       preserveAspectRatio="xMidYMid"
       id="pattern359"
       patternTransform="matrix(0.5,0,0,0.5,152.11125,1550.7705)" />
    <pattern
       xlink:href="#pattern342"
       preserveAspectRatio="xMidYMid"
       id="pattern358"
       patternTransform="matrix(0.5,0,0,0.5,202.11125,1533.2444)" />
    <pattern
       xlink:href="#pattern342"
       preserveAspectRatio="xMidYMid"
       id="pattern357"
       patternTransform="matrix(0.5,0,0,0.5,211.4075,1546.234)" />
    <pattern
       xlink:href="#pattern342"
       preserveAspectRatio="xMidYMid"
       id="pattern356"
       patternTransform="matrix(0.5,0,0,0.5,232.14929,1573.2544)" />
    <pattern
       xlink:href="#pattern342"
       preserveAspectRatio="xMidYMid"
       id="pattern355"
       patternTransform="matrix(0.5,0,0,0.5,275,1552.7287)" />
    <pattern
       xlink:href="#pattern342"
       preserveAspectRatio="xMidYMid"
       id="pattern354"
       patternTransform="matrix(0.5,0,0,0.5,235,1529.7913)" />
    <pattern
       xlink:href="#shading24"
       preserveAspectRatio="xMidYMid"
       id="pattern342"
       patternTransform="matrix(0.5,0,0,0.5,213.95332,1537.5392)"
       x="0"
       y="0" />
    <pattern
       patternUnits="userSpaceOnUse"
       width="338.5925"
       height="42.989567"
       patternTransform="translate(213.95332,1537.5392) scale(0.5)"
       preserveAspectRatio="xMidYMid"
       id="shading24"
       style="fill:#000000">
      <path
         style="fill-rule:nonzero;stroke:none;stroke-width:0.1;stroke-linecap:square;paint-order:markers fill stroke;stop-color:#000000"
         d="m 1806.4991,-758.06464 v 18.86792 c 55.9187,0 121.0493,0.59523 193.5686,3.15628 72.9408,2.57593 146.0589,6.87694 222.9288,13.47675 119.09,10.22471 223.0762,23.76065 340.6056,39.2177 117.5025,15.4535 222.0471,29.0563 341.8507,39.3312 77.366,6.63525 151.0001,10.96128 224.4674,13.55245 73.0344,2.5759 138.631,3.17493 194.9247,3.17493 -55.9642,0 -122.2215,-1.36594 -194.8324,-5.25394 -73.2143,-3.92032 -146.9676,-10.0663 -223.8166,-18.88656 -118.8791,-13.6442 -223.3242,-31.02113 -339.8009,-50.57815 -116.4705,-19.55598 -221.1862,-36.99475 -340.3724,-50.69165 -77.0605,-8.8558 -150.9942,-15.0266 -224.3694,-18.96225 -72.7637,-3.90286 -139.1256,-5.27261 -195.1541,-5.27261 z m 0,37.81515 v 18.86793 c 55.9187,0 121.0493,0.59523 193.5686,3.15627 72.9408,2.57593 146.0589,6.87694 222.9288,13.47676 119.09,10.22471 223.0762,23.76065 340.6056,39.2177 117.5025,15.4535 222.0471,29.0563 341.8507,39.33119 77.366,6.63526 151.0001,10.96128 224.4674,13.55245 73.0344,2.5759 138.631,3.17493 194.9247,3.17493 -55.9642,0 -122.2215,-1.36594 -194.8324,-5.25394 -73.2143,-3.92031 -146.9676,-10.0663 -223.8166,-18.88656 -118.8791,-13.6442 -223.3242,-31.02112 -339.8009,-50.57815 -116.4705,-19.55598 -221.1862,-36.99475 -340.3724,-50.69165 -77.0605,-8.8558 -150.9942,-15.02659 -224.3694,-18.96225 -72.7637,-3.90286 -139.1256,-5.2726 -195.1541,-5.2726 z m 0,37.81516 v 18.86792 c 55.9187,0 121.0493,0.59523 193.5686,3.15628 72.9408,2.57593 146.0589,6.87694 222.9288,13.47675 119.09,10.22471 223.0762,23.76065 340.6056,39.2177 117.5025,15.4535 222.0471,29.0563 341.8507,39.3312 77.366,6.63525 151.0001,10.96128 224.4674,13.55245 73.0344,2.5759 138.631,3.17493 194.9247,3.17493 -55.9642,0 -122.2215,-1.36594 -194.8324,-5.25394 -73.2143,-3.92032 -146.9676,-10.0663 -223.8166,-18.88656 -118.8791,-13.6442 -223.3242,-31.02113 -339.8009,-50.57815 -116.4705,-19.55598 -221.1862,-36.99475 -340.3724,-50.69165 -77.0605,-8.8558 -150.9942,-15.0266 -224.3694,-18.96225 -72.7637,-3.90286 -139.1256,-5.27261 -195.1541,-5.27261 z m 0,37.81515 v 18.86793 c 55.9187,0 121.0493,0.59523 193.5686,3.15627 72.9408,2.57593 146.0589,6.87694 222.9288,13.47676 119.09,10.22471 223.0762,23.76065 340.6056,39.2177 117.5025,15.4535 222.0471,29.0563 341.8507,39.33119 77.366,6.63526 151.0001,10.96128 224.4674,13.55245 73.0344,2.5759 138.631,3.17494 194.9247,3.17494 -55.9642,0 -122.2215,-1.36595 -194.8324,-5.25395 -73.2143,-3.92031 -146.9676,-10.0663 -223.8166,-18.88656 -118.8791,-13.6442 -223.3242,-31.02112 -339.8009,-50.57815 -116.4705,-19.55598 -221.1862,-36.99475 -340.3724,-50.69165 -77.0605,-8.8558 -150.9942,-15.02659 -224.3694,-18.96225 -72.7637,-3.90286 -139.1256,-5.2726 -195.1541,-5.2726 z m 0,37.81516 v 18.86792 c 55.9187,0 121.0493,0.59523 193.5686,3.15628 72.9408,2.57593 146.0589,6.87694 222.9288,13.47675 119.09,10.22471 223.0762,23.76065 340.6056,39.2177 117.5025,15.4535 222.0471,29.0563 341.8507,39.3312 77.366,6.63525 151.0001,10.96128 224.4674,13.55245 73.0344,2.5759 138.631,3.17493 194.9247,3.17493 -55.9642,0 -122.2215,-1.36594 -194.8324,-5.25394 -73.2143,-3.92032 -146.9676,-10.0663 -223.8166,-18.88656 -118.8791,-13.6442 -223.3242,-31.02113 -339.8009,-50.57815 -116.4705,-19.55598 -221.1862,-36.99475 -340.3724,-50.69165 -77.0605,-8.8558 -150.9942,-15.0266 -224.3694,-18.96225 -72.7637,-3.90286 -139.1256,-5.27261 -195.1541,-5.27261 z m 0,37.81515 v 18.86793 c 55.9187,0 121.0493,0.59523 193.5686,3.15627 72.9408,2.57593 146.0589,6.87694 222.9288,13.47676 119.09,10.22471 223.0762,23.76065 340.6056,39.2177 117.5025,15.4535 222.0471,29.0563 341.8507,39.33119 77.366,6.63526 151.0001,10.96128 224.4674,13.55245 73.0344,2.5759 138.631,3.17494 194.9247,3.17494 -55.9642,0 -122.2215,-1.36595 -194.8324,-5.25395 -73.2143,-3.92031 -146.9676,-10.0663 -223.8166,-18.88656 -118.8791,-13.6442 -223.3242,-31.02112 -339.8009,-50.57815 -116.4705,-19.55598 -221.1862,-36.99475 -340.3724,-50.69165 -77.0605,-8.8558 -150.9942,-15.02659 -224.3694,-18.96225 -72.7637,-3.90286 -139.1256,-5.2726 -195.1541,-5.2726 z m 0,37.81516 v 18.86792 c 55.9187,0 121.0493,0.59523 193.5686,3.15628 72.9408,2.57593 146.0589,6.87694 222.9288,13.47675 119.09,10.22471 223.0762,23.76065 340.6056,39.2177 117.5025,15.4535 222.0471,29.0563 341.8507,39.3312 77.366,6.63525 151.0001,10.96128 224.4674,13.55245 73.0344,2.5759 138.631,3.17493 194.9247,3.17493 -55.9642,0 -122.2215,-1.36594 -194.8324,-5.25394 -73.2143,-3.92032 -146.9676,-10.0663 -223.8166,-18.88656 -118.8791,-13.6442 -223.3242,-31.02113 -339.8009,-50.57815 -116.4705,-19.55598 -221.1862,-36.99475 -340.3724,-50.69165 -77.0605,-8.8558 -150.9942,-15.0266 -224.3694,-18.96225 -72.7637,-3.90286 -139.1256,-5.27261 -195.1541,-5.27261 z"
         id="use26"
         transform="matrix(0.22300099,0,0,0.37823052,-402.85121,237.25945)" />
    </pattern>
    <clipPath
       clipPathUnits="userSpaceOnUse"
       id="clipPath54">
      <path
         id="path336"
         style="stroke-width:0.0999999;stroke-linecap:square;paint-order:markers fill stroke;stop-color:#000000"
         d="m 1691.1994,-792.32001 h 1634.8919 v 92.82806 H 1691.1994 Z" />
    </clipPath>
    <clipPath
       clipPathUnits="userSpaceOnUse"
       id="clipPath33">
      <rect
         style="fill:#000000;stroke:none;stroke-width:0.999995;stroke-linecap:butt;stroke-linejoin:bevel;paint-order:stroke markers fill;stop-color:#000000"
         id="rect33"
         width="46.19186"
         height="80.006783"
         x="74.999985"
         y="399.99661" />
    </clipPath>
    <clipPath
       clipPathUnits="userSpaceOnUse"
       id="clipPath27">
      <rect
         style="fill:none;stroke:#000000;stroke-width:0.999999;stroke-linecap:butt;stroke-linejoin:bevel;paint-order:stroke markers fill;stop-color:#000000"
         id="rect28-6"
         width="46.160622"
         height="39.922417"
         x="86.574379"
         y="420.06253" />
    </clipPath>
    <clipPath
       clipPathUnits="userSpaceOnUse"
       id="clipPath25">
      <rect
         style="fill:#ff0000;stroke:none;stroke-width:3;stroke-linecap:square;stroke-linejoin:miter;paint-order:stroke markers fill;stop-color:#000000"
         id="rect25-8"
         width="78"
         height="45.033199"
         x="763.61322"
         y="452.82422" />
    </clipPath>
    <clipPath
       clipPathUnits="userSpaceOnUse"
       id="clipPath15">
      <rect
         style="fill:none;stroke:#000000;stroke-linecap:butt;stroke-linejoin:bevel;paint-order:stroke markers fill;stop-color:#000000"
         id="rect15-7"
         width="45.034248"
         height="38.955639"
         x="262.48285"
         y="121.00073" />
    </clipPath>
    <linearGradient
       id="swatch75">
      <stop
         style="stop-color:#000000;stop-opacity:1;"
         offset="0"
         id="stop75" />
    </linearGradient>
  </defs>
  <g
     id="layer51"
     style="display:inline">
    <g
       id="layer43"
       style="display:inline">
      <path
         style="baseline-shift:baseline;display:inline;overflow:visible;opacity:1;vector-effect:none;fill-rule:evenodd;enable-background:accumulate;stop-color:#000000;stop-opacity:1"
         d="m 256.36914,166.48047 v 73.60351 c 0,9.8213 0.62361,18.95118 0.0254,27.32618 -0.36952,5.1733 -2.92571,12.04489 -3.50976,21.09765 -0.76983,11.93237 -0.0195,23.26993 -0.0195,33.93946 v 52.57421 c 0,12.63684 0.65506,24.73643 0.0156,36.2461 -0.40438,7.27896 -2.94457,15.91682 -3.50586,26.30078 -0.73249,13.55107 -0.0156,26.60241 -0.0156,39.09375 v 43.81055 c 1e-5,9.05174 0.36521,17.67627 0.01,25.85156 -0.31634,7.27574 -0.4078,7.66886 -0.61914,10.61523 -0.12568,0.0253 -1.14232,0.0292 -1.14453,0.0566 -0.0385,0.4776 -0.0274,0.47723 -0.0293,0.54883 -0.007,0.2864 -0.004,0.2502 -0.004,0.30664 -1.6e-4,0.11288 0.001,0.22542 0.002,0.37891 0.002,0.29755 0.005,0.72578 0.0117,1.23242 2e-4,0.0161 -2.1e-4,0.0228 0,0.0391 0.006,0.56223 0.004,0.39241 0.008,1.45508 0.008,2.08683 0.0137,5.39012 0.0137,10.33594 v 19.27734 c 0,4.22819 0.25529,6.50093 0.19531,6.80078 0.0351,-0.17549 -1.90513,2.31784 -3.40039,8.29883 -1.20935,4.83738 -0.29882,7.54611 -0.29882,7.68164 v 19.27735 10.51367 c 0,1.82471 -0.70578,5.36308 0.13476,10.40625 0.93228,5.59369 2.61701,9.34597 3.34961,11.99023 -0.007,0.2663 0.0195,0.91208 0.0195,2.13867 v 3.50391 14.01953 35.04883 10.51367 c 0,-0.93986 -1.18906,1.55969 0.51367,6.66797 0.34032,1.02095 0.76734,1.81738 1.20508,2.5332 -0.076,0.89045 -0.41512,2.95266 0.16992,6.46289 0.4545,2.72699 0.98955,4.33681 1.35743,5.09961 -0.16631,0.70864 -0.18698,2.5319 0.45312,5.73243 0.38586,1.92923 0.974,3.13036 1.50977,4.01953 -0.1278,1.13107 -0.26113,2.77187 0.34765,5.20703 0.3456,1.38238 0.87595,2.43822 1.45313,3.34375 v 1.24023 c 0,-1.19864 0.0693,-1.17848 -0.0391,-0.18359 -0.0937,0.86031 -0.10504,2.93397 0.78711,5.3457 -0.57392,1.38918 -0.84884,2.60163 -0.91406,3.6543 -0.18116,0.29964 -0.35625,0.38047 -0.53125,0.73047 -0.36034,0.7207 -0.51304,1.33782 -0.70312,1.97265 -0.30792,0.23524 -0.6464,0.40616 -0.92774,0.6875 -3.53853,3.53971 -3.16468,8.2116 -2.95117,9.50782 0.21353,1.29636 0.0215,1.37936 0.0215,-0.68555 v 7.54687 c -0.41041,0.79393 -0.91833,1.90775 -1.45312,4.04688 -1.06765,4.27064 -0.29883,6.38024 -0.29883,5.93164 v 5.25586 h 20 V 809.625 c 0,-0.42732 0.005,-0.40589 0.0117,-0.7168 0.30312,-0.63759 0.64671,-1.38542 1.22852,-3.13086 1.51801,-4.55411 0.51172,-6.44004 0.51171,-4.91601 v -4.97852 c 0.64292,-0.99964 1.02283,-1.98896 1.32227,-3.01562 0.38629,-0.52563 0.75526,-0.80935 1.12695,-1.55274 0.39131,-0.7826 0.57092,-1.45983 0.76368,-2.14062 0.34006,-0.48327 0.66377,-0.71036 0.99023,-1.36328 0.88396,-1.76794 1.1413,-3.24561 1.2207,-4.52735 0.18116,-0.29965 0.35625,-0.38046 0.53125,-0.73047 1.40977,-2.81947 1.21041,-5.16162 1.09766,-6.22461 0.11275,-1.06298 0.31212,-3.40511 -1.09766,-6.2246 -0.22994,-0.4599 -0.45809,-0.58698 -0.69726,-0.96094 v -1.57617 c 0,1.19858 -0.0693,1.17846 0.0391,0.18359 0.10837,-0.99487 0.37011,-3.48036 -1.09375,-6.4082 -0.19444,-0.38887 -0.39492,-0.61912 -0.59375,-0.94727 0.0314,-0.93974 -0.0117,-2.11704 -0.29883,-3.55273 -0.3198,-1.59904 -0.81704,-2.79036 -1.2832,-3.66016 0.0489,-0.88298 -0.008,-2.36967 -0.41016,-4.78516 -0.81648,-4.89891 -1.96107,-6.51057 -1.75195,-5.25586 0.0723,0.43358 0.13476,-0.76484 0.13476,-3.61328 0,0.93989 1.19105,-1.55963 -0.51171,-6.66797 -0.35027,-1.05077 -0.78813,-1.87709 -1.24024,-2.60546 V 720.25 685.20117 671.18164 667.67773 c 0,0.27795 0.64262,-1.71176 -0.23828,-5.67578 -1.25844,-5.66304 -3.01583,-9.42115 -3.40234,-11.74023 -0.11981,-0.71881 0.13672,-3.10241 0.13672,-7.11914 v -10.51367 -19.27735 c 0,-3.36934 0.0605,-4.26918 -0.29883,-2.83203 0.0306,-0.12259 2.34043,-2.88181 3.60937,-9.22656 1.08565,-5.42814 0.19336,-9.1094 0.19336,-10.72266 v -19.27734 c 0,-0.82906 -0.002,-0.99868 -0.002,-1.73828 0.214,-0.7036 0.35379,-1.26482 0.41601,-1.62891 0.63749,-3.73019 0.77983,-8.07667 1.33008,-20.73242 0.40576,-9.33251 0.008,-18.24811 0.008,-26.7207 v -43.81055 c 0,-13.21102 -0.66847,-25.89986 -0.0137,-38.01367 0.39295,-7.26968 2.92763,-15.89824 3.50391,-26.27149 0.72149,-12.98661 0.0156,-25.45824 0.0156,-37.35547 v -52.57421 c 0,-11.52796 -0.68077,-22.43327 -0.0215,-32.65235 0.33101,-5.13059 2.8569,-11.9575 3.5,-20.96094 0.73358,-10.2701 0.0254,-19.87867 0.0254,-28.75 v -73.60351 z m 7.5625,560.2793 c -0.19094,-0.12404 0.3122,0.0281 1.01563,0.70507 -0.36117,-0.22382 -0.92183,-0.64414 -1.01563,-0.70507 z m -11.9082,16.0664 c 0.36007,0.223 0.92006,0.64427 1.01367,0.70508 0.19087,0.12399 -0.31065,-0.0288 -1.01367,-0.70508 z m 19.38086,22.80664 c -0.17755,-0.13011 0.0821,-0.0273 0.5332,0.40625 -0.15505,-0.10308 -0.47111,-0.36074 -0.5332,-0.40625 z m -11.82227,5.25781 c -0.0621,0.0455 -0.37815,0.30318 -0.5332,0.40625 0.45115,-0.43356 0.71075,-0.53637 0.5332,-0.40625 z m -2.13281,1.85547 c 0.0216,0.014 0.0577,0.0474 0.0781,0.0606 -0.006,0.006 -0.0119,0.0172 -0.0176,0.0234 -0.0161,-0.0147 -0.044,-0.0684 -0.0605,-0.084 z m 0.375,0.29493 c 0.0587,0.037 0.25259,0.20474 0.29101,0.23046 0.24908,0.16672 -0.0166,0.0765 -0.34765,-0.15039 0.0206,-0.035 0.0361,-0.0461 0.0566,-0.0801 z m 0.006,3.10742 c -0.0621,0.0455 -0.37816,0.30317 -0.53321,0.40625 0.45114,-0.43356 0.71076,-0.53638 0.53321,-0.40625 z m 16.56836,3.35937 c -0.0675,-0.31797 0.16349,0.0684 0.17383,0.97461 -0.0721,-0.27238 -0.15013,-0.86302 -0.17383,-0.97461 z m -18.32032,0.14453 c -0.0621,0.0455 -0.37815,0.30318 -0.5332,0.40625 0.45114,-0.43354 0.71075,-0.53636 0.5332,-0.40625 z m 2.97071,1.70703 c 0.15505,0.10309 0.4711,0.36074 0.5332,0.40625 0.17756,0.13013 -0.0821,0.0273 -0.5332,-0.40625 z m -4.36524,1.44336 c 0.0611,0.22401 0.13145,0.761 0.15235,0.85938 0.0635,0.29909 -0.14573,-0.0486 -0.17969,-0.83984 0.009,-0.007 0.0185,-0.0124 0.0273,-0.0195 z m 17.96289,1.08594 c -0.033,-0.1553 0.22576,0.34776 0.25391,1.35742 -0.002,0.003 -0.004,0.006 -0.006,0.01 -0.10825,-0.54028 -0.22803,-1.27294 -0.24805,-1.36719 z m -0.70507,2.72461 c -0.45269,0.43566 -0.71499,0.53856 -0.53711,0.4082 0.0625,-0.0458 0.38054,-0.30404 0.53711,-0.4082 z m -19.10938,0.0488 c 0.10896,0.55068 0.23172,1.2856 0.25195,1.38086 0.0332,0.15633 -0.22685,-0.3573 -0.25195,-1.38086 z m 18.00977,0.3125 c -0.10752,-0.4097 0.5536,0.47354 0.34179,2.44531 -0.0816,-1.26 -0.27483,-2.19014 -0.34179,-2.44531 z m -0.65625,4.89844 c -0.45114,0.43355 -0.71076,0.53637 -0.53321,0.40625 0.0621,-0.0455 0.37816,-0.30317 0.53321,-0.40625 z"
         id="path383" />
      <path
         style="baseline-shift:baseline;display:inline;overflow:visible;opacity:1;vector-effect:none;fill-rule:evenodd;enable-background:accumulate;stop-color:#000000;stop-opacity:1"
         d="m 586.52148,103.55078 c -1.59331,0.0942 -2.6011,0.35742 -2.96093,0.35742 h -3.50586 -22.78125 c -29.05487,0 -28.42085,-0.42803 -67.60352,3.55664 -60.1249,6.11441 -56.86932,6.68121 -117.00586,21.25977 -18.49135,4.48275 -37.60179,8.37787 -56.63281,14.16992 -16.80788,5.11544 -23.77643,9.71195 -35.5293,16.76367 l 10.28907,17.15039 c 12.13068,-7.27841 15.78852,-10.13069 31.0625,-14.77929 17.83518,-5.42811 36.56372,-9.27285 55.52343,-13.86914 60.4288,-14.64941 54.36285,-14.70185 114.31641,-20.79883 39.08151,-3.97439 36.30819,-3.45313 65.58008,-3.45313 h 22.78125 3.50586 c 3.9535,0 5.45443,-0.0812 4.58398,-0.29882 -1.53713,-0.38429 0.36344,1.69446 6.80469,3.45117 6.24143,1.7022 10.59955,1.33836 12.47265,1.80664 0.56777,0.14194 3.18518,1.98623 8.55665,3.45117 4.49541,1.22602 8.04212,1.55924 10.47265,1.8457 2.43053,0.28646 3.73927,0.46351 6.16992,1.375 5.7995,2.17481 4.9758,2.71877 11.71875,7.53516 2.71739,1.94099 4.34386,2.77353 4.5625,2.96094 1.73248,1.48498 3.74914,3.79015 6.44727,6.48828 1.75244,1.75245 3.50343,3.50538 5.25586,5.25781 l 5.25781,5.25586 c 0.16564,0.16564 0.10447,0.11944 0.25,0.26953 -0.0617,1.72489 0.20957,3.87504 1.64258,6.38281 2.86191,5.00835 5.91883,7.02894 7.5625,8.27539 0.0446,0.36846 -0.006,0.57181 0.0781,0.99219 1.00669,5.03343 2.96562,8.47421 4.36524,11.27344 1.00576,2.01149 1.39415,2.74494 1.21094,2.19531 0.85214,2.55645 2.14551,9.90379 3.22851,14.77734 0.63661,2.86473 1.34556,5.17222 1.75391,7.00977 h -0.002 c 0.35191,1.58356 0.30506,5.17934 2.15235,10.10547 0.86913,2.31768 1.84869,3.59581 2.65625,4.52539 -0.0754,0.91812 -0.0279,2.62179 0.27344,5.33398 0.49727,4.4754 1.55612,7.42805 1.79101,9.07227 -0.10145,-0.71013 -0.0996,-0.0213 -0.0996,2.08984 v 14.01953 3.50586 c 0,1.89358 0.0717,1.64852 0.11914,2.03907 -0.0347,0.0293 -0.0691,0.0386 -0.10351,0.0684 -1.84764,1.59931 -3.15111,3.5522 -4.21875,5.6875 -1.92361,3.8472 -2.83355,5.57414 -3.62891,8.0664 -0.19884,0.62307 -0.42989,1.29538 -0.55859,2.64258 -0.0878,0.91857 -0.24137,2.54925 0.52929,4.56445 -0.58374,1.4263 -1.01985,2.60818 -1.8457,4.53516 -0.20609,0.48089 -0.74662,1.45418 -1.50586,2.97266 -1.33367,2.66733 -2.31303,4.89546 -3.24219,6.52148 -0.43259,0.75704 -1.75241,2.32889 -3.39843,5.07227 -0.81756,1.36262 -1.05526,1.74682 -1.34375,2.22851 -1.43328,0.77074 -4.62714,2.32867 -8.48828,7.29297 -2.4562,3.15795 -3.12935,6.09424 -3.59766,7.79297 -0.46831,1.69873 -0.7801,2.26613 -0.49414,1.80859 0.48859,-0.78175 -2.88258,2.76044 -6.28516,5.19532 -3.40258,2.43488 -6.16648,3.94667 -9.16015,6.4414 -3.8794,3.23283 -6.95663,6.65935 -9.73243,9.6875 -4.55577,4.96994 -7.05877,9.05415 -9.19336,10.95703 -0.15234,0.0594 -0.30783,0.1326 -0.83398,0.27344 -1.37963,0.36931 -4.02325,0.81043 -7.24609,2.86133 -9.85214,6.26954 -15.48524,13.99735 -21.0293,17.52539 -0.3153,0.20064 -2.98055,0.76745 -7.53125,2.83594 -3.55208,1.61458 -7.49512,3.37129 -11.52148,5.78711 -3.40939,2.04563 -5.74683,3.49026 -7.40235,4.56445 -0.82776,0.53709 -1.47723,0.97022 -2.10547,1.42969 -0.59429,0.43463 -0.92547,0.23314 -2.63086,2.50781 -1.58053,0.87241 -1.0315,0.58359 -3.27734,1.80859 l -2.21875,1.21094 -1.37695,2.11719 c -0.3197,0.49185 0.46486,0.11083 -1.6875,0.51172 -2.15237,0.40088 -6.50551,0.29377 -11.92578,3.0039 -5.55335,2.77668 -7.4699,5.50389 -7.39258,5.46094 -0.48236,0.26798 -4.36711,1.84898 -8.01953,3.08203 -3.65242,1.23306 -7.26197,2.34189 -9.81836,3.27149 -3.72202,1.35345 -6.46684,2.73569 -8.50782,3.41601 -0.45827,0.15276 -3.17879,0.20042 -7.56054,1.95313 -4.89501,1.95801 -8.32583,4.25144 -10.93946,5.43945 -2.14018,0.97281 -20.74567,7.9972 -22.00586,8.44727 -2.92695,1.04534 -6.59659,1.99537 -10.74218,3.58984 -5.13865,1.9764 -8.90792,4.1262 -11.83985,5.10351 -5.49175,1.83059 -11.93775,3.09222 -18.93554,5.1504 -4.6079,1.35526 -7.80451,2.86234 -9.94141,3.35546 -2.25408,0.52018 -6.55721,0.3234 -12.44336,1.79493 -5.67336,1.41834 -8.33345,3.39635 -8.76367,3.5039 -1.87307,0.46827 -6.23121,0.10443 -12.47266,1.80664 -4.76182,1.2987 -6.55645,2.67885 -7.00976,3.20508 -0.0804,0.009 -0.14398,-10e-4 -0.22461,0.008 -4.7062,0.52292 -8.35886,1.64409 -11.58594,2.63672 -1.52338,0.32908 -3.28294,0.7349 -4.49609,0.90821 2.00951,-0.28708 0.57835,-0.83208 -4.05078,0.0937 -3.40957,0.68191 -4.71692,1.32798 -4.94141,1.55078 -0.34676,-0.002 -0.82923,0.008 -1.86133,0.008 0.4486,0 -1.65905,-0.76882 -5.92969,0.29883 -1.63413,0.40853 -2.25,0.75019 -3.09179,1.10937 -0.90908,0.0268 -2.00044,0.1753 -3.05664,0.29492 0.82719,-0.13965 -0.9637,-0.81741 -5.10352,0.5625 -0.25941,0.0865 -0.40276,0.18385 -0.64062,0.26563 -1.61379,0.24909 -3.47546,0.65883 -4.7129,0.97266 h -5.5039 c 2.06497,0 1.98193,0.19205 0.68555,-0.0215 -1.29639,-0.21354 -5.96798,-0.58875 -9.50782,2.95117 -2.84952,2.84953 -3.23828,5.5565 -3.23828,7.94727 0,2.39077 0.38876,5.09774 3.23828,7.94726 3.53988,3.53989 8.21146,3.1647 9.50782,2.95118 1.29636,-0.21353 1.37936,-0.0215 -0.68555,-0.0215 5.31359,0 7.2177,0.0524 7.55859,0.0625 0.0426,10e-4 -0.15056,-8e-4 0.20117,0.006 0.044,8.3e-4 0.38637,-0.002 0.38672,-0.002 4e-5,0 0.0717,-1.5182 0.0859,-1.82031 h 0.53125 c 0.87982,0 0.76054,0.045 1.97852,0.004 0.51593,-0.0174 2.2782,0.41755 5.08398,-1.53906 0.39178,-0.0783 0.55472,-0.14119 0.97461,-0.2168 h 2.29492 c 0.0433,0.005 0.0933,0.007 0.13867,0.0117 -1.02219,0.03 -0.21425,0.54302 2.17774,0.16406 1.9808,0.1367 4.61675,0.18066 7.94922,-0.26367 6.25746,-0.83433 11.17548,-2.72795 15.12304,-3.71484 1.67319,-0.4183 2.98206,-0.81449 4.40821,-1.22461 0.64236,-0.14173 1.54951,-0.30639 2.13672,-0.42383 1.80715,-0.36143 4.7623,-0.69535 8.28906,-1.66211 3.99881,-0.18662 8.65998,0.10352 14.28515,0.10352 h 75.35352 24.53516 c 4.0167,0 6.39835,-0.25653 7.11718,-0.13672 1.88513,0.31419 5.79256,2.51029 12.39063,3.52539 3.70317,0.56972 6.39068,0.91915 8.5039,1.11133 2.11323,0.19218 3.04086,0.57201 6.28321,-0.14063 0.35105,-0.0772 1.02644,-0.45152 1.49219,-0.60547 2.02812,0.42411 1.9492,0.36508 5.77539,1.24805 2.00842,0.46348 5.24258,2.07503 10.13086,3.4082 4.36325,1.18998 7.30488,1.31921 8.51953,1.6836 3.04418,0.91325 4.33149,1.3466 5.34961,1.69336 0.0229,0.0196 0.0577,0.0773 0.0801,0.0957 2.52619,2.07699 3.58028,2.20672 5.99805,3.17383 2.44205,0.97681 4.42753,1.49472 5.80859,1.95508 1.26739,0.42246 3.20999,1.27075 5.99415,1.96679 0.76063,0.19015 1.18479,0.14644 1.76367,0.19727 0.21348,0.13915 0.12097,0.13567 1.44726,0.79883 1.16825,0.58412 2.33558,1.16779 3.50391,1.75195 0.67313,0.33657 2.0228,1.19546 4.26367,2.0918 1.70951,0.68381 2.58509,0.99276 3.25,1.19921 0.44616,0.81503 1.99821,2.55871 5.43164,4.84766 4.90546,3.27027 7.80975,3.02784 6.86524,2.62305 1.68147,0.72063 3.78982,1.91444 6.47656,3.25781 2.3366,1.16831 4.6732,2.33563 7.00976,3.50391 3.26656,1.63327 5.23632,2.38949 5.66993,2.69922 -0.65887,-0.47062 0.56556,1.90426 5.25781,5.25585 4.48911,3.2065 7.34274,3.73566 7.27344,3.68946 -0.80099,-0.53399 -0.11037,0.16112 1.98242,2.2539 l 1.14648,1.14844 1.45117,0.72461 c 2.06541,1.03271 3.37317,1.65533 4.68555,2.31836 0.27299,0.26099 0.98168,0.82075 2.54883,1.99609 3.8016,2.85121 4.88158,3.47274 3.57617,1.90625 1.12457,1.34949 1.32853,1.83178 1.2793,1.72071 0.23832,1.18543 1.03404,4.03788 2.48242,5.91601 1.60559,2.08199 3.12633,3.19124 5.11719,4.61328 4.38508,3.1322 6.69092,4.00091 7.08593,4.03516 0.36932,1.04811 0.91572,3.19059 2.85547,5.90625 3.06323,4.28853 5.60313,5.71594 5.71289,5.84766 -0.40208,-0.4825 0.27921,2.08978 4.11524,5.92578 1.47751,1.47751 2.85272,2.27784 3.92383,2.72851 0.0116,1.54878 0.24206,3.24584 1.21289,5.1875 0.77413,1.54829 1.60378,2.51701 2.31836,3.19922 0.27741,0.62347 0.81379,1.63767 1.81054,3.13281 0.16962,0.25442 0.28726,0.31346 0.45118,0.53125 0.18838,0.61467 0.33066,1.20432 0.67773,1.89844 0.1947,0.38941 0.39753,0.63095 0.59766,0.95899 -0.21911,1.51674 -0.3693,3.54639 0.61328,6.49414 1.27545,3.82633 2.35909,5.48197 2.94336,6.23828 0.0243,0.40619 0.0469,0.37916 0.0469,1.11328 0,0.0723 -0.41573,1.83579 0.13672,5.15039 0.70281,4.21547 1.65941,6.33387 1.69336,6.60547 0.0847,0.67748 -0.0762,2.60604 -0.0762,5.76953 v 15.77148 19.27735 c 0,7.85288 0.4745,10.38054 -1.33203,16.40234 -0.48292,1.60973 -0.42479,1.33438 -0.76368,2.3418 -1.03824,0.90187 -1.64034,1.72165 -1.98242,2.25195 -0.54993,0.85254 -0.80397,1.41769 -1.05273,1.97656 -0.49753,1.11775 -0.87638,2.18382 -1.36719,3.65625 -0.9179,2.75371 -1.64168,5.60404 -2.12891,8.52735 -0.0603,0.36165 -0.004,0.49632 -0.0371,0.8164 -0.68871,0.68044 -1.42886,1.44197 -2.17969,2.69336 -1.75347,2.92246 -2.33799,4.80751 -2.43555,5.67579 -0.36423,0.44529 -0.68473,0.6946 -1.06836,1.33398 -1.87016,3.11695 -2.93536,5.80235 -3.875,7.68164 -0.62307,1.24613 -0.88751,1.65452 -1.04687,1.93359 -1.35857,0.38556 -4.34649,1.86889 -6.04493,3.5 -1.70995,1.64219 -2.92821,3.32396 -4.55078,5.75782 -0.96144,1.44216 -1.44862,2.66954 -1.76757,3.72656 -0.89245,0.4202 -1.81643,0.86134 -3.63477,1.90039 -2.52696,1.44398 -4.25461,2.44173 -5.45508,3.15234 -0.60023,0.35531 -1.06078,0.63286 -1.49805,0.91016 -0.43726,0.2773 -0.24819,-0.23264 -2.1914,1.70117 -0.38904,0.38716 -1.13533,1.01606 -1.96289,2.96289 -1.18343,0.21582 -2.92022,0.59722 -5.25,2.15039 -4.23775,2.82519 -5.95331,5.67987 -6.78125,6.50782 -8.38004,8.38004 -0.25975,1.26951 -9.25586,7.69531 -3.60116,2.57225 -5.32757,4.27804 -5.66992,4.44922 -0.9953,0.49764 -4.68769,0.84846 -10.18164,3.3457 -4.47906,2.03594 -7.49597,4.42415 -9.76758,5.78711 -4.00959,2.40577 -6.22093,4.13751 -7.03516,4.43359 0.29148,-0.10599 -3.73962,-0.96313 -10.81055,1.86524 -5.53552,2.21421 -7.84837,5.20106 -8.92578,6.1914 -3.49526,1.82656 -6.36068,3.55903 -8.04687,4.1211 -0.55876,0.18625 -4.20918,-0.1909 -10.29492,1.68164 -5.46774,1.68237 -9.79273,4.04267 -13.46289,5.71094 -3.86995,1.75906 -5.66567,3.00712 -5.7461,3.03125 -0.56065,0.16819 -4.64197,-0.4746 -11.15234,1.96679 -2.93703,1.10139 -4.34357,2.56264 -5.2832,3.79492 -1.13962,0.11913 -2.8932,0.37369 -5.89844,1.125 -4.62615,1.15654 -7.83208,2.78584 -7.73242,2.73438 0.076,-0.0392 -1.02309,0.15372 -2.85938,0.46289 -0.89281,-0.11404 -2.9638,-0.46257 -5.91601,0.52148 -4.63636,1.54547 -6.97433,3.45245 -7.78711,3.80079 -0.68012,0.29147 -2.20282,0.69781 -4.48047,1.45703 -2.23748,0.74583 -3.71954,1.33711 -4.51953,1.53711 -1.23239,0.30809 -4.75864,0.18341 -9.84766,2.09179 -5.93952,2.22732 -7.37952,4.40178 -5.68555,3.67578 -3.13103,1.34187 -2.36713,1.04607 -4.17383,0.90039 -1.80669,-0.14567 -6.33058,-0.74797 -12.57812,0.14454 -7.36804,1.05257 -10.6319,1.55094 -13.94922,2.71093 -0.82933,0.29 -1.69975,0.56891 -3.11328,1.53321 -0.12522,0.0854 -0.34305,0.36631 -0.49023,0.47656 -1.4859,0.18273 -1.29796,0.19182 -4.64454,0.4707 -1.19607,0.0997 -5.13964,-1.02486 -11.47461,0.12696 -6.59,1.19818 -9.38916,3.64026 -9.39843,3.64257 1.43716,-0.35929 0.53731,-0.29882 -2.83203,-0.29882 -1.50971,0 -4.29048,-0.41876 -8.25,0.0762 -4.77793,0.59725 -7.00791,1.75367 -7.00977,1.7539 -0.67754,0.0847 -2.60607,-0.0781 -5.76953,-0.0781 h -5.25586 c -0.22549,0 -1.89672,-0.33227 -4.91992,0.0996 -4.16265,0.59466 -6.96456,1.52755 -8.58789,1.73047 -0.0979,0.0122 -1.43826,-0.0781 -4.01758,-0.0781 h -8.76172 -19.27734 -6.08985 c -0.66932,-0.33539 -1.44332,-0.71483 -3.01367,-1.23828 -4.55411,-1.51801 -6.44,-0.51367 -4.91601,-0.51367 h -1.57618 c -0.37395,-0.23917 -0.50105,-0.46732 -0.96093,-0.69727 -2.92784,-1.46386 -5.41333,-1.20211 -6.40821,-1.09375 -0.99487,0.10837 -1.01501,0.0391 0.1836,0.0391 h -1.75196 -5.25781 c -0.42384,0 -0.40163,-0.006 -0.71094,-0.0117 -0.63696,-0.30311 -1.3889,-0.64592 -3.13672,-1.22852 -4.5541,-1.51801 -6.43809,-0.51367 -4.91406,-0.51367 h -2.58594 c -0.66933,-0.3354 -1.44332,-0.71484 -3.01367,-1.23828 -4.55411,-1.51801 -6.44004,-0.51367 -4.91601,-0.51367 h -2.95899 c -0.72631,-0.45921 -1.59692,-0.89039 -2.64062,-1.23829 -5.10839,-1.70282 -7.60594,-0.51367 -6.66602,-0.51367 h -6.08984 c -0.66931,-0.33541 -1.44503,-0.7167 -3.01563,-1.24023 -4.55418,-1.51806 -6.43804,-0.51172 -4.91406,-0.51172 h -1.75391 -2.99218 c -0.90553,-0.57717 -1.96138,-1.10948 -3.34375,-1.45508 -4.83738,-1.20935 -7.54806,-0.29883 -7.6836,-0.29883 h -1.75195 c -2.6491,0 -3.2339,0.39933 -2.56445,0.28907 0.66945,-0.11027 4.75598,-0.48621 7.88281,2.64062 1.7989,1.79886 2.35286,3.71715 2.55078,5.31836 h -19.62109 c 0,-2.06501 0.19205,-1.97998 -0.0215,-0.68359 -0.21354,1.29638 -0.58875,5.96797 2.95117,9.50781 3.53989,3.53988 8.21145,3.1647 9.50782,2.95117 1.29636,-0.21353 1.37941,-0.0234 -0.68555,-0.0234 h 1.75195 c 0.74114,0 0.91245,-0.007 1.41602,-0.006 0.37624,0.23595 0.66216,0.47269 1.12305,0.70313 2.92792,1.46399 5.41331,1.20408 6.4082,1.0957 0.99489,-0.10837 1.01504,-0.0391 -0.18359,-0.0391 h 5.25585 0.83399 c 0.66932,0.33539 1.44335,0.71483 3.01367,1.23828 4.55411,1.51801 6.44005,0.51367 4.91602,0.51367 h 6.67578 c 0.37122,0.23378 0.66503,0.47021 1.11914,0.69727 2.92792,1.46399 5.41331,1.20212 6.4082,1.09375 0.9949,-0.10837 1.01505,-0.0391 -0.18359,-0.0391 h 4.33203 c 0.66903,0.33551 1.44691,0.71603 3.01953,1.24023 4.55411,1.51801 6.43809,0.51172 4.91406,0.51172 h 2.28321 c 0.79319,0.41059 1.91233,0.9195 4.05468,1.45508 4.27076,1.06772 6.37835,0.29883 5.92969,0.29883 h 5.08399 c 0.37336,0.23867 0.50002,0.46583 0.95898,0.69531 2.92788,1.46394 5.41331,1.20407 6.4082,1.0957 0.9949,-0.10837 1.01505,-0.0391 -0.18359,-0.0391 h 2.58594 c 0.66942,0.33536 1.44402,0.71507 3.01367,1.23828 4.55411,1.51801 6.43809,0.51367 4.91406,0.51367 h 7.00977 19.27734 8.76172 c 0.92554,0 3.11814,0.34631 6.49805,-0.0762 4.28778,-0.53597 7.20095,-1.52759 8.93554,-1.77539 -0.7101,0.10144 -0.0193,0.0996 2.0918,0.0996 h 5.25586 c 1.5097,0 4.29048,0.4168 8.25,-0.0781 4.77792,-0.59724 7.00791,-1.75172 7.00976,-1.75195 0.67756,-0.0847 2.60608,0.0781 5.76954,0.0781 0.13551,0 2.84621,0.91052 7.68359,-0.29883 6.09431,-1.52356 8.52507,-3.43993 8.125,-3.36719 0.56169,-0.10213 3.7672,0.6094 9.55664,0.12695 6.49809,-0.54151 8.76872,-0.62747 11.90039,-1.4082 0.78292,-0.19518 1.58201,-0.066 3.97461,-1.80078 0.27693,-0.2008 0.66125,-0.66228 1.00391,-0.97461 1.54112,-0.3219 2.04319,-0.50589 6.48632,-1.14063 4.11849,-0.58835 5.01198,-0.26023 8.14258,-0.008 3.13061,0.25243 8.35094,-0.17858 13.65821,-2.45312 5.56571,-2.38531 6.82548,-4.08031 4.83007,-3.33203 0.4888,-0.1833 3.12891,-0.27736 7.67579,-1.41407 2.78416,-0.69604 4.72676,-1.54433 5.99414,-1.96679 1.2272,-0.40907 3.31953,-0.88499 6.03515,-2.04883 3.298,-1.41342 4.41675,-2.21957 5.15235,-2.65235 0.75663,0.0451 1.75775,0.0384 3.0664,-0.17968 5.16607,-0.86101 7.94934,-1.69117 9.64063,-2.56446 1.69129,-0.87329 -0.29937,-0.17662 3.4082,-1.10351 0.93686,-0.23422 4.72629,0.11648 10.27539,-2.26172 2.42782,-1.04048 3.77283,-2.28927 4.67578,-3.38672 1.47126,-0.0225 3.91584,-0.17533 8.2793,-1.48437 4.92397,-1.4772 7.38694,-3.57557 8.27344,-3.97852 4.42973,-2.01352 8.03407,-3.87046 11.07031,-4.80469 0.70641,-0.21736 4.55332,0.23873 10.73633,-1.82226 5.50632,-1.83545 9.16263,-4.46999 11.82422,-5.80078 l 0.80664,-0.40235 0.7207,-0.54101 c 3.72305,-2.79231 5.23116,-4.17528 4.72461,-3.97266 -0.47278,0.18911 3.24674,0.8959 10.2168,-1.63867 5.58784,-2.03194 8.65838,-4.98292 10.49023,-6.08203 3.56985,-2.1419 6.03328,-3.94552 7.75586,-4.72852 1.23266,-0.5603 5.23411,-0.85729 10.84766,-3.66406 4.88238,-2.4412 7.19739,-5.24144 8.34961,-6.06445 8.08244,-5.77319 3.78941,-1.84411 11.77343,-9.82813 2.34196,-2.34195 3.08288,-3.25045 3.26758,-3.50586 1.10307,-0.1876 3.0977,-0.50393 5.72266,-2.25391 2.79923,-1.86615 4.78762,-3.24586 6.28906,-4.36132 1.50144,-1.11547 2.06798,-0.93381 4.26562,-3.97461 0.0449,-0.0621 0.11764,-0.18599 0.16797,-0.25196 0.90881,-0.0622 4.02952,-0.6311 8.32618,-4.92773 3.18698,-3.18699 3.53495,-6.40447 3.72656,-7.7793 0.264,-0.34654 0.54779,-0.76593 0.62109,-0.85742 0.78197,-0.25033 0.9926,-0.20971 2.01953,-0.76172 2.04799,-1.10086 3.86266,-2.58336 5.90039,-4.62109 3.90508,-3.90504 3.98368,-6.82087 3.625,-6.10352 v -0.002 c 1.16359,-2.32719 1.89471,-3.91929 2.61328,-5.27734 0.77443,-0.65808 1.7152,-1.62572 2.64454,-3.48438 1.11464,-2.22931 1.65971,-3.67897 1.86718,-4.48633 1.00389,-0.81032 2.23872,-1.97155 3.39063,-4.27539 1.64371,-3.28736 1.30269,-5.83487 1.11133,-7.09375 0.16759,-0.88036 0.42201,-1.75828 0.66015,-2.63867 0.62949,-0.64384 1.18557,-1.32538 1.48047,-1.72266 0.76171,-1.02613 1.03417,-1.63761 1.3086,-2.21875 1.09769,-2.32452 1.72376,-4.42558 3.08203,-8.95312 2.65864,-8.86218 2.17578,-15.16015 2.17578,-22.15039 v -19.27735 -15.77148 c 0,-1.50967 0.41683,-4.29042 -0.0781,-8.25 -0.56352,-4.50813 -1.72149,-6.87973 -1.81054,-7.41406 0.1683,1.00982 0.13476,0.40298 0.13476,-1.86133 0,0.93986 1.19101,-1.55774 -0.51172,-6.66602 -1.35038,-4.05111 -2.52049,-5.73458 -3.04101,-6.36718 0.24638,-1.36226 0.78218,-3.91127 -0.46485,-7.65235 -0.47468,-1.42404 -1.1055,-2.43608 -1.75,-3.28711 -0.17403,-0.5076 -0.26571,-0.96894 -0.54492,-1.52734 -0.77509,-1.55015 -1.60331,-2.51901 -2.31836,-3.20117 -0.13344,-0.2999 -0.58203,-0.99802 -0.87109,-1.50586 0.008,-0.0238 0.008,-0.0111 0.0156,-0.0352 0.39614,-1.25526 0.85804,-3.04944 0.54688,-5.51758 -0.31116,-2.46813 -1.80535,-5.43293 -3.74805,-7.20507 -2.7144,-2.4761 -5.1696,-3.10651 -7.5957,-3.42188 -0.16957,-0.0832 -0.20607,-0.0624 -0.36524,-0.13086 -0.48089,-0.80983 -1.27034,-1.983 -2.69726,-3.69531 -3.0634,-3.67608 -4.98498,-4.92311 -4.80274,-4.66797 0.46582,0.65215 0.17624,0.2877 -0.36523,-1.20508 -0.54147,-1.49278 -1.43483,-4.29031 -4.20703,-7.0625 -5.06296,-5.0624 -9.43757,-5.90853 -10.01953,-6.32422 -0.10866,-0.0776 -0.1013,-0.0858 -0.19532,-0.15625 -0.19784,-0.71377 -0.36921,-1.42898 -0.69531,-2.1582 -0.95955,-2.14575 -2.31418,-4.14186 -4.25,-6.46484 -2.82937,-3.39523 -4.80359,-4.37244 -5.88086,-4.73243 -0.40143,-0.46986 -1.55415,-1.43014 -3.66601,-2.69726 -2.37264,-1.42359 -4.14011,-2.15711 -5.84766,-2.94727 -0.66973,-0.86244 -1.77784,-2.1511 -4.26367,-3.80859 h -0.002 c -4.41536,-2.94325 -6.98166,-3.48996 -6.74414,-3.32031 0.65886,0.47061 -0.56362,-1.90622 -5.25586,-5.25782 -3.81793,-2.72709 -6.94496,-3.60919 -8.35157,-4.3125 -2.3366,-1.1683 -4.67127,-2.33563 -7.00781,-3.5039 h -0.002 c -1.98642,-0.99321 -4.42019,-2.41446 -7.54102,-3.75195 -1.84143,-0.78919 -2.80672,-1.13494 -3.51367,-1.35352 -0.49316,-0.84336 -2.04191,-2.55009 -5.39453,-4.78516 -4.77281,-3.18189 -7.7404,-2.97702 -7.08984,-2.71679 -0.18467,-0.0739 -1.08265,-0.58038 -2.7461,-1.41211 -1.16825,-0.58412 -2.33753,-1.1678 -3.50586,-1.75196 -0.32506,-0.16253 -1.78646,-1.28559 -4.81445,-2.29492 -1.51401,-0.50469 -2.75547,-0.62678 -3.67188,-0.61719 -0.002,3e-5 -0.006,-0.002 -0.008,-0.002 -0.85793,-0.28726 -1.68197,-0.58539 -3.33008,-1.13476 -2.12379,-0.70793 -3.7169,-1.15356 -4.70507,-1.54883 -0.31035,-0.12414 -0.34725,-0.17412 -0.58594,-0.29102 -0.8397,-0.77128 -1.68553,-1.35603 -2.1836,-1.63476 -1.12252,-0.62821 -1.78826,-0.85908 -2.61718,-1.16407 -1.65784,-0.60997 -3.84644,-1.29865 -7.72071,-2.46093 -4.49123,-1.34737 -7.61993,-1.44482 -9.0039,-1.82227 -2.24029,-0.61099 -5.70719,-2.40358 -10.89844,-3.60156 -8.12977,-1.8761 -11.28253,-2.63102 -14.19922,-2.98047 -0.72917,-0.0874 -0.79657,-0.62058 -4.16016,0.17578 -0.66614,0.15772 -1.64736,0.50838 -2.83398,1.21875 -0.88923,-0.12443 -1.21269,-0.13684 -2.31641,-0.30664 -1.80831,-0.2782 -5.63814,-2.4003 -12.14257,-3.48437 -5.04313,-0.84052 -8.58152,-0.13672 -10.40625,-0.13672 H 473.1559 455.8102 c 5.20844,-1.80431 9.1219,-4.02736 12.17382,-5.20118 2.75081,-1.05801 6.25758,-1.9801 10.28907,-3.41992 2.64459,-0.94449 17.82693,-6.47264 23.55468,-9.07617 4.52102,-2.05501 7.71023,-4.12354 10.0918,-5.07617 0.0907,-0.0363 2.34553,-0.18028 6.45703,-1.55078 3.92761,-1.3092 6.82694,-2.79716 9.01758,-3.59375 1.46779,-0.53374 5.43414,-1.78412 9.38281,-3.11719 3.94868,-1.33307 7.69139,-2.52515 11.33399,-4.54883 5.18365,-2.87981 6.9536,-5.21899 6.625,-5.05469 0.20695,-0.10347 2.49819,-0.45855 6.64258,-1.23046 3.45449,-0.64342 8.62241,-2.6102 12.54296,-6.68946 6.00941,-3.27346 9.31693,-5.05219 11.00977,-6.10547 0.23747,-0.14775 0.36322,-0.17029 1.1875,-0.83203 0.20607,-0.16543 0.46345,-0.36866 0.91406,-0.83008 0.32632,-0.33413 0.87646,-0.93406 1.51172,-2.10546 0.0767,-0.0461 0.0823,-0.0529 0.16016,-0.0996 2.69391,-1.61635 5.92525,-3.10008 9.50781,-4.72852 1.1768,-0.53491 4.99964,-0.99482 9.99219,-4.17187 9.85212,-6.26954 15.48523,-13.99735 21.02929,-17.52539 -0.56893,0.36205 -0.0477,0.0469 1.68165,-0.41602 1.72931,-0.46291 4.80809,-1.13685 8.04492,-3.78516 6.14924,-5.0312 9.00636,-10.47213 11.55273,-13.25 2.8064,-3.06153 5.32605,-5.78212 7.79297,-7.83789 -0.47257,0.39381 4.01909,-2.69508 7.99609,-5.54101 3.97701,-2.84594 8.1096,-5.26287 11.60743,-10.85938 1.95318,-3.1251 2.428,-5.69905 2.8125,-7.09375 0.15311,-0.5554 0.24539,-0.76769 0.31445,-0.94726 0.2444,-0.0688 3.17145,-1.40194 7.73047,-5.96094 4.25234,-4.25238 4.20486,-7.01138 3.25586,-5.42969 0.5212,-0.86867 1.95597,-2.54113 3.61328,-5.4414 1.66304,-2.91033 2.76271,-5.49223 3.76562,-7.49805 0.40905,-0.8181 1.17704,-2.11879 2,-4.03906 1.09971,-2.56598 2.73614,-5.77573 3.92969,-9.95313 0.43055,-1.50693 0.75628,-2.74089 0.88281,-4.51758 0.0582,-0.81647 0.13928,-2.11926 -0.13476,-3.57226 0.10689,-0.22125 0.0538,-0.12501 0.16992,-0.36133 1.31687,-0.8325 2.85458,-1.96394 3.87891,-3.50586 1.58322,-2.38324 1.99191,-4.30137 2.40234,-6.35352 0.8565,-4.2825 0.19531,-6.77374 0.19531,-7.21875 v -3.50586 -14.01953 c 0,-0.22548 0.33033,-1.89475 -0.10156,-4.91797 -0.60757,-4.25304 -1.5523,-7.00782 -1.71289,-8.45312 0.10871,0.97841 1.52154,-2.19223 -0.32422,-8.65234 -1.05297,-3.68544 -2.98482,-5.57325 -3.77539,-6.47852 -0.0685,-0.0784 -0.0311,-0.0444 -0.084,-0.10937 -0.21968,-0.86679 -0.38141,-2.94485 -1.25,-6.85352 -0.63661,-2.86471 -1.34556,-5.17221 -1.75391,-7.00977 -0.7689,-3.46004 -1.78225,-10.77445 -3.7793,-16.76562 -1.00933,-3.02795 -2.13238,-4.48938 -2.29492,-4.81445 -1.48187,-2.96375 -2.00329,-3.93374 -2.41211,-5.52539 0.14097,-1.0337 0.32954,-2.79063 -0.55078,-5.43165 -1.07343,-3.22026 -3.09907,-4.87887 -3.97656,-5.58398 -0.8775,-0.7051 -0.9534,-0.83815 -0.19141,-0.0762 -2.53771,-2.53772 -3.08967,-2.88681 -3.83008,-3.47656 0.0781,-1.39663 -0.0729,-3.20368 -0.96484,-5.4336 -2.56425,-6.41069 -6.40743,-7.55195 -5.71875,-6.86328 l -5.25781,-5.25586 c -1.75243,-1.75243 -3.5054,-3.50538 -5.25782,-5.25781 -1.97503,-1.97503 -4.28692,-4.71525 -7.57226,-7.53125 -2.9796,-2.55393 -5.24279,-3.54144 -5.95313,-4.04883 -5.44518,-3.88941 -8.2521,-6.96271 -16.32031,-9.98828 -4.30671,-1.61501 -8.05697,-2.18212 -10.85351,-2.51172 -2.79655,-0.3296 -4.6432,-0.48436 -7.55079,-1.27734 -0.69827,-0.19044 -3.43293,-2.17466 -8.96875,-3.5586 -6.14129,-1.53532 -10.33201,-1.2278 -12.06054,-1.69921 1.4006,0.38198 -0.60898,-1.90714 -7.21485,-3.5586 -2.70204,-0.67552 -4.8813,-0.75048 -6.47461,-0.65625 z m 80.05664,56.15625 c 0.0298,0.003 0.0425,0.14009 -0.0137,0.41211 -0.007,0.033 -0.0207,0.17101 -0.0293,0.20898 0.007,-0.34393 0.009,-0.62422 0.043,-0.62109 z m -83.20117,247.72656 c -0.0661,0.0323 -0.11562,0.11853 -0.5332,0.24414 0.14904,-0.068 0.46113,-0.21229 0.5332,-0.24414 z m -2.27734,0.16993 c -0.0667,0.0639 -0.30112,0.3817 -0.33984,0.40625 -0.003,2.7e-4 -0.007,0.002 -0.01,0.002 -0.13831,0.0705 -0.0891,-0.11098 -0.0352,-0.15039 0.0368,-0.0269 0.28545,-0.18919 0.38477,-0.25781 z m 2.41211,73.06835 c 0.0346,-0.002 0.13778,0.0225 0.17578,0.0215 -0.16545,0.0277 -0.53112,0.0545 -0.60352,0.0645 -0.20521,0.0281 -0.0591,-0.0621 0.42774,-0.0859 z m -56.3418,3.12305 c -0.005,-5.6e-4 0.55235,0.12012 0.56641,0.12305 -0.46775,-0.0121 -0.55231,-0.12136 -0.56641,-0.12305 z m 32.36133,2.75 c 0.17674,1.32587 0.79397,2.67156 1.49805,3.8457 -0.42713,-0.65717 -0.81992,-1.42129 -1.11524,-2.33789 -1.12594,-3.49467 -0.75245,-4.28072 -0.38281,-1.50781 z m 135.7168,74.23438 c 0.0347,0.0148 0.13506,0.11065 0.17382,0.1289 -0.0689,-0.0181 -0.27902,-0.10011 -0.33007,-0.11523 -0.40088,-0.11876 -0.2991,-0.20828 0.15625,-0.0137 z m 14.07226,20.66601 c -0.27974,-0.19293 0.0525,-0.0532 0.61133,0.47266 -0.17041,-0.11063 -0.53254,-0.41832 -0.61133,-0.47266 z m -16.37695,4.41797 c -0.0203,0.0956 -0.14278,0.83269 -0.25195,1.38672 0.0246,-1.02572 0.28519,-1.54323 0.25195,-1.38672 z m 19.81641,2.76953 c -0.0246,1.02569 -0.2852,1.54323 -0.25196,1.38672 0.0203,-0.0956 0.14278,-0.83269 0.25196,-1.38672 z m -17.64649,101.91992 c 0.0202,0.091 0.16077,0.3625 0.1875,0.47266 -0.0869,-0.20057 -0.14601,-0.32605 -0.1875,-0.47266 z m 6.11524,27.77539 c -0.36906,0.35233 -0.55248,0.43454 -0.32227,0.25977 0.0466,-0.0354 0.24471,-0.20507 0.32227,-0.25977 z m -176.58985,85.4043 c -0.0299,0.0469 -0.14462,0.19145 -0.16992,0.22852 -0.27649,0.40511 -0.25244,0.20604 0.16992,-0.22852 z m 16.34961,11.50195 c 0.23323,-0.34172 0.1994,-0.10059 -0.25586,0.35938 0.049,-0.0805 0.21882,-0.30511 0.25586,-0.35938 z M 259.2832,825.23828 c 0.58413,0.62153 0.74941,1.0007 0.52539,0.66602 -0.0588,-0.0878 -0.40489,-0.48057 -0.52539,-0.66602 z m 28.00586,3.4668 c 0.52582,0.55876 0.66559,0.89107 0.47266,0.61133 -0.0543,-0.0788 -0.36203,-0.44092 -0.47266,-0.61133 z m 36.68555,5.14258 c 0.43354,0.45113 0.53637,0.71075 0.40625,0.5332 -0.0455,-0.0621 -0.30317,-0.37815 -0.40625,-0.5332 z m 113.61719,8.46875 c 0.32857,0.18587 0.87477,0.5791 1.05468,0.66796 0.37802,0.18672 0.51406,0.25497 0.25,0.11915 -0.1587,-0.0816 -0.6115,-0.25183 -1.30468,-0.78711 z m -129.34375,3.88671 c 0.0455,0.0621 0.30317,0.37816 0.40625,0.53321 -0.43357,-0.45115 -0.53638,-0.71076 -0.40625,-0.53321 z"
         id="path384" />
    </g>
  </g>
</svg>
