<?xml version="1.0" encoding="UTF-8" standalone="no"?>
<!-- Created with Inkscape (http://www.inkscape.org/) -->

<svg
   width="1000"
   height="1000"
   viewBox="0 0 1000 1000"
   version="1.1"
   id="svg1"
   xmlns:xlink="http://www.w3.org/1999/xlink"
   xmlns="http://www.w3.org/2000/svg"
   xmlns:svg="http://www.w3.org/2000/svg">
  <defs
     id="defs1">
    <pattern
       xlink:href="#pattern359"
       preserveAspectRatio="xMidYMid"
       id="pattern372"
       patternTransform="matrix(0.5,0,0,0.5,147.15462,1548.2922)" />
    <pattern
       xlink:href="#pattern357"
       preserveAspectRatio="xMidYMid"
       id="pattern371"
       patternTransform="matrix(0.5,0,0,0.5,221.32076,1552.4298)" />
    <pattern
       xlink:href="#pattern358"
       preserveAspectRatio="xMidYMid"
       id="pattern370"
       patternTransform="matrix(0.5,0,0,0.5,230.96346,1527.8214)" />
    <pattern
       xlink:href="#pattern355"
       preserveAspectRatio="xMidYMid"
       id="pattern369"
       patternTransform="matrix(0.5,0,0,0.5,287.08178,1553.6581)" />
    <pattern
       xlink:href="#pattern354"
       preserveAspectRatio="xMidYMid"
       id="pattern368"
       patternTransform="matrix(0.5,0,0,0.5,230.97274,1529.1717)" />
    <pattern
       xlink:href="#pattern342"
       preserveAspectRatio="xMidYMid"
       id="pattern360"
       patternTransform="matrix(0.5,0,0,0.5,210.45332,1525.5392)" />
    <pattern
       xlink:href="#pattern342"
       preserveAspectRatio="xMidYMid"
       id="pattern359"
       patternTransform="matrix(0.5,0,0,0.5,152.11125,1550.7705)" />
    <pattern
       xlink:href="#pattern342"
       preserveAspectRatio="xMidYMid"
       id="pattern358"
       patternTransform="matrix(0.5,0,0,0.5,202.11125,1533.2444)" />
    <pattern
       xlink:href="#pattern342"
       preserveAspectRatio="xMidYMid"
       id="pattern357"
       patternTransform="matrix(0.5,0,0,0.5,211.4075,1546.234)" />
    <pattern
       xlink:href="#pattern342"
       preserveAspectRatio="xMidYMid"
       id="pattern356"
       patternTransform="matrix(0.5,0,0,0.5,232.14929,1573.2544)" />
    <pattern
       xlink:href="#pattern342"
       preserveAspectRatio="xMidYMid"
       id="pattern355"
       patternTransform="matrix(0.5,0,0,0.5,275,1552.7287)" />
    <pattern
       xlink:href="#pattern342"
       preserveAspectRatio="xMidYMid"
       id="pattern354"
       patternTransform="matrix(0.5,0,0,0.5,235,1529.7913)" />
    <pattern
       xlink:href="#shading24"
       preserveAspectRatio="xMidYMid"
       id="pattern342"
       patternTransform="matrix(0.5,0,0,0.5,213.95332,1537.5392)"
       x="0"
       y="0" />
    <pattern
       patternUnits="userSpaceOnUse"
       width="338.5925"
       height="42.989567"
       patternTransform="translate(213.95332,1537.5392) scale(0.5)"
       preserveAspectRatio="xMidYMid"
       id="shading24"
       style="fill:#000000">
      <path
         style="fill-rule:nonzero;stroke:none;stroke-width:0.1;stroke-linecap:square;paint-order:markers fill stroke;stop-color:#000000"
         d="m 1806.4991,-758.06464 v 18.86792 c 55.9187,0 121.0493,0.59523 193.5686,3.15628 72.9408,2.57593 146.0589,6.87694 222.9288,13.47675 119.09,10.22471 223.0762,23.76065 340.6056,39.2177 117.5025,15.4535 222.0471,29.0563 341.8507,39.3312 77.366,6.63525 151.0001,10.96128 224.4674,13.55245 73.0344,2.5759 138.631,3.17493 194.9247,3.17493 -55.9642,0 -122.2215,-1.36594 -194.8324,-5.25394 -73.2143,-3.92032 -146.9676,-10.0663 -223.8166,-18.88656 -118.8791,-13.6442 -223.3242,-31.02113 -339.8009,-50.57815 -116.4705,-19.55598 -221.1862,-36.99475 -340.3724,-50.69165 -77.0605,-8.8558 -150.9942,-15.0266 -224.3694,-18.96225 -72.7637,-3.90286 -139.1256,-5.27261 -195.1541,-5.27261 z m 0,37.81515 v 18.86793 c 55.9187,0 121.0493,0.59523 193.5686,3.15627 72.9408,2.57593 146.0589,6.87694 222.9288,13.47676 119.09,10.22471 223.0762,23.76065 340.6056,39.2177 117.5025,15.4535 222.0471,29.0563 341.8507,39.33119 77.366,6.63526 151.0001,10.96128 224.4674,13.55245 73.0344,2.5759 138.631,3.17493 194.9247,3.17493 -55.9642,0 -122.2215,-1.36594 -194.8324,-5.25394 -73.2143,-3.92031 -146.9676,-10.0663 -223.8166,-18.88656 -118.8791,-13.6442 -223.3242,-31.02112 -339.8009,-50.57815 -116.4705,-19.55598 -221.1862,-36.99475 -340.3724,-50.69165 -77.0605,-8.8558 -150.9942,-15.02659 -224.3694,-18.96225 -72.7637,-3.90286 -139.1256,-5.2726 -195.1541,-5.2726 z m 0,37.81516 v 18.86792 c 55.9187,0 121.0493,0.59523 193.5686,3.15628 72.9408,2.57593 146.0589,6.87694 222.9288,13.47675 119.09,10.22471 223.0762,23.76065 340.6056,39.2177 117.5025,15.4535 222.0471,29.0563 341.8507,39.3312 77.366,6.63525 151.0001,10.96128 224.4674,13.55245 73.0344,2.5759 138.631,3.17493 194.9247,3.17493 -55.9642,0 -122.2215,-1.36594 -194.8324,-5.25394 -73.2143,-3.92032 -146.9676,-10.0663 -223.8166,-18.88656 -118.8791,-13.6442 -223.3242,-31.02113 -339.8009,-50.57815 -116.4705,-19.55598 -221.1862,-36.99475 -340.3724,-50.69165 -77.0605,-8.8558 -150.9942,-15.0266 -224.3694,-18.96225 -72.7637,-3.90286 -139.1256,-5.27261 -195.1541,-5.27261 z m 0,37.81515 v 18.86793 c 55.9187,0 121.0493,0.59523 193.5686,3.15627 72.9408,2.57593 146.0589,6.87694 222.9288,13.47676 119.09,10.22471 223.0762,23.76065 340.6056,39.2177 117.5025,15.4535 222.0471,29.0563 341.8507,39.33119 77.366,6.63526 151.0001,10.96128 224.4674,13.55245 73.0344,2.5759 138.631,3.17494 194.9247,3.17494 -55.9642,0 -122.2215,-1.36595 -194.8324,-5.25395 -73.2143,-3.92031 -146.9676,-10.0663 -223.8166,-18.88656 -118.8791,-13.6442 -223.3242,-31.02112 -339.8009,-50.57815 -116.4705,-19.55598 -221.1862,-36.99475 -340.3724,-50.69165 -77.0605,-8.8558 -150.9942,-15.02659 -224.3694,-18.96225 -72.7637,-3.90286 -139.1256,-5.2726 -195.1541,-5.2726 z m 0,37.81516 v 18.86792 c 55.9187,0 121.0493,0.59523 193.5686,3.15628 72.9408,2.57593 146.0589,6.87694 222.9288,13.47675 119.09,10.22471 223.0762,23.76065 340.6056,39.2177 117.5025,15.4535 222.0471,29.0563 341.8507,39.3312 77.366,6.63525 151.0001,10.96128 224.4674,13.55245 73.0344,2.5759 138.631,3.17493 194.9247,3.17493 -55.9642,0 -122.2215,-1.36594 -194.8324,-5.25394 -73.2143,-3.92032 -146.9676,-10.0663 -223.8166,-18.88656 -118.8791,-13.6442 -223.3242,-31.02113 -339.8009,-50.57815 -116.4705,-19.55598 -221.1862,-36.99475 -340.3724,-50.69165 -77.0605,-8.8558 -150.9942,-15.0266 -224.3694,-18.96225 -72.7637,-3.90286 -139.1256,-5.27261 -195.1541,-5.27261 z m 0,37.81515 v 18.86793 c 55.9187,0 121.0493,0.59523 193.5686,3.15627 72.9408,2.57593 146.0589,6.87694 222.9288,13.47676 119.09,10.22471 223.0762,23.76065 340.6056,39.2177 117.5025,15.4535 222.0471,29.0563 341.8507,39.33119 77.366,6.63526 151.0001,10.96128 224.4674,13.55245 73.0344,2.5759 138.631,3.17494 194.9247,3.17494 -55.9642,0 -122.2215,-1.36595 -194.8324,-5.25395 -73.2143,-3.92031 -146.9676,-10.0663 -223.8166,-18.88656 -118.8791,-13.6442 -223.3242,-31.02112 -339.8009,-50.57815 -116.4705,-19.55598 -221.1862,-36.99475 -340.3724,-50.69165 -77.0605,-8.8558 -150.9942,-15.02659 -224.3694,-18.96225 -72.7637,-3.90286 -139.1256,-5.2726 -195.1541,-5.2726 z m 0,37.81516 v 18.86792 c 55.9187,0 121.0493,0.59523 193.5686,3.15628 72.9408,2.57593 146.0589,6.87694 222.9288,13.47675 119.09,10.22471 223.0762,23.76065 340.6056,39.2177 117.5025,15.4535 222.0471,29.0563 341.8507,39.3312 77.366,6.63525 151.0001,10.96128 224.4674,13.55245 73.0344,2.5759 138.631,3.17493 194.9247,3.17493 -55.9642,0 -122.2215,-1.36594 -194.8324,-5.25394 -73.2143,-3.92032 -146.9676,-10.0663 -223.8166,-18.88656 -118.8791,-13.6442 -223.3242,-31.02113 -339.8009,-50.57815 -116.4705,-19.55598 -221.1862,-36.99475 -340.3724,-50.69165 -77.0605,-8.8558 -150.9942,-15.0266 -224.3694,-18.96225 -72.7637,-3.90286 -139.1256,-5.27261 -195.1541,-5.27261 z"
         id="use26"
         transform="matrix(0.22300099,0,0,0.37823052,-402.85121,237.25945)" />
    </pattern>
    <clipPath
       clipPathUnits="userSpaceOnUse"
       id="clipPath54">
      <path
         id="path336"
         style="stroke-width:0.0999999;stroke-linecap:square;paint-order:markers fill stroke;stop-color:#000000"
         d="m 1691.1994,-792.32001 h 1634.8919 v 92.82806 H 1691.1994 Z" />
    </clipPath>
    <clipPath
       clipPathUnits="userSpaceOnUse"
       id="clipPath33">
      <rect
         style="fill:#000000;stroke:none;stroke-width:0.999995;stroke-linecap:butt;stroke-linejoin:bevel;paint-order:stroke markers fill;stop-color:#000000"
         id="rect33"
         width="46.19186"
         height="80.006783"
         x="74.999985"
         y="399.99661" />
    </clipPath>
    <clipPath
       clipPathUnits="userSpaceOnUse"
       id="clipPath27">
      <rect
         style="fill:none;stroke:#000000;stroke-width:0.999999;stroke-linecap:butt;stroke-linejoin:bevel;paint-order:stroke markers fill;stop-color:#000000"
         id="rect28-6"
         width="46.160622"
         height="39.922417"
         x="86.574379"
         y="420.06253" />
    </clipPath>
    <clipPath
       clipPathUnits="userSpaceOnUse"
       id="clipPath25">
      <rect
         style="fill:#ff0000;stroke:none;stroke-width:3;stroke-linecap:square;stroke-linejoin:miter;paint-order:stroke markers fill;stop-color:#000000"
         id="rect25-8"
         width="78"
         height="45.033199"
         x="763.61322"
         y="452.82422" />
    </clipPath>
    <clipPath
       clipPathUnits="userSpaceOnUse"
       id="clipPath15">
      <rect
         style="fill:none;stroke:#000000;stroke-linecap:butt;stroke-linejoin:bevel;paint-order:stroke markers fill;stop-color:#000000"
         id="rect15-7"
         width="45.034248"
         height="38.955639"
         x="262.48285"
         y="121.00073" />
    </clipPath>
    <linearGradient
       id="swatch75">
      <stop
         style="stop-color:#000000;stop-opacity:1;"
         offset="0"
         id="stop75" />
    </linearGradient>
  </defs>
  <g
     id="layer51"
     style="display:inline">
    <g
       id="layer44"
       style="display:inline">
      <path
         style="baseline-shift:baseline;display:inline;overflow:visible;opacity:1;vector-effect:none;fill-rule:evenodd;enable-background:accumulate;stop-color:#000000;stop-opacity:1"
         d="m 519.19141,129.81055 c -2.11913,-0.10948 -4.74484,-0.0544 -7.82422,0.60547 -6.90012,1.4786 -11.70941,4.34139 -15.28711,5.61914 -3.69314,1.31898 -6.84704,2.53842 -9.57617,3.2207 -1.68437,0.42109 -5.46169,0.30239 -10.83594,1.83789 -7.8747,2.24992 -15.94609,5.7126 -23.07227,9.59961 l -0.0859,0.0469 -0.0859,0.0488 c -4.08902,2.33658 -8.17856,4.67318 -12.26758,7.00977 l -0.76367,0.4375 -0.67578,0.5625 c -4.23516,3.5293 -7.08722,6.53309 -9.35352,7.92773 -1.3617,0.83797 -5.97573,1.48153 -12.17187,5.19922 -6.31783,3.79069 -10.74511,8.13518 -14.6875,10.95117 -3.07789,2.1985 -6.56433,4.37231 -10.24805,6.82813 -8.53276,5.6885 -16.756,10.85679 -25.44727,18.21094 -4.71994,3.9938 -6.94788,7.37839 -8.30273,8.39453 -4.69932,3.52449 -12.05512,6.48433 -19.52344,12.45898 -6.95547,5.56438 -11.85898,11.77304 -16.5957,16.50977 -13.12088,13.12087 -18.32276,17.71738 -30.40235,32.21289 -5.08153,6.09784 -8.27405,11.72132 -11.65625,15.10351 -4.30092,4.30093 -12.18259,8.16271 -19.51562,16.01953 -3.15952,3.3852 -4.12267,6.76479 -4.81055,8.73047 -0.68787,1.96569 -1.13735,2.57887 -0.77148,2.14649 -2.61299,3.08808 -7.61286,6.2511 -13.16797,11.3789 -3.4267,3.16311 -6.31846,6.30675 -9.05078,9.03907 l -7.00977,7.00976 c -1.75188,1.75188 -4.78798,4.02764 -7.83203,7.94141 -3.47666,4.46999 -5.06854,6.56945 -6.41601,9.10547 -0.33687,0.634 -0.68696,1.30528 -1.03907,2.48242 -0.0541,0.18093 -0.0958,0.52154 -0.1582,0.74023 -0.71159,0.8742 -0.71021,0.91463 -2.5332,2.99805 -1.81282,2.07178 -3.69972,3.95125 -5.63672,5.64648 -0.15876,0.0895 -0.46734,0.27447 -1.08594,0.58008 -1.37771,0.68063 -4.28662,2.03593 -6.49805,5.57422 -3.69901,5.91841 -3.81692,9.41746 -3.70898,10.21289 -0.46429,0.0438 -2.0265,1.46242 -4.57422,4.85938 -2.86686,3.82248 -4.43254,7.28469 -5.83203,9.61718 -1.63815,2.73027 -3.55395,5.68306 -5.42383,9.04883 -1.85725,3.34305 -2.68071,5.66805 -3.24219,6.56641 -0.75297,1.20476 -2.75538,3.24733 -5.09961,6.76367 -3.07688,4.61533 -4.00824,8.79543 -4.79882,11.5625 -1.07594,3.76578 -1.30231,5.75617 -1.32813,5.81641 0.45071,-1.05165 -1.03142,0.27181 -3.25781,4.72461 -3.5616,7.1232 -5.67076,15.31406 -7.48242,20.38671 -1.71134,4.79176 -3.26609,9.32464 -5.03125,13.44336 -0.66281,1.54654 -4.02239,5.04658 -5.76758,12.02735 -1.87747,7.50981 -0.20655,11.56911 -0.18359,11.41992 -0.38044,2.47284 -1.8864,6.09189 -3.26758,11.15625 -0.45479,1.66756 -1.63687,4.46825 -2.05469,8.64648 -0.48077,4.80762 -0.0508,8.66827 -0.0508,11.50977 v 7.00977 c 0,3.58407 0.20939,6.17953 0.0508,7.76562 -0.10949,1.09493 -1.21385,3.89912 -1.74219,8.6543 -0.42065,3.78574 -0.0605,6.51293 -0.0605,8.11328 v 3.50586 8.76172 3.5039 c 0,0.22549 -0.33228,1.89673 0.0996,4.91992 0.59466,4.16263 1.52755,6.96452 1.73047,8.5879 0.0122,0.0979 -0.0781,1.43825 -0.0781,4.01757 v 1.62305 l 0.51367,1.53906 c 0.81323,2.43972 1.15514,3.24987 1.22461,3.33008 -0.008,0.11683 0.004,0.0756 -0.0156,0.24414 -0.13327,1.12715 -0.56972,3.60139 0.54297,6.93945 1.12606,3.37815 2.88006,5.11966 3.61719,5.98047 0.19781,0.231 0.17601,0.22448 0.24609,0.32618 0.58253,1.64734 0.7293,2.09498 0.9004,2.68164 -0.41849,1.78593 -0.31089,3.30745 -0.16993,4.31054 0.41999,2.98868 1.17672,4.67714 2.61914,8.28321 2.0368,5.09201 4.3693,8.38746 5.31055,10.64648 1.15762,2.77826 2.13195,5.954 3.12109,9.41602 0.92742,3.24592 1.1859,8.63055 3.88868,15.11718 2.21783,5.32282 5.08379,7.62511 6.11718,8.76758 1.7904,3.44765 3.51128,6.35034 4.23047,8.32813 0.0488,0.13413 -0.11928,3.15781 1.66407,8.50781 1.63388,4.90165 3.7057,9.38993 5.79882,13.57617 1.68151,3.36304 3.4193,5.26763 4.12891,6.33203 1.42272,2.13409 2.55276,3.6397 3.14258,4.67188 0.41184,0.72071 1.11043,3.74485 4.05078,7.86133 3.06322,4.28851 5.60116,5.71397 5.71094,5.8457 l 1.5039,1.80469 0.0332,0.0137 c 0.17922,1.66629 0.4816,4.65279 3.59375,8.54297 4.27115,5.33894 7.70698,5.80856 6.66406,4.93945 0.97655,0.8138 2.41062,2.46726 4.58984,4.64648 l 7.00977,7.00977 c 0.50163,0.50163 1.74399,2.31091 4.57422,4.43359 5.52161,4.14119 10.26182,4.47426 11.04882,4.78907 1.27991,0.51196 1.64949,0.7918 1.21875,0.46875 -0.94099,-0.70575 -0.0787,0.81552 3.50586,3.5039 3.3583,2.51871 5.14284,2.7982 4.35938,2.32813 0.21793,0.13076 2.00764,2.21169 6.46289,4.12109 4.79719,2.05594 7.56656,1.97182 7.53125,1.95899 3.41482,1.24175 7.26182,3.18314 11.83789,5.08984 2.99752,1.24896 6.00645,2.44854 9.01953,3.60742 5.41448,2.08249 9.97099,3.28628 13.13672,4.86914 -0.58761,-0.2938 1.1974,2.34968 7.00977,5.25586 5.92642,2.96321 11.12772,4.07877 14.64648,5.54492 3.06903,1.27877 4.26244,2.07502 6.63477,3.36524 2.37233,1.29022 5.67023,2.78382 10.35156,4.06054 5.3755,1.46605 9.03315,1.34818 10.51367,1.75196 0.39259,0.10707 3.22766,2.42289 9.43359,3.66406 6.01373,1.20275 9.41826,0.11615 9.81641,0.15234 l 2.09375,0.19141 1.99219,-0.66992 c 0.0385,-0.0129 -0.55702,-0.21686 1.17383,0.49023 1.73085,0.7071 4.8396,2.69584 10.0039,3.4336 3.90304,0.55757 5.92579,0.45971 6.38477,0.21093 0.0462,0.0293 0.0383,0.0185 0.0879,0.0508 1.15079,0.74824 3.23393,2.31502 6.79101,3.10547 5.67473,1.26107 9.45714,0.23829 10.93164,0.23828 h 14.01954 10.51562 c 1.4745,0 5.25692,1.02279 10.93164,-0.23828 3.55709,-0.79045 5.64023,-2.35723 6.79102,-3.10547 0.551,-0.35826 0.86571,-0.51213 0.97265,-0.57031 0.29401,-0.067 0.16117,-0.0406 0.42188,-0.0957 2.73182,1.31694 4.22113,0.91352 5.35547,0.84766 1.34333,-0.078 2.42869,-0.26777 3.77539,-0.53711 2.80543,-0.56109 4.3236,-1.12289 4.89648,-1.44336 0.57961,0.11917 2.12542,0.15499 4.89649,-0.19141 4.28779,-0.53596 7.20095,-1.52759 8.93554,-1.77539 0.46059,-0.0658 0.32558,-0.0506 2.21094,0.21875 1.88537,0.26934 5.5512,0.52285 9.31445,-0.41797 3.4568,-0.8642 5.44245,-2.38962 6.52539,-3.09375 0.29446,-0.19145 0.33595,-0.20228 0.48829,-0.28516 -0.0406,0.19078 2.16674,0.6392 7.32812,0.12305 4.96531,-0.49652 7.7696,-1.65998 8.67383,-1.74219 1.19311,-0.10846 5.04091,0.93948 11.25195,-0.0957 6.41899,-1.06982 9.81335,-3.34463 10.9668,-3.5918 4.08187,-0.87468 3.63659,-0.7384 6.31641,-1.28906 0.0557,0.0231 0.13829,0.0742 0.1914,0.0957 1.8938,0.7676 2.68581,0.7204 3.38867,0.77344 1.40573,0.10608 2.21673,0.0285 3.28125,-0.0566 2.12905,-0.17026 4.88144,-0.53179 9.0293,-1.16992 8.86742,-1.36422 12.92196,-2.62031 15.70898,-3.86133 2.78703,-1.24101 2.92276,-1.62864 9.72852,-3.33008 2.41562,-0.6039 5.70512,-0.9183 9.73438,-1.58984 l 0.55859,-0.0937 0.54492,-0.1543 c 4.16624,-1.19035 8.20258,-2.39598 12.15039,-3.47265 0.30389,-0.0829 3.99551,0.33513 9.33985,-2.71875 3.35567,-1.91754 4.67564,-4.04083 5.41015,-5.09766 2.34519,-0.80926 6.08471,-1.33319 11.33008,-2.64453 2.33661,-0.58415 4.67321,-1.16782 7.00977,-1.75195 v -0.002 c 2.50668,-0.62668 4.74514,-1.24501 6.7539,-1.6914 1.2874,-0.28609 5.14293,-0.0122 10.5332,-2.32227 1.97838,-0.84788 3.31894,-1.91683 4.24219,-2.875 0.46726,-0.068 0.7087,0.0166 1.25196,-0.11914 4.07326,-1.0183 5.67793,-2.57237 5.55273,-2.50977 1.66351,-0.83174 2.56145,-1.33825 2.74609,-1.4121 -0.36094,0.14437 2.29541,0.17354 6.68946,-2.4629 1.20892,-0.72535 1.85709,-1.41216 2.52929,-2.08203 0.80429,0.0152 1.5798,0.057 2.73047,-0.13476 3.95925,-0.65988 5.0816,-0.66833 7.88672,-1.64258 0.54182,-0.18818 1.41646,-0.38899 2.95703,-1.64648 -0.21324,0.18142 1.86696,0.93499 6.44727,-0.5918 1.04371,-0.34789 1.91431,-0.77907 2.64062,-1.23828 1.47873,0.10769 3.70897,0.005 6.21289,-1.46485 0.95908,-0.12377 2.08977,-0.36131 3.41407,-0.80273 2.42302,-0.80769 3.85632,-1.96909 4.76171,-2.98828 1.32969,0.31992 3.58426,0.68053 7.0625,-1.0586 0.50277,-0.25138 0.83658,-0.51245 1.23829,-0.77148 0.51885,-0.0419 0.86894,0.009 1.50781,-0.11914 2.23947,-0.44789 3.73364,-0.91571 4.53906,-1.25 0.59354,0.2544 2.6619,0.33697 6.43945,-0.60742 2.90557,-0.72639 4.40545,-2.09729 5.41407,-3.25586 1.8644,-0.24698 4.42135,-1.05812 6.24218,-2.87891 0.7084,-0.7084 0.93148,-1.27466 1.36329,-1.91797 0.76003,-0.41543 1.49152,-0.93683 2.14062,-1.58593 0.88133,-0.88133 1.86234,-1.98089 2.67578,-3.87891 0.81344,-1.89802 1.23071,-4.9485 0.3418,-7.61524 -1.77782,-5.33347 -5.44181,-6.32175 -6.92578,-6.8164 -0.6288,-0.2096 -1.04106,-0.28919 -1.41016,-0.35938 v -0.15429 c -0.95995,0 -1.24631,-0.035 -1.01172,-0.0137 0.0587,0.005 0.15149,0.0151 0.27735,0.0312 0.0315,0.004 0.0635,0.009 0.0996,0.0137 0.009,10e-4 0.0184,0.002 0.0293,0.004 10e-4,1.5e-4 -0.22809,1.58219 -0.27539,1.91797 -0.40101,-0.11096 -0.4316,-0.19998 -1.38476,-0.28125 -1.7787,-0.15166 -5.70728,0.40649 -8.31055,3.00977 -0.73515,0.73515 -0.97722,1.3263 -1.41602,1.99023 -1.35435,0.59627 -2.73803,1.17812 -3.85742,1.91211 -0.93522,0.053 -1.57555,0.024 -3.31836,0.31445 -3.56376,0.59398 -4.91512,1.25458 -5.23047,1.54688 -1.09918,-0.12307 -2.68569,-0.20635 -5.05078,0.58203 -0.92488,0.30829 -1.66655,0.69703 -2.33984,1.09766 -1.22247,0.11189 -2.59433,0.38115 -4.22656,1.19726 -0.48796,0.24398 -1.04375,0.50648 -1.56641,0.69727 h -0.8418 l -1.53906,0.51367 c -1.04924,0.34975 -1.87578,0.78691 -2.60352,1.23828 -1.53259,-0.11603 -3.94295,0.0181 -6.55468,1.67969 -1.21095,0.0428 -2.66639,0.25212 -4.41992,1.1289 -0.42024,0.21012 -0.68616,0.42837 -1.03516,0.64454 -0.0733,-0.11852 -1.85567,-0.60444 -5.67969,0.35156 -1.60278,0.40069 -2.78011,0.72394 -3.98047,1.1543 -0.60017,0.21517 -1.19657,0.43619 -2.07031,0.90625 -0.45636,0.24551 -1.07053,0.49983 -1.80664,1.08203 -1.26102,-0.17156 -3.9463,-0.62462 -7.45117,0.77734 -3.03995,1.21597 -4.43527,2.84654 -5.31641,4.01758 -0.68226,0.19534 -1.72424,0.55181 -3.44531,1.24023 -2.24088,0.89635 -3.59061,1.75722 -4.26367,2.09375 -0.61393,0.30697 -0.73933,0.36988 -1.11133,0.55078 -1.46113,-0.12073 -3.36365,-0.0662 -5.89844,1.20118 -2.40592,1.20297 -3.5699,2.45807 -4.35351,3.49218 -0.79174,0.0859 -1.97704,0.14008 -5.60938,0.94727 -2.69352,0.59856 -5.09916,1.27088 -7.26562,1.8125 -2.33661,0.58415 -4.67322,1.16782 -7.00977,1.75195 -3.50476,0.87619 -9.15442,1.11351 -15.73242,4.10352 -3.78417,1.72006 -5.40725,4.12855 -6.30274,5.37695 -0.74524,0.11745 -2.19651,0.47333 -4.45703,1.08984 -4.03415,1.10023 -7.92109,2.25762 -11.73242,3.35157 -2.92046,0.45982 -6.56377,0.78157 -10.84375,1.85156 -7.8504,1.9626 -11.45903,3.76868 -13.01367,4.46094 -1.1762,0.52374 -2.9649,0.9939 -6.82227,1.68554 -0.54475,-0.32776 -1.09784,-0.63639 -1.50195,-0.80468 -4.27238,-1.77931 -4.07193,-0.79708 -4.6543,-0.76368 -0.58236,0.0334 -0.93706,0.0811 -1.31445,0.13282 -3.01915,0.4141 -7.83598,1.43667 -19.67969,3.97461 -6.07144,1.30103 -9.19311,3.27307 -10.0625,3.41797 -0.70332,0.11722 -3.98756,-0.61991 -9.77539,-0.0937 h -0.002 c -5.02843,0.45713 -7.88931,1.66354 -8.85156,1.75976 -0.13848,0.0138 -3.6217,-1.21362 -9.93555,0.18945 -3.55707,0.79047 -5.64218,2.35724 -6.79297,3.10547 -0.44687,0.29056 -0.62875,0.37836 -0.78711,0.46289 -0.40101,0.10545 -0.36784,0.15393 -1.32226,0.0176 -1.1814,-0.16877 -4.23877,-0.73709 -7.86719,-0.21875 -4.16266,0.59466 -6.96455,1.5256 -8.58789,1.72852 0.99244,-0.12406 -0.95849,-0.72532 -5.66211,0.0586 -1.74773,0.2913 -2.67705,0.62693 -3.6211,0.94141 -2.02722,-0.84258 -3.49615,-0.58047 -4.46679,-0.55274 -2.87166,0.082 -4.7222,0.59168 -8.46485,1.52735 -3.4568,0.86419 -5.44049,2.38963 -6.52343,3.09375 -0.34871,0.22672 -0.42993,0.25958 -0.57813,0.33789 -0.24302,-0.0179 -2.1075,-0.22657 -6.24414,-0.22657 h -10.51562 -14.01954 c -4.13664,0 -6.00111,0.20867 -6.24414,0.22657 -0.14819,-0.0783 -0.22941,-0.11117 -0.57812,-0.33789 -1.08294,-0.70413 -3.06664,-2.22956 -6.52344,-3.09375 -6.30721,-1.57683 -9.18751,-0.3658 -8.02148,-0.19922 -0.16712,-0.0239 -1.9461,-0.79269 -5.26953,-2.15039 -2.84407,-1.16187 -7.53355,-2.34227 -12.55469,-1.44727 -4.08281,-0.20994 -6.41105,0.13771 -6.16211,0.1875 0.0367,0.007 -2.41465,-1.79933 -8.0918,-3.34765 -5.3755,-1.46605 -9.03511,-1.34818 -10.51562,-1.75196 -3.46238,-0.94428 -4.40282,-1.43648 -6.05664,-2.33594 -1.65383,-0.89945 -4.27358,-2.4968 -8.5,-4.25781 -5.69526,-2.37303 -10.39096,-3.46989 -13.39258,-4.9707 0.5876,0.2938 -1.1974,-2.34968 -7.00977,-5.25586 -5.76231,-2.88116 -11.0003,-4.1457 -14.90234,-5.64648 -2.859,-1.09962 -5.6959,-2.23153 -8.50586,-3.40235 -3.63693,-1.51538 -7.74839,-3.62689 -12.69531,-5.42578 -4.56227,-1.659 -6.85798,-1.70336 -6.48828,-1.54492 0.58351,0.25008 -0.65863,-0.85219 -4.05274,-2.88867 -1.30645,-0.78386 -2.02641,-1.16151 -2.53515,-1.4043 -0.38172,-0.53939 -1.45533,-1.65448 -3.61915,-3.27734 -2.52063,-1.8905 -4.64539,-2.57886 -5.79101,-3.03711 -4.26187,-1.70476 -7.3013,-2.83925 -6.47656,-2.22071 0.1867,0.14003 -0.59864,-0.74122 -2.4336,-2.57617 l -7.00976,-7.00976 c -1.32566,-1.32566 -3.09456,-3.50978 -5.92578,-5.86914 -1.78493,-1.48745 -2.72398,-2.15229 -3.45704,-2.6211 -0.10673,-0.37784 -0.14121,-0.41161 -0.26953,-0.99609 -0.5183,-2.36084 -2.53492,-6.94128 -6.32031,-9.97656 -2.4808,-2.78923 -4.152,-4.03898 -3.99023,-3.8125 -0.0965,-0.13507 -0.77863,-2.34258 -2.95899,-6.15821 -1.50008,-2.62514 -2.95334,-4.47298 -3.86719,-5.84375 -1.62697,-2.44045 -2.67857,-3.77706 -2.88085,-4.18164 -1.88594,-3.77186 -3.53512,-7.41784 -4.71485,-10.95703 -0.10047,-0.30142 0.14523,-3.55323 -1.8418,-9.01758 -1.86143,-5.11894 -4.30025,-8.74894 -5.71093,-11.57031 l -0.40235,-0.80664 -0.54101,-0.7207 c -2.73704,-3.64936 -4.16632,-5.18901 -4.02735,-4.85547 -1.0026,-2.40625 -1.39989,-6.90257 -3.11914,-12.91992 -1.04073,-3.6426 -2.20634,-7.57298 -3.89062,-11.61524 -2.07301,-4.97526 -4.3293,-8.19629 -5.20313,-10.38086 -0.71579,-1.78949 -0.60742,-1.50025 -0.79101,-2.08203 0.36034,-1.85205 0.29864,-3.3145 0.1289,-4.39844 -0.42838,-2.73564 -1.21646,-4.96396 -2.76367,-9.08984 -0.93715,-2.49907 -2.0292,-3.83729 -2.83789,-4.75977 0.0901,-0.9464 0.12043,-2.16805 -0.16601,-3.88672 -0.43428,-2.60567 -1.0411,-4.1752 -1.5293,-5.32031 0.0656,-1.16776 0.10354,-2.65018 -0.16406,-4.79101 -0.53598,-4.28774 -1.52955,-7.20094 -1.77735,-8.93555 0.10144,0.7101 0.10157,0.0193 0.10157,-2.0918 v -3.5039 -8.76172 -3.50586 c 0,-3.07281 -0.15598,-5.04548 -0.0606,-5.9043 0.1295,-1.16552 1.2804,-4.04041 1.76367,-8.87305 0.42263,-4.22634 0.0488,-7.49849 0.0488,-9.75585 v -7.01 c 0,-4.16822 -0.26556,-7.3522 -0.0488,-9.51953 0.0615,-0.61485 0.63658,-2.3953 1.44922,-5.375 0.85669,-3.14122 2.82739,-7.44343 3.74023,-13.37695 1.08884,-7.07741 -0.004,-10.31875 -0.18164,-9.60938 0.15559,-0.62235 2.32365,-3.34503 4.74805,-9.00195 2.16688,-5.05606 3.8365,-9.98517 5.48242,-14.59375 2.2778,-6.37785 4.52535,-14.14445 6.53711,-18.16797 -0.34258,0.68517 1.64193,-0.86763 3.75195,-5.79102 1.87169,-4.36726 1.9284,-7.33531 2.17579,-8.20117 0.63433,-2.22017 2.18562,-5.92492 2.21093,-5.96289 0.89601,-1.34402 3.07303,-3.50708 5.41602,-7.25586 2.20763,-3.53222 3.08551,-6.23088 3.76562,-7.45508 1.43844,-2.58918 3.22509,-5.36146 5.0918,-8.47265 2.10537,-3.50895 3.46116,-6.27895 4.68164,-7.90625 -0.75397,1.00529 2.56835,-0.22541 6,-6.40235 2.90173,-5.2231 3.26059,-7.97078 3.20508,-9.03125 0.87222,-0.43822 1.96755,-1.09077 3.32226,-2.25195 2.95048,-2.52898 5.60243,-5.24624 8.02735,-8.01758 3.32311,-3.79784 4.65934,-5.25944 6.06445,-7.38476 0.35128,-0.53133 0.7597,-1.04943 1.30274,-2.5293 0.15208,-0.41445 0.2287,-1.30913 0.35937,-1.98438 0.58637,-0.85963 0.90347,-1.42193 3.15625,-4.31836 1.0134,-1.30293 3.26622,-3.15684 6.1875,-6.07812 l 7.00977,-7.00977 c 3.10914,-3.10914 5.83107,-6.04418 8.47461,-8.48437 3.57046,-3.29582 9.46013,-6.76377 14.86914,-13.15625 2.89703,-3.42377 3.7413,-6.63334 4.38086,-8.46094 0.63955,-1.8276 1.0405,-2.20997 0.55468,-1.68945 3.99653,-4.282 11.59688,-8.08516 19.03711,-15.52539 6.03685,-6.03685 9.4309,-12.30418 12.87696,-16.43946 11.61913,-13.94295 15.84077,-17.53413 29.18164,-30.875 5.77787,-5.77787 10.29132,-11.31039 14.94726,-15.03515 4.42636,-3.54109 11.54252,-6.46109 19.0293,-12.07617 5.25398,-3.94048 7.63624,-7.7846 9.22266,-9.12696 7.45597,-6.30889 14.83921,-10.98331 23.62109,-16.83789 3.326,-2.21734 7.00176,-4.49511 10.7793,-7.19336 5.56436,-3.97454 9.65141,-7.85608 13.35156,-10.07617 1.43334,-0.86 6.14742,-1.49127 12.36328,-5.3164 5.20765,-3.20471 8.46387,-6.77769 11.15625,-9.1211 3.73427,-2.13387 7.46688,-4.26846 11.20117,-6.40234 5.87514,-3.20213 12.90574,-6.18205 18.96094,-7.91211 1.45875,-0.41679 4.98153,-0.36355 10.19141,-1.66602 4.43917,-1.10979 8.18782,-2.62288 11.45312,-3.78906 5.82264,-2.07951 9.89177,-4.28359 12.75195,-4.89648 0.69535,-0.14901 3.51625,0.22265 8.41797,0.22265 h 12.26758 21.0293 c 8.1255,0 15.47454,-0.55398 21.98437,-0.0332 5.58975,0.44718 12.37285,2.54881 20.72266,3.47656 5.54608,0.61624 9.15848,-0.12178 10.71289,0.0195 8.68332,0.7894 17.97121,2.62895 28.07812,3.50782 5.61391,0.48816 9.82355,-0.13872 12.54688,0.0215 5.0682,0.29813 10.86139,1.33582 17.48828,1.75 5.27145,0.32947 8.52903,-0.25255 9.72266,-0.082 3.41034,0.48719 7.6711,1.97392 13.00976,3.30859 l 1.19336,0.29688 h 1.23047 c 4.75238,0 8.52489,-0.32369 11.27344,-0.0488 -1.36666,-0.13666 -0.24656,0.34641 3.5039,1.41797 2.74292,0.78368 5.2109,1.30761 7.33204,1.83789 3.10452,0.77613 8.39452,3.80273 16.44531,3.80273 0.34961,0 0.56307,0.0538 1.73437,-0.11133 0.58566,-0.0825 1.11118,0.51174 4.28907,-1.64843 0.79447,-0.54005 1.84026,-1.372 2.8125,-2.89453 0.48611,-0.76127 1.21848,-2.74709 1.21875,-2.74805 2.6e-4,-9.6e-4 0.33404,-3.26658 0.33398,-3.26758 -6e-5,-0.001 -0.30625,-2.0513 -0.61133,-2.86914 -0.30508,-0.81784 -0.67023,-1.4782 -1.02344,-2.01367 -0.70641,-1.07094 -1.3498,-1.67035 -1.85937,-2.10547 -1.38001,-1.17838 -1.97395,-1.4423 -2.40625,-1.57617 -0.56507,-0.42632 -1.36184,-1.0004 -2.29297,-1.72461 -1.06196,-0.82597 -2.15762,-2.03831 -5.59961,-2.86914 -1.72099,-0.41542 -4.4308,-0.57111 -7.09961,0.60547 -0.13144,0.0579 -0.20634,0.17318 -0.33398,0.23632 -0.30031,-0.0784 -0.44318,-0.14057 -0.75586,-0.21875 -2.55203,-0.638 -4.80073,-1.12638 -6.68946,-1.66601 0.19814,0.0566 -1.96686,-1.58333 -7.00781,-2.08789 h -0.002 c -4.8228,-0.48207 -8.76841,-0.1648 -12.02539,-0.0879 -3.79878,-1.03349 -8.25719,-2.56939 -13.8418,-3.36719 -5.74566,-0.8208 -9.58005,0.0277 -11.30469,-0.0801 -5.09141,-0.31821 -10.90787,-1.36452 -17.56054,-1.75586 -5.44059,-0.32004 -9.45491,0.24178 -11.98828,0.0215 -8.66035,-0.75308 -17.92259,-2.58583 -28,-3.50196 -5.42653,-0.49332 -8.89367,0.1774 -10.31446,0.0195 -5.77609,-0.64179 -12.7581,-2.84697 -21.33593,-3.53321 -8.62958,-0.69036 -16.51784,-0.0312 -23.58008,-0.0312 h -21.0293 -12.26758 c -1.054,0 -2.66603,-0.27529 -4.78515,-0.38476 z m 215.75,24.80859 c 0.32037,2.0266 0.27527,4.2893 -0.49024,5.82031 -0.59932,1.19864 -2.12475,3.11991 -4.36914,4.10938 -0.0408,0.018 -0.0764,0.0101 -0.11719,0.0273 z M 220.39648,359.75 c 0.0325,-6.4e-4 0.11582,0.0196 0.15039,0.0195 -0.0134,7.2e-4 -0.0615,-0.004 -0.0742,-0.004 -1.0501,0.0445 -1.21118,0.11034 -0.94336,0.0801 0.1339,-0.0151 0.38767,-0.0863 0.86718,-0.0957 z m -2.15039,19.78906 c 0.43972,0.0981 0.63795,0.0742 0.98047,0.11914 -0.37054,-0.0313 -0.53732,-7.4e-4 -0.98047,-0.11914 z m -60.75976,256.73438 c -1.04013,0.99111 -1.89151,1.58182 -1.43946,1.30859 0.22683,-0.13709 0.88312,-0.78698 1.43946,-1.30859 z m 575.49023,96.91015 c 0.37391,0.0319 0.17347,0.0364 0.40821,0.0742 -0.44555,3.16243 -2.54982,17.85479 -2.5586,17.85352 -0.0195,-0.003 -0.0379,-0.005 -0.0566,-0.008 -0.075,-0.0113 -0.15203,-0.0233 -0.23047,-0.0371 -0.31376,-0.0554 -0.66066,-0.12647 -1.18359,-0.30079 -1.04587,-0.34862 -4.12738,-1.04619 -5.72266,-5.83203 -0.79763,-2.39291 -0.38741,-5.10515 0.24805,-6.58789 0.0447,-0.1042 0.0648,-0.0722 0.10937,-0.16797 1.58023,-0.86631 3.23321,-1.44883 4.30079,-1.48632 1.5494,-0.0544 2.1137,0.17896 2.1914,0.19726 0.14577,0.0343 -1.56818,-1.14129 -5.64062,-0.008 0.19549,-0.23911 0.48887,-0.80528 0.60351,-0.91992 2.39675,-2.39675 6.05532,-2.90319 7.53125,-2.77735 z m -12.5039,8.23633 c -0.0181,0.0649 -0.0904,0.25984 -0.10547,0.30664 -0.10786,0.33591 -0.12175,0.16062 0.10547,-0.30664 z m -14.78125,2.16016 c 0.8415,0.0243 1.17272,0.2489 0.86523,0.18359 -0.11106,-0.0236 -0.70036,-0.10024 -0.9707,-0.17187 0.0283,3.5e-4 0.0782,-0.0125 0.10547,-0.0117 z m -2.47461,2.0332 c 0.10833,0.0214 0.22437,0.0464 0.34961,0.0762 0.25047,0.0595 0.5413,0.13694 0.92187,0.27149 0.76115,0.2691 2.01933,0.54886 3.85547,2.5957 1.83614,2.04685 2.89548,7.24015 1.82227,9.98828 -0.60705,1.55442 -1.12901,2.48114 -1.5879,3.12891 0.006,-0.004 -0.15775,-0.0183 -0.10546,-0.0117 0.0136,0.002 0.0871,0.0111 0.10351,0.0137 -1.16228,1.63879 -1.78709,1.01855 -1.3789,0.81445 -1.50658,0.75329 -2.65249,0.94155 -3.49805,0.97461 0.33795,-0.39465 0.39382,-0.53548 0.57617,-0.83007 -0.24941,0.25937 -0.62541,0.55054 -1.03711,0.84179 0.0332,0.009 0.093,0.0139 0.12891,0.0234 -0.0812,-10e-4 -0.0839,0.004 -0.15625,0 -0.64844,0.45377 -1.44724,0.90754 -2.58008,1.28516 l -1.07227,0.17382 c 0.11079,-0.59478 3.60408,-19.3564 3.65821,-19.3457 z m 36.19336,2.22852 c 0.10763,-0.33522 0.12211,-0.16227 -0.10352,0.30273 0.0178,-0.0638 0.0887,-0.25656 0.10352,-0.30273 z m -50.5,1.87304 c -0.22234,0.3592 -0.64241,0.91826 -0.70313,1.01172 -0.12394,0.1908 0.0275,-0.30914 0.70313,-1.01172 z m 42.30859,5.28125 c -0.0423,0.0544 -0.28342,0.22094 -0.34961,0.29297 0.0372,-0.0534 0.18402,-0.20533 0.21289,-0.24609 0.25977,-0.36673 0.369,-0.34535 0.13672,-0.0469 z m -5.32227,1.35938 c 0.27707,0.0653 1.25901,0.15653 2.17188,0.22656 -2.1807,0.30209 -2.78033,-0.36989 -2.17188,-0.22656 z m -79.26171,6.46289 c 0.3729,0.0335 0.32355,0.12592 -0.12696,0.0508 -0.0248,-0.004 -0.12624,-0.0106 -0.15429,-0.0156 0.055,0.002 0.23777,-0.0391 0.28125,-0.0352 z m 45.93945,2.58008 c 0.19279,-0.27955 0.0521,0.0514 -0.47266,0.60937 0.11031,-0.16995 0.41842,-0.53073 0.47266,-0.60937 z m -59.14258,3.17578 c -0.0303,0.0462 -0.13871,0.18716 -0.16406,0.22265 -0.23174,0.32451 -0.21348,0.15538 0.16406,-0.22265 z m 37.45898,3.48242 c 0.22685,0.0381 0.73092,0.17622 0.83008,0.18945 -0.14041,-0.0293 -0.37769,-0.0397 -0.83008,-0.18945 z m -21.25585,8.32422 c -0.0173,0.0189 -0.11052,0.069 -0.13086,0.0898 0.007,-0.009 0.0327,-0.0419 0.0391,-0.0508 0.27451,-0.38441 0.35952,-0.33045 0.0918,-0.0391 z m -109.87891,32.00976 c -0.019,0.013 -0.042,0.0382 -0.0606,0.0508 -0.0117,1.5e-4 -0.0659,-0.0234 -0.0781,-0.0234 0.01,-0.002 0.1294,-0.0258 0.13867,-0.0273 z"
         id="path385" />
    </g>
  </g>
</svg>
