<?xml version="1.0" encoding="UTF-8" standalone="no"?>
<!-- Created with Inkscape (http://www.inkscape.org/) -->

<svg
   width="1000"
   height="1000"
   viewBox="0 0 1000 1000"
   version="1.1"
   id="svg1"
   xmlns:xlink="http://www.w3.org/1999/xlink"
   xmlns="http://www.w3.org/2000/svg"
   xmlns:svg="http://www.w3.org/2000/svg">
  <defs
     id="defs1">
    <pattern
       xlink:href="#pattern359"
       preserveAspectRatio="xMidYMid"
       id="pattern372"
       patternTransform="matrix(0.5,0,0,0.5,147.15462,1548.2922)" />
    <pattern
       xlink:href="#pattern357"
       preserveAspectRatio="xMidYMid"
       id="pattern371"
       patternTransform="matrix(0.5,0,0,0.5,221.32076,1552.4298)" />
    <pattern
       xlink:href="#pattern358"
       preserveAspectRatio="xMidYMid"
       id="pattern370"
       patternTransform="matrix(0.5,0,0,0.5,230.96346,1527.8214)" />
    <pattern
       xlink:href="#pattern355"
       preserveAspectRatio="xMidYMid"
       id="pattern369"
       patternTransform="matrix(0.5,0,0,0.5,287.08178,1553.6581)" />
    <pattern
       xlink:href="#pattern354"
       preserveAspectRatio="xMidYMid"
       id="pattern368"
       patternTransform="matrix(0.5,0,0,0.5,230.97274,1529.1717)" />
    <pattern
       xlink:href="#pattern342"
       preserveAspectRatio="xMidYMid"
       id="pattern360"
       patternTransform="matrix(0.5,0,0,0.5,210.45332,1525.5392)" />
    <pattern
       xlink:href="#pattern342"
       preserveAspectRatio="xMidYMid"
       id="pattern359"
       patternTransform="matrix(0.5,0,0,0.5,152.11125,1550.7705)" />
    <pattern
       xlink:href="#pattern342"
       preserveAspectRatio="xMidYMid"
       id="pattern358"
       patternTransform="matrix(0.5,0,0,0.5,202.11125,1533.2444)" />
    <pattern
       xlink:href="#pattern342"
       preserveAspectRatio="xMidYMid"
       id="pattern357"
       patternTransform="matrix(0.5,0,0,0.5,211.4075,1546.234)" />
    <pattern
       xlink:href="#pattern342"
       preserveAspectRatio="xMidYMid"
       id="pattern356"
       patternTransform="matrix(0.5,0,0,0.5,232.14929,1573.2544)" />
    <pattern
       xlink:href="#pattern342"
       preserveAspectRatio="xMidYMid"
       id="pattern355"
       patternTransform="matrix(0.5,0,0,0.5,275,1552.7287)" />
    <pattern
       xlink:href="#pattern342"
       preserveAspectRatio="xMidYMid"
       id="pattern354"
       patternTransform="matrix(0.5,0,0,0.5,235,1529.7913)" />
    <pattern
       xlink:href="#shading24"
       preserveAspectRatio="xMidYMid"
       id="pattern342"
       patternTransform="matrix(0.5,0,0,0.5,213.95332,1537.5392)"
       x="0"
       y="0" />
    <pattern
       patternUnits="userSpaceOnUse"
       width="338.5925"
       height="42.989567"
       patternTransform="translate(213.95332,1537.5392) scale(0.5)"
       preserveAspectRatio="xMidYMid"
       id="shading24"
       style="fill:#000000">
      <path
         style="fill-rule:nonzero;stroke:none;stroke-width:0.1;stroke-linecap:square;paint-order:markers fill stroke;stop-color:#000000"
         d="m 1806.4991,-758.06464 v 18.86792 c 55.9187,0 121.0493,0.59523 193.5686,3.15628 72.9408,2.57593 146.0589,6.87694 222.9288,13.47675 119.09,10.22471 223.0762,23.76065 340.6056,39.2177 117.5025,15.4535 222.0471,29.0563 341.8507,39.3312 77.366,6.63525 151.0001,10.96128 224.4674,13.55245 73.0344,2.5759 138.631,3.17493 194.9247,3.17493 -55.9642,0 -122.2215,-1.36594 -194.8324,-5.25394 -73.2143,-3.92032 -146.9676,-10.0663 -223.8166,-18.88656 -118.8791,-13.6442 -223.3242,-31.02113 -339.8009,-50.57815 -116.4705,-19.55598 -221.1862,-36.99475 -340.3724,-50.69165 -77.0605,-8.8558 -150.9942,-15.0266 -224.3694,-18.96225 -72.7637,-3.90286 -139.1256,-5.27261 -195.1541,-5.27261 z m 0,37.81515 v 18.86793 c 55.9187,0 121.0493,0.59523 193.5686,3.15627 72.9408,2.57593 146.0589,6.87694 222.9288,13.47676 119.09,10.22471 223.0762,23.76065 340.6056,39.2177 117.5025,15.4535 222.0471,29.0563 341.8507,39.33119 77.366,6.63526 151.0001,10.96128 224.4674,13.55245 73.0344,2.5759 138.631,3.17493 194.9247,3.17493 -55.9642,0 -122.2215,-1.36594 -194.8324,-5.25394 -73.2143,-3.92031 -146.9676,-10.0663 -223.8166,-18.88656 -118.8791,-13.6442 -223.3242,-31.02112 -339.8009,-50.57815 -116.4705,-19.55598 -221.1862,-36.99475 -340.3724,-50.69165 -77.0605,-8.8558 -150.9942,-15.02659 -224.3694,-18.96225 -72.7637,-3.90286 -139.1256,-5.2726 -195.1541,-5.2726 z m 0,37.81516 v 18.86792 c 55.9187,0 121.0493,0.59523 193.5686,3.15628 72.9408,2.57593 146.0589,6.87694 222.9288,13.47675 119.09,10.22471 223.0762,23.76065 340.6056,39.2177 117.5025,15.4535 222.0471,29.0563 341.8507,39.3312 77.366,6.63525 151.0001,10.96128 224.4674,13.55245 73.0344,2.5759 138.631,3.17493 194.9247,3.17493 -55.9642,0 -122.2215,-1.36594 -194.8324,-5.25394 -73.2143,-3.92032 -146.9676,-10.0663 -223.8166,-18.88656 -118.8791,-13.6442 -223.3242,-31.02113 -339.8009,-50.57815 -116.4705,-19.55598 -221.1862,-36.99475 -340.3724,-50.69165 -77.0605,-8.8558 -150.9942,-15.0266 -224.3694,-18.96225 -72.7637,-3.90286 -139.1256,-5.27261 -195.1541,-5.27261 z m 0,37.81515 v 18.86793 c 55.9187,0 121.0493,0.59523 193.5686,3.15627 72.9408,2.57593 146.0589,6.87694 222.9288,13.47676 119.09,10.22471 223.0762,23.76065 340.6056,39.2177 117.5025,15.4535 222.0471,29.0563 341.8507,39.33119 77.366,6.63526 151.0001,10.96128 224.4674,13.55245 73.0344,2.5759 138.631,3.17494 194.9247,3.17494 -55.9642,0 -122.2215,-1.36595 -194.8324,-5.25395 -73.2143,-3.92031 -146.9676,-10.0663 -223.8166,-18.88656 -118.8791,-13.6442 -223.3242,-31.02112 -339.8009,-50.57815 -116.4705,-19.55598 -221.1862,-36.99475 -340.3724,-50.69165 -77.0605,-8.8558 -150.9942,-15.02659 -224.3694,-18.96225 -72.7637,-3.90286 -139.1256,-5.2726 -195.1541,-5.2726 z m 0,37.81516 v 18.86792 c 55.9187,0 121.0493,0.59523 193.5686,3.15628 72.9408,2.57593 146.0589,6.87694 222.9288,13.47675 119.09,10.22471 223.0762,23.76065 340.6056,39.2177 117.5025,15.4535 222.0471,29.0563 341.8507,39.3312 77.366,6.63525 151.0001,10.96128 224.4674,13.55245 73.0344,2.5759 138.631,3.17493 194.9247,3.17493 -55.9642,0 -122.2215,-1.36594 -194.8324,-5.25394 -73.2143,-3.92032 -146.9676,-10.0663 -223.8166,-18.88656 -118.8791,-13.6442 -223.3242,-31.02113 -339.8009,-50.57815 -116.4705,-19.55598 -221.1862,-36.99475 -340.3724,-50.69165 -77.0605,-8.8558 -150.9942,-15.0266 -224.3694,-18.96225 -72.7637,-3.90286 -139.1256,-5.27261 -195.1541,-5.27261 z m 0,37.81515 v 18.86793 c 55.9187,0 121.0493,0.59523 193.5686,3.15627 72.9408,2.57593 146.0589,6.87694 222.9288,13.47676 119.09,10.22471 223.0762,23.76065 340.6056,39.2177 117.5025,15.4535 222.0471,29.0563 341.8507,39.33119 77.366,6.63526 151.0001,10.96128 224.4674,13.55245 73.0344,2.5759 138.631,3.17494 194.9247,3.17494 -55.9642,0 -122.2215,-1.36595 -194.8324,-5.25395 -73.2143,-3.92031 -146.9676,-10.0663 -223.8166,-18.88656 -118.8791,-13.6442 -223.3242,-31.02112 -339.8009,-50.57815 -116.4705,-19.55598 -221.1862,-36.99475 -340.3724,-50.69165 -77.0605,-8.8558 -150.9942,-15.02659 -224.3694,-18.96225 -72.7637,-3.90286 -139.1256,-5.2726 -195.1541,-5.2726 z m 0,37.81516 v 18.86792 c 55.9187,0 121.0493,0.59523 193.5686,3.15628 72.9408,2.57593 146.0589,6.87694 222.9288,13.47675 119.09,10.22471 223.0762,23.76065 340.6056,39.2177 117.5025,15.4535 222.0471,29.0563 341.8507,39.3312 77.366,6.63525 151.0001,10.96128 224.4674,13.55245 73.0344,2.5759 138.631,3.17493 194.9247,3.17493 -55.9642,0 -122.2215,-1.36594 -194.8324,-5.25394 -73.2143,-3.92032 -146.9676,-10.0663 -223.8166,-18.88656 -118.8791,-13.6442 -223.3242,-31.02113 -339.8009,-50.57815 -116.4705,-19.55598 -221.1862,-36.99475 -340.3724,-50.69165 -77.0605,-8.8558 -150.9942,-15.0266 -224.3694,-18.96225 -72.7637,-3.90286 -139.1256,-5.27261 -195.1541,-5.27261 z"
         id="use26"
         transform="matrix(0.22300099,0,0,0.37823052,-402.85121,237.25945)" />
    </pattern>
    <clipPath
       clipPathUnits="userSpaceOnUse"
       id="clipPath54">
      <path
         id="path336"
         style="stroke-width:0.0999999;stroke-linecap:square;paint-order:markers fill stroke;stop-color:#000000"
         d="m 1691.1994,-792.32001 h 1634.8919 v 92.82806 H 1691.1994 Z" />
    </clipPath>
    <clipPath
       clipPathUnits="userSpaceOnUse"
       id="clipPath33">
      <rect
         style="fill:#000000;stroke:none;stroke-width:0.999995;stroke-linecap:butt;stroke-linejoin:bevel;paint-order:stroke markers fill;stop-color:#000000"
         id="rect33"
         width="46.19186"
         height="80.006783"
         x="74.999985"
         y="399.99661" />
    </clipPath>
    <clipPath
       clipPathUnits="userSpaceOnUse"
       id="clipPath27">
      <rect
         style="fill:none;stroke:#000000;stroke-width:0.999999;stroke-linecap:butt;stroke-linejoin:bevel;paint-order:stroke markers fill;stop-color:#000000"
         id="rect28-6"
         width="46.160622"
         height="39.922417"
         x="86.574379"
         y="420.06253" />
    </clipPath>
    <clipPath
       clipPathUnits="userSpaceOnUse"
       id="clipPath25">
      <rect
         style="fill:#ff0000;stroke:none;stroke-width:3;stroke-linecap:square;stroke-linejoin:miter;paint-order:stroke markers fill;stop-color:#000000"
         id="rect25-8"
         width="78"
         height="45.033199"
         x="763.61322"
         y="452.82422" />
    </clipPath>
    <clipPath
       clipPathUnits="userSpaceOnUse"
       id="clipPath15">
      <rect
         style="fill:none;stroke:#000000;stroke-linecap:butt;stroke-linejoin:bevel;paint-order:stroke markers fill;stop-color:#000000"
         id="rect15-7"
         width="45.034248"
         height="38.955639"
         x="262.48285"
         y="121.00073" />
    </clipPath>
    <linearGradient
       id="swatch75">
      <stop
         style="stop-color:#000000;stop-opacity:1;"
         offset="0"
         id="stop75" />
    </linearGradient>
  </defs>
  <g
     id="layer51"
     style="display:inline">
    <g
       id="layer47"
       style="display:inline">
      <path
         style="baseline-shift:baseline;display:inline;overflow:visible;opacity:1;vector-effect:none;fill-rule:evenodd;enable-background:accumulate;stop-color:#000000;stop-opacity:1"
         d="m 233.58789,185.75781 v 164.72852 c 0,11.74576 -1.00944,24.31515 0.0312,37.58398 1.46469,18.67468 5.63021,36.0195 7.01367,52.6211 0.76708,9.20495 -0.32372,19.5621 -0.0312,30.96875 0.76249,29.7369 1.3499,34.63983 2.08203,39.56836 0.73214,4.92852 1.55981,9.73964 3.1836,43.02734 0.375,7.68739 -0.61089,16.52458 0.008,26.42383 0.66918,10.70688 2.42702,20.76741 3.55273,30.33593 l -0.0117,-0.12109 c 1.19922,11.39265 2.82743,22.30389 3.46679,32.85352 0.41719,6.88365 -0.67125,15.13372 0.008,24.64062 0.68909,9.6471 3.01584,17.70214 3.50391,24.53516 0.51498,7.20969 -0.0254,15.16926 -0.0254,23.82226 v 0.70899 l 0.10156,0.70508 c 1.22366,8.56556 2.81843,16.49694 3.43946,23.94921 0.39314,4.71783 -0.0352,10.29829 -0.0352,16.69336 v 19.27735 c 0,3.89421 -0.65969,8.99913 0.0684,15.1875 0.85414,7.26025 3.05262,12.39466 3.52344,15.92578 0.23032,1.72738 -0.0879,4.80739 -0.0879,9.19336 v 5.25781 12.26563 7.00976 c 0,1.00177 -0.007,1.45069 -0.006,1.80664 -0.22218,0.0929 -0.97086,1.48136 -1.60938,5.3125 -0.64846,3.89076 -0.13672,6.24395 -0.13672,6.90039 v 12.26758 h 20 v -12.26758 c 0,-2.84843 -0.0645,-4.04686 -0.13672,-3.61328 -0.17378,1.0427 0.80439,-0.4848 1.69532,-4.93945 0.74194,-3.70971 0.19336,-5.60595 0.19336,-5.4668 v -7.00976 -12.26563 -5.25781 c 0,-2.62377 0.60823,-6.61508 -0.0879,-11.83594 -0.95273,-7.14548 -3.08002,-12.18207 -3.48438,-15.61914 -0.36399,-3.09393 0.0684,-7.39946 0.0684,-12.85156 v -19.27735 c 0,-5.28781 0.5419,-11.42881 -0.0352,-18.35351 -0.72894,-8.7473 -2.34423,-16.81513 -3.45703,-24.40625 0.0337,-7.52064 0.59238,-15.70473 -0.0391,-24.54492 -0.68907,-9.64711 -3.01583,-17.70018 -3.50391,-24.53321 -0.48625,-6.80756 0.57813,-14.9853 0.006,-24.42773 -0.71087,-11.72962 -2.40366,-22.9315 -3.54101,-33.73633 l -0.006,-0.0625 -0.008,-0.0606 c -1.21087,-10.29237 -2.87683,-19.99403 -3.45508,-29.24609 -0.47444,-7.59097 0.48665,-16.33426 0.008,-26.15039 -1.63645,-33.54727 -2.67754,-40.27083 -3.37891,-44.99219 -0.70136,-4.72136 -1.11321,-7.58331 -1.87109,-37.14062 -0.24655,-9.61563 0.94805,-20.36753 -0.0312,-32.11914 -1.55292,-18.63509 -5.70578,-35.94753 -7.00586,-52.52344 -0.87765,-11.19013 0.0312,-23.23123 0.0312,-36.01953 V 185.75781 Z"
         id="path392" />
      <path
         style="baseline-shift:baseline;display:inline;overflow:visible;opacity:1;vector-effect:none;fill-rule:evenodd;enable-background:accumulate;stop-color:#000000;stop-opacity:1"
         d="m 247.09375,188.02539 v 20 c 6.64052,0 12.96054,-0.19917 18.95312,-0.006 22.96395,0.74077 73.78168,4.25362 92.67579,5.24805 25.19925,1.32627 50.34276,2.31441 75.40429,3.50781 23.91373,1.13875 47.86747,2.4147 71.87305,3.50586 27.35462,1.2434 54.87145,2.89758 82.5957,3.51367 25.40816,0.56462 50.60608,0.002 75.57617,0.002 11.40536,0 23.2375,0.50166 35.46485,-0.008 16.8839,-0.7035 33.24247,-2.6248 49.20703,-3.51172 3.41668,-0.18981 8.18503,0.44956 14.23242,-0.0156 5.21714,-0.40133 8.1201,-1.68447 8.99024,-1.77149 1.58606,-0.15861 4.18153,0.0488 7.76562,0.0488 h 1.75391 v -20 h -1.75391 c -2.25734,0 -5.52947,-0.37187 -9.75586,0.0508 -5.05742,0.50573 -7.81271,1.67685 -8.53515,1.73243 -3.27139,0.25164 -7.89141,-0.34425 -13.80665,-0.0156 -16.78037,0.93224 -33.04659,2.83625 -48.92968,3.49805 -11.11818,0.46325 -22.67239,-0.008 -34.63282,-0.008 -25.26632,0 -50.31695,0.55342 -75.13281,0.002 -27.22144,-0.60493 -54.5829,-2.24391 -82.13086,-3.4961 -23.90174,-1.08644 -47.84128,-2.36157 -71.83008,-3.5039 -25.17226,-1.19868 -50.28272,-2.18501 -75.30468,-3.50196 -18.28872,-0.96256 -69.05158,-4.4924 -93.08203,-5.26757 -6.85192,-0.22103 -13.38702,-0.004 -19.59766,-0.004 z"
         id="path393" />
      <path
         style="baseline-shift:baseline;display:inline;overflow:visible;opacity:1;vector-effect:none;fill-rule:evenodd;enable-background:accumulate;stop-color:#000000;stop-opacity:1"
         d="m 758.5957,561.48828 c -3.55855,0.71172 -6.12761,1.4405 -7.79687,1.60742 -27.42631,2.74264 -41.44228,1.70313 -72.60742,1.70313 h -82.36329 c -27.89861,0 -56.01482,-0.59413 -84.32812,0.002 -61.72867,1.29955 -95.07254,3.71147 -155.13867,10.57617 -17.05885,1.94958 -34.24316,4.09149 -51.41016,7.09571 -7.78033,1.36156 -14.35534,3.86946 -20.18359,5.45898 l 5.26172,19.29492 c 7.02293,-1.91534 13.03029,-4.12004 18.37109,-5.05469 16.52218,-2.89137 33.30936,-4.98998 50.23047,-6.92382 59.76677,-6.8305 91.92644,-9.16124 153.29101,-10.45313 27.75214,-0.58426 55.72699,0.004 83.90625,0.004 h 82.36329 c 30.71301,0 45.99266,1.05777 74.59765,-1.80274 4.2583,-0.42581 7.44563,-1.4399 9.72852,-1.89648 z"
         id="path394" />
    </g>
  </g>
</svg>
