<?xml version="1.0" encoding="UTF-8" standalone="no"?>
<!-- Created with Inkscape (http://www.inkscape.org/) -->

<svg
   width="1000"
   height="1000"
   viewBox="0 0 1000 1000"
   version="1.1"
   id="svg1"
   xmlns:xlink="http://www.w3.org/1999/xlink"
   xmlns="http://www.w3.org/2000/svg"
   xmlns:svg="http://www.w3.org/2000/svg">
  <defs
     id="defs1">
    <pattern
       xlink:href="#pattern359"
       preserveAspectRatio="xMidYMid"
       id="pattern372"
       patternTransform="matrix(0.5,0,0,0.5,147.15462,1548.2922)" />
    <pattern
       xlink:href="#pattern357"
       preserveAspectRatio="xMidYMid"
       id="pattern371"
       patternTransform="matrix(0.5,0,0,0.5,221.32076,1552.4298)" />
    <pattern
       xlink:href="#pattern358"
       preserveAspectRatio="xMidYMid"
       id="pattern370"
       patternTransform="matrix(0.5,0,0,0.5,230.96346,1527.8214)" />
    <pattern
       xlink:href="#pattern355"
       preserveAspectRatio="xMidYMid"
       id="pattern369"
       patternTransform="matrix(0.5,0,0,0.5,287.08178,1553.6581)" />
    <pattern
       xlink:href="#pattern354"
       preserveAspectRatio="xMidYMid"
       id="pattern368"
       patternTransform="matrix(0.5,0,0,0.5,230.97274,1529.1717)" />
    <pattern
       xlink:href="#pattern342"
       preserveAspectRatio="xMidYMid"
       id="pattern360"
       patternTransform="matrix(0.5,0,0,0.5,210.45332,1525.5392)" />
    <pattern
       xlink:href="#pattern342"
       preserveAspectRatio="xMidYMid"
       id="pattern359"
       patternTransform="matrix(0.5,0,0,0.5,152.11125,1550.7705)" />
    <pattern
       xlink:href="#pattern342"
       preserveAspectRatio="xMidYMid"
       id="pattern358"
       patternTransform="matrix(0.5,0,0,0.5,202.11125,1533.2444)" />
    <pattern
       xlink:href="#pattern342"
       preserveAspectRatio="xMidYMid"
       id="pattern357"
       patternTransform="matrix(0.5,0,0,0.5,211.4075,1546.234)" />
    <pattern
       xlink:href="#pattern342"
       preserveAspectRatio="xMidYMid"
       id="pattern356"
       patternTransform="matrix(0.5,0,0,0.5,232.14929,1573.2544)" />
    <pattern
       xlink:href="#pattern342"
       preserveAspectRatio="xMidYMid"
       id="pattern355"
       patternTransform="matrix(0.5,0,0,0.5,275,1552.7287)" />
    <pattern
       xlink:href="#pattern342"
       preserveAspectRatio="xMidYMid"
       id="pattern354"
       patternTransform="matrix(0.5,0,0,0.5,235,1529.7913)" />
    <pattern
       xlink:href="#shading24"
       preserveAspectRatio="xMidYMid"
       id="pattern342"
       patternTransform="matrix(0.5,0,0,0.5,213.95332,1537.5392)"
       x="0"
       y="0" />
    <pattern
       patternUnits="userSpaceOnUse"
       width="338.5925"
       height="42.989567"
       patternTransform="translate(213.95332,1537.5392) scale(0.5)"
       preserveAspectRatio="xMidYMid"
       id="shading24"
       style="fill:#000000">
      <path
         style="fill-rule:nonzero;stroke:none;stroke-width:0.1;stroke-linecap:square;paint-order:markers fill stroke;stop-color:#000000"
         d="m 1806.4991,-758.06464 v 18.86792 c 55.9187,0 121.0493,0.59523 193.5686,3.15628 72.9408,2.57593 146.0589,6.87694 222.9288,13.47675 119.09,10.22471 223.0762,23.76065 340.6056,39.2177 117.5025,15.4535 222.0471,29.0563 341.8507,39.3312 77.366,6.63525 151.0001,10.96128 224.4674,13.55245 73.0344,2.5759 138.631,3.17493 194.9247,3.17493 -55.9642,0 -122.2215,-1.36594 -194.8324,-5.25394 -73.2143,-3.92032 -146.9676,-10.0663 -223.8166,-18.88656 -118.8791,-13.6442 -223.3242,-31.02113 -339.8009,-50.57815 -116.4705,-19.55598 -221.1862,-36.99475 -340.3724,-50.69165 -77.0605,-8.8558 -150.9942,-15.0266 -224.3694,-18.96225 -72.7637,-3.90286 -139.1256,-5.27261 -195.1541,-5.27261 z m 0,37.81515 v 18.86793 c 55.9187,0 121.0493,0.59523 193.5686,3.15627 72.9408,2.57593 146.0589,6.87694 222.9288,13.47676 119.09,10.22471 223.0762,23.76065 340.6056,39.2177 117.5025,15.4535 222.0471,29.0563 341.8507,39.33119 77.366,6.63526 151.0001,10.96128 224.4674,13.55245 73.0344,2.5759 138.631,3.17493 194.9247,3.17493 -55.9642,0 -122.2215,-1.36594 -194.8324,-5.25394 -73.2143,-3.92031 -146.9676,-10.0663 -223.8166,-18.88656 -118.8791,-13.6442 -223.3242,-31.02112 -339.8009,-50.57815 -116.4705,-19.55598 -221.1862,-36.99475 -340.3724,-50.69165 -77.0605,-8.8558 -150.9942,-15.02659 -224.3694,-18.96225 -72.7637,-3.90286 -139.1256,-5.2726 -195.1541,-5.2726 z m 0,37.81516 v 18.86792 c 55.9187,0 121.0493,0.59523 193.5686,3.15628 72.9408,2.57593 146.0589,6.87694 222.9288,13.47675 119.09,10.22471 223.0762,23.76065 340.6056,39.2177 117.5025,15.4535 222.0471,29.0563 341.8507,39.3312 77.366,6.63525 151.0001,10.96128 224.4674,13.55245 73.0344,2.5759 138.631,3.17493 194.9247,3.17493 -55.9642,0 -122.2215,-1.36594 -194.8324,-5.25394 -73.2143,-3.92032 -146.9676,-10.0663 -223.8166,-18.88656 -118.8791,-13.6442 -223.3242,-31.02113 -339.8009,-50.57815 -116.4705,-19.55598 -221.1862,-36.99475 -340.3724,-50.69165 -77.0605,-8.8558 -150.9942,-15.0266 -224.3694,-18.96225 -72.7637,-3.90286 -139.1256,-5.27261 -195.1541,-5.27261 z m 0,37.81515 v 18.86793 c 55.9187,0 121.0493,0.59523 193.5686,3.15627 72.9408,2.57593 146.0589,6.87694 222.9288,13.47676 119.09,10.22471 223.0762,23.76065 340.6056,39.2177 117.5025,15.4535 222.0471,29.0563 341.8507,39.33119 77.366,6.63526 151.0001,10.96128 224.4674,13.55245 73.0344,2.5759 138.631,3.17494 194.9247,3.17494 -55.9642,0 -122.2215,-1.36595 -194.8324,-5.25395 -73.2143,-3.92031 -146.9676,-10.0663 -223.8166,-18.88656 -118.8791,-13.6442 -223.3242,-31.02112 -339.8009,-50.57815 -116.4705,-19.55598 -221.1862,-36.99475 -340.3724,-50.69165 -77.0605,-8.8558 -150.9942,-15.02659 -224.3694,-18.96225 -72.7637,-3.90286 -139.1256,-5.2726 -195.1541,-5.2726 z m 0,37.81516 v 18.86792 c 55.9187,0 121.0493,0.59523 193.5686,3.15628 72.9408,2.57593 146.0589,6.87694 222.9288,13.47675 119.09,10.22471 223.0762,23.76065 340.6056,39.2177 117.5025,15.4535 222.0471,29.0563 341.8507,39.3312 77.366,6.63525 151.0001,10.96128 224.4674,13.55245 73.0344,2.5759 138.631,3.17493 194.9247,3.17493 -55.9642,0 -122.2215,-1.36594 -194.8324,-5.25394 -73.2143,-3.92032 -146.9676,-10.0663 -223.8166,-18.88656 -118.8791,-13.6442 -223.3242,-31.02113 -339.8009,-50.57815 -116.4705,-19.55598 -221.1862,-36.99475 -340.3724,-50.69165 -77.0605,-8.8558 -150.9942,-15.0266 -224.3694,-18.96225 -72.7637,-3.90286 -139.1256,-5.27261 -195.1541,-5.27261 z m 0,37.81515 v 18.86793 c 55.9187,0 121.0493,0.59523 193.5686,3.15627 72.9408,2.57593 146.0589,6.87694 222.9288,13.47676 119.09,10.22471 223.0762,23.76065 340.6056,39.2177 117.5025,15.4535 222.0471,29.0563 341.8507,39.33119 77.366,6.63526 151.0001,10.96128 224.4674,13.55245 73.0344,2.5759 138.631,3.17494 194.9247,3.17494 -55.9642,0 -122.2215,-1.36595 -194.8324,-5.25395 -73.2143,-3.92031 -146.9676,-10.0663 -223.8166,-18.88656 -118.8791,-13.6442 -223.3242,-31.02112 -339.8009,-50.57815 -116.4705,-19.55598 -221.1862,-36.99475 -340.3724,-50.69165 -77.0605,-8.8558 -150.9942,-15.02659 -224.3694,-18.96225 -72.7637,-3.90286 -139.1256,-5.2726 -195.1541,-5.2726 z m 0,37.81516 v 18.86792 c 55.9187,0 121.0493,0.59523 193.5686,3.15628 72.9408,2.57593 146.0589,6.87694 222.9288,13.47675 119.09,10.22471 223.0762,23.76065 340.6056,39.2177 117.5025,15.4535 222.0471,29.0563 341.8507,39.3312 77.366,6.63525 151.0001,10.96128 224.4674,13.55245 73.0344,2.5759 138.631,3.17493 194.9247,3.17493 -55.9642,0 -122.2215,-1.36594 -194.8324,-5.25394 -73.2143,-3.92032 -146.9676,-10.0663 -223.8166,-18.88656 -118.8791,-13.6442 -223.3242,-31.02113 -339.8009,-50.57815 -116.4705,-19.55598 -221.1862,-36.99475 -340.3724,-50.69165 -77.0605,-8.8558 -150.9942,-15.0266 -224.3694,-18.96225 -72.7637,-3.90286 -139.1256,-5.27261 -195.1541,-5.27261 z"
         id="use26"
         transform="matrix(0.22300099,0,0,0.37823052,-402.85121,237.25945)" />
    </pattern>
    <clipPath
       clipPathUnits="userSpaceOnUse"
       id="clipPath54">
      <path
         id="path336"
         style="stroke-width:0.0999999;stroke-linecap:square;paint-order:markers fill stroke;stop-color:#000000"
         d="m 1691.1994,-792.32001 h 1634.8919 v 92.82806 H 1691.1994 Z" />
    </clipPath>
    <clipPath
       clipPathUnits="userSpaceOnUse"
       id="clipPath33">
      <rect
         style="fill:#000000;stroke:none;stroke-width:0.999995;stroke-linecap:butt;stroke-linejoin:bevel;paint-order:stroke markers fill;stop-color:#000000"
         id="rect33"
         width="46.19186"
         height="80.006783"
         x="74.999985"
         y="399.99661" />
    </clipPath>
    <clipPath
       clipPathUnits="userSpaceOnUse"
       id="clipPath27">
      <rect
         style="fill:none;stroke:#000000;stroke-width:0.999999;stroke-linecap:butt;stroke-linejoin:bevel;paint-order:stroke markers fill;stop-color:#000000"
         id="rect28-6"
         width="46.160622"
         height="39.922417"
         x="86.574379"
         y="420.06253" />
    </clipPath>
    <clipPath
       clipPathUnits="userSpaceOnUse"
       id="clipPath25">
      <rect
         style="fill:#ff0000;stroke:none;stroke-width:3;stroke-linecap:square;stroke-linejoin:miter;paint-order:stroke markers fill;stop-color:#000000"
         id="rect25-8"
         width="78"
         height="45.033199"
         x="763.61322"
         y="452.82422" />
    </clipPath>
    <clipPath
       clipPathUnits="userSpaceOnUse"
       id="clipPath15">
      <rect
         style="fill:none;stroke:#000000;stroke-linecap:butt;stroke-linejoin:bevel;paint-order:stroke markers fill;stop-color:#000000"
         id="rect15-7"
         width="45.034248"
         height="38.955639"
         x="262.48285"
         y="121.00073" />
    </clipPath>
    <linearGradient
       id="swatch75">
      <stop
         style="stop-color:#000000;stop-opacity:1;"
         offset="0"
         id="stop75" />
    </linearGradient>
  </defs>
  <g
     id="layer51"
     style="display:inline">
    <g
       id="layer48"
       style="display:inline">
      <path
         style="baseline-shift:baseline;display:inline;overflow:visible;opacity:1;vector-effect:none;fill-rule:evenodd;enable-background:accumulate;stop-color:#000000;stop-opacity:1"
         d="m 618.05273,145.71484 c -1.00479,0.0588 -1.41961,0.25196 -1.19531,0.25196 h -3.50586 -14.01953 -24.5332 c -2.84151,0 -6.70215,-0.43194 -11.50977,0.0488 -4.78898,0.4789 -8.71228,1.75157 -11.08594,3.08008 -2.37365,1.32852 -2.41079,1.62549 -5.45117,2.76563 -2.38392,0.89397 -7.38291,1.01516 -14.01953,3.5039 -4.40645,1.65242 -6.52414,3.32375 -7.00976,3.50586 0.15899,-0.0596 -2.57911,-0.15833 -7.4375,1.92383 -4.58465,1.96483 -6.30528,4.02852 -6.2793,4.01367 -1.8397,1.05126 -3.92051,2.05442 -6.18555,3.08399 -3.93406,1.78821 -7.88062,3.49092 -11.84375,5.07617 0.1568,-0.0627 -2.29752,0.0166 -6.39844,2.29492 -4.97292,2.76274 -8.21422,5.66485 -10.69726,7.11328 -1.43098,0.83474 -6.15127,1.62884 -11.72266,6.08594 -4.87696,3.90158 -6.8046,7.82178 -8.20898,9.78516 -3.96783,3.45481 -7.49627,6.80627 -10.82227,9.30078 -0.85337,0.64003 -4.43402,1.70508 -9.09375,5.51758 -5.10784,4.17913 -8.20132,8.39467 -10.9082,10.85546 -2.14575,1.95069 -5.03434,4.00052 -8.2832,6.59961 l -0.43164,0.34766 -0.39258,0.39063 c -3.10915,3.10913 -5.83106,6.04416 -8.47461,8.48437 -4.18909,3.86685 -9.05695,7.72017 -13.99219,12.24414 -3.15145,2.88884 -5.22825,5.42533 -6.89648,6.9082 -1.7275,1.53555 -5.25972,3.48238 -9.18946,7.41211 -4.8943,4.89431 -7.38794,8.65148 -8.91992,11.40039 -1.53198,2.74892 -2.08036,4.10625 -5.76953,8.61524 -1.77547,2.17002 -4.70396,4.63366 -8.09375,8.02344 -1.08574,1.08575 -3.56718,2.83695 -6.18555,6.32812 -2.86688,3.8225 -4.43254,7.28471 -5.83203,9.61719 -2.16518,3.60862 -3.47003,6.3454 -4.57617,7.76758 -0.50572,0.65021 -3.45805,2.44327 -7.00977,7.00976 -4.81147,6.18618 -6.47938,8.12358 -8.18554,11.1836 -0.21327,0.3825 -0.45059,0.80019 -0.76758,1.63671 -0.25924,0.68413 -0.96245,1.57178 -0.70117,4.10938 -0.20596,0.27341 -0.33238,0.42799 -0.52149,0.66992 -0.0275,0.0122 -0.0768,0.0211 -0.10351,0.0332 -4.34556,1.96305 -3.63715,2.7325 -4.03906,3.25977 -1.60767,2.10909 -1.97686,3.04202 -3.99415,6.57227 -1.66304,2.91032 -2.76466,5.4922 -3.76757,7.49804 -2.33659,4.67316 -4.67319,9.34639 -7.00977,14.01953 -1.83086,3.66173 -3.45775,7.1332 -5.13672,10.28125 -7.10295,13.31806 -11.19186,18.98785 -17.83789,33.94141 -4.53176,10.19647 -5.60565,13.6375 -5.97265,16.30664 -0.18351,1.33457 -0.0979,1.15695 -0.40821,2.41211 -0.3103,1.25516 -1.04188,3.73445 -2.66015,8.26563 -3.51308,9.83661 -5.34696,11.60201 -10.16016,21.91601 -2.21264,4.74137 -5.35478,10.17791 -7.49219,17.01758 -2.17954,6.97453 -1.47682,11.36999 -1.76562,12.30859 -0.39364,1.27934 -2.60552,4.18568 -4.89063,9.51758 -2.23021,5.20385 -3.75932,10.10236 -5.40039,14.36914 -1.33574,3.47293 -1.66823,4.65973 -1.88867,5.34961 -1.80271,0.72897 -4.75371,2.11624 -6.67773,6.44531 -3.30061,7.42633 -2.11382,12.83666 -2.41993,14.36719 -0.0379,0.18966 -0.58796,1.51974 -1.43359,4.05664 -0.75921,2.27765 -1.16555,3.80035 -1.45703,4.48047 -1.09986,2.56633 -4.67137,7.01064 -5.92969,14.56055 -0.80316,4.81895 -0.20924,6.7069 -0.0352,5.48828 -0.0201,0.14083 -1.25224,2.4696 -1.79101,7.31836 -0.56644,5.09798 0.0786,8.05593 0,8.76367 0.0197,-0.17746 -1.12971,2.00452 -1.73828,6.87305 -0.59752,4.78009 -0.0179,7.1528 0,7.00976 -0.034,0.27166 -0.99052,2.38837 -1.69336,6.60547 -0.41776,2.50654 -0.85353,4.7291 0.30859,8.1543 0.0994,0.29307 0.25458,0.52237 0.375,0.79883 -0.0489,0.30053 -0.13672,0.64971 -0.25,1.21289 -0.86676,0.8838 -2.63857,2.57779 -3.68945,6.25586 -1.64821,5.7687 -0.38477,9.25076 -0.38477,9.75586 v 7.00976 19.27734 14.01954 c 0,-0.079 -1.10296,2.79687 0.38477,8.0039 1.38282,4.83987 3.70697,8.33236 4.70508,9.63867 -0.0669,-0.15429 0.0713,0.1251 0.30468,1.52539 -0.25245,-1.5147 -0.82865,0.28595 0,5.25782 0.3818,2.29074 0.68247,3.90696 0.99415,5.25586 0.15583,0.67445 0.30248,1.26736 0.55859,2.03125 0.21223,0.633 0.36489,1.48239 1.69922,3.17382 0.12622,0.86674 0.0622,0.35304 0.19336,1.40235 -0.0782,-0.62573 -1.01487,2.07018 0.11718,7.73047 0.52992,2.64962 1.71652,4.39704 2.8418,5.53906 -0.1528,1.09649 -0.13855,1.90767 -0.0937,2.50391 0.1341,1.78466 0.42883,2.95946 0.86133,4.68945 1.10576,4.42301 2.47716,5.78375 2.17187,4.85351 0.25214,0.75641 0.50373,1.51314 0.75586,2.26954 0.0115,0.91708 0.15811,2.2282 0.79102,4.12695 1.00934,3.02805 2.13243,4.48947 2.29492,4.81445 0.30546,0.61091 0.36628,0.73606 0.54688,1.10742 -0.14218,1.65066 -0.0749,3.82438 1.57617,6.57618 3.06211,5.10353 5.6704,6.4037 5.7793,6.21875 0.11751,0.24522 0.29542,0.59622 0.61328,1.33789 0.56886,1.32733 1.01794,5.33357 4.375,10.36914 1.38455,2.07682 2.94637,3.21898 4.31054,3.92187 0.46609,1.09861 1.2402,2.65132 2.69922,4.83985 2.69825,4.04736 4.70071,5.02874 4.14453,4.36132 3.02708,3.63249 7.14812,10.71062 12.87696,16.43946 3.92975,3.92976 7.46197,5.87852 9.18945,7.41406 1.88456,1.67517 3.96865,3.99208 6.58203,6.60547 1.75243,1.75242 3.5054,3.50538 5.25781,5.25781 2.60715,2.60714 5.47203,5.91278 9.24805,9.2168 2.5923,2.26827 4.17832,3.21698 4.72656,3.36328 0.56344,1.12899 1.55659,3.33817 4.21875,5.55664 2.83855,2.36545 4.48411,3.69885 6.81641,4.93359 0.92028,0.48721 2.2123,0.99905 3.99414,1.27344 0.69267,0.79362 2.08298,2.01699 4.4668,3.44727 4.39401,2.6364 7.04845,2.60727 6.6875,2.46289 0.18464,0.0738 1.08258,0.5784 2.74609,1.41015 0.32498,0.16249 1.78837,1.28558 4.81641,2.29493 6.02501,2.00834 10.90495,2.46766 14.01953,3.50585 1.36373,0.45458 -0.0895,-0.33135 1.51367,0.95118 1.60315,1.28252 5.28034,3.40749 9.73633,4.52148 4.28879,1.07219 6.84862,0.84231 7.77344,0.54102 0.64428,0.37727 2.34929,0.95727 5.50585,1.4082 3.98056,0.56865 5.78123,0.31517 6.38672,0.13281 0.1391,0.33462 2.0451,1.14138 6.05469,1.64258 4.53919,0.5674 7.90813,0.0781 10.00195,0.0781 h 10.51368 3.50586 c 2.3671,0 5.57772,0.29934 9.59179,-0.0352 5.39673,-0.44974 9.37176,-1.55825 12.10156,-1.74024 2.99934,-0.19995 7.89596,0.73479 14.52344,-0.0449 7.44347,-0.8757 12.47181,-3.1576 15.65039,-3.49218 4.42123,-0.4654 9.93722,0.0547 16.47657,0.0547 7.01634,0 14.93239,0.7208 23.64843,-0.0371 8.04917,-0.69993 13.75229,-3.12757 17.65235,-3.51757 3.86353,-0.38636 9.74444,0.74243 17.47851,0.006 7.72439,-0.73565 14.2819,-2.64724 19.97266,-3.5957 10.41668,-1.7361 18.59405,-1.99339 30.89453,-5.50781 7.77066,-2.22019 14.01778,-5.36322 19.51172,-7.08008 0.71293,-0.22279 3.88161,-0.12395 8.9414,-1.81055 5.13401,-1.71133 9.43381,-3.9067 13.24415,-5.63867 7.64375,-3.47444 16.47775,-8.56144 22.89062,-13.37109 4.55921,-3.4194 6.50274,-6.54811 7.51758,-7.41797 -0.61634,0.52829 1.91907,-0.12415 5.82031,-4.02539 3.4878,-3.4878 4.35797,-6.21834 4.57031,-6.51563 1.88761,-2.64265 2.99164,-4.3087 3.83203,-5.25976 0.14231,-0.0821 0.10691,-0.0792 0.36133,-0.20117 1.24156,-0.59542 4.15087,-1.78784 6.50586,-5.32032 3.49718,-5.24575 3.15542,-8.85662 3.10742,-9.62304 0.86582,-1.85407 1.74113,-3.81493 1.9668,-4.13086 1.37473,-1.92462 1.60206,-2.07614 1.5957,-2.11719 0.47164,-0.1787 0.99427,-0.26549 1.39258,-0.50391 1.92193,-1.1504 2.81761,-2.28291 3.56836,-3.24023 1.50151,-1.91463 2.59778,-3.82483 4.5625,-7.36133 2.75398,-4.95716 3.20251,-8.21921 3.50391,-8.76172 0.24188,-0.43539 2.38546,-2.3224 5.0332,-6.625 3.50531,-5.69612 6.17094,-11.22834 8.92774,-16.05273 1.58634,-2.77611 3.31086,-5.58841 5.09179,-8.48242 2.81541,-4.57505 5.80073,-9.20792 8.76172,-14.01953 1.59582,-2.5932 3.73639,-5.63685 5.68359,-9.53125 2.30964,-4.61926 3.93261,-9.02301 5.54493,-12.89258 0.68056,-1.63336 1.24652,-3.10888 1.88476,-4.71485 -0.0314,0.49298 0.0186,1.10091 -0.0312,1.57422 -0.21189,2.01297 -2.70921,6.4515 -3.50586,14.01953 -0.81877,7.77842 -0.0547,14.59653 -0.0547,20.32422 v 10.51367 c 0,7.12349 0.58122,13.22832 0.0547,18.23047 -0.29974,2.84755 -1.93387,6.9992 -3.29297,12.77539 -1.11673,4.74612 -2.92554,10.28508 -3.70312,16.89453 -0.77363,6.57584 0.13184,11.49508 -0.0508,14.59961 -0.25275,4.29676 -1.33409,9.48587 -1.74805,15.69532 -0.36528,5.47921 0.25876,8.67398 0.11524,9.53515 -0.0946,0.56741 -2.38569,3.79465 -3.50586,10.51563 -0.93657,5.61935 -0.13672,9.74933 -0.13672,12.1582 0,0.61129 -0.006,0.65175 -0.0156,1.02539 -0.47411,0.79607 -1.01164,1.85513 -1.4375,3.5586 -1.06765,4.27063 -0.29883,6.37829 -0.29883,5.92968 v 3.50586 19.27539 h 20 v -19.27539 -3.50586 c 0,-0.6113 0.008,-0.65174 0.0176,-1.02539 0.47421,-0.79605 1.01145,-1.85439 1.4375,-3.55859 1.06767,-4.27066 0.29688,-6.37829 0.29688,-5.92969 0,-4.60087 -0.3506,-7.57608 -0.13477,-8.87109 0.0946,-0.56741 2.38374,-3.79465 3.50391,-10.51563 1.00885,-6.05319 0.0142,-9.97719 0.11523,-11.49219 0.28976,-4.34642 1.38737,-9.5853 1.75586,-15.8496 0.36622,-6.22565 -0.36919,-10.73302 -0.0508,-13.43946 0.48092,-4.08786 1.95833,-8.90979 3.30859,-14.64844 0.84745,-3.60166 3.00607,-8.53019 3.71485,-15.26367 0.81878,-7.7784 0.0547,-14.59652 0.0547,-20.32422 v -10.51367 c 0,-7.12348 -0.58123,-13.2283 -0.0547,-18.23047 0.21189,-2.01298 2.70923,-6.45148 3.50586,-14.01953 0.81878,-7.7784 0.0547,-14.59652 0.0547,-20.32422 v -10.51367 c 0,-4.48051 -0.21171,-8.37935 -0.0176,-11.67969 0.57053,-9.69914 0.97615,-13.541 1.125,-14.7539 0.21289,-0.4015 0.72041,-1.24583 0.72461,-1.30274 0.0237,-0.32139 0.0214,-0.41488 0.0234,-0.50195 0.004,-0.17413 0.004,-0.22153 0.004,-0.26953 -0.001,-0.76803 -0.0138,-0.8035 -0.0293,-2.20508 -0.0311,-2.80316 -0.0781,-9.04334 -0.0781,-21.85937 0,-0.0745 0.002,-0.0537 0.002,-0.12696 0.14404,-0.34655 0.35609,-0.75442 0.48633,-1.03906 0.50925,-1.11295 0.79787,-2.02247 1.09375,-3.04883 0.59175,-2.05271 1.12692,-4.52617 1.76172,-8.01758 1.14917,-6.3205 0.27123,-10.24685 0.18359,-12.16992 0.13296,0.0831 0.43134,-0.97984 0.75,-2.05078 0.86207,-1.90641 1.94967,-4.50194 2.61524,-8.82812 0.77223,-5.01957 0.4017,-8.32761 0.21484,-10.69727 -0.009,-1.16639 -0.0244,-1.98378 -0.0625,-2.5293 0.16344,-0.95211 1.1913,-3.56145 1.66797,-8.32812 0.0632,-0.63189 0.0232,-1.09061 0.0547,-1.67969 0.43906,-2.16696 0.26998,-3.32509 0.10742,-3.25781 -0.0286,-1.89256 -0.11328,-3.55506 -0.11328,-4.82031 V 541.50195 539.75 c 0,3.04126 -0.24877,2.23604 0.0254,0.86523 0.13708,-0.6854 0.66595,-1.63762 -0.0352,-4.67578 -0.35055,-1.51908 -1.33417,-3.84579 -3.44141,-5.59179 -2.10723,-1.74601 -4.80912,-2.35157 -6.54882,-2.35157 -1.73967,0 -4.43964,0.60558 -6.54688,2.35157 -2.10724,1.74598 -3.09279,4.07269 -3.44336,5.59179 -0.70113,3.0382 -0.17224,3.99037 -0.0351,4.67578 0.27416,1.37083 0.0254,2.17609 0.0254,-0.86523 v 1.75195 1.75196 4.04101 c -0.41043,0.79392 -0.91832,1.90955 -1.45313,4.04883 -1.06771,4.27073 -0.29883,6.37835 -0.29883,5.92969 v 3.50586 c 0,0.5618 0.0157,0.36194 0.0215,0.80078 -0.0565,1.26939 -0.0559,2.32859 -0.0312,3.36719 -0.19116,0.60718 -1.0631,2.62719 -1.64258,6.68359 -0.34191,2.39335 -0.38281,3.9862 -0.3125,4.8125 -0.31848,0.4671 -0.70381,2.16921 -1.07813,4.20898 -0.0648,0.25611 -0.13229,0.34935 -0.19531,0.61719 -1.78083,7.56853 -2.55414,11.31241 -3.05078,14.73633 -0.017,0.0303 -0.15395,0.14262 -0.16406,0.16797 -0.77634,1.94716 -0.58797,2.10582 -0.63086,2.43945 -0.34312,2.66907 -0.0903,1.51881 -0.084,1.87695 0.005,0.26335 0.0398,0.67793 0.0527,0.99024 0.0136,0.4205 0.0657,3.62078 0.0879,8.42187 -0.22933,0.1659 -0.80409,1.67113 -1.49609,4.78516 -1.10807,4.98629 -1.13395,8.35599 -1.57032,9.81055 0.20698,-0.68993 0.11739,-0.28707 -0.67968,0.95507 -0.79708,1.24215 -2.34195,3.4129 -3.05274,6.9668 -0.96385,4.81927 -0.55017,8.16861 -0.33203,10.58008 -0.96093,1.96518 -2.24574,4.5141 -3.12891,8.48828 -0.75841,3.41289 -0.25863,5.74597 -0.12695,6.85938 0.0218,0.18408 0.008,0.12719 0.0137,0.24218 -0.78147,2.42484 -2.62287,5.72578 -4.61133,10.49805 -2.52965,6.07119 -4.69986,11.98162 -7.00976,17.52539 -1.80976,4.34343 -3.30128,8.30178 -4.9707,11.64063 -1.09932,2.19863 -2.85562,4.7837 -4.83008,7.99218 -2.81541,4.57505 -5.80073,9.20792 -8.76172,14.01953 -1.78935,2.90769 -3.63036,5.9044 -5.42383,9.04297 -3.2109,5.61907 -5.79703,10.94435 -8.5957,15.49219 -0.41374,0.67233 -2.88745,2.72359 -5.48242,7.39453 -2.75399,4.95717 -3.20446,8.21919 -3.50586,8.76172 -1.20462,2.16832 -1.46637,2.50893 -1.89844,3.1875 -0.83832,0.43629 -1.57482,0.92807 -2.16602,1.40039 -2.29799,1.83595 -3.62948,3.61995 -5.8457,6.72266 -2.72708,3.81792 -3.6092,6.943 -4.3125,8.34961 l -0.49023,0.98242 -0.26563,1.06445 c -0.41464,1.65857 -0.58947,2.38428 -0.76562,3.15039 -0.9946,0.5276 -2.21311,1.31886 -3.61329,2.71875 -3.29026,3.29027 -4.99333,6.40629 -6.32421,8.26953 -2.23602,3.13042 -2.9487,4.50729 -2.43946,3.99805 0.92268,-0.92268 -0.87877,-0.28721 -4.69336,2.98242 -4.00296,3.43112 -5.77408,6.05762 -6.50195,6.60352 -4.57037,3.42777 -13.11969,8.41289 -19.16797,11.16211 -4.28958,1.94981 -7.98418,3.77272 -11.29101,4.875 -0.59163,0.19721 -3.609,0.14124 -8.58204,1.69531 -7.55805,2.3619 -13.66335,5.40103 -19.04101,6.9375 -10.26009,2.93146 -17.05328,3.07041 -28.68945,5.00977 -7.1934,1.1989 -13.30145,2.91133 -18.58008,3.41406 -3.89619,0.37106 -9.80895,-0.77224 -17.57031,0.004 -7.95507,0.79552 -13.5762,3.15999 -17.39649,3.49219 -6.41462,0.55779 -13.74462,-0.0371 -21.91601,-0.0371 -5.14356,0 -11.37284,-0.70294 -18.57032,0.0547 -7.53331,0.79298 -12.6407,3.13673 -15.89453,3.51953 -2.65482,0.31233 -7.18934,-0.46862 -13.51562,-0.0469 -5.51296,0.36753 -9.59585,1.5293 -12.43164,1.76562 -1.8072,0.1506 -4.45729,-0.0352 -7.93164,-0.0352 h -3.50586 -10.51368 c -3.74761,0 -6.26433,0.23331 -7.52148,0.0762 1.94305,0.24288 0.4022,-0.94477 -5.08398,-1.72852 -4.07492,-0.58213 -5.90316,-0.30276 -6.43946,-0.12109 -0.14739,-0.31266 -1.98313,-1.08157 -5.82812,-1.63086 -5.79218,-0.82745 -7.7716,-0.24612 -5.99805,0.19726 -2.55374,-0.63843 -1.50636,-0.26446 -2.09375,-0.73437 -0.58739,-0.46991 -3.79003,-3.01074 -7.68359,-4.30859 -6.025,-2.00833 -10.90497,-2.46572 -14.01953,-3.50391 0.54973,0.18324 -0.18371,-0.20515 -2.19532,-1.21094 -0.67306,-0.33653 -2.02279,-1.19545 -4.26367,-2.0918 -1.54249,-0.617 -2.38014,-0.8924 -3.08789,-1.11132 -0.49822,-0.54662 -1.48772,-1.43562 -3.38867,-2.86133 -2.1791,-1.63433 -2.99777,-3.18855 -8.01563,-3.7461 -0.13436,-0.0149 -0.33199,0.074 -0.47461,0.0684 -0.34487,-0.25136 -0.38497,-0.29823 -0.92773,-0.72265 -0.42758,-0.84955 -1.20454,-2.8608 -3.5293,-5.18555 -3.9492,-3.94921 -6.45636,-4.58218 -5.74414,-3.95898 -2.44106,-2.13593 -5.04107,-5.07429 -8.27539,-8.3086 -1.75244,-1.75245 -3.50536,-3.50341 -5.25781,-5.25586 -2.05976,-2.05976 -4.38254,-4.69854 -7.4375,-7.41406 -3.86366,-3.43436 -6.9741,-5.24557 -8.33399,-6.60547 -2.66284,-2.66284 -6.92434,-9.42522 -11.65625,-15.10351 -1.71272,-2.05529 -2.67892,-2.99698 -2.98437,-3.13868 0.0337,-0.45522 -0.51096,-2.98634 -3.89844,-7.2207 -1.31327,-1.64158 -2.60436,-2.53128 -3.76172,-3.14062 -0.33549,-1.07112 -0.51296,-1.91112 -1.86523,-5.06641 -0.2771,-0.64657 -0.81125,-2.90807 -3.13477,-5.8125 -1.47135,-1.83919 -2.44231,-2.79666 -3.24023,-3.53516 -0.0699,-0.52208 0.0303,-0.78484 -0.125,-1.40625 -1.01832,-4.0732 -2.57237,-5.67598 -2.50977,-5.55078 -0.5799,-1.15982 -0.51937,-0.95664 -0.69726,-1.26562 v -1.14258 l -0.51172,-1.53906 c -0.47174,-1.41523 -0.94429,-2.83093 -1.41602,-4.2461 0.61931,-1.87179 0.10213,-3.00921 0.0508,-3.63086 -0.16188,-1.95995 -0.38297,-2.13443 -0.54101,-2.64453 -0.63217,-2.04036 -1.50503,-4.1825 -3.55469,-9.30664 -0.27118,-0.67794 -0.5849,-1.12338 -0.88672,-1.64844 0.0376,-1.09422 0.0499,-2.42902 -0.22656,-4.64062 -0.69077,-5.52613 -0.72526,-7.08423 -1.58789,-10.12109 -0.10783,-0.37961 -0.22275,-0.81211 -0.58008,-1.60547 -0.206,-0.45739 -0.35501,-1.16044 -1.0664,-2.08008 0.0117,-0.96307 0.007,-2.09668 -0.33008,-4.12109 -0.40268,-2.41605 -0.85022,-4.35201 -1.70117,-6.32422 -0.85096,-1.97221 -2.29609,-3.78733 -2.76954,-4.33399 -0.94689,-1.0933 -0.0138,0.86196 -1.03515,-2.71289 0.52486,1.83703 0.38476,1.07414 0.38476,-2.50976 v -14.01954 -19.27734 -7.00976 c 0,-1.89964 -0.0117,-3.0511 -0.0508,-3.80274 1.00591,-1.07232 2.43206,-2.73408 3.25781,-6.03711 0.84278,-3.37111 1.30683,-5.5865 1.41016,-8.0664 0.0614,-1.47284 -0.36711,-3.57892 -1.07617,-5.50586 0.28081,-0.85738 1.14167,-2.91469 1.63867,-6.89063 0.59752,-4.7801 0.0179,-7.15278 0,-7.00976 -0.0111,0.0887 1.21788,-2.18151 1.76953,-7.14649 0.56644,-5.09798 -0.0786,-8.05398 0,-8.76172 -0.007,0.0613 1.05179,-2.07149 1.71289,-6.69922 0.50231,-3.51619 0.35905,-5.35288 0.16016,-5.47656 0.42711,-1.52127 2.16226,-4.32847 4.38867,-9.52344 1.16384,-2.71562 1.63976,-4.80599 2.04883,-6.0332 0.32265,-0.96795 1.3837,-3.02595 2.07031,-6.45898 0.76684,-3.83416 0.96403,-6.27265 1.02735,-7.94727 1.29021,-0.71685 2.8262,-1.88911 4.31445,-3.97266 3.61851,-5.06593 4.07542,-9.35937 4.70117,-10.98632 1.94221,-5.04976 3.41341,-9.699 5.11523,-13.66993 0.8021,-1.87154 3.71191,-5.30049 5.62305,-11.51171 2.14012,-6.95538 1.45628,-11.31263 1.74024,-12.22461 v -0.002 c 1.29481,-4.14249 3.87446,-8.84065 6.52734,-14.52539 4.32308,-9.26375 6.8626,-12.42816 10.86914,-23.64648 1.74385,-4.8828 2.67288,-7.88855 3.24219,-10.19141 0.56931,-2.30286 0.75314,-4.11337 0.80469,-4.48828 0.10309,-0.74981 0.0476,-1.03543 4.43554,-10.9082 6.17223,-13.8875 9.7334,-18.63194 17.21094,-32.65235 2.00909,-3.76704 3.70295,-7.40003 5.37695,-10.74804 2.33659,-4.67316 4.67319,-9.34639 7.00977,-14.01953 1.33364,-2.66732 2.31499,-4.89547 3.24414,-6.52149 0.45312,-0.79295 0.2139,-0.38851 0.58789,-1.01172 0.58344,-0.37234 0.97208,-0.72375 1.32031,-1.01758 2.70326,-2.28096 3.57639,-3.80773 6.3086,-7.63281 1.8825,-2.6355 3.16369,-4.51253 4.11718,-6.03906 0.47675,-0.76326 0.87053,-1.42106 1.2793,-2.24219 0.40313,-0.80979 1.13703,-1.19792 1.27734,-4.71484 0.94272,-1.27043 0.51295,-0.73819 1.84375,-2.44922 0.50572,-0.65021 3.45805,-2.44328 7.00977,-7.00977 3.07616,-3.95508 4.59976,-7.52499 5.93945,-9.75781 2.10538,-3.50896 3.46117,-6.27895 4.68164,-7.90625 0.3556,-0.47412 1.90901,-1.76641 4.32813,-4.18555 2.45167,-2.45166 5.97591,-5.27827 9.43164,-9.50195 4.53603,-5.54404 6.55784,-9.38629 7.75976,-11.54297 1.20193,-2.15667 1.60602,-3.01031 5.58985,-6.99414 1.3599,-1.3599 4.47229,-3.17307 8.33594,-6.60742 3.27128,-2.90781 5.40278,-5.53441 7.12304,-7.11133 4.21954,-3.86791 9.10843,-7.73426 14.04492,-12.29101 3.28241,-3.02992 6.03919,-6.00843 8.66993,-8.65821 2.52801,-1.99329 5.57185,-4.12888 8.79882,-7.0625 4.62835,-4.20758 7.55454,-8.07552 10.11915,-10.17383 0.61265,-0.50125 3.83326,-1.55073 8.42968,-4.99804 5.0026,-3.75196 9.01579,-7.69935 12.77539,-10.92188 l 0.71485,-0.61133 0.58593,-0.73437 c 3.25078,-4.06347 4.81397,-6.69102 5.44922,-7.19922 0.54837,-0.43869 3.96613,-1.31552 9.30469,-4.42969 4.794,-2.79648 7.94243,-5.5776 10.33399,-6.90625 -0.87138,0.4841 0.52626,0.22582 4.11328,-1.20898 4.29791,-1.71917 8.52554,-3.54393 12.6914,-5.4375 2.4914,-1.13246 5.13735,-2.38484 7.83399,-3.92578 3.68329,-2.10475 4.94728,-3.30162 4.23437,-2.9961 -0.43089,0.18467 1.91276,0.17091 6.58203,-1.58007 4.40646,-1.65241 6.52414,-3.32375 7.00977,-3.50586 2.38392,-0.89398 7.38292,-1.01518 14.01953,-3.50391 4.64245,-1.74092 7.52653,-3.66561 8.19727,-4.04102 0.67073,-0.3754 -0.0829,-0.29189 3.30664,-0.63085 2.16732,-0.21674 5.3513,0.0508 9.51953,0.0508 h 24.5332 14.01953 3.50586 c 0.57102,0 0.5935,0.006 0.95703,0.0156 0.95156,0.58188 2.24429,1.23897 4.40821,1.59961 4.21744,0.70293 6.0885,0.40761 6.64648,0.19141 0.19596,0.34467 2.079,1.12804 6.02344,1.62109 5.6295,0.70369 8.45348,-0.0429 8.35937,-0.0586 1.96731,0.32788 5.84336,2.43354 12.26563,3.5039 5.04317,0.84054 8.58154,0.13672 10.40625,0.13672 3.52429,0 6.15088,-0.19615 7.85742,-0.041 2.05636,0.18694 5.49475,1.2955 10.51562,1.75195 5.41932,0.49267 7.99081,-0.0952 7.70508,-0.15234 -0.48645,-0.0973 2.10601,2.17277 8.76172,3.5039 5.83026,1.16605 8.81644,0.29687 9.17578,0.16992 0.15053,0.16608 1.45783,0.6495 4.0586,1.39258 3.0408,0.8688 5.38189,1.26457 6.88281,1.71485 7.04014,2.11204 8.60689,2.63804 10.09961,3.45703 1.49271,0.81898 4.42564,2.97403 12.00781,7.71289 l 10.60156,-16.96094 c -7.16173,-4.47608 -9.43194,-6.33591 -12.98828,-8.28711 -3.55634,-1.9512 -6.88481,-2.95177 -13.97265,-5.07812 -3.11293,-0.93387 -5.54588,-1.33454 -7.13672,-1.78907 0.042,0.012 -2.05303,-1.47172 -6.76367,-2.06054 -5.84246,-0.73031 -8.54612,0.0162 -8.04102,0.11718 0.48645,0.0973 -2.10796,-2.17277 -8.76367,-3.5039 -6.01373,-1.20275 -9.41828,-0.11811 -9.81641,-0.1543 -2.05636,-0.18695 -5.49475,-1.2955 -10.51562,-1.75195 -4.11092,-0.37372 -7.35082,-0.041 -9.66797,-0.041 -4.01673,0 -6.3984,0.25652 -7.11719,0.13672 -1.96729,-0.32788 -5.84533,-2.43548 -12.26758,-3.50586 -4.96646,-0.82775 -7.51868,-0.33136 -8.42187,-0.1582 -5e-4,-0.29302 -1.84331,-1.05992 -5.82617,-1.62891 -3.54613,-0.50658 -5.22927,-0.37387 -6.04883,-0.19336 -0.79199,-0.45758 -1.88824,-0.96961 -3.45508,-1.36133 -2.13532,-0.53382 -3.72958,-0.60959 -4.73438,-0.55078 z M 326.83984,335.60156 c 0.0692,-0.13908 -0.0633,0.12091 -0.33789,0.56055 -0.0103,0.0165 -0.0538,0.0767 -0.0645,0.0937 0.18472,-0.48683 0.36577,-0.58082 0.40234,-0.6543 z m 14.14063,12.15625 c -0.09,0.0611 -0.13821,0.20361 -0.49414,0.41016 0.32322,-0.25538 0.7473,-0.58211 0.49414,-0.41016 z m -7.31445,10.33008 c -0.11288,0.14808 -0.09,0.45449 -0.55665,0.95898 0.0153,-0.0431 0.74056,-1.20025 0.55665,-0.95898 z m 424.53125,282.73047 c 0.32946,0.12915 0.80692,0.32182 1.04296,0.41406 -0.32404,0.14059 -0.64806,0.27997 -1.02539,0.40039 -0.0141,-0.31634 -0.004,-0.53376 -0.0176,-0.81445 z M 238.32422,702.7832 c 0.19127,0.45766 0.10169,0.63591 0.14453,0.76367 0.0849,0.25309 0.0348,0.1269 -0.0352,-0.17578 -0.0203,-0.0881 -0.0837,-0.46795 -0.10937,-0.58789 z M 219.75,704.18164 c 0.001,0.0325 -0.0376,0.20057 -0.0391,0.23633 0.009,-0.0832 0.006,-0.11333 0.0391,-0.23633 z m 23.99414,20.0625 c 0.39369,0.41768 0.42531,0.60376 0.48047,0.67773 0.0925,0.12407 0.0261,0.0377 -0.0742,-0.10937 -0.0709,-0.10391 -0.2947,-0.4041 -0.40625,-0.56836 z m -17.44922,4.9707 c 0.11159,0.0655 0.43268,0.33384 0.48828,0.36914 0.20485,0.13007 -0.18528,-0.062 -0.52343,-0.26562 0.004,-0.0297 0.03,-0.0732 0.0351,-0.10352 z m 5.52344,20.65235 c 0.0435,-0.38525 0.1486,-0.30467 0.0586,0.1914 -0.005,0.0258 -0.0101,0.13486 -0.0156,0.16407 0.003,-0.0702 -0.0489,-0.3028 -0.043,-0.35547 z m 18.91406,31.52148 c 0.22923,0.0494 0.74586,0.24247 0.85938,0.27149 0.43396,0.11093 -0.009,0.15985 -0.85938,-0.27149 z m 436.45508,1.16797 c -0.0225,0.006 -0.0222,0.016 -0.0449,0.0215 -1.50612,0.36405 -2.88188,0.2272 -2.00586,0.24805 0.34895,0.008 1.20432,-0.11836 2.05078,-0.26953 z"
         id="path395" />
      <path
         style="baseline-shift:baseline;display:inline;overflow:visible;opacity:1;vector-effect:none;fill-rule:evenodd;enable-background:accumulate;stop-color:#000000;stop-opacity:1"
         d="m 759.10156,524.3457 c -1.37886,-0.0426 -3.0632,-0.0248 -5.04297,0.22266 -3.77107,0.47139 -6.27104,1.43956 -7.85742,1.875 -4.15273,0.61475 -7.86619,1.32593 -11.00976,1.58789 -1.80719,0.1506 -4.45729,-0.0352 -7.93164,-0.0352 h -22.78125 -5.25782 c -1.60037,0 -4.32759,-0.35812 -8.11328,0.0625 -4.59158,0.51018 -7.48173,1.5905 -8.89844,1.76758 -0.0978,0.0122 -1.43821,-0.0762 -4.01757,-0.0762 h -7.00977 -13.86133 c -3.21714,-2.10399 -6.74715,-1.9573 -7.85156,-1.77539 -1.29637,0.21353 -1.38132,0.0215 0.68359,0.0215 h -1.75195 -21.0293 v 20 h 19.11914 c 3.21718,2.1041 6.74714,1.95731 7.85157,1.77539 1.29638,-0.21353 1.38142,-0.0215 -0.6836,-0.0215 h 1.75196 15.77148 7.00977 c 0.92551,0 3.11807,0.34439 6.49804,-0.0781 4.49444,-0.56179 7.29588,-1.58864 8.625,-1.73632 0.85889,-0.0954 2.83347,0.0605 5.90625,0.0605 h 5.25782 22.78125 c 2.36709,0 5.57772,0.3013 9.59179,-0.0332 4.89651,-0.40804 9.15011,-1.28958 12.85156,-1.81836 l 0.50977,-0.0742 0.50195,-0.125 c 3.11482,-0.77871 5.02635,-1.43151 5.82422,-1.53125 0.67756,-0.0847 2.60608,0.0781 5.76953,0.0781 v -20 c -0.75485,0 -1.82817,-0.10393 -3.20703,-0.14649 z"
         id="path396" />
    </g>
  </g>
</svg>
