<?xml version="1.0" encoding="UTF-8" standalone="no"?>
<!-- Created with Inkscape (http://www.inkscape.org/) -->

<svg
   width="1000"
   height="1000"
   viewBox="0 0 1000 1000"
   version="1.1"
   id="svg1"
   xmlns:xlink="http://www.w3.org/1999/xlink"
   xmlns="http://www.w3.org/2000/svg"
   xmlns:svg="http://www.w3.org/2000/svg">
  <defs
     id="defs1">
    <pattern
       xlink:href="#pattern359"
       preserveAspectRatio="xMidYMid"
       id="pattern372"
       patternTransform="matrix(0.5,0,0,0.5,147.15462,1548.2922)" />
    <pattern
       xlink:href="#pattern357"
       preserveAspectRatio="xMidYMid"
       id="pattern371"
       patternTransform="matrix(0.5,0,0,0.5,221.32076,1552.4298)" />
    <pattern
       xlink:href="#pattern358"
       preserveAspectRatio="xMidYMid"
       id="pattern370"
       patternTransform="matrix(0.5,0,0,0.5,230.96346,1527.8214)" />
    <pattern
       xlink:href="#pattern355"
       preserveAspectRatio="xMidYMid"
       id="pattern369"
       patternTransform="matrix(0.5,0,0,0.5,287.08178,1553.6581)" />
    <pattern
       xlink:href="#pattern354"
       preserveAspectRatio="xMidYMid"
       id="pattern368"
       patternTransform="matrix(0.5,0,0,0.5,230.97274,1529.1717)" />
    <pattern
       xlink:href="#pattern342"
       preserveAspectRatio="xMidYMid"
       id="pattern360"
       patternTransform="matrix(0.5,0,0,0.5,210.45332,1525.5392)" />
    <pattern
       xlink:href="#pattern342"
       preserveAspectRatio="xMidYMid"
       id="pattern359"
       patternTransform="matrix(0.5,0,0,0.5,152.11125,1550.7705)" />
    <pattern
       xlink:href="#pattern342"
       preserveAspectRatio="xMidYMid"
       id="pattern358"
       patternTransform="matrix(0.5,0,0,0.5,202.11125,1533.2444)" />
    <pattern
       xlink:href="#pattern342"
       preserveAspectRatio="xMidYMid"
       id="pattern357"
       patternTransform="matrix(0.5,0,0,0.5,211.4075,1546.234)" />
    <pattern
       xlink:href="#pattern342"
       preserveAspectRatio="xMidYMid"
       id="pattern356"
       patternTransform="matrix(0.5,0,0,0.5,232.14929,1573.2544)" />
    <pattern
       xlink:href="#pattern342"
       preserveAspectRatio="xMidYMid"
       id="pattern355"
       patternTransform="matrix(0.5,0,0,0.5,275,1552.7287)" />
    <pattern
       xlink:href="#pattern342"
       preserveAspectRatio="xMidYMid"
       id="pattern354"
       patternTransform="matrix(0.5,0,0,0.5,235,1529.7913)" />
    <pattern
       xlink:href="#shading24"
       preserveAspectRatio="xMidYMid"
       id="pattern342"
       patternTransform="matrix(0.5,0,0,0.5,213.95332,1537.5392)"
       x="0"
       y="0" />
    <pattern
       patternUnits="userSpaceOnUse"
       width="338.5925"
       height="42.989567"
       patternTransform="translate(213.95332,1537.5392) scale(0.5)"
       preserveAspectRatio="xMidYMid"
       id="shading24"
       style="fill:#000000">
      <path
         style="fill-rule:nonzero;stroke:none;stroke-width:0.1;stroke-linecap:square;paint-order:markers fill stroke;stop-color:#000000"
         d="m 1806.4991,-758.06464 v 18.86792 c 55.9187,0 121.0493,0.59523 193.5686,3.15628 72.9408,2.57593 146.0589,6.87694 222.9288,13.47675 119.09,10.22471 223.0762,23.76065 340.6056,39.2177 117.5025,15.4535 222.0471,29.0563 341.8507,39.3312 77.366,6.63525 151.0001,10.96128 224.4674,13.55245 73.0344,2.5759 138.631,3.17493 194.9247,3.17493 -55.9642,0 -122.2215,-1.36594 -194.8324,-5.25394 -73.2143,-3.92032 -146.9676,-10.0663 -223.8166,-18.88656 -118.8791,-13.6442 -223.3242,-31.02113 -339.8009,-50.57815 -116.4705,-19.55598 -221.1862,-36.99475 -340.3724,-50.69165 -77.0605,-8.8558 -150.9942,-15.0266 -224.3694,-18.96225 -72.7637,-3.90286 -139.1256,-5.27261 -195.1541,-5.27261 z m 0,37.81515 v 18.86793 c 55.9187,0 121.0493,0.59523 193.5686,3.15627 72.9408,2.57593 146.0589,6.87694 222.9288,13.47676 119.09,10.22471 223.0762,23.76065 340.6056,39.2177 117.5025,15.4535 222.0471,29.0563 341.8507,39.33119 77.366,6.63526 151.0001,10.96128 224.4674,13.55245 73.0344,2.5759 138.631,3.17493 194.9247,3.17493 -55.9642,0 -122.2215,-1.36594 -194.8324,-5.25394 -73.2143,-3.92031 -146.9676,-10.0663 -223.8166,-18.88656 -118.8791,-13.6442 -223.3242,-31.02112 -339.8009,-50.57815 -116.4705,-19.55598 -221.1862,-36.99475 -340.3724,-50.69165 -77.0605,-8.8558 -150.9942,-15.02659 -224.3694,-18.96225 -72.7637,-3.90286 -139.1256,-5.2726 -195.1541,-5.2726 z m 0,37.81516 v 18.86792 c 55.9187,0 121.0493,0.59523 193.5686,3.15628 72.9408,2.57593 146.0589,6.87694 222.9288,13.47675 119.09,10.22471 223.0762,23.76065 340.6056,39.2177 117.5025,15.4535 222.0471,29.0563 341.8507,39.3312 77.366,6.63525 151.0001,10.96128 224.4674,13.55245 73.0344,2.5759 138.631,3.17493 194.9247,3.17493 -55.9642,0 -122.2215,-1.36594 -194.8324,-5.25394 -73.2143,-3.92032 -146.9676,-10.0663 -223.8166,-18.88656 -118.8791,-13.6442 -223.3242,-31.02113 -339.8009,-50.57815 -116.4705,-19.55598 -221.1862,-36.99475 -340.3724,-50.69165 -77.0605,-8.8558 -150.9942,-15.0266 -224.3694,-18.96225 -72.7637,-3.90286 -139.1256,-5.27261 -195.1541,-5.27261 z m 0,37.81515 v 18.86793 c 55.9187,0 121.0493,0.59523 193.5686,3.15627 72.9408,2.57593 146.0589,6.87694 222.9288,13.47676 119.09,10.22471 223.0762,23.76065 340.6056,39.2177 117.5025,15.4535 222.0471,29.0563 341.8507,39.33119 77.366,6.63526 151.0001,10.96128 224.4674,13.55245 73.0344,2.5759 138.631,3.17494 194.9247,3.17494 -55.9642,0 -122.2215,-1.36595 -194.8324,-5.25395 -73.2143,-3.92031 -146.9676,-10.0663 -223.8166,-18.88656 -118.8791,-13.6442 -223.3242,-31.02112 -339.8009,-50.57815 -116.4705,-19.55598 -221.1862,-36.99475 -340.3724,-50.69165 -77.0605,-8.8558 -150.9942,-15.02659 -224.3694,-18.96225 -72.7637,-3.90286 -139.1256,-5.2726 -195.1541,-5.2726 z m 0,37.81516 v 18.86792 c 55.9187,0 121.0493,0.59523 193.5686,3.15628 72.9408,2.57593 146.0589,6.87694 222.9288,13.47675 119.09,10.22471 223.0762,23.76065 340.6056,39.2177 117.5025,15.4535 222.0471,29.0563 341.8507,39.3312 77.366,6.63525 151.0001,10.96128 224.4674,13.55245 73.0344,2.5759 138.631,3.17493 194.9247,3.17493 -55.9642,0 -122.2215,-1.36594 -194.8324,-5.25394 -73.2143,-3.92032 -146.9676,-10.0663 -223.8166,-18.88656 -118.8791,-13.6442 -223.3242,-31.02113 -339.8009,-50.57815 -116.4705,-19.55598 -221.1862,-36.99475 -340.3724,-50.69165 -77.0605,-8.8558 -150.9942,-15.0266 -224.3694,-18.96225 -72.7637,-3.90286 -139.1256,-5.27261 -195.1541,-5.27261 z m 0,37.81515 v 18.86793 c 55.9187,0 121.0493,0.59523 193.5686,3.15627 72.9408,2.57593 146.0589,6.87694 222.9288,13.47676 119.09,10.22471 223.0762,23.76065 340.6056,39.2177 117.5025,15.4535 222.0471,29.0563 341.8507,39.33119 77.366,6.63526 151.0001,10.96128 224.4674,13.55245 73.0344,2.5759 138.631,3.17494 194.9247,3.17494 -55.9642,0 -122.2215,-1.36595 -194.8324,-5.25395 -73.2143,-3.92031 -146.9676,-10.0663 -223.8166,-18.88656 -118.8791,-13.6442 -223.3242,-31.02112 -339.8009,-50.57815 -116.4705,-19.55598 -221.1862,-36.99475 -340.3724,-50.69165 -77.0605,-8.8558 -150.9942,-15.02659 -224.3694,-18.96225 -72.7637,-3.90286 -139.1256,-5.2726 -195.1541,-5.2726 z m 0,37.81516 v 18.86792 c 55.9187,0 121.0493,0.59523 193.5686,3.15628 72.9408,2.57593 146.0589,6.87694 222.9288,13.47675 119.09,10.22471 223.0762,23.76065 340.6056,39.2177 117.5025,15.4535 222.0471,29.0563 341.8507,39.3312 77.366,6.63525 151.0001,10.96128 224.4674,13.55245 73.0344,2.5759 138.631,3.17493 194.9247,3.17493 -55.9642,0 -122.2215,-1.36594 -194.8324,-5.25394 -73.2143,-3.92032 -146.9676,-10.0663 -223.8166,-18.88656 -118.8791,-13.6442 -223.3242,-31.02113 -339.8009,-50.57815 -116.4705,-19.55598 -221.1862,-36.99475 -340.3724,-50.69165 -77.0605,-8.8558 -150.9942,-15.0266 -224.3694,-18.96225 -72.7637,-3.90286 -139.1256,-5.27261 -195.1541,-5.27261 z"
         id="use26"
         transform="matrix(0.22300099,0,0,0.37823052,-402.85121,237.25945)" />
    </pattern>
    <clipPath
       clipPathUnits="userSpaceOnUse"
       id="clipPath54">
      <path
         id="path336"
         style="stroke-width:0.0999999;stroke-linecap:square;paint-order:markers fill stroke;stop-color:#000000"
         d="m 1691.1994,-792.32001 h 1634.8919 v 92.82806 H 1691.1994 Z" />
    </clipPath>
    <clipPath
       clipPathUnits="userSpaceOnUse"
       id="clipPath33">
      <rect
         style="fill:#000000;stroke:none;stroke-width:0.999995;stroke-linecap:butt;stroke-linejoin:bevel;paint-order:stroke markers fill;stop-color:#000000"
         id="rect33"
         width="46.19186"
         height="80.006783"
         x="74.999985"
         y="399.99661" />
    </clipPath>
    <clipPath
       clipPathUnits="userSpaceOnUse"
       id="clipPath27">
      <rect
         style="fill:none;stroke:#000000;stroke-width:0.999999;stroke-linecap:butt;stroke-linejoin:bevel;paint-order:stroke markers fill;stop-color:#000000"
         id="rect28-6"
         width="46.160622"
         height="39.922417"
         x="86.574379"
         y="420.06253" />
    </clipPath>
    <clipPath
       clipPathUnits="userSpaceOnUse"
       id="clipPath25">
      <rect
         style="fill:#ff0000;stroke:none;stroke-width:3;stroke-linecap:square;stroke-linejoin:miter;paint-order:stroke markers fill;stop-color:#000000"
         id="rect25-8"
         width="78"
         height="45.033199"
         x="763.61322"
         y="452.82422" />
    </clipPath>
    <clipPath
       clipPathUnits="userSpaceOnUse"
       id="clipPath15">
      <rect
         style="fill:none;stroke:#000000;stroke-linecap:butt;stroke-linejoin:bevel;paint-order:stroke markers fill;stop-color:#000000"
         id="rect15-7"
         width="45.034248"
         height="38.955639"
         x="262.48285"
         y="121.00073" />
    </clipPath>
    <linearGradient
       id="swatch75">
      <stop
         style="stop-color:#000000;stop-opacity:1;"
         offset="0"
         id="stop75" />
    </linearGradient>
  </defs>
  <g
     id="layer51"
     style="display:inline">
    <g
       id="layer49"
       style="display:inline">
      <path
         style="baseline-shift:baseline;display:inline;overflow:visible;opacity:1;vector-effect:none;fill-rule:evenodd;enable-background:accumulate;stop-color:#000000;stop-opacity:1"
         d="m 198.53906,215.54883 c 0,8.41681 0.098,9.85226 -0.39258,12.98242 -0.4906,3.13016 -1.84113,8.9028 -4.68359,23.68359 -0.66006,3.43231 -2.57063,8.06582 -3.5625,14.34766 -1.19653,7.57806 -1.02165,14.14567 -1.77539,19.42187 -0.9213,6.44909 -0.97918,6.46328 -1.50391,9.8418 -0.0212,0.0265 -0.0794,0.0745 -0.0996,0.0996 -0.80291,0.99812 -1.06744,1.58884 -1.29296,2.05859 -0.90211,1.87903 -0.87135,2.34097 -1.10352,3.28711 -0.23217,0.94615 -0.46604,2.03404 -0.74219,3.43164 -0.55229,2.79522 -1.26692,6.80269 -2.23242,12.59571 -1.65709,9.94254 -2.27855,19.44588 -3.53906,28.26953 -0.89944,6.29607 -2.74731,13.35399 -3.55664,21.44726 -0.597,5.97009 -0.0488,11.00582 -0.0488,15.01563 v 47.31445 108.65039 71.85157 15.77148 c 0,2.3123 -0.89348,6.50773 0.16016,12.30273 1.25487,6.90182 3.65928,9.53666 3.53906,8.93555 0.06,0.29992 -0.19531,2.57262 -0.19531,6.80078 0,2.31715 -0.33271,5.5551 0.041,9.66602 0.45644,5.0209 1.56697,8.45931 1.75391,10.51562 0.15514,1.70655 -0.041,4.33313 -0.041,7.85743 v 24.5332 22.78125 8.76172 1.7539 c 0,0.6113 -0.008,0.65175 -0.0176,1.02539 -0.4742,0.79606 -1.01145,1.85441 -1.4375,3.5586 -1.06766,4.27066 -0.29882,6.37829 -0.29882,5.92969 v 3.50585 17.52344 15.77149 3.50586 c 0,0.65642 -0.51175,3.00962 0.13671,6.90039 0.56624,3.39744 1.27996,4.88324 1.61719,5.45898 v 3.41211 5.25781 1.75196 c 0,-1.19867 0.0674,-1.17849 -0.041,-0.1836 -0.10838,0.9949 -0.3683,3.48026 1.0957,6.40821 0.20546,0.41092 0.3962,0.63822 0.59961,0.98828 0.0223,1.04518 -0.007,2.02065 0.29101,3.50976 1.0314,5.15696 2.87613,6.61379 4.1836,8.47071 0.35441,0.50334 0.59709,0.93739 0.90429,1.44531 0.0106,0.71303 -0.0326,1.33915 0.16993,2.35156 0.68661,3.43297 1.74959,5.49097 2.07226,6.45898 0.46036,1.38109 0.97631,3.36655 1.95313,5.8086 0.45108,1.12771 0.71888,1.64472 0.99609,2.20508 0.11073,1.09549 0.36386,2.34292 1.09766,3.81054 0.23001,0.46002 0.45803,0.58691 0.69726,0.96094 v 12.0918 5.25586 c 0,2.64906 0.39738,3.23584 0.28711,2.5664 -0.11026,-0.66944 -0.4862,-4.75793 2.64063,-7.88476 1.79885,-1.79881 3.7172,-2.35093 5.31836,-2.54883 v 19.62109 c -2.06491,0 -1.97996,-0.19204 -0.6836,0.0215 1.29637,0.21353 5.96797,0.58859 9.50782,-2.95117 3.53988,-3.53989 3.1647,-8.21146 2.95117,-9.50782 -0.21353,-1.29636 -0.0215,-1.38131 -0.0215,0.6836 v -5.25586 -12.26758 -1.75195 c 0,1.19861 -0.0693,1.17846 0.0391,0.18359 0.10836,-0.99487 0.36822,-3.48029 -1.09571,-6.4082 -0.33861,-0.67722 -0.67478,-0.91888 -1.02734,-1.41407 -0.0729,-0.27308 -0.0834,-0.48666 -0.18164,-0.78125 -1.18368,-3.55104 -2.2322,-4.74943 -1.95508,-4.05664 -0.39526,-0.98814 -0.84286,-2.58128 -1.55078,-4.70507 -0.6986,-2.09576 -1.01057,-2.86568 -1.1836,-3.35157 0.16464,-1.17308 0.35996,-3.13433 -0.77148,-5.96289 -1.71863,-4.29659 -2.79389,-4.68695 -3.81055,-6.13086 -0.43015,-0.61092 -0.68645,-1.22893 -0.8789,-1.65625 0.0823,-0.051 0.14844,-0.17963 0.14843,-2.51757 v -4.14258 l -1.75195,-1.75196 v -4.62109 -3.50391 c 0,1.03253 0.62621,-0.4757 -0.29883,-4.17773 v -0.002 c -0.94869,-3.79402 -1.71153,-5.20477 -1.58984,-4.47461 0.0723,0.43358 0.13477,-0.76485 0.13477,-3.61328 v -3.50586 -15.77149 -17.52344 -3.50585 c 0,-0.61131 0.008,-0.65175 0.0176,-1.0254 0.47421,-0.79605 1.01145,-1.8544 1.4375,-3.55859 1.06765,-4.27063 0.29883,-6.37829 0.29883,-5.92969 v -1.7539 -8.76172 -22.78125 -24.5332 c 0,-2.31715 0.33271,-5.55706 -0.041,-9.66797 -0.45645,-5.02091 -1.56697,-8.45931 -1.75391,-10.51563 -0.15514,-1.70654 0.041,-4.33117 0.041,-7.85547 0,-1.61328 0.89225,-5.2965 -0.19336,-10.72461 -1.35409,-6.77034 -3.60209,-9.30171 -3.47266,-8.58984 -0.2003,-1.10166 0.16211,-4.02717 0.16211,-8.72461 V 609.84766 537.99609 429.3457 382.03125 c 0,-5.33651 -0.38376,-9.69553 -0.0508,-13.02539 0.60491,-6.04903 2.34452,-12.83545 3.45508,-20.60938 1.40358,-9.82511 2.02888,-19.17133 3.46875,-27.81054 0.31808,-1.90851 0.45013,-2.51357 0.71289,-4.0293 1.49603,-1.462 1.82714,-2.3679 2.0625,-2.89258 0.28522,-0.63583 0.38798,-0.98412 0.48047,-1.2832 0.18496,-0.59816 0.26365,-0.95559 0.3496,-1.3457 0.68765,-3.12092 1.48525,-8.54324 3.43946,-22.22266 1.07118,-7.49828 0.91444,-13.96264 1.73047,-19.13086 0.51066,-3.23421 2.28797,-7.66116 3.44726,-13.68945 2.79897,-14.55464 4.07701,-19.72056 4.80469,-24.36328 0.72768,-4.64273 0.63281,-7.8168 0.63281,-16.08008 z m 9.77735,627.1914 c -0.17756,-0.13012 0.0821,-0.0273 0.5332,0.40625 -0.15485,-0.10293 -0.47116,-0.36077 -0.5332,-0.40625 z m -16.65039,4.51954 c -0.0189,0.10279 -0.0674,0.67763 -0.125,0.9746 0.0267,-0.83586 0.17385,-1.24061 0.125,-0.9746 z m 4.29882,11.20898 c 0.15354,0.102 0.4676,0.35908 0.5293,0.4043 0.17739,0.13 -0.079,0.0282 -0.5293,-0.4043 z"
         id="path397" />
      <path
         style="baseline-shift:baseline;display:inline;overflow:visible;opacity:1;vector-effect:none;fill-rule:evenodd;enable-background:accumulate;stop-color:#000000;stop-opacity:1"
         d="m 635.70703,529.43945 c -1.80066,-0.0871 -4.07892,-0.0389 -6.79297,0.50391 -3.16497,0.63299 -5.48828,1.16723 -7.37304,1.69531 -1.88477,0.52809 -3.06605,0.65183 -5.58594,2.33789 -0.19247,0.12878 -0.52121,0.47175 -0.76563,0.64258 -1.68475,0.16976 -1.46748,0.17584 -4.41992,0.42188 -0.66476,0.0554 -5.03308,-1.6249 -12.26172,0.30273 -7.05229,1.88061 -11.96765,4.67469 -15.52148,6.59766 -3.55383,1.92297 -5.64175,3.01841 -9.83203,3.71679 -0.52972,0.0883 -3.91944,-0.78831 -10.03907,-0.0684 -7.60974,0.89526 -13.98769,2.78126 -19.45898,3.52735 -7.6427,1.04218 -8.52916,1.1106 -12.01367,1.54883 -1.08505,-0.4828 -1.88499,-0.65375 -2.41016,-0.74805 -3.23866,-0.58157 -4.15672,-0.27411 -7.13672,-0.11328 -2.97999,0.16082 -7.13666,0.47869 -13.04297,1.01562 -9.05972,0.82362 -16.43625,3.09191 -22.51953,3.48438 -9.63614,0.62168 -19.95657,-0.0215 -30.90039,-0.0215 -11.95728,0 -24.39302,-0.58701 -37.26562,0.0117 -13.62882,0.63389 -26.48948,2.67835 -38.76953,3.51563 -12.19791,0.83167 -25.20538,0.46532 -38.83008,1.77539 -18.12213,1.74251 -35.66211,4.84653 -52.88281,7.04492 -9.50496,1.2134 -19.61768,1.85926 -30.11719,3.55273 -9.38564,1.51382 -17.32587,4.22624 -24.35547,5.23047 -4.88796,0.69828 -7.11854,0.39254 -10.74414,-0.20508 -2.33097,-0.38421 -5.55093,-0.86156 -9.25391,-1.2207 -1.16252,-0.22075 -2.20057,-0.34108 -3.12109,-0.4043 -1.49349,-0.10256 -2.713,-0.10334 -3.6543,-0.0742 -0.23532,0.007 -0.44844,0.0154 -0.71484,0.0332 -0.26641,0.0178 0.62907,-0.40312 -2.13281,0.34961 -0.34524,0.0941 -0.78151,0.19048 -1.7129,0.63867 -0.46569,0.2241 -1.94684,1.23013 -1.94726,1.23047 -4.2e-4,3.4e-4 -3.11511,4.35904 -3.11524,4.35937 -1.2e-4,3.4e-4 0.63654,8.24772 0.63672,8.24805 1.8e-4,3.3e-4 3.24366,3.51726 3.24414,3.51758 4.9e-4,3.2e-4 1.39902,0.78529 1.83789,0.95898 0.37003,0.14645 0.61724,0.2181 0.84961,0.28516 0.0104,0.0963 1.44624,0.66172 3.08399,1.4375 1.15713,0.54811 2.43585,1.47351 5.93359,1.53711 1.39046,0.0253 3.35007,-0.44075 5.27149,-1.41406 0.5222,0.0896 0.98335,0.15808 1.54101,0.25 4.27433,0.70454 9.78803,1.27693 16.82617,0.27148 9.52964,-1.36138 17.58459,-4.13543 24.71289,-5.28516 9.24321,-1.49084 19.13291,-2.13805 29.46485,-3.45703 17.85349,-2.27917 35.18929,-5.33479 52.26367,-6.97656 11.98606,-1.15251 24.80596,-0.81001 38.27734,-1.72852 13.46851,-0.9183 26.18623,-2.92699 38.33789,-3.49218 11.63496,-0.54117 23.75917,0.01 36.33594,0.01 10.08539,0 20.83807,0.71269 32.1875,-0.0195 9.25129,-0.59685 16.79936,-2.95778 23.04297,-3.52539 2.59909,-0.23628 3.63876,-0.28264 5.54688,-0.43359 2.10605,1.73487 3.28433,1.29696 3.95507,1.41601 3.46726,0.61541 2.79076,0.14809 3.54297,0.0859 3.00885,-0.24859 8.78502,-1.00975 22.44922,-2.87305 7.47081,-1.01875 13.73109,-2.84957 19.09375,-3.48047 0.8421,-0.0991 4.6056,0.99576 10.99024,-0.0684 7.02102,-1.17017 12.20931,-3.76857 16.0625,-5.85352 3.85319,-2.08495 6.4769,-3.61298 11.1582,-4.86133 -0.45558,0.12149 2.44682,0.82948 8.76758,0.30274 6.86201,-0.57184 9.50975,-0.75325 12.10547,-1.23438 0.64893,-0.12028 0.99947,0.12197 3.38086,-1.12305 0.70437,-0.36825 2.13215,-1.11565 3.37109,-2.70703 0.6276,-0.13467 0.7975,-0.20286 1.55078,-0.35351 0.2999,-0.06 2.57262,0.19531 6.80078,0.19531 h 22.78125 35.04883 10.3418 c 0.37308,0.23845 0.49851,0.46605 0.95703,0.69531 2.7641,1.38203 5.03731,1.21246 6.13086,1.09961 3.20053,2.05951 6.69182,1.9112 7.78906,1.73047 1.29637,-0.21353 1.37941,-0.0215 -0.68555,-0.0215 h 1.75391 19.27539 v -20 h -17.36914 c -3.21638,-2.10193 -6.74553,-1.9553 -7.84961,-1.77344 -1.29639,0.21354 -1.37947,0.0215 0.68555,0.0215 h -1.57813 c -0.37367,-0.23893 -0.49954,-0.46754 -0.95898,-0.69726 h -0.002 c -2.92788,-1.46392 -5.41138,-1.20212 -6.40625,-1.09375 -0.99486,0.10836 -1.01498,0.0391 0.1836,0.0391 h -1.75391 -10.51367 -35.04883 -22.78125 c -0.80664,0 -2.13098,-0.22339 -3.93164,-0.31055 z m -10.625,4.08399 c 0.0621,0.0151 0.40253,0.26725 0.50391,0.3125 -0.28522,-0.0792 -0.52154,-0.14077 -0.60157,-0.16211 -0.0992,-0.0265 -0.18279,-0.21871 0.0977,-0.15039 z m 94.94141,0.6582 c 0.43354,0.45113 0.53637,0.71076 0.40625,0.5332 -0.0455,-0.0621 -0.30317,-0.37815 -0.40625,-0.5332 z m -15.72461,12.35547 c 0.0455,0.0621 0.30317,0.37815 0.40625,0.5332 -0.43356,-0.45114 -0.53638,-0.71075 -0.40625,-0.5332 z m -84.76563,6.41406 c 0.0766,0.007 0.22698,0.0282 0.29688,0.0469 0.30132,0.0804 0.48176,0.12984 0.36328,0.0957 -0.066,-0.019 -0.21928,0.0239 -0.66016,-0.14258 z m -92.98828,17.95508 c -0.51979,0.24307 -0.70891,0.16326 -0.85547,0.2168 -0.64175,0.23442 0.30106,-0.0537 0.85547,-0.2168 z m -319.75781,2.6543 c -0.0495,0 -0.0868,-0.0115 0.31445,0.0137 0.006,3.9e-4 0.057,0.01 0.0625,0.01 -0.14434,-8.5e-4 -0.23086,-0.0234 -0.37695,-0.0234 z m 1.51758,3.92968 -2.97852,11.91211 c -0.98286,-2.00168 -1.74281,-4.46624 -1.23047,-6.51562 0.33122,-1.32484 1.41341,-3.54823 3.4043,-5.01172 0.26592,-0.19548 0.53324,-0.22801 0.80469,-0.38477 z"
         id="path398" />
      <path
         style="baseline-shift:baseline;display:inline;overflow:visible;opacity:1;vector-effect:none;fill-rule:evenodd;enable-background:accumulate;stop-color:#000000;stop-opacity:1"
         d="m 714.44336,139.36328 -19.93164,1.66211 c 2.0765,24.91792 1.89416,27.90505 7.13476,57.01953 3.23958,17.99766 7.49459,35.36503 10.50586,52.5293 5.32534,30.35443 6.4003,38.4988 6.9336,47.06055 0.53329,8.56174 0.52829,18.44926 3.47461,50.26953 2.54553,27.49174 7.42359,54.05205 8.73047,80.18945 0.50436,10.0874 -0.60413,21.21252 0,33.29492 0.66028,13.20561 2.93543,25.39206 3.50585,36.80078 0.521,10.41988 -0.0137,21.36521 -0.0137,32.79688 v 36.80273 c 0,9.16547 0.50081,17.74065 0.0195,25.68164 -0.58371,9.63138 -2.68313,20.02668 -3.49804,31.43555 -0.48388,6.77416 -0.0254,12.86987 -0.0254,18.23633 v 10.51562 66.5918 24.5332 c 0,2.36708 -0.29937,5.57964 0.0351,9.59375 0.44973,5.39674 1.55825,9.37177 1.74024,12.10157 0.25185,3.77786 -0.0234,8.2369 -0.0234,13.35351 0,2.49115 -0.72404,6.56719 0.11719,12.03516 0.96992,6.30451 2.54971,10.68531 3.87695,13.91406 1.32724,3.22875 2.251,5.17362 3.27148,9.5957 0.65848,2.8534 0.87741,6.75589 1.61329,11.53907 0.63198,4.10789 1.42707,7.40552 1.68554,9.99023 -0.0443,-0.44278 -1.08692,2.43996 0.18946,8.18359 1.38148,6.21671 3.52058,8.83678 3.5039,8.76172 -0.25083,-1.12875 -0.57015,0.74371 -0.22461,4.875 -0.36856,4.48354 0.80203,8.34058 1.78907,10.83008 1.12212,2.83024 1.77725,4.43498 1.83789,4.79883 -0.0723,-0.43359 -0.13477,0.76485 -0.13477,3.61328 0,0.13553 -0.91052,2.84622 0.29883,7.68359 0.35309,1.41235 0.87742,2.50056 1.45312,3.41211 v 1.17188 c 0,-1.19867 0.0693,-1.17849 -0.0391,-0.1836 -0.10837,0.9949 -0.37025,3.48026 1.09375,6.40821 0.22973,0.45946 0.45833,0.5853 0.69727,0.95898 v 3.33008 17.52539 h 20 V 900.75 895.49414 c 0,1.19864 -0.0693,1.17849 0.0391,0.18359 0.10837,-0.99489 0.37019,-3.48032 -1.09375,-6.4082 -0.2161,-0.43218 -0.4317,-0.54627 -0.65625,-0.90234 0.11168,0.53435 1.05472,-1.72251 -0.55469,-6.55078 -0.35314,-1.05943 -0.79421,-1.86955 -1.24414,-2.60157 -10e-4,-0.46809 0.006,-0.59389 0.006,-1.24609 0,-0.65643 0.51175,-3.00963 -0.13672,-6.90039 -0.73126,-4.38759 -2.30406,-7.19156 -2.97461,-8.88281 -0.67054,-1.69126 -0.54223,-1.78071 -0.55859,-1.69141 l 0.26562,-1.44531 -0.16211,-1.46094 c 0.0652,0.58714 1.11441,-2.25955 -0.17773,-8.07422 -1.3815,-6.21668 -3.52059,-8.8368 -3.50391,-8.76172 0.26262,1.18176 0.69678,-0.74319 0.1875,-5.83593 -0.44864,-4.48645 -1.36976,-8.12513 -1.81836,-11.04102 -0.52028,-3.38181 -0.69347,-7.79806 -1.89257,-12.99414 -1.37682,-5.96623 -3.10765,-9.89564 -4.26172,-12.70313 -1.15407,-2.80748 -1.88042,-4.62605 -2.60742,-9.35156 -0.22466,-1.46025 0.11523,-4.47556 0.11523,-8.99414 0,-4.2297 0.34836,-9.13584 -0.0215,-14.68359 -0.36754,-5.51295 -1.52932,-9.59782 -1.76563,-12.4336 -0.1506,-1.80714 0.0352,-4.45726 0.0352,-7.93164 V 720.25 653.6582 643.14258 c 0,-6.31643 -0.3739,-11.9315 -0.0254,-16.81055 0.69256,-9.69597 2.81545,-20.16386 3.51171,-31.65234 0.57887,-9.55125 0.0176,-18.53176 0.0176,-26.89063 v -36.80273 c 0,-10.76583 0.57579,-22.04502 -0.0117,-33.79492 -0.66027,-13.20562 -2.93346,-25.39205 -3.5039,-36.80079 -0.50438,-10.08737 0.60411,-21.21447 0,-33.29687 -1.39503,-27.90048 -6.35843,-54.74018 -8.79297,-81.0332 -2.9115,-31.44426 -2.83756,-40.19512 -3.42774,-49.66993 -0.59017,-9.4748 -1.84314,-18.76607 -7.19531,-49.27343 -3.16505,-18.04082 -7.42912,-35.43545 -10.52148,-52.61524 -5.18818,-28.82325 -4.78986,-29.97637 -6.88672,-55.13867 z m 54.65234,745.43555 c -0.17754,-0.13012 0.082,-0.0273 0.53321,0.40625 -0.15505,-0.10308 -0.47111,-0.36074 -0.53321,-0.40625 z M 754.92578,891.75 c 0.40958,0.25941 1.03485,0.74475 1.14844,0.81641 0.24745,0.15609 -0.34772,-0.0224 -1.14844,-0.81641 z m 1.81055,8.77148 c 0.15657,0.10417 0.47461,0.3624 0.53711,0.40821 0.17788,0.13036 -0.0844,0.0274 -0.53711,-0.40821 z"
         id="path399" />
    </g>
  </g>
</svg>
