<?xml version="1.0" encoding="UTF-8" standalone="no"?>
<!-- Created with Inkscape (http://www.inkscape.org/) -->

<svg
   width="1000"
   height="1000"
   viewBox="0 0 1000 1000"
   version="1.1"
   id="svg1"
   xmlns:xlink="http://www.w3.org/1999/xlink"
   xmlns="http://www.w3.org/2000/svg"
   xmlns:svg="http://www.w3.org/2000/svg">
  <defs
     id="defs1">
    <pattern
       xlink:href="#pattern359"
       preserveAspectRatio="xMidYMid"
       id="pattern372"
       patternTransform="matrix(0.5,0,0,0.5,147.15462,1548.2922)" />
    <pattern
       xlink:href="#pattern357"
       preserveAspectRatio="xMidYMid"
       id="pattern371"
       patternTransform="matrix(0.5,0,0,0.5,221.32076,1552.4298)" />
    <pattern
       xlink:href="#pattern358"
       preserveAspectRatio="xMidYMid"
       id="pattern370"
       patternTransform="matrix(0.5,0,0,0.5,230.96346,1527.8214)" />
    <pattern
       xlink:href="#pattern355"
       preserveAspectRatio="xMidYMid"
       id="pattern369"
       patternTransform="matrix(0.5,0,0,0.5,287.08178,1553.6581)" />
    <pattern
       xlink:href="#pattern354"
       preserveAspectRatio="xMidYMid"
       id="pattern368"
       patternTransform="matrix(0.5,0,0,0.5,230.97274,1529.1717)" />
    <pattern
       xlink:href="#pattern342"
       preserveAspectRatio="xMidYMid"
       id="pattern360"
       patternTransform="matrix(0.5,0,0,0.5,210.45332,1525.5392)" />
    <pattern
       xlink:href="#pattern342"
       preserveAspectRatio="xMidYMid"
       id="pattern359"
       patternTransform="matrix(0.5,0,0,0.5,152.11125,1550.7705)" />
    <pattern
       xlink:href="#pattern342"
       preserveAspectRatio="xMidYMid"
       id="pattern358"
       patternTransform="matrix(0.5,0,0,0.5,202.11125,1533.2444)" />
    <pattern
       xlink:href="#pattern342"
       preserveAspectRatio="xMidYMid"
       id="pattern357"
       patternTransform="matrix(0.5,0,0,0.5,211.4075,1546.234)" />
    <pattern
       xlink:href="#pattern342"
       preserveAspectRatio="xMidYMid"
       id="pattern356"
       patternTransform="matrix(0.5,0,0,0.5,232.14929,1573.2544)" />
    <pattern
       xlink:href="#pattern342"
       preserveAspectRatio="xMidYMid"
       id="pattern355"
       patternTransform="matrix(0.5,0,0,0.5,275,1552.7287)" />
    <pattern
       xlink:href="#pattern342"
       preserveAspectRatio="xMidYMid"
       id="pattern354"
       patternTransform="matrix(0.5,0,0,0.5,235,1529.7913)" />
    <pattern
       xlink:href="#shading24"
       preserveAspectRatio="xMidYMid"
       id="pattern342"
       patternTransform="matrix(0.5,0,0,0.5,213.95332,1537.5392)"
       x="0"
       y="0" />
    <pattern
       patternUnits="userSpaceOnUse"
       width="338.5925"
       height="42.989567"
       patternTransform="translate(213.95332,1537.5392) scale(0.5)"
       preserveAspectRatio="xMidYMid"
       id="shading24"
       style="fill:#000000">
      <path
         style="fill-rule:nonzero;stroke:none;stroke-width:0.1;stroke-linecap:square;paint-order:markers fill stroke;stop-color:#000000"
         d="m 1806.4991,-758.06464 v 18.86792 c 55.9187,0 121.0493,0.59523 193.5686,3.15628 72.9408,2.57593 146.0589,6.87694 222.9288,13.47675 119.09,10.22471 223.0762,23.76065 340.6056,39.2177 117.5025,15.4535 222.0471,29.0563 341.8507,39.3312 77.366,6.63525 151.0001,10.96128 224.4674,13.55245 73.0344,2.5759 138.631,3.17493 194.9247,3.17493 -55.9642,0 -122.2215,-1.36594 -194.8324,-5.25394 -73.2143,-3.92032 -146.9676,-10.0663 -223.8166,-18.88656 -118.8791,-13.6442 -223.3242,-31.02113 -339.8009,-50.57815 -116.4705,-19.55598 -221.1862,-36.99475 -340.3724,-50.69165 -77.0605,-8.8558 -150.9942,-15.0266 -224.3694,-18.96225 -72.7637,-3.90286 -139.1256,-5.27261 -195.1541,-5.27261 z m 0,37.81515 v 18.86793 c 55.9187,0 121.0493,0.59523 193.5686,3.15627 72.9408,2.57593 146.0589,6.87694 222.9288,13.47676 119.09,10.22471 223.0762,23.76065 340.6056,39.2177 117.5025,15.4535 222.0471,29.0563 341.8507,39.33119 77.366,6.63526 151.0001,10.96128 224.4674,13.55245 73.0344,2.5759 138.631,3.17493 194.9247,3.17493 -55.9642,0 -122.2215,-1.36594 -194.8324,-5.25394 -73.2143,-3.92031 -146.9676,-10.0663 -223.8166,-18.88656 -118.8791,-13.6442 -223.3242,-31.02112 -339.8009,-50.57815 -116.4705,-19.55598 -221.1862,-36.99475 -340.3724,-50.69165 -77.0605,-8.8558 -150.9942,-15.02659 -224.3694,-18.96225 -72.7637,-3.90286 -139.1256,-5.2726 -195.1541,-5.2726 z m 0,37.81516 v 18.86792 c 55.9187,0 121.0493,0.59523 193.5686,3.15628 72.9408,2.57593 146.0589,6.87694 222.9288,13.47675 119.09,10.22471 223.0762,23.76065 340.6056,39.2177 117.5025,15.4535 222.0471,29.0563 341.8507,39.3312 77.366,6.63525 151.0001,10.96128 224.4674,13.55245 73.0344,2.5759 138.631,3.17493 194.9247,3.17493 -55.9642,0 -122.2215,-1.36594 -194.8324,-5.25394 -73.2143,-3.92032 -146.9676,-10.0663 -223.8166,-18.88656 -118.8791,-13.6442 -223.3242,-31.02113 -339.8009,-50.57815 -116.4705,-19.55598 -221.1862,-36.99475 -340.3724,-50.69165 -77.0605,-8.8558 -150.9942,-15.0266 -224.3694,-18.96225 -72.7637,-3.90286 -139.1256,-5.27261 -195.1541,-5.27261 z m 0,37.81515 v 18.86793 c 55.9187,0 121.0493,0.59523 193.5686,3.15627 72.9408,2.57593 146.0589,6.87694 222.9288,13.47676 119.09,10.22471 223.0762,23.76065 340.6056,39.2177 117.5025,15.4535 222.0471,29.0563 341.8507,39.33119 77.366,6.63526 151.0001,10.96128 224.4674,13.55245 73.0344,2.5759 138.631,3.17494 194.9247,3.17494 -55.9642,0 -122.2215,-1.36595 -194.8324,-5.25395 -73.2143,-3.92031 -146.9676,-10.0663 -223.8166,-18.88656 -118.8791,-13.6442 -223.3242,-31.02112 -339.8009,-50.57815 -116.4705,-19.55598 -221.1862,-36.99475 -340.3724,-50.69165 -77.0605,-8.8558 -150.9942,-15.02659 -224.3694,-18.96225 -72.7637,-3.90286 -139.1256,-5.2726 -195.1541,-5.2726 z m 0,37.81516 v 18.86792 c 55.9187,0 121.0493,0.59523 193.5686,3.15628 72.9408,2.57593 146.0589,6.87694 222.9288,13.47675 119.09,10.22471 223.0762,23.76065 340.6056,39.2177 117.5025,15.4535 222.0471,29.0563 341.8507,39.3312 77.366,6.63525 151.0001,10.96128 224.4674,13.55245 73.0344,2.5759 138.631,3.17493 194.9247,3.17493 -55.9642,0 -122.2215,-1.36594 -194.8324,-5.25394 -73.2143,-3.92032 -146.9676,-10.0663 -223.8166,-18.88656 -118.8791,-13.6442 -223.3242,-31.02113 -339.8009,-50.57815 -116.4705,-19.55598 -221.1862,-36.99475 -340.3724,-50.69165 -77.0605,-8.8558 -150.9942,-15.0266 -224.3694,-18.96225 -72.7637,-3.90286 -139.1256,-5.27261 -195.1541,-5.27261 z m 0,37.81515 v 18.86793 c 55.9187,0 121.0493,0.59523 193.5686,3.15627 72.9408,2.57593 146.0589,6.87694 222.9288,13.47676 119.09,10.22471 223.0762,23.76065 340.6056,39.2177 117.5025,15.4535 222.0471,29.0563 341.8507,39.33119 77.366,6.63526 151.0001,10.96128 224.4674,13.55245 73.0344,2.5759 138.631,3.17494 194.9247,3.17494 -55.9642,0 -122.2215,-1.36595 -194.8324,-5.25395 -73.2143,-3.92031 -146.9676,-10.0663 -223.8166,-18.88656 -118.8791,-13.6442 -223.3242,-31.02112 -339.8009,-50.57815 -116.4705,-19.55598 -221.1862,-36.99475 -340.3724,-50.69165 -77.0605,-8.8558 -150.9942,-15.02659 -224.3694,-18.96225 -72.7637,-3.90286 -139.1256,-5.2726 -195.1541,-5.2726 z m 0,37.81516 v 18.86792 c 55.9187,0 121.0493,0.59523 193.5686,3.15628 72.9408,2.57593 146.0589,6.87694 222.9288,13.47675 119.09,10.22471 223.0762,23.76065 340.6056,39.2177 117.5025,15.4535 222.0471,29.0563 341.8507,39.3312 77.366,6.63525 151.0001,10.96128 224.4674,13.55245 73.0344,2.5759 138.631,3.17493 194.9247,3.17493 -55.9642,0 -122.2215,-1.36594 -194.8324,-5.25394 -73.2143,-3.92032 -146.9676,-10.0663 -223.8166,-18.88656 -118.8791,-13.6442 -223.3242,-31.02113 -339.8009,-50.57815 -116.4705,-19.55598 -221.1862,-36.99475 -340.3724,-50.69165 -77.0605,-8.8558 -150.9942,-15.0266 -224.3694,-18.96225 -72.7637,-3.90286 -139.1256,-5.27261 -195.1541,-5.27261 z"
         id="use26"
         transform="matrix(0.22300099,0,0,0.37823052,-402.85121,237.25945)" />
    </pattern>
    <clipPath
       clipPathUnits="userSpaceOnUse"
       id="clipPath54">
      <path
         id="path336"
         style="stroke-width:0.0999999;stroke-linecap:square;paint-order:markers fill stroke;stop-color:#000000"
         d="m 1691.1994,-792.32001 h 1634.8919 v 92.82806 H 1691.1994 Z" />
    </clipPath>
    <clipPath
       clipPathUnits="userSpaceOnUse"
       id="clipPath33">
      <rect
         style="fill:#000000;stroke:none;stroke-width:0.999995;stroke-linecap:butt;stroke-linejoin:bevel;paint-order:stroke markers fill;stop-color:#000000"
         id="rect33"
         width="46.19186"
         height="80.006783"
         x="74.999985"
         y="399.99661" />
    </clipPath>
    <clipPath
       clipPathUnits="userSpaceOnUse"
       id="clipPath27">
      <rect
         style="fill:none;stroke:#000000;stroke-width:0.999999;stroke-linecap:butt;stroke-linejoin:bevel;paint-order:stroke markers fill;stop-color:#000000"
         id="rect28-6"
         width="46.160622"
         height="39.922417"
         x="86.574379"
         y="420.06253" />
    </clipPath>
    <clipPath
       clipPathUnits="userSpaceOnUse"
       id="clipPath25">
      <rect
         style="fill:#ff0000;stroke:none;stroke-width:3;stroke-linecap:square;stroke-linejoin:miter;paint-order:stroke markers fill;stop-color:#000000"
         id="rect25-8"
         width="78"
         height="45.033199"
         x="763.61322"
         y="452.82422" />
    </clipPath>
    <clipPath
       clipPathUnits="userSpaceOnUse"
       id="clipPath15">
      <rect
         style="fill:none;stroke:#000000;stroke-linecap:butt;stroke-linejoin:bevel;paint-order:stroke markers fill;stop-color:#000000"
         id="rect15-7"
         width="45.034248"
         height="38.955639"
         x="262.48285"
         y="121.00073" />
    </clipPath>
    <linearGradient
       id="swatch75">
      <stop
         style="stop-color:#000000;stop-opacity:1;"
         offset="0"
         id="stop75" />
    </linearGradient>
  </defs>
  <g
     id="layer51"
     style="display:inline">
    <g
       id="layer52"
       style="display:inline">
      <path
         style="baseline-shift:baseline;display:inline;overflow:visible;opacity:1;vector-effect:none;fill-rule:evenodd;enable-background:accumulate;stop-color:#000000;stop-opacity:1"
         d="m 280.59766,142.65625 -3.92188,19.61133 c 3.1129,0.62257 5.95427,1.10979 8.47461,1.6914 4.45743,1.02864 9.05106,2.26326 13.8418,3.46094 l 0.68164,0.16992 0.69726,0.0742 c 11.77793,1.23978 22.6991,1.328 32.28321,3.34571 9.48098,1.996 19.9975,7.68468 33.27539,10.50976 17.31157,3.68331 34.06639,4.23431 49.32812,7.06055 14.46746,2.67916 29.37925,7.51836 45.56446,10.51562 21.65639,4.01045 33.32051,6.01608 40.15039,6.97461 3.41494,0.47927 5.59779,0.71565 7.60937,0.75586 2.01158,0.0402 4.63134,-0.40627 6.02539,-0.93945 0.0273,-0.0104 -0.006,-9e-5 0.0195,-0.01 -0.0633,0.0161 0.43437,-0.0633 2.32227,0.0254 4.21085,0.1979 13.46956,1.14241 31.90039,3.77539 19.25463,2.75067 38.91188,7.75883 59.67578,10.52735 15.88948,2.11859 31.33778,2.30563 46.03711,3.55664 11.8826,1.01128 24.19823,2.80897 37.09375,3.52539 9.48714,0.52707 18.44943,0.0137 26.8418,0.0137 h 36.80078 v -20 h -36.80078 c -9.13197,0 -17.72222,0.46064 -25.73243,0.0156 -11.71161,-0.65065 -23.83409,-2.40576 -36.50781,-3.48438 -15.65616,-1.33245 -30.78132,-1.54532 -45.08984,-3.45312 -19.21786,-2.56238 -38.81466,-7.5483 -59.49024,-10.50196 -18.67751,-2.66822 -28.12078,-3.68663 -33.79101,-3.95312 -2.83511,-0.13325 -4.79125,-0.11253 -6.81445,0.22461 -1.2679,0.21128 -1.59729,0.41432 -2.26172,0.66406 -0.54194,-0.017 -2.10571,-0.13246 -5.0586,-0.54688 -6.1063,-0.85697 -17.72689,-2.84294 -39.28906,-6.83593 -14.46745,-2.67916 -29.37728,-7.51641 -45.5625,-10.51367 -17.23002,-3.19074 -33.79943,-3.76556 -48.80859,-6.95899 -9.49046,-2.01924 -20.01871,-7.72001 -33.31641,-10.51953 -12.04061,-2.53487 -23.45114,-2.57912 -33.72852,-3.61914 -4.31646,-1.08814 -8.74538,-2.27388 -13.39843,-3.34766 -3.28424,-0.7579 -6.32224,-1.26875 -9.05078,-1.81445 z"
         id="path400" />
      <path
         style="baseline-shift:baseline;display:inline;overflow:visible;opacity:1;vector-effect:none;fill-rule:evenodd;enable-background:accumulate;stop-color:#000000;stop-opacity:1"
         d="m 507.20508,218.63672 c -1.06485,4.7918 -2.70576,10.20573 -3.63477,16.47656 -1.63246,11.01908 -2.30087,21.68112 -3.53906,31.79297 -2.19195,17.90094 -5.02871,35.99752 -7.02539,54.4668 -6.50209,60.14432 -7.1057,68.42364 -7.06641,76.98632 0.0393,8.55488 0.66846,16.00802 -3.47461,77.49415 -4.29395,47.23052 -6.24718,67.32929 -7.61328,81.0371 -0.0745,0.56574 -0.15256,1.02977 -0.22656,1.62891 -0.46191,3.73979 -0.91072,8.04075 -1.24414,11.52539 -0.16671,1.74232 -0.30235,3.27393 -0.39844,4.44531 -0.048,0.5857 -0.0854,1.0754 -0.11328,1.50196 -0.0279,0.42656 -0.25639,-0.71697 -0.01,2.12304 0.0308,0.35501 -0.0689,0.66873 0.47852,2.3125 0.11397,0.34222 1.10627,0.77555 2.19922,1.21289 -0.0616,1.49861 -0.032,1.59431 -0.10352,3.23829 -0.70175,16.14001 -1.99463,32.33745 -3.47265,48.5957 -1.12113,12.33242 -1.8989,18.85837 -2.39063,22.21289 -0.49172,3.35452 -0.34968,2.29242 -0.78515,3.99023 -0.87094,3.39563 -0.3711,4.48711 -0.3711,27.27539 v 14.01954 c 0,0.65648 -0.51171,3.01165 0.13672,6.90234 0.56492,3.38943 1.27628,4.87258 1.61524,5.45312 v 3.41797 10.51368 38.55273 8.76367 c 0,3.07529 -0.81288,7.74178 0.11718,13.78711 0.59652,3.87735 1.10593,6.71707 1.58985,8.92383 0.47717,2.17601 0.67003,3.46345 1.84179,5.79101 -0.0158,1.76995 -0.043,1.77942 -0.043,4.79297 0,3.70866 -0.0446,5.46781 -0.0703,6.21875 -0.0128,0.37548 -0.0437,-0.36739 -0.0312,1.12305 0.002,0.18631 -0.0249,0.37358 0.0801,1.19727 0.0262,0.20592 0.0614,0.45954 0.13867,0.82226 0.0773,0.36272 0.47054,1.56404 0.47071,1.56445 6e-5,1.7e-4 0.43516,0.67905 0.83203,1.29688 0.16961,0.57177 0.33766,1.05745 0.52734,2.00586 -0.2837,-1.41851 -0.19531,-0.93081 -0.19531,1.54492 v 3.50391 c 0,-0.90658 0.004,-0.57984 -0.13672,0.71484 -0.14103,1.29468 -0.40123,4.07257 1.19336,7.26172 1.39863,2.79732 5.07276,5.14154 7.40625,5.57812 2.33348,0.43659 3.51092,0.0984 4.2207,-0.041 1.41957,-0.27888 1.75766,-0.01 -0.93164,-0.01 v -16.50976 c -0.1496,0.0534 -0.24166,0.12583 -0.40039,0.17578 -0.25325,0.0797 -0.51921,0.0472 -0.77734,0.0996 0.46068,-0.20307 0.59177,-0.26124 1.17773,-0.51953 v -2.88282 c 0.15878,0.0235 0.21297,-0.004 0.38867,0.0293 0.77523,0.14504 1.79442,0.74078 2.77149,1.31836 -0.12893,0.11319 -0.29365,0.22192 -0.43946,0.33399 0.0674,-0.0297 0.46678,-0.20507 0.4668,-0.20508 1e-5,-10e-6 0.0629,-0.0755 0.0684,-0.082 1.60051,0.96582 3.16045,2.21735 3.9375,3.77148 1.07211,2.1442 0.81119,3.75211 0.80078,3.84766 -0.0104,0.0956 0.25391,-0.80599 0.25391,-2.88086 v -3.50391 c 0,0.13915 0.54858,-1.75709 -0.19336,-5.4668 -0.53384,-2.66916 -0.84737,-4.16285 -1.60938,-6.04882 0.022,-1.17612 0.0508,-1.86985 0.0508,-4.25782 1e-5,-7.31911 0.0699,-10.38931 0.0957,-11.21093 10e-4,-0.0446 -0.006,0.0785 -0.002,0.006 0.005,-0.0945 0.01,-0.17954 0.0137,-0.26954 0.002,-0.0528 0.004,-0.0711 0.008,-0.25 8.7e-4,-0.0447 0.002,-0.0938 0.002,-0.23046 -4.5e-4,-0.13665 -0.26754,-2.25962 -0.26758,-2.25977 0,-1e-5 -1.56527,0.095 -1.89453,0.10937 -0.08,-0.26876 -0.13697,-0.39963 -0.21679,-0.76367 -0.33847,-1.54349 -0.80259,-4.06058 -1.35938,-7.67968 -0.31348,-2.03759 0.11524,-5.64336 0.11524,-10.7461 v -8.76367 -38.55273 -10.51368 -3.50586 c 0,1.03268 0.62707,-0.47394 -0.29883,-4.17773 -0.949,-3.79595 -1.71156,-5.20683 -1.58985,-4.47656 0.0722,0.43351 0.13672,-0.76489 0.13672,-3.61328 v -14.01954 c 0,-22.93618 -0.008,-23.27475 -0.25586,-22.30664 -0.12415,0.48406 0.61206,-2.03967 1.20117,-6.05859 0.58912,-4.01891 1.38105,-10.77746 2.51954,-23.30078 1.49113,-16.40249 2.81234,-32.91657 3.53515,-49.54102 0.60005,-13.801 0.85555,-22.46333 0.875,-27.74023 0.01,-2.63845 0.002,-4.2608 -0.1875,-6.03906 -0.0475,-0.44457 -0.10003,-0.90258 -0.2539,-1.60157 -0.0579,-0.26294 -0.11899,-0.6141 -0.20508,-0.98437 1.46424,-14.96298 2.94795,-29.99195 6.75,-71.81445 l 0.01,-0.11524 0.008,-0.11719 c 4.17283,-61.89699 3.56418,-71.46331 3.52929,-79.0664 -0.0349,-7.60309 0.45574,-14.6614 6.95117,-74.74414 1.92826,-17.83639 4.74776,-35.84001 6.99415,-54.18555 1.33345,-10.88989 2.00238,-21.38189 3.4707,-31.29297 0.64947,-4.38397 2.10326,-9.34556 3.375,-15.06836 z m -23.36133,570.5293 c 0.73937,0.0274 1.45395,0.13222 2.10156,0.33007 4.76878,1.45691 5.16164,3.44218 5.46875,4.28321 -3.28502,0.14339 -16.54513,0.71476 -17.19726,0.99804 0.17548,-0.35366 0.10657,-0.35025 0.47265,-0.9707 0.44265,-0.75021 1.1349,-1.92676 3.06055,-3.16992 1.44424,-0.93237 3.87565,-1.55284 6.09375,-1.4707 z m -10.04883,6.47851 c 3.1e-4,0.004 -0.002,0.0566 -0.002,0.0586 6.6e-4,-0.0241 -4.1e-4,-0.046 0,-0.0547 2.2e-4,-7e-4 0.002,-0.003 0.002,-0.004 z m -0.006,0.0137 c -0.0102,0.14144 -0.0335,0.41423 -0.0469,0.51172 -0.009,0.0674 -0.11169,-0.008 0.0469,-0.51172 z m 0.82227,15.14258 c -0.12718,0.30286 -0.36028,0.73372 -0.42383,0.92969 0.0427,-0.12337 0.0277,-0.1112 0.12891,-0.35938 0.0434,-0.10636 0.16146,-0.31345 0.29492,-0.57031 z m 18.53906,7.23047 c 0.15951,-0.52681 0.0692,-0.21194 -0.0371,0.11133 -0.001,0.004 -0.008,0.0194 -0.01,0.0234 0.006,-0.0225 0.0409,-0.11493 0.0469,-0.13477 z m -15.36133,4.60156 c 1.42459,0.5347 3.29516,1.23669 4.9336,1.85156 -2.05318,-0.30912 -3.84455,-1.07057 -4.9336,-1.85156 z"
         id="path401" />
      <path
         style="baseline-shift:baseline;display:inline;overflow:visible;opacity:1;vector-effect:none;fill-rule:evenodd;enable-background:accumulate;stop-color:#000000;stop-opacity:1"
         d="m 818.0957,803.05664 c -1.51851,1.01234 -1.89617,1.29208 -2.60156,1.79297 -2.75789,-0.0638 -6.11773,-0.30606 -10.2793,0.0723 -5.08823,0.46258 -7.91927,1.67715 -8.76367,1.75391 -1.5116,0.13742 -5.15076,-0.6346 -10.77734,0.0273 -7.81266,0.91915 -14.06805,2.95484 -19.1543,3.49024 -2.43616,0.25644 -7.24313,-0.84778 -14.21289,0.0234 -6.68508,0.83563 -11.42668,2.95838 -14.74023,3.62109 -3.07713,0.61542 -7.17005,0.82318 -12.09571,1.71875 -3.0998,0.5636 -4.92212,1.21406 -6.29687,1.56641 -0.22467,0.0129 -0.20291,0.0254 -0.67578,0.0254 h -1.75196 -7.00976 -19.27735 -7.00976 c 0.4486,0 -1.65903,-0.76884 -5.92969,0.29883 -1.87444,0.46861 -2.97148,1.05731 -3.76172,1.5625 -0.62883,-0.0277 -1.55909,-0.10938 -4.32812,-0.10938 0.66322,0 -1.60656,-0.94251 -6.25196,0.38477 -5.06398,1.44684 -7.73391,3.22377 -8.64648,3.47265 0.63108,-0.17211 -5.50649,0.9603 -10.41406,1.66016 -4.90757,0.69986 -9.15866,1.23583 -11.47461,1.64453 -6.77184,1.19503 -12.28284,2.92934 -16.83203,3.4082 -3.0171,0.31759 -8.41742,-0.92217 -15.9668,0.0215 -14.09245,1.76155 -27.51774,4.76511 -40.57617,7.04297 -19.74695,2.32316 -39.49329,4.64557 -59.24024,6.96875 -23.99809,2.56094 -47.72691,5.47132 -71.3125,6.96093 -31.40204,1.98329 -62.75459,3.48438 -94,3.48438 -33.80997,0 -88.27701,-4.37902 -122.70898,-10.36719 -6.77027,-1.17743 -14.45419,-4.5154 -23.82227,-6.85742 -4.47864,-1.11966 -8.31642,-1.41927 -11.29687,-1.91602 l -3.28711,19.72852 c 4.02927,0.67155 7.3168,0.98594 9.73242,1.58984 7.13457,1.78365 15.25738,5.423 25.24609,7.16016 36.27073,6.30795 90.64651,10.66211 126.13672,10.66211 31.88545,0 63.65847,-1.5294 95.26172,-3.52539 24.4106,-1.54172 48.45842,-4.50403 72.2793,-7.04492 l 0.0547,-0.006 0.0547,-0.006 c 19.86091,-2.33658 39.72113,-4.6732 59.58204,-7.00977 l 0.27343,-0.0332 0.27149,-0.0469 c 13.74939,-2.3912 26.933,-5.32707 39.83203,-6.93945 2.88404,-0.3605 8.1384,0.80657 15.57812,0.0234 7.29961,-0.76838 13.25568,-2.72803 18.2168,-3.60352 0.29402,-0.0519 5.80545,-0.82362 10.82227,-1.53906 5.01682,-0.71544 8.96472,-1.10597 12.85156,-2.16602 4.33549,-1.1824 6.65131,-2.49368 7.96289,-3.10742 0.36733,-0.0186 0.62962,-0.0449 1.67383,-0.0449 1.24059,0 4.18736,0.60972 8.65429,-0.13477 2.165,-0.36083 3.45673,-1.01954 4.40821,-1.60156 0.3634,-0.009 0.38649,-0.0156 0.95703,-0.0156 h 7.00976 19.27735 7.00976 1.75196 c -0.72331,0 0.57598,0.43402 3.71289,-0.19336 3.40924,-0.68184 5.6338,-1.50178 6.83789,-1.72071 3.20214,-0.5822 7.41596,-0.78045 12.43945,-1.78515 6.13333,-1.22667 10.42435,-3.02937 13.29883,-3.38867 2.30438,-0.28805 6.96737,0.74542 13.82617,0.0234 7.90384,-0.83198 14.23869,-2.91249 19.39844,-3.51953 1.33514,-0.15707 4.78066,0.52652 10.25,0.0293 5.08826,-0.46256 7.91925,-1.67714 8.76367,-1.75391 2.28828,-0.20802 5.50093,0.041 9.60938,0.041 -1.19864,0 -1.17849,-0.0693 -0.1836,0.0391 0.9949,0.10838 3.48032,0.37019 6.4082,-1.09375 3.36306,-1.68152 5.26765,-3.41931 6.33204,-4.1289 z"
         id="path402" />
    </g>
  </g>
</svg>
