<?xml version="1.0" encoding="UTF-8" standalone="no"?>
<!-- Created with Inkscape (http://www.inkscape.org/) -->

<svg
   width="1000"
   height="1000"
   viewBox="0 0 1000 1000"
   version="1.1"
   id="svg1"
   xmlns:xlink="http://www.w3.org/1999/xlink"
   xmlns="http://www.w3.org/2000/svg"
   xmlns:svg="http://www.w3.org/2000/svg">
  <defs
     id="defs1">
    <pattern
       xlink:href="#pattern359"
       preserveAspectRatio="xMidYMid"
       id="pattern372"
       patternTransform="matrix(0.5,0,0,0.5,147.15462,1548.2922)" />
    <pattern
       xlink:href="#pattern357"
       preserveAspectRatio="xMidYMid"
       id="pattern371"
       patternTransform="matrix(0.5,0,0,0.5,221.32076,1552.4298)" />
    <pattern
       xlink:href="#pattern358"
       preserveAspectRatio="xMidYMid"
       id="pattern370"
       patternTransform="matrix(0.5,0,0,0.5,230.96346,1527.8214)" />
    <pattern
       xlink:href="#pattern355"
       preserveAspectRatio="xMidYMid"
       id="pattern369"
       patternTransform="matrix(0.5,0,0,0.5,287.08178,1553.6581)" />
    <pattern
       xlink:href="#pattern354"
       preserveAspectRatio="xMidYMid"
       id="pattern368"
       patternTransform="matrix(0.5,0,0,0.5,230.97274,1529.1717)" />
    <pattern
       xlink:href="#pattern342"
       preserveAspectRatio="xMidYMid"
       id="pattern360"
       patternTransform="matrix(0.5,0,0,0.5,210.45332,1525.5392)" />
    <pattern
       xlink:href="#pattern342"
       preserveAspectRatio="xMidYMid"
       id="pattern359"
       patternTransform="matrix(0.5,0,0,0.5,152.11125,1550.7705)" />
    <pattern
       xlink:href="#pattern342"
       preserveAspectRatio="xMidYMid"
       id="pattern358"
       patternTransform="matrix(0.5,0,0,0.5,202.11125,1533.2444)" />
    <pattern
       xlink:href="#pattern342"
       preserveAspectRatio="xMidYMid"
       id="pattern357"
       patternTransform="matrix(0.5,0,0,0.5,211.4075,1546.234)" />
    <pattern
       xlink:href="#pattern342"
       preserveAspectRatio="xMidYMid"
       id="pattern356"
       patternTransform="matrix(0.5,0,0,0.5,232.14929,1573.2544)" />
    <pattern
       xlink:href="#pattern342"
       preserveAspectRatio="xMidYMid"
       id="pattern355"
       patternTransform="matrix(0.5,0,0,0.5,275,1552.7287)" />
    <pattern
       xlink:href="#pattern342"
       preserveAspectRatio="xMidYMid"
       id="pattern354"
       patternTransform="matrix(0.5,0,0,0.5,235,1529.7913)" />
    <pattern
       xlink:href="#shading24"
       preserveAspectRatio="xMidYMid"
       id="pattern342"
       patternTransform="matrix(0.5,0,0,0.5,213.95332,1537.5392)"
       x="0"
       y="0" />
    <pattern
       patternUnits="userSpaceOnUse"
       width="338.5925"
       height="42.989567"
       patternTransform="translate(213.95332,1537.5392) scale(0.5)"
       preserveAspectRatio="xMidYMid"
       id="shading24"
       style="fill:#000000">
      <path
         style="fill-rule:nonzero;stroke:none;stroke-width:0.1;stroke-linecap:square;paint-order:markers fill stroke;stop-color:#000000"
         d="m 1806.4991,-758.06464 v 18.86792 c 55.9187,0 121.0493,0.59523 193.5686,3.15628 72.9408,2.57593 146.0589,6.87694 222.9288,13.47675 119.09,10.22471 223.0762,23.76065 340.6056,39.2177 117.5025,15.4535 222.0471,29.0563 341.8507,39.3312 77.366,6.63525 151.0001,10.96128 224.4674,13.55245 73.0344,2.5759 138.631,3.17493 194.9247,3.17493 -55.9642,0 -122.2215,-1.36594 -194.8324,-5.25394 -73.2143,-3.92032 -146.9676,-10.0663 -223.8166,-18.88656 -118.8791,-13.6442 -223.3242,-31.02113 -339.8009,-50.57815 -116.4705,-19.55598 -221.1862,-36.99475 -340.3724,-50.69165 -77.0605,-8.8558 -150.9942,-15.0266 -224.3694,-18.96225 -72.7637,-3.90286 -139.1256,-5.27261 -195.1541,-5.27261 z m 0,37.81515 v 18.86793 c 55.9187,0 121.0493,0.59523 193.5686,3.15627 72.9408,2.57593 146.0589,6.87694 222.9288,13.47676 119.09,10.22471 223.0762,23.76065 340.6056,39.2177 117.5025,15.4535 222.0471,29.0563 341.8507,39.33119 77.366,6.63526 151.0001,10.96128 224.4674,13.55245 73.0344,2.5759 138.631,3.17493 194.9247,3.17493 -55.9642,0 -122.2215,-1.36594 -194.8324,-5.25394 -73.2143,-3.92031 -146.9676,-10.0663 -223.8166,-18.88656 -118.8791,-13.6442 -223.3242,-31.02112 -339.8009,-50.57815 -116.4705,-19.55598 -221.1862,-36.99475 -340.3724,-50.69165 -77.0605,-8.8558 -150.9942,-15.02659 -224.3694,-18.96225 -72.7637,-3.90286 -139.1256,-5.2726 -195.1541,-5.2726 z m 0,37.81516 v 18.86792 c 55.9187,0 121.0493,0.59523 193.5686,3.15628 72.9408,2.57593 146.0589,6.87694 222.9288,13.47675 119.09,10.22471 223.0762,23.76065 340.6056,39.2177 117.5025,15.4535 222.0471,29.0563 341.8507,39.3312 77.366,6.63525 151.0001,10.96128 224.4674,13.55245 73.0344,2.5759 138.631,3.17493 194.9247,3.17493 -55.9642,0 -122.2215,-1.36594 -194.8324,-5.25394 -73.2143,-3.92032 -146.9676,-10.0663 -223.8166,-18.88656 -118.8791,-13.6442 -223.3242,-31.02113 -339.8009,-50.57815 -116.4705,-19.55598 -221.1862,-36.99475 -340.3724,-50.69165 -77.0605,-8.8558 -150.9942,-15.0266 -224.3694,-18.96225 -72.7637,-3.90286 -139.1256,-5.27261 -195.1541,-5.27261 z m 0,37.81515 v 18.86793 c 55.9187,0 121.0493,0.59523 193.5686,3.15627 72.9408,2.57593 146.0589,6.87694 222.9288,13.47676 119.09,10.22471 223.0762,23.76065 340.6056,39.2177 117.5025,15.4535 222.0471,29.0563 341.8507,39.33119 77.366,6.63526 151.0001,10.96128 224.4674,13.55245 73.0344,2.5759 138.631,3.17494 194.9247,3.17494 -55.9642,0 -122.2215,-1.36595 -194.8324,-5.25395 -73.2143,-3.92031 -146.9676,-10.0663 -223.8166,-18.88656 -118.8791,-13.6442 -223.3242,-31.02112 -339.8009,-50.57815 -116.4705,-19.55598 -221.1862,-36.99475 -340.3724,-50.69165 -77.0605,-8.8558 -150.9942,-15.02659 -224.3694,-18.96225 -72.7637,-3.90286 -139.1256,-5.2726 -195.1541,-5.2726 z m 0,37.81516 v 18.86792 c 55.9187,0 121.0493,0.59523 193.5686,3.15628 72.9408,2.57593 146.0589,6.87694 222.9288,13.47675 119.09,10.22471 223.0762,23.76065 340.6056,39.2177 117.5025,15.4535 222.0471,29.0563 341.8507,39.3312 77.366,6.63525 151.0001,10.96128 224.4674,13.55245 73.0344,2.5759 138.631,3.17493 194.9247,3.17493 -55.9642,0 -122.2215,-1.36594 -194.8324,-5.25394 -73.2143,-3.92032 -146.9676,-10.0663 -223.8166,-18.88656 -118.8791,-13.6442 -223.3242,-31.02113 -339.8009,-50.57815 -116.4705,-19.55598 -221.1862,-36.99475 -340.3724,-50.69165 -77.0605,-8.8558 -150.9942,-15.0266 -224.3694,-18.96225 -72.7637,-3.90286 -139.1256,-5.27261 -195.1541,-5.27261 z m 0,37.81515 v 18.86793 c 55.9187,0 121.0493,0.59523 193.5686,3.15627 72.9408,2.57593 146.0589,6.87694 222.9288,13.47676 119.09,10.22471 223.0762,23.76065 340.6056,39.2177 117.5025,15.4535 222.0471,29.0563 341.8507,39.33119 77.366,6.63526 151.0001,10.96128 224.4674,13.55245 73.0344,2.5759 138.631,3.17494 194.9247,3.17494 -55.9642,0 -122.2215,-1.36595 -194.8324,-5.25395 -73.2143,-3.92031 -146.9676,-10.0663 -223.8166,-18.88656 -118.8791,-13.6442 -223.3242,-31.02112 -339.8009,-50.57815 -116.4705,-19.55598 -221.1862,-36.99475 -340.3724,-50.69165 -77.0605,-8.8558 -150.9942,-15.02659 -224.3694,-18.96225 -72.7637,-3.90286 -139.1256,-5.2726 -195.1541,-5.2726 z m 0,37.81516 v 18.86792 c 55.9187,0 121.0493,0.59523 193.5686,3.15628 72.9408,2.57593 146.0589,6.87694 222.9288,13.47675 119.09,10.22471 223.0762,23.76065 340.6056,39.2177 117.5025,15.4535 222.0471,29.0563 341.8507,39.3312 77.366,6.63525 151.0001,10.96128 224.4674,13.55245 73.0344,2.5759 138.631,3.17493 194.9247,3.17493 -55.9642,0 -122.2215,-1.36594 -194.8324,-5.25394 -73.2143,-3.92032 -146.9676,-10.0663 -223.8166,-18.88656 -118.8791,-13.6442 -223.3242,-31.02113 -339.8009,-50.57815 -116.4705,-19.55598 -221.1862,-36.99475 -340.3724,-50.69165 -77.0605,-8.8558 -150.9942,-15.0266 -224.3694,-18.96225 -72.7637,-3.90286 -139.1256,-5.27261 -195.1541,-5.27261 z"
         id="use26"
         transform="matrix(0.22300099,0,0,0.37823052,-402.85121,237.25945)" />
    </pattern>
    <clipPath
       clipPathUnits="userSpaceOnUse"
       id="clipPath54">
      <path
         id="path336"
         style="stroke-width:0.0999999;stroke-linecap:square;paint-order:markers fill stroke;stop-color:#000000"
         d="m 1691.1994,-792.32001 h 1634.8919 v 92.82806 H 1691.1994 Z" />
    </clipPath>
    <clipPath
       clipPathUnits="userSpaceOnUse"
       id="clipPath33">
      <rect
         style="fill:#000000;stroke:none;stroke-width:0.999995;stroke-linecap:butt;stroke-linejoin:bevel;paint-order:stroke markers fill;stop-color:#000000"
         id="rect33"
         width="46.19186"
         height="80.006783"
         x="74.999985"
         y="399.99661" />
    </clipPath>
    <clipPath
       clipPathUnits="userSpaceOnUse"
       id="clipPath27">
      <rect
         style="fill:none;stroke:#000000;stroke-width:0.999999;stroke-linecap:butt;stroke-linejoin:bevel;paint-order:stroke markers fill;stop-color:#000000"
         id="rect28-6"
         width="46.160622"
         height="39.922417"
         x="86.574379"
         y="420.06253" />
    </clipPath>
    <clipPath
       clipPathUnits="userSpaceOnUse"
       id="clipPath25">
      <rect
         style="fill:#ff0000;stroke:none;stroke-width:3;stroke-linecap:square;stroke-linejoin:miter;paint-order:stroke markers fill;stop-color:#000000"
         id="rect25-8"
         width="78"
         height="45.033199"
         x="763.61322"
         y="452.82422" />
    </clipPath>
    <clipPath
       clipPathUnits="userSpaceOnUse"
       id="clipPath15">
      <rect
         style="fill:none;stroke:#000000;stroke-linecap:butt;stroke-linejoin:bevel;paint-order:stroke markers fill;stop-color:#000000"
         id="rect15-7"
         width="45.034248"
         height="38.955639"
         x="262.48285"
         y="121.00073" />
    </clipPath>
    <linearGradient
       id="swatch75">
      <stop
         style="stop-color:#000000;stop-opacity:1;"
         offset="0"
         id="stop75" />
    </linearGradient>
  </defs>
  <g
     id="layer51"
     style="display:inline">
    <g
       id="layer54"
       style="display:inline">
      <path
         style="baseline-shift:baseline;display:inline;overflow:visible;opacity:1;vector-effect:none;fill-rule:evenodd;enable-background:accumulate;stop-color:#000000;stop-opacity:1"
         d="m 256.67578,147.00586 c -5.24922,2.5994 -9.63412,6.67382 -11.50976,11.77734 -1.87565,5.10352 -1.07488,9.83571 -0.15821,13.22461 1.35492,5.00908 2.14686,8.28489 2.60742,9.18946 -0.6698,0.61301 -2.08072,2.86391 -3.21289,7.39257 -1.351,5.40405 -0.29882,8.71586 -0.29882,9.43555 v 14.01953 19.27539 c 0,3.3528 -0.55362,7.84562 0.0605,13.37305 0.9127,8.21424 1.64923,12.9246 2.41602,16.30469 0.76679,3.38008 1.84818,5.82214 2.16015,6.5625 0.31198,0.74036 0.35159,0.58208 0.77735,3.40625 0.42576,2.82417 0.96931,8.0196 1.62109,17.14453 0.48441,6.78167 -0.61823,14.97304 -0.006,24.46484 0.69173,10.72171 2.489,20.74861 3.54492,30.25195 1.22391,11.01521 2.32769,22.10317 3.5,33.24024 1.91832,18.22402 2.57646,24.45463 3.06641,29.0918 5.8e-4,0.0156 -5e-4,0.0616 0,0.0762 0.007,0.21339 0.0145,0.29042 0.0195,0.36523 0.0101,0.14963 0.0168,0.23362 0.0254,0.33399 0.0342,0.40146 0.0879,0.96308 0.1836,1.9414 0.38282,3.9133 1.40283,14.00575 3.71093,36.50977 1.17963,11.50129 2.94498,22.37797 3.46485,32.77539 0.56137,11.2273 -0.71502,23.53968 0.004,36.83984 0.58054,10.73977 2.98494,20.00974 3.50977,28.14453 0.47827,7.41323 -0.71668,16.23806 0.006,26.35352 0.64725,9.06142 2.85229,16.64853 3.5332,23.11719 0.22079,2.09749 -0.0547,5.26405 -0.0547,9.46679 v 21.0293 8.76172 c 0,3.43257 0.16049,5.22457 0.13672,5.36719 -0.49399,2.96392 -2.65022,7.55831 -3.55468,14.34179 -0.23872,1.79032 -0.1244,1.7284 -0.13477,2.48633 -0.0104,0.75793 -0.0118,1.66274 -0.01,2.70117 0.004,2.07687 0.0243,4.6712 0.0469,7.28321 0.0226,2.61201 0.0475,5.23977 0.0547,7.32617 0.007,2.0864 -0.0627,4.2255 -0.0176,3.59375 -0.39267,5.49737 -0.54697,6.66109 -0.73438,8.51953 -0.37372,0.65157 -0.69891,1.31959 -0.89648,1.74023 -0.52738,1.12286 -0.73604,1.87342 -0.95313,2.67579 -0.86834,3.20947 -1.50438,7.37884 -2.62304,16.32812 -0.71231,5.69846 -0.0762,10.2457 -0.0762,13.50781 v 21.02735 7.00976 4.7461 c -0.45214,0.7284 -0.88997,1.55657 -1.24024,2.60742 -1.7028,5.10835 -0.51172,7.60593 -0.51172,6.66601 0,0.55082 0.0518,0.65576 0.0918,0.86329 -0.76371,0.67879 -1.6788,1.7033 -2.54102,3.42773 -0.25495,0.5099 -0.33152,0.9268 -0.49804,1.39453 -0.98424,0.82213 -2.59705,2.31071 -3.55078,5.17188 -1.70273,5.10828 -0.51172,7.60783 -0.51172,6.66796 v 1.24024 c -0.45214,0.72839 -0.88995,1.55659 -1.24024,2.60742 -1.70273,5.10828 -0.51367,7.60588 -0.51367,6.66602 v 10.34179 c -0.23868,0.37338 -0.46583,0.50002 -0.69531,0.95899 -1.464,2.92795 -1.20408,5.41331 -1.09571,6.4082 0.10838,0.9949 0.0391,1.01508 0.0391,-0.18359 v 1.75195 8.76172 14.01953 1.75195 c 0,-2.06495 0.19204,-1.97996 -0.0215,-0.68359 -0.18184,1.104 -0.32806,4.63142 1.77344,7.84766 v 5.10351 h 20 v -8.76172 c 0,2.06491 -0.19009,1.98191 0.0234,0.68555 0.18191,-1.1044 0.32866,-4.63634 -1.77539,-7.85352 v -12.10937 -8.58594 c 0.23917,-0.37396 0.46732,-0.50104 0.69726,-0.96094 1.46394,-2.92788 1.20213,-5.4133 1.09375,-6.4082 -0.10837,-0.99489 -0.0391,-1.01504 -0.0391,0.18359 v -1.75195 -10.0039 c 0.45211,-0.72839 0.88998,-1.55469 1.24023,-2.60547 1.70281,-5.10836 0.51368,-7.60789 0.51368,-6.66797 v -0.69141 c 0.70261,-0.73584 1.55105,-1.80135 2.44922,-3.59765 0.39135,-0.78271 0.56896,-1.46171 0.76171,-2.14258 0.33994,-0.48315 0.6639,-0.7106 0.99024,-1.36328 1.95739,-3.91477 2.6356,-8.14269 2.72656,-10.80079 0.48509,-0.75552 0.94725,-1.65621 1.32031,-2.77539 1.70273,-5.10828 0.51368,-7.60783 0.51368,-6.66796 v -5.25782 -7.00976 -21.02735 c 0,-4.91591 -0.38018,-8.61092 -0.0781,-11.02734 0.82492,-6.59936 1.23869,-8.52962 1.58984,-10.36719 0.013,-0.0155 0.0579,-0.0354 0.0703,-0.0508 1.26197,-1.55403 1.49712,-2.43904 1.73242,-3.0957 0.4706,-1.31332 0.52278,-1.87868 0.63281,-2.54492 0.44011,-2.66498 0.70336,-6.11651 1.28516,-14.26172 0.12857,-1.80004 0.0759,-2.90992 0.0684,-5.08594 -0.008,-2.17602 -0.0321,-4.82286 -0.0547,-7.43164 -0.0226,-2.60878 -0.0431,-5.18193 -0.0469,-7.14844 -0.002,-0.98325 4e-5,-1.81972 0.008,-2.38867 0.002,-0.12055 0.014,-0.21158 0.0234,-0.3418 0.42609,-2.77486 2.32724,-7.06889 3.39454,-13.47265 0.74449,-4.46695 0.13671,-7.41371 0.13671,-8.6543 v -8.76172 -21.0293 c 0,-2.80697 0.45833,-6.68683 -0.0547,-11.56054 -0.92773,-8.81337 -3.02704,-16.18129 -3.47461,-22.44727 -0.52603,-7.36432 0.65389,-16.14401 0.004,-26.21875 -0.68801,-10.66422 -3.06178,-19.86274 -3.49804,-27.93359 -0.6053,-11.19814 0.66576,-23.48556 0.002,-36.76172 -0.59474,-11.89486 -2.44724,-23.11406 -3.54492,-33.81641 -2.01779,-19.67343 -2.76153,-27.05426 -3.23828,-31.84765 5.2e-4,-5e-5 0.0723,-0.006 0.0723,-0.006 -2e-5,-3.6e-4 -0.026,-0.28459 -0.0273,-0.29688 -6.2e-4,-0.006 -0.003,-0.0185 -0.004,-0.0254 -3e-5,-2.8e-4 5e-5,-0.007 0,-0.008 -4.7e-4,-0.004 -0.006,-0.0534 -0.008,-0.0723 -0.002,-0.0209 -0.0147,-0.1314 -0.0176,-0.1582 -0.0248,-0.23442 -0.065,-0.6139 -0.14648,-1.38477 -0.36336,-3.43592 -1.36443,-12.91123 -3.64453,-34.57226 -1.16425,-11.06044 -2.26884,-22.18512 -3.50977,-33.35352 -1.15247,-10.37223 -2.86905,-20.09733 -3.46484,-29.33203 -0.44067,-6.8303 0.67701,-15.06875 -0.004,-24.60156 -0.66843,-9.3581 -1.21648,-14.8662 -1.79492,-18.70313 -0.57844,-3.83692 -1.45683,-6.61502 -2.1211,-8.1914 -0.66426,-1.57639 -0.61832,-1.14885 -1.08789,-3.21875 -0.46956,-2.0699 -1.17112,-6.24326 -2.04296,-14.08985 -0.28896,-2.60057 0.0625,-6.33883 0.0625,-11.16406 v -19.27539 -14.01953 c 0,-3.95347 -0.0812,-5.45439 -0.29883,-4.58398 -0.36481,1.45924 1.62672,-0.42007 3.41797,-6.68946 2.92821,-10.24873 -2.06802,-16.86067 -2.90821,-19.96679 -0.15966,-0.59027 -0.17499,-0.80554 -0.20312,-1.02149 0.21701,-0.15785 0.48971,-0.36563 1.43945,-0.83594 z m 13.88477,599.03125 c -0.0938,0.0609 -0.65445,0.48125 -1.01563,0.70508 0.70342,-0.67693 1.20657,-0.82912 1.01563,-0.70508 z m -3.96875,12.58594 c -0.0621,0.0455 -0.37816,0.30317 -0.53321,0.40625 0.45115,-0.43356 0.71076,-0.53638 0.53321,-0.40625 z m 15.87695,3.48047 c -0.70304,0.67632 -1.20454,0.82907 -1.01367,0.70507 0.0936,-0.0608 0.6536,-0.48208 1.01367,-0.70507 z m -1.06055,4.26171 c -0.0332,-0.15634 0.22686,0.35729 0.25196,1.38086 -0.10896,-0.5507 -0.23172,-1.28559 -0.25196,-1.38086 z m -19.81445,2.76758 c 0.10917,0.55403 0.23165,1.29113 0.25195,1.38672 0.0332,0.15651 -0.22733,-0.361 -0.25195,-1.38672 z m 0.20508,4.94336 c -0.0936,0.0608 -0.6536,0.48208 -1.01367,0.70508 0.70303,-0.67632 1.20453,-0.82907 1.01367,-0.70508 z m 17.14844,0.27344 c -0.45113,0.43354 -0.71075,0.53637 -0.53321,0.40625 0.0621,-0.0455 0.37815,-0.30317 0.53321,-0.40625 z m -5.24024,15.79297 c -0.70304,0.67633 -1.20455,0.82908 -1.01367,0.70508 0.0936,-0.0608 0.6536,-0.48208 1.01367,-0.70508 z m -14.125,3.52929 c -0.0621,0.0455 -0.37815,0.30317 -0.5332,0.40625 0.45115,-0.43355 0.71075,-0.53637 0.5332,-0.40625 z m 12.35547,15.72657 c -0.45114,0.43354 -0.71075,0.53637 -0.5332,0.40625 0.0621,-0.0455 0.37815,-0.30317 0.5332,-0.40625 z"
         id="path405" />
      <path
         style="baseline-shift:baseline;display:inline;overflow:visible;opacity:1;vector-effect:none;fill-rule:evenodd;enable-background:accumulate;stop-color:#000000;stop-opacity:1"
         d="m 770.00391,121.41016 c -1.29639,-0.21354 -5.96996,-0.58873 -9.50977,2.95117 -0.53171,0.5317 -1.09603,1.15889 -1.67969,1.98242 -1.4695,0.68068 -2.50444,1.28933 -2.73047,1.40234 0.74918,-0.37458 0.38547,-0.20612 -0.90234,0.27149 -1.28781,0.47761 -3.95016,1.51621 -6.13086,4.42383 -0.70999,0.94664 -1.2104,1.82902 -1.58984,2.64257 -1.36081,0.31346 -2.94072,0.86152 -4.71875,2.04688 -2.65853,1.77236 -3.76581,3.58133 -4.48633,5.03906 -1.22669,0.30739 -2.74114,0.86867 -4.54102,2.1543 -4.46942,3.19244 -5.99961,5.49006 -6.50976,6.31836 -1.42933,0.21237 -3.71612,0.64228 -6.45313,2.98828 -2.96858,2.54451 -4.38479,5.10094 -5.36718,6.63281 -0.9824,1.53187 -1.49716,2.00052 -1.23243,1.79688 -2.93225,2.25557 -8.45351,4.13136 -14.97461,8.20703 -5.01154,3.13222 -9.02512,6.47755 -12.70117,9.05078 -7.22417,5.05691 -15.2744,9.95573 -23.16211,16.05078 -6.79454,5.25033 -11.27393,10.7297 -15.55664,13.85938 -8.81599,6.44246 -19.16962,12.04478 -29.51562,19.08007 -10.03772,6.82565 -14.41517,10.73048 -18.57617,14.40625 -4.16101,3.67578 -8.32151,7.31739 -20.04493,15.4336 -5.44548,3.76995 -13.0622,6.84761 -20.96093,12.21875 -8.55529,5.8176 -15.97776,12.24329 -23.27344,17.88086 -5.06868,3.9167 -10.63475,7.87815 -16.14063,12.56836 -10.94841,9.32641 -21.26032,18.98751 -31.66601,28.14453 -4.13555,3.63928 -7.9827,7.14007 -11.82422,10.14648 -9.04981,7.08246 -18.3659,13.95392 -27.77539,20.83008 -4.8434,3.53941 -11.7329,6.89768 -18.36719,12.95508 -9.14805,8.35255 -16.04265,17.5261 -23.23242,24.97265 -8.62255,8.9305 -17.08456,17.74634 -25.88672,25.89649 -6.11679,5.66369 -13.41136,10.98428 -20.74414,17.26953 -9.40643,8.06266 -18.96668,16.17825 -28.30078,24.76562 -5.74774,5.28793 -11.09133,10.79627 -16.26172,16.25391 -7.66543,8.09129 -20.26465,23.13439 -27.23828,29.03516 -5.14043,4.34959 -8.5819,5.72747 -15.53711,9.20508 l 8.94531,17.88867 c 6.43915,-3.21958 12.43386,-5.83722 19.51172,-11.82617 10.15237,-8.59048 22.39466,-23.74569 28.83789,-30.54688 5.05629,-5.3372 10.08773,-10.51118 15.2832,-15.29102 8.94508,-8.22946 18.32329,-16.19897 27.77539,-24.30078 6.52308,-5.59121 14.04262,-11.0443 21.31641,-17.77929 9.38274,-8.68773 18.09385,-17.77919 26.68555,-26.67774 8.31365,-8.61058 14.99503,-17.3985 22.33008,-24.0957 3.89709,-3.55822 10.01295,-6.70343 16.68359,-11.57813 9.45583,-6.91001 18.94993,-13.9085 28.30078,-21.22656 4.64076,-3.6319 8.76048,-7.40641 12.71094,-10.88281 10.71646,-9.4305 20.95185,-19.01469 31.42187,-27.93359 4.63429,-3.94774 9.93066,-7.73868 15.40235,-11.9668 7.86642,-6.07859 14.99931,-12.21093 22.28906,-17.16797 5.5226,-3.75537 13.19864,-6.8459 21.09766,-12.31445 12.23981,-8.47372 17.63723,-13.11899 21.90234,-16.88672 4.26511,-3.76774 7.18234,-6.46431 16.58398,-12.85742 9.2158,-6.26675 19.78468,-11.95766 30.06836,-19.47266 7.07571,-5.17071 11.64903,-10.82814 15.98633,-14.17969 6.72911,-5.19977 14.49148,-9.95596 22.40039,-15.49219 4.55724,-3.19006 8.3212,-6.28033 11.83203,-8.4746 3.67887,-2.29929 9.96867,-4.23822 16.57032,-9.31641 3.22942,-2.48417 4.79976,-5.18103 5.87109,-6.85156 0.5528,-0.86199 0.53092,-0.79507 0.79883,-1.15821 1.28631,-0.21166 2.99927,-0.64065 5.3125,-2.29297 4.49674,-3.21196 6.02891,-5.52996 6.52539,-6.33984 1.35412,-0.20626 3.50161,-0.6126 6.17578,-2.75195 1.87681,-1.50144 2.88079,-2.9279 3.53711,-4.13281 1.81355,-0.17779 4.16534,-0.62798 6.97656,-2.87696 2.63624,-2.10898 3.57828,-4.31552 4.07422,-6.19922 0.31902,-0.16308 0.35934,-0.19972 0.5293,-0.29297 1.15475,-0.0783 2.52391,-0.32834 4.13672,-1.13476 0.97834,-0.48917 1.72016,-0.86944 2.41406,-1.25586 0.6939,-0.38642 1.02275,-0.24722 2.91797,-2.08594 0.4738,-0.45968 1.1228,-1.06503 1.90039,-2.50976 0.77758,-1.44474 1.76291,-4.39347 0.7832,-7.66211 -0.97971,-3.26865 -3.47431,-5.23009 -4.94336,-6.00586 -1.46904,-0.77577 -2.3425,-0.90809 -2.97461,-1.02149 -1.00732,-0.18071 -0.69895,-0.0531 -1.06445,-0.0625 v -1.8457 c 2.06497,0 1.98193,0.19206 0.68555,-0.0215 z m -2.29297,1.77343 c -0.2072,0.007 -0.15086,-0.0304 0.50586,0.0273 0.008,7.3e-4 0.0363,0.003 0.0449,0.004 -0.0448,0.0166 -0.50808,-0.0328 -0.55078,-0.0312 z m 1.60742,0.14844 c 0.89812,0.0834 2.12552,0.38737 4.1875,2.25781 1.4977,1.35859 2.89021,3.92781 3.12305,6.16602 0.23284,2.2382 -0.31504,3.81124 -0.72852,4.75 -0.82696,1.87752 -1.27819,2.01256 -1.26367,1.99805 -1.79884,1.79888 -3.71714,2.3509 -5.31836,2.54882 z m -28.77734,18.39063 c 0.37343,-0.1211 0.40749,-0.0402 -0.0273,0.0332 -0.008,10e-4 -0.0352,0.007 -0.043,0.008 0.0139,-0.005 0.0572,-0.0368 0.0703,-0.041 z m 22.60156,3.07812 c 0.1028,0.0189 0.67762,0.0674 0.97461,0.125 -0.83583,-0.0267 -1.24064,-0.17386 -0.97461,-0.125 z m -7.48438,7.29297 c -0.006,0.009 -0.0421,0.0352 -0.0488,0.0449 9.6e-4,-0.002 0.005,-0.01 0.006,-0.0117 0.20114,-0.4471 0.27775,-0.38246 0.043,-0.0332 z m -24.05078,18.05078 c -0.46192,0.1584 -0.58398,0.0955 -0.16211,0.0273 0.027,-0.004 0.1312,-0.0231 0.16211,-0.0273 z"
         id="path407" />
      <path
         style="baseline-shift:baseline;display:inline;overflow:visible;opacity:1;vector-effect:none;fill-rule:evenodd;enable-background:accumulate;stop-color:#000000;stop-opacity:1"
         d="m 290.11914,557.0918 -8.94531,17.88867 c 5.84143,2.92071 11.68393,5.84099 17.52539,8.76172 4.32299,2.16149 9.03078,4.89126 14.55273,7.25781 4.86048,2.08307 8.60659,2.70928 10.60742,3.54297 2.63964,1.09984 5.86769,3.0691 10.08008,5.06445 7.49088,3.54831 15.13528,7.28076 23.15625,10.6836 12.16358,5.16031 24.10252,8.95552 34.75391,13.88671 19.51196,9.03332 38.69304,20.50985 59.7207,29.85547 8.62332,3.8326 15.79154,3.87092 19.625,5.4043 13.62106,5.44843 27.15214,12.70642 41.73633,19.14062 6.12423,2.70187 12.1697,4.93938 17.93555,7.18165 5.7212,2.22491 10.21666,3.24971 12.78711,4.67773 4.72458,2.62477 9.86078,7.49258 17.08203,12.00586 4.89197,3.05748 8.45145,4.6917 11.42773,5.81641 2.97628,1.1247 4.9642,1.70117 8.95899,3.54492 4.89676,2.26004 9.34071,4.21462 12.96875,6.44726 1.13368,0.69766 3.52673,3.73741 8.70312,6.97266 3.59677,2.24799 5.87217,2.52338 6.74024,2.63476 2.70357,1.55671 5.22421,2.88106 6.57812,3.89649 0.47414,0.3556 1.76842,1.90903 4.1875,4.32812 0.82793,0.82793 2.54349,3.68067 6.78125,6.50586 4.63647,3.09098 8.82261,4.49823 11.58789,5.88086 1.98641,0.99321 4.42214,2.41446 7.54297,3.75196 2.2056,0.94525 3.50228,1.46076 4.07617,1.60156 0.69681,0.99086 2.20337,3.02312 6.13086,5.96875 4.18592,3.13944 7.39476,3.83464 8.2207,4.28515 4.49274,2.45059 8.40018,4.33579 11.24415,6.36719 3.12276,2.23055 6.66754,6.23957 12.0039,10.32031 6.1309,4.68835 12.27898,8.57434 17.83203,12.49415 3.77808,2.66687 7.82035,5.91395 12.62696,9.0039 5.18336,3.33217 9.46031,4.97584 11.75976,6.66211 3.84647,2.82074 7.93181,7.40716 13.6875,12.01172 4.55592,3.64473 8.97469,6.35931 12.59961,9.01758 5.1416,3.7705 9.80251,6.70848 13.15039,9.79883 1.18983,1.0983 3.12653,5.83624 9.14258,10.84961 2.89997,2.41664 5.681,3.82344 8.86133,5.51953 3.18033,1.69609 6.48365,3.32483 8.84179,4.5039 3.07619,1.5381 5.13601,2.34914 5.9336,2.88086 -0.801,-0.534 -0.11229,0.16309 1.98047,2.25586 -0.90664,-0.90662 -0.15866,1.36992 4.35156,3.625 0.78341,0.39171 1.46315,0.57089 2.14453,0.76367 0.48271,0.33949 0.70953,0.66238 1.36133,0.98828 1.3872,0.6936 2.58824,0.99145 3.68555,1.15235 0.80182,0.77589 1.82621,1.60451 3.32421,2.35351 0.27982,0.13991 0.69356,0.24841 0.96875,0.37891 0.56967,0.72478 1.84273,1.90279 4.28711,3.125 2.92793,1.46399 5.41331,1.20408 6.40821,1.0957 0.99489,-0.10837 1.01504,-0.0391 -0.1836,-0.0391 2.6491,0 3.23586,-0.39738 2.56641,-0.28711 -0.66945,0.11027 -4.75793,0.48426 -7.88477,-2.64258 -0.0236,-0.0236 -0.0295,-0.0505 -0.0527,-0.0742 0.38555,0.008 0.47332,0.1251 0.96875,0.082 1.88297,-0.16368 5.42918,-1.30633 7.53711,-4.36914 0.22182,-0.32231 0.32478,-0.63646 0.49805,-0.95704 h 8.12109 c 0,2.06496 -0.19205,1.98192 0.0215,0.68555 0.21353,-1.29636 0.58871,-5.96793 -2.95117,-9.50781 -2.1234,-2.1234 -4.41174,-2.71265 -6.37695,-2.89844 -0.0719,-0.076 -0.43109,-0.44752 -0.39453,-0.40234 -0.26221,-0.32218 -0.43526,-0.54926 -0.96875,-1.05664 -0.16296,-0.15498 -0.238,-0.28067 -1.01367,-0.84961 -0.19392,-0.14224 -0.43512,-0.31804 -0.89258,-0.58399 -0.22873,-0.13297 -0.51294,-0.29045 -0.93164,-0.47851 -0.23973,-0.10768 -0.62055,-0.21645 -1.07227,-0.35938 -0.79181,-0.74839 -1.77963,-1.53825 -3.21484,-2.25586 -1.76794,-0.88397 -3.2456,-1.14129 -4.52735,-1.2207 -0.29954,-0.18109 -0.3806,-0.35632 -0.73046,-0.53125 -0.51479,-0.25739 -0.93642,-0.33462 -1.40821,-0.50195 -0.55073,-0.74479 -1.6768,-2.2305 -4.52734,-4.13086 -3.54967,-2.36644 -6.48704,-3.33043 -8.08399,-4.12891 -2.43871,-1.21936 -5.5865,-2.7746 -8.375,-4.26172 -2.78849,-1.48712 -5.4951,-3.26186 -5.46679,-3.23828 -0.99369,-0.82807 -2.86589,-5.08893 -8.38086,-10.17969 -5.23674,-4.83391 -10.60913,-8.09408 -14.88867,-11.23242 -4.47946,-3.28493 -8.64178,-5.87241 -11.9336,-8.50586 -3.94196,-3.15357 -8.18518,-7.99804 -14.35351,-12.52148 -5.29611,-3.88383 -10.03371,-5.59617 -12.77344,-7.35742 v -0.002 c -3.64725,-2.34465 -7.47574,-5.39074 -11.9082,-8.51953 -6.09755,-4.30415 -12.01954,-8.06663 -17.2168,-12.04101 -3.21974,-2.46215 -6.88531,-6.67702 -12.52734,-10.70704 -4.82064,-3.44331 -9.51482,-5.59259 -13.29102,-7.65234 -3.76083,-2.05136 -5.80496,-2.73116 -5.79883,-2.72656 -0.25682,-0.19262 -1.95895,-3.40483 -7.19726,-7.14649 -5.13001,-3.66426 -8.26906,-3.29443 -7.13086,-2.80664 -1.68147,-0.72062 -3.78982,-1.91443 -6.47657,-3.25781 -4.24446,-2.12222 -7.55504,-3.37654 -9.43945,-4.63281 0.11361,0.0757 -1.05742,-1.33087 -3.73437,-4.00781 -1.08579,-1.08579 -2.83697,-3.56719 -6.32813,-6.18555 -3.82248,-2.86686 -7.28469,-4.43449 -9.61719,-5.83399 l -0.9414,-0.56445 -1.04102,-0.3457 c -2.26189,-0.75397 -3.35128,-1.12227 -3.4707,-1.06055 -1.24447,-0.94759 -3.5521,-3.70559 -8.4707,-6.73242 -5.27137,-3.24392 -10.47742,-5.45337 -15.06836,-7.57227 -4.8921,-2.25789 -8.067,-3.26339 -10.26954,-4.0957 -2.20253,-0.83231 -3.839,-1.52926 -7.89843,-4.06641 -4.87187,-3.04491 -10.22718,-8.22842 -17.96875,-12.52929 -6.15528,-3.4196 -11.66804,-4.44295 -15.25,-5.83594 -5.96144,-2.31833 -11.72524,-4.46081 -17.11328,-6.83789 -13.63527,-6.01556 -27.36426,-13.40741 -42.38086,-19.41406 -8.53436,-3.41374 -15.38055,-3.53198 -18.92969,-5.10938 -19.55501,-8.69111 -38.65245,-20.10399 -59.44141,-29.72851 -12.18565,-5.64151 -24.34218,-9.48223 -35.3457,-14.15039 -7.37793,-3.13003 -14.77999,-6.73327 -22.40625,-10.34571 -2.87031,-1.35962 -6.35459,-3.53675 -10.94922,-5.45117 -4.81968,-2.00821 -8.49087,-2.63727 -10.42187,-3.46484 -4.08265,-1.74971 -8.46302,-4.25202 -13.48633,-6.76367 -5.84144,-2.92072 -11.68199,-5.841 -17.52344,-8.76172 z m 523.12695,293.3125 c 0.0178,-5.9e-4 0.0483,0.006 0.0664,0.006 -0.55267,0.10908 -1.28931,0.23168 -1.38477,0.25195 -0.15373,0.0326 0.32888,-0.22536 1.31836,-0.25781 z m 3.92578,1.82617 c 0.0287,-8.3e-4 0.0814,0.0121 0.11133,0.0117 -0.27239,0.0721 -0.86301,0.15012 -0.97461,0.17383 -0.30749,0.0653 0.0218,-0.16126 0.86328,-0.18555 z m 6.2461,2.64648 c 0.27658,0.28781 0.25571,0.28646 0.2793,0.35157 -0.004,-2e-5 -0.007,10e-6 -0.0117,0 -0.0417,-0.0635 -0.19964,-0.24937 -0.26758,-0.35157 z m 6.49609,3.10742 c 0.31036,0.31235 0.30911,0.41784 0.043,0.0547 -0.007,-0.01 -0.0356,-0.0445 -0.043,-0.0547 z m -22.22265,9.24805 c 0.0455,0.0621 0.30317,0.37815 0.40625,0.5332 -0.43355,-0.45113 -0.53637,-0.71075 -0.40625,-0.5332 z m 6.08007,2.61719 c -0.26247,-0.27601 -0.1987,-0.33403 0.0547,0.0117 0.007,0.009 0.034,0.0429 0.041,0.0527 -0.0149,-0.015 -0.0825,-0.0506 -0.0957,-0.0644 z m 2.31055,0.37695 c 0.15652,-0.0332 -0.35912,0.22732 -1.38476,0.25196 0.55269,-0.10909 1.28929,-0.23168 1.38476,-0.25196 z m 6.70313,0.73242 h 9.47461 c -1.49285,1.06759 -5.30493,3.79498 -5.30469,3.79493 1.8e-4,-4e-5 -1.43218,-0.005 -2.71094,-0.01 -0.89139,-1.39226 -1.31479,-2.61813 -1.45898,-3.78516 z m -2.32032,1.01954 c 0.3178,-0.0675 -0.0696,0.16322 -0.97461,0.17382 0.27209,-0.072 0.8631,-0.15014 0.97461,-0.17382 z"
         id="path408" />
    </g>
  </g>
</svg>
