<?xml version="1.0" encoding="UTF-8" standalone="no"?>
<!-- Created with Inkscape (http://www.inkscape.org/) -->

<svg
   width="1000"
   height="1000"
   viewBox="0 0 1000 1000"
   version="1.1"
   id="svg1"
   xmlns:xlink="http://www.w3.org/1999/xlink"
   xmlns="http://www.w3.org/2000/svg"
   xmlns:svg="http://www.w3.org/2000/svg">
  <defs
     id="defs1">
    <pattern
       xlink:href="#pattern359"
       preserveAspectRatio="xMidYMid"
       id="pattern372"
       patternTransform="matrix(0.5,0,0,0.5,147.15462,1548.2922)" />
    <pattern
       xlink:href="#pattern357"
       preserveAspectRatio="xMidYMid"
       id="pattern371"
       patternTransform="matrix(0.5,0,0,0.5,221.32076,1552.4298)" />
    <pattern
       xlink:href="#pattern358"
       preserveAspectRatio="xMidYMid"
       id="pattern370"
       patternTransform="matrix(0.5,0,0,0.5,230.96346,1527.8214)" />
    <pattern
       xlink:href="#pattern355"
       preserveAspectRatio="xMidYMid"
       id="pattern369"
       patternTransform="matrix(0.5,0,0,0.5,287.08178,1553.6581)" />
    <pattern
       xlink:href="#pattern354"
       preserveAspectRatio="xMidYMid"
       id="pattern368"
       patternTransform="matrix(0.5,0,0,0.5,230.97274,1529.1717)" />
    <pattern
       xlink:href="#pattern342"
       preserveAspectRatio="xMidYMid"
       id="pattern360"
       patternTransform="matrix(0.5,0,0,0.5,210.45332,1525.5392)" />
    <pattern
       xlink:href="#pattern342"
       preserveAspectRatio="xMidYMid"
       id="pattern359"
       patternTransform="matrix(0.5,0,0,0.5,152.11125,1550.7705)" />
    <pattern
       xlink:href="#pattern342"
       preserveAspectRatio="xMidYMid"
       id="pattern358"
       patternTransform="matrix(0.5,0,0,0.5,202.11125,1533.2444)" />
    <pattern
       xlink:href="#pattern342"
       preserveAspectRatio="xMidYMid"
       id="pattern357"
       patternTransform="matrix(0.5,0,0,0.5,211.4075,1546.234)" />
    <pattern
       xlink:href="#pattern342"
       preserveAspectRatio="xMidYMid"
       id="pattern356"
       patternTransform="matrix(0.5,0,0,0.5,232.14929,1573.2544)" />
    <pattern
       xlink:href="#pattern342"
       preserveAspectRatio="xMidYMid"
       id="pattern355"
       patternTransform="matrix(0.5,0,0,0.5,275,1552.7287)" />
    <pattern
       xlink:href="#pattern342"
       preserveAspectRatio="xMidYMid"
       id="pattern354"
       patternTransform="matrix(0.5,0,0,0.5,235,1529.7913)" />
    <pattern
       xlink:href="#shading24"
       preserveAspectRatio="xMidYMid"
       id="pattern342"
       patternTransform="matrix(0.5,0,0,0.5,213.95332,1537.5392)"
       x="0"
       y="0" />
    <pattern
       patternUnits="userSpaceOnUse"
       width="338.5925"
       height="42.989567"
       patternTransform="translate(213.95332,1537.5392) scale(0.5)"
       preserveAspectRatio="xMidYMid"
       id="shading24"
       style="fill:#000000">
      <path
         style="fill-rule:nonzero;stroke:none;stroke-width:0.1;stroke-linecap:square;paint-order:markers fill stroke;stop-color:#000000"
         d="m 1806.4991,-758.06464 v 18.86792 c 55.9187,0 121.0493,0.59523 193.5686,3.15628 72.9408,2.57593 146.0589,6.87694 222.9288,13.47675 119.09,10.22471 223.0762,23.76065 340.6056,39.2177 117.5025,15.4535 222.0471,29.0563 341.8507,39.3312 77.366,6.63525 151.0001,10.96128 224.4674,13.55245 73.0344,2.5759 138.631,3.17493 194.9247,3.17493 -55.9642,0 -122.2215,-1.36594 -194.8324,-5.25394 -73.2143,-3.92032 -146.9676,-10.0663 -223.8166,-18.88656 -118.8791,-13.6442 -223.3242,-31.02113 -339.8009,-50.57815 -116.4705,-19.55598 -221.1862,-36.99475 -340.3724,-50.69165 -77.0605,-8.8558 -150.9942,-15.0266 -224.3694,-18.96225 -72.7637,-3.90286 -139.1256,-5.27261 -195.1541,-5.27261 z m 0,37.81515 v 18.86793 c 55.9187,0 121.0493,0.59523 193.5686,3.15627 72.9408,2.57593 146.0589,6.87694 222.9288,13.47676 119.09,10.22471 223.0762,23.76065 340.6056,39.2177 117.5025,15.4535 222.0471,29.0563 341.8507,39.33119 77.366,6.63526 151.0001,10.96128 224.4674,13.55245 73.0344,2.5759 138.631,3.17493 194.9247,3.17493 -55.9642,0 -122.2215,-1.36594 -194.8324,-5.25394 -73.2143,-3.92031 -146.9676,-10.0663 -223.8166,-18.88656 -118.8791,-13.6442 -223.3242,-31.02112 -339.8009,-50.57815 -116.4705,-19.55598 -221.1862,-36.99475 -340.3724,-50.69165 -77.0605,-8.8558 -150.9942,-15.02659 -224.3694,-18.96225 -72.7637,-3.90286 -139.1256,-5.2726 -195.1541,-5.2726 z m 0,37.81516 v 18.86792 c 55.9187,0 121.0493,0.59523 193.5686,3.15628 72.9408,2.57593 146.0589,6.87694 222.9288,13.47675 119.09,10.22471 223.0762,23.76065 340.6056,39.2177 117.5025,15.4535 222.0471,29.0563 341.8507,39.3312 77.366,6.63525 151.0001,10.96128 224.4674,13.55245 73.0344,2.5759 138.631,3.17493 194.9247,3.17493 -55.9642,0 -122.2215,-1.36594 -194.8324,-5.25394 -73.2143,-3.92032 -146.9676,-10.0663 -223.8166,-18.88656 -118.8791,-13.6442 -223.3242,-31.02113 -339.8009,-50.57815 -116.4705,-19.55598 -221.1862,-36.99475 -340.3724,-50.69165 -77.0605,-8.8558 -150.9942,-15.0266 -224.3694,-18.96225 -72.7637,-3.90286 -139.1256,-5.27261 -195.1541,-5.27261 z m 0,37.81515 v 18.86793 c 55.9187,0 121.0493,0.59523 193.5686,3.15627 72.9408,2.57593 146.0589,6.87694 222.9288,13.47676 119.09,10.22471 223.0762,23.76065 340.6056,39.2177 117.5025,15.4535 222.0471,29.0563 341.8507,39.33119 77.366,6.63526 151.0001,10.96128 224.4674,13.55245 73.0344,2.5759 138.631,3.17494 194.9247,3.17494 -55.9642,0 -122.2215,-1.36595 -194.8324,-5.25395 -73.2143,-3.92031 -146.9676,-10.0663 -223.8166,-18.88656 -118.8791,-13.6442 -223.3242,-31.02112 -339.8009,-50.57815 -116.4705,-19.55598 -221.1862,-36.99475 -340.3724,-50.69165 -77.0605,-8.8558 -150.9942,-15.02659 -224.3694,-18.96225 -72.7637,-3.90286 -139.1256,-5.2726 -195.1541,-5.2726 z m 0,37.81516 v 18.86792 c 55.9187,0 121.0493,0.59523 193.5686,3.15628 72.9408,2.57593 146.0589,6.87694 222.9288,13.47675 119.09,10.22471 223.0762,23.76065 340.6056,39.2177 117.5025,15.4535 222.0471,29.0563 341.8507,39.3312 77.366,6.63525 151.0001,10.96128 224.4674,13.55245 73.0344,2.5759 138.631,3.17493 194.9247,3.17493 -55.9642,0 -122.2215,-1.36594 -194.8324,-5.25394 -73.2143,-3.92032 -146.9676,-10.0663 -223.8166,-18.88656 -118.8791,-13.6442 -223.3242,-31.02113 -339.8009,-50.57815 -116.4705,-19.55598 -221.1862,-36.99475 -340.3724,-50.69165 -77.0605,-8.8558 -150.9942,-15.0266 -224.3694,-18.96225 -72.7637,-3.90286 -139.1256,-5.27261 -195.1541,-5.27261 z m 0,37.81515 v 18.86793 c 55.9187,0 121.0493,0.59523 193.5686,3.15627 72.9408,2.57593 146.0589,6.87694 222.9288,13.47676 119.09,10.22471 223.0762,23.76065 340.6056,39.2177 117.5025,15.4535 222.0471,29.0563 341.8507,39.33119 77.366,6.63526 151.0001,10.96128 224.4674,13.55245 73.0344,2.5759 138.631,3.17494 194.9247,3.17494 -55.9642,0 -122.2215,-1.36595 -194.8324,-5.25395 -73.2143,-3.92031 -146.9676,-10.0663 -223.8166,-18.88656 -118.8791,-13.6442 -223.3242,-31.02112 -339.8009,-50.57815 -116.4705,-19.55598 -221.1862,-36.99475 -340.3724,-50.69165 -77.0605,-8.8558 -150.9942,-15.02659 -224.3694,-18.96225 -72.7637,-3.90286 -139.1256,-5.2726 -195.1541,-5.2726 z m 0,37.81516 v 18.86792 c 55.9187,0 121.0493,0.59523 193.5686,3.15628 72.9408,2.57593 146.0589,6.87694 222.9288,13.47675 119.09,10.22471 223.0762,23.76065 340.6056,39.2177 117.5025,15.4535 222.0471,29.0563 341.8507,39.3312 77.366,6.63525 151.0001,10.96128 224.4674,13.55245 73.0344,2.5759 138.631,3.17493 194.9247,3.17493 -55.9642,0 -122.2215,-1.36594 -194.8324,-5.25394 -73.2143,-3.92032 -146.9676,-10.0663 -223.8166,-18.88656 -118.8791,-13.6442 -223.3242,-31.02113 -339.8009,-50.57815 -116.4705,-19.55598 -221.1862,-36.99475 -340.3724,-50.69165 -77.0605,-8.8558 -150.9942,-15.0266 -224.3694,-18.96225 -72.7637,-3.90286 -139.1256,-5.27261 -195.1541,-5.27261 z"
         id="use26"
         transform="matrix(0.22300099,0,0,0.37823052,-402.85121,237.25945)" />
    </pattern>
    <clipPath
       clipPathUnits="userSpaceOnUse"
       id="clipPath54">
      <path
         id="path336"
         style="stroke-width:0.0999999;stroke-linecap:square;paint-order:markers fill stroke;stop-color:#000000"
         d="m 1691.1994,-792.32001 h 1634.8919 v 92.82806 H 1691.1994 Z" />
    </clipPath>
    <clipPath
       clipPathUnits="userSpaceOnUse"
       id="clipPath33">
      <rect
         style="fill:#000000;stroke:none;stroke-width:0.999995;stroke-linecap:butt;stroke-linejoin:bevel;paint-order:stroke markers fill;stop-color:#000000"
         id="rect33"
         width="46.19186"
         height="80.006783"
         x="74.999985"
         y="399.99661" />
    </clipPath>
    <clipPath
       clipPathUnits="userSpaceOnUse"
       id="clipPath27">
      <rect
         style="fill:none;stroke:#000000;stroke-width:0.999999;stroke-linecap:butt;stroke-linejoin:bevel;paint-order:stroke markers fill;stop-color:#000000"
         id="rect28-6"
         width="46.160622"
         height="39.922417"
         x="86.574379"
         y="420.06253" />
    </clipPath>
    <clipPath
       clipPathUnits="userSpaceOnUse"
       id="clipPath25">
      <rect
         style="fill:#ff0000;stroke:none;stroke-width:3;stroke-linecap:square;stroke-linejoin:miter;paint-order:stroke markers fill;stop-color:#000000"
         id="rect25-8"
         width="78"
         height="45.033199"
         x="763.61322"
         y="452.82422" />
    </clipPath>
    <clipPath
       clipPathUnits="userSpaceOnUse"
       id="clipPath15">
      <rect
         style="fill:none;stroke:#000000;stroke-linecap:butt;stroke-linejoin:bevel;paint-order:stroke markers fill;stop-color:#000000"
         id="rect15-7"
         width="45.034248"
         height="38.955639"
         x="262.48285"
         y="121.00073" />
    </clipPath>
    <linearGradient
       id="swatch75">
      <stop
         style="stop-color:#000000;stop-opacity:1;"
         offset="0"
         id="stop75" />
    </linearGradient>
  </defs>
  <g
     id="layer51"
     style="display:inline">
    <g
       id="layer55"
       style="display:inline">
      <path
         style="baseline-shift:baseline;display:inline;overflow:visible;opacity:1;vector-effect:none;fill-rule:evenodd;enable-background:accumulate;stop-color:#000000;stop-opacity:1"
         d="m 267.54883,169.17969 c -2.347,0.45939 -3.92843,1.5911 -4.88477,2.46484 -0.0422,0.0386 -0.0414,0.0559 -0.082,0.0937 H 259.875 c 0,2.56987 0.0265,2.46355 0.0352,4.17383 -0.31175,0.84622 -0.56879,1.60945 -0.70704,2.23242 -0.37058,1.66993 -0.65052,3.54599 -1.0039,6.37305 -0.73031,5.84245 0.0162,8.54611 0.11719,8.04101 -0.14078,0.70392 -1.36525,2.96193 -2.98438,7.00977 l -0.25195,0.63086 -0.16406,0.6582 c -1.07194,4.28772 -2.59866,9.08611 -3.63282,14.60156 -1.04779,5.58825 -1.22272,10.44702 -1.8125,14.37891 -1.02201,6.81342 -2.2924,13.75249 -3.47851,20.86914 -1.14281,6.85685 -2.49218,13.91594 -3.54102,21.25781 -1.37712,9.6398 -2.26386,19.04093 -3.51172,28.08789 -4.2014,30.46018 -3.66903,17.96923 -7.05664,52.97461 -0.85956,8.88212 -0.77673,17.01291 -1.71484,24.20508 -0.23132,1.77342 -0.32856,2.26384 -0.5293,3.74219 -0.94694,0.91907 -1.51963,1.898 -1.83008,2.40039 -0.68364,1.10634 -0.83569,1.63959 -0.99023,2.08008 -0.30908,0.88098 -0.38595,1.30564 -0.48633,1.77344 -0.80301,3.74235 -1.46268,9.63102 -3.19726,25.24218 -0.72638,6.53729 0.25657,10.53732 0.0547,11.84961 -0.0775,0.50394 -2.25969,3.65004 -3.45898,10.2461 -1.08001,5.94008 -0.0719,9.19766 -0.0996,9.44726 0.0379,-0.34104 -1.24511,1.91387 -1.76563,7.11914 -0.57477,5.74772 0.18625,9.14745 0.0508,10.09571 -0.37365,2.6155 -2.64587,7.14158 -3.52735,14.19335 -0.83956,6.71655 0.14206,11.64257 -0.0547,14.59375 -0.49871,7.48074 -0.87677,8.52989 -1.67382,11.13672 -0.79706,2.60684 -2.19183,6.95605 -3.50586,16.1543 -0.74658,5.22591 -0.001,8.43993 -0.0742,9.46289 -0.31857,4.45991 -1.34747,9.69435 -1.75586,15.82031 -0.34765,5.21476 0.11915,7.96363 0.13867,8.77539 -0.0771,0.1381 -0.0559,0.12946 -0.2168,0.3711 -0.72351,1.08669 -2.38607,3.16114 -3.21093,6.87304 -1.4031,6.31387 -0.17561,9.79706 -0.18946,9.93555 -0.44181,4.41808 -0.60602,4.65744 -1.05273,5.92969 -0.44672,1.27225 -1.54083,4.24691 -2.36524,9.19336 -0.70715,4.2428 -0.29186,5.53327 -0.0351,3.73633 -0.23489,1.64422 -1.29376,4.59489 -1.79102,9.07031 -0.44558,4.0101 -0.15979,5.84435 -0.0312,6.25586 -0.23708,0.11692 -0.91237,1.76693 -1.58984,5.1543 -0.1933,0.96647 -0.14607,1.55251 -0.16211,2.24609 -0.9267,1.06046 -2.28422,2.69884 -3.15039,5.73047 -0.67932,2.37759 -0.42951,2.47269 -0.45508,3.09179 -0.0256,0.61911 -0.0294,1.18513 -0.0273,1.79688 0.004,1.2235 0.0389,2.59079 0.0723,3.95312 0.0333,1.36234 0.0664,2.71489 0.0781,3.75196 0.0117,1.03706 -0.11059,2.25189 0.0234,1.17969 -0.28792,2.30334 -0.845,4.83314 -1.53125,7.57812 0.14056,-0.56223 -1.42206,1.46454 -1.99023,6.57813 -0.68186,6.13668 0.17099,9.44825 0.10156,9.83007 0.12943,-0.71185 -2.11857,1.81949 -3.47265,8.58985 -1.21447,6.07233 -0.11666,9.44978 -0.14453,9.72851 -0.10949,1.09492 -1.21188,3.89719 -1.74024,8.65235 -0.51201,4.60816 0.009,6.92741 0.0156,6.875 -0.0147,0.11791 -1.08229,2.29859 -1.73047,6.83593 -0.38167,2.67172 -0.49492,4.27432 -0.43164,4.93946 -0.78536,1.21536 -2.19402,3.23534 -2.93555,6.57226 -1.41886,6.38489 -0.17651,9.83273 -0.17578,9.82617 0.007,-0.0613 -1.05179,2.07149 -1.71289,6.69922 -0.5145,3.60148 -0.10156,5.86224 -0.10156,6.67188 0,4.44766 0.33055,7.49858 0.10156,9.10156 -0.38138,2.66961 -2.59263,7.17424 -3.51758,14.11133 -0.77332,5.79987 -0.0879,10.37997 -0.0879,13.58789 v 22.7832 26.28516 8.76367 c 0,3.16348 0.16086,5.09008 0.0762,5.76758 -0.11565,0.92524 -0.0701,0.53942 -0.17578,1.27539 -3.54221,3.44539 -3.39998,5.33665 -4.64453,9.07031 -1.11269,3.33805 -0.6782,5.81426 -0.54492,6.94141 0.0201,0.16984 0.007,0.12876 0.0156,0.24609 -0.1003,0.34135 -0.34327,1.07985 -1.02148,2.77539 0.66083,-1.65206 -1.38459,-0.11063 -2.33203,5.57422 -0.69108,4.14645 -0.23769,6.82915 -0.16602,8.20703 -0.43958,0.71746 -0.86739,1.51821 -1.20898,2.54297 -1.70277,5.10833 -0.51368,7.60591 -0.51368,6.66602 v 5.25781 3.50586 c 0,-1.19858 0.0693,-1.17846 -0.0391,-0.18359 -0.10836,0.99486 -0.36821,3.48031 1.0957,6.4082 1.51109,3.02217 6.26053,6.79616 9.75,7.27734 3.48948,0.48119 4.29544,0.002 4.45118,0.002 4.10845,0 7.3211,-0.24905 9.60937,-0.041 1.33849,0.12168 3.95995,0.98096 8.02344,1.6582 7.87156,1.31193 15.48207,2.23465 22.71289,3.49219 5.05838,0.87972 10.95305,2.69579 17.99609,3.57617 5.74487,0.71812 9.40031,-0.10268 10.80664,0.0312 7.99696,0.76162 16.70471,2.67329 26.36914,3.51367 6.40771,0.55719 11.10376,-0.26542 13.98047,-0.004 7.15712,0.65065 15.25643,2.7323 24.60938,3.51172 6.9247,0.57705 13.06569,0.0332 18.35351,0.0332 9.85762,0 18.97427,-0.6677 27.27344,-0.0293 3.60629,0.27741 9.22258,2.7849 17.42383,3.49805 8.71606,0.75792 16.63209,0.0371 23.64844,0.0371 h 17.52343 c 5.9552,0 10.88629,-0.45893 14.72657,-0.0547 3.99255,0.42027 9.70582,2.79393 17.66601,3.51758 8.18314,0.74392 15.52744,0.041 21.9336,0.041 h 31.54492 14.01953 c 2.69524,0 3.97363,-0.0808 3.8418,-0.0996 0.34697,0.0496 2.58817,1.1203 7.00976,1.75195 3.60148,0.51449 5.86225,0.10156 6.67188,0.10156 h 14.01953 22.78125 17.52539 c 1.97792,0 5.41776,0.57815 10.17578,-0.10156 10.1186,-1.44552 22.85493,-5.49849 30.47266,-7.13086 2.87556,-0.61619 6.25562,-1.03154 10.0625,-1.66602 l 0.77343,-0.1289 0.7461,-0.24805 c 4.15566,-1.38522 7.25432,-2.72665 9.52148,-3.23047 -2.02549,0.45012 -0.53904,0.85686 4.50196,0.13672 3.36558,-0.48079 5.37498,-1.19547 6.65234,-1.57812 0.9313,0.0431 2.15248,-0.0176 3.85742,-0.58594 1.74758,-0.58254 2.49776,-0.92541 3.13477,-1.22852 0.30983,-0.006 0.28789,-0.0117 0.71289,-0.0117 h 1.75195 c -1.52386,0 0.36129,1.00544 4.91406,-0.51171 2.08115,-0.69372 3.07011,-1.09029 3.59766,-1.35743 0.40969,0.0452 0.14407,0.11719 2.00391,0.11719 h 3.5039 c 1.50966,0 4.29043,0.41878 8.25,-0.0762 4.66187,-0.58274 6.95237,-1.74431 7.1836,-1.77734 -1.21865,0.17409 0.66936,0.76797 5.48828,-0.0352 3.32096,-0.55351 5.01411,-1.22929 5.44531,-1.56055 1.21805,0.15438 3.47129,0.46986 6.58594,-0.56836 3.3095,-1.10316 5.06041,-2.81496 5.94922,-3.56836 0.8888,-0.7534 0.97806,-0.58536 -0.13868,-0.13867 l -1.61132,0.31055 c 0.13313,-0.71488 3.59284,-19.28991 3.64648,-19.2793 0.10813,0.0214 0.22244,0.0445 0.34766,0.0742 0.25043,0.0595 0.54131,0.13693 0.92187,0.27148 0.76113,0.26911 2.01935,0.54887 3.85547,2.59571 1.83612,2.04684 2.89548,7.24211 1.82227,9.99023 -2.14643,5.49625 -3.53824,4.22811 -2.96875,3.94336 -2.40544,1.2027 -4.30587,0.94345 -4.70118,0.90039 -0.3953,-0.0431 0.19967,0.15625 1.98243,0.15625 h 1.75195 7.00976 c -0.44856,0 1.66069,0.76794 5.92969,-0.29883 1.70316,-0.42578 2.76252,-0.96343 3.5586,-1.4375 0.3739,-0.01 0.41489,-0.0156 1.02734,-0.0156 h 3.50391 c -0.44861,0 1.65905,0.76882 5.92968,-0.29883 1.7042,-0.42605 2.7645,-0.96329 3.56055,-1.4375 0.37364,-0.01 0.41409,-0.0176 1.02539,-0.0176 h 3.50391 v -20 h -3.50391 c 0.4486,0 -1.66098,-0.76883 -5.93164,0.29883 -1.70422,0.42605 -2.76253,0.96329 -3.55859,1.4375 -0.37365,0.01 -0.41409,0.0176 -1.02539,0.0176 h -3.50391 c 0.4486,0 -1.66101,-0.77078 -5.93164,0.29687 -1.7042,0.42606 -2.76254,0.9633 -3.5586,1.4375 -0.37364,0.01 -0.41407,0.0176 -1.02539,0.0176 h -7.00976 -1.75195 c 1.19861,0 1.17846,0.0693 0.18359,-0.0391 -0.99487,-0.10837 -3.4803,-0.37018 -6.4082,1.09375 -0.48734,0.24367 -1.0425,0.5068 -1.56446,0.69727 h -1.14648 l -1.78906,0.71484 c -2.36801,0.9472 -3.64492,1.99007 -4.53321,2.76367 -0.94825,-0.0924 -2.17247,-0.12749 -3.91015,0.16211 -3.00696,0.50117 -4.63594,1.09352 -5.26368,1.45313 -0.68067,-0.11438 -2.27442,-0.12878 -5.02148,0.26367 -4.53734,0.64819 -6.71803,1.71573 -6.83594,1.73047 -0.6775,0.0847 -2.60605,-0.0781 -5.76953,-0.0781 h -3.5039 c -0.44499,0 -2.93625,-0.66119 -7.21875,0.19531 -2.51189,0.50237 -4.03626,1.09628 -4.89649,1.55664 h -0.15234 c 0.4486,0 -1.65905,-0.76882 -5.92969,0.29883 -2.39515,0.5988 -3.81655,1.20938 -4.5332,1.62696 -0.10908,0.0193 -0.14596,-10e-4 -0.25977,0.0215 -3.65718,0.73143 -5.74984,1.55634 -6.46289,1.6582 1.57136,-0.22448 -0.56678,-1.07176 -6.01367,0.13867 -4.64353,1.0319 -8.12144,2.57712 -10.90039,3.55469 -3.01012,0.47729 -6.3203,0.88532 -10.05469,1.68555 -9.42011,2.01859 -22.26211,5.91049 -29.10937,6.88867 -1.02472,0.14639 -3.48414,-0.0996 -7.34766,-0.0996 h -17.52539 -22.78125 -14.01953 c -2.69524,0 -3.97559,0.0808 -3.84375,0.0996 -0.34699,-0.0496 -2.58818,-1.1203 -7.00977,-1.75195 -3.60147,-0.5145 -5.86028,-0.10156 -6.66992,-0.10156 H 502.94922 471.4043 c -7.6133,0 -14.34428,0.56635 -20.12305,0.041 -3.90512,-0.35501 -9.52657,-2.66326 -17.38281,-3.49023 -6.61654,-0.69648 -12.26091,-0.0547 -16.82032,-0.0547 h -17.52343 c -8.17142,0 -15.50142,0.5949 -21.91602,0.0371 -3.66821,-0.31897 -9.35017,-2.8773 -17.62305,-3.51367 -10.33838,-0.79526 -19.97164,-0.0293 -28.80664,-0.0293 -6.39508,0 -11.97553,0.4283 -16.69336,0.0352 -7.11209,-0.59268 -15.16186,-2.65286 -24.45898,-3.49805 -6.43121,-0.58466 -11.15513,0.24857 -14.05859,-0.004 -7.94853,-0.69117 -16.60225,-2.58348 -26.20508,-3.49804 -5.57183,-0.53065 -9.01193,0.18454 -10.22266,0.0332 -4.77921,-0.5974 -10.37109,-2.27191 -17.05078,-3.43359 -7.90838,-1.37538 -15.56577,-2.30329 -22.85156,-3.51758 -1.81259,-0.3021 -4.90583,-1.43002 -9.5,-1.84766 -2.48457,-0.22587 -4.68768,-0.22357 -6.67774,-0.17187 v -1.625 c 0.45211,-0.72837 0.88998,-1.5547 1.24024,-2.60547 1.70273,-5.10828 0.51367,-7.60783 0.51367,-6.66797 0,-2.56536 -0.0664,-3.28116 -0.10156,-4.00977 0.20948,-0.46192 0.47163,-1.12342 1.13867,-2.79101 0.59311,-1.48279 1.74781,-3.83252 2.33008,-7.32617 0.26775,-1.60648 0.26107,-2.81646 0.18554,-3.74805 1.36216,-1.04999 2.14454,-2.06594 2.57032,-2.77344 1.01588,-1.68804 1.07961,-2.37321 1.24804,-3.00391 0.67374,-2.52276 0.77477,-4.10045 1.3125,-8.40234 0.49496,-3.95958 0.0781,-6.74034 0.0781,-8.25 v -8.76367 -26.28516 -22.7832 c 0,-4.9701 -0.39541,-8.6389 -0.0879,-10.94531 0.34831,-2.61236 2.5111,-7.05825 3.49219,-13.92578 0.76232,-5.3363 0.0996,-9.36764 0.0996,-11.92969 0,-2.69524 -0.0808,-3.97363 -0.0996,-3.8418 0.0201,-0.14084 1.25226,-2.47152 1.79101,-7.32031 0.59575,-5.36173 0.0888,-7.64341 -0.11523,-7.47852 0.0793,-0.14919 0.10135,-0.21252 0.29883,-0.52148 0.66573,-1.04156 2.07835,-2.91 2.99804,-6.12891 1.74183,-6.09637 0.56553,-8.55243 0.28516,-6.58984 0.033,-0.23124 1.19265,-2.52172 1.77539,-7.18359 0.58619,-4.68948 0.0116,-7.11007 0.0156,-7.14649 0.12951,-1.16555 1.28042,-4.03843 1.76368,-8.87109 0.55338,-5.53371 -0.0757,-8.14121 -0.14454,-7.79688 -0.12021,0.6011 2.28225,-2.03178 3.53711,-8.93359 1.09443,-6.01934 0.22996,-9.48178 0.15625,-10.67188 0.18209,-0.0427 0.70979,-1.46798 1.45899,-4.46484 0.75857,-3.03428 1.52363,-6.33753 1.97461,-9.94531 0.2476,-1.98088 0.14322,-2.62094 0.1289,-3.88867 -0.0143,-1.26774 -0.0511,-2.67089 -0.084,-4.01563 -0.0234,-0.95777 -0.0355,-1.7345 -0.0469,-2.51367 0.78085,-0.86262 1.87363,-2.14402 2.86915,-4.63281 1.02348,-2.55872 0.94334,-4.34061 0.80273,-5.57813 0.31637,-0.29341 1.02321,-1.69574 1.56445,-5.48437 0.701,-4.90698 0.0479,-7.40017 0.0391,-7.32032 0.16058,-1.44528 1.10531,-4.19813 1.71289,-8.45117 0.58714,-4.11002 0.28785,-5.21341 -0.0352,-3.27539 0.63914,-3.83484 0.81151,-3.87433 1.50781,-5.85742 0.69631,-1.98309 1.55168,-5.24137 2.08399,-10.56445 0.50651,-5.0652 0.0836,-7.22418 -0.11328,-7.2793 0.087,-0.15432 0.0796,-0.16785 0.25781,-0.43555 0.75916,-1.14022 2.45657,-3.29848 3.21484,-7.08984 1.28603,-6.43015 0.0851,-10.50865 0.17188,-11.81055 0.29532,-4.42992 1.31481,-9.6321 1.75,-15.72461 0.34311,-4.80363 -0.15572,-7.50374 -0.0762,-8.06054 1.18421,-8.28948 1.89066,-10.04954 2.83399,-13.13477 0.94333,-3.08523 1.94588,-7.31314 2.50195,-15.6543 0.42497,-6.37443 -0.37438,-10.88576 -0.0547,-13.44336 0.31348,-2.50778 2.49167,-6.92406 3.48047,-13.8457 0.85586,-5.99102 -0.07,-9.70637 0.0527,-10.93359 -0.0412,0.41219 1.1704,-1.77183 1.74023,-6.90039 0.61735,-5.5561 -0.0645,-8.271 -0.0996,-8.07813 0.12249,-0.67366 2.50282,-3.98416 3.54883,-10.7832 1.04163,-6.77063 -0.12206,-11.09288 0.0547,-12.6836 0.74523,-6.70707 0.76935,-6.30132 1.24414,-10.06054 0.0225,-0.0243 0.0901,-0.0625 0.11133,-0.0859 1.09603,-1.21029 1.40639,-1.9389 1.67578,-2.49805 1.07754,-2.23659 0.96073,-2.69332 1.18945,-3.76367 0.22872,-1.07035 0.45013,-2.30883 0.71094,-3.91211 0.52163,-3.20656 1.18209,-7.8342 2.05664,-14.53906 1.18276,-9.06781 1.06912,-17.42394 1.78906,-24.86328 3.36361,-34.75736 2.69199,-21.20588 6.96289,-52.16992 1.32613,-9.61444 2.21105,-18.98323 3.49805,-27.99219 0.96116,-6.72813 2.27498,-13.63622 3.46875,-20.79883 1.15047,-6.90282 2.44492,-13.94727 3.53125,-21.18945 0.80744,-5.38295 1.00338,-9.99068 1.69141,-13.66016 0.69214,-3.6914 1.96131,-7.90142 3.15234,-12.54687 0.8199,-1.84582 2.797,-4.93221 3.83398,-10.11719 0.5665,-2.83249 0.61642,-4.9713 0.53125,-6.55274 0.3548,-0.66753 0.98422,-1.82439 1.10938,-2.23046 0.1625,-0.52725 0.21998,-0.82513 0.26562,-1.0625 0.18258,-0.94948 0.14678,-1.05619 0.16016,-1.25 0.0268,-0.38764 0.0259,-0.52701 0.0293,-0.70313 0.0136,-0.70446 0.004,-1.43889 -0.0274,-2.37891 -0.007,-0.20685 -0.036,-0.47053 -0.0449,-0.68554 -0.0309,-1.48285 -0.0762,-3.48009 -0.0762,-9.87891 h -3.34375 c -0.53371,-0.46345 -1.21135,-0.94602 -2.08398,-1.43945 -1.7426,-0.98535 -4.55145,-1.57854 -6.89844,-1.11914 z m -78.86524,660.89062 c 0.64555,0.4306 1.01222,0.75679 1.28907,1.13672 -0.25293,-0.3186 -0.84795,-0.74723 -1.28907,-1.13672 z m -15.02929,12.69531 c 0.009,0.0157 0.0916,0.2236 0.56836,0.92969 0.008,0.0124 0.0346,0.0512 0.043,0.0645 -0.48936,-0.61861 -0.62123,-1.01159 -0.61132,-0.99415 z m -4.73438,17.17969 c -0.0936,0.0608 -0.6536,0.48208 -1.01367,0.70508 0.70303,-0.6763 1.20454,-0.82907 1.01367,-0.70508 z m 10.97461,16.71485 c 8.1e-4,5.6e-4 0.001,10e-4 0.002,0.002 0.007,-0.007 -0.0979,0.065 -0.082,0.0547 0.007,-0.005 0.0706,-0.051 0.0801,-0.0566 z"
         id="path409" />
    </g>
  </g>
</svg>
