<?xml version="1.0" encoding="UTF-8" standalone="no"?>
<!-- Created with Inkscape (http://www.inkscape.org/) -->

<svg
   width="1000"
   height="1000"
   viewBox="0 0 1000 1000"
   version="1.1"
   id="svg1"
   xmlns:xlink="http://www.w3.org/1999/xlink"
   xmlns="http://www.w3.org/2000/svg"
   xmlns:svg="http://www.w3.org/2000/svg">
  <defs
     id="defs1">
    <pattern
       xlink:href="#pattern359"
       preserveAspectRatio="xMidYMid"
       id="pattern372"
       patternTransform="matrix(0.5,0,0,0.5,147.15462,1548.2922)" />
    <pattern
       xlink:href="#pattern357"
       preserveAspectRatio="xMidYMid"
       id="pattern371"
       patternTransform="matrix(0.5,0,0,0.5,221.32076,1552.4298)" />
    <pattern
       xlink:href="#pattern358"
       preserveAspectRatio="xMidYMid"
       id="pattern370"
       patternTransform="matrix(0.5,0,0,0.5,230.96346,1527.8214)" />
    <pattern
       xlink:href="#pattern355"
       preserveAspectRatio="xMidYMid"
       id="pattern369"
       patternTransform="matrix(0.5,0,0,0.5,287.08178,1553.6581)" />
    <pattern
       xlink:href="#pattern354"
       preserveAspectRatio="xMidYMid"
       id="pattern368"
       patternTransform="matrix(0.5,0,0,0.5,230.97274,1529.1717)" />
    <pattern
       xlink:href="#pattern342"
       preserveAspectRatio="xMidYMid"
       id="pattern360"
       patternTransform="matrix(0.5,0,0,0.5,210.45332,1525.5392)" />
    <pattern
       xlink:href="#pattern342"
       preserveAspectRatio="xMidYMid"
       id="pattern359"
       patternTransform="matrix(0.5,0,0,0.5,152.11125,1550.7705)" />
    <pattern
       xlink:href="#pattern342"
       preserveAspectRatio="xMidYMid"
       id="pattern358"
       patternTransform="matrix(0.5,0,0,0.5,202.11125,1533.2444)" />
    <pattern
       xlink:href="#pattern342"
       preserveAspectRatio="xMidYMid"
       id="pattern357"
       patternTransform="matrix(0.5,0,0,0.5,211.4075,1546.234)" />
    <pattern
       xlink:href="#pattern342"
       preserveAspectRatio="xMidYMid"
       id="pattern356"
       patternTransform="matrix(0.5,0,0,0.5,232.14929,1573.2544)" />
    <pattern
       xlink:href="#pattern342"
       preserveAspectRatio="xMidYMid"
       id="pattern355"
       patternTransform="matrix(0.5,0,0,0.5,275,1552.7287)" />
    <pattern
       xlink:href="#pattern342"
       preserveAspectRatio="xMidYMid"
       id="pattern354"
       patternTransform="matrix(0.5,0,0,0.5,235,1529.7913)" />
    <pattern
       xlink:href="#shading24"
       preserveAspectRatio="xMidYMid"
       id="pattern342"
       patternTransform="matrix(0.5,0,0,0.5,213.95332,1537.5392)"
       x="0"
       y="0" />
    <pattern
       patternUnits="userSpaceOnUse"
       width="338.5925"
       height="42.989567"
       patternTransform="translate(213.95332,1537.5392) scale(0.5)"
       preserveAspectRatio="xMidYMid"
       id="shading24"
       style="fill:#000000">
      <path
         style="fill-rule:nonzero;stroke:none;stroke-width:0.1;stroke-linecap:square;paint-order:markers fill stroke;stop-color:#000000"
         d="m 1806.4991,-758.06464 v 18.86792 c 55.9187,0 121.0493,0.59523 193.5686,3.15628 72.9408,2.57593 146.0589,6.87694 222.9288,13.47675 119.09,10.22471 223.0762,23.76065 340.6056,39.2177 117.5025,15.4535 222.0471,29.0563 341.8507,39.3312 77.366,6.63525 151.0001,10.96128 224.4674,13.55245 73.0344,2.5759 138.631,3.17493 194.9247,3.17493 -55.9642,0 -122.2215,-1.36594 -194.8324,-5.25394 -73.2143,-3.92032 -146.9676,-10.0663 -223.8166,-18.88656 -118.8791,-13.6442 -223.3242,-31.02113 -339.8009,-50.57815 -116.4705,-19.55598 -221.1862,-36.99475 -340.3724,-50.69165 -77.0605,-8.8558 -150.9942,-15.0266 -224.3694,-18.96225 -72.7637,-3.90286 -139.1256,-5.27261 -195.1541,-5.27261 z m 0,37.81515 v 18.86793 c 55.9187,0 121.0493,0.59523 193.5686,3.15627 72.9408,2.57593 146.0589,6.87694 222.9288,13.47676 119.09,10.22471 223.0762,23.76065 340.6056,39.2177 117.5025,15.4535 222.0471,29.0563 341.8507,39.33119 77.366,6.63526 151.0001,10.96128 224.4674,13.55245 73.0344,2.5759 138.631,3.17493 194.9247,3.17493 -55.9642,0 -122.2215,-1.36594 -194.8324,-5.25394 -73.2143,-3.92031 -146.9676,-10.0663 -223.8166,-18.88656 -118.8791,-13.6442 -223.3242,-31.02112 -339.8009,-50.57815 -116.4705,-19.55598 -221.1862,-36.99475 -340.3724,-50.69165 -77.0605,-8.8558 -150.9942,-15.02659 -224.3694,-18.96225 -72.7637,-3.90286 -139.1256,-5.2726 -195.1541,-5.2726 z m 0,37.81516 v 18.86792 c 55.9187,0 121.0493,0.59523 193.5686,3.15628 72.9408,2.57593 146.0589,6.87694 222.9288,13.47675 119.09,10.22471 223.0762,23.76065 340.6056,39.2177 117.5025,15.4535 222.0471,29.0563 341.8507,39.3312 77.366,6.63525 151.0001,10.96128 224.4674,13.55245 73.0344,2.5759 138.631,3.17493 194.9247,3.17493 -55.9642,0 -122.2215,-1.36594 -194.8324,-5.25394 -73.2143,-3.92032 -146.9676,-10.0663 -223.8166,-18.88656 -118.8791,-13.6442 -223.3242,-31.02113 -339.8009,-50.57815 -116.4705,-19.55598 -221.1862,-36.99475 -340.3724,-50.69165 -77.0605,-8.8558 -150.9942,-15.0266 -224.3694,-18.96225 -72.7637,-3.90286 -139.1256,-5.27261 -195.1541,-5.27261 z m 0,37.81515 v 18.86793 c 55.9187,0 121.0493,0.59523 193.5686,3.15627 72.9408,2.57593 146.0589,6.87694 222.9288,13.47676 119.09,10.22471 223.0762,23.76065 340.6056,39.2177 117.5025,15.4535 222.0471,29.0563 341.8507,39.33119 77.366,6.63526 151.0001,10.96128 224.4674,13.55245 73.0344,2.5759 138.631,3.17494 194.9247,3.17494 -55.9642,0 -122.2215,-1.36595 -194.8324,-5.25395 -73.2143,-3.92031 -146.9676,-10.0663 -223.8166,-18.88656 -118.8791,-13.6442 -223.3242,-31.02112 -339.8009,-50.57815 -116.4705,-19.55598 -221.1862,-36.99475 -340.3724,-50.69165 -77.0605,-8.8558 -150.9942,-15.02659 -224.3694,-18.96225 -72.7637,-3.90286 -139.1256,-5.2726 -195.1541,-5.2726 z m 0,37.81516 v 18.86792 c 55.9187,0 121.0493,0.59523 193.5686,3.15628 72.9408,2.57593 146.0589,6.87694 222.9288,13.47675 119.09,10.22471 223.0762,23.76065 340.6056,39.2177 117.5025,15.4535 222.0471,29.0563 341.8507,39.3312 77.366,6.63525 151.0001,10.96128 224.4674,13.55245 73.0344,2.5759 138.631,3.17493 194.9247,3.17493 -55.9642,0 -122.2215,-1.36594 -194.8324,-5.25394 -73.2143,-3.92032 -146.9676,-10.0663 -223.8166,-18.88656 -118.8791,-13.6442 -223.3242,-31.02113 -339.8009,-50.57815 -116.4705,-19.55598 -221.1862,-36.99475 -340.3724,-50.69165 -77.0605,-8.8558 -150.9942,-15.0266 -224.3694,-18.96225 -72.7637,-3.90286 -139.1256,-5.27261 -195.1541,-5.27261 z m 0,37.81515 v 18.86793 c 55.9187,0 121.0493,0.59523 193.5686,3.15627 72.9408,2.57593 146.0589,6.87694 222.9288,13.47676 119.09,10.22471 223.0762,23.76065 340.6056,39.2177 117.5025,15.4535 222.0471,29.0563 341.8507,39.33119 77.366,6.63526 151.0001,10.96128 224.4674,13.55245 73.0344,2.5759 138.631,3.17494 194.9247,3.17494 -55.9642,0 -122.2215,-1.36595 -194.8324,-5.25395 -73.2143,-3.92031 -146.9676,-10.0663 -223.8166,-18.88656 -118.8791,-13.6442 -223.3242,-31.02112 -339.8009,-50.57815 -116.4705,-19.55598 -221.1862,-36.99475 -340.3724,-50.69165 -77.0605,-8.8558 -150.9942,-15.02659 -224.3694,-18.96225 -72.7637,-3.90286 -139.1256,-5.2726 -195.1541,-5.2726 z m 0,37.81516 v 18.86792 c 55.9187,0 121.0493,0.59523 193.5686,3.15628 72.9408,2.57593 146.0589,6.87694 222.9288,13.47675 119.09,10.22471 223.0762,23.76065 340.6056,39.2177 117.5025,15.4535 222.0471,29.0563 341.8507,39.3312 77.366,6.63525 151.0001,10.96128 224.4674,13.55245 73.0344,2.5759 138.631,3.17493 194.9247,3.17493 -55.9642,0 -122.2215,-1.36594 -194.8324,-5.25394 -73.2143,-3.92032 -146.9676,-10.0663 -223.8166,-18.88656 -118.8791,-13.6442 -223.3242,-31.02113 -339.8009,-50.57815 -116.4705,-19.55598 -221.1862,-36.99475 -340.3724,-50.69165 -77.0605,-8.8558 -150.9942,-15.0266 -224.3694,-18.96225 -72.7637,-3.90286 -139.1256,-5.27261 -195.1541,-5.27261 z"
         id="use26"
         transform="matrix(0.22300099,0,0,0.37823052,-402.85121,237.25945)" />
    </pattern>
    <clipPath
       clipPathUnits="userSpaceOnUse"
       id="clipPath54">
      <path
         id="path336"
         style="stroke-width:0.0999999;stroke-linecap:square;paint-order:markers fill stroke;stop-color:#000000"
         d="m 1691.1994,-792.32001 h 1634.8919 v 92.82806 H 1691.1994 Z" />
    </clipPath>
    <clipPath
       clipPathUnits="userSpaceOnUse"
       id="clipPath33">
      <rect
         style="fill:#000000;stroke:none;stroke-width:0.999995;stroke-linecap:butt;stroke-linejoin:bevel;paint-order:stroke markers fill;stop-color:#000000"
         id="rect33"
         width="46.19186"
         height="80.006783"
         x="74.999985"
         y="399.99661" />
    </clipPath>
    <clipPath
       clipPathUnits="userSpaceOnUse"
       id="clipPath27">
      <rect
         style="fill:none;stroke:#000000;stroke-width:0.999999;stroke-linecap:butt;stroke-linejoin:bevel;paint-order:stroke markers fill;stop-color:#000000"
         id="rect28-6"
         width="46.160622"
         height="39.922417"
         x="86.574379"
         y="420.06253" />
    </clipPath>
    <clipPath
       clipPathUnits="userSpaceOnUse"
       id="clipPath25">
      <rect
         style="fill:#ff0000;stroke:none;stroke-width:3;stroke-linecap:square;stroke-linejoin:miter;paint-order:stroke markers fill;stop-color:#000000"
         id="rect25-8"
         width="78"
         height="45.033199"
         x="763.61322"
         y="452.82422" />
    </clipPath>
    <clipPath
       clipPathUnits="userSpaceOnUse"
       id="clipPath15">
      <rect
         style="fill:none;stroke:#000000;stroke-linecap:butt;stroke-linejoin:bevel;paint-order:stroke markers fill;stop-color:#000000"
         id="rect15-7"
         width="45.034248"
         height="38.955639"
         x="262.48285"
         y="121.00073" />
    </clipPath>
    <linearGradient
       id="swatch75">
      <stop
         style="stop-color:#000000;stop-opacity:1;"
         offset="0"
         id="stop75" />
    </linearGradient>
  </defs>
  <g
     id="layer51"
     style="display:inline">
    <g
       id="layer57"
       style="display:inline">
      <path
         style="baseline-shift:baseline;display:inline;overflow:visible;opacity:1;vector-effect:none;fill-rule:evenodd;enable-background:accumulate;stop-color:#000000;stop-opacity:1"
         d="m 719.01172,176.99609 v 12.26758 0.83203 c -0.3354,0.66933 -0.71483,1.44333 -1.23828,3.01367 -1.51801,4.55411 -0.51367,6.44 -0.51367,4.91602 v 5.25781 7.00782 c 0,6.5048 0.49806,12.03699 0.0488,16.52929 -0.38339,3.83394 -2.89367,9.56697 -3.52343,17.75391 -0.83303,10.82936 0.57598,20.23786 -0.004,28.0664 -0.35108,4.73958 -2.46379,10.86068 -3.45313,18.7754 -1.57703,12.61633 -2.3874,25.02182 -3.5371,37.09375 -1.15976,12.17745 -2.50036,24.47447 -3.51758,36.93554 -1.35923,16.65055 -1.93817,33.00149 -3.49024,48.91016 -0.99843,10.23399 -1.78904,15.45968 -2.31054,17.96484 -0.52151,2.50516 -0.45625,1.78147 -1.24024,3.88672 -1.56797,4.2105 -2.29614,9.50701 -3.49609,36.50586 -0.68878,15.49744 0.65037,30.12135 0,43.7793 -0.41422,8.6986 -2.79801,18.47327 -3.4961,29.64258 -0.62286,9.96586 0.44218,18.77396 -0.002,26.32421 -0.60341,10.25805 -2.72894,21.25655 -3.50195,33.23829 -0.53422,8.28017 0.3684,15.31908 0,21.02929 -1.0486,16.25319 -1.59336,22.7215 -2.02735,27.29297 -0.2393,0.43352 -0.69624,1.0083 -0.83593,1.27344 -1.2656,2.40211 -1.10849,2.95047 -1.3086,3.96094 -0.80041,4.04187 -1.47509,10.67963 -2.82422,26.86914 -1.0765,12.91811 -0.8407,25.2538 -1.75586,36.8457 -0.74499,9.4366 -2.30132,19.20939 -3.4707,29.44141 -1.20836,10.57316 -2.31174,21.09631 -3.50586,31.54492 -1.08752,9.51576 -2.89894,19.56703 -3.55078,30.32226 -0.61419,10.13431 -0.0176,19.69957 -0.0176,28.64258 v 43.79102 c -0.49181,-1.25609 -1.18814,-2.52995 -2.20508,-3.54688 -1.96865,-1.96866 -3.72457,-2.65023 -4.76953,-3.03515 -0.19327,-0.18326 -0.19092,-0.17139 -0.48828,-0.46875 -1.75241,-1.75241 -3.50537,-3.50537 -5.25781,-5.25782 0.0826,0.0826 -0.65475,-1.05456 -2.82422,-2.68164 -2.91953,-2.18965 -4.64675,-3.01083 -4.74805,-3.09765 v 0.002 c -2.83906,-2.43354 -3.81862,-3.38763 -4.41015,-3.96094 -0.56625,-1.40857 -1.21481,-2.48012 -1.91406,-3.43554 -1.51449,-2.06931 -3.46869,-4.19135 -7.13282,-7.85547 -3.62184,-3.62183 -7.17735,-5.87515 -9.69336,-7.83203 -3.87774,-3.01603 -5.68598,-4.05497 -5.25586,-3.50196 -0.29636,-0.38104 -1.01053,-4.19452 -4.83007,-9.92383 -3.28058,-4.92086 -5.98374,-6.23551 -5.6836,-5.84961 -1.39655,-1.79557 -3.04189,-6.14354 -7.4707,-11.06445 -4.67652,-5.19614 -8.43392,-6.64555 -8.76172,-7.00976 -1.43032,-1.58925 -3.11015,-5.07031 -6.25195,-9.5586 -1.63829,-2.34041 -3.48304,-5.07185 -5.92383,-7.86133 -2.45803,-2.80918 -4.72268,-4.81077 -6.64649,-6.67578 -0.76043,-1.24923 -1.77469,-3.0847 -3.71093,-5.4082 -2.3409,-2.80908 -3.57128,-3.8146 -4.10547,-4.11523 -0.2146,-1.33932 -0.62162,-3.54948 -2.77735,-6.24415 -1.96455,-2.45569 -3.8555,-3.45067 -5.11523,-4.07617 -0.46007,-1.04694 -1.2179,-2.3429 -2.63281,-3.75781 -3.04241,-3.04241 -4.96854,-4.15191 -6,-4.68945 -0.27597,-0.46124 -0.45536,-0.74658 -1.15039,-1.96289 -1.49073,-2.60878 -3.15714,-6.09102 -5.93946,-9.80078 -2.61835,-3.49114 -5.10172,-5.24235 -6.1875,-6.32813 l -5.25586,-5.25781 c -3.35678,-3.35679 -4.47819,-4.4604 -5.43359,-5.40625 -0.0646,-0.0774 -0.21109,-0.40308 -0.27344,-0.49024 -0.31357,-0.43836 -0.60162,-0.8064 -0.95117,-1.24023 -1.39819,-1.73531 -3.8102,-4.51503 -8.75195,-10.00586 -3.08351,-3.42611 -5.643,-5.37824 -6.76172,-6.7207 -3.34825,-4.01791 -6.56132,-8.66105 -10.13281,-13.53125 -2.87305,-3.91779 -5.71835,-8.0092 -8.6875,-12.16602 -2.90044,-4.06059 -5.81001,-8.18029 -8.79297,-12.31055 -23.41422,-32.41968 -4.73923,-5.42453 -26.00977,-38.14843 -3.79507,-5.83857 -7.60447,-10.66185 -10.19336,-15.24219 -4.07354,-7.20704 -7.50332,-15.64683 -12.1582,-24.33594 -0.48264,-0.90093 -0.56367,-1.00365 -1.15625,-2.03906 -0.59258,-1.03541 -1.40701,-2.45665 -2.37695,-4.14844 -1.93988,-3.38357 -4.50069,-7.85164 -7.13086,-12.46094 -5.26035,-9.21859 -11.11646,-19.66845 -11.98633,-21.4082 -3.54736,-7.09472 -6.76819,-14.71736 -10.39063,-22.51953 -4.18497,-9.0138 -8.55347,-17.52626 -12.12695,-25.97266 -2.33043,-5.50829 -4.16199,-12.0368 -6.91211,-19.03711 -4.06814,-10.35525 -8.55866,-20.09165 -12.23437,-29.70507 -3.48144,-9.1053 -6.10158,-19.51892 -10.66211,-30.16016 -3.55203,-8.28806 -6.0834,-13.95617 -7.91992,-17.82031 -0.91827,-1.93208 -1.65446,-3.40318 -2.33204,-4.63477 -0.67757,-1.23159 -0.67715,-1.87007 -2.85351,-4.01562 -0.29981,-0.29557 -0.69795,-0.66098 -1.24219,-1.05664 -1.93744,-5.23336 -2.3954,-6.38733 -6.48437,-17.53907 -7.19103,-19.61187 -7.69019,-21.80151 -8.19532,-24.11914 -0.50512,-2.31763 -1.21456,-5.69893 -7.56836,-23.17187 -2.45966,-6.76409 -5.32607,-12.26447 -6.87695,-17.13867 -1.73277,-5.44585 -2.33598,-12.93022 -5.3789,-21.38282 -3.37898,-9.38603 -8.13125,-16.53201 -10.57813,-22.95507 -2.02766,-5.32261 -2.60978,-7.82942 -2.79297,-8.78321 0.12749,-0.51381 0.19909,-1.56397 -0.084,-3.57226 -0.54907,-3.89535 -2.48651,-5.53419 -3.16797,-6.25782 -0.68146,-0.72362 -1.22291,-1.23698 -2.16992,-2.19531 -1.89402,-1.91665 -5.23007,-5.37307 -11.17969,-12.0664 l -13.90039,-15.63672 -3.4375,20.63672 c -0.44789,2.68731 -0.3613,2.27427 -0.66211,4.11132 -0.64664,1.02221 -0.78854,1.63685 -1.00391,2.20313 -0.32698,0.85977 -0.59778,1.70679 -0.91797,2.77539 -0.64037,2.1372 -1.43599,5.10138 -2.51171,9.4043 -1.47155,5.88615 -1.27475,10.19121 -1.79493,12.44531 -0.0803,0.34786 -0.0952,0.36088 -0.17187,0.68945 -0.22969,0.075 -1.19718,0.3905 -1.19727,0.39063 -8.3e-4,10e-4 -1.02207,1.72923 -1.18164,2.12109 -0.15957,0.39186 -0.23207,0.62005 -0.28906,0.80273 -0.11399,0.36538 -0.15134,0.53707 -0.18555,0.67969 -0.0684,0.28524 -0.0922,0.4144 -0.11718,0.54297 -0.0999,0.51429 -0.15918,0.89145 -0.27149,1.58399 -0.44925,2.77012 -1.4813,9.43561 -3.72851,23.66796 -1.14128,7.22807 -1.66138,10.61291 -1.9004,12.91016 -0.1195,1.14862 -0.60137,1.53031 0.17188,4.79297 0.0695,0.29317 0.39741,0.79154 0.55273,1.17187 0.0344,1.56844 -0.0586,5.51568 -0.66992,13.46289 -0.67579,8.78532 -2.21395,17.92181 -3.45312,27.5254 -4.52275,35.0513 -2.99651,19.67682 -7.03711,58.0625 -1.20454,11.44307 -2.8802,23.25944 -3.54492,35.55664 -0.59481,11.00388 0.49181,20.95992 0.002,29.77734 -0.56321,10.13783 -2.86733,21.15504 -3.50781,33.32422 -0.63961,12.15254 0.55713,23.27421 0.002,33.26758 -0.49043,8.8277 -2.76081,18.62306 -3.49805,29.68164 -0.56413,8.46201 -0.0215,16.29489 -0.0215,23.44531 v 33.29687 26.28711 77.10547 28.03907 12.26757 c 0,0.65643 -0.5137,3.01158 0.13476,6.90235 0.51279,3.07672 1.08717,4.69845 1.4336,5.26172 -0.27284,0.86293 -0.50751,3.34701 0.42187,7.52929 1.27632,5.74344 3.434,8.62179 3.6875,9.4668 0.49604,1.65348 0.81846,4.31492 1.52539,7.84961 0.60265,3.01319 1.17767,5.42915 1.52149,7.53906 -0.13703,1.03117 -0.49776,3.35625 0.75195,6.48047 0.9481,2.37025 1.99202,3.64907 2.76563,4.53711 0.0103,0.5691 0.0234,0.96748 0.0234,2.26367 v 8.76172 28.03906 8.76367 c 0,-0.4486 -0.76882,1.65906 0.29883,5.92969 0.30469,1.21875 0.70052,2.04721 1.07227,2.78516 2.2e-4,4.5e-4 -2.3e-4,0.002 0,0.002 -0.0858,0.88509 0.0199,2.72848 0.57617,5.50977 0.36825,1.84129 0.92883,3.02014 1.44531,3.91015 -0.0266,0.90371 0.0452,2.09668 0.41211,3.56446 0.42613,1.7045 0.9613,2.76449 1.43555,3.56054 0.01,0.37338 0.0176,0.4133 0.0176,1.02344 v 1.75391 h 20 v -1.75391 c 0,0.4486 0.76882,-1.65905 -0.29883,-5.92969 -0.39272,-1.57091 -0.88906,-2.61595 -1.3418,-3.4082 0.0312,-0.90985 -0.0358,-2.10403 -0.41016,-3.60156 -0.30467,-1.2187 -0.69857,-2.04722 -1.07031,-2.78516 3e-5,-3.1e-4 -3e-5,-0.002 0,-0.002 0.0858,-0.88509 -0.0219,-2.73042 -0.57812,-5.51172 -0.39633,-1.98161 -1.00457,-3.17752 -1.54297,-4.06641 -0.009,-0.36727 -0.0156,-0.39547 -0.0156,-0.98047 v -8.76367 -28.03906 -8.76172 c 0,0.35577 1.37578,-2.75742 -0.51172,-8.41992 -0.92237,-2.76714 -2.17014,-4.27466 -3.02734,-5.26953 -0.008,-0.5625 0.0422,-0.98393 -0.0664,-1.74414 -0.52583,-3.68077 -1.33407,-6.75047 -1.8457,-9.3086 -0.46134,-2.30674 -0.76475,-5.62141 -1.98047,-9.67382 -1.55431,-5.18107 -3.23183,-7.66044 -3.32031,-8.0586 0.32332,1.45497 0.93888,-0.63674 0.13672,-6.2539 v -0.002 c -0.74532,-5.21485 -2.02168,-6.89372 -1.78711,-5.48633 0.0723,0.43359 0.13672,-0.76484 0.13672,-3.61328 V 772.82227 744.7832 667.67773 641.39062 608.09375 c 0,-8.03734 -0.46958,-15.42315 -0.0234,-22.11523 0.593,-8.89503 2.89287,-18.76295 3.51172,-29.90235 0.6761,-12.16993 -0.52512,-23.31189 0.002,-33.32617 0.53264,-10.1201 2.82902,-21.1177 3.50391,-33.26563 0.61184,-11.01289 -0.47719,-20.97856 0,-29.80664 0.60276,-11.15088 2.21114,-22.63276 3.46484,-34.54296 4.03747,-38.35589 2.43771,-22.37419 6.98242,-57.59571 1.17157,-9.07961 2.78957,-18.55544 3.5586,-28.55273 0.65319,-8.49154 0.83641,-12.93938 0.74023,-16.03516 -0.0444,-1.43007 -0.0725,-2.56564 -0.61133,-4.42187 0.19465,-1.54276 0.54665,-4.06952 1.5293,-10.29297 1.33825,-8.47556 1.60232,-10.15409 2.21094,-14.0293 0.0333,-0.0626 0.13694,-0.21013 0.16992,-0.26172 0.63799,-0.99778 0.83866,-1.53487 1.04883,-2.04883 0.42034,-1.02791 0.67368,-1.86137 0.99023,-2.95117 0.6331,-2.17959 1.39813,-5.22391 2.45703,-9.8125 1.33741,-5.7954 1.17693,-9.96162 1.70899,-12.08984 0.0394,-0.15758 0.0474,-0.17058 0.0859,-0.32422 0.56647,2.96766 1.53067,6.40839 3.65039,11.97266 3.50798,9.20844 8.16231,16.25684 10.44922,22.60937 1.85187,5.1441 2.48986,12.349 5.13867,20.67383 2.26428,7.11631 5.30019,12.84895 7.14062,17.91016 6.26372,17.22522 6.21022,17.78746 6.82227,20.5957 0.61205,2.80824 1.69243,6.92628 8.95898,26.74414 7.55172,20.5956 10.79266,29.41792 12.15235,32.85351 0.16996,0.42945 0.30938,0.77622 0.47265,1.15235 0.16328,0.37613 -0.57348,-0.14537 1.39453,2.43359 0.24601,0.32237 0.55972,0.73585 1.25391,1.36328 0.45992,0.41569 1.79679,0.99366 2.97266,1.54688 1.06673,2.4207 1.60941,3.5118 2.98047,6.71094 3.73605,8.71745 6.32477,18.85646 10.36523,29.42382 3.99513,10.44882 8.51321,20.24086 12.29883,29.87696 2.24998,5.72724 4.10973,12.43018 7.10742,19.51562 3.96163,9.36385 8.44948,18.07507 12.4082,26.60156 3.42165,7.3697 6.70729,15.17629 10.64063,23.04297 1.96155,3.92311 7.21901,13.11339 12.5039,22.375 2.64245,4.63081 5.21144,9.11268 7.15235,12.49805 0.97045,1.69269 1.78432,3.11098 2.36914,4.13281 0.58481,1.02184 1.22969,2.19465 0.88476,1.55078 3.98046,7.43018 7.45244,16.01982 12.37696,24.73243 3.62923,6.42094 7.74401,11.54397 10.83593,16.30078 21.09681,32.45662 3.2746,6.71419 26.5625,38.95898 2.90122,4.01706 5.7914,8.10719 8.73243,12.22461 2.87228,4.0212 5.76578,8.18061 8.83593,12.36719 3.33736,4.55093 6.76554,9.55068 10.89649,14.50781 3.11216,3.7346 5.92024,5.81069 7.25781,7.29688 4.35706,4.84117 6.20703,7.01105 7.23047,8.24609 0.0559,0.13264 0.11482,0.34141 0.15234,0.4082 0.5252,0.93493 0.73009,1.1232 0.89453,1.33008 0.6578,0.82754 0.61054,0.70324 0.70704,0.80274 0.19299,0.19898 0.29921,0.3007 0.49023,0.49023 0.7641,0.75811 2.54059,2.50934 6.66016,6.62891 l 5.25781,5.25781 c 2.4191,2.4191 3.9725,3.71138 4.32812,4.18555 1.30503,1.74004 2.68513,4.4187 4.57422,7.7246 -0.77263,-1.35211 -0.79205,1.4579 3.36328,5.61329 3.06672,3.0667 5.00743,4.17507 6.02539,4.70312 0.42716,1.09459 1.12999,2.45225 2.73829,4.06055 1.51895,1.51895 2.75992,2.27095 3.77929,2.80078 0.27609,1.17302 0.77597,2.62877 1.98047,4.43555 3.15648,4.73471 5.92182,6.14602 5.89453,6.11328 0.43901,0.52681 1.30496,2.05899 2.86719,4.40234 l 0.54883,0.82422 0.70117,0.69922 c 2.65014,2.65013 4.96276,4.70409 6.55469,6.52344 1.40583,1.60666 2.87829,3.71507 4.58984,6.16015 1.68942,2.41345 3.56407,6.796 7.76953,11.46875 4.67653,5.19614 8.43393,6.64555 8.76172,7.00977 1.20699,1.34109 2.7751,5.11039 6.55078,9.96484 3.34323,4.29844 5.36122,5.46272 4.83008,4.66602 0.52772,0.79157 1.16844,5.30027 5.68359,11.10547 4.01643,5.16397 8.03046,6.44144 8.76368,7.01171 3.38891,2.63582 6.16226,4.5197 7.83007,6.1875 3.12952,3.12952 4.41671,4.67455 4.80079,5.16407 0.12344,0.42055 0.17156,0.86161 0.34375,1.22656 0.85376,1.80955 1.69662,2.70282 2.4707,3.53906 1.54816,1.67249 3.37055,3.27905 6.96875,6.36328 3.09694,2.65452 5.31334,3.57437 5.76367,3.91211 -0.84768,-0.63575 -0.56926,-0.42666 0.68164,0.82422 1.75242,1.75242 3.50535,3.50536 5.25781,5.25781 -0.34036,-0.34036 0.41427,1.09324 3.27735,3.00196 0.1913,0.12753 0.29108,0.14357 0.4707,0.2539 2.12371,3.87511 4.11821,4.61039 3.26172,3.75391 -0.34031,-0.34032 0.41427,1.09323 3.27734,3.00195 1.25165,0.83443 1.97437,1.1956 2.6211,1.51563 0.48186,0.43203 1.06885,0.94433 2.63476,1.98828 0.4883,0.32553 0.79178,0.43019 1.20117,0.65039 0.62672,1.30198 1.67518,2.84086 3.60352,4.28711 2.0623,1.54673 3.76934,2.0759 5.10352,2.40234 0.63515,1.21312 1.44597,2.53583 2.58789,3.67774 1.11525,1.11528 3.99463,3.75084 9.00976,2.82812 5.01513,-0.92272 7.01195,-4.78131 7.61328,-6.35547 1.20268,-3.14832 0.72858,-3.68438 0.69141,-4.51562 -0.0743,-1.66248 0.36026,-1.93365 -1.29883,-5.25195 -0.69815,-1.39629 -1.44676,-2.23295 -2.11914,-2.91602 -0.1371,-0.40632 -0.44418,-0.97611 -0.4707,-1.49805 -0.0471,-0.92766 0.14062,-3.21493 0.14062,-6.88672 v -50.82031 c 0,-9.7496 -0.53613,-18.90952 -0.0195,-27.43359 0.55795,-9.20603 2.27581,-18.90895 3.45899,-29.26172 1.20835,-10.57318 2.31173,-21.09438 3.50586,-31.54297 1.10132,-9.63655 2.70822,-19.64139 3.5371,-30.14062 1.01793,-12.89378 0.78677,-25.19696 1.75,-36.75586 1.00819,-12.09828 1.47178,-15.29972 1.89844,-18.62305 1.85156,-1.85949 1.58,-2.85881 1.79297,-3.50586 0.26918,-0.81783 0.35799,-1.29125 0.44922,-1.76563 0.18247,-0.94874 0.2919,-1.81195 0.42383,-2.9746 0.52772,-4.65063 1.22654,-13.79758 2.45898,-32.9004 0.5342,-8.28016 -0.3684,-15.31909 0,-21.02929 0.66401,-10.29208 2.80055,-21.32995 3.50781,-33.35352 0.58493,-9.94383 -0.47222,-18.72566 -0.002,-26.25 0.54936,-8.78964 2.97669,-18.66279 3.51367,-29.93945 0.73887,-15.51621 -0.60609,-30.16082 0.002,-43.8418 1.18769,-26.72297 1.93253,-29.54058 2.25781,-30.41406 0.16264,-0.43674 1.27981,-2.94676 2.08008,-6.79102 0.80026,-3.84425 1.60184,-9.53217 2.63281,-20.09961 1.63237,-16.73179 2.21046,-33.18846 3.51953,-49.2246 0.98794,-12.10229 2.31537,-24.30939 3.49219,-36.66602 1.18687,-12.46214 1.99285,-24.67134 3.47265,-36.50977 0.63079,-5.04628 2.94282,-11.49073 3.55665,-19.77734 0.80095,-10.81299 -0.60454,-20.20352 -0.004,-28.01172 0.28402,-3.69222 2.68422,-9.27569 3.48633,-17.29687 0.71326,-7.1326 0.0488,-13.34146 0.0488,-18.51953 v -7.00782 -4.33984 c 0.33535,-0.66942 0.71506,-1.44404 1.23828,-3.01367 h 0.002 c 1.51801,-4.55411 0.51172,-6.43805 0.51172,-4.91407 v -1.75195 -12.26758 z M 256.38086,310.90625 c 0.0116,-0.0643 0.97027,0.22172 2.38867,0.99219 -0.84136,-0.42733 -1.63871,-0.74823 -2.05859,-0.85547 -0.22784,-0.0582 -0.33449,-0.11225 -0.33008,-0.13672 z m 2.59961,1.08984 c 0.11774,0.067 0.13439,0.0457 0.25976,0.1211 0.26205,0.15768 0.47837,0.39629 0.72266,0.58984 -0.34305,-0.22421 -0.64303,-0.53009 -0.98242,-0.71094 z m 69.46875,106.46875 c 0.0467,0.16271 0.1446,0.50231 0.17578,0.61328 -0.0717,-0.072 -0.13057,-0.23637 -0.17578,-0.61328 z M 682.4082,662.64062 c -0.002,-0.007 0.0486,0.27062 0.10547,0.59571 -0.15134,-0.457 -0.10443,-0.59075 -0.10547,-0.59571 z m -165.84179,60.18946 c 0.13548,0.0126 0.1938,0.0447 0.3164,0.0625 -0.74528,0.11987 -2.30546,0.37118 -4.29492,0.6914 0.4025,-0.15239 0.85997,-0.51348 1.21875,-0.58203 1.15734,-0.22111 2.05049,-0.23786 2.75977,-0.17187 z m 3.72656,1.07812 c 0.6471,0.32594 0.83037,0.55532 0.97265,0.65625 0.10221,0.0505 0.46707,0.26988 -0.58398,-0.43164 -0.0656,-0.0438 -0.29741,-0.16507 -0.38867,-0.22461 z m -11.26758,1.73242 c -0.92346,2.21294 -3.39329,8.12885 -3.57812,8.57227 -0.22948,-1.21174 -0.0907,-2.98057 1.24804,-5.75 0.5053,-1.04532 1.3733,-1.98284 2.33008,-2.82227 z m 48.02344,40.3125 c 0.22759,0.46779 0.21533,0.64466 0.10742,0.3086 -0.0151,-0.0472 -0.0892,-0.24302 -0.10742,-0.3086 z m -18.93555,6.42188 c 0.0149,0.0465 0.0875,0.24024 0.10547,0.30469 -0.22599,-0.46551 -0.21315,-0.64006 -0.10547,-0.30469 z m 146.86524,128.19531 c -0.17755,-0.13012 0.0821,-0.0273 0.5332,0.40625 -0.15505,-0.10308 -0.4711,-0.36074 -0.5332,-0.40625 z m -24.32422,4.76758 c 0.0149,0.0516 0.0992,0.2648 0.11718,0.33398 -0.26533,-0.56855 -0.24967,-0.79125 -0.11718,-0.33398 z m 11.97265,10.96094 c 0.15354,0.102 0.4676,0.35908 0.5293,0.40429 0.17739,0.13001 -0.0789,0.0282 -0.5293,-0.40429 z"
         id="path411" />
    </g>
  </g>
</svg>
