<?xml version="1.0" encoding="UTF-8" standalone="no"?>
<!-- Created with Inkscape (http://www.inkscape.org/) -->

<svg
   width="1000"
   height="1000"
   viewBox="0 0 1000 1000"
   version="1.1"
   id="svg1"
   xmlns:xlink="http://www.w3.org/1999/xlink"
   xmlns="http://www.w3.org/2000/svg"
   xmlns:svg="http://www.w3.org/2000/svg">
  <defs
     id="defs1">
    <pattern
       xlink:href="#pattern359"
       preserveAspectRatio="xMidYMid"
       id="pattern372"
       patternTransform="matrix(0.5,0,0,0.5,147.15462,1548.2922)" />
    <pattern
       xlink:href="#pattern357"
       preserveAspectRatio="xMidYMid"
       id="pattern371"
       patternTransform="matrix(0.5,0,0,0.5,221.32076,1552.4298)" />
    <pattern
       xlink:href="#pattern358"
       preserveAspectRatio="xMidYMid"
       id="pattern370"
       patternTransform="matrix(0.5,0,0,0.5,230.96346,1527.8214)" />
    <pattern
       xlink:href="#pattern355"
       preserveAspectRatio="xMidYMid"
       id="pattern369"
       patternTransform="matrix(0.5,0,0,0.5,287.08178,1553.6581)" />
    <pattern
       xlink:href="#pattern354"
       preserveAspectRatio="xMidYMid"
       id="pattern368"
       patternTransform="matrix(0.5,0,0,0.5,230.97274,1529.1717)" />
    <pattern
       xlink:href="#pattern342"
       preserveAspectRatio="xMidYMid"
       id="pattern360"
       patternTransform="matrix(0.5,0,0,0.5,210.45332,1525.5392)" />
    <pattern
       xlink:href="#pattern342"
       preserveAspectRatio="xMidYMid"
       id="pattern359"
       patternTransform="matrix(0.5,0,0,0.5,152.11125,1550.7705)" />
    <pattern
       xlink:href="#pattern342"
       preserveAspectRatio="xMidYMid"
       id="pattern358"
       patternTransform="matrix(0.5,0,0,0.5,202.11125,1533.2444)" />
    <pattern
       xlink:href="#pattern342"
       preserveAspectRatio="xMidYMid"
       id="pattern357"
       patternTransform="matrix(0.5,0,0,0.5,211.4075,1546.234)" />
    <pattern
       xlink:href="#pattern342"
       preserveAspectRatio="xMidYMid"
       id="pattern356"
       patternTransform="matrix(0.5,0,0,0.5,232.14929,1573.2544)" />
    <pattern
       xlink:href="#pattern342"
       preserveAspectRatio="xMidYMid"
       id="pattern355"
       patternTransform="matrix(0.5,0,0,0.5,275,1552.7287)" />
    <pattern
       xlink:href="#pattern342"
       preserveAspectRatio="xMidYMid"
       id="pattern354"
       patternTransform="matrix(0.5,0,0,0.5,235,1529.7913)" />
    <pattern
       xlink:href="#shading24"
       preserveAspectRatio="xMidYMid"
       id="pattern342"
       patternTransform="matrix(0.5,0,0,0.5,213.95332,1537.5392)"
       x="0"
       y="0" />
    <pattern
       patternUnits="userSpaceOnUse"
       width="338.5925"
       height="42.989567"
       patternTransform="translate(213.95332,1537.5392) scale(0.5)"
       preserveAspectRatio="xMidYMid"
       id="shading24"
       style="fill:#000000">
      <path
         style="fill-rule:nonzero;stroke:none;stroke-width:0.1;stroke-linecap:square;paint-order:markers fill stroke;stop-color:#000000"
         d="m 1806.4991,-758.06464 v 18.86792 c 55.9187,0 121.0493,0.59523 193.5686,3.15628 72.9408,2.57593 146.0589,6.87694 222.9288,13.47675 119.09,10.22471 223.0762,23.76065 340.6056,39.2177 117.5025,15.4535 222.0471,29.0563 341.8507,39.3312 77.366,6.63525 151.0001,10.96128 224.4674,13.55245 73.0344,2.5759 138.631,3.17493 194.9247,3.17493 -55.9642,0 -122.2215,-1.36594 -194.8324,-5.25394 -73.2143,-3.92032 -146.9676,-10.0663 -223.8166,-18.88656 -118.8791,-13.6442 -223.3242,-31.02113 -339.8009,-50.57815 -116.4705,-19.55598 -221.1862,-36.99475 -340.3724,-50.69165 -77.0605,-8.8558 -150.9942,-15.0266 -224.3694,-18.96225 -72.7637,-3.90286 -139.1256,-5.27261 -195.1541,-5.27261 z m 0,37.81515 v 18.86793 c 55.9187,0 121.0493,0.59523 193.5686,3.15627 72.9408,2.57593 146.0589,6.87694 222.9288,13.47676 119.09,10.22471 223.0762,23.76065 340.6056,39.2177 117.5025,15.4535 222.0471,29.0563 341.8507,39.33119 77.366,6.63526 151.0001,10.96128 224.4674,13.55245 73.0344,2.5759 138.631,3.17493 194.9247,3.17493 -55.9642,0 -122.2215,-1.36594 -194.8324,-5.25394 -73.2143,-3.92031 -146.9676,-10.0663 -223.8166,-18.88656 -118.8791,-13.6442 -223.3242,-31.02112 -339.8009,-50.57815 -116.4705,-19.55598 -221.1862,-36.99475 -340.3724,-50.69165 -77.0605,-8.8558 -150.9942,-15.02659 -224.3694,-18.96225 -72.7637,-3.90286 -139.1256,-5.2726 -195.1541,-5.2726 z m 0,37.81516 v 18.86792 c 55.9187,0 121.0493,0.59523 193.5686,3.15628 72.9408,2.57593 146.0589,6.87694 222.9288,13.47675 119.09,10.22471 223.0762,23.76065 340.6056,39.2177 117.5025,15.4535 222.0471,29.0563 341.8507,39.3312 77.366,6.63525 151.0001,10.96128 224.4674,13.55245 73.0344,2.5759 138.631,3.17493 194.9247,3.17493 -55.9642,0 -122.2215,-1.36594 -194.8324,-5.25394 -73.2143,-3.92032 -146.9676,-10.0663 -223.8166,-18.88656 -118.8791,-13.6442 -223.3242,-31.02113 -339.8009,-50.57815 -116.4705,-19.55598 -221.1862,-36.99475 -340.3724,-50.69165 -77.0605,-8.8558 -150.9942,-15.0266 -224.3694,-18.96225 -72.7637,-3.90286 -139.1256,-5.27261 -195.1541,-5.27261 z m 0,37.81515 v 18.86793 c 55.9187,0 121.0493,0.59523 193.5686,3.15627 72.9408,2.57593 146.0589,6.87694 222.9288,13.47676 119.09,10.22471 223.0762,23.76065 340.6056,39.2177 117.5025,15.4535 222.0471,29.0563 341.8507,39.33119 77.366,6.63526 151.0001,10.96128 224.4674,13.55245 73.0344,2.5759 138.631,3.17494 194.9247,3.17494 -55.9642,0 -122.2215,-1.36595 -194.8324,-5.25395 -73.2143,-3.92031 -146.9676,-10.0663 -223.8166,-18.88656 -118.8791,-13.6442 -223.3242,-31.02112 -339.8009,-50.57815 -116.4705,-19.55598 -221.1862,-36.99475 -340.3724,-50.69165 -77.0605,-8.8558 -150.9942,-15.02659 -224.3694,-18.96225 -72.7637,-3.90286 -139.1256,-5.2726 -195.1541,-5.2726 z m 0,37.81516 v 18.86792 c 55.9187,0 121.0493,0.59523 193.5686,3.15628 72.9408,2.57593 146.0589,6.87694 222.9288,13.47675 119.09,10.22471 223.0762,23.76065 340.6056,39.2177 117.5025,15.4535 222.0471,29.0563 341.8507,39.3312 77.366,6.63525 151.0001,10.96128 224.4674,13.55245 73.0344,2.5759 138.631,3.17493 194.9247,3.17493 -55.9642,0 -122.2215,-1.36594 -194.8324,-5.25394 -73.2143,-3.92032 -146.9676,-10.0663 -223.8166,-18.88656 -118.8791,-13.6442 -223.3242,-31.02113 -339.8009,-50.57815 -116.4705,-19.55598 -221.1862,-36.99475 -340.3724,-50.69165 -77.0605,-8.8558 -150.9942,-15.0266 -224.3694,-18.96225 -72.7637,-3.90286 -139.1256,-5.27261 -195.1541,-5.27261 z m 0,37.81515 v 18.86793 c 55.9187,0 121.0493,0.59523 193.5686,3.15627 72.9408,2.57593 146.0589,6.87694 222.9288,13.47676 119.09,10.22471 223.0762,23.76065 340.6056,39.2177 117.5025,15.4535 222.0471,29.0563 341.8507,39.33119 77.366,6.63526 151.0001,10.96128 224.4674,13.55245 73.0344,2.5759 138.631,3.17494 194.9247,3.17494 -55.9642,0 -122.2215,-1.36595 -194.8324,-5.25395 -73.2143,-3.92031 -146.9676,-10.0663 -223.8166,-18.88656 -118.8791,-13.6442 -223.3242,-31.02112 -339.8009,-50.57815 -116.4705,-19.55598 -221.1862,-36.99475 -340.3724,-50.69165 -77.0605,-8.8558 -150.9942,-15.02659 -224.3694,-18.96225 -72.7637,-3.90286 -139.1256,-5.2726 -195.1541,-5.2726 z m 0,37.81516 v 18.86792 c 55.9187,0 121.0493,0.59523 193.5686,3.15628 72.9408,2.57593 146.0589,6.87694 222.9288,13.47675 119.09,10.22471 223.0762,23.76065 340.6056,39.2177 117.5025,15.4535 222.0471,29.0563 341.8507,39.3312 77.366,6.63525 151.0001,10.96128 224.4674,13.55245 73.0344,2.5759 138.631,3.17493 194.9247,3.17493 -55.9642,0 -122.2215,-1.36594 -194.8324,-5.25394 -73.2143,-3.92032 -146.9676,-10.0663 -223.8166,-18.88656 -118.8791,-13.6442 -223.3242,-31.02113 -339.8009,-50.57815 -116.4705,-19.55598 -221.1862,-36.99475 -340.3724,-50.69165 -77.0605,-8.8558 -150.9942,-15.0266 -224.3694,-18.96225 -72.7637,-3.90286 -139.1256,-5.27261 -195.1541,-5.27261 z"
         id="use26"
         transform="matrix(0.22300099,0,0,0.37823052,-402.85121,237.25945)" />
    </pattern>
    <clipPath
       clipPathUnits="userSpaceOnUse"
       id="clipPath54">
      <path
         id="path336"
         style="stroke-width:0.0999999;stroke-linecap:square;paint-order:markers fill stroke;stop-color:#000000"
         d="m 1691.1994,-792.32001 h 1634.8919 v 92.82806 H 1691.1994 Z" />
    </clipPath>
    <clipPath
       clipPathUnits="userSpaceOnUse"
       id="clipPath33">
      <rect
         style="fill:#000000;stroke:none;stroke-width:0.999995;stroke-linecap:butt;stroke-linejoin:bevel;paint-order:stroke markers fill;stop-color:#000000"
         id="rect33"
         width="46.19186"
         height="80.006783"
         x="74.999985"
         y="399.99661" />
    </clipPath>
    <clipPath
       clipPathUnits="userSpaceOnUse"
       id="clipPath27">
      <rect
         style="fill:none;stroke:#000000;stroke-width:0.999999;stroke-linecap:butt;stroke-linejoin:bevel;paint-order:stroke markers fill;stop-color:#000000"
         id="rect28-6"
         width="46.160622"
         height="39.922417"
         x="86.574379"
         y="420.06253" />
    </clipPath>
    <clipPath
       clipPathUnits="userSpaceOnUse"
       id="clipPath25">
      <rect
         style="fill:#ff0000;stroke:none;stroke-width:3;stroke-linecap:square;stroke-linejoin:miter;paint-order:stroke markers fill;stop-color:#000000"
         id="rect25-8"
         width="78"
         height="45.033199"
         x="763.61322"
         y="452.82422" />
    </clipPath>
    <clipPath
       clipPathUnits="userSpaceOnUse"
       id="clipPath15">
      <rect
         style="fill:none;stroke:#000000;stroke-linecap:butt;stroke-linejoin:bevel;paint-order:stroke markers fill;stop-color:#000000"
         id="rect15-7"
         width="45.034248"
         height="38.955639"
         x="262.48285"
         y="121.00073" />
    </clipPath>
    <linearGradient
       id="swatch75">
      <stop
         style="stop-color:#000000;stop-opacity:1;"
         offset="0"
         id="stop75" />
    </linearGradient>
  </defs>
  <g
     id="layer51"
     style="display:inline">
    <g
       id="layer58"
       style="display:inline">
      <path
         style="baseline-shift:baseline;display:inline;overflow:visible;opacity:1;vector-effect:none;fill-rule:evenodd;enable-background:accumulate;stop-color:#000000;stop-opacity:1"
         d="m 456.89453,182.51953 c -1.74306,-0.0711 -3.88857,-0.0355 -6.41016,0.38477 -4.84638,0.80772 -10.22415,2.68985 -16.04296,4.62695 -5.81882,1.9371 -11.75887,3.98813 -13.17383,4.4043 -3.8334,1.12747 -8.61044,1.91494 -14.01953,3.50586 -6.16728,1.81391 -11.13678,4.02589 -15.39649,5.14648 -8.06092,1.72734 -16.12268,3.45626 -24.18359,5.18359 l -1.86524,0.39844 -1.58593,1.0586 c -4.88436,3.25623 -7.42536,5.59643 -8.27149,5.89257 -5.78911,2.0262 -14.26641,2.12312 -24.14258,5.12891 -7.49206,2.28019 -11.53133,3.61317 -14.47265,4.86328 -1.47066,0.62506 -2.69515,1.07688 -4.54688,2.64844 -0.69513,0.58996 -1.40632,1.70353 -2.05468,2.92773 -0.92307,0.51095 -2.32795,1.27811 -4.48633,2.20313 -3.35287,1.43694 -9.15629,2.13662 -16.0918,5.40039 -6.65242,3.13056 -11.0814,7.04623 -14.72266,9.12695 -0.74619,0.4264 -0.90986,0.51156 -1.58203,0.89453 -2.25012,-0.055 -2.81896,0.33057 -3.34179,0.50196 -2.44495,0.80144 -3.30391,1.38398 -5.97071,2.75781 -2.66679,1.37383 -6.42259,3.37699 -11.71484,6.26367 -2.6135,1.42554 -2.81699,1.86708 -4.41992,3.08789 -1.60293,1.22081 -3.49672,2.70164 -5.34766,4.16406 -1.85094,1.46243 -3.65254,2.90237 -5.03711,4.01563 -0.69228,0.55663 -1.27847,1.02949 -1.72265,1.39062 -0.44419,0.36114 -0.32293,0.22367 -1.09961,0.91407 -3.73026,3.31577 -5.24865,5.42704 -5.67969,5.89062 -0.25495,0.0818 -0.70391,0.23979 -1.54492,0.44141 -1.86262,0.44653 -5.53926,1.15056 -8.97461,4.58593 -3.29107,3.29106 -4.69513,6.72985 -5.72071,9.06641 -1.02557,2.33657 -1.72593,3.65701 -1.95703,3.93945 0.0558,-0.0682 -3.55237,1.25879 -8.42187,6.61524 -4.4879,4.93669 -7.01741,9.79328 -9.42774,13.08008 -3.48337,4.6445 -6.96583,9.28909 -10.44922,13.93359 l -0.31054,0.41211 -0.26563,0.44141 c -2.05517,3.42528 -3.45833,6.22249 -4.76953,8.02539 -2.01595,2.77192 -5.11989,5.91204 -8.3789,10.02929 -7.67444,7.03526 -10.89495,15.08519 -14.31446,19.64453 -1.5302,2.04027 -4.57915,4.80516 -7.49023,9.4629 -1.66344,2.66148 -1.97322,4.79554 -2.1875,5.77343 -0.0242,0.11028 -0.0198,0.0663 -0.041,0.14844 -0.57646,0.76186 -2.40464,2.54118 -4.78125,6.34375 -2.25017,3.60027 -3.09181,6.27299 -3.70703,7.34961 -1.98397,3.47196 -6.26926,7.52566 -9.36523,15.26562 -2.17647,5.44117 -1.89357,9.03293 -2.11524,9.84571 -0.61098,2.24027 -2.40163,5.70523 -3.59961,10.89648 -1.51989,6.5862 -1.12989,10.36976 -1.34375,10.92578 0.13644,-0.35474 -0.34143,0.50877 -1.84765,2.24024 -1.50623,1.73146 -4.10875,4.44605 -5.44336,9.11719 -1.32261,4.62915 -0.74439,8.38354 -0.45508,10.87695 0.28931,2.49341 0.28642,3.82571 0.26562,3.92969 -0.18018,0.90091 -2.95401,4.29717 -5.04492,11.40625 -1.04523,3.55377 -1.79862,8.04347 -2.77343,13.29492 -0.97482,5.25145 -2.00163,10.82085 -2.63477,13.56445 -0.87427,3.7885 -2.767844,8.6073 -3.660157,14.85352 -0.840314,5.88211 0.05421,9.65215 -0.06641,11.09961 -0.32997,3.95963 -0.612325,6.13169 -0.75586,6.89843 -0.143534,0.76675 0.328086,-0.58599 0.28711,-0.51562 -0.04098,0.0704 -1.191063,1.93342 -2.019531,4.10156 -0.828469,2.16814 -1.607724,4.891 -2.566407,9.20508 -1.007626,4.53426 -0.236328,7.11957 -0.236328,7.42578 v 7.00977 22.7832 12.26562 c 0,-1.30763 -1.558113,1.53634 0.714844,7.21875 0.835375,2.08844 1.728114,3.29371 2.488281,4.19141 -0.09106,0.96129 -0.01969,2.83674 0.400391,5.77734 0.598551,4.18981 1.958983,6.38282 2.166015,7.00391 0.845642,2.53693 1.395672,3.86699 1.433602,4.05664 3.2e-4,0.002 -3.2e-4,3.6e-4 0,0.002 -0.22034,0.87742 -0.52367,1.81575 -0.4961,2.48047 0.0868,2.09361 0.51014,2.99584 0.80664,3.79492 0.59301,1.59817 1.2,2.79061 2.30274,4.9961 2.0513,4.10257 3.67334,5.59277 3.50586,5.25781 -0.1912,-0.3824 0.0843,1.17849 1.41211,4.49805 1.10194,2.75484 1.88368,3.83518 1.75195,3.50586 0.39525,0.98814 0.84282,2.58121 1.55078,4.70508 0.58416,1.75248 1.16782,3.50541 1.75195,5.25781 0.40908,1.22721 0.88307,3.31762 2.04688,6.0332 1.01351,2.36484 2.22519,5.38955 4.37695,8.61719 0.93611,1.40417 1.84863,2.34002 2.58789,2.97461 0.002,1.07884 0.22044,3.06363 1.50196,6.9082 2.1815,6.54449 5.82286,11.12004 8.17773,14.65234 0.96315,1.44473 2.11675,3.43432 3.82422,5.71094 0.56024,0.74699 1.00114,1.15711 1.42383,1.56055 0.003,0.005 0.10051,0.2315 0.0957,0.20898 -0.0521,0.97196 -0.13064,2.60795 0.20703,4.4668 0.38935,2.14332 1.09281,4.36484 2.24609,7.24805 2.05351,5.13376 4.76054,8.18292 5.9668,10.19336 1.89327,3.15545 3.68582,5.89666 5.05469,8.40625 1.25193,2.2952 2.49258,6.44005 5.71484,11.27343 3.55045,5.32567 6.05881,6.45737 5.25782,5.25586 1.25626,1.88441 2.51057,5.19694 4.63281,9.44141 0.58356,1.16713 1.3474,4.54962 4.55664,8.67578 3.7906,4.87363 7.50807,7.38481 9.18164,9.26758 1.12732,1.26824 2.56106,3.57655 4.83789,6.50391 2.46454,3.16869 4.8816,6.02746 7.00977,8.76367 1.34137,1.72463 2.96408,4.41403 5.625,7.45508 4.43876,5.07286 6.61182,7.17094 8.77148,8.60351 2.15966,1.43257 1.98339,0.99944 6.26562,4.66992 -0.0395,-0.0339 1.39464,2.97758 6.46485,6.14649 4.54987,2.84366 8.43744,3.59421 10.55078,4.38672 2.19172,0.8219 4.08716,1.37084 5.60547,1.87695 1.75241,0.58413 3.50536,1.16781 5.25781,1.75195 2.1238,0.70793 3.71691,1.15552 4.70508,1.55078 -1.65207,-0.66083 -0.10863,1.38455 5.57617,2.33203 4.37144,0.72858 6.68216,0.51444 6.94531,0.21094 0.36869,0.41849 2.73473,2.18633 8.68164,3.26758 5.79501,1.05364 9.99045,0.16211 12.30274,0.16211 h 12.26758 c 4.53246,0 8.40653,-0.23643 11.60156,-0.0234 6.02437,0.40163 7.81191,0.64368 9.18359,0.80664 0.10597,0.0691 0.26137,0.23856 0.35742,0.29688 2.69282,1.63484 3.74976,1.57388 5.42383,1.91015 3.34815,0.67255 8.34029,1.29608 18.04883,2.22071 7.67428,0.73088 13.58072,-0.35843 17.56641,0.004 12.67219,1.15202 26.42184,5.58825 42.05859,7.00977 7.50972,0.6827 13.45046,-0.30047 17.69141,0.0137 9.11085,0.67488 18.95863,2.70346 29.79101,3.50586 6.80776,0.50428 12.91472,0.0273 18.26367,0.0273 h 31.54297 c 19.16618,0 22.47665,0.53817 45.59961,-3.66601 2.84037,-0.51642 3.98459,-1.07548 6.46094,-1.92774 2.47635,-0.85225 5.3875,-1.90335 8.23047,-2.94921 2.84297,-1.04586 5.60807,-2.08412 7.74219,-2.89258 2.13411,-0.80847 3.00769,-1.12219 4.1582,-1.60157 4.12321,-1.718 5.86315,-2.99052 5.91602,-3.07617 0.40542,-0.067 0.93541,-0.1518 1.60937,-0.25781 1.49186,-0.23466 3.47275,-0.54471 5.53906,-0.89453 2.06632,-0.34982 4.2054,-0.73559 6.16992,-1.16797 1.96453,-0.43237 2.94072,-0.17539 6.41407,-2.16016 3.36039,-1.92022 4.81151,-4.19815 5.58789,-5.20507 0.12815,-0.16621 0.10282,-0.118 0.1914,-0.21875 1.01833,0.13435 1.93,0.1696 2.4668,0.11132 1.63333,-0.17731 2.24284,-0.48522 2.76367,-0.6914 1.04167,-0.41237 1.45279,-0.67537 1.94532,-0.95899 0.98504,-0.56722 1.96015,-1.20064 3.40234,-2.16211 3.04556,-2.03038 5.42215,-4.04757 7.46289,-5.57812 3.48419,-2.61315 5.1014,-4.13096 5.14844,-4.15234 0.77248,-0.35113 5.75167,0.0278 12.86914,-3.80469 6.35846,-3.42378 9.6924,-7.81529 12.17578,-9.88477 3.84235,-3.20195 7.01497,-6.19075 9.99414,-8.35742 3.39687,-2.47045 4.16969,-2.83558 4.51562,-3.07812 1.89521,-0.20082 3.02225,-0.70676 3.77149,-1.08204 1.65669,-0.8298 2.34877,-1.42706 3.47461,-2.29687 2.25167,-1.73963 5.57147,-4.54319 11.6875,-9.84375 5.08784,-4.40945 9.03592,-9.00076 12.78906,-12.75391 1.75187,-1.75187 4.78798,-4.02762 7.83203,-7.9414 3.54678,-4.56016 4.6386,-7.95655 5.29102,-8.80469 l 0.81836,-1.06445 0.50781,-1.24024 c 1.76154,-4.29954 8.53924,-7.60331 16.01172,-16.73633 3.75181,-4.58554 7.65844,-9.45871 11.18555,-14.94531 3.02213,-4.70108 4.32003,-8.74038 5.625,-11.13281 1.36885,-2.50957 3.15946,-5.25081 5.05273,-8.40625 0.50841,-0.84735 2.57942,-4.16933 4.57031,-7.57422 1.9909,-3.40489 3.81372,-5.86339 5.19531,-10.46875 1.6967,-5.65564 1.4627,-9.43744 1.82227,-10.75586 0.32506,-1.19189 1.86066,-3.78315 3.34375,-8.23242 2.37768,-7.13306 5.83766,-21.00292 7.26758,-27.19922 0.80197,-3.47521 1.2144,-6.43234 1.75195,-8.76172 0.86032,-3.72803 2.82357,-8.5703 3.67383,-14.94726 0.83167,-6.23751 -0.0898,-10.60989 0.0644,-12.92383 0.23645,-3.54659 1.36379,-8.16793 1.75391,-14.01953 0.33098,-4.96489 0.0215,-9.28608 0.0215,-12.93164 v -24.53516 -22.78125 c 0,-2.31715 0.33271,-5.55706 -0.041,-9.66797 -0.46099,-5.07081 -1.58291,-8.48121 -1.7461,-10.43945 -0.09,-1.08019 1.14738,-5.10686 -0.16015,-11.64453 -0.79326,-3.96628 -2.60046,-6.10896 -3.33203,-7.17969 -0.0859,-0.12572 -0.042,-0.0757 -0.0996,-0.16992 -0.16687,-2.17764 0.51221,-6.19373 0.0996,-12.38282 -0.37036,-5.55532 -1.54801,-9.61635 -1.75977,-12.36914 -0.0986,-1.28115 1.01145,-5.2437 -0.13281,-11.53711 -1.15858,-6.37218 -3.60493,-9.28813 -3.72852,-9.7207 l -0.64648,-2.26562 -1.5918,-1.73829 c -1.41468,-1.54552 -1.37332,-2.00313 -1.14844,-5.52343 0.22489,-3.52031 1.66945,-9.07628 0.0117,-16.25977 -1.58728,-6.87825 -4.67654,-11.03168 -5.66797,-13.60937 -0.99038,-2.57501 -1.91545,-5.69511 -2.99414,-9.00782 -0.32191,-2.9577 -0.16832,-7.52257 -2.10937,-13.3457 -2.24603,-6.73807 -5.47496,-9.36407 -5.60742,-9.66211 0.26114,0.58758 0.25481,-1.70658 -1.52735,-6.45898 -1.54448,-4.11861 -3.23041,-6.39832 -3.67578,-7.4375 -1.05593,-2.46384 -0.99565,-2.50622 -1.23242,-3.76172 -0.23677,-1.2555 -0.70186,-3.90441 -1.97656,-7.72852 -1.00933,-3.02794 -2.13239,-4.48938 -2.29492,-4.81445 -0.83174,-1.66349 -1.33823,-2.56138 -1.41211,-2.74609 -0.0443,-0.11066 -0.25036,-2.32881 -2.09375,-6.01563 -2.05132,-4.1026 -3.67142,-5.59283 -3.50391,-5.25781 0.1912,0.3824 -0.0843,-1.18044 -1.41211,-4.5 -0.89633,-2.24083 -1.75718,-3.58859 -2.09375,-4.26172 -1.34337,-2.68677 -2.53719,-4.7951 -3.25781,-6.47656 -0.29148,-0.68012 -0.6978,-2.20279 -1.45703,-4.48047 0.14466,0.43399 0.60373,-3.30001 -3.42969,-8.3418 -2.05213,-2.56517 -4.06255,-3.57254 -5.30274,-4.18164 -0.21426,-0.38113 -0.23258,-0.37533 -0.57226,-1.05469 -0.83173,-1.66345 -1.33824,-2.56142 -1.41211,-2.74609 0.39382,0.98455 0.82609,-2.39206 -3.03711,-7.54297 -1.41823,-1.89098 -2.94534,-2.95206 -4.23242,-3.58398 -0.0451,-0.0886 -0.0328,-0.0519 -0.0801,-0.14649 -0.21436,-0.42873 -0.73506,-2.11529 -2.37695,-4.57812 -2.63393,-3.95089 -3.4694,-4.33008 -1.75196,-1.75391 -0.48487,-0.72731 -0.35038,-0.50635 -0.50586,-0.77344 -0.024,-0.0974 -0.03,-0.21132 -0.0527,-0.28125 -0.20063,-0.61756 -0.40376,-1.06489 -0.58398,-1.42187 -0.72088,-1.42792 -1.07551,-1.69856 -1.31446,-1.98047 -0.47789,-0.56381 -0.57078,-0.62243 -0.67968,-0.73047 -0.31665,-0.31412 -0.72034,-0.709 -1.17579,-1.1582 -0.0612,-0.072 -0.20885,-0.23837 -0.51953,-0.625 -0.7051,-0.87749 -2.36372,-2.90508 -5.58398,-3.97852 -1.10154,-0.36717 -1.83634,-0.34008 -2.68164,-0.41992 -0.0904,-0.063 -0.0939,-0.10231 -0.18946,-0.16602 -2.46281,-1.64186 -4.15138,-2.1626 -4.58007,-2.37695 -1.16829,-0.58414 -2.33761,-1.16782 -3.50586,-1.75195 -1.16826,-0.58413 -2.33558,-1.16779 -3.50391,-1.75195 -0.67313,-0.33657 -2.02285,-1.19742 -4.26367,-2.09375 -4.79353,-1.91741 -5.57495,-1.63591 -6.92969,-2.53907 -1.50712,-1.00475 -3.65453,-3.0223 -7.00781,-5.25781 -2.46283,-1.64189 -4.15135,-2.16259 -4.58008,-2.37695 -0.32506,-0.16254 -1.78651,-1.28559 -4.81445,-2.29492 -0.11632,-0.0388 -0.19562,-0.0376 -0.3086,-0.0723 -0.8377,-0.61948 -1.82574,-1.22251 -3.19726,-1.67969 -1.09871,-0.36624 -1.83195,-0.33973 -2.67578,-0.41992 -0.40973,-0.2659 -0.75544,-0.53299 -1.27149,-0.79102 -2.92788,-1.46394 -5.4133,-1.20212 -6.4082,-1.09375 -0.9949,0.10838 -1.01504,0.0391 0.18359,0.0391 h -5.25781 v 17.0625 c 0.0227,0.0357 0.0852,0.10426 0.11133,0.14453 -0.0202,-0.0215 -0.0926,-0.0594 -0.11133,-0.0801 v 2.87305 h 2.95899 c 0.7263,0.45921 1.59693,0.89038 2.64062,1.23828 1.09949,0.36649 1.8335,0.33984 2.67773,0.41992 0.40908,0.26544 0.75451,0.53343 1.26954,0.79102 1.61116,0.80559 2.98062,1.05606 4.13476,1.13476 0.35949,0.19729 0.0945,0.10292 1.12305,0.61719 1.90785,0.95392 2.7189,1.32171 2.42969,1.12891 1.5071,1.00473 3.6565,3.0223 7.00976,5.25781 4.80991,3.2066 8.26462,3.53631 10.5957,4.46875 0.18472,0.0739 1.08265,0.58038 2.7461,1.41211 1.16825,0.58412 2.33756,1.1678 3.50586,1.75195 1.16833,0.58417 2.33561,1.16781 3.5039,1.75195 1.33639,0.6682 1.44411,0.68928 1.70313,0.79102 0.84891,1.03207 2.16077,2.35631 4.86523,3.25781 0.81674,0.27225 1.31065,0.20678 1.98828,0.31055 0.47597,0.8451 0.86663,1.6349 1.61524,2.75781 1.28126,1.92189 2.09605,2.93223 2.43945,3.23438 0.19523,0.4104 0.0687,0.20375 0.44141,0.94921 -0.35869,-0.71737 -0.28011,2.19846 3.625,6.10352 0.84483,0.84484 1.63598,1.43418 2.375,1.89844 0.24564,0.62583 0.27931,0.77738 0.66992,1.7539 0.89634,2.24088 1.75523,3.59055 2.0918,4.26368 -0.35864,-0.71729 -0.27807,2.19849 3.62695,6.10351 1.58732,1.58733 2.86837,2.336 3.89844,2.85938 0.20793,0.57009 0.30726,0.82999 0.69531,1.99414 0.40906,1.22718 0.88303,3.31758 2.04688,6.0332 1.33749,3.12083 2.75876,5.55658 3.75195,7.54297 0.83173,1.66345 1.33822,2.56333 1.41211,2.74805 0.0444,0.11294 0.25138,2.32891 2.09375,6.01367 2.0513,4.10263 3.6714,5.59279 3.5039,5.25781 -0.19119,-0.3824 0.0843,1.18044 1.41211,4.5 0.89634,2.2408 1.75721,3.58863 2.09375,4.26172 1.00577,2.01151 1.3922,2.74494 1.20899,2.19531 0.94849,2.84546 0.96988,3.37741 1.29687,5.11133 0.32699,1.73392 1.02834,4.4906 2.50391,7.93359 1.61277,3.76312 3.04198,5.80856 3.33203,6.58203 -0.0908,-0.24212 -0.23899,2.5692 1.97852,7.5586 2.63425,5.92706 5.00001,8.13871 4.9082,7.86328 0.55194,1.65581 0.58705,5.24994 1.33984,10.51953 l 0.12696,0.89258 0.28515,0.85547 c 1.07256,3.21768 2.11464,6.92813 3.65821,10.9414 2.20257,5.72669 4.43427,9.13445 4.84765,10.92579 0.32997,1.42984 -0.13295,5.01778 -0.48242,10.48828 -0.30912,4.83893 0.49753,11.89242 4.72461,17.93554 1.38376,4.11236 2.70249,6.32368 2.67383,6.16602 0.10968,0.60325 -0.57188,3.78426 -0.13282,9.49219 0.42185,5.48393 1.56694,9.47858 1.7461,12.16601 0.17871,2.68069 -1.08767,7.79243 0.11328,14.99805 0.68054,4.08325 2.54272,6.35829 3.32812,7.50781 0.14341,0.20989 0.11007,0.18068 0.18946,0.31641 -0.0587,0.78894 -0.56028,3.54615 -0.11524,8.88672 0.42698,5.12363 1.57736,8.58341 1.75977,10.58984 0.15514,1.70653 -0.041,4.33118 -0.041,7.85547 v 22.78125 24.53516 c 0,4.53245 0.23448,8.40654 0.0215,11.60156 -0.23645,3.54657 -1.36184,8.16792 -1.75196,14.01953 -0.38972,5.84596 0.31558,9.74255 0.0664,11.61133 -0.423,3.17248 -2.03192,7.43259 -3.33789,13.09179 -0.80197,3.47521 -1.2144,6.43235 -1.75195,8.76172 -1.27282,5.51556 -5.09681,20.40761 -6.75196,25.37305 -0.50642,1.51929 -2.33567,4.41512 -3.66601,9.29297 -1.51025,5.5376 -1.33827,9.12235 -1.6836,10.27344 0.37598,-1.25328 -1.50311,3.04333 -3.30273,6.12109 -1.79962,3.07776 -3.60683,5.96516 -4.45508,7.37891 -1.61161,2.686 -3.5697,5.64829 -5.46289,9.11914 -2.44787,4.48775 -3.67282,8.00321 -4.88867,9.89453 -2.79052,4.3408 -6.19752,8.63919 -9.84375,13.0957 -3.42614,4.1875 -13.18179,8.81326 -18.54492,20.81641 -2.64239,3.77992 -3.82706,6.68948 -4.39063,7.41406 -1.01338,1.30292 -3.26621,3.15683 -6.1875,6.07812 -4.42487,4.42488 -8.09208,8.61614 -11.74414,11.78125 -5.48883,4.75699 -8.20669,7.01125 -9.8457,8.3125 -0.91459,0.22444 -1.86244,0.47401 -2.41797,0.70508 -3.09461,1.28723 -5.10535,2.77282 -9.85156,6.22461 -4.40026,3.20019 -7.86582,6.52849 -11.03321,9.16797 -4.52635,3.77196 -7.178,6.73648 -8.85351,7.63867 -0.37117,0.19987 -4.69362,0.0367 -11.66406,3.20508 -5.27083,2.39582 -7.6841,5.46962 -8.87305,6.36133 -1.51591,1.13693 -2.56271,1.91516 -3.77539,2.84375 -1.08308,0.0323 -1.88472,0.2148 -2.46875,0.35937 -4.08549,1.01138 -5.53734,2.18959 -10.24024,4.87696 -3.2487,1.85639 -4.67161,4.00128 -5.46679,5.05468 -0.22516,0.074 -0.35382,0.14704 -0.58203,0.19727 -1.39406,0.30682 -3.30917,0.65883 -5.20899,0.98047 -1.89982,0.32164 -3.79488,0.61737 -5.30859,0.85547 -0.75685,0.11904 -1.415,0.2224 -1.97656,0.3164 -0.56157,0.094 -0.19457,-0.12444 -2.15235,0.46289 -5.12584,1.53776 -7.47597,3.64055 -7.98242,3.85157 0.60712,-0.25296 -1.46773,0.57099 -3.54883,1.35937 -2.08109,0.78838 -4.79724,1.80695 -7.5625,2.82422 -2.76525,1.01727 -5.58987,2.03559 -7.83594,2.80859 -2.24606,0.77301 -4.81187,1.39531 -3.52929,1.16211 -22.60354,4.10974 -22.40692,3.34375 -42.02149,3.34375 h -31.54297 c -6.33392,0 -11.9439,0.38611 -16.7871,0.0273 -9.11086,-0.67488 -18.95863,-2.70346 -29.79102,-3.50586 -7.41003,-0.54888 -13.23222,0.38869 -17.35742,0.0137 -12.67219,-1.15202 -26.42183,-5.58629 -42.0586,-7.00781 -7.64922,-0.69539 -13.52449,0.38066 -17.48046,0.004 -8.33359,-0.79367 -11.95429,-1.32723 -14.10938,-1.69336 -1.12076,-0.88284 -2.14716,-1.27189 -2.80664,-1.52929 -1.15762,-0.45183 -1.86447,-0.58333 -2.58594,-0.72266 -2.88588,-0.5573 -6.25045,-0.81409 -14.07812,-1.33594 -4.96489,-0.33098 -9.28607,-0.0215 -12.93164,-0.0215 h -12.26758 c -4.69743,0 -7.62488,0.36046 -8.72656,0.16016 0.57238,0.10407 -1.91162,-1.99013 -8.38086,-3.42774 -3.78914,-0.84204 -6.07718,-0.74887 -7.11524,-0.51758 -0.57537,-0.23117 -0.74668,-0.31429 -1.85547,-0.75781 -2.44204,-0.97681 -4.42753,-1.49277 -5.80859,-1.95312 -1.75241,-0.58414 -3.50341,-1.16976 -5.25586,-1.75391 -1.98655,-0.66219 -3.64265,-1.15359 -4.91016,-1.62891 -3.77749,-1.41655 -6.18741,-2.13031 -6.97265,-2.62109 0.86701,0.54189 -0.24596,-1.10954 -4.04883,-4.36914 -4.9804,-4.26891 -7.8504,-5.90283 -8.22656,-6.15234 -0.37616,-0.24952 -0.58112,-0.31397 -4.77539,-5.10743 -1.18571,-1.35509 -2.64375,-3.67812 -4.88868,-6.56445 -2.46453,-3.16869 -4.8816,-6.02551 -7.00976,-8.76172 -1.30947,-1.6836 -2.92422,-4.41595 -5.67774,-7.51367 -3.81476,-4.29161 -7.06059,-6.61056 -8.34179,-8.25781 0.002,0.002 -0.70207,-1.83774 -2.45508,-5.34375 -1.38264,-2.76527 -2.78989,-6.95337 -5.88086,-11.58985 -3.55044,-5.32568 -6.05882,-6.45736 -5.25781,-5.25586 -1.125,-1.68749 -2.29794,-5.1709 -4.79883,-9.75586 -1.89319,-3.47084 -3.84935,-6.43315 -5.46094,-9.11914 -2.2986,-3.831 -4.07038,-6.14078 -4.54687,-7.33203 -0.83423,-2.08556 -1.07839,-3.10935 -1.12305,-3.3457 0.0456,-0.55826 0.18836,-2.90776 -0.28711,-5.06641 -0.47813,-2.1707 -1.27644,-4.04702 -2.43555,-6.36523 -1.11963,-2.2393 -2.34164,-3.26482 -3.06836,-3.83984 -0.76209,-1.07887 -1.59926,-2.42429 -2.8125,-4.24415 -2.77289,-4.15935 -5.06073,-7.53376 -5.84375,-9.88281 0.0176,0.0529 0.52942,-3.52314 -2.04882,-9.53906 -1.50103,-3.50239 -3.72227,-5.02101 -4.67578,-5.73047 -0.68187,-1.13694 -1.40872,-2.62425 -2.33399,-4.7832 -0.29149,-0.68016 -0.6978,-2.2028 -1.45703,-4.48047 -0.58415,-1.75246 -1.16783,-3.50542 -1.75195,-5.25781 -0.46034,-1.381 -0.9763,-3.36652 -1.95313,-5.8086 -1.10195,-2.75483 -1.88563,-3.83517 -1.7539,-3.50586 -0.0443,-0.11066 -0.2484,-2.3288 -2.0918,-6.01562 -2.0513,-4.10258 -3.67334,-5.59277 -3.50586,-5.25781 -0.36898,-0.73796 -0.29305,-0.60533 -0.52344,-1.09375 0.14146,-1.89283 -0.028,-3.46014 -0.36719,-5.15625 -0.6866,-3.43305 -1.74766,-5.49104 -2.07031,-6.45899 h -0.002 c -0.96127,-2.88377 -1.41396,-4.04225 -1.33789,-3.50976 0.19776,1.38433 1.61714,-1.68376 -0.28516,-8.3418 -0.85011,-2.97542 -2.16694,-4.59336 -3.0957,-5.66211 -0.006,-0.21253 -0.0234,-0.10384 -0.0234,-0.35352 v -12.26562 -22.7832 -7.00977 c 0,-3.19865 0.009,-4.20075 -0.23828,-3.08789 0.83697,-3.76636 1.44155,-5.66863 1.72266,-6.4043 0.2811,-0.73566 -0.0331,-0.0543 0.62109,-1.17773 0.65415,-1.12342 1.68106,-3.68159 2.08984,-5.86524 0.40878,-2.18364 0.67618,-4.70595 1.02735,-8.91992 0.4615,-5.53806 -0.21743,-8.87447 -0.0664,-9.93164 0.47013,-3.2909 2.0576,-7.58485 3.34961,-13.18359 0.86895,-3.76545 1.84517,-9.21155 2.81055,-14.41211 0.96537,-5.20056 2.08841,-10.6006 2.29492,-11.30274 0.41965,-1.4268 3.90596,-5.30322 5.4707,-13.12695 0.89569,-4.47843 0.251,-7.90886 -0.01,-10.15625 -0.26077,-2.24738 -0.14284,-3.21393 -0.18164,-3.07812 -0.1774,0.62088 -0.0305,0.046 1.30078,-1.48438 1.3313,-1.53038 3.77916,-3.90119 5.42773,-8.1875 2.7517,-7.15437 1.82443,-12.14412 2.16211,-13.60742 0.46348,-2.00843 2.077,-5.24452 3.41016,-10.13281 1.34577,-4.93444 1.35272,-7.58786 1.38867,-7.67774 1.31069,-3.27674 4.47257,-6.32016 8.16016,-12.77344 1.97698,-3.45971 2.78379,-5.83961 3.30273,-6.66992 0.50975,-0.81559 2.9096,-2.88821 5.45898,-7.34961 1.4633,-2.56079 1.73066,-4.48326 1.91797,-5.37109 1.14676,-1.67256 3.37019,-3.88681 6.16211,-7.60938 5.87308,-7.83076 8.69507,-14.48522 12.42578,-17.59765 l 0.80664,-0.67383 0.65039,-0.82617 c 2.3102,-2.94025 5.6735,-6.25737 8.98633,-10.8125 2.58147,-3.54952 4.13891,-6.74607 5.54102,-9.13672 3.38128,-4.50836 6.76131,-9.01704 10.14258,-13.52539 l 0.0332,-0.043 0.0312,-0.043 c 3.5329,-4.81758 5.8252,-8.95537 8.09766,-11.45508 0.16255,-0.17881 4.30868,-1.54636 9.10156,-7.40429 2.75114,-3.36252 3.89178,-6.51128 4.79297,-8.56446 0.69255,-1.57782 0.96797,-1.93678 1.18945,-2.27734 1.34967,-0.30585 4.11734,-0.62119 7.59766,-2.94141 5.24645,-3.49762 7.20209,-7.05246 8.10547,-7.85547 -0.63771,0.56687 0.0255,-0.0167 0.42773,-0.34375 0.40227,-0.32705 0.96793,-0.78491 1.63867,-1.32421 1.34148,-1.07862 3.10839,-2.48926 4.9043,-3.90821 1.79591,-1.41894 3.62899,-2.85055 5.0664,-3.94531 1.43742,-1.09476 3.58782,-2.37247 1.88086,-1.44141 1.63999,-0.89453 2.21008,-1.1765 3.55274,-1.90039 0.17874,0.007 0.49567,0.0865 0.64062,0.0899 2.63227,0.0612 2.93899,-0.35308 3.42383,-0.51172 1.93938,-0.63458 1.84898,-0.76474 2.54297,-1.125 0.69399,-0.36026 1.53203,-0.81291 2.63477,-1.42188 2.20547,-1.21792 5.44768,-3.04934 10.16015,-5.74218 5.92819,-3.38754 9.99432,-6.83407 13.31446,-8.39649 3.09293,-1.45549 8.61877,-2.18427 15.45312,-5.11328 5.3474,-2.29174 7.90817,-3.32786 10.91602,-6.07227 0.56191,-0.51269 1.17006,-1.3769 1.7539,-2.2246 1.73631,-0.66809 4.52705,-1.67502 10.83789,-3.59571 6.12645,-1.86457 14.92664,-1.88506 24.92578,-5.38476 6.15835,-2.15542 9.3552,-5.34567 11.55469,-7.15235 7.42861,-1.59184 14.85656,-3.18355 22.28516,-4.77539 l 0.21484,-0.0469 0.21485,-0.0547 c 6.45043,-1.68272 11.63407,-4.03564 16.06835,-5.33984 3.83339,-1.12747 8.61044,-1.91495 14.01954,-3.50586 3.06841,-0.90248 8.22901,-2.74412 13.84961,-4.61524 5.6206,-1.87111 12.02128,-3.71188 13.01171,-3.87695 0.71879,-0.1198 3.10242,0.13672 7.11914,0.13672 h 14.01954 8.76171 c 2.1111,0 2.79995,0.002 2.08985,-0.0996 1.64424,0.23489 4.5969,1.29375 9.07226,1.79101 1.54359,0.17151 2.76134,0.13982 3.72657,0.0586 0.80894,0.80464 1.8404,1.66141 3.41992,2.45117 4.74127,2.37063 8.12307,2.27638 9.05664,2.50977 2.57066,0.64266 4.36492,1.00379 5.69336,1.39648 0.30549,0.47604 0.5255,1.12547 0.85742,1.47461 1.89686,1.99525 3.83081,3.24177 6.68555,4.87305 3.218,1.83885 2.5053,1.04795 3.03125,1.18945 0.52595,0.1415 1.03986,0.26624 1.61523,0.4043 1.15074,0.2761 2.50935,0.58945 3.83985,0.91406 0.99707,0.24326 1.82037,0.4706 2.5996,0.6875 0.24862,0.90811 1.59506,4.06677 7.01368,8.28125 3.24555,2.52432 5.60374,4.25066 7.59179,5.53125 0.99403,0.64029 1.87444,1.17102 2.98047,1.6914 1.10603,0.52039 2.12354,1.42852 5.77735,1.23047 0.1699,-0.009 0.43657,-0.12578 0.625,-0.14843 0.0209,0.0186 0.024,0.0204 0.0449,0.0391 -0.15051,-0.13379 0.48219,0.61812 1.59765,2.38086 1.11547,1.76273 2.79813,4.63407 6.32032,7.09961 3.85862,2.70103 7.31624,3.0466 9.18359,3.39062 1.86735,0.34403 2.13791,0.68409 1.29883,0.0918 8.07636,5.70096 12.48706,9.1139 15.3457,11.46094 0.0278,0.20106 -10e-6,0.55338 0.043,0.69726 0.39131,1.30993 0.88045,2.11693 1.27734,2.70899 0.79378,1.18411 1.31098,1.59877 1.68946,1.93359 1.51391,1.3393 1.57677,1.15295 1.8457,1.30469 0.26893,0.15173 0.44377,0.24145 0.63086,0.33789 0.37419,0.19288 0.77258,0.39063 1.32812,0.66601 1.11109,0.55078 2.80994,1.38739 5.42188,2.69336 l 1.24805,-2.49609 c 2.00085,-0.42738 5.85256,-2.02262 7.56054,-6.14258 1.65834,-4.00021 0.52965,-6.81061 -0.27148,-8.4375 l 0.40625,-0.8125 c -0.56599,-0.28299 -0.68154,-0.3378 -1.16797,-0.58008 -1.29294,-2.16691 -2.41913,-3.16459 -3.93555,-4.54492 -3.48586,-3.17304 -9.20574,-7.58801 -19.88867,-15.1289 -3.85733,-2.72282 -7.33025,-3.07576 -9.20898,-3.42188 -0.83379,-0.15361 -1.24715,-0.28391 -1.4961,-0.35547 0.1289,0.0759 0.0297,0.0431 -0.73047,-1.1582 -0.92445,-1.46088 -2.26485,-4.01797 -5.21093,-6.63672 -3.25062,-2.88944 -5.59732,-4.91342 -7.39063,-6.37695 -1.7933,-1.46354 -1.92268,-2.15176 -5.43164,-3.60938 -0.87724,-0.3644 -2.03807,-1.13174 -5.2539,-0.7539 -0.15879,0.0187 -0.37779,0.12004 -0.54883,0.15039 -0.6228,-1.35401 -2.03411,-3.61489 -6.04492,-7.05274 -2.06261,-1.76795 -2.84016,-1.81687 -3.67579,-2.15039 -0.83562,-0.33352 -1.56052,-0.56691 -2.30664,-0.79297 -1.49223,-0.45211 -3.03914,-0.84394 -4.52734,-1.20703 -1.4882,-0.36309 -2.90602,-0.69173 -3.91406,-0.93359 -0.15129,-0.0363 -0.19567,-0.0481 -0.32617,-0.0801 -0.17898,-0.12704 -0.38985,-0.23241 -0.45313,-0.27734 -0.79126,-1.54316 -1.81421,-3.03283 -2.80078,-3.83985 -2.77921,-2.2734 -4.14232,-2.38403 -6.37109,-3.12695 -3.25504,-1.08501 -5.90557,-1.50667 -7.7461,-1.9668 -2.91102,-0.72775 -3.47982,-0.76742 -3.86328,-0.77539 -0.93233,-1.3051 -2.44799,-3.1122 -5.91406,-4.26758 -3.44575,-1.14858 -6.16384,-0.79745 -7.67383,-0.63867 -1.50999,0.15878 -2.0251,0.11744 -1.39453,0.1875 -1.44532,-0.16059 -4.20011,-1.10727 -8.45313,-1.71484 -3.02319,-0.43188 -4.69248,-0.0996 -4.91797,-0.0996 h -8.76171 -14.01954 c -0.91235,0 -2.25303,-0.177 -3.99609,-0.24805 z m 56.03906,7.95117 c 0.36478,0.38184 0.35905,0.51543 0.0332,0.043 -0.005,-0.007 -0.0279,-0.0351 -0.0332,-0.043 z m 19.20703,8.33594 c 0.002,-5.3e-4 0.0468,0.0257 0.0488,0.0254 0.002,0.003 0.005,0.016 0.008,0.0195 -0.007,-0.0127 -0.0667,-0.0414 -0.0566,-0.0449 z m 0.75391,0.38477 c 0.003,0.001 0.0106,0.006 0.0137,0.008 -0.004,-9.2e-4 -0.008,-0.003 -0.0117,-0.004 -6.5e-4,-0.001 -10e-4,-0.003 -0.002,-0.004 z m -18.83008,5.10937 c 0.0194,0.48726 0.39979,1.55782 0.69922,2.50195 -0.12627,-0.3026 -0.34989,-0.59881 -0.42578,-0.89062 -0.46833,-1.80099 -0.30318,-2.3584 -0.27344,-1.61133 z m -205.01953,29.23828 c -0.0138,0.0994 -0.0277,0.19736 -0.0371,0.29297 0.011,-0.10637 -0.004,-0.10449 0.01,-0.2168 0.003,-0.0287 0.0235,-0.0475 0.0273,-0.0762 z m 322.38477,0.0937 c 0.0181,-5.1e-4 0.0747,0.0178 0.0937,0.0176 -0.092,0.0186 -0.35863,0.0455 -0.41797,0.0547 -0.29957,0.0462 -0.1783,-0.0579 0.32422,-0.0723 z m 11.60156,4.50196 c 0.52652,0.55926 0.66763,0.89119 0.47461,0.61132 -0.0544,-0.0789 -0.3638,-0.44065 -0.47461,-0.61132 z M 605.48047,249.5 c 0.29133,0.0639 0.18732,0.18911 0.14648,0.17969 -0.0408,-0.009 -0.0876,-0.0298 -0.60742,-0.14258 -10e-4,-2.8e-4 -0.0105,-0.002 -0.0117,-0.002 0.0856,0.006 0.41797,-0.0472 0.47266,-0.0352 z m 28.67187,3.9707 c 0.31078,-0.0479 0.12704,0.0491 -0.42382,0.0566 0.0937,-0.0189 0.36369,-0.0474 0.42382,-0.0566 z m 4.65235,1.73438 c 0.26619,-0.0489 -0.14155,0.0965 -0.97852,0.12304 0.29881,-0.0578 0.87533,-0.10409 0.97852,-0.12304 z m 38.1875,1.20898 c 0.0181,-5.1e-4 0.0747,0.0179 0.0937,0.0176 -0.0919,0.0186 -0.35869,0.0455 -0.41797,0.0547 -0.29956,0.0462 -0.17831,-0.0579 0.32422,-0.0723 z m -64.56836,1.29688 c 0.12516,1.7063 0.0213,4.08482 0.0215,4.08398 2.7e-4,-10e-4 -3.20014,5.11407 -3.19922,5.11328 5.6e-4,-4.7e-4 -1.09321,0.6084 -1.98437,1.12696 z m 71.35351,2.16992 c 0.82273,0.0276 0.94629,0.0766 0.92774,0.0742 -0.0259,-0.003 -0.89779,-0.0188 -1.66016,-0.0195 0.19895,-9.9e-4 0.59063,-0.0595 0.73242,-0.0547 z m -1.74804,0.12891 c -0.72301,0.10006 -1.63062,0.31365 -2.62891,0.74218 0.006,-0.004 0.0977,-0.0645 0.0977,-0.0645 -7.5e-4,3.2e-4 1.59316,-0.54792 2.15429,-0.65039 0.19907,-0.0363 0.20934,-0.005 0.37696,-0.0273 z m 13.15234,13.32812 c 0.0392,0.0163 0.15479,0.12575 0.19922,0.14648 -0.0692,-0.018 -0.28236,-0.10222 -0.33399,-0.11718 -0.42157,-0.12215 -0.32799,-0.22218 0.13477,-0.0293 z m -3.97656,2.47852 c -0.16972,0.23184 -0.19525,0.46945 -0.39453,0.69531 -0.0347,0.0393 -0.0782,0.0612 -0.11328,0.0996 0.0997,-0.15667 0.28938,-0.45156 0.50781,-0.79492 z m -11.49024,0.4375 c 0.31035,-0.0479 0.13094,0.0469 -0.41797,0.0547 0.0919,-0.0186 0.35868,-0.0455 0.41797,-0.0547 z m 9.86719,1.35156 c -0.4307,0.33881 -0.86085,0.62282 -1.30859,0.87305 0.53681,-0.35848 0.78279,-0.52188 1.30859,-0.87305 z m -4.97656,2.1543 c -0.0538,0.007 -0.1502,0.0513 -0.20117,0.0566 -0.33776,0.0353 -0.23929,-0.0133 -0.5,-0.006 0.19663,-0.002 0.42548,-0.0227 0.70117,-0.0508 z m -566.6875,357.52734 c -0.0658,0.0894 -0.12481,0.29308 -0.18945,0.36719 -1.06192,1.21748 -0.60955,0.74508 0.18945,-0.36719 z m 533.88281,154.35742 c 0.56997,0.37353 1.17575,0.72907 1.91992,1.0332 -0.15981,-0.0601 -0.28214,-0.0586 -0.44726,-0.1289 -0.75061,-0.31944 -0.90982,-0.56715 -1.47266,-0.9043 z m 3.81641,1.57813 c 0.17183,0.042 0.32425,0.0538 0.49414,0.0879 -0.15985,-0.0185 -0.32555,-0.0588 -0.49414,-0.0879 z m -328.73438,42.04101 c -0.0937,1.16052 -0.32271,1.90005 -0.60156,2.63281 0.24405,-0.66482 0.47277,-1.50364 0.60156,-2.63281 z"
         id="path412" />
    </g>
  </g>
</svg>
