<?xml version="1.0" encoding="UTF-8" standalone="no"?>
<!-- Created with Inkscape (http://www.inkscape.org/) -->

<svg
   width="1000"
   height="1000"
   viewBox="0 0 1000 1000"
   version="1.1"
   id="svg1"
   xmlns:xlink="http://www.w3.org/1999/xlink"
   xmlns="http://www.w3.org/2000/svg"
   xmlns:svg="http://www.w3.org/2000/svg">
  <defs
     id="defs1">
    <pattern
       xlink:href="#pattern359"
       preserveAspectRatio="xMidYMid"
       id="pattern372"
       patternTransform="matrix(0.5,0,0,0.5,147.15462,1548.2922)" />
    <pattern
       xlink:href="#pattern357"
       preserveAspectRatio="xMidYMid"
       id="pattern371"
       patternTransform="matrix(0.5,0,0,0.5,221.32076,1552.4298)" />
    <pattern
       xlink:href="#pattern358"
       preserveAspectRatio="xMidYMid"
       id="pattern370"
       patternTransform="matrix(0.5,0,0,0.5,230.96346,1527.8214)" />
    <pattern
       xlink:href="#pattern355"
       preserveAspectRatio="xMidYMid"
       id="pattern369"
       patternTransform="matrix(0.5,0,0,0.5,287.08178,1553.6581)" />
    <pattern
       xlink:href="#pattern354"
       preserveAspectRatio="xMidYMid"
       id="pattern368"
       patternTransform="matrix(0.5,0,0,0.5,230.97274,1529.1717)" />
    <pattern
       xlink:href="#pattern342"
       preserveAspectRatio="xMidYMid"
       id="pattern360"
       patternTransform="matrix(0.5,0,0,0.5,210.45332,1525.5392)" />
    <pattern
       xlink:href="#pattern342"
       preserveAspectRatio="xMidYMid"
       id="pattern359"
       patternTransform="matrix(0.5,0,0,0.5,152.11125,1550.7705)" />
    <pattern
       xlink:href="#pattern342"
       preserveAspectRatio="xMidYMid"
       id="pattern358"
       patternTransform="matrix(0.5,0,0,0.5,202.11125,1533.2444)" />
    <pattern
       xlink:href="#pattern342"
       preserveAspectRatio="xMidYMid"
       id="pattern357"
       patternTransform="matrix(0.5,0,0,0.5,211.4075,1546.234)" />
    <pattern
       xlink:href="#pattern342"
       preserveAspectRatio="xMidYMid"
       id="pattern356"
       patternTransform="matrix(0.5,0,0,0.5,232.14929,1573.2544)" />
    <pattern
       xlink:href="#pattern342"
       preserveAspectRatio="xMidYMid"
       id="pattern355"
       patternTransform="matrix(0.5,0,0,0.5,275,1552.7287)" />
    <pattern
       xlink:href="#pattern342"
       preserveAspectRatio="xMidYMid"
       id="pattern354"
       patternTransform="matrix(0.5,0,0,0.5,235,1529.7913)" />
    <pattern
       xlink:href="#shading24"
       preserveAspectRatio="xMidYMid"
       id="pattern342"
       patternTransform="matrix(0.5,0,0,0.5,213.95332,1537.5392)"
       x="0"
       y="0" />
    <pattern
       patternUnits="userSpaceOnUse"
       width="338.5925"
       height="42.989567"
       patternTransform="translate(213.95332,1537.5392) scale(0.5)"
       preserveAspectRatio="xMidYMid"
       id="shading24"
       style="fill:#000000">
      <path
         style="fill-rule:nonzero;stroke:none;stroke-width:0.1;stroke-linecap:square;paint-order:markers fill stroke;stop-color:#000000"
         d="m 1806.4991,-758.06464 v 18.86792 c 55.9187,0 121.0493,0.59523 193.5686,3.15628 72.9408,2.57593 146.0589,6.87694 222.9288,13.47675 119.09,10.22471 223.0762,23.76065 340.6056,39.2177 117.5025,15.4535 222.0471,29.0563 341.8507,39.3312 77.366,6.63525 151.0001,10.96128 224.4674,13.55245 73.0344,2.5759 138.631,3.17493 194.9247,3.17493 -55.9642,0 -122.2215,-1.36594 -194.8324,-5.25394 -73.2143,-3.92032 -146.9676,-10.0663 -223.8166,-18.88656 -118.8791,-13.6442 -223.3242,-31.02113 -339.8009,-50.57815 -116.4705,-19.55598 -221.1862,-36.99475 -340.3724,-50.69165 -77.0605,-8.8558 -150.9942,-15.0266 -224.3694,-18.96225 -72.7637,-3.90286 -139.1256,-5.27261 -195.1541,-5.27261 z m 0,37.81515 v 18.86793 c 55.9187,0 121.0493,0.59523 193.5686,3.15627 72.9408,2.57593 146.0589,6.87694 222.9288,13.47676 119.09,10.22471 223.0762,23.76065 340.6056,39.2177 117.5025,15.4535 222.0471,29.0563 341.8507,39.33119 77.366,6.63526 151.0001,10.96128 224.4674,13.55245 73.0344,2.5759 138.631,3.17493 194.9247,3.17493 -55.9642,0 -122.2215,-1.36594 -194.8324,-5.25394 -73.2143,-3.92031 -146.9676,-10.0663 -223.8166,-18.88656 -118.8791,-13.6442 -223.3242,-31.02112 -339.8009,-50.57815 -116.4705,-19.55598 -221.1862,-36.99475 -340.3724,-50.69165 -77.0605,-8.8558 -150.9942,-15.02659 -224.3694,-18.96225 -72.7637,-3.90286 -139.1256,-5.2726 -195.1541,-5.2726 z m 0,37.81516 v 18.86792 c 55.9187,0 121.0493,0.59523 193.5686,3.15628 72.9408,2.57593 146.0589,6.87694 222.9288,13.47675 119.09,10.22471 223.0762,23.76065 340.6056,39.2177 117.5025,15.4535 222.0471,29.0563 341.8507,39.3312 77.366,6.63525 151.0001,10.96128 224.4674,13.55245 73.0344,2.5759 138.631,3.17493 194.9247,3.17493 -55.9642,0 -122.2215,-1.36594 -194.8324,-5.25394 -73.2143,-3.92032 -146.9676,-10.0663 -223.8166,-18.88656 -118.8791,-13.6442 -223.3242,-31.02113 -339.8009,-50.57815 -116.4705,-19.55598 -221.1862,-36.99475 -340.3724,-50.69165 -77.0605,-8.8558 -150.9942,-15.0266 -224.3694,-18.96225 -72.7637,-3.90286 -139.1256,-5.27261 -195.1541,-5.27261 z m 0,37.81515 v 18.86793 c 55.9187,0 121.0493,0.59523 193.5686,3.15627 72.9408,2.57593 146.0589,6.87694 222.9288,13.47676 119.09,10.22471 223.0762,23.76065 340.6056,39.2177 117.5025,15.4535 222.0471,29.0563 341.8507,39.33119 77.366,6.63526 151.0001,10.96128 224.4674,13.55245 73.0344,2.5759 138.631,3.17494 194.9247,3.17494 -55.9642,0 -122.2215,-1.36595 -194.8324,-5.25395 -73.2143,-3.92031 -146.9676,-10.0663 -223.8166,-18.88656 -118.8791,-13.6442 -223.3242,-31.02112 -339.8009,-50.57815 -116.4705,-19.55598 -221.1862,-36.99475 -340.3724,-50.69165 -77.0605,-8.8558 -150.9942,-15.02659 -224.3694,-18.96225 -72.7637,-3.90286 -139.1256,-5.2726 -195.1541,-5.2726 z m 0,37.81516 v 18.86792 c 55.9187,0 121.0493,0.59523 193.5686,3.15628 72.9408,2.57593 146.0589,6.87694 222.9288,13.47675 119.09,10.22471 223.0762,23.76065 340.6056,39.2177 117.5025,15.4535 222.0471,29.0563 341.8507,39.3312 77.366,6.63525 151.0001,10.96128 224.4674,13.55245 73.0344,2.5759 138.631,3.17493 194.9247,3.17493 -55.9642,0 -122.2215,-1.36594 -194.8324,-5.25394 -73.2143,-3.92032 -146.9676,-10.0663 -223.8166,-18.88656 -118.8791,-13.6442 -223.3242,-31.02113 -339.8009,-50.57815 -116.4705,-19.55598 -221.1862,-36.99475 -340.3724,-50.69165 -77.0605,-8.8558 -150.9942,-15.0266 -224.3694,-18.96225 -72.7637,-3.90286 -139.1256,-5.27261 -195.1541,-5.27261 z m 0,37.81515 v 18.86793 c 55.9187,0 121.0493,0.59523 193.5686,3.15627 72.9408,2.57593 146.0589,6.87694 222.9288,13.47676 119.09,10.22471 223.0762,23.76065 340.6056,39.2177 117.5025,15.4535 222.0471,29.0563 341.8507,39.33119 77.366,6.63526 151.0001,10.96128 224.4674,13.55245 73.0344,2.5759 138.631,3.17494 194.9247,3.17494 -55.9642,0 -122.2215,-1.36595 -194.8324,-5.25395 -73.2143,-3.92031 -146.9676,-10.0663 -223.8166,-18.88656 -118.8791,-13.6442 -223.3242,-31.02112 -339.8009,-50.57815 -116.4705,-19.55598 -221.1862,-36.99475 -340.3724,-50.69165 -77.0605,-8.8558 -150.9942,-15.02659 -224.3694,-18.96225 -72.7637,-3.90286 -139.1256,-5.2726 -195.1541,-5.2726 z m 0,37.81516 v 18.86792 c 55.9187,0 121.0493,0.59523 193.5686,3.15628 72.9408,2.57593 146.0589,6.87694 222.9288,13.47675 119.09,10.22471 223.0762,23.76065 340.6056,39.2177 117.5025,15.4535 222.0471,29.0563 341.8507,39.3312 77.366,6.63525 151.0001,10.96128 224.4674,13.55245 73.0344,2.5759 138.631,3.17493 194.9247,3.17493 -55.9642,0 -122.2215,-1.36594 -194.8324,-5.25394 -73.2143,-3.92032 -146.9676,-10.0663 -223.8166,-18.88656 -118.8791,-13.6442 -223.3242,-31.02113 -339.8009,-50.57815 -116.4705,-19.55598 -221.1862,-36.99475 -340.3724,-50.69165 -77.0605,-8.8558 -150.9942,-15.0266 -224.3694,-18.96225 -72.7637,-3.90286 -139.1256,-5.27261 -195.1541,-5.27261 z"
         id="use26"
         transform="matrix(0.22300099,0,0,0.37823052,-402.85121,237.25945)" />
    </pattern>
    <clipPath
       clipPathUnits="userSpaceOnUse"
       id="clipPath54">
      <path
         id="path336"
         style="stroke-width:0.0999999;stroke-linecap:square;paint-order:markers fill stroke;stop-color:#000000"
         d="m 1691.1994,-792.32001 h 1634.8919 v 92.82806 H 1691.1994 Z" />
    </clipPath>
    <clipPath
       clipPathUnits="userSpaceOnUse"
       id="clipPath33">
      <rect
         style="fill:#000000;stroke:none;stroke-width:0.999995;stroke-linecap:butt;stroke-linejoin:bevel;paint-order:stroke markers fill;stop-color:#000000"
         id="rect33"
         width="46.19186"
         height="80.006783"
         x="74.999985"
         y="399.99661" />
    </clipPath>
    <clipPath
       clipPathUnits="userSpaceOnUse"
       id="clipPath27">
      <rect
         style="fill:none;stroke:#000000;stroke-width:0.999999;stroke-linecap:butt;stroke-linejoin:bevel;paint-order:stroke markers fill;stop-color:#000000"
         id="rect28-6"
         width="46.160622"
         height="39.922417"
         x="86.574379"
         y="420.06253" />
    </clipPath>
    <clipPath
       clipPathUnits="userSpaceOnUse"
       id="clipPath25">
      <rect
         style="fill:#ff0000;stroke:none;stroke-width:3;stroke-linecap:square;stroke-linejoin:miter;paint-order:stroke markers fill;stop-color:#000000"
         id="rect25-8"
         width="78"
         height="45.033199"
         x="763.61322"
         y="452.82422" />
    </clipPath>
    <clipPath
       clipPathUnits="userSpaceOnUse"
       id="clipPath15">
      <rect
         style="fill:none;stroke:#000000;stroke-linecap:butt;stroke-linejoin:bevel;paint-order:stroke markers fill;stop-color:#000000"
         id="rect15-7"
         width="45.034248"
         height="38.955639"
         x="262.48285"
         y="121.00073" />
    </clipPath>
    <linearGradient
       id="swatch75">
      <stop
         style="stop-color:#000000;stop-opacity:1;"
         offset="0"
         id="stop75" />
    </linearGradient>
  </defs>
  <g
     id="layer51"
     style="display:inline">
    <g
       id="layer60"
       style="display:inline">
      <path
         style="baseline-shift:baseline;display:inline;overflow:visible;opacity:1;vector-effect:none;fill-rule:evenodd;enable-background:accumulate;stop-color:#000000;stop-opacity:1"
         d="m 677.50391,192.90039 c -1.14574,0.0846 -1.53442,0.38281 -1.06446,0.38281 h -12.26758 -5.25781 c -1.4745,0 -5.25691,-1.02473 -10.93164,0.23633 -3.55578,0.79061 -5.64045,2.35738 -6.79101,3.10547 -0.10401,0.0676 -0.0946,0.0525 -0.1836,0.10742 -0.47212,-0.20608 -2.35833,-0.28701 -5.97851,0.11524 -5.7812,0.64235 -12.40618,2.14907 -17.83008,3.95703 -4.6981,1.56602 -7.15221,3.0871 -7.84961,3.24804 -2.26158,0.52191 -7.37048,-0.16117 -14.51758,1.88086 -5.96509,1.70431 -9.78663,4.61628 -12.47266,6.04883 -5.36345,2.86051 -10.76839,5.80897 -16.13671,8.9668 -5.47068,3.21805 -9.75883,6.49513 -13.62696,8.54297 -3.83014,2.02772 -9.47777,3.62038 -15.83398,7.04297 -4.51149,2.42927 -6.78444,5.01747 -8.00391,5.87109 -3.0786,2.15502 -6.69249,4.33358 -10.51562,7.00977 -3.05375,2.13762 -5.18913,4.04015 -6.82227,5.1289 0.80609,-0.53739 -0.0199,-0.0987 -1.75781,0.76563 -1.73794,0.86432 -4.94722,2.68936 -6.89649,6.58789 -2.0726,4.14536 -1.34639,6.22088 -0.93164,7.10351 -0.31091,0.0439 -1.84169,0.26441 -1.84179,0.26367 -10e-4,-0.008 -0.003,-0.0165 -0.004,-0.0254 -0.005,-0.0354 -0.01,-0.0682 -0.0137,-0.0996 -0.0161,-0.12566 -0.024,-0.2187 -0.0293,-0.27734 -0.0213,-0.23454 0.0137,0.0518 0.0137,1.01172 h 0.0332 c -0.13682,0.0777 -0.30172,0.1072 -0.43555,0.1875 -2.61554,1.56933 -3.79448,3.25588 -4.37695,3.98633 -1.13649,0.69766 -2.70762,1.45225 -4.9336,2.40625 0.73113,-0.31334 0.39453,-0.14978 -0.93359,0.14258 -1.32812,0.29235 -3.90403,0.81073 -6.63086,2.99218 -2.24713,1.79772 -3.18653,3.38867 -3.78711,4.67578 -0.87173,0.26739 -1.67223,0.50732 -2.72851,0.84961 -3.3031,1.0704 -6.25916,1.42191 -10.76172,4.79883 -4.54771,3.41078 -7.69332,6.7079 -10.39649,8.67383 -3.42006,2.48732 -4.61591,3.15263 -5.04883,3.41797 -1.8395,0.34117 -2.86276,0.92395 -3.53711,1.32226 -1.40713,0.83115 -1.891,1.31404 -2.72656,2.02344 -1.67111,1.41881 -4.13324,3.65827 -8.83984,7.97266 -4.29419,3.93634 -7.50026,7.75138 -10.51367,10.51367 -2.45391,2.24942 -6.52648,4.76085 -10.82813,9.0625 -4.50133,4.50133 -7.8747,9.09303 -11.07812,12.87891 -3.40175,4.02023 -5.86207,7.5652 -8.19922,9.90234 -1.75726,1.75726 -6.11007,3.97975 -10.79102,9.05078 -9.82444,10.64314 -12.45902,18.0852 -19.61133,26.66797 -1.03044,1.23653 -5.32743,3.50778 -9.40039,9.61719 -6.72393,10.0859 -8.67767,15.34207 -9.44336,18.22265 -0.76568,2.88059 0.27223,1.38155 -4.34375,7.72852 -2.29132,3.15058 -5.10855,6.33404 -8.14843,9.75391 -0.35398,0.39823 -3.00432,1.91996 -5.97657,6.16601 -3.48104,4.97293 -5.42743,9.58349 -7.39062,12.85547 -0.4799,0.79983 -1.97194,2.48698 -3.67188,5.54688 -2.58658,4.65584 -3.73949,8.17955 -4.83593,9.82421 0.35599,-0.53398 -1.3961,0.64145 -4.5293,4.29688 -2.22575,2.59671 -4.19579,5.28489 -5.98633,7.9707 -1.64062,2.46153 -2.16074,4.14962 -2.375,4.57813 -0.58412,1.16825 -1.16975,2.33756 -1.7539,3.50586 -1.45096,2.90192 -2.3245,5.03833 -3.03907,6.18164 -0.15474,0.24759 -3.29419,2.34896 -5.91601,8.24804 -2.29385,5.16121 -2.14061,8.89856 -2.38477,10.52539 -1.16902,3.64137 -1.9728,6.7726 -2.83789,8.67579 -0.44656,0.98243 -2.94227,3.54881 -5.29297,8.83789 -1.91164,4.3012 -2.00903,7.42482 -2.31445,8.64648 -2.4186,9.67439 -3.00264,11.28313 -3.78711,24.61914 -0.39749,6.75723 0.50567,11.00486 0.17773,12.64453 -0.12661,0.63309 -3.22602,4.09162 -5.15429,11.80469 -1.77962,7.11848 -0.33185,10.47168 -0.13672,9.39844 -0.15492,0.85206 -2.33706,4.096 -3.50391,10.51367 -0.94913,5.22026 -0.16211,8.82262 -0.16211,10.55078 0,5.15702 -0.0376,7.11253 -0.0117,8.55859 0.0125,0.69952 -1.19244,0.89765 1.25782,5.23243 0.0646,0.28067 0.0712,0.26206 0.18945,0.91601 0.43673,2.41554 1.14729,7.33737 2.13086,16.18946 0.22444,2.02004 -0.0605,5.16909 -0.0605,9.41015 v 10.51367 7.00977 c 0,3.27938 0.16339,5.14928 0.0996,5.5957 0.19244,-1.34702 -0.7369,0.10442 -1.6582,4.71094 -0.74194,3.70971 -0.19531,5.60594 -0.19531,5.4668 v 3.5039 c 0,2.26431 -0.0316,2.87116 0.13671,1.86133 -0.13374,0.8025 -1.0938,3.06082 -1.75195,7.00977 -0.55245,3.31461 -0.13672,5.07616 -0.13672,5.14843 v 5.25782 10.51367 c 0,13.15355 -0.43113,9.34626 1.94727,21.23828 0.29776,1.48881 0.0241,5.47264 2.41992,10.86328 2.8777,6.47487 5.88037,8.27831 5.45117,7.41992 -0.44154,-0.88308 -0.33586,1.06468 1.20899,5.69922 1.28812,3.86439 2.76363,6.80393 3.6289,9.11133 0.47533,1.26754 0.96673,2.92166 1.62891,4.9082 1.09026,3.27078 2.15844,6.94201 3.62891,10.86328 1.28043,3.41443 2.03226,4.36633 1.6289,3.15625 0.27657,0.8297 0.50525,3.26967 1.75195,7.00977 0.54453,1.63359 0.84629,2.26969 1.14844,2.93164 -0.012,0.88063 0.0456,1.96943 0.38867,3.3418 1.14894,4.59575 2.58737,5.82903 3.88672,7.80468 1.29936,1.97566 2.84475,4.25362 2.49805,3.67579 -0.47009,-0.78349 -0.19059,1.00303 2.32812,4.36132 1.54661,2.06214 2.61202,3.46323 3.41993,4.48438 0.40395,0.51057 0.72595,0.91254 1.14257,1.38281 0.20832,0.23514 0.42345,0.48093 0.84766,0.88086 0.42421,0.39994 0.29574,1.04661 3.62109,2.23438 0.35723,0.12759 0.89739,0.24778 1.48047,0.3457 0.0536,0.20984 0.0564,0.43298 0.12696,0.63672 1.97267,5.69469 4.55819,5.63405 5.6289,6.17383 2.14142,1.07955 3.74421,1.58913 7.4961,2.99609 3.87967,1.45486 6.61548,1.6725 7.77539,2.00391 -0.19817,-0.0566 1.96502,1.58362 7.00781,2.08789 5.38888,0.5389 9.83803,0.0488 13.26367,0.0488 h 22.78125 33.29688 10.51367 c 3.39111,0 7.85977,0.5195 13.31445,-0.0547 8.35973,-0.87997 15.19739,-2.97303 20.88672,-3.49024 4.01417,-0.36492 9.90465,0.6928 17.52539,0 8.53102,-0.77555 15.42278,-2.97171 21.07227,-3.50976 3.97518,-0.37859 8.9329,0.0449 14.82226,0.0449 h 0.35742 l 0.35547,-0.0254 c 7.85817,-0.56129 16.23642,-0.74361 25.01367,-1.79688 9.75389,-1.17047 27.18406,-5.09627 36.14649,-7.20507 4.23443,-0.99634 9.41498,-1.79415 15.09375,-3.82227 5.89413,-2.10504 9.06526,-4.72285 10.60742,-5.29102 5.74239,-2.11562 14.40808,-2.75287 23.79688,-7.44726 9.14058,-4.57029 15.13169,-10.94264 20.58398,-14.80469 9.43331,-6.68192 31.64507,-21.43832 42.52539,-30.14258 9.01121,-7.20897 16.60439,-14.86048 24.42774,-20.94531 11.56341,-8.99376 17.45035,-12.35351 24.29687,-16.65234 6.84653,-4.29884 14.36315,-9.42332 26.99023,-20.53516 7.32359,-6.44474 11.72287,-13.44552 16.23633,-17.95898 7.23331,-7.23331 10.90275,-10.55632 12.4375,-11.82618 0.39532,-0.17379 0.92707,-0.33874 1.19727,-0.49023 1.11184,-0.62337 1.57128,-1.07271 1.91992,-1.39453 0.69728,-0.64364 0.85921,-0.89097 1.0293,-1.09766 0.68035,-0.82675 0.80008,-1.0364 1.51758,-1.99219 1.43499,-1.91157 4.42111,-5.85467 10.73046,-13.88476 1.46887,-1.86946 5.04244,-4.70278 7.98438,-10.25977 6.97959,-13.18367 11.16364,-27.40668 14.81641,-40.55664 1.44135,-5.18884 2.33062,-9.91112 3.48437,-13.94922 1.85314,-6.48599 5.69954,-14.13677 7.26953,-23.94921 1.52723,-9.5452 -0.31258,-16.94822 0.0898,-21.77735 0.47987,-5.75846 2.40608,-12.50917 3.45703,-20.5664 1.98905,-15.24946 2.7458,-21.06545 2.96289,-24.09375 0.0271,-0.37854 0.0597,-0.67292 0.0449,-1.42383 -0.007,-0.37546 0.0772,-0.71216 -0.27344,-2.20313 -0.14211,-0.60434 -0.4159,-1.63439 -1.44531,-3.16015 0.18104,-2.21632 0.23786,-3.36066 0.50586,-6.3086 0.50863,-5.59493 2.72576,-12.46977 3.5039,-21.02929 0.70487,-7.7535 -0.43543,-13.58309 -0.0195,-17.32618 0.23191,-2.08721 2.71913,-6.54644 3.51172,-14.07617 0.81878,-7.7784 0.0547,-14.59652 0.0547,-20.32422 V 415.3261 392.54485 364.50579 c 0,-3.73037 1.63796,-9.97227 -0.26563,-18.0625 -2.08182,-8.8478 -6.63074,-13.13914 -7.32812,-15.0918 -0.19762,-0.55334 -0.72915,-3.7203 -1.125,-7.31445 -0.39585,-3.59415 -0.65239,-7.66418 -2.51172,-12.3125 -2.24213,-5.60532 -5.00796,-8.34211 -5.59766,-9.52149 0.43881,0.87762 0.33909,-1.0738 -1.75195,-5.25585 -1.82264,-3.6453 -3.54388,-5.37978 -3.875,-5.93165 -0.56593,-0.94321 -0.83266,-1.73009 -1.75781,-3.65429 -0.92516,-1.9242 -2.61477,-4.64406 -5.00391,-7.03321 -3.74219,-3.74219 -6.36326,-4.46873 -6.08008,-4.24218 -0.0852,-0.0682 -0.9911,-1.01133 -1.6289,-1.67969 -0.24216,-0.68737 -1.11899,-3.53406 -5.22656,-6.95703 -5.14479,-4.28732 -8.41577,-4.54195 -7.59961,-3.95899 0.0828,0.0591 -1.16652,-1.69664 -4.42578,-4.59375 -3.76526,-3.34689 -7.4553,-6.17701 -10.69922,-8.92187 -3.92991,-3.3253 -7.95529,-6.99058 -12.39258,-10.62109 -2.75906,-2.25743 -5.28306,-3.93334 -7.2461,-5.44336 -5.12988,-3.94607 -10.32532,-8.18392 -15.86914,-12.3418 -1.06936,-0.80202 -5.27956,-3.92151 -9.93945,-7.16992 -2.32994,-1.62421 -4.74834,-3.26391 -6.98047,-4.67383 -2.23213,-1.40992 -3.76448,-2.50988 -6.6914,-3.57422 -6.41238,-2.33179 -10.43421,-1.74432 -11.0586,-1.93164 -0.31399,-0.0942 -2.05188,-1.19196 -5.41015,-2.87109 -1.49332,-0.74666 -4.05317,-2.62449 -8.32032,-4.04688 -1.85758,-0.61918 -3.31912,-0.71961 -4.42382,-0.66601 -0.87576,-0.6365 -2.51816,-1.64864 -6.0918,-2.83985 -2.55418,-0.8514 -4.45582,-0.97909 -5.60156,-0.89453 z m 10.0039,3.92969 c 0.0192,-5.5e-4 0.0793,0.0178 0.0996,0.0176 -0.0938,0.0189 -0.36363,0.0474 -0.42383,0.0566 -0.29956,0.0462 -0.1783,-0.0599 0.32422,-0.0742 z m -34.83789,16.22656 c 0.24302,0.0179 2.1075,0.22656 6.24414,0.22656 h 5.25781 12.26758 c 0.73414,0 0.70709,0.0226 1.11328,0.0469 0.75629,0.58426 2.4119,1.66791 6.23829,2.94336 2.09926,0.69976 3.58306,0.7275 4.71093,0.62695 0.93158,0.46922 1.98677,1.08225 4.49414,2.33594 1.31489,0.65744 3.91897,2.73155 8.60938,4.13867 6.18233,1.85468 9.70452,1.47547 9.9707,1.57227 -0.86074,-0.313 1.03676,0.54292 2.8457,1.68554 1.80895,1.14262 4.0433,2.65264 6.22266,4.17188 4.35873,3.03847 8.59475,6.17702 9.37695,6.76367 5.1126,3.83446 10.24749,8.01775 15.67579,12.19336 2.66702,2.05155 5.01147,3.6287 6.77343,5.07031 3.89907,3.19015 7.84803,6.77796 12.14063,10.41016 3.7217,3.14914 7.27549,5.88637 10.33008,8.60156 0.44537,0.39589 1.97172,2.97981 6.08789,5.91992 3.29094,2.35067 5.34656,3.24183 6.17578,3.38281 0.34338,0.56025 0.86882,1.34424 1.83203,2.78907 l 0.54883,0.82422 0.69922,0.70117 c 0.64769,0.64768 1.89016,2.29025 4.33007,4.24218 3.57245,2.85797 5.19723,3.53122 4.4336,2.76758 0.84046,0.84046 0.74161,0.77144 1.11914,1.55664 0.37752,0.7852 1.12446,2.76539 2.63281,5.2793 1.83612,3.06018 3.07556,4.46166 3.13672,4.58398 -0.43882,-0.87762 -0.33905,1.07578 1.75195,5.25782 2.45685,4.91368 4.62815,7.28423 4.91602,8.0039 0.2273,0.56826 0.81862,3.60078 1.20117,7.07422 0.38255,3.47344 0.56,7.33832 2.17188,11.85156 2.81716,7.88809 6.38184,11.62335 6.69335,12.94727 0.50468,2.14485 -0.26562,6.69624 -0.26562,13.48047 v 28.03906 22.78125 14.01953 c 0,7.12349 0.58123,13.22832 0.0547,18.23047 -0.21593,2.05129 -2.66608,6.47314 -3.49805,13.96094 -0.87426,7.86835 0.33137,13.84319 -0.0215,17.72461 -0.50864,5.59495 -2.72578,12.46977 -3.50391,21.0293 -0.64625,7.10875 -1.0384,12.08929 -1.24609,15.58984 -0.2077,3.50055 -0.54145,4.46147 0.0137,7.89258 0.0999,0.61747 -0.25887,1.36531 0.74804,3.06054 -0.45175,3.65359 -0.37116,3.3261 -1.2246,9.86914 -0.78734,6.03623 -2.85425,13.08689 -3.55469,21.49219 -0.76183,9.14191 0.77755,15.98109 0.0898,20.2793 -0.94055,5.87841 -4.2377,12.82219 -6.75,21.61523 -1.49291,5.22518 -2.38826,9.99621 -3.52539,14.08985 -3.578,12.8808 -7.50779,25.75973 -13.2207,36.55078 -0.5582,1.05437 -2.88228,3.25091 -6.03516,7.26367 -6.10986,7.77619 -8.95399,11.53153 -10.53125,13.62891 -0.92612,0.56554 -1.64362,1.12231 -2.48633,1.81054 -2.65049,2.16467 -6.61966,5.84818 -14.23047,13.45899 -6.60063,6.60063 -10.8307,13.14907 -15.30664,17.08789 -11.99907,10.55919 -17.96878,14.56248 -24.41406,18.60937 -6.44528,4.0469 -13.65512,8.25022 -25.93945,17.80469 -9.18101,7.14079 -16.83217,14.86691 -24.64258,21.11524 -8.98901,7.1912 -31.48127,22.27921 -41.58984,29.43945 -7.51469,5.32291 -12.8965,10.7002 -17.96875,13.23633 -4.82406,2.41202 -12.59929,3.19251 -21.76758,6.57031 -5.81176,2.14117 -8.93352,4.6918 -10.41992,5.22266 -3.39394,1.21211 -7.80384,1.97727 -12.94727,3.1875 -8.57837,2.01843 -26.99601,5.98201 -33.94922,6.8164 -7.34824,0.88179 -15.23721,1.09549 -23.54101,1.67383 -4.59052,-0.0143 -10.11304,-0.55759 -16.52149,0.0527 -8.49936,0.80947 -15.36287,2.98878 -20.98633,3.5 -4.01418,0.36493 -9.90465,-0.69279 -17.52539,0 -8.46514,0.76956 -15.39489,2.91164 -21.16992,3.51954 -2.67842,0.28194 -6.43379,-0.0566 -11.2207,-0.0566 H 403.06053 369.76365 346.9824 c -4.75238,0 -8.52487,0.32565 -11.27344,0.0508 1.36667,0.13666 0.24658,-0.34641 -3.5039,-1.41797 -3.47173,-0.99192 -5.61549,-1.26353 -6.2461,-1.5 -0.81382,-0.30519 -0.55041,-0.21171 -1.20507,-0.46485 -1.25527,-3.06926 -3.11994,-5.12775 -5.75,-7.75781 -2.03475,-2.03474 -3.56099,-3.46111 -5.06836,-4.65625 -0.75369,-0.59757 -1.47506,-1.14557 -2.59375,-1.75391 -0.40416,-0.21977 -0.99615,-0.51566 -1.5918,-0.78906 -1.0077,-1.62644 -1.79078,-2.6413 -2.69336,-4.01367 -0.32929,-0.50068 -0.54966,-1.00768 -0.79102,-1.51172 0.0383,-0.91836 -0.0165,-2.11473 -0.40234,-3.6582 -1.24504,-4.98028 -2.60987,-6.17143 -1.9668,-4.24219 -0.27655,-0.82968 -0.50721,-3.26966 -1.7539,-7.00976 -1.22946,-3.6884 -2.23815,-4.8219 -1.875,-3.85352 -1.12394,-2.99718 -2.13454,-6.42707 -3.38086,-10.16602 -0.50612,-1.51833 -1.05508,-3.41379 -1.87695,-5.60546 -1.34381,-3.58347 -2.67947,-6.30988 -3.38086,-8.41407 0.0216,0.0648 0.30083,-3.12879 -2.29493,-8.32031 -3.04157,-6.08313 -5.56973,-7.73454 -5.06445,-6.59766 -0.0236,-0.053 -0.21345,-2.30947 -1.08398,-6.66211 -2.50118,-12.50592 -1.5586,-3.48363 -1.5586,-17.3164 v -10.51367 -5.25782 c 0,-2.2643 0.0316,-2.87116 -0.13672,-1.86132 0.13375,-0.8025 1.09576,-3.06083 1.75391,-7.00977 0.55245,-3.31461 0.13477,-5.07616 0.13477,-5.14844 v -3.5039 c 0,-0.98228 0.009,-1.41024 0.008,-1.77149 0.22059,0.0107 1.05327,-1.43934 1.64453,-5.57812 0.59711,-4.17976 0.10156,-7.03007 0.10156,-8.42383 v -7.00977 -10.51367 c 0,-2.76867 0.48714,-6.67232 -0.0625,-11.61914 -1.00895,-9.08055 -1.73214,-14.2516 -2.32617,-17.53711 -0.29701,-1.64275 -0.54364,-2.79611 -0.91211,-3.99805 -0.0541,-0.17648 -0.16119,-0.43112 -0.2168,-0.625 0.002,-1.05938 0.0117,-2.36155 0.0117,-6.52734 0,-4.11328 -0.25596,-6.44569 -0.16015,-6.97266 0.15491,-0.85204 2.33705,-4.09797 3.5039,-10.51562 1.24008,-6.82046 0.22615,-9.57644 -0.13672,-8.125 0.22968,-0.91869 3.74301,-4.63891 5.36133,-12.73047 1.50503,-7.52514 0.0244,-12.82156 0.17578,-15.39453 0.76815,-13.05852 0.70359,-10.85927 3.22461,-20.94336 0.86288,-3.45148 1.14474,-5.27243 1.18946,-5.37305 0.416,-0.93602 2.85029,-3.46636 5.22265,-8.68554 2.10637,-4.63401 2.94108,-8.64747 3.88867,-11.49024 l 0.19532,-0.59179 0.12304,-0.60938 c 0.87054,-4.35263 1.0604,-6.60903 1.08399,-6.66211 -0.24938,0.5611 1.65839,-1.06555 4.59961,-5.77148 2.05455,-3.28728 3.08313,-6.06665 3.96875,-7.83789 0.58413,-1.16826 1.16779,-2.33558 1.75195,-3.50391 0.95397,-1.90793 1.32173,-2.71892 1.12891,-2.42969 1.4497,-2.17456 2.95348,-4.21038 4.52929,-6.04883 0.0925,-0.10793 2.88088,-1.5606 5.98633,-6.21875 3.2508,-4.87621 4.45826,-9.01003 5.67774,-11.20507 0.34574,-0.62235 1.65056,-2.15654 3.33789,-4.96875 2.88286,-4.80478 4.70654,-8.93429 6.62695,-11.67774 -0.12981,0.18544 1.60004,-1.04124 4.53906,-4.34765 3.0222,-3.39998 6.30144,-7.04851 9.37696,-11.27735 5.351,-7.35762 6.96205,-12.3444 7.49609,-14.35351 0.53404,-2.00912 0.60674,-3.0439 6.75586,-12.26758 0.50946,-0.7642 3.86489,-2.79648 8.12305,-7.90625 8.96549,-10.75859 11.2375,-17.55825 18.94335,-25.90625 1.5081,-1.63377 5.54346,-3.77977 10.23829,-8.47461 4.11495,-4.11494 6.83198,-8.17964 9.32421,-11.125 3.75408,-4.43665 6.83619,-8.54126 9.95118,-11.65625 2.15043,-2.15043 5.92882,-4.54462 10.20117,-8.46094 4.29419,-3.93634 7.50221,-7.75333 10.51562,-10.51562 4.08251,-3.74231 5.95718,-5.42075 7.22071,-6.52344 0.87929,-0.26786 1.53687,-0.61427 2.14648,-0.9082 2.43573,-1.17443 4.62812,-2.6674 9.0332,-5.8711 4.67626,-3.4009 7.88082,-6.78561 10.63282,-8.84961 -1.6155,1.21162 2.10787,-0.85964 4.92773,-1.77344 1.40993,-0.45689 2.8061,-0.87921 3.95899,-1.23242 0.57644,-0.1766 1.08289,-0.33172 1.58789,-0.49804 0.505,-0.16633 -0.21299,0.63823 2.8457,-1.27344 3.11038,-1.944 4.25483,-4.06757 4.95117,-5.59766 0.78079,-0.17309 1.1311,-0.13627 2.44922,-0.70117 2.36484,-1.01351 5.38955,-2.22324 8.61719,-4.375 2.19172,-1.46114 3.17079,-2.79361 3.71679,-3.50781 1.0504,0.1082 3.16869,0.25687 6.16993,-0.17188 3.52416,-0.50345 6.25893,-1.43949 8.34375,-2.03515 2.825,-0.80716 4.41612,-1.53812 4.93554,-1.66797 1.66627,-0.41656 4.85351,-0.56837 9.20899,-1.875 5.89075,-1.76723 9.12214,-3.55731 9.97851,-3.95703 0.85638,-0.39973 0.57843,-0.46541 5.57813,-0.91993 1.7371,-0.15792 5.24157,0.44097 10.43945,0.008 9.70906,-0.80909 21.55304,-4.34967 27.24609,-5.38477 -1.19723,0.21768 -0.64601,0.16211 1.71485,0.16211 h 12.26758 8.76172 c 1.15784,0 1.22782,-0.0904 1.8496,-0.17383 2.68439,1.97088 6.86302,7.12231 16.01758,10.17383 0.52318,0.17439 0.9092,0.45673 2.88086,0.58594 0.98583,0.0646 2.60598,0.46631 5.71485,-1.31836 3.10886,-1.78467 5.34901,-7.624 4.91015,-10.32227 -0.80448,-4.94621 -1.91782,-4.89278 -2.49023,-5.26367 -0.34944,-0.70693 -0.75392,-1.50055 -1.24219,-2.52148 -0.62286,-1.30234 -1.10513,-2.94959 -3.86133,-5.27344 -1.3781,-1.16193 -3.75668,-2.52548 -6.69726,-2.66797 -1.02382,-0.0496 -1.95161,0.21794 -2.88868,0.43945 -1.36063,-0.86818 -2.74767,-1.74591 -4.46289,-2.60351 -3.45038,-1.72519 -6.52078,-1.4647 -8.11523,-1.29102 -1.59445,0.17368 -2.22973,0.23633 -1.61523,0.23633 h -8.76172 -12.26758 c 0.0243,0 -1.79685,-0.4755 -5.29297,0.16016 -7.97906,1.45074 -19.75157,4.66614 -25.32813,5.13086 -1.78764,0.14897 -5.346,-0.47086 -10.58984,0.006 -5.88645,0.53513 -9.67059,1.52181 -12.22656,2.71484 -1.36068,0.63511 -2.12435,1.04906 -3.14258,1.48828 0.95959,-0.63666 1.73874,-1.12668 2.73242,-1.82226 3.56604,-2.49622 5.3839,-4.30633 6.01563,-4.64649 3.77474,-2.03256 9.37194,-3.62063 15.71093,-6.97656 5.87264,-3.10905 10.38094,-6.61034 14.41016,-8.98047 4.99926,-2.94073 10.15848,-5.75679 15.4082,-8.55664 4.22908,-2.25551 6.98421,-4.01809 8.55469,-4.4668 1.90954,-0.54558 6.60525,-0.027 13.52149,-1.62304 5.43291,-1.25376 8.40529,-3.33823 9.67578,-3.76172 -0.24559,0.0819 15.32924,-3.23212 13.71484,-3.05274 -0.76019,0.0845 2.22348,1.28839 8.33008,-0.23828 3.4568,-0.86419 5.44245,-2.39158 6.52539,-3.0957 0.34821,-0.2264 0.42789,-0.25757 0.57617,-0.33594 z m 37.56055,3.61328 c 0.31079,-0.0479 0.12702,0.0491 -0.42383,0.0566 0.0937,-0.0189 0.36369,-0.0474 0.42383,-0.0566 z m -180.25195,42.1543 c 1.16256,-0.0821 2.4383,0.0152 3.63476,0.41406 4.78584,1.59528 5.48341,4.67681 5.83203,5.72266 0.0771,0.23133 0.0888,0.34835 0.13281,0.52343 -0.0137,0.004 -0.0866,0.0295 -0.0996,0.0332 -2.54683,0.72766 -4.43334,1.28903 -5.67774,1.46679 -1.48975,0.21283 -0.74599,0.0167 -3.54297,-0.0957 -2.15544,-0.0866 -5.23368,0.79981 -8.13672,2.07227 -0.0251,0.004 -0.10713,0.0142 -0.13086,0.0176 -0.0679,-0.28958 -0.13602,-0.26395 -0.14257,-1.15821 -0.0113,-1.54884 0.76695,-4.74551 2.79101,-6.76953 0.29718,-0.29718 0.90398,-0.93094 2.38672,-1.56641 0.74137,-0.31773 1.79056,-0.57801 2.95313,-0.66015 z m 11.46093,5.92383 c -0.008,-0.0313 0.0421,0.12682 0.043,0.10937 -0.007,0.003 -0.0201,0.005 -0.0273,0.008 -0.004,-0.0138 -0.0124,-0.10497 -0.0156,-0.11718 z m 117.77735,4.5664 c -0.62758,1.35029 -1.41034,2.60414 -2.3418,3.30274 -0.77973,0.5848 -2.29171,1.15867 -3.97656,1.43554 z m -11.01368,8.25977 c 0.2332,0.19003 0.41135,0.3408 0.57032,0.46875 -0.19705,-0.0725 -0.34934,-0.0781 -0.63282,-0.42188 z m -150.07031,8.37695 c -0.008,0.0192 -0.0391,0.084 -0.0469,0.10156 -0.19379,0.43764 -0.23757,0.30963 0.0469,-0.10156 z m 31.99219,0.97656 c 0.0304,0.004 0.0974,0.007 0.13477,0.0117 -0.14186,0.1376 0.16737,-0.0774 -0.41407,0.27149 0.44654,-0.26792 0.21454,-0.20157 0.2793,-0.28321 z m -57.60938,15.04493 c 0.0786,0.002 0.15193,0.0515 0.23243,0.0566 -0.20429,-0.0228 -0.38646,-0.004 -0.58985,-0.0176 0.15772,-0.003 0.1838,-0.0425 0.35742,-0.0391 z m -3.71093,19.19921 c 0.53113,0.18467 1.1058,0.27723 1.72851,0.41407 -0.69282,-0.10135 -1.1612,-0.24672 -1.72851,-0.41407 z m 366.47265,196.81446 c -0.0386,0.15115 -0.14313,0.6095 -0.15625,0.65234 -0.018,0.0587 -0.15511,-0.0411 0.15625,-0.65234 z M 275.6543,622.06445 c 0.004,0.002 0.86618,0.48536 1.89257,1.25196 -0.82241,-0.51471 -1.89748,-1.25403 -1.89257,-1.25196 z m 5.96093,6.64453 c 0.79393,1.94801 10e-4,1.7892 -0.002,1.60547 -0.002,-0.0948 0.002,-1.35191 0.002,-1.60547 z m -18.04101,8.09375 c 0.66628,0.88886 1.46409,1.73534 2.27148,2.3418 -0.42026,-0.28124 -0.58282,-0.28241 -0.92578,-0.61523 -0.77047,-0.74772 -1.02295,-1.22121 -1.3457,-1.72657 z m 520.75,37.37891 c 0.12507,0.16545 0.41095,0.37237 0.5039,0.52148 0.94871,1.52176 1.07156,2.31945 1.18946,2.77735 0.23579,0.9158 0.17155,0.69912 0.0293,0.10547 -0.14039,-0.58587 -0.71298,-1.97589 -1.72265,-3.4043 z m -6.78711,15.5918 c -0.47284,0.0801 -1.00038,0.085 -1.61524,0.0566 0.58271,0.022 1.11712,0.008 1.61524,-0.0566 z M 320.44336,829.67578 c 0.0938,0.0473 0.69433,-0.0186 1.50586,0.58203 -0.2565,-0.10104 -1.60809,-0.63357 -1.50586,-0.58203 z"
         id="path415" />
      <path
         style="baseline-shift:baseline;display:inline;overflow:visible;opacity:1;vector-effect:none;fill-rule:evenodd;enable-background:accumulate;stop-color:#000000;stop-opacity:1"
         d="m 585.93164,534.79687 c -0.95432,6.52636 1.47462,12.28301 3.55664,15.81641 2.08203,3.5334 3.62109,5.69205 3.98633,6.66602 1.36417,3.63778 2.54851,6.66752 3.10547,9.17382 -0.45012,-2.02548 -0.85881,-0.53904 -0.13867,4.50196 0.53464,3.74244 1.53339,6.35038 1.95117,8.02148 0.40055,1.60222 0.71453,4.423 2.09179,8.09571 1.73905,4.63743 3.37115,6.631 3.38086,6.66015 0.15745,0.47233 0.0256,3.58263 1.75196,8.76172 1.6425,4.92755 3.53342,7.10476 3.6289,7.35938 -0.0908,-0.24208 -0.24093,2.56922 1.97657,7.55859 2.56134,5.76305 4.97781,8.06349 4.99804,8.11914 l 1.23242,3.39062 0.30079,0.17579 c -0.78513,2.06467 -1.56974,5.09546 0.13086,10.19726 1.59674,4.79019 3.49905,7.04257 3.70703,7.5625 1.0813,2.70327 2.01066,6.08666 3.30273,9.96289 0.67572,2.02714 1.27469,3.62254 1.62305,4.8418 0.24738,0.86586 0.3041,3.83391 2.17578,8.20117 1.78604,4.16742 3.88202,6.12285 4.37695,6.86524 1.4227,2.13404 2.55275,3.63967 3.14258,4.67187 0.92916,1.62604 1.90851,3.85415 3.24219,6.52148 l 3.50586,7.00977 c -0.0987,-0.19746 0.22243,2.08411 3.01367,5.43359 2.88823,3.46588 5.71129,5.76989 7.62109,7.67969 2.33658,2.33658 4.67321,4.6732 7.00977,7.00977 1.16829,1.16829 2.33755,2.3356 3.50586,3.5039 0.20329,0.2033 0.17096,0.1789 0.32031,0.33399 0.2096,0.55248 0.78304,1.67163 1.93555,3.40039 1.28124,1.92187 2.09604,2.93026 2.43945,3.23242 0.19523,0.4104 0.0687,0.20376 0.44141,0.94922 0.58413,1.16825 1.16778,2.33753 1.75195,3.50586 0.2145,0.42943 0.73369,2.11614 2.375,4.57812 h 0.002 c 0.20006,0.3001 0.33945,0.37749 0.53125,0.62696 0.47047,1.53639 1.20078,3.13437 2.46875,4.40234 l 1.14844,1.14844 0.92188,0.46094 c 0.003,0.005 0.007,0.009 0.01,0.0137 -0.13536,0.67964 -0.13207,2.301 0.76172,4.98242 1.00933,3.02795 2.13239,4.48939 2.29492,4.81445 0.3357,0.67141 0.41567,0.83499 0.60156,1.2168 -0.0491,0.92906 -0.009,2.1318 0.39454,3.74609 0.92284,3.69135 2.14882,5.14196 2.3496,5.32813 0.3817,1.07689 0.70067,1.98312 0.81446,2.30469 -0.13971,1.04681 -0.31153,2.77445 0.55469,5.37304 0.33626,1.00835 0.7596,1.79164 1.1914,2.50196 -0.10393,1.17625 -0.18583,3.23775 1.10352,5.8164 0.32633,0.65269 0.6503,0.88013 0.99023,1.36328 0.19276,0.68093 0.37227,1.3598 0.76367,2.14258 0.21466,0.4293 0.42736,0.54231 0.65039,0.89649 -0.11271,1.09898 -0.27526,3.35958 1.10157,6.11328 1.21206,2.42411 2.44328,4.07987 3.28125,5.18554 -0.0177,0.93922 0.0724,1.67797 0.16992,2.16602 0.32873,1.64531 0.61305,2.00469 0.79101,2.38086 0.35593,0.75234 0.49939,0.94323 0.6543,1.19726 0.61966,1.01614 1.25986,1.94936 2.73633,4.16407 1.90872,2.86307 3.34232,3.61575 3.00195,3.27539 0.35505,0.35504 0.70943,0.71138 1.06446,1.0664 0.17726,0.52695 0.2772,1.01145 0.56835,1.59375 0.32572,0.65145 0.64899,0.87685 0.98829,1.35938 0.19278,0.68172 0.37173,1.36066 0.76367,2.14453 0.22728,0.45456 0.45309,0.57866 0.68945,0.94922 -0.17888,1.76157 -0.22013,5.50447 2.93555,8.66015 0.59415,0.59415 1.33784,1.23084 2.34765,1.89063 0.0936,0.14547 0.17975,0.24175 0.27344,0.375 0.19279,0.68172 0.37174,1.36065 0.76367,2.14453 1.12534,2.25067 3.35547,4.01335 5.38477,5.32813 0.44406,0.89674 0.98825,1.7695 1.74609,2.52734 0.88133,0.88133 1.97893,1.86234 3.87696,2.67578 1.89802,0.81344 4.9485,1.23265 7.61523,0.34375 5.33345,-1.7778 6.32175,-5.44378 6.81641,-6.92773 0.2096,-0.62879 0.2892,-1.04113 0.35937,-1.41016 h 0.1543 c 0,-0.95996 0.035,-1.24625 0.0137,-1.01172 -0.005,0.0586 -0.0132,0.15174 -0.0293,0.27735 -0.004,0.0314 -0.009,0.0645 -0.0137,0.0996 -10e-4,0.009 -0.003,0.0185 -0.004,0.0254 -10e-5,6.6e-4 -1.58228,-0.22787 -1.91797,-0.2754 0.11075,-0.40114 0.19825,-0.43039 0.27929,-1.38085 0.15167,-1.7787 -0.40649,-5.70728 -3.00976,-8.31055 -1.01822,-1.01822 -2.17418,-1.75482 -3.2793,-2.36719 -0.049,-0.10453 -0.0504,-0.18472 -0.10351,-0.29101 -0.32647,-0.65294 -0.65018,-0.88001 -0.99024,-1.36329 -0.19275,-0.68079 -0.37237,-1.35802 -0.76367,-2.14062 -0.48917,-0.97834 -0.86944,-1.72016 -1.25586,-2.41406 -0.326,-0.58541 -0.50857,-1.09472 -1.58984,-2.32032 -0.18026,-0.74833 -0.23418,-1.42734 -0.65821,-2.27539 -0.3259,-0.65181 -0.6488,-0.87861 -0.98828,-1.36132 -0.19277,-0.68138 -0.37197,-1.36113 -0.76367,-2.14454 -0.32616,-0.65231 -0.65049,-0.87836 -0.99023,-1.36132 -0.19277,-0.68122 -0.37014,-1.3594 -0.76172,-2.14258 h -0.002 c -2.25505,-4.51005 -4.53151,-5.25806 -3.625,-4.35156 -0.58418,-0.58419 -1.1678,-1.16781 -1.75195,-1.75196 -0.35198,-0.35198 -0.36151,-0.37276 -0.55469,-0.57812 -0.16567,-0.87586 -0.30828,-1.84283 -0.53515,-2.52344 -1.05842,-3.17527 -2.79022,-5.77316 -3.86133,-7.19922 -0.48792,-0.64961 -0.6136,-0.93204 -0.88281,-1.30859 v -0.59766 c 0,1.19864 -0.0693,1.17849 0.0391,0.18359 0.10837,-0.99489 0.37019,-3.48032 -1.09375,-6.4082 -0.32616,-0.65232 -0.65049,-0.87836 -0.99024,-1.36133 -0.19277,-0.68122 -0.37011,-1.35939 -0.76171,-2.14257 -0.10942,-0.21883 -0.21984,-0.25817 -0.33204,-0.45704 0.0439,-1.16463 -0.0948,-2.88991 -0.8789,-5.24218 -0.3773,-1.13191 -0.84471,-2.04826 -1.33594,-2.8086 -0.0451,-0.44679 0.008,-0.71897 -0.0977,-1.24804 -0.68661,-3.43298 -1.74763,-5.49098 -2.07031,-6.45899 l -0.22461,-0.67383 -0.31836,-0.63672 c -0.3355,-0.67101 -0.4157,-0.83309 -0.60156,-1.21484 0.0494,-0.92925 0.009,-2.13235 -0.39453,-3.74805 -1.01832,-4.0732 -2.57239,-5.67603 -2.50977,-5.55078 -0.49218,-0.98436 -0.3902,-0.70265 -0.59179,-1.07422 0.21397,0.0197 0.85476,-1.9631 -0.61719,-6.3789 -0.15029,-0.45088 -0.35825,-0.75177 -0.53516,-1.14063 -0.009,-0.35327 -0.0234,-0.87874 -0.0234,-0.8789 -1.1e-4,-5.8e-4 -0.42985,-1.63175 -0.69336,-2.22461 -2.10812,-4.7429 -3.14722,-3.9818 -3.74219,-4.36524 -0.92276,-0.59468 -1.19984,-0.65173 -1.56445,-0.7832 -0.74448,-1.1342 -1.36612,-1.9624 -1.9375,-2.44336 -0.0912,-0.23998 -0.12536,-0.37375 -0.8086,-1.74023 -0.58413,-1.16825 -1.16778,-2.33558 -1.75195,-3.50391 -0.21436,-0.42873 -0.73507,-2.11724 -2.37695,-4.58008 -1.04789,-1.57183 -1.56494,-2.16481 -1.9961,-2.64453 -0.32055,-0.64669 -0.67835,-1.36618 -1.50976,-2.61328 -1.90869,-2.86302 -3.3403,-3.61764 -3,-3.27734 -1.16827,-1.16826 -2.33757,-2.33562 -3.50586,-3.50391 -2.33658,-2.33659 -4.67319,-4.67319 -7.00977,-7.00977 -2.49176,-2.49175 -4.39464,-4.19722 -5.76953,-5.71679 -0.11323,-0.25836 -0.49773,-0.95641 -1.11914,-2.19922 l -3.50586,-7.00977 c -1.00291,-2.0058 -2.10259,-4.58772 -3.76563,-7.49804 -1.50007,-2.62513 -2.9533,-4.47294 -3.86718,-5.84375 -1.84165,-2.76247 -2.76149,-3.94412 -2.63477,-3.64844 -0.0258,-0.0602 -0.25219,-2.05258 -1.32812,-5.81836 -0.66658,-2.33304 -1.38828,-4.19415 -1.88086,-5.67188 -1.0445,-3.1335 -2.04418,-6.90925 -3.70703,-11.0664 -1.10836,-2.77089 -1.95938,-4.2765 -2.56446,-5.25782 0.0734,-0.49203 0.13101,-1.36229 0.52344,-3.10351 0.449,-1.99222 0.98259,-5.06033 -0.14648,-8.73242 -0.71229,-2.31658 -2.26568,-4.32957 -4.04102,-6.08789 -2.07244,-4.47005 -4.25708,-6.56427 -4.43164,-6.95703 0.26113,0.58755 0.25478,-1.70858 -1.52734,-6.46094 -1.73906,-4.63747 -3.37117,-6.63107 -3.38086,-6.66016 -0.15745,-0.47233 -0.0276,-3.58263 -1.75391,-8.76172 -1.6425,-4.92749 -3.53146,-7.10473 -3.62695,-7.35937 -0.3141,-0.83758 -0.64829,-2.85289 -1.41602,-5.92383 -0.75052,-3.00206 -1.40614,-4.97193 -1.55273,-5.99805 0.22448,1.57136 1.07176,-0.56678 -0.13867,-6.01367 -1.04593,-4.70665 -2.6721,-8.57481 -3.90235,-11.85547 -1.84383,-4.91688 -4.3449,-7.86835 -5.48242,-9.79883 -1.13752,-1.93047 -1.10956,-1.99164 -0.99609,-2.76757 z m 104.04688,189.6504 c 0.19823,0.0655 0.18717,0.12332 0.21875,0.19335 -0.0502,-0.0215 -0.31311,-0.15062 -0.40625,-0.1914 0.0236,0.006 0.16724,-0.009 0.1875,-0.002 z m -0.82813,0.01 0.19141,0.13867 c -0.19913,-0.0426 -0.39009,-0.0999 -0.61524,-0.13281 0.10996,0.005 0.33904,-0.0149 0.42383,-0.006 z m 4.39844,4.19141 c -0.27953,-0.19278 0.0514,-0.052 0.60937,0.47265 -0.16995,-0.1103 -0.53073,-0.41842 -0.60937,-0.47265 z m -19.83008,0.49414 c -0.0671,0.2558 -0.25875,1.18672 -0.33984,2.45312 -0.21413,-1.97655 0.44748,-2.86326 0.33984,-2.45312 z m 28.32031,29.16015 c -0.19079,-0.12394 0.31109,0.0295 1.01367,0.70508 -0.35981,-0.22281 -0.9201,-0.64429 -1.01367,-0.70508 z m 2.2168,7.33008 c -0.17755,-0.13011 0.082,-0.0273 0.5332,0.40625 -0.15505,-0.10308 -0.4711,-0.36074 -0.5332,-0.40625 z m 1.75195,3.50586 c -0.17755,-0.13012 0.0821,-0.0273 0.53321,0.40625 -0.15506,-0.10308 -0.47111,-0.36074 -0.53321,-0.40625 z m -16.56836,4.23633 c -0.002,0.008 -0.0182,0.1073 -0.0215,0.11914 -6e-4,-7.9e-4 -10e-4,-10e-4 -0.002,-0.002 0.001,0.004 0.0263,-0.13087 0.0234,-0.11719 z m -0.0879,0.45312 c 0.003,0.002 0.003,0.002 0.006,0.004 -0.0533,0.17036 -0.0968,0.55682 -0.16992,0.92774 0.0163,-0.67948 0.0925,-0.7504 0.16406,-0.93165 z m 0.77539,0.53907 c 0.36267,0.22495 0.92354,0.64789 1.01758,0.70898 0.19116,0.12419 -0.31284,-0.03 -1.01758,-0.70898 z m 19.12696,1.77929 c -0.0251,1.0236 -0.28516,1.53916 -0.25196,1.38282 0.0203,-0.0953 0.14296,-0.8316 0.25196,-1.38282 z m -17.35352,5.21289 c 0.15506,0.10309 0.4711,0.36074 0.5332,0.40625 0.17756,0.13013 -0.0821,0.0273 -0.5332,-0.40625 z m 17.80273,2.73438 c 0.8709,0.32997 1.1727,0.6807 1.45508,0.99414 -0.19196,-0.14744 -0.33145,-0.27485 -0.88476,-0.58984 -0.11778,-0.0671 -0.431,-0.26928 -0.57032,-0.4043 z m -16.05078,0.76953 c 0.15505,0.10308 0.47111,0.36074 0.53321,0.40625 0.17754,0.13012 -0.082,0.0273 -0.53321,-0.40625 z m 26.375,12.31445 c -0.17754,-0.13011 0.0821,-0.0273 0.53321,0.40625 -0.15505,-0.10307 -0.47111,-0.36074 -0.53321,-0.40625 z m 1.75196,3.50391 c -0.17756,-0.13012 0.0821,-0.0273 0.5332,0.40625 -0.15486,-0.10294 -0.47115,-0.36078 -0.5332,-0.40625 z m -22.75196,0.26758 c 0.0263,0.0226 0.24614,0.18539 0.29883,0.23242 -0.008,-0.006 -0.0414,-0.0275 -0.0488,-0.0332 -0.33047,-0.25459 -0.30953,-0.25039 -0.25,-0.19922 z m 4.43164,0.46289 c -0.0203,0.0956 -0.14278,0.83269 -0.25195,1.38672 0.0246,-1.02565 0.2852,-1.54324 0.25195,-1.38672 z m 19.81446,2.77344 c -0.012,0.4905 -0.0517,0.44748 -0.11524,0.68359 -0.002,-10e-4 -0.006,-0.003 -0.008,-0.004 0.0487,-0.16496 0.0695,-0.40882 0.12305,-0.67968 z m -18.0625,0.73242 c -0.0203,0.0955 -0.14287,0.83207 -0.25196,1.38476 0.0246,-1.02567 0.2852,-1.54127 0.25196,-1.38476 z m 21.82617,6.2793 c -0.17756,-0.13013 0.0821,-0.0273 0.5332,0.40625 -0.15505,-0.10309 -0.4711,-0.36074 -0.5332,-0.40625 z m -19.36524,1.70507 c 0.15506,0.10309 0.47111,0.36074 0.53321,0.40625 0.17756,0.13013 -0.0821,0.0273 -0.53321,-0.40625 z m 2.79688,2.5293 c -0.0203,0.0956 -0.14278,0.83269 -0.25195,1.38672 0.0246,-1.02568 0.28519,-1.54322 0.25195,-1.38672 z m -1.04102,0.97852 c 0.15354,0.102 0.4676,0.35908 0.5293,0.40429 0.17738,0.13 -0.0789,0.0282 -0.5293,-0.40429 z m 19.56446,1.43945 c 0.50511,0.0357 0.83693,0.19385 1.2832,0.28711 -2.9e-4,0.019 0.008,0.0497 0.008,0.0684 0.005,-0.0249 0.007,-0.0367 0.0117,-0.0625 0.34551,0.073 0.70333,0.12597 0.9961,0.22265 0.53415,1.36748 0.76529,2.5424 0.74609,3.3418 0.15614,-0.79111 0.26549,-1.62454 -0.0703,-3.18164 1.45403,0.62972 2.06875,1.2582 2.36328,1.55273 2.39675,2.39675 2.90319,6.05337 2.77734,7.5293 -0.0316,0.37021 -0.0349,0.17063 -0.0723,0.4043 -3.06852,-0.43445 -16.43059,-2.34458 -17.32813,-2.48047 2.25519,-0.40041 4.65896,-1.66322 6.00977,-3.15234 1.73899,-1.91706 2.26157,-3.30299 2.48437,-4.43946 0.26177,-3.5e-4 0.53803,-0.10772 0.79102,-0.0898 z m -1.49024,0.16992 c -0.0847,0.18322 -0.0329,0.20252 -0.14258,0.41016 -0.75706,1.43363 -2.69755,3.90386 -5.9375,4.875 -0.58983,0.17679 -1.14981,0.22843 -1.71093,0.28906 0.38955,-1.22948 1.21471,-3.85283 5.64648,-5.33008 0.70591,-0.2353 1.42279,-0.19377 2.14453,-0.24414 z m -15.28125,0.91797 c -0.0203,0.0955 -0.14286,0.8321 -0.25195,1.38477 0.0246,-1.02568 0.28519,-1.54126 0.25195,-1.38477 z m 2.46094,7.98437 c 0.15505,0.10308 0.47111,0.36075 0.5332,0.40625 0.17755,0.13012 -0.082,0.0273 -0.5332,-0.40625 z"
         id="path416" />
    </g>
  </g>
</svg>
