<?xml version="1.0" encoding="UTF-8" standalone="no"?>
<!-- Created with Inkscape (http://www.inkscape.org/) -->

<svg
   width="1000"
   height="1000"
   viewBox="0 0 1000 1000"
   version="1.1"
   id="svg1"
   xmlns:xlink="http://www.w3.org/1999/xlink"
   xmlns="http://www.w3.org/2000/svg"
   xmlns:svg="http://www.w3.org/2000/svg">
  <defs
     id="defs1">
    <pattern
       xlink:href="#pattern359"
       preserveAspectRatio="xMidYMid"
       id="pattern372"
       patternTransform="matrix(0.5,0,0,0.5,147.15462,1548.2922)" />
    <pattern
       xlink:href="#pattern357"
       preserveAspectRatio="xMidYMid"
       id="pattern371"
       patternTransform="matrix(0.5,0,0,0.5,221.32076,1552.4298)" />
    <pattern
       xlink:href="#pattern358"
       preserveAspectRatio="xMidYMid"
       id="pattern370"
       patternTransform="matrix(0.5,0,0,0.5,230.96346,1527.8214)" />
    <pattern
       xlink:href="#pattern355"
       preserveAspectRatio="xMidYMid"
       id="pattern369"
       patternTransform="matrix(0.5,0,0,0.5,287.08178,1553.6581)" />
    <pattern
       xlink:href="#pattern354"
       preserveAspectRatio="xMidYMid"
       id="pattern368"
       patternTransform="matrix(0.5,0,0,0.5,230.97274,1529.1717)" />
    <pattern
       xlink:href="#pattern342"
       preserveAspectRatio="xMidYMid"
       id="pattern360"
       patternTransform="matrix(0.5,0,0,0.5,210.45332,1525.5392)" />
    <pattern
       xlink:href="#pattern342"
       preserveAspectRatio="xMidYMid"
       id="pattern359"
       patternTransform="matrix(0.5,0,0,0.5,152.11125,1550.7705)" />
    <pattern
       xlink:href="#pattern342"
       preserveAspectRatio="xMidYMid"
       id="pattern358"
       patternTransform="matrix(0.5,0,0,0.5,202.11125,1533.2444)" />
    <pattern
       xlink:href="#pattern342"
       preserveAspectRatio="xMidYMid"
       id="pattern357"
       patternTransform="matrix(0.5,0,0,0.5,211.4075,1546.234)" />
    <pattern
       xlink:href="#pattern342"
       preserveAspectRatio="xMidYMid"
       id="pattern356"
       patternTransform="matrix(0.5,0,0,0.5,232.14929,1573.2544)" />
    <pattern
       xlink:href="#pattern342"
       preserveAspectRatio="xMidYMid"
       id="pattern355"
       patternTransform="matrix(0.5,0,0,0.5,275,1552.7287)" />
    <pattern
       xlink:href="#pattern342"
       preserveAspectRatio="xMidYMid"
       id="pattern354"
       patternTransform="matrix(0.5,0,0,0.5,235,1529.7913)" />
    <pattern
       xlink:href="#shading24"
       preserveAspectRatio="xMidYMid"
       id="pattern342"
       patternTransform="matrix(0.5,0,0,0.5,213.95332,1537.5392)"
       x="0"
       y="0" />
    <pattern
       patternUnits="userSpaceOnUse"
       width="338.5925"
       height="42.989567"
       patternTransform="translate(213.95332,1537.5392) scale(0.5)"
       preserveAspectRatio="xMidYMid"
       id="shading24"
       style="fill:#000000">
      <path
         style="fill-rule:nonzero;stroke:none;stroke-width:0.1;stroke-linecap:square;paint-order:markers fill stroke;stop-color:#000000"
         d="m 1806.4991,-758.06464 v 18.86792 c 55.9187,0 121.0493,0.59523 193.5686,3.15628 72.9408,2.57593 146.0589,6.87694 222.9288,13.47675 119.09,10.22471 223.0762,23.76065 340.6056,39.2177 117.5025,15.4535 222.0471,29.0563 341.8507,39.3312 77.366,6.63525 151.0001,10.96128 224.4674,13.55245 73.0344,2.5759 138.631,3.17493 194.9247,3.17493 -55.9642,0 -122.2215,-1.36594 -194.8324,-5.25394 -73.2143,-3.92032 -146.9676,-10.0663 -223.8166,-18.88656 -118.8791,-13.6442 -223.3242,-31.02113 -339.8009,-50.57815 -116.4705,-19.55598 -221.1862,-36.99475 -340.3724,-50.69165 -77.0605,-8.8558 -150.9942,-15.0266 -224.3694,-18.96225 -72.7637,-3.90286 -139.1256,-5.27261 -195.1541,-5.27261 z m 0,37.81515 v 18.86793 c 55.9187,0 121.0493,0.59523 193.5686,3.15627 72.9408,2.57593 146.0589,6.87694 222.9288,13.47676 119.09,10.22471 223.0762,23.76065 340.6056,39.2177 117.5025,15.4535 222.0471,29.0563 341.8507,39.33119 77.366,6.63526 151.0001,10.96128 224.4674,13.55245 73.0344,2.5759 138.631,3.17493 194.9247,3.17493 -55.9642,0 -122.2215,-1.36594 -194.8324,-5.25394 -73.2143,-3.92031 -146.9676,-10.0663 -223.8166,-18.88656 -118.8791,-13.6442 -223.3242,-31.02112 -339.8009,-50.57815 -116.4705,-19.55598 -221.1862,-36.99475 -340.3724,-50.69165 -77.0605,-8.8558 -150.9942,-15.02659 -224.3694,-18.96225 -72.7637,-3.90286 -139.1256,-5.2726 -195.1541,-5.2726 z m 0,37.81516 v 18.86792 c 55.9187,0 121.0493,0.59523 193.5686,3.15628 72.9408,2.57593 146.0589,6.87694 222.9288,13.47675 119.09,10.22471 223.0762,23.76065 340.6056,39.2177 117.5025,15.4535 222.0471,29.0563 341.8507,39.3312 77.366,6.63525 151.0001,10.96128 224.4674,13.55245 73.0344,2.5759 138.631,3.17493 194.9247,3.17493 -55.9642,0 -122.2215,-1.36594 -194.8324,-5.25394 -73.2143,-3.92032 -146.9676,-10.0663 -223.8166,-18.88656 -118.8791,-13.6442 -223.3242,-31.02113 -339.8009,-50.57815 -116.4705,-19.55598 -221.1862,-36.99475 -340.3724,-50.69165 -77.0605,-8.8558 -150.9942,-15.0266 -224.3694,-18.96225 -72.7637,-3.90286 -139.1256,-5.27261 -195.1541,-5.27261 z m 0,37.81515 v 18.86793 c 55.9187,0 121.0493,0.59523 193.5686,3.15627 72.9408,2.57593 146.0589,6.87694 222.9288,13.47676 119.09,10.22471 223.0762,23.76065 340.6056,39.2177 117.5025,15.4535 222.0471,29.0563 341.8507,39.33119 77.366,6.63526 151.0001,10.96128 224.4674,13.55245 73.0344,2.5759 138.631,3.17494 194.9247,3.17494 -55.9642,0 -122.2215,-1.36595 -194.8324,-5.25395 -73.2143,-3.92031 -146.9676,-10.0663 -223.8166,-18.88656 -118.8791,-13.6442 -223.3242,-31.02112 -339.8009,-50.57815 -116.4705,-19.55598 -221.1862,-36.99475 -340.3724,-50.69165 -77.0605,-8.8558 -150.9942,-15.02659 -224.3694,-18.96225 -72.7637,-3.90286 -139.1256,-5.2726 -195.1541,-5.2726 z m 0,37.81516 v 18.86792 c 55.9187,0 121.0493,0.59523 193.5686,3.15628 72.9408,2.57593 146.0589,6.87694 222.9288,13.47675 119.09,10.22471 223.0762,23.76065 340.6056,39.2177 117.5025,15.4535 222.0471,29.0563 341.8507,39.3312 77.366,6.63525 151.0001,10.96128 224.4674,13.55245 73.0344,2.5759 138.631,3.17493 194.9247,3.17493 -55.9642,0 -122.2215,-1.36594 -194.8324,-5.25394 -73.2143,-3.92032 -146.9676,-10.0663 -223.8166,-18.88656 -118.8791,-13.6442 -223.3242,-31.02113 -339.8009,-50.57815 -116.4705,-19.55598 -221.1862,-36.99475 -340.3724,-50.69165 -77.0605,-8.8558 -150.9942,-15.0266 -224.3694,-18.96225 -72.7637,-3.90286 -139.1256,-5.27261 -195.1541,-5.27261 z m 0,37.81515 v 18.86793 c 55.9187,0 121.0493,0.59523 193.5686,3.15627 72.9408,2.57593 146.0589,6.87694 222.9288,13.47676 119.09,10.22471 223.0762,23.76065 340.6056,39.2177 117.5025,15.4535 222.0471,29.0563 341.8507,39.33119 77.366,6.63526 151.0001,10.96128 224.4674,13.55245 73.0344,2.5759 138.631,3.17494 194.9247,3.17494 -55.9642,0 -122.2215,-1.36595 -194.8324,-5.25395 -73.2143,-3.92031 -146.9676,-10.0663 -223.8166,-18.88656 -118.8791,-13.6442 -223.3242,-31.02112 -339.8009,-50.57815 -116.4705,-19.55598 -221.1862,-36.99475 -340.3724,-50.69165 -77.0605,-8.8558 -150.9942,-15.02659 -224.3694,-18.96225 -72.7637,-3.90286 -139.1256,-5.2726 -195.1541,-5.2726 z m 0,37.81516 v 18.86792 c 55.9187,0 121.0493,0.59523 193.5686,3.15628 72.9408,2.57593 146.0589,6.87694 222.9288,13.47675 119.09,10.22471 223.0762,23.76065 340.6056,39.2177 117.5025,15.4535 222.0471,29.0563 341.8507,39.3312 77.366,6.63525 151.0001,10.96128 224.4674,13.55245 73.0344,2.5759 138.631,3.17493 194.9247,3.17493 -55.9642,0 -122.2215,-1.36594 -194.8324,-5.25394 -73.2143,-3.92032 -146.9676,-10.0663 -223.8166,-18.88656 -118.8791,-13.6442 -223.3242,-31.02113 -339.8009,-50.57815 -116.4705,-19.55598 -221.1862,-36.99475 -340.3724,-50.69165 -77.0605,-8.8558 -150.9942,-15.0266 -224.3694,-18.96225 -72.7637,-3.90286 -139.1256,-5.27261 -195.1541,-5.27261 z"
         id="use26"
         transform="matrix(0.22300099,0,0,0.37823052,-402.85121,237.25945)" />
    </pattern>
    <clipPath
       clipPathUnits="userSpaceOnUse"
       id="clipPath54">
      <path
         id="path336"
         style="stroke-width:0.0999999;stroke-linecap:square;paint-order:markers fill stroke;stop-color:#000000"
         d="m 1691.1994,-792.32001 h 1634.8919 v 92.82806 H 1691.1994 Z" />
    </clipPath>
    <clipPath
       clipPathUnits="userSpaceOnUse"
       id="clipPath33">
      <rect
         style="fill:#000000;stroke:none;stroke-width:0.999995;stroke-linecap:butt;stroke-linejoin:bevel;paint-order:stroke markers fill;stop-color:#000000"
         id="rect33"
         width="46.19186"
         height="80.006783"
         x="74.999985"
         y="399.99661" />
    </clipPath>
    <clipPath
       clipPathUnits="userSpaceOnUse"
       id="clipPath27">
      <rect
         style="fill:none;stroke:#000000;stroke-width:0.999999;stroke-linecap:butt;stroke-linejoin:bevel;paint-order:stroke markers fill;stop-color:#000000"
         id="rect28-6"
         width="46.160622"
         height="39.922417"
         x="86.574379"
         y="420.06253" />
    </clipPath>
    <clipPath
       clipPathUnits="userSpaceOnUse"
       id="clipPath25">
      <rect
         style="fill:#ff0000;stroke:none;stroke-width:3;stroke-linecap:square;stroke-linejoin:miter;paint-order:stroke markers fill;stop-color:#000000"
         id="rect25-8"
         width="78"
         height="45.033199"
         x="763.61322"
         y="452.82422" />
    </clipPath>
    <clipPath
       clipPathUnits="userSpaceOnUse"
       id="clipPath15">
      <rect
         style="fill:none;stroke:#000000;stroke-linecap:butt;stroke-linejoin:bevel;paint-order:stroke markers fill;stop-color:#000000"
         id="rect15-7"
         width="45.034248"
         height="38.955639"
         x="262.48285"
         y="121.00073" />
    </clipPath>
    <linearGradient
       id="swatch75">
      <stop
         style="stop-color:#000000;stop-opacity:1;"
         offset="0"
         id="stop75" />
    </linearGradient>
  </defs>
  <g
     id="layer51"
     style="display:inline">
    <g
       id="layer61"
       style="display:inline">
      <path
         style="baseline-shift:baseline;display:inline;overflow:visible;opacity:1;vector-effect:none;fill-rule:evenodd;enable-background:accumulate;stop-color:#000000;stop-opacity:1"
         d="m 300.18164,196.27344 c 0,8.46358 0.84773,15.6721 0.084,21.47656 -2.78602,21.17381 -3.64097,27.08262 -4.99023,36.90625 -0.17698,0.12981 -0.49011,0.26028 -0.63477,0.38086 -2.46791,2.0571 -2.60306,3.11112 -3.02343,3.99805 -1.68148,3.54772 -2.14189,6.22247 -3.46485,12.17578 -2.50258,11.26163 -3.78109,17.06365 -4.4082,20.25781 -0.31355,1.59708 -0.71692,1.17111 -0.55469,4.80273 0.0342,0.76623 -0.56442,2.12897 1.48438,4.92969 -0.0807,0.97615 -0.0712,1.34787 -0.21094,2.67578 -0.6944,6.5969 -2.71837,14.13069 -3.51758,22.92188 -0.61534,6.76883 0.16982,12.19543 -0.0293,16.17773 -0.2794,5.58792 -1.43649,11.99621 -1.75586,19.3418 -0.32964,7.58173 -0.008,14.74469 -0.008,21.46484 0,5.27674 0.35482,9.6615 0.041,13.11328 -0.65778,7.23553 -2.62704,15.30555 -3.50195,24.49219 -0.50754,5.32903 -0.0449,9.7579 -0.0449,13.21485 v 24.5332 8.76367 c 0,2.57933 0.0904,3.91773 0.0781,4.01563 -0.17709,1.41672 -1.25935,4.30685 -1.76953,8.89843 -0.39408,3.54675 -0.12145,6.29253 -0.0234,9.49414 0.098,3.20161 -0.18093,7.4098 0.0977,5.73828 -0.41529,2.49171 -2.01985,6.1985 -3.3418,11.48633 -0.87623,3.50491 -1.33351,6.61679 -1.85547,9.22657 -0.44485,2.22428 -1.50798,5.43548 -1.90625,9.8164 -0.28605,3.14654 -0.24066,5.46016 -0.11523,6.95899 -1.0532,1.05246 -2.15164,2.50571 -2.91797,4.80468 -2.07223,6.21667 -0.51367,9.94348 -0.51367,10.17188 v 8.76172 c 0,1.96439 0.007,2.37198 0.0137,3.14843 -0.0711,0.29977 -0.29384,0.78289 -0.36328,1.0918 -0.41622,1.8515 -0.78208,4.20196 -1.32422,8.53906 -0.50677,4.05421 -0.12442,5.73256 -0.0156,5.20313 -0.3116,1.55801 -0.62394,3.1158 -0.93554,4.67383 -1.33679,1.16383 -3.08504,2.93826 -4,6.14062 -1.98638,6.95237 -0.35925,10.76629 -0.33399,10.51367 -0.11858,1.18579 -1.15373,3.95048 -1.72461,8.51758 -0.50466,4.0372 -0.0674,5.90218 -0.0273,5.50196 -0.31604,3.1603 -1.33617,7.25482 -1.76758,12.43164 -0.3345,4.01406 -0.0352,7.22666 -0.0352,9.59375 0,3.93444 0.25107,6.35734 0.11524,7.24023 -0.47964,3.11766 -2.33202,7.55368 -3.45899,13.75195 -0.74016,4.07087 -0.16211,6.48704 -0.16211,7.04688 0,4.75236 0.32564,8.5229 0.0508,11.27148 0.22652,-2.26523 -0.89417,-0.81112 -1.70118,4.83789 -0.58158,4.07111 -0.30476,5.89834 -0.12304,6.4375 -0.31219,0.14491 -1.08117,1.98226 -1.63086,5.83008 -0.59711,4.17975 -0.0996,7.03005 -0.0996,8.42383 v 7.00977 c 0,0.48422 -0.0103,0.41308 -0.0195,0.79492 -0.95449,0.95539 -1.97409,2.26528 -2.76953,4.2539 -2.48994,6.22481 -0.7168,9.69421 -0.7168,8.97071 0,2.57932 0.0904,3.91773 0.0781,4.01562 -0.18841,1.50734 -1.20147,4.35989 -1.75195,8.76367 -0.26462,2.11699 -0.29221,3.37729 -0.25781,4.19727 -0.54422,0.9517 -1.1146,2.23443 -1.43555,4.16016 -0.74449,4.46694 -0.13672,7.4137 -0.13672,8.65429 v 5.15625 c -0.74591,0.96396 -1.76441,2.58681 -2.78906,5.14844 -2.27299,5.68246 -0.7168,8.52639 -0.7168,7.21875 v 6.50195 c -0.45137,0.72774 -0.88852,1.55427 -1.23828,2.60352 -1.7028,5.10835 -0.51367,7.60789 -0.51367,6.66797 v 12.26562 7.20508 c -0.17868,0.25941 -0.68706,0.99032 -0.88477,1.37305 -0.23226,0.44962 -0.38343,0.81833 -0.5,1.13476 -0.23312,0.63287 -0.33143,1.06301 -0.40429,1.41016 -0.14573,0.69429 -0.16978,1.06896 -0.19141,1.37891 -0.0865,1.23979 -0.006,1.52897 0.0508,2.01367 0.008,0.0704 0.0639,0.18775 0.0723,0.25781 8.4e-4,0.0103 0.003,0.1767 0.004,0.19141 0.0117,-0.0162 0.0266,-0.0608 0.0215,-0.0937 -0.003,-0.0173 2.8e-4,-6.8e-4 -0.002,-0.0156 0.0635,0.51937 0.33385,1.25182 0.53711,1.91016 -0.27074,-0.64578 -0.51172,-1.23793 -0.54688,-1.4375 0.0296,0.47917 0.0918,1.42496 0.0918,3.94922 v 9.96484 c -0.45998,0.72695 -0.89182,1.59928 -1.24024,2.64453 -0.36648,1.09945 -0.33787,1.83353 -0.41797,2.67774 -0.2656,0.40937 -0.53328,0.75406 -0.79101,1.26953 -0.39171,0.78341 -0.57089,1.46314 -0.76367,2.14453 -0.33949,0.48271 -0.66238,0.70952 -0.98828,1.36133 -1.46395,2.92788 -1.20408,5.4133 -1.09571,6.4082 0.10838,0.9949 0.0391,1.01507 0.0391,-0.18359 v 1.75195 c 0,-2.06501 0.19206,-1.98194 -0.0215,-0.68555 -0.21354,1.29639 -0.58875,5.96993 2.95117,9.50977 3.53988,3.53988 8.21145,3.16275 9.50781,2.94922 1.29637,-0.21353 1.37941,-0.0215 -0.68554,-0.0215 V 833.2989 c 1.60122,0.19784 3.52127,0.75174 5.32031,2.55078 1.43776,1.43772 2.08318,3.05814 2.40625,4.47656 -6.1e-4,0.003 -0.001,0.005 -0.002,0.008 -0.16783,0.1986 -0.37993,0.59333 -0.51953,0.72461 0.11071,-0.0719 0.25596,-0.20866 0.39648,-0.30859 -0.14131,0.47528 -0.13991,0.84818 -0.4082,1.38477 -0.59812,1.19625 -1.19763,1.90178 -1.625,2.3125 0.5209,-0.34631 1.32001,-1.21605 2.32422,-2.61524 0.0303,0.75171 0.10307,1.69159 0.0684,1.90234 -0.10138,0.61546 0.21003,-0.22518 0.26367,-2.35937 0.24714,-0.38348 0.48319,-0.51717 0.7207,-0.99219 0.27983,-0.55966 0.37071,-1.02262 0.54492,-1.53125 0.64386,-0.8507 1.27578,-1.86049 1.75,-3.2832 0.36651,-1.0995 0.33983,-1.83349 0.41992,-2.67774 0.26553,-0.40928 0.53141,-0.75421 0.78907,-1.26953 1.46392,-2.9279 1.20407,-5.41333 1.0957,-6.4082 -0.10837,-0.99487 -0.0391,-1.01502 -0.0391,0.18359 v -1.75195 -10.51562 c 0,-0.72012 -0.0348,-0.82031 -0.041,-1.40625 0.19729,-0.35812 0.55432,-0.76294 0.73828,-1.13086 1.46399,-2.92793 1.20213,-5.41331 1.09375,-6.40821 -0.10837,-0.99489 -0.0391,-1.01504 -0.0391,0.1836 v -1.75196 -8.76367 -11.7539 c 0.45214,-0.72841 0.88996,-1.55658 1.24023,-2.60743 1.70281,-5.10835 0.51172,-7.60788 0.51172,-6.66796 v -7.00977 c 0,-0.11178 0.009,-0.0539 0.01,-0.1582 0.57729,-0.77117 1.38009,-2.01216 2.43945,-4.13086 1.46394,-2.92788 1.20408,-5.41331 1.09571,-6.40821 -0.10838,-0.99489 -0.0391,-1.01504 -0.0391,0.1836 v -7.00977 c 0,-2.74405 -0.0805,-3.64675 -0.10937,-4.28906 0.57045,-0.87642 1.23605,-2.10405 1.66797,-4.26367 1.0175,-5.08749 0.26785,-7.18389 0.11718,-5.97852 0.18842,-1.50733 1.20148,-4.35793 1.75196,-8.76172 0.42248,-3.37991 0.0762,-5.5725 0.0762,-6.49804 0,-0.48514 0.0103,-0.41451 0.0195,-0.79688 0.95449,-0.95539 1.97604,-2.26333 2.77148,-4.25195 2.48995,-6.22482 0.71485,-9.69423 0.71485,-8.9707 v -7.00977 c 0,-3.27938 -0.16534,-5.14927 -0.10156,-5.5957 -0.24473,1.71306 0.98672,0.11263 1.7539,-5.25782 0.54912,-3.84371 0.32959,-5.61362 0.14844,-6.3125 0.36607,-0.12195 1.22967,-2.12689 1.6543,-6.37304 0.53888,-5.38884 0.0488,-9.83607 0.0488,-13.26172 0,-2.94502 -0.047,-4.09128 -0.16015,-3.46875 0.59642,-3.28029 2.56356,-7.88481 3.54883,-14.28906 0.75241,-4.89063 0.11718,-8.37426 0.11718,-10.28125 0,-3.47435 -0.18575,-6.12445 -0.0351,-7.93164 0.25465,-3.05571 1.23229,-7.04376 1.73828,-12.10352 0.38876,-3.88768 0.0426,-5.57111 -0.0273,-5.01172 0.168,-1.34401 1.30511,-4.26603 1.77929,-9.00781 0.28175,-2.81749 0.27635,-4.63302 0.18946,-5.83399 0.22973,-0.21024 0.1753,-0.0972 0.43554,-0.35742 l 2.14063,-2.14062 0.59375,-2.96875 c 0.58413,-2.92071 1.16976,-5.84098 1.7539,-8.76172 l 0.0703,-0.35742 0.0469,-0.36328 c 0.52505,-4.20042 0.0903,-5.98043 0,-5.25782 0.40536,-3.24284 0.62473,-4.40079 0.79297,-5.31445 0.88205,-1.47843 0.77693,-2.35353 0.875,-2.87891 0.14104,-0.75561 0.14548,-1.06696 0.16016,-1.3164 0.0293,-0.49889 0.0213,-0.66493 0.0215,-0.87305 7.9e-4,-0.83248 -0.0215,-1.94105 -0.0215,-4.87695 v -8.76172 c 0,-1.21563 -0.0143,-1.59604 -0.0176,-2.33008 1.23532,-1.19088 2.53479,-3.0005 3.22461,-5.75977 1.77798,-7.11197 0.1972,-11.36652 0.25781,-12.0332 0.14107,-1.55173 0.87618,-4.08987 1.59961,-7.70703 0.64634,-3.23168 1.07789,-6.02447 1.64648,-8.29883 0.74087,-2.96349 2.685,-7.14904 3.66797,-13.04687 0.7167,-4.30017 0.2632,-6.40204 0.16406,-9.64063 -0.0991,-3.23858 -0.0443,-7.06424 -0.0879,-6.67187 h -0.002 c 0.14768,-1.32912 1.17648,-4.13254 1.73828,-8.62696 0.42249,-3.3799 0.0762,-5.57053 0.0762,-6.49609 v -8.76367 -24.5332 c 0,-4.72108 -0.31274,-8.50622 -0.0449,-11.31836 0.69153,-7.26102 2.6717,-15.35942 3.50977,-24.57813 0.53238,-5.85616 0.041,-10.85424 0.041,-14.92383 0,-7.29931 -0.28909,-14.17119 -0.01,-20.5957 0.24115,-5.54639 1.38304,-11.91078 1.74804,-19.21094 0.32597,-6.51918 -0.36394,-11.66459 -0.0273,-15.36719 0.59222,-6.51172 2.5761,-13.95435 3.49024,-22.63867 0.38084,-3.61803 0.57762,-6.19253 0.63085,-8.26562 0.0435,-1.69225 0.21742,-2.92861 -0.56835,-5.4336 2.59293,-0.80963 4.04654,-2.47865 4.70703,-3.30664 0.91644,-1.14884 1.13865,-1.75428 1.3457,-2.21875 0.4141,-0.92893 0.48684,-1.29605 0.58398,-1.65039 0.19429,-0.70868 0.27794,-1.1565 0.38477,-1.71679 0.21365,-1.12058 0.44351,-2.52794 0.74609,-4.52539 1.21035,-7.98984 3.52242,-25.1325 7.91211,-58.49415 1.21758,-9.25352 0.0859,-17.36175 0.0859,-24.08593 z m -14.52344,93.15429 c -0.13679,0.2522 -0.70158,1.00988 -0.68359,0.98047 0.0146,-0.0239 0.0303,-0.27476 0.68359,-0.98047 z m -4.56836,258.38282 c -0.63664,0.64765 -1.03245,0.69798 -0.57617,0.41015 0.085,-0.0536 0.43452,-0.32895 0.57617,-0.41015 z m -7.69922,4.72656 c -6.5e-4,0 0.97445,0.18179 1.75196,0.29687 -2.18011,-0.22252 -4.72859,0.18067 -6.57617,0.98829 0.28581,-0.15466 0.72679,-0.41613 0.72656,-0.41602 -0.001,5.1e-4 4.09888,-0.86914 4.09765,-0.86914 z m 1.91602,0.32422 c 0.59975,0.0932 0.99099,0.10698 1.33594,0.22656 0.22433,0.0778 0.31569,0.15741 0.50781,0.23828 -0.54657,-0.20768 -1.14572,-0.38257 -1.84375,-0.46484 z m 2.79883,0.91406 c 0.12201,0.0679 0.33159,0.14094 0.4375,0.20508 0.39796,0.24101 0.1837,0.16881 0.43555,0.34765 -0.26881,-0.18437 -0.50024,-0.34881 -0.87305,-0.55273 z m -14.15039,4.95703 c -0.0911,0.20855 -0.0954,0.31135 -0.16211,0.48828 0.0429,-0.1676 0.0838,-0.29085 0.16211,-0.48828 z m 2.17578,10.71094 c 0.0685,0.0714 0.7645,0.63619 1.44141,1.1543 -1.04166,-0.72475 -1.57935,-1.29793 -1.44141,-1.1543 z m 2.68945,1.94336 c 0.10235,0.0543 0.22956,0.10705 0.34375,0.16211 -0.0411,-0.0179 -0.10675,-0.0183 -0.14648,-0.0371 -0.10117,-0.0478 -0.10234,-0.0776 -0.19727,-0.125 z M 248.4707,703.22461 c -0.0469,0.032 -0.23627,0.17668 -0.30078,0.2168 0.44988,-0.44097 0.67392,-0.47115 0.30078,-0.2168 z m 11.56641,16.30664 c -0.45112,0.44279 -0.67637,0.47344 -0.30274,0.21875 0.0473,-0.0322 0.23764,-0.17828 0.30274,-0.21875 z m -1.94531,25.43945 c -0.19853,0.39273 -0.31122,0.46214 -0.12891,0.19532 0.0207,-0.0303 0.10125,-0.15756 0.12891,-0.19532 z m -19.07422,23.84766 c -0.0936,0.0608 -0.6536,0.48208 -1.01367,0.70508 0.70303,-0.67632 1.20453,-0.82907 1.01367,-0.70508 z m 11.91015,16.06641 c -0.70342,0.67693 -1.20656,0.82912 -1.01562,0.70507 0.0938,-0.0609 0.65445,-0.48124 1.01562,-0.70507 z m -15.68554,34.89062 c -0.0792,0.0546 -0.44172,0.36514 -0.61328,0.47656 0.55929,-0.52656 0.89316,-0.66959 0.61328,-0.47656 z m -3.69922,8.94531 c -0.0617,0.0452 -0.37576,0.3023 -0.5293,0.4043 0.45036,-0.43249 0.70669,-0.5343 0.5293,-0.4043 z m 18.42383,0.40821 c -0.0478,-0.31011 0.0487,-0.12985 0.0566,0.41796 -0.0186,-0.092 -0.0475,-0.35864 -0.0566,-0.41796 z m -19.82227,2.6289 c 0.0187,0.0925 0.0455,0.36036 0.0547,0.41992 0.0478,0.31035 -0.0469,0.12904 -0.0547,-0.41992 z m 17.96875,1.19922 c -0.0332,-0.15651 0.22733,0.35907 0.25195,1.38477 -0.10908,-0.5527 -0.23167,-1.2893 -0.25195,-1.38477 z m -19.81641,2.76953 c 0.10909,0.5527 0.23168,1.28931 0.25196,1.38477 0.0332,0.1565 -0.22733,-0.35909 -0.25196,-1.38477 z"
         id="path417" />
      <path
         style="baseline-shift:baseline;display:inline;overflow:visible;opacity:1;vector-effect:none;fill-rule:evenodd;enable-background:accumulate;stop-color:#000000;stop-opacity:1"
         d="m 339.79883,203.66016 c -2.45711,0.0437 -4.73685,0.13671 -6.83594,0.13671 v 20 c 5.14814,0 9.59291,-0.29065 13.30664,-0.0254 11.1141,0.79387 22.75166,2.68488 35.0957,3.50782 66.65363,4.44357 65.19899,3.52734 126.83985,3.52734 50.03587,0 63.273,-1.33383 111.16211,3.45508 4.55348,0.45535 10.02314,2.13544 16.67578,3.38281 9.04726,1.69637 18.57767,2.78631 24.9668,4.91602 2.19973,0.73325 5.08031,2.43394 8.82031,4.51172 1.03102,0.57279 2.4608,1.6124 4.3789,2.95507 4.01913,2.81339 7.11651,4.70528 9.33789,6.44532 0.21858,1.29794 0.68933,2.96936 2.2793,5.19531 3.67373,5.14321 6.91513,6.90036 7.25391,7.33594 3.23145,4.15471 4.16337,7.73899 7.91406,14.49023 1.71609,3.08897 3.55954,6.27387 5.67773,9.45117 2.34423,3.51634 4.34468,5.55891 5.09766,6.76367 0.71458,1.14334 1.59006,3.27974 3.04102,6.18164 1.34337,2.68677 2.53718,4.79509 3.25781,6.47657 0.29148,0.68013 0.6978,2.2028 1.45703,4.48047 l 0.0937,0.27929 0.10742,0.27344 c 1.07493,2.68734 2.17057,5.77536 3.65235,9.10938 1.65689,3.72799 2.99737,5.93028 3.49023,6.97851 0.49286,1.04823 0.6613,1.33447 0.9668,4.08399 0.0786,0.70774 -0.56644,3.66374 0,8.76171 0.53875,4.8488 1.77089,7.17752 1.79101,7.31836 v 0.002 c -0.0188,-0.13191 -0.0996,1.14652 -0.0996,3.84179 v 7.00977 15.77148 19.27735 c 0,3.07281 0.15598,5.04743 0.0606,5.90625 -0.23618,2.12566 -0.80741,4.60659 -1.51562,7.43945 -0.2,0.8 -0.79128,2.28398 -1.53711,4.52148 -0.75924,2.27769 -1.16555,3.80033 -1.45704,4.48047 -0.72065,1.68152 -1.91444,3.78984 -3.25781,6.47657 -1.05794,2.11588 -2.37885,4.51629 -3.66406,7.34375 -2.2212,4.88663 -3.47463,8.94242 -4.93359,11.61718 -0.4814,0.88256 -2.14952,2.69415 -4.47657,5.79688 -1.41321,1.88429 -3.59104,4.27535 -5.73828,7.71094 -2.68914,4.30264 -3.26541,6.62861 -3.02539,6.30859 -0.35575,0.47434 -3.27883,2.2123 -6.90234,6.87109 -3.27,4.20429 -4.59373,7.71774 -5.68555,9.35547 -1.12398,1.68597 -2.97943,3.81418 -5.07226,6.74414 -1.88738,2.64231 -2.74888,4.30568 -3.05079,4.66797 -3.25751,3.90902 -5.08529,4.792 -10.58398,8.91602 -2.46056,1.84543 -4.69783,3.60169 -6.82227,5.11914 -0.96789,0.69136 -2.98402,1.7278 -5.58398,3.75 -4.9969,3.88647 -7.45483,6.82681 -8.6582,7.54297 -0.20542,0.0309 -0.6254,0.10325 -1.39844,0.14062 -1.63886,0.0792 -4.50724,-0.0356 -8.25195,1.32617 -6.06309,2.20476 -8.82536,5.21542 -9.81641,5.71094 -1.73831,0.86915 -4.54587,1.72256 -8.13672,3.21875 -4.88462,2.03527 -8.52665,4.05748 -11.36133,4.92969 -1.41079,0.43409 -4.72642,0.47235 -9.66797,1.53125 -5.15174,1.10394 -9.89557,2.46852 -14.34961,3.58203 -5.0586,1.26465 -9.48403,2.63568 -13.4375,3.37695 -3.50058,0.65636 -8.21551,0.72876 -13.91406,1.73438 -5.9544,1.05078 -11.25843,2.54803 -16.0957,3.5664 -5.69757,1.19949 -11.51636,2.30288 -17.42383,3.48438 -6.20409,1.24081 -11.81345,2.67425 -16.97851,3.41211 0.0574,-0.008 -2.06963,-0.4024 -6.36133,-0.0723 -5.94965,0.45767 -11.17496,1.40019 -15.77344,1.75391 -1.31008,0.10078 -3.39429,-0.0293 -6.24219,-0.0293 h -10.51367 -19.27734 -26.28711 -3.50391 c -2.69528,0 -3.97565,0.0808 -3.84375,0.0996 -0.34698,-0.0496 -2.58817,-1.1203 -7.00976,-1.75195 -2.13836,-0.30548 -3.475,-0.33043 -4.36329,-0.29102 -0.9426,-0.95853 -1.85444,-1.47991 -2.64062,-1.97851 -1.39643,-0.88563 -2.76629,-1.54047 -4.49024,-2.2793 -4.33163,-1.85641 -6.45514,-2.78421 -9.25976,-3.42578 -1.35377,-0.30968 -3.23183,-1.3948 -7.48828,0.66211 -1.32971,-0.50906 -3.04232,-1.38403 -6.46094,-2.66602 -1.71391,-0.64271 -3.79793,-1.45338 -6.34375,-2.08984 -3.6424,-0.9106 -6.69645,-1.29865 -9.01758,-1.81445 -1.22467,-0.27216 -3.78452,-1.39274 -7.93945,-1.91211 -1.79213,-0.22401 -3.08472,-0.16427 -4.12109,-0.0586 -0.59095,-0.59529 -1.07298,-1.16844 -2.08594,-1.84375 -3.31993,-2.21331 -6.57332,-1.86573 -7.70703,-1.71484 -1.13372,0.15088 -1.15073,0.0352 0.40625,0.0352 h -1.58985 c -0.006,-2.1e-4 -0.0171,-0.004 -0.0234,-0.004 1.58947,0.0504 1.87769,0.20874 0.72656,-0.0215 -0.68541,-0.13708 -1.63563,-0.66597 -4.67383,0.0352 -1.5191,0.35057 -3.84777,1.33417 -5.59375,3.44141 -1.74598,2.10724 -2.34961,4.80915 -2.34961,6.54883 0,1.78246 0.68597,4.84339 2.83984,7.08593 2.15387,2.24255 4.78279,2.91476 6.29102,3.07617 0.1889,0.0202 0.20453,-0.0137 0.375,0 0.18177,0.1733 0.16887,0.15129 0.43164,0.41407 1.54164,1.54164 2.0089,1.93898 2.16406,2.04492 0.34038,0.99579 0.98119,2.85226 3.09375,4.96484 1.18072,1.18071 2.2478,1.78998 3.19727,2.27149 0.35137,0.66948 0.6453,1.31394 1.32226,2.16015 2.84463,3.55578 5.04272,5.00165 5.38477,5.41211 2.36636,2.83964 1.63158,1.85668 2.33203,3.63477 0.70045,1.77809 2.48454,5.45773 6.30274,10.23047 3.99657,4.99571 7.59119,7.2732 8.70703,8.69336 3.26209,4.15175 6.26571,9.45129 10.05859,15.14062 3.06181,4.59272 5.4738,7.29826 6.08203,8.77539 1.92064,4.66442 2.99071,7.84347 3.88477,10.51367 -0.17922,0.44513 -0.44114,0.93741 -0.53516,1.3125 -0.73283,2.9236 -0.21965,3.95324 -0.0469,4.71289 0.17277,0.75966 0.32503,1.1455 0.44726,1.46485 0.24446,0.63869 0.40355,0.94877 0.5625,1.26758 0.3179,0.63761 0.62634,1.19442 1.05664,1.96093 1.72121,3.06605 5.31309,9.18709 12.74805,22.0293 2.07574,3.58538 3.58442,6.10796 4.74023,7.94727 1.15582,1.8393 1.62267,2.73774 3.13477,4.38281 0.37802,0.41127 0.80371,0.90129 1.875,1.64648 0.03,0.0209 0.11279,0.0595 0.14453,0.082 1.47855,2.61706 3.15801,5.6078 7.46094,13.67579 0.29402,0.5513 0.66999,4.06129 3.7539,9.20117 4.31289,7.18813 9.16679,12.62052 12.38672,17.71875 2.52355,3.99562 4.75516,9.76652 8.89649,15.97851 4.61276,6.91914 9.55762,11.44571 12.10742,15.52539 0.94416,1.51065 1.73642,5.84781 4.95898,11.75586 2.64331,4.84603 5.15789,6.86016 5.46094,7.36524 1.18835,1.98058 2.38068,5.84074 5.31641,10.61133 3.43441,5.58092 6.95705,9.17831 8.64062,12.06445 1.36024,2.33184 1.5193,2.72906 2.01953,3.69336 -0.0129,0.46852 -0.0347,0.96085 -0.006,1.33203 0.34455,4.42801 1.37663,5.30598 2.9375,8.42773 2.34464,4.68927 4.54629,7.19009 5.0625,8.35157 -0.42202,-0.94955 -0.62644,1.65839 1.75196,7.00976 2.04342,4.59768 4.48596,7.62179 5.82031,9.84571 1.58053,2.63422 2.76684,4.50333 3.83398,6.34375 v 1.38671 l 1.05469,2.11133 c 0.48543,0.97087 1.14016,4.58655 4.76758,8.93946 1.4835,1.7802 2.84762,2.70081 4.01758,3.36914 1.10666,2.21185 2.59878,5.05777 5.35547,7.81445 1.85982,1.8598 3.48725,2.53982 4.56054,2.94531 0.37981,0.41437 1.04581,0.82273 1.70703,1.31055 0.25021,0.33438 0.43839,0.69815 0.74219,1.00195 0.28134,0.28134 0.61982,0.45226 0.92774,0.6875 0.19007,0.63468 0.34288,1.25022 0.70312,1.9707 0.77354,1.54706 1.60214,2.51506 2.31641,3.19727 0.27715,0.62324 0.81499,1.63851 1.8125,3.13477 1.90872,2.86307 3.34232,3.61771 3.00195,3.27734 l 1.75195,1.75195 5.25782,5.25782 3.50586,3.5039 c -0.90192,-0.90193 -0.15474,1.34799 4.29492,3.5918 0.96652,1.47299 2.15897,2.83827 3.56054,3.53906 1.48299,0.74149 2.76788,1.01479 3.92969,1.15039 0.16019,0.16019 0.32029,0.32029 0.48047,0.48047 1.75243,1.75242 3.5054,3.50539 5.25781,5.25781 -0.34043,-0.34043 0.41423,1.09321 3.27735,3.00196 1.49621,0.99746 2.50956,1.53534 3.13281,1.8125 0.68221,0.71429 1.65206,1.54281 3.19922,2.3164 2.52173,1.26086 3.90694,1.67714 4.67578,1.8086 0.19245,0.16795 0.46468,0.33303 0.69531,0.50586 0.26313,0.35822 0.46713,0.74447 0.79102,1.06835 3.53984,3.53993 8.21338,3.16472 9.50976,2.95118 1.29639,-0.21354 1.37947,-0.0215 -0.68554,-0.0215 h 5.25781 v -17.11328 c 0.0193,0.019 0.0413,0.0237 0.0606,0.043 2.39674,2.39675 2.90319,6.05336 2.77734,7.5293 -0.12585,1.47593 -0.3446,1.77875 -0.29297,1.61132 0.0516,-0.16742 0.37373,-0.80528 0.52539,-2.58398 0.15166,-1.7787 -0.40649,-5.70727 -3.00976,-8.31055 -0.0183,-0.0182 -0.0421,-0.0288 -0.0606,-0.0469 v -1.12891 h -1.47461 c -0.99898,-0.64249 -1.98761,-1.02086 -3.01367,-1.32031 -0.52622,-0.38696 -0.80995,-0.75654 -1.55469,-1.12891 -2.5206,-1.2603 -3.90641,-1.67682 -4.67578,-1.80859 -0.40754,-0.36033 -0.65588,-0.66968 -1.25977,-1.07227 -1.72596,-1.15064 -2.84479,-1.72498 -3.39843,-1.93554 -0.15511,-0.14936 -0.13068,-0.11701 -0.33399,-0.32032 -1.75212,-1.75212 -3.50568,-3.50374 -5.25781,-5.25585 v -0.002 c -0.42507,-0.42507 -0.85041,-0.8504 -1.27539,-1.27539 -0.0454,-0.0542 -0.22337,-0.25369 -0.55469,-0.66601 -0.70509,-0.87748 -2.36371,-2.90508 -5.58398,-3.97852 -0.0167,-0.006 -0.0283,-0.004 -0.0449,-0.01 -1.09292,-1.17157 -2.35051,-2.17719 -3.90234,-2.95312 -0.58327,-0.29163 -1.06798,-0.39098 -1.5957,-0.56836 l -2.81446,-2.81445 -5.25781,-5.25782 -1.75195,-1.75195 c -0.2033,-0.2033 -0.17096,-0.17889 -0.32031,-0.33398 -0.20961,-0.55251 -0.78304,-1.67163 -1.93555,-3.40039 -0.17028,-0.25543 -0.28859,-0.31469 -0.45313,-0.53321 -0.18829,-0.61369 -0.32934,-1.20363 -0.67578,-1.89648 -0.37152,-0.74307 -0.74083,-1.0253 -1.12695,-1.55078 -0.46119,-1.58223 -1.18371,-3.2384 -2.49805,-4.55274 -0.30513,-0.30513 -0.6699,-0.49502 -1.00586,-0.74609 -0.25107,-0.33596 -0.44095,-0.70072 -0.74609,-1.00586 -1.26852,-1.26852 -2.86733,-2.00033 -4.4043,-2.4707 -0.24902,-0.19141 -0.32557,-0.33163 -0.625,-0.53125 -1.01688,-0.67793 -1.84914,-1.08036 -2.50195,-1.35352 -0.0722,-0.10201 -0.16977,-0.28414 -0.25781,-0.41992 -0.33384,-1.85389 -1.04542,-4.05909 -2.72656,-5.74023 -2.15117,-2.15115 -3.93878,-2.92202 -4.88282,-3.37305 0.0304,-0.0369 -0.59409,-1.32441 -0.875,-1.98047 -0.0565,-1.19396 -0.28523,-2.62323 -1.13086,-4.31445 -1.98059,-3.96121 -4.13759,-6.95133 -5.62695,-9.4336 -2.17051,-3.61752 -3.97006,-6.05226 -4.69336,-7.67968 0.42204,0.94957 0.62643,-1.6584 -1.75195,-7.00977 -2.25051,-5.06363 -4.74929,-7.7681 -5.45117,-9.17188 -0.0867,-0.17331 -0.0667,-0.20451 -0.14063,-0.36914 0.0116,-0.1261 0.0825,-0.30664 0.0879,-0.42382 0.15194,-3.30607 -0.59,-4.27665 -1.05273,-5.40235 -0.92546,-2.25139 -2.1186,-4.37854 -4.45899,-8.39062 -3.38032,-5.79485 -7.05004,-9.49247 -8.88281,-12.47071 -1.17167,-1.90397 -2.35539,-5.67826 -5.19922,-10.41796 -2.70235,-4.50392 -4.90079,-6.37216 -5.05469,-6.6543 -1.03797,-1.90297 -1.7832,-6.74299 -5.55468,-12.77735 -4.51006,-7.21609 -9.65158,-11.8553 -12.42774,-16.01953 -2.53075,-3.79614 -4.7275,-9.39031 -8.62695,-15.56445 -4.39523,-6.95911 -9.12225,-12.28969 -12.14649,-17.33008 -0.15298,-0.25498 -0.59117,-3.3223 -3.25781,-8.32226 -5.42912,-10.1796 -8.1697,-15.19414 -9.79492,-17.93164 -0.4063,-0.68438 -0.73433,-1.22173 -1.14648,-1.82227 -0.41216,-0.60054 0.4909,-0.92871 -3.37891,-3.31641 -0.0781,-0.0482 -0.24119,-0.10949 -0.32813,-0.16211 -0.86471,-1.42493 -1.64584,-2.69473 -3.04492,-5.11132 -5.74658,-9.92591 -7.75175,-13.37822 -9.72851,-16.8086 0.12895,-1.15043 -0.0213,-2.01508 -0.0899,-2.75586 -0.51433,-5.5612 -2.36037,-9.74824 -7.11328,-21.29101 -2.59946,-6.31295 -6.3242,-9.83689 -7.93554,-12.25391 -3.21684,-4.82527 -6.42735,-10.61741 -10.97266,-16.40234 -3.98801,-5.07566 -7.65234,-7.37695 -8.81641,-8.83203 -3.02176,-3.7772 -2.76756,-3.68505 -3.3125,-5.06836 -0.3815,-0.96843 -1.59792,-3.23084 -3.27539,-5.78516 0.20844,0.0774 0.30564,0.0953 0.52539,0.17774 1.82966,0.68612 4.90868,2.609 9.84766,3.84375 3.30751,0.82687 5.12475,2.27187 10.21289,0.33398 0.11817,0.0449 0.14792,0.0603 0.27539,0.10937 0.29423,0.60967 0.52863,1.38568 0.85156,1.79297 2.59995,3.27917 3.82616,3.01489 4.6211,3.31055 3.17975,1.18266 3.95855,1.01751 7.60351,1.625 4.81895,0.80316 6.70495,0.20924 5.48633,0.0352 0.34699,0.0496 2.58817,1.1203 7.00977,1.75195 3.60154,0.51452 5.86227,0.10156 6.67187,0.10156 h 3.50391 26.28711 19.27734 10.51367 c 1.82527,0 4.42803,0.22835 7.77735,-0.0293 5.94966,-0.45766 11.17299,-1.40018 15.77148,-1.75391 0.3677,-0.0283 2.97266,0.59876 7.65625,-0.0703 6.62943,-0.94706 12.59345,-2.50386 18.07227,-3.59961 5.77541,-1.15509 11.66191,-2.26847 17.62304,-3.52344 5.70277,-1.20059 10.79643,-2.62228 15.44922,-3.44336 3.57717,-0.63126 8.36788,-0.69202 14.125,-1.77148 5.51549,-1.03415 10.31385,-2.56089 14.60156,-3.63282 4.89227,-1.22306 9.42111,-2.51309 13.68946,-3.42773 2.00713,-0.4301 5.978,-0.31685 11.35937,-1.97266 5.66931,-1.74439 9.84543,-4.19715 13.17383,-5.58398 2.21662,-0.92359 5.49781,-1.84657 9.38672,-3.79102 5.10201,-2.551 7.36997,-4.6814 7.70898,-4.80468 -0.40543,0.14743 0.39371,-0.0484 2.38282,-0.14454 1.9891,-0.0961 5.30785,-0.1217 9.18554,-2.06054 7.00842,-3.50422 10.14425,-8.22982 12.18164,-9.81446 0.72505,-0.56392 2.47184,-1.50276 4.93164,-3.25976 2.62895,-1.87781 4.98467,-3.73508 7.19727,-5.39453 4.81521,-3.61141 9.07055,-6.25888 13.94922,-12.11328 2.39475,-2.8737 3.39797,-5.06225 3.95898,-5.84766 1.30243,-1.8234 3.32513,-4.09902 5.44141,-7.27344 2.68692,-4.03039 3.91778,-6.99696 4.83008,-8.16992 0.43392,-0.5579 3.50569,-2.33765 7.11523,-7.15039 3.37486,-4.4998 3.90637,-7.58105 3.98633,-7.70898 0.94872,-1.51796 2.6857,-3.52168 4.77734,-6.31055 1.17783,-1.57044 3.71937,-3.9751 6.03516,-8.2207 2.8016,-5.13626 4.12145,-9.70469 5.58203,-12.91797 0.87681,-1.92897 2.06707,-4.11851 3.3457,-6.67578 0.99322,-1.98644 2.41447,-4.42023 3.75196,-7.54102 1.16381,-2.7156 1.63781,-4.80798 2.04687,-6.03516 0.42245,-1.26735 1.27271,-3.20999 1.96875,-5.99414 0.73661,-2.9464 1.56662,-6.28894 1.98828,-10.08398 0.42066,-3.78575 0.0625,-6.51294 0.0625,-8.11328 v -19.27735 -15.77148 -7.00977 c 0,-0.8096 0.41297,-3.07033 -0.10156,-6.67187 -0.6611,-4.62774 -1.7197,-6.76049 -1.71289,-6.69922 -0.0786,-0.70774 0.56644,-3.66374 0,-8.76172 -0.46956,-4.22601 -1.51273,-7.76162 -2.74609,-10.38476 -1.23337,-2.62315 -2.13475,-3.94187 -3.3125,-6.5918 -1.04028,-2.34063 -2.04521,-5.11807 -3.25391,-8.15625 -0.39669,-1.24693 -0.84189,-3.15843 -1.94922,-5.74219 -1.33749,-3.12082 -2.75876,-5.55461 -3.75195,-7.54101 -0.88562,-1.77124 -1.91423,-4.55065 -3.96875,-7.8379 -2.34298,-3.74877 -4.52194,-5.91376 -5.41797,-7.25781 -1.66054,-2.49082 -3.24371,-5.2043 -4.83594,-8.07031 -2.71558,-4.88804 -4.31887,-10.25458 -9.60937,-17.05664 -3.04209,-3.91127 -5.12585,-5.42209 -6.01953,-6.08594 -0.22123,-1.58738 -0.70306,-4.24797 -3.56641,-7.11133 -5.05893,-5.05892 -10.27997,-7.55828 -13.60352,-9.88476 -1.53277,-1.07295 -3.48357,-2.57985 -6.13476,-4.05274 -3.11088,-1.72826 -6.97378,-4.25883 -12.20899,-6.0039 -9.62687,-3.20896 -19.82067,-4.138 -27.60546,-5.59766 -5.05755,-0.94829 -11.07142,-2.89678 -18.37305,-3.62695 -48.63077,-4.86307 -63.46782,-3.55469 -113.15039,-3.55469 -61.84244,0 -59.01345,0.95067 -125.50977,-3.48242 -11.08625,-0.73908 -22.69341,-2.62278 -35.00195,-3.50195 -2.80442,-0.20032 -5.43742,-0.20584 -7.89453,-0.16211 z m -8.14453,333.35546 c 0.0571,-0.0113 0.27747,0.0114 0.34765,0.002 -0.47968,0.10951 -0.95009,0.22983 -0.89258,0.21484 0.0383,-0.01 0.12302,-0.13326 0.54493,-0.2168 z m 51.22851,12.24024 c 0.0432,0.0407 -0.1671,0.12924 -0.53125,0.17187 0.0547,1.8e-4 0.5188,-0.18362 0.53125,-0.17187 z m 9.2793,5.81445 c -0.0112,0.004 -0.1598,0.0559 -0.58789,0.24024 -0.007,0.003 -0.0239,0.009 -0.0312,0.0117 0.41959,-0.22249 0.63124,-0.2568 0.61914,-0.25196 z m 1.54883,2.51563 c 0.0181,0.2411 0.053,0.67875 0.0117,1.29297 -0.0456,-0.49445 -0.0485,-1.7814 -0.0117,-1.29297 z m -50.08789,9.98242 c 0.0634,0.0177 0.25488,0.0888 0.30078,0.10351 0.33502,0.10758 0.16359,0.12168 -0.30078,-0.10351 z m 56.56054,5.83984 c -0.32269,0.16897 -0.47086,0.19753 -0.58789,0.23047 0.1153,-0.0462 0.39771,-0.16475 0.58789,-0.23047 z m 1.38868,54.25196 c 0.78503,0.43882 0.76739,0.71617 0.63476,0.59179 -0.086,-0.0806 -0.30601,-0.29524 -0.63476,-0.59179 z m 5.66015,46.15039 c -0.0323,-0.0471 0.15492,0.23753 0.43945,0.71679 0.003,0.005 0.0224,0.0398 0.0254,0.0449 -0.48174,-0.51617 -0.44542,-0.73341 -0.46485,-0.76172 z m 74.28516,123.51562 c 0.0154,0.032 0.25513,0.46613 0.25781,0.47266 0.008,0.0205 -0.13182,-0.0437 -0.25781,-0.47266 z m 12.85156,7.57227 c -1.11347,0.49798 -1.53455,0.52405 -0.15234,0.0703 0.0366,-0.012 0.11309,-0.0569 0.15234,-0.0703 z m 32.55469,41.88672 c 0.3481,-0.0399 0.88073,0.0297 1.38476,0.084 -1.26036,0.0816 -2.19204,0.27482 -2.44726,0.3418 -0.30512,0.0801 0.0481,-0.30944 1.0625,-0.42578 z m 1.86719,0.5664 c 0.0627,0.58271 0.11743,1.06707 0.0605,1.44141 -0.11136,0.0226 -0.17717,0.0323 -0.26953,0.0547 0.0899,-0.34661 0.1591,-0.72561 0.20899,-1.4961 z m -0.0156,1.49219 c 0.0118,-10e-4 0.0426,0.009 0.0547,0.008 -0.14859,0.77735 -0.45228,1.2194 -0.38086,0.94727 0.0252,-0.0959 0.074,-0.71123 0.1289,-0.91992 0.14674,-0.0175 0.0167,-0.0198 0.19727,-0.0352 z m 12.2832,10.77539 c 0.21234,1.97287 -0.44934,2.85706 -0.34179,2.44727 0.067,-0.25521 0.26019,-1.18693 0.34179,-2.44727 z m -18.10156,1.37695 c -0.0203,0.0955 -0.14287,0.83208 -0.25195,1.38477 0.0246,-1.02569 0.28519,-1.54127 0.25195,-1.38477 z m 19.81641,2.76953 c -0.0246,1.02568 -0.2852,1.54127 -0.25196,1.38477 0.0203,-0.0955 0.14287,-0.83207 0.25196,-1.38477 z m -17.35352,5.21485 c 0.15486,0.10294 0.47116,0.36078 0.5332,0.40625 0.17756,0.13012 -0.0821,0.0273 -0.5332,-0.40625 z m 24.96289,4.20703 c 0.0168,-5.5e-4 0.0455,0.006 0.0625,0.006 -0.55119,0.10899 -1.2875,0.23171 -1.38281,0.25195 -0.15373,0.0327 0.33084,-0.22536 1.32031,-0.25781 z m 2.83594,19.82031 c 0.15652,-0.0332 -0.36108,0.22732 -1.38672,0.25196 0.55403,-0.10917 1.29112,-0.23165 1.38672,-0.25196 z m 26.27734,1.09375 c 0.34912,-0.04 0.88273,0.0292 1.38868,0.084 -1.26437,0.0813 -2.19558,0.27276 -2.45118,0.33984 -0.30509,0.0801 0.0481,-0.30749 1.0625,-0.42383 z m -22.1914,2.52344 c 0.43013,-0.079 0.19576,0.04 -0.47266,0.0586 0.10081,-0.0219 0.40497,-0.0462 0.47266,-0.0586 z m 13.80859,12.66602 c 0.0452,0.0617 0.3023,0.37575 0.4043,0.52929 -0.4325,-0.45036 -0.5343,-0.70668 -0.4043,-0.52929 z"
         id="path418" />
    </g>
  </g>
</svg>
