<?xml version="1.0" encoding="UTF-8" standalone="no"?>
<!-- Created with Inkscape (http://www.inkscape.org/) -->

<svg
   width="1000"
   height="1000"
   viewBox="0 0 1000 1000"
   version="1.1"
   id="svg1"
   xmlns:xlink="http://www.w3.org/1999/xlink"
   xmlns="http://www.w3.org/2000/svg"
   xmlns:svg="http://www.w3.org/2000/svg">
  <defs
     id="defs1">
    <pattern
       xlink:href="#pattern359"
       preserveAspectRatio="xMidYMid"
       id="pattern372"
       patternTransform="matrix(0.5,0,0,0.5,147.15462,1548.2922)" />
    <pattern
       xlink:href="#pattern357"
       preserveAspectRatio="xMidYMid"
       id="pattern371"
       patternTransform="matrix(0.5,0,0,0.5,221.32076,1552.4298)" />
    <pattern
       xlink:href="#pattern358"
       preserveAspectRatio="xMidYMid"
       id="pattern370"
       patternTransform="matrix(0.5,0,0,0.5,230.96346,1527.8214)" />
    <pattern
       xlink:href="#pattern355"
       preserveAspectRatio="xMidYMid"
       id="pattern369"
       patternTransform="matrix(0.5,0,0,0.5,287.08178,1553.6581)" />
    <pattern
       xlink:href="#pattern354"
       preserveAspectRatio="xMidYMid"
       id="pattern368"
       patternTransform="matrix(0.5,0,0,0.5,230.97274,1529.1717)" />
    <pattern
       xlink:href="#pattern342"
       preserveAspectRatio="xMidYMid"
       id="pattern360"
       patternTransform="matrix(0.5,0,0,0.5,210.45332,1525.5392)" />
    <pattern
       xlink:href="#pattern342"
       preserveAspectRatio="xMidYMid"
       id="pattern359"
       patternTransform="matrix(0.5,0,0,0.5,152.11125,1550.7705)" />
    <pattern
       xlink:href="#pattern342"
       preserveAspectRatio="xMidYMid"
       id="pattern358"
       patternTransform="matrix(0.5,0,0,0.5,202.11125,1533.2444)" />
    <pattern
       xlink:href="#pattern342"
       preserveAspectRatio="xMidYMid"
       id="pattern357"
       patternTransform="matrix(0.5,0,0,0.5,211.4075,1546.234)" />
    <pattern
       xlink:href="#pattern342"
       preserveAspectRatio="xMidYMid"
       id="pattern356"
       patternTransform="matrix(0.5,0,0,0.5,232.14929,1573.2544)" />
    <pattern
       xlink:href="#pattern342"
       preserveAspectRatio="xMidYMid"
       id="pattern355"
       patternTransform="matrix(0.5,0,0,0.5,275,1552.7287)" />
    <pattern
       xlink:href="#pattern342"
       preserveAspectRatio="xMidYMid"
       id="pattern354"
       patternTransform="matrix(0.5,0,0,0.5,235,1529.7913)" />
    <pattern
       xlink:href="#shading24"
       preserveAspectRatio="xMidYMid"
       id="pattern342"
       patternTransform="matrix(0.5,0,0,0.5,213.95332,1537.5392)"
       x="0"
       y="0" />
    <pattern
       patternUnits="userSpaceOnUse"
       width="338.5925"
       height="42.989567"
       patternTransform="translate(213.95332,1537.5392) scale(0.5)"
       preserveAspectRatio="xMidYMid"
       id="shading24"
       style="fill:#000000">
      <path
         style="fill-rule:nonzero;stroke:none;stroke-width:0.1;stroke-linecap:square;paint-order:markers fill stroke;stop-color:#000000"
         d="m 1806.4991,-758.06464 v 18.86792 c 55.9187,0 121.0493,0.59523 193.5686,3.15628 72.9408,2.57593 146.0589,6.87694 222.9288,13.47675 119.09,10.22471 223.0762,23.76065 340.6056,39.2177 117.5025,15.4535 222.0471,29.0563 341.8507,39.3312 77.366,6.63525 151.0001,10.96128 224.4674,13.55245 73.0344,2.5759 138.631,3.17493 194.9247,3.17493 -55.9642,0 -122.2215,-1.36594 -194.8324,-5.25394 -73.2143,-3.92032 -146.9676,-10.0663 -223.8166,-18.88656 -118.8791,-13.6442 -223.3242,-31.02113 -339.8009,-50.57815 -116.4705,-19.55598 -221.1862,-36.99475 -340.3724,-50.69165 -77.0605,-8.8558 -150.9942,-15.0266 -224.3694,-18.96225 -72.7637,-3.90286 -139.1256,-5.27261 -195.1541,-5.27261 z m 0,37.81515 v 18.86793 c 55.9187,0 121.0493,0.59523 193.5686,3.15627 72.9408,2.57593 146.0589,6.87694 222.9288,13.47676 119.09,10.22471 223.0762,23.76065 340.6056,39.2177 117.5025,15.4535 222.0471,29.0563 341.8507,39.33119 77.366,6.63526 151.0001,10.96128 224.4674,13.55245 73.0344,2.5759 138.631,3.17493 194.9247,3.17493 -55.9642,0 -122.2215,-1.36594 -194.8324,-5.25394 -73.2143,-3.92031 -146.9676,-10.0663 -223.8166,-18.88656 -118.8791,-13.6442 -223.3242,-31.02112 -339.8009,-50.57815 -116.4705,-19.55598 -221.1862,-36.99475 -340.3724,-50.69165 -77.0605,-8.8558 -150.9942,-15.02659 -224.3694,-18.96225 -72.7637,-3.90286 -139.1256,-5.2726 -195.1541,-5.2726 z m 0,37.81516 v 18.86792 c 55.9187,0 121.0493,0.59523 193.5686,3.15628 72.9408,2.57593 146.0589,6.87694 222.9288,13.47675 119.09,10.22471 223.0762,23.76065 340.6056,39.2177 117.5025,15.4535 222.0471,29.0563 341.8507,39.3312 77.366,6.63525 151.0001,10.96128 224.4674,13.55245 73.0344,2.5759 138.631,3.17493 194.9247,3.17493 -55.9642,0 -122.2215,-1.36594 -194.8324,-5.25394 -73.2143,-3.92032 -146.9676,-10.0663 -223.8166,-18.88656 -118.8791,-13.6442 -223.3242,-31.02113 -339.8009,-50.57815 -116.4705,-19.55598 -221.1862,-36.99475 -340.3724,-50.69165 -77.0605,-8.8558 -150.9942,-15.0266 -224.3694,-18.96225 -72.7637,-3.90286 -139.1256,-5.27261 -195.1541,-5.27261 z m 0,37.81515 v 18.86793 c 55.9187,0 121.0493,0.59523 193.5686,3.15627 72.9408,2.57593 146.0589,6.87694 222.9288,13.47676 119.09,10.22471 223.0762,23.76065 340.6056,39.2177 117.5025,15.4535 222.0471,29.0563 341.8507,39.33119 77.366,6.63526 151.0001,10.96128 224.4674,13.55245 73.0344,2.5759 138.631,3.17494 194.9247,3.17494 -55.9642,0 -122.2215,-1.36595 -194.8324,-5.25395 -73.2143,-3.92031 -146.9676,-10.0663 -223.8166,-18.88656 -118.8791,-13.6442 -223.3242,-31.02112 -339.8009,-50.57815 -116.4705,-19.55598 -221.1862,-36.99475 -340.3724,-50.69165 -77.0605,-8.8558 -150.9942,-15.02659 -224.3694,-18.96225 -72.7637,-3.90286 -139.1256,-5.2726 -195.1541,-5.2726 z m 0,37.81516 v 18.86792 c 55.9187,0 121.0493,0.59523 193.5686,3.15628 72.9408,2.57593 146.0589,6.87694 222.9288,13.47675 119.09,10.22471 223.0762,23.76065 340.6056,39.2177 117.5025,15.4535 222.0471,29.0563 341.8507,39.3312 77.366,6.63525 151.0001,10.96128 224.4674,13.55245 73.0344,2.5759 138.631,3.17493 194.9247,3.17493 -55.9642,0 -122.2215,-1.36594 -194.8324,-5.25394 -73.2143,-3.92032 -146.9676,-10.0663 -223.8166,-18.88656 -118.8791,-13.6442 -223.3242,-31.02113 -339.8009,-50.57815 -116.4705,-19.55598 -221.1862,-36.99475 -340.3724,-50.69165 -77.0605,-8.8558 -150.9942,-15.0266 -224.3694,-18.96225 -72.7637,-3.90286 -139.1256,-5.27261 -195.1541,-5.27261 z m 0,37.81515 v 18.86793 c 55.9187,0 121.0493,0.59523 193.5686,3.15627 72.9408,2.57593 146.0589,6.87694 222.9288,13.47676 119.09,10.22471 223.0762,23.76065 340.6056,39.2177 117.5025,15.4535 222.0471,29.0563 341.8507,39.33119 77.366,6.63526 151.0001,10.96128 224.4674,13.55245 73.0344,2.5759 138.631,3.17494 194.9247,3.17494 -55.9642,0 -122.2215,-1.36595 -194.8324,-5.25395 -73.2143,-3.92031 -146.9676,-10.0663 -223.8166,-18.88656 -118.8791,-13.6442 -223.3242,-31.02112 -339.8009,-50.57815 -116.4705,-19.55598 -221.1862,-36.99475 -340.3724,-50.69165 -77.0605,-8.8558 -150.9942,-15.02659 -224.3694,-18.96225 -72.7637,-3.90286 -139.1256,-5.2726 -195.1541,-5.2726 z m 0,37.81516 v 18.86792 c 55.9187,0 121.0493,0.59523 193.5686,3.15628 72.9408,2.57593 146.0589,6.87694 222.9288,13.47675 119.09,10.22471 223.0762,23.76065 340.6056,39.2177 117.5025,15.4535 222.0471,29.0563 341.8507,39.3312 77.366,6.63525 151.0001,10.96128 224.4674,13.55245 73.0344,2.5759 138.631,3.17493 194.9247,3.17493 -55.9642,0 -122.2215,-1.36594 -194.8324,-5.25394 -73.2143,-3.92032 -146.9676,-10.0663 -223.8166,-18.88656 -118.8791,-13.6442 -223.3242,-31.02113 -339.8009,-50.57815 -116.4705,-19.55598 -221.1862,-36.99475 -340.3724,-50.69165 -77.0605,-8.8558 -150.9942,-15.0266 -224.3694,-18.96225 -72.7637,-3.90286 -139.1256,-5.27261 -195.1541,-5.27261 z"
         id="use26"
         transform="matrix(0.22300099,0,0,0.37823052,-402.85121,237.25945)" />
    </pattern>
    <clipPath
       clipPathUnits="userSpaceOnUse"
       id="clipPath54">
      <path
         id="path336"
         style="stroke-width:0.0999999;stroke-linecap:square;paint-order:markers fill stroke;stop-color:#000000"
         d="m 1691.1994,-792.32001 h 1634.8919 v 92.82806 H 1691.1994 Z" />
    </clipPath>
    <clipPath
       clipPathUnits="userSpaceOnUse"
       id="clipPath33">
      <rect
         style="fill:#000000;stroke:none;stroke-width:0.999995;stroke-linecap:butt;stroke-linejoin:bevel;paint-order:stroke markers fill;stop-color:#000000"
         id="rect33"
         width="46.19186"
         height="80.006783"
         x="74.999985"
         y="399.99661" />
    </clipPath>
    <clipPath
       clipPathUnits="userSpaceOnUse"
       id="clipPath27">
      <rect
         style="fill:none;stroke:#000000;stroke-width:0.999999;stroke-linecap:butt;stroke-linejoin:bevel;paint-order:stroke markers fill;stop-color:#000000"
         id="rect28-6"
         width="46.160622"
         height="39.922417"
         x="86.574379"
         y="420.06253" />
    </clipPath>
    <clipPath
       clipPathUnits="userSpaceOnUse"
       id="clipPath25">
      <rect
         style="fill:#ff0000;stroke:none;stroke-width:3;stroke-linecap:square;stroke-linejoin:miter;paint-order:stroke markers fill;stop-color:#000000"
         id="rect25-8"
         width="78"
         height="45.033199"
         x="763.61322"
         y="452.82422" />
    </clipPath>
    <clipPath
       clipPathUnits="userSpaceOnUse"
       id="clipPath15">
      <rect
         style="fill:none;stroke:#000000;stroke-linecap:butt;stroke-linejoin:bevel;paint-order:stroke markers fill;stop-color:#000000"
         id="rect15-7"
         width="45.034248"
         height="38.955639"
         x="262.48285"
         y="121.00073" />
    </clipPath>
    <linearGradient
       id="swatch75">
      <stop
         style="stop-color:#000000;stop-opacity:1;"
         offset="0"
         id="stop75" />
    </linearGradient>
  </defs>
  <g
     id="layer51"
     style="display:inline">
    <g
       id="layer62"
       style="display:inline">
      <path
         style="baseline-shift:baseline;display:inline;overflow:visible;opacity:1;vector-effect:none;fill-rule:evenodd;enable-background:accumulate;stop-color:#000000;stop-opacity:1"
         d="m 703.61133,195.50586 c -1.31387,-0.0535 -3.03122,-0.0199 -5.13086,0.33008 -4.56689,0.76115 -7.65781,2.15979 -9.60742,2.67968 -3.60314,0.96084 -6.56716,1.87513 -8.98047,2.27735 -2.86001,0.47666 -7.02592,0.39081 -12.30664,1.22461 -8.62118,1.36124 -14.87532,3.6153 -21.60157,5.05664 -1.64785,0.35311 -4.11524,0.57383 -7.30078,1.21094 -4.44378,0.88875 -7.95835,1.97661 -10.71289,2.40039 0.37085,-0.0571 -0.76962,-0.11524 -3.43554,-0.11524 -0.98886,0 -2.98704,-0.24758 -5.95118,0.0488 -3.80217,0.38023 -6.23769,1.12045 -7.43554,1.24023 0.61623,-0.0616 -1.218,-0.54307 -5.375,0.0508 -3.19279,0.4561 -4.6488,1.00616 -4.71289,1.22461 -0.16396,-0.0333 0.16466,-0.0859 -1.3086,-0.0859 h -2.47851 c 0.48141,0 -1.06517,-0.48153 -4.43946,0.19336 -2.0371,0.40741 -3.23443,0.79268 -3.77343,1.03515 -0.21474,0.004 -0.17451,0.01 -0.46094,0.01 h -2.47852 c 0.79079,0 -0.9656,-0.68585 -4.90429,0.29883 -1.50097,0.37524 -2.00055,0.64475 -2.73243,0.9414 h -0.91992 l -2.11133,1.05469 c -1.60348,0.80175 -3.207,1.60448 -4.81054,2.40625 -0.85547,-0.0571 -2.39398,-4.1e-4 -4.75196,0.39258 -1.35992,0.22667 -2.21525,0.62746 -3.02539,1.00586 -0.84562,-0.12116 -2.35199,-0.18793 -5.24609,0.17383 -2.6187,0.32733 -4.12672,0.75702 -4.72266,1.04882 -0.68613,0.0169 -1.29764,0.0128 -2.71093,0.18946 -3.53813,0.44227 -5.55559,1.16002 -6.19727,1.24023 2.02792,-0.25348 0.2274,-1.06173 -4.90234,0.22071 -3.38654,0.84662 -5.15578,1.67425 -5.72657,2.0957 -0.62487,-0.13882 -2.31002,-0.1906 -5.34375,0.14648 -3.57933,0.3977 -5.17673,1.00013 -5.10351,1.16797 -3.46299,-0.009 -6.07083,-0.0329 -6.68359,-0.0508 -0.0218,-0.004 -0.13498,-6.7e-4 -0.15625,-0.004 -3.3e-4,-1e-5 -0.006,3e-5 -0.006,0 -0.14567,-0.022 -0.0735,-0.0613 -1.06641,-0.0215 -0.19731,0.008 0.24969,-0.2501 -1.91992,0.26367 -0.34877,0.0826 -1.40248,0.62902 -2.37891,1.11328 -0.0849,0.0108 -0.0818,0.0144 -0.16992,0.0254 1.61806,-0.20225 -0.61011,-1.16193 -6.14063,0.22071 -5.26683,1.31668 -6.98257,3.16875 -6.04296,2.8164 0.53168,-0.19938 -1.23606,-0.1571 -4.95704,1.23828 -2.02869,0.76076 -3.30268,1.37257 -4.0039,1.7793 -0.81231,-0.0265 -1.81715,-0.003 -3.11914,0.25781 -1.22107,0.24423 -2.01478,0.61109 -2.75391,0.95899 -0.959,-0.06 -2.17928,-0.047 -3.90625,0.38476 -1.17204,0.29302 -2.08156,0.71666 -2.89062,1.16602 -1.39728,-0.12295 -2.89883,-0.2675 -4.08008,-0.0312 -1.4728,0.29456 -2.23812,0.55041 -2.92188,0.78125 -0.64526,0.0348 -1.42681,0.0873 -3.27539,0.45703 -1.55626,0.31126 -2.24996,0.53607 -2.91601,0.74805 -0.65571,-0.22466 -2.65525,-0.29567 -6.22071,0.5957 -4.59811,1.14953 -6.6452,3.05698 -7.0039,3.23633 -3.42045,1.71022 -3.50541,1.88722 -7.36524,3.17383 -0.81125,0.27041 -2.14432,0.56071 -3.96289,0.96484 -0.97103,0.21579 -3.48878,0.28013 -7.18945,1.51367 -3.49299,1.16434 -4.80095,2.10728 -5,2.36133 -1.07218,-0.0264 -11.42079,2.43957 -9.18555,2.16016 2.02797,-0.2535 0.22549,-1.06175 -4.90429,0.2207 -2.61117,0.65281 -4.05851,1.83605 -5.05079,2.9043 -0.80987,0.40479 -1.62042,0.78481 -3.1914,1.57031 -0.0218,0.0109 -0.0138,0.007 -0.0352,0.0176 -1.3021,0.004 -2.96274,0.24213 -4.91992,1.2207 h -0.002 c -2.72618,1.3631 -4.00737,3.09749 -4.58789,3.81445 -0.58052,0.71696 -0.61561,0.56203 0.33593,-0.19922 0.0274,-0.0219 -1.22515,0.60294 -3.4707,2.28711 -0.60558,0.45419 -0.44015,0.4418 -0.79492,0.79493 -1.20343,0.56177 -2.55819,1.18328 -2.58203,1.1914 -0.0339,0.0115 2.8879,-0.34951 1.25195,-0.24609 -0.81797,0.0517 -2.62952,0.43362 -3.63086,0.84765 -1.00133,0.41404 -1.5728,0.75989 -2.18359,1.125 -1.22158,0.73023 -2.624,1.65754 -5.23828,3.4004 -5.06245,3.37495 -10.06685,7.94886 -13.17774,10.49414 -2.48944,2.03681 -4.15036,3.57242 -5.23047,4.25976 -0.74939,0.47689 -3.37119,1.27506 -7.21289,3.58008 -3.39378,2.03627 -4.6021,2.67008 -6.46875,4.15039 -0.46666,0.37008 -0.97969,0.51181 -2.29297,2.42188 -0.15826,0.23017 -0.37954,0.6987 -0.58593,1.03125 -0.54419,0.0742 -2.2167,0.79428 -4.94922,2.74609 -2.03748,1.45534 -3.10707,2.43349 -3.68164,3.06836 -1.01008,0.20022 -2.99802,0.96613 -5.9668,2.94531 -1.64299,1.09534 -2.6117,2.30582 -3.30664,3.42774 -1.29751,0.66371 -2.33829,1.20354 -3.125,1.57617 -0.16427,0.0409 -0.14377,0.0506 -0.44141,0.10351 -1.32739,0.23615 -4.83522,0.86321 -7.65429,4.2461 -0.96228,1.15472 -1.55299,2.22268 -2.01758,3.2207 -3.97912,1.41253 -3.80618,2.49126 -4.30469,3.07812 -0.52138,0.6138 -0.81022,1.03385 -1.12305,1.49219 -0.62564,0.91669 -1.25443,1.93448 -2.12109,3.37891 -0.78729,1.31214 -1.2026,2.41683 -1.44727,3.28125 -0.58185,0.53156 -1.44486,1.42911 -2.74218,3.05078 -2.83406,3.54255 -2.93605,4.95582 -1.75196,3.17969 -0.73531,1.10298 -1.93542,2.55581 -3.39648,4.5039 -1.14616,1.52822 -2.47488,3.20976 -3.85547,5.14258 -1.2404,1.73659 -1.98769,3.0316 -2.47851,3.71875 -0.93015,1.3022 -2.24612,2.89807 -3.7168,4.95703 -1.11553,1.56172 -1.95525,2.92213 -2.66211,3.98242 -0.98832,1.48249 -1.41743,2.1936 -1.69531,2.60157 -2.38719,1.53221 -2.10484,1.87494 -2.3711,2.22265 -0.30001,0.39179 -0.47293,0.65543 -0.64843,0.92774 -0.35101,0.54461 -0.62152,0.94593 -1.08008,1.97461 -0.13421,0.30106 -0.32876,0.67567 -0.52149,1.32226 -0.40788,0.7685 -0.43214,0.85488 -1.48047,2.68946 0.472,-0.826 -1.41336,0.51319 -3.1582,5.16601 v 0.002 c -0.9834,2.62241 -1.61436,4.43344 -1.92383,6.81055 -0.25681,1.97273 0.24374,4.47735 0.61719,5.85547 -0.004,-0.052 -0.1055,0.6376 -0.11719,0.78906 -1.91519,1.53379 -2.10517,2.73293 -2.41015,3.40821 -1.53673,3.40247 -0.93975,3.13997 -1.11133,4.3164 -0.17158,1.17644 -0.3544,2.66808 -0.58789,4.76953 -0.39067,3.51605 -0.0606,5.97174 -0.0606,7.30078 v 13.63086 18.58789 3.7168 c 0,0.82532 -0.33193,2.9168 0.0781,6.19727 0.39952,3.19618 0.96184,4.60154 1.14843,4.97656 0.004,0.25851 0.0117,0.50652 0.0117,1.21875 0,-0.4813 -0.47949,1.06536 0.19531,4.43945 0.3099,1.54944 0.58628,2.39524 0.82227,3.07227 -0.0147,0.5998 -0.14107,1.49677 -0.10547,1.82226 0.12996,1.18824 0.26714,1.47337 0.35156,1.76368 0.16885,0.5806 0.24291,0.74924 0.32422,0.96679 0.32524,0.87023 0.714,1.80747 1.60742,4.04102 0.16184,0.40458 0.13182,0.33181 0.25586,0.65039 0.019,0.80789 0.0563,1.76794 0.46094,3.79101 0.86917,4.34576 2.47299,5.7331 2.10156,4.99024 0.66066,1.32132 0.96667,1.89127 0.89844,1.7207 0.51509,1.28774 0.83864,4.12024 3.44336,8.02735 2.35743,3.53612 3.97031,4.05516 5.33594,4.96093 1.0675,0.70804 1.5597,1.01864 1.51562,0.94727 0.13977,0.13193 0.22868,0.20914 0.5918,0.57226 -0.51144,-0.51144 0.10187,0.71574 2.76367,2.49024 3.14026,2.09352 3.85283,2.28856 2.02539,0.91797 0.81459,0.61094 0.85665,0.78507 0.36133,0.1875 -0.49531,-0.59757 -1.43703,-2.44241 -0.74805,-1.06836 0.68899,1.37404 2.89989,3.75214 4.15625,4.58984 1.25637,0.83771 2.30001,1.36387 3.95508,2.19141 2.72341,1.36171 4.01313,1.78187 4.03711,1.60351 0.52104,0.42467 1.20386,1.05186 3.29688,2.54688 1.18907,0.84934 2.66482,1.93569 4.56836,3.02344 4.5383,2.59331 10.80885,5.45972 15.42968,7 4.52235,1.50745 6.62521,1.39975 5.93946,1.15039 -0.0668,-0.0243 2.29546,2.3503 8.22265,3.96679 5.18073,1.41293 8.14458,0.45452 8.64258,0.38086 4.05057,0.39135 7.25583,0.45562 8.66016,0.84571 1.06168,0.29491 4.38164,3.10994 11.19726,4.96875 7.12279,1.94257 12.8644,1.77021 16.57032,2.59375 4.56896,1.01532 10.21343,3.53135 17.55664,5 6.67195,1.3344 11.30758,0.73526 13.46875,1.20507 3.14486,0.68367 7.76598,3.25361 14.66015,4.90821 6.39518,1.53484 12.12099,1.87045 16.86133,2.6289 4.79413,0.76707 9.75563,1.69227 14.92969,2.48829 5.57786,0.85812 11.53861,1.96853 17.96484,2.55273 5.33514,0.48501 8.34344,0.5509 11.13672,0.16602 0.65292,-0.09 1.0529,-0.23166 1.62695,-0.36133 -0.1944,0.36549 4.21855,0.6329 15.28125,3.61133 2.32149,0.62501 6.0539,2.94922 11.95899,4.82812 5.98985,1.90586 11.14796,2.58647 14.99023,3.75586 6.5153,1.98292 9.42385,3.27264 13.15235,4.80859 3.7285,1.53596 8.16521,3.23977 15.73632,5.21485 7.20045,1.87837 11.73244,2.28875 14.90235,2.72265 3.1699,0.43391 5.34406,0.80295 11.23828,3.10938 3.30416,1.29293 7.86785,4.91797 15.12695,7.53125 6.95989,2.50556 12.84906,2.83101 16.80078,3.9375 4.18948,1.17305 8.97296,3.21182 14.72461,4.91601 8.54179,2.5309 31.20103,8.18458 38.90821,10.04493 5.46569,1.3193 10.8886,2.53176 16.24023,3.74804 4.08522,0.92846 7.70511,1.5483 10.73633,2.375 5.15481,1.40586 10.3386,3.04842 15.57812,4.79492 4.27151,1.42385 8.68317,3.13935 13.33594,4.85352 3.89387,1.43459 6.95606,2.30811 8.89844,3.2793 -1.02202,-0.51101 0.19873,1.01618 4.4668,3.45508 0.87908,0.50233 1.48865,0.66328 2.16406,0.90429 0.31689,0.42771 0.35517,0.48123 0.85547,1.18164 0.83424,1.16794 0.89411,1.18126 1.42187,1.83985 0.13328,0.82815 0.25871,1.71775 0.37891,2.05273 0.18618,0.51886 0.32019,0.79118 0.42578,1.00781 0.42237,0.86656 0.50937,0.92651 0.61133,1.08399 0.20391,0.31496 0.27798,0.41012 0.36523,0.53125 0.349,0.48453 0.67249,0.90116 1.11719,1.45508 0.0899,0.11192 0.22617,0.25744 0.32031,0.37304 0.60731,0.77688 1.46746,1.86872 4.17188,5.47461 1.73003,2.30671 2.35826,3.00343 2.45507,3.03516 -0.0529,0.18489 0.22641,1.31587 0.88672,3.62695 0.41063,1.43719 0.89967,3.01189 1.56836,4.6836 0.2712,0.67798 0.26186,0.65354 0.42969,1.08984 -0.0507,0.95226 -0.0225,2.15598 0.39258,3.81641 0.2339,0.93556 0.58404,1.67235 0.9414,2.375 v 0.15625 1.42968 c -0.0607,0.11395 -0.12346,0.17467 -0.18359,0.29492 -1.60144,3.20291 -1.73674,4.86628 -1.58008,4.47461 0.2738,-0.68446 -0.27842,0.0789 -1.23828,2.47852 -0.35283,0.88206 -0.41795,1.10307 -0.61133,1.61523 -0.47814,0.54693 -0.91284,1.01782 -1.95898,2.48243 -1.6963,2.37481 -2.72069,4.45512 -3.875,6.39648 -1.02108,1.71729 -1.94281,2.75531 -1.70899,2.63281 -3.9571,2.04402 -5.48887,3.09044 -9.45898,7.06055 -1.81749,1.81749 -4.13592,3.88431 -6.55859,6.57617 -2.78025,3.08917 -4.03756,5.25827 -4.59375,5.81445 -0.55619,0.5562 -2.72529,1.81546 -5.81446,4.59571 -2.67873,2.41086 -4.07706,4.11352 -5.24414,5.26172 -0.77922,0.30785 -1.7916,0.79802 -3.14258,1.92382 -3.44833,2.87361 -4.675,4.72892 -4.55468,4.63868 -5.71032,4.28273 -6.15165,4.39989 -6.83399,4.63086 -0.68234,0.23096 -4.37607,1.06119 -11.18359,4.20312 -3.54426,1.6358 -5.71793,3.37992 -7.07422,4.17774 -5.274,3.10235 -9.88507,6.1564 -14.27148,8.3496 -4.51936,2.25968 -7.09846,3.43992 -8.1836,3.86915 -0.26414,0.10448 -0.0571,0.0629 -0.0644,0.0879 -0.50999,-0.025 -1.81823,-0.12606 -3.85938,0.19726 -2.49562,0.39532 -5.43457,1.17416 -10.12695,2.73828 -12.61577,4.20526 -16.88068,6.54807 -18.75391,7.44922 -1.87322,0.90115 -2.53395,1.18922 -13.50195,3.38281 -4.59863,0.91973 -9.95362,1.39048 -15.88672,2.4375 -9.13179,1.61149 -17.64298,3.69538 -25.76758,4.91407 -7.18581,1.07787 -14.95282,1.51733 -23.16406,2.42968 -7.08926,0.7877 -14.14324,1.63899 -21.16601,2.49024 -6.75193,0.81841 -13.31328,1.75421 -19.72657,2.4668 -7.88799,0.87644 -16.26347,1.33904 -25,2.5039 -5.67723,0.75697 -9.59864,2.19268 -12.0664,2.43945 -2.48951,0.24895 -6.45504,-0.28427 -11.84961,-0.0391 -5.73522,0.2607 -10.66217,1.05613 -14.85156,1.23828 -3.96068,0.17221 -8.36216,-0.008 -13.19532,-0.008 h -21.0664 -52.04492 -19.82618 c -3.7794,0 -6.85268,0.19314 -9.20117,0.0254 -0.82536,-0.059 -3.16201,-0.81777 -7.15234,-1.2168 -2.96414,-0.29641 -4.96232,-0.0488 -5.95117,-0.0488 h -2.47852 -12.39062 v 20 h 12.39062 2.47852 c 2.31556,0 3.639,-0.0812 3.96289,-0.0488 1.00973,0.10097 3.52994,0.96461 7.71679,1.26367 4.24358,0.30311 7.79556,0.0254 10.625,0.0254 h 19.82618 52.04492 21.0664 c 4.25399,0 8.94655,0.21275 14.06446,-0.01 5.74882,-0.24996 10.68848,-1.04923 14.89062,-1.24024 2.85797,-0.12991 7.20109,0.53399 12.93164,-0.0391 5.91508,-0.59151 10.04524,-2.16111 12.71875,-2.51758 7.72234,-1.02964 15.95146,-1.49395 24.56641,-2.45117 6.82578,-0.75842 13.452,-1.70577 19.92383,-2.49024 7.0151,-0.85031 14.00192,-1.69291 20.96679,-2.46679 7.47494,-0.83055 15.50155,-1.264 23.92383,-2.52735 9.34013,-1.40101 18.01776,-3.54047 26.27735,-4.99804 4.76728,-0.8413 10.27595,-1.31027 16.33203,-2.52149 11.30346,-2.26069 15.09817,-3.45641 18.25,-4.97265 3.15182,-1.51625 4.48114,-2.52236 16.4082,-6.49805 4.13007,-1.37669 6.2396,-1.84741 6.93164,-1.95703 0.69204,-0.10962 -0.53325,-0.0338 1.16992,0.002 1.70317,0.0358 4.68146,-0.53322 6.98242,-1.44336 2.30097,-0.91013 5.06957,-2.22814 9.76954,-4.57812 5.87858,-2.93929 10.85066,-6.28348 15.46875,-9 2.79563,-1.64449 4.48704,-2.87504 5.3164,-3.25782 5.75793,-2.6575 6.07477,-2.35574 9.21289,-3.41796 3.13813,-1.06223 6.32645,-3.00266 12.42188,-7.57422 3.10396,-2.32798 4.32114,-3.92524 4.85742,-4.64844 0.7991,-0.33548 1.80778,-0.85951 3.08594,-1.95508 3.25981,-2.79412 5.10719,-5.21268 6.37695,-6.35547 0.8426,-0.75833 3.39397,-2.13419 6.57812,-5.31836 3.18417,-3.18415 4.56003,-5.73357 5.31836,-6.57617 1.48506,-1.65006 3.52096,-3.50142 5.83399,-5.81445 5.39136,-5.39137 -0.92736,-0.82147 6.07422,-4.32227 l 1.10156,-0.55078 0.93555,-0.80273 c 3.40514,-2.91869 4.66396,-5.51641 6.10351,-7.9375 1.43956,-2.4211 2.81028,-4.78322 2.96094,-4.99414 -1.54105,2.15749 0.0908,1.55888 2.91406,-3.14649 2.35811,-3.93015 2.29457,-6.0118 1.94922,-5.14844 -0.27381,0.68454 0.28038,-0.0789 1.24024,-2.47851 0.66418,-1.6605 0.44755,-1.35394 0.52929,-1.74414 0.76959,-0.87373 1.57319,-2.03206 2.15039,-3.76367 1.59456,-4.78368 0.51368,-6.92271 0.51367,-5.64063 v -2.47851 -2.47852 c 0,1.28417 -0.089,1.35434 0.01,0.44727 0.0988,-0.90708 0.35923,-3.30686 -1.06641,-6.15821 -0.0631,-0.1263 -0.1277,-0.18722 -0.1914,-0.30664 -0.0247,-0.65904 -0.009,-1.25485 -0.18555,-2.13867 -0.97507,-4.87551 -2.48443,-6.04213 -1.75976,-4.23047 -0.30153,-0.75381 -0.60116,-1.67728 -0.90821,-2.75195 0.0527,0.18447 0.24232,-2.37669 -1.91015,-6.68164 -1.99028,-3.98058 -4.13849,-5.78622 -4.66211,-6.48438 -0.93658,-1.24877 -0.8885,-1.15412 -1.55469,-2.03515 -0.15122,-0.39292 -0.31524,-1.00671 -0.45899,-1.32422 -0.57676,-1.27397 -1.24008,-2.48754 -2.26171,-4.27539 -1.92158,-3.36275 -3.72267,-5.05392 -4.26172,-5.8086 0.56441,0.79018 0.11145,-2.12846 -4.36914,-5.71289 -2.26663,-1.8133 -4.0913,-2.24777 -5.26563,-2.47461 -0.12182,-0.35883 -1.35591,-1.70335 -5.18359,-3.61718 -4.37071,-2.18536 -8.19854,-3.15076 -10.92774,-4.15625 -4.42034,-1.62855 -9.02416,-3.42667 -13.92578,-5.06055 -5.42011,-1.8067 -10.95513,-3.5666 -16.64062,-5.11719 -4.31674,-1.1773 -8.22471,-1.82255 -11.56641,-2.58203 -5.39591,-1.22634 -10.73029,-2.42069 -15.97851,-3.6875 -7.35619,-1.77563 -30.97984,-7.72493 -37.91993,-9.78125 -4.26728,-1.26438 -9.14067,-3.3536 -15.01367,-4.99805 -6.66169,-1.86527 -12.00971,-2.26841 -15.41992,-3.49609 -3.16909,-1.14088 -7.59419,-4.59205 -14.61133,-7.33789 -7.03845,-2.75418 -11.88954,-3.76158 -15.81445,-4.29883 -3.92492,-0.53725 -6.55784,-0.69376 -12.56836,-2.26172 -6.78099,-1.76895 -9.68665,-2.92019 -13.16602,-4.35351 -3.47936,-1.43333 -7.64489,-3.22676 -14.94726,-5.44922 -5.93337,-1.80581 -11.00056,-2.48731 -14.74805,-3.67969 -2.57349,-0.81884 -6.55422,-3.39592 -12.82422,-5.08398 -14.95316,-4.02586 -16.93671,-5.84947 -23.52539,-4.24415 -1.44133,0.35118 -1.62517,0.43583 -1.6543,0.48047 -0.1961,0.013 -1.86789,0.14092 -6.2539,-0.25781 -5.20867,-0.47351 -10.7652,-1.48401 -16.73438,-2.40234 -4.75908,-0.73217 -9.6809,-1.648 -14.81054,-2.46875 -5.9889,-0.95823 -11.18497,-1.32721 -15.35547,-2.32813 -3.26677,-0.78402 -8.01199,-3.46779 -15.07813,-5.0039 -6.7552,-1.46853 -11.51943,-0.81834 -13.79492,-1.27344 -4.45147,-0.8903 -9.96579,-3.31814 -17.13867,-4.91211 -6.90105,-1.53357 -12.28837,-1.44885 -15.64844,-2.36524 -1.03388,-0.28196 -4.32974,-3.06067 -11.10742,-4.94335 -5.6543,-1.57064 -10.06464,-1.24742 -12.72461,-1.54297 l -0.54883,-0.0605 h -0.55469 c -2.28611,0 -3.49553,6.6e-4 -3.89257,0.0742 -0.14737,-0.29824 -1.81173,-1.55191 -6.32032,-3.19141 -4.64447,-1.6889 -6.97734,-1.50351 -6.45117,-1.32812 0.11382,0.0379 -10.3645,-4.55204 -11.83203,-5.39063 -0.68258,-0.39005 -1.63054,-1.05167 -2.86523,-1.93359 -0.75468,-0.53906 -2.44585,-2.34014 -5.8086,-4.26172 -4.21853,-2.41059 -5.89933,-2.34811 -4.20703,-1.50195 -0.61327,-0.30664 -0.48794,-0.2479 -0.80273,-0.41993 -0.0685,-0.0897 -0.036,-0.0822 -0.10547,-0.16601 -1.14161,-1.37728 -2.26922,-2.30787 -3.75977,-3.42578 -1.5549,-1.16619 -2.55404,-1.73356 -3.11133,-1.98438 -0.0855,-0.15981 -0.26719,-0.54853 -1.8457,-1.73242 -1.91986,-1.43989 -2.17886,-1.41851 -2.83594,-1.84766 -0.16167,-0.38415 -0.0125,-0.52939 -1.3125,-3.77929 -0.70965,-1.77413 -1.27695,-2.65828 -1.48632,-3.04688 -0.0128,-0.79806 -0.0591,-1.80711 -0.47266,-3.875 -0.70592,-3.52972 -1.6691,-5.05927 -1.88477,-4.97851 -0.0704,-0.22968 -0.12989,-0.55509 -0.14843,-0.77539 -0.0878,-1.04328 -0.23521,-1.87914 -0.44336,-2.91993 h -0.002 c -0.40748,-2.03737 -0.79269,-3.23457 -1.03515,-3.77343 -0.004,-0.21489 -0.01,-0.1742 -0.01,-0.46094 0,0.26989 0.36141,-1.14601 -0.13476,-4.12305 -0.58688,-3.52128 -1.23519,-4.9811 -1.18164,-4.55273 1.9e-4,0.002 0.0781,-1.2377 0.0781,-3.7168 v -3.7168 -18.58789 -13.63086 c 0,-2.08686 -0.0361,-2.93215 -0.0449,-3.79296 2.13266,-2.73766 1.94403,-3.62324 2.32812,-4.97852 0.40978,-1.44588 0.7878,-3.11476 1.24024,-5.37695 0.60965,-3.04828 0.88559,-5.34146 0.75195,-7.69727 -0.0546,-0.96344 -0.28776,-1.91632 -0.50586,-2.78906 0.0725,-0.24768 0.0438,-0.24188 0.55078,-1.59375 -0.69897,1.86391 -0.1529,1.14453 1.79688,-2.26758 1.08409,-1.89717 1.37877,-2.55143 1.93555,-3.59375 0.6328,-0.69861 1.27665,-1.46496 2.14843,-2.55469 1.65188,-2.06485 2.48446,-3.6593 2.99024,-4.41797 0.94535,-1.41802 1.67919,-2.5911 2.29492,-3.45312 0.93014,-1.3022 2.24612,-2.89614 3.7168,-4.95508 1.24043,-1.73661 1.98768,-3.03157 2.47851,-3.71875 1.02023,-1.42832 2.24792,-2.99137 3.58008,-4.76758 1.01724,-1.35632 2.48123,-3.07632 4.03711,-5.41015 0.68634,-1.02951 0.83071,-1.31311 1.13281,-1.81446 0.69193,-0.46573 2.05957,-1.7339 3.82422,-4.38086 0.10488,-0.15731 0.10505,-0.2571 0.19922,-0.41015 1.70403,-0.74141 2.42467,-1.85287 3.1582,-2.50391 1.23996,-1.10051 2.21776,-2.19998 3.43946,-3.66601 1.51047,-1.81256 2.21592,-3.40388 2.64648,-4.74219 2.28865,-0.9993 4.04063,-2.00078 5.29687,-2.62891 -1.05954,0.52978 1.44163,0.52127 5.07618,-3.11328 0.43335,-0.43335 0.68782,-0.81675 1.00781,-1.2207 1.0799,-0.3868 2.47607,-0.96357 4.65625,-2.32617 2.99455,-1.8716 4.35406,-3.2697 4.7207,-3.91797 0.83845,-0.32028 2.3388,-1.10249 4.46485,-2.6211 1.49217,-1.06584 2.59756,-1.89509 3.54882,-2.67968 0.95127,-0.78459 1.64894,-1.07586 3.12696,-3.31055 0.0389,-0.0588 0.10608,-0.21442 0.15039,-0.2793 0.64893,-0.40945 0.29787,-0.19825 1.18164,-0.72851 0.91027,-0.54616 3.73228,-1.35716 7.6582,-3.85547 3.38256,-2.15254 5.55564,-4.33956 7.16016,-5.65235 3.78517,-3.09696 8.7291,-7.41641 11.60547,-9.33398 2.31647,-1.54431 3.43466,-2.25958 3.99414,-2.60547 0.63605,-0.11682 0.67518,-0.0651 1.16601,-0.23242 1.65813,-0.56518 3.33604,-1.32232 6.15625,-2.73242 1.87887,-0.93946 2.78612,-1.89459 3.36719,-2.58789 0.45087,-0.24861 1.368,-0.66785 3.36523,-2.26563 0.34454,-0.27563 0.23401,-0.27587 0.50196,-0.52344 0.25708,-0.05 0.35346,0.007 0.63281,-0.0625 3.70203,-0.92551 4.99277,-2.22978 4.52539,-1.99609 1.09162,-0.54581 2.97323,-1.35998 5.14258,-2.60156 0.59205,-0.0596 0.66946,-0.028 1.53906,-0.13672 4.97338,-0.62168 6.98471,-0.62516 13.42188,-3.03906 3.92099,-1.47039 5.30609,-2.58576 4.60937,-2.35352 0.29549,-0.0985 2.0602,-0.26685 5.20117,-0.96484 1.50646,-0.33477 3.53111,-0.70699 5.95118,-1.51367 4.60419,-1.53473 6.81017,-2.67365 9.98242,-4.25977 2.0068,-1.00341 1.80976,-1.00358 1.98242,-1.17383 0.46703,0.11846 1.99458,0.0616 4.87305,-0.34961 2.13873,-0.30552 3.4611,-0.68847 4.18945,-0.97656 0.71063,-0.0765 1.11287,-0.069 2.55469,-0.35742 2.04911,-0.40982 3.2438,-0.79707 3.77734,-1.03906 0.70357,0.13084 1.11265,0.32427 1.8418,0.33203 1.73667,0.0185 3.21792,-0.25175 4.75781,-0.63672 0.95425,-0.23857 1.64378,-0.5997 2.35352,-0.94922 0.65903,-0.0247 1.25485,-0.009 2.13867,-0.18555 1.20554,-0.24111 1.98342,-0.60376 2.71875,-0.94726 1.03905,0.071 2.37089,0.0584 4.26367,-0.48242 4.80485,-1.37282 6.45328,-3.00518 5.7207,-2.73047 -0.53174,0.1994 1.23414,0.15705 4.95508,-1.23828 1.94452,-0.72919 3.01677,-1.24149 3.72852,-1.63086 0.75743,0.0116 1.82781,-0.0263 3.91406,-0.28711 1.96032,-0.24504 3.36849,-0.45156 4.57031,-0.67969 0.60091,-0.11407 1.14095,-0.22664 1.8125,-0.41602 0.11086,-0.0313 0.26453,-0.078 0.37891,-0.10351 1.37251,0.0137 1.8113,0.0371 4.39062,0.0371 h 0.49805 l 0.49609,-0.0508 c 4.50335,-0.45034 6.10858,-1.3658 5.06641,-1.25 -0.71649,0.0796 1.74775,0.92818 7.05273,-0.13282 3.7499,-0.74997 5.34162,-1.57058 6.03907,-2.07812 0.62374,-0.0192 1.37114,-0.0606 3.15234,-0.2832 3.53812,-0.44227 5.55559,-1.16003 6.19727,-1.24024 -1.50172,0.18772 -0.0762,0.64094 4.12109,-0.0586 2.29663,-0.38278 3.67821,-0.74534 4.22851,-0.98047 0.92565,0.12774 2.5087,0.19825 5.45508,-0.22266 1.23212,-0.17602 1.96855,-0.5399 2.76758,-0.87109 0.83393,0.067 2.46679,6.6e-4 4.89649,-0.4043 4.77882,-0.79647 6.23409,-2.62193 5.30664,-2.1582 1.10093,-0.55047 2.20177,-1.10187 3.30273,-1.65235 0.60371,-0.12643 0.80707,-0.0249 1.58203,-0.2832 1.14647,-0.38216 1.36948,-0.50256 1.95313,-0.72656 h 2.32031 c -0.48138,0 1.06522,0.48151 4.43945,-0.19336 2.0371,-0.40741 3.23443,-0.79268 3.77344,-1.03516 0.21474,-0.004 0.1745,-0.01 0.46094,-0.01 h 2.47851 c 0.14321,0 1.97694,0.42733 5.36133,-0.13672 2.25684,-0.37615 3.65059,-0.74994 4.2207,-0.99414 5.6e-4,-2.4e-4 0.003,-0.002 0.004,-0.002 0.78058,0.0344 1.97531,0.0263 3.80078,-0.15625 3.80221,-0.38022 6.23767,-1.12045 7.43555,-1.24024 0.32388,-0.0324 1.64537,0.0508 3.96094,0.0508 0.63849,0 2.83971,0.44233 6.47656,-0.11719 4.7732,-0.73434 8.56913,-1.94976 11.59375,-2.55468 1.74188,-0.34838 4.30276,-0.56781 7.56836,-1.26758 8.18269,-1.75344 13.95663,-3.81932 20.53125,-4.85742 2.91993,-0.46104 7.14531,-0.36374 12.47461,-1.25196 4.30622,-0.7177 7.86857,-1.88721 10.84765,-2.68164 3.86147,-1.02972 6.3748,-2.04781 7.74024,-2.27539 -0.12496,0.0208 1.3915,0.13477 4.55273,0.13477 h 14.86914 v -20 h -14.86914 c -0.48464,0 -1.39512,-0.13989 -2.70898,-0.19336 z m -142.57227,25.84766 c -0.12089,0.0943 -0.42628,0.28934 -0.48437,0.33007 -0.18545,0.13005 -0.0323,-0.0615 0.48437,-0.33007 z m -51.73633,9.3164 c -0.10006,2.64249 -0.33276,8.76549 -0.43164,11.38281 -1.15732,-2.15917 -2.05413,-5.33737 -1.27148,-7.99804 0.46008,-1.56407 1.07817,-2.59169 1.70312,-3.38477 z m -27.57031,5.55274 c -0.0721,0.0531 -0.28161,0.18291 -0.32617,0.21289 -0.20397,0.13722 -0.0914,0.003 0.32617,-0.21289 z m -3.36523,0.66796 c -0.52537,0.13135 -0.42087,0.0333 0.30468,0.041 0.72556,0.008 2.0892,0.35886 2.12891,0.37305 0.0336,0.012 -1.17001,-0.21427 -2.46094,-0.40235 0.0113,-0.003 0.016,-0.009 0.0274,-0.0117 z m 93.66992,1.16797 c 0.21881,-0.15344 0.0673,0.0276 -0.43945,0.29297 0.10293,-0.0794 0.38277,-0.25322 0.43945,-0.29297 z m -98.20508,1.27735 c -0.39409,0.59185 -0.89028,1.3223 -0.94531,1.41211 -0.0849,0.13855 0.12212,-0.54858 0.94531,-1.41211 z m 16.10742,11.86133 c 0.0849,-0.13854 -0.12211,0.54857 -0.94531,1.4121 0.39408,-0.59184 0.89029,-1.3223 0.94531,-1.4121 z m 2.63086,1.83398 c 0.20393,-0.1372 0.0911,-0.005 -0.32617,0.21094 0.0719,-0.053 0.28169,-0.18102 0.32617,-0.21094 z m -85.77929,3.89258 c -0.12789,0.18355 -0.47593,0.55427 -0.53711,0.64258 -0.236,0.34061 -0.041,-0.0286 0.53711,-0.64258 z m -0.10157,0.71679 c 0.46078,0.0416 0.49879,0.15024 0.13672,0.0899 -0.0695,-0.0116 -0.38006,-0.0284 -0.48828,-0.0488 0.0753,0.003 0.29095,-0.0465 0.35156,-0.041 z m -16.47461,8.5293 c -0.17789,0.23252 -0.85824,0.85696 -0.86328,0.86328 -0.008,0.01 0.30658,-0.36906 0.86328,-0.86328 z m -37.33789,26.00195 c 0.0863,-0.002 0.4039,0.14793 0.50782,0.15625 -0.19303,-0.005 -0.62642,-0.0975 -0.76563,-0.0859 0.11066,-0.0252 0.0981,-0.0675 0.25781,-0.0703 z m 1.45703,20.11329 c 0.10213,-0.0143 -0.11203,0.11174 -0.86718,0.0996 0.57162,-0.0472 0.78754,-0.0884 0.86718,-0.0996 z m -29.80859,0.26953 c -0.0449,0.17613 -0.22227,0.60087 -0.24805,0.69336 -0.11117,0.39884 -0.0872,0.0318 0.24805,-0.69336 z m -13.24023,10.14258 c -0.007,0.033 -0.0322,0.11173 -0.0391,0.14257 -0.17603,0.1863 -0.61748,0.68337 -0.57812,0.64844 0.0327,-0.0291 0.32106,-0.44145 0.61719,-0.79101 z m 11.76171,12.99023 c -0.066,0.12133 -0.0449,0.16317 -0.19531,0.31445 0.0652,-0.10378 0.14059,-0.2285 0.19531,-0.31445 z m -53.63085,58.82227 c -0.009,0.0316 -0.035,0.15933 -0.043,0.1875 -0.10113,0.35681 -0.2141,0.3159 0.043,-0.1875 z m -1.75586,4.54101 c -0.13243,-0.58866 -0.0224,-0.0547 0.0801,0.5625 0.0251,0.15084 0.21271,0.66365 0.23047,0.83399 -0.35743,-0.84161 -0.27055,-1.21871 -0.31054,-1.39649 z m 1.34375,66.35547 c 0.12284,0.61424 0.14846,0.93138 0.12695,0.67578 -0.004,-0.0473 -0.0659,-0.26274 -0.12109,-0.33789 0.0219,-0.0455 0.0396,-0.11046 -0.006,-0.33789 z m 1.61132,6.29687 c 0.0967,0.12742 0.76064,0.75975 1.1211,1.16407 -0.045,-0.0438 -0.19181,-0.14245 -0.23242,-0.18164 -0.58254,-0.56212 -0.70224,-0.74894 -0.8086,-0.88086 -0.21271,-0.26384 -0.16541,-0.21395 -0.0801,-0.10157 z m 495.53711,198.27735 c 0.27416,0.18623 0.75651,0.60954 0.85547,0.67578 0.27631,0.18494 -0.17237,-0.0323 -0.85547,-0.67578 z m 12.94532,9.9043 c -0.60994,0.57213 -1.00001,0.75512 -0.77735,0.60156 0.0861,-0.0593 0.52656,-0.43221 0.77735,-0.60156 z"
         id="path419" />
    </g>
  </g>
</svg>
