<?xml version="1.0" encoding="UTF-8" standalone="no"?>
<!-- Created with Inkscape (http://www.inkscape.org/) -->

<svg
   width="1000"
   height="1000"
   viewBox="0 0 1000 1000"
   version="1.1"
   id="svg1"
   xmlns:xlink="http://www.w3.org/1999/xlink"
   xmlns="http://www.w3.org/2000/svg"
   xmlns:svg="http://www.w3.org/2000/svg">
  <defs
     id="defs1">
    <pattern
       xlink:href="#pattern359"
       preserveAspectRatio="xMidYMid"
       id="pattern372"
       patternTransform="matrix(0.5,0,0,0.5,147.15462,1548.2922)" />
    <pattern
       xlink:href="#pattern357"
       preserveAspectRatio="xMidYMid"
       id="pattern371"
       patternTransform="matrix(0.5,0,0,0.5,221.32076,1552.4298)" />
    <pattern
       xlink:href="#pattern358"
       preserveAspectRatio="xMidYMid"
       id="pattern370"
       patternTransform="matrix(0.5,0,0,0.5,230.96346,1527.8214)" />
    <pattern
       xlink:href="#pattern355"
       preserveAspectRatio="xMidYMid"
       id="pattern369"
       patternTransform="matrix(0.5,0,0,0.5,287.08178,1553.6581)" />
    <pattern
       xlink:href="#pattern354"
       preserveAspectRatio="xMidYMid"
       id="pattern368"
       patternTransform="matrix(0.5,0,0,0.5,230.97274,1529.1717)" />
    <pattern
       xlink:href="#pattern342"
       preserveAspectRatio="xMidYMid"
       id="pattern360"
       patternTransform="matrix(0.5,0,0,0.5,210.45332,1525.5392)" />
    <pattern
       xlink:href="#pattern342"
       preserveAspectRatio="xMidYMid"
       id="pattern359"
       patternTransform="matrix(0.5,0,0,0.5,152.11125,1550.7705)" />
    <pattern
       xlink:href="#pattern342"
       preserveAspectRatio="xMidYMid"
       id="pattern358"
       patternTransform="matrix(0.5,0,0,0.5,202.11125,1533.2444)" />
    <pattern
       xlink:href="#pattern342"
       preserveAspectRatio="xMidYMid"
       id="pattern357"
       patternTransform="matrix(0.5,0,0,0.5,211.4075,1546.234)" />
    <pattern
       xlink:href="#pattern342"
       preserveAspectRatio="xMidYMid"
       id="pattern356"
       patternTransform="matrix(0.5,0,0,0.5,232.14929,1573.2544)" />
    <pattern
       xlink:href="#pattern342"
       preserveAspectRatio="xMidYMid"
       id="pattern355"
       patternTransform="matrix(0.5,0,0,0.5,275,1552.7287)" />
    <pattern
       xlink:href="#pattern342"
       preserveAspectRatio="xMidYMid"
       id="pattern354"
       patternTransform="matrix(0.5,0,0,0.5,235,1529.7913)" />
    <pattern
       xlink:href="#shading24"
       preserveAspectRatio="xMidYMid"
       id="pattern342"
       patternTransform="matrix(0.5,0,0,0.5,213.95332,1537.5392)"
       x="0"
       y="0" />
    <pattern
       patternUnits="userSpaceOnUse"
       width="338.5925"
       height="42.989567"
       patternTransform="translate(213.95332,1537.5392) scale(0.5)"
       preserveAspectRatio="xMidYMid"
       id="shading24"
       style="fill:#000000">
      <path
         style="fill-rule:nonzero;stroke:none;stroke-width:0.1;stroke-linecap:square;paint-order:markers fill stroke;stop-color:#000000"
         d="m 1806.4991,-758.06464 v 18.86792 c 55.9187,0 121.0493,0.59523 193.5686,3.15628 72.9408,2.57593 146.0589,6.87694 222.9288,13.47675 119.09,10.22471 223.0762,23.76065 340.6056,39.2177 117.5025,15.4535 222.0471,29.0563 341.8507,39.3312 77.366,6.63525 151.0001,10.96128 224.4674,13.55245 73.0344,2.5759 138.631,3.17493 194.9247,3.17493 -55.9642,0 -122.2215,-1.36594 -194.8324,-5.25394 -73.2143,-3.92032 -146.9676,-10.0663 -223.8166,-18.88656 -118.8791,-13.6442 -223.3242,-31.02113 -339.8009,-50.57815 -116.4705,-19.55598 -221.1862,-36.99475 -340.3724,-50.69165 -77.0605,-8.8558 -150.9942,-15.0266 -224.3694,-18.96225 -72.7637,-3.90286 -139.1256,-5.27261 -195.1541,-5.27261 z m 0,37.81515 v 18.86793 c 55.9187,0 121.0493,0.59523 193.5686,3.15627 72.9408,2.57593 146.0589,6.87694 222.9288,13.47676 119.09,10.22471 223.0762,23.76065 340.6056,39.2177 117.5025,15.4535 222.0471,29.0563 341.8507,39.33119 77.366,6.63526 151.0001,10.96128 224.4674,13.55245 73.0344,2.5759 138.631,3.17493 194.9247,3.17493 -55.9642,0 -122.2215,-1.36594 -194.8324,-5.25394 -73.2143,-3.92031 -146.9676,-10.0663 -223.8166,-18.88656 -118.8791,-13.6442 -223.3242,-31.02112 -339.8009,-50.57815 -116.4705,-19.55598 -221.1862,-36.99475 -340.3724,-50.69165 -77.0605,-8.8558 -150.9942,-15.02659 -224.3694,-18.96225 -72.7637,-3.90286 -139.1256,-5.2726 -195.1541,-5.2726 z m 0,37.81516 v 18.86792 c 55.9187,0 121.0493,0.59523 193.5686,3.15628 72.9408,2.57593 146.0589,6.87694 222.9288,13.47675 119.09,10.22471 223.0762,23.76065 340.6056,39.2177 117.5025,15.4535 222.0471,29.0563 341.8507,39.3312 77.366,6.63525 151.0001,10.96128 224.4674,13.55245 73.0344,2.5759 138.631,3.17493 194.9247,3.17493 -55.9642,0 -122.2215,-1.36594 -194.8324,-5.25394 -73.2143,-3.92032 -146.9676,-10.0663 -223.8166,-18.88656 -118.8791,-13.6442 -223.3242,-31.02113 -339.8009,-50.57815 -116.4705,-19.55598 -221.1862,-36.99475 -340.3724,-50.69165 -77.0605,-8.8558 -150.9942,-15.0266 -224.3694,-18.96225 -72.7637,-3.90286 -139.1256,-5.27261 -195.1541,-5.27261 z m 0,37.81515 v 18.86793 c 55.9187,0 121.0493,0.59523 193.5686,3.15627 72.9408,2.57593 146.0589,6.87694 222.9288,13.47676 119.09,10.22471 223.0762,23.76065 340.6056,39.2177 117.5025,15.4535 222.0471,29.0563 341.8507,39.33119 77.366,6.63526 151.0001,10.96128 224.4674,13.55245 73.0344,2.5759 138.631,3.17494 194.9247,3.17494 -55.9642,0 -122.2215,-1.36595 -194.8324,-5.25395 -73.2143,-3.92031 -146.9676,-10.0663 -223.8166,-18.88656 -118.8791,-13.6442 -223.3242,-31.02112 -339.8009,-50.57815 -116.4705,-19.55598 -221.1862,-36.99475 -340.3724,-50.69165 -77.0605,-8.8558 -150.9942,-15.02659 -224.3694,-18.96225 -72.7637,-3.90286 -139.1256,-5.2726 -195.1541,-5.2726 z m 0,37.81516 v 18.86792 c 55.9187,0 121.0493,0.59523 193.5686,3.15628 72.9408,2.57593 146.0589,6.87694 222.9288,13.47675 119.09,10.22471 223.0762,23.76065 340.6056,39.2177 117.5025,15.4535 222.0471,29.0563 341.8507,39.3312 77.366,6.63525 151.0001,10.96128 224.4674,13.55245 73.0344,2.5759 138.631,3.17493 194.9247,3.17493 -55.9642,0 -122.2215,-1.36594 -194.8324,-5.25394 -73.2143,-3.92032 -146.9676,-10.0663 -223.8166,-18.88656 -118.8791,-13.6442 -223.3242,-31.02113 -339.8009,-50.57815 -116.4705,-19.55598 -221.1862,-36.99475 -340.3724,-50.69165 -77.0605,-8.8558 -150.9942,-15.0266 -224.3694,-18.96225 -72.7637,-3.90286 -139.1256,-5.27261 -195.1541,-5.27261 z m 0,37.81515 v 18.86793 c 55.9187,0 121.0493,0.59523 193.5686,3.15627 72.9408,2.57593 146.0589,6.87694 222.9288,13.47676 119.09,10.22471 223.0762,23.76065 340.6056,39.2177 117.5025,15.4535 222.0471,29.0563 341.8507,39.33119 77.366,6.63526 151.0001,10.96128 224.4674,13.55245 73.0344,2.5759 138.631,3.17494 194.9247,3.17494 -55.9642,0 -122.2215,-1.36595 -194.8324,-5.25395 -73.2143,-3.92031 -146.9676,-10.0663 -223.8166,-18.88656 -118.8791,-13.6442 -223.3242,-31.02112 -339.8009,-50.57815 -116.4705,-19.55598 -221.1862,-36.99475 -340.3724,-50.69165 -77.0605,-8.8558 -150.9942,-15.02659 -224.3694,-18.96225 -72.7637,-3.90286 -139.1256,-5.2726 -195.1541,-5.2726 z m 0,37.81516 v 18.86792 c 55.9187,0 121.0493,0.59523 193.5686,3.15628 72.9408,2.57593 146.0589,6.87694 222.9288,13.47675 119.09,10.22471 223.0762,23.76065 340.6056,39.2177 117.5025,15.4535 222.0471,29.0563 341.8507,39.3312 77.366,6.63525 151.0001,10.96128 224.4674,13.55245 73.0344,2.5759 138.631,3.17493 194.9247,3.17493 -55.9642,0 -122.2215,-1.36594 -194.8324,-5.25394 -73.2143,-3.92032 -146.9676,-10.0663 -223.8166,-18.88656 -118.8791,-13.6442 -223.3242,-31.02113 -339.8009,-50.57815 -116.4705,-19.55598 -221.1862,-36.99475 -340.3724,-50.69165 -77.0605,-8.8558 -150.9942,-15.0266 -224.3694,-18.96225 -72.7637,-3.90286 -139.1256,-5.27261 -195.1541,-5.27261 z"
         id="use26"
         transform="matrix(0.22300099,0,0,0.37823052,-402.85121,237.25945)" />
    </pattern>
    <clipPath
       clipPathUnits="userSpaceOnUse"
       id="clipPath54">
      <path
         id="path336"
         style="stroke-width:0.0999999;stroke-linecap:square;paint-order:markers fill stroke;stop-color:#000000"
         d="m 1691.1994,-792.32001 h 1634.8919 v 92.82806 H 1691.1994 Z" />
    </clipPath>
    <clipPath
       clipPathUnits="userSpaceOnUse"
       id="clipPath33">
      <rect
         style="fill:#000000;stroke:none;stroke-width:0.999995;stroke-linecap:butt;stroke-linejoin:bevel;paint-order:stroke markers fill;stop-color:#000000"
         id="rect33"
         width="46.19186"
         height="80.006783"
         x="74.999985"
         y="399.99661" />
    </clipPath>
    <clipPath
       clipPathUnits="userSpaceOnUse"
       id="clipPath27">
      <rect
         style="fill:none;stroke:#000000;stroke-width:0.999999;stroke-linecap:butt;stroke-linejoin:bevel;paint-order:stroke markers fill;stop-color:#000000"
         id="rect28-6"
         width="46.160622"
         height="39.922417"
         x="86.574379"
         y="420.06253" />
    </clipPath>
    <clipPath
       clipPathUnits="userSpaceOnUse"
       id="clipPath25">
      <rect
         style="fill:#ff0000;stroke:none;stroke-width:3;stroke-linecap:square;stroke-linejoin:miter;paint-order:stroke markers fill;stop-color:#000000"
         id="rect25-8"
         width="78"
         height="45.033199"
         x="763.61322"
         y="452.82422" />
    </clipPath>
    <clipPath
       clipPathUnits="userSpaceOnUse"
       id="clipPath15">
      <rect
         style="fill:none;stroke:#000000;stroke-linecap:butt;stroke-linejoin:bevel;paint-order:stroke markers fill;stop-color:#000000"
         id="rect15-7"
         width="45.034248"
         height="38.955639"
         x="262.48285"
         y="121.00073" />
    </clipPath>
    <linearGradient
       id="swatch75">
      <stop
         style="stop-color:#000000;stop-opacity:1;"
         offset="0"
         id="stop75" />
    </linearGradient>
  </defs>
  <g
     id="layer51"
     style="display:inline">
    <g
       id="layer63"
       style="display:inline">
      <path
         style="baseline-shift:baseline;display:inline;overflow:visible;opacity:1;vector-effect:none;fill-rule:evenodd;enable-background:accumulate;stop-color:#000000;stop-opacity:1"
         d="m 444.93555,222.81836 c -5.83725,-0.047 -11.75349,-0.0449 -17.74805,0.14844 -14.5493,0.46933 -28.5829,1.95699 -42.19336,2.48047 0.25282,-0.01 -3.46398,0.0275 -7.70703,0.0234 -4.24306,-0.004 -9.66199,-0.0184 -15.0625,-0.0332 -5.40051,-0.0148 -10.78127,-0.0299 -14.9707,-0.0332 -4.18943,-0.003 -5.96647,-0.0714 -8.25,0.0488 -8.84556,0.46556 -16.67302,2.03542 -23.66211,2.48633 -4.08973,0.26385 -8.84073,-0.0215 -14.22657,-0.0215 -2.41637,0 -5.55511,-0.24831 -9.38671,0.0254 -4.24165,0.30297 -7.12939,1.10958 -8.79102,1.24805 -2.4611,0.20509 -6.62115,-0.48095 -12.39258,0 l 1.66016,19.93164 c 2.46109,-0.20509 6.62115,0.48095 12.39258,0 4.15963,-0.34664 6.97168,-1.11726 8.55664,-1.23047 1.93643,-0.13832 4.59456,0.0254 7.96093,0.0254 4.52743,0 9.7107,0.35484 15.51368,-0.0195 8.76087,-0.56523 16.51044,-2.10869 23.42578,-2.47266 -1.13126,0.0595 3.02518,-0.0248 7.18164,-0.0215 4.15646,0.003 9.53343,0.0184 14.93359,0.0332 5.40017,0.0148 10.82406,0.0291 15.09766,0.0332 4.2736,0.004 6.7475,0.0281 8.49414,-0.0391 14.50488,-0.55788 28.49813,-2.0368 42.07031,-2.47461 11.1298,-0.35903 22.59263,0.004 34.37305,0.004 h 27.26172 42.13086 c 10.96912,0 21.60125,-0.36014 31.875,-0.006 12.71373,0.4384 25.87965,1.92785 39.59765,2.47656 8.25728,0.33029 15.68975,-0.29396 22.25977,-0.002 10.60323,0.47125 21.70791,1.91857 33.42578,2.47656 6.82226,0.32487 13.18382,0.0117 19.0625,0.0117 h 32.21875 13.63086 2.47851 c 2.18201,0 2.94278,-0.008 2.30274,-0.0996 -0.46716,-0.0667 1.16895,0.76648 5.13086,1.26172 3.28047,0.41005 5.37195,0.0781 6.19726,0.0781 h 7.4336 27.26172 v -20 h -27.26172 -7.4336 c -2.4791,0 -3.71836,0.076 -3.71679,0.0762 0.58208,0.0728 -0.94416,-0.66642 -4.78321,-1.21484 -3.09344,-0.44194 -4.83454,-0.10156 -5.13086,-0.10156 h -2.47851 -13.63086 -32.21875 c -6.51288,0 -12.55602,0.27625 -18.11133,0.0117 -10.62275,-0.50585 -21.74762,-1.95867 -33.48828,-2.48047 -8.28521,-0.36824 -15.74889,0.26207 -22.34961,-0.002 -12.74778,-0.50991 -25.94954,-2.00608 -39.70703,-2.48047 -11.19221,-0.38595 -22.05484,-0.006 -32.56445,-0.006 H 489.4668 462.20508 c -5.67526,0 -11.43228,-0.0955 -17.26953,-0.14258 z"
         id="path420" />
      <path
         style="baseline-shift:baseline;display:inline;overflow:visible;opacity:1;vector-effect:none;fill-rule:evenodd;enable-background:accumulate;stop-color:#000000;stop-opacity:1"
         d="m 498.05469,241.63477 c 0,15.5022 -0.16622,16.63004 1.26367,36.64843 0.69216,9.69036 2.12312,18.63286 2.46289,26.95703 0.43264,10.59983 -0.01,21.62454 -0.01,33.04883 0,13.42921 0.41183,26.54777 0.006,39.33594 l -0.01,0.29297 0.008,0.29297 c 0.56095,20.87903 -4.06613,42.76397 -4.95312,66.26953 -0.49108,13.01324 0.22262,25.4778 -0.006,37.35937 -0.55242,28.7255 -2.47838,27.07562 -1.23243,57.60157 0.45073,11.04258 1.95787,21.37081 2.48438,31.11132 0.22869,4.23078 -0.0137,9.01361 -0.0137,14.33008 0,3.91153 -0.5057,8.7966 0.0449,14.57813 0.596,6.2579 2.28355,10.248 2.47461,12.34961 0.2932,3.22521 -0.51663,8.16671 -0.0117,14.73047 0.70843,9.20965 1.17165,13.68456 1.70508,16.69335 0.21135,1.19213 0.19252,2.20319 1.40429,4.32813 0.13488,1.83374 0.31378,4.69071 0.58594,12.03906 0.19577,5.28562 -0.008,10.94903 -0.008,16.97852 v 12.39062 c 0,3.08541 -0.42738,7.14241 0.0449,12.10157 1.20729,12.67647 4.26968,20.73648 4.9336,30.69531 0.37649,5.64738 -0.59566,12.71942 0.004,21.11328 0.46491,6.50883 2.15123,10.89876 2.44922,13.61133 -0.005,6.77111 -0.0538,10.55663 -0.082,12.05078 -0.007,0.39503 -0.0116,0.6615 -0.0156,0.88672 -0.002,0.1126 -0.005,0.20836 -0.006,0.36718 -3.9e-4,0.15883 -0.12876,-0.17336 0.0937,1.4629 0.0278,0.20453 0.0654,0.46163 0.15625,0.86328 0.0908,0.40164 0.64816,1.92906 0.64844,1.92968 3e-5,7e-5 0.42383,0.43647 0.5293,0.54493 0.18582,0.99874 0.55823,2.71177 1.22656,8.39257 0.15581,1.32435 -0.0684,3.83556 -0.0684,7.50586 v 9.91211 12.39258 4.95703 c 0,2.06606 0.0247,2.88801 0.0762,2.47656 -0.0947,0.75772 -0.74355,2.7225 -1.21484,6.02149 -0.38349,2.68446 -0.10156,4.00928 -0.10156,3.89258 v 7.43554 2.44532 c -0.23335,0.55937 -0.39125,0.8261 -0.72461,1.82617 v 0.002 c -1.46384,4.39175 -0.51367,6.0954 -0.51367,4.40039 v 2.47852 6.19531 h 20 v -6.19531 -1.20313 c 0.23353,-0.55957 0.3927,-0.82849 0.72656,-1.83008 1.46402,-4.39195 0.51172,-6.09751 0.51172,-4.40234 v -3.7168 -7.43554 c 0,-1.76892 0.0502,-2.11329 -0.0996,-1.06446 0.12443,-0.87099 0.83395,-2.94705 1.26172,-6.36914 0.35883,-2.87063 0.0781,-4.54479 0.0781,-4.95703 v -4.95703 -12.39258 -9.91211 c 0,-2.11241 0.4515,-5.42497 -0.0684,-9.84375 -0.86255,-7.33167 -1.30686,-10.50292 -2.11133,-13.37695 -0.0695,-0.24823 -0.28552,-0.67663 -0.36914,-0.94531 0.0309,-2.06568 0.0703,-4.35958 0.0703,-10.53125 v -0.45313 l -0.041,-0.45117 c -0.59107,-6.50177 -2.27904,-10.86365 -2.46289,-13.4375 -0.40102,-5.61424 0.56159,-12.65423 0.004,-21.01953 -0.86204,-12.93066 -4.03138,-21.29627 -4.98047,-31.26172 -0.2326,-2.4423 0.0449,-5.85555 0.0449,-10.20508 v -12.39062 c 0,-5.536 0.22644,-11.44683 -0.006,-17.71875 -0.32188,-8.69064 -0.51399,-12.73393 -0.76953,-15.31055 -0.0639,-0.64415 -0.12422,-1.19562 -0.26758,-1.94531 -0.12866,-0.67286 -0.093,-1.53782 -1.42383,-3.66211 -0.26367,-1.82358 -0.6729,-5.05239 -1.27929,-12.93555 -0.25541,-3.3203 0.59258,-8.36046 -0.0117,-15.00781 -0.57168,-6.28843 -2.27968,-10.30675 -2.48242,-12.43555 -0.31093,-3.26469 0.0449,-7.506 0.0449,-12.68164 0,-4.59679 0.29076,-9.74211 -0.0156,-15.41015 -0.59177,-10.94789 -2.07646,-21.18888 -2.4707,-30.84766 -1.21327,-29.72505 0.67653,-26.78322 1.24609,-56.40039 0.24802,-12.89699 -0.44934,-25.23795 -0.006,-36.99024 0.79979,-21.19452 5.60456,-43.5315 4.95899,-67.56054 v 0.58594 c 0.43281,-13.63387 0.004,-26.96456 0.004,-39.97071 0,-10.88053 0.46919,-22.17683 -0.008,-33.86328 -0.40449,-9.90988 -1.88806,-19.05389 -2.49609,-27.56641 -1.41972,-19.87598 -1.21289,-19.56355 -1.21289,-35.2246 z m 8.63867,393.75781 c -0.44648,0.35729 -0.85433,0.68831 -1.03906,0.88672 0.15337,-0.25056 0.51298,-0.47684 1.03906,-0.88672 z m 15.23633,4.03906 c 0.25662,0.63935 0.10093,0.70552 0.0312,0.3125 -0.005,-0.027 -0.0262,-0.28257 -0.0312,-0.3125 z m 5.01562,148.22656 c -1.13161,0.67597 -2.55554,1.24151 -4.29101,1.37305 -1.20114,0.091 -2.28838,-0.10948 -3.30274,-0.39844 2.40668,-0.30864 6.16111,-0.79069 7.59375,-0.97461 z"
         id="path421" />
    </g>
  </g>
</svg>
