<?xml version="1.0" encoding="UTF-8" standalone="no"?>
<!-- Created with Inkscape (http://www.inkscape.org/) -->

<svg
   width="1000"
   height="1000"
   viewBox="0 0 1000 1000"
   version="1.1"
   id="svg1"
   xmlns:xlink="http://www.w3.org/1999/xlink"
   xmlns="http://www.w3.org/2000/svg"
   xmlns:svg="http://www.w3.org/2000/svg">
  <defs
     id="defs1">
    <pattern
       xlink:href="#pattern359"
       preserveAspectRatio="xMidYMid"
       id="pattern372"
       patternTransform="matrix(0.5,0,0,0.5,147.15462,1548.2922)" />
    <pattern
       xlink:href="#pattern357"
       preserveAspectRatio="xMidYMid"
       id="pattern371"
       patternTransform="matrix(0.5,0,0,0.5,221.32076,1552.4298)" />
    <pattern
       xlink:href="#pattern358"
       preserveAspectRatio="xMidYMid"
       id="pattern370"
       patternTransform="matrix(0.5,0,0,0.5,230.96346,1527.8214)" />
    <pattern
       xlink:href="#pattern355"
       preserveAspectRatio="xMidYMid"
       id="pattern369"
       patternTransform="matrix(0.5,0,0,0.5,287.08178,1553.6581)" />
    <pattern
       xlink:href="#pattern354"
       preserveAspectRatio="xMidYMid"
       id="pattern368"
       patternTransform="matrix(0.5,0,0,0.5,230.97274,1529.1717)" />
    <pattern
       xlink:href="#pattern342"
       preserveAspectRatio="xMidYMid"
       id="pattern360"
       patternTransform="matrix(0.5,0,0,0.5,210.45332,1525.5392)" />
    <pattern
       xlink:href="#pattern342"
       preserveAspectRatio="xMidYMid"
       id="pattern359"
       patternTransform="matrix(0.5,0,0,0.5,152.11125,1550.7705)" />
    <pattern
       xlink:href="#pattern342"
       preserveAspectRatio="xMidYMid"
       id="pattern358"
       patternTransform="matrix(0.5,0,0,0.5,202.11125,1533.2444)" />
    <pattern
       xlink:href="#pattern342"
       preserveAspectRatio="xMidYMid"
       id="pattern357"
       patternTransform="matrix(0.5,0,0,0.5,211.4075,1546.234)" />
    <pattern
       xlink:href="#pattern342"
       preserveAspectRatio="xMidYMid"
       id="pattern356"
       patternTransform="matrix(0.5,0,0,0.5,232.14929,1573.2544)" />
    <pattern
       xlink:href="#pattern342"
       preserveAspectRatio="xMidYMid"
       id="pattern355"
       patternTransform="matrix(0.5,0,0,0.5,275,1552.7287)" />
    <pattern
       xlink:href="#pattern342"
       preserveAspectRatio="xMidYMid"
       id="pattern354"
       patternTransform="matrix(0.5,0,0,0.5,235,1529.7913)" />
    <pattern
       xlink:href="#shading24"
       preserveAspectRatio="xMidYMid"
       id="pattern342"
       patternTransform="matrix(0.5,0,0,0.5,213.95332,1537.5392)"
       x="0"
       y="0" />
    <pattern
       patternUnits="userSpaceOnUse"
       width="338.5925"
       height="42.989567"
       patternTransform="translate(213.95332,1537.5392) scale(0.5)"
       preserveAspectRatio="xMidYMid"
       id="shading24"
       style="fill:#000000">
      <path
         style="fill-rule:nonzero;stroke:none;stroke-width:0.1;stroke-linecap:square;paint-order:markers fill stroke;stop-color:#000000"
         d="m 1806.4991,-758.06464 v 18.86792 c 55.9187,0 121.0493,0.59523 193.5686,3.15628 72.9408,2.57593 146.0589,6.87694 222.9288,13.47675 119.09,10.22471 223.0762,23.76065 340.6056,39.2177 117.5025,15.4535 222.0471,29.0563 341.8507,39.3312 77.366,6.63525 151.0001,10.96128 224.4674,13.55245 73.0344,2.5759 138.631,3.17493 194.9247,3.17493 -55.9642,0 -122.2215,-1.36594 -194.8324,-5.25394 -73.2143,-3.92032 -146.9676,-10.0663 -223.8166,-18.88656 -118.8791,-13.6442 -223.3242,-31.02113 -339.8009,-50.57815 -116.4705,-19.55598 -221.1862,-36.99475 -340.3724,-50.69165 -77.0605,-8.8558 -150.9942,-15.0266 -224.3694,-18.96225 -72.7637,-3.90286 -139.1256,-5.27261 -195.1541,-5.27261 z m 0,37.81515 v 18.86793 c 55.9187,0 121.0493,0.59523 193.5686,3.15627 72.9408,2.57593 146.0589,6.87694 222.9288,13.47676 119.09,10.22471 223.0762,23.76065 340.6056,39.2177 117.5025,15.4535 222.0471,29.0563 341.8507,39.33119 77.366,6.63526 151.0001,10.96128 224.4674,13.55245 73.0344,2.5759 138.631,3.17493 194.9247,3.17493 -55.9642,0 -122.2215,-1.36594 -194.8324,-5.25394 -73.2143,-3.92031 -146.9676,-10.0663 -223.8166,-18.88656 -118.8791,-13.6442 -223.3242,-31.02112 -339.8009,-50.57815 -116.4705,-19.55598 -221.1862,-36.99475 -340.3724,-50.69165 -77.0605,-8.8558 -150.9942,-15.02659 -224.3694,-18.96225 -72.7637,-3.90286 -139.1256,-5.2726 -195.1541,-5.2726 z m 0,37.81516 v 18.86792 c 55.9187,0 121.0493,0.59523 193.5686,3.15628 72.9408,2.57593 146.0589,6.87694 222.9288,13.47675 119.09,10.22471 223.0762,23.76065 340.6056,39.2177 117.5025,15.4535 222.0471,29.0563 341.8507,39.3312 77.366,6.63525 151.0001,10.96128 224.4674,13.55245 73.0344,2.5759 138.631,3.17493 194.9247,3.17493 -55.9642,0 -122.2215,-1.36594 -194.8324,-5.25394 -73.2143,-3.92032 -146.9676,-10.0663 -223.8166,-18.88656 -118.8791,-13.6442 -223.3242,-31.02113 -339.8009,-50.57815 -116.4705,-19.55598 -221.1862,-36.99475 -340.3724,-50.69165 -77.0605,-8.8558 -150.9942,-15.0266 -224.3694,-18.96225 -72.7637,-3.90286 -139.1256,-5.27261 -195.1541,-5.27261 z m 0,37.81515 v 18.86793 c 55.9187,0 121.0493,0.59523 193.5686,3.15627 72.9408,2.57593 146.0589,6.87694 222.9288,13.47676 119.09,10.22471 223.0762,23.76065 340.6056,39.2177 117.5025,15.4535 222.0471,29.0563 341.8507,39.33119 77.366,6.63526 151.0001,10.96128 224.4674,13.55245 73.0344,2.5759 138.631,3.17494 194.9247,3.17494 -55.9642,0 -122.2215,-1.36595 -194.8324,-5.25395 -73.2143,-3.92031 -146.9676,-10.0663 -223.8166,-18.88656 -118.8791,-13.6442 -223.3242,-31.02112 -339.8009,-50.57815 -116.4705,-19.55598 -221.1862,-36.99475 -340.3724,-50.69165 -77.0605,-8.8558 -150.9942,-15.02659 -224.3694,-18.96225 -72.7637,-3.90286 -139.1256,-5.2726 -195.1541,-5.2726 z m 0,37.81516 v 18.86792 c 55.9187,0 121.0493,0.59523 193.5686,3.15628 72.9408,2.57593 146.0589,6.87694 222.9288,13.47675 119.09,10.22471 223.0762,23.76065 340.6056,39.2177 117.5025,15.4535 222.0471,29.0563 341.8507,39.3312 77.366,6.63525 151.0001,10.96128 224.4674,13.55245 73.0344,2.5759 138.631,3.17493 194.9247,3.17493 -55.9642,0 -122.2215,-1.36594 -194.8324,-5.25394 -73.2143,-3.92032 -146.9676,-10.0663 -223.8166,-18.88656 -118.8791,-13.6442 -223.3242,-31.02113 -339.8009,-50.57815 -116.4705,-19.55598 -221.1862,-36.99475 -340.3724,-50.69165 -77.0605,-8.8558 -150.9942,-15.0266 -224.3694,-18.96225 -72.7637,-3.90286 -139.1256,-5.27261 -195.1541,-5.27261 z m 0,37.81515 v 18.86793 c 55.9187,0 121.0493,0.59523 193.5686,3.15627 72.9408,2.57593 146.0589,6.87694 222.9288,13.47676 119.09,10.22471 223.0762,23.76065 340.6056,39.2177 117.5025,15.4535 222.0471,29.0563 341.8507,39.33119 77.366,6.63526 151.0001,10.96128 224.4674,13.55245 73.0344,2.5759 138.631,3.17494 194.9247,3.17494 -55.9642,0 -122.2215,-1.36595 -194.8324,-5.25395 -73.2143,-3.92031 -146.9676,-10.0663 -223.8166,-18.88656 -118.8791,-13.6442 -223.3242,-31.02112 -339.8009,-50.57815 -116.4705,-19.55598 -221.1862,-36.99475 -340.3724,-50.69165 -77.0605,-8.8558 -150.9942,-15.02659 -224.3694,-18.96225 -72.7637,-3.90286 -139.1256,-5.2726 -195.1541,-5.2726 z m 0,37.81516 v 18.86792 c 55.9187,0 121.0493,0.59523 193.5686,3.15628 72.9408,2.57593 146.0589,6.87694 222.9288,13.47675 119.09,10.22471 223.0762,23.76065 340.6056,39.2177 117.5025,15.4535 222.0471,29.0563 341.8507,39.3312 77.366,6.63525 151.0001,10.96128 224.4674,13.55245 73.0344,2.5759 138.631,3.17493 194.9247,3.17493 -55.9642,0 -122.2215,-1.36594 -194.8324,-5.25394 -73.2143,-3.92032 -146.9676,-10.0663 -223.8166,-18.88656 -118.8791,-13.6442 -223.3242,-31.02113 -339.8009,-50.57815 -116.4705,-19.55598 -221.1862,-36.99475 -340.3724,-50.69165 -77.0605,-8.8558 -150.9942,-15.0266 -224.3694,-18.96225 -72.7637,-3.90286 -139.1256,-5.27261 -195.1541,-5.27261 z"
         id="use26"
         transform="matrix(0.22300099,0,0,0.37823052,-402.85121,237.25945)" />
    </pattern>
    <clipPath
       clipPathUnits="userSpaceOnUse"
       id="clipPath54">
      <path
         id="path336"
         style="stroke-width:0.0999999;stroke-linecap:square;paint-order:markers fill stroke;stop-color:#000000"
         d="m 1691.1994,-792.32001 h 1634.8919 v 92.82806 H 1691.1994 Z" />
    </clipPath>
    <clipPath
       clipPathUnits="userSpaceOnUse"
       id="clipPath33">
      <rect
         style="fill:#000000;stroke:none;stroke-width:0.999995;stroke-linecap:butt;stroke-linejoin:bevel;paint-order:stroke markers fill;stop-color:#000000"
         id="rect33"
         width="46.19186"
         height="80.006783"
         x="74.999985"
         y="399.99661" />
    </clipPath>
    <clipPath
       clipPathUnits="userSpaceOnUse"
       id="clipPath27">
      <rect
         style="fill:none;stroke:#000000;stroke-width:0.999999;stroke-linecap:butt;stroke-linejoin:bevel;paint-order:stroke markers fill;stop-color:#000000"
         id="rect28-6"
         width="46.160622"
         height="39.922417"
         x="86.574379"
         y="420.06253" />
    </clipPath>
    <clipPath
       clipPathUnits="userSpaceOnUse"
       id="clipPath25">
      <rect
         style="fill:#ff0000;stroke:none;stroke-width:3;stroke-linecap:square;stroke-linejoin:miter;paint-order:stroke markers fill;stop-color:#000000"
         id="rect25-8"
         width="78"
         height="45.033199"
         x="763.61322"
         y="452.82422" />
    </clipPath>
    <clipPath
       clipPathUnits="userSpaceOnUse"
       id="clipPath15">
      <rect
         style="fill:none;stroke:#000000;stroke-linecap:butt;stroke-linejoin:bevel;paint-order:stroke markers fill;stop-color:#000000"
         id="rect15-7"
         width="45.034248"
         height="38.955639"
         x="262.48285"
         y="121.00073" />
    </clipPath>
    <linearGradient
       id="swatch75">
      <stop
         style="stop-color:#000000;stop-opacity:1;"
         offset="0"
         id="stop75" />
    </linearGradient>
  </defs>
  <g
     id="layer51"
     style="display:inline">
    <g
       id="layer64"
       style="display:inline">
      <path
         style="baseline-shift:baseline;display:inline;overflow:visible;opacity:1;vector-effect:none;fill-rule:evenodd;enable-background:accumulate;stop-color:#000000;stop-opacity:1"
         d="m 814.15625,207.38086 c -1.33162,0.22244 -2.61092,0.65991 -3.58789,1.24609 -3.90789,2.34473 -4.13548,4.51027 -4.53125,5.65235 -0.39577,1.14207 -0.48793,1.82174 -0.57031,2.39843 -0.0101,0.0704 -0.007,0.10982 -0.0156,0.17579 h -0.0859 c 0,0.52278 -0.005,0.83832 -0.01,1.00781 -0.005,0.0785 -0.02,0.17652 -0.0234,0.25586 -0.01,0.22322 -0.035,0.29167 -0.002,1.01172 0.008,0.18001 0.008,0.37482 0.0898,0.95312 0.0409,0.28915 0.33179,1.50309 0.33203,1.50391 1.2e-4,3.9e-4 0.75836,1.79047 0.80664,1.90429 0.073,1.11936 0.32126,2.46864 1.10157,4.0293 v 0.002 c 0.002,0.005 0.005,0.005 0.008,0.01 -0.17672,0.30079 -0.29718,1.91517 0.68945,4.875 0.41566,1.24698 0.51072,1.44633 0.72461,2.04297 0.003,0.36176 0.002,0.45092 0.002,0.99023 v 2.47852 18.58789 48.32617 76.82813 21.0664 c 0,5.17565 0.35585,9.41698 0.0449,12.68164 -0.25422,2.66935 -1.48071,6.47351 -2.37696,11.62696 -1.91772,11.02693 -2.4623,14.39944 -2.82617,17.02929 -0.64953,3.02969 -1.26109,5.87381 -3.32226,16.17969 -1.02435,5.12174 -1.51922,9.60253 -2.39649,13.25781 -1.1831,4.92958 -3.43585,10.60543 -4.98828,17.48047 -1.70396,7.54609 -2.64966,14.80123 -3.81641,21.56836 -0.94613,5.48754 -1.40249,10.29816 -2.34765,14.23633 -0.94849,3.95202 -3.63233,9.21239 -5.05078,16.54101 -1.65298,8.54036 -1.6931,16.29093 -2.57227,22.88477 -1.96088,14.70659 -3.77875,19.78847 -7.30664,36.41992 -1.32352,6.23947 -2.59648,12.51787 -3.76758,18.8418 -1.06783,5.76625 -1.38463,10.58119 -2.32031,14.16797 -0.8403,3.22111 -2.98241,7.41277 -4.80469,13.10742 -4.25371,13.29327 -4.398,17.23081 -8.49609,27.98828 -1.66616,4.37367 -4.11444,9.21855 -6.23438,14.97266 -1.81001,4.91288 -2.01334,7.60676 -2.03906,7.6582 -0.45611,0.91222 -2.87981,3.2136 -5.76758,7.90625 -3.25501,5.2894 -4.54561,8.83387 -4.96679,10.50195 -0.42119,1.66809 -0.024,1.09677 -2.73047,6.0586 0.10421,-0.19105 -1.17135,1.06464 -3.25977,4.19726 -2.26611,3.39917 -4.18082,6.66224 -6.05469,9.67969 -1.36005,1.66257 -3.10206,3.57549 -4.96875,6.24219 -2.18685,3.1241 -3.14132,5.37516 -3.71679,6.19726 -0.8521,1.21728 -2.68483,3.06762 -4.85157,6.04688 -2.2893,3.1478 -3.69078,5.74461 -4.87109,7.31836 -1.09915,1.46554 -3.74938,3.73734 -6.51562,7.88672 -3.46064,5.19095 -4.7333,9.17694 -5.875,10.69922 -1.32204,1.76271 -4.18806,4.04546 -7.7461,7.60351 -3.71749,3.71748 -7.43488,7.43488 -11.15234,11.15234 -2.89139,2.89138 -5.78247,5.78247 -8.67383,8.67383 -3.99429,3.99429 -7.38045,7.77742 -10.72461,10.75 -2.6026,2.31342 -6.63506,4.75807 -11.05859,8.5918 -4.08073,3.53663 -5.96744,6.30224 -6.88477,6.99023 -1.85496,1.39122 -5.56879,1.62983 -11.93945,5.87696 -1.06845,0.7123 -1.99036,1.44838 -2.87891,2.27929 -0.55415,0.0991 -3.68844,-0.25014 -8.71484,1.63477 -1.86735,0.70026 -3.26526,1.12318 -5.46875,2.90234 -0.0337,0.0272 -0.0824,0.0871 -0.11719,0.11524 -0.73522,0.0425 -0.55387,0.0301 -1.4043,0.0801 -3.05649,0.17979 -7.79472,-0.62553 -14.08984,0.0371 -6.0358,0.63534 -9.24452,2.39213 -10.10742,2.5 -1.63785,0.20473 -4.54054,-0.0762 -8.67188,-0.0762 H 553.9043 539.0332 c -7.35481,0 -14.21828,0.32913 -20.5664,0.0117 -8.80711,-0.44035 -18.25222,-1.93854 -28.47461,-2.47656 -7.36159,-0.38745 -13.51716,0.36052 -18.40039,0.0117 -4.17708,-0.29837 -9.29359,-1.61576 -15.54102,-2.42188 -18.5293,-2.39087 -23.56789,-2.19023 -40.5918,-4.91406 -3.28421,-0.52548 -7.40093,-1.76515 -12.55859,-2.50195 -5.74674,-0.82097 -10.25136,-0.64833 -13.30664,-1.1875 -0.49712,-0.0877 -2.50416,-1.0423 -6.23242,-2.18946 -3.21533,-0.98933 -6.15701,-1.72307 -8.74024,-2.49804 -0.0711,-0.0213 -1.5315,-0.84694 -4.63086,-1.4668 -0.51122,-0.10225 -0.78777,-0.066 -1.21093,-0.10742 -0.95669,-0.71419 -1.70525,-1.12606 -2.47266,-1.50977 -0.31958,-0.15979 -0.54675,-0.12802 -0.85352,-0.24804 -0.10138,-0.1129 -0.15714,-0.24895 -0.26562,-0.35743 -0.20134,-0.20135 -0.44826,-0.31497 -0.66406,-0.49218 -0.34542,-1.05938 -0.98641,-2.39657 -3.05274,-4.46289 -1.59567,-1.59568 -2.54085,-2.27647 -3.28515,-2.76953 -0.0968,-0.15766 -0.0619,-0.085 -0.16797,-0.26172 -1.09252,-1.82087 -2.08218,-3.1438 -2.73242,-4.11914 -3.12085,-4.68129 -4.16415,-6.0197 -6.8125,-11.31641 -0.53917,-1.07833 -1.15461,-2.8879 -2.08789,-5.31445 -1.17465,-3.05407 -2.32845,-6.43932 -3.76758,-10.03711 -1.3048,-3.262 -2.66047,-6.16872 -3.78516,-8.83985 -2.01885,-4.79477 -3.9936,-9.84057 -6.25,-14.99804 -1.54011,-3.52028 -2.28271,-4.64533 -1.99219,-3.58008 -0.77931,-2.85748 -0.9855,-3.9966 -1.09375,-4.58594 0.21247,-1.38865 0.23337,-2.62179 0.12891,-3.39258 -0.31441,-2.32004 -0.7815,-3.50662 -1.67383,-6.18359 -0.62035,-1.86108 -1.17576,-3.05424 -1.75,-4.40039 0.0517,-0.99362 -0.008,-2.50906 -0.45508,-4.51953 -1.0439,-4.69761 -2.37996,-6.95843 -2.43359,-7.22657 0.18881,0.94404 0.19336,-0.0364 0.19336,-2.99609 v -3.7168 c 0,-1.32904 0.33012,-3.78473 -0.0605,-7.30078 -0.48386,-4.35456 -1.34598,-5.92634 -1.23828,-4.95703 -0.0655,-0.58921 0.0606,-2.28837 0.0606,-5.08984 v -12.39258 c 0,-1.46461 0.56988,-4.50176 -0.11524,-8.95508 -0.84926,-5.52018 -2.41209,-8.2128 -2.46289,-8.56836 -0.14223,-0.99565 0.0996,-3.42559 0.0996,-7.25976 0,-3.88021 0.5353,-8.78383 -0.0488,-14.625 -0.59139,-5.91406 -2.26365,-9.61904 -2.52148,-11.50977 -0.87501,-6.41672 -0.99147,-7.74876 -1.29297,-10.33398 0.48076,-1.18339 0.62746,-1.94319 0.7168,-2.51172 0.38569,-2.45445 0.21924,-3.48083 0.10742,-5.73242 -0.11182,-2.2516 -0.33606,-5.26693 -0.71875,-9.47657 -0.88395,-9.72339 -1.29006,-13.81041 -1.87109,-16.79882 -0.14526,-0.74711 -0.0355,-1.17875 -1.00977,-3.22461 -0.25701,-0.53969 -0.50554,-1.54327 -1.43164,-2.61524 -0.23089,-1.60401 -0.4262,-2.67953 -0.66406,-4.82031 -0.11626,-1.04635 0.64629,-4.41864 -0.008,-9.97852 -0.68689,-5.8386 -2.2835,-9.40311 -2.4707,-11.08789 -0.59895,-5.39054 0.56808,-8.97497 0.0391,-16.91015 -0.35548,-5.33224 -0.61155,-8.37862 -0.82226,-10.32813 -0.0749,-0.69281 -0.15208,-1.18322 -0.23242,-1.70898 -0.0785,-0.0134 -0.16758,0.0385 -0.16797,0.006 -5.5e-4,-0.0456 0.002,-0.79573 0.002,-0.94336 0.009,0.0455 0.061,0.18183 0.0664,0.2207 -0.0229,-0.13148 -0.0542,-0.32126 -0.0664,-0.45898 9.1e-4,-0.64115 0.004,-1.23234 0.004,-3.46875 v -13.63086 c 0,-1.65141 0.4344,-4.57557 -0.0781,-8.67578 -0.9055,-7.24401 -1.36747,-10.34591 -2.20508,-13.19532 -0.0571,-0.19427 -0.23118,-0.52473 -0.29492,-0.72851 0.0435,-2.34444 0.0996,-5.75261 0.0996,-13.33594 v -0.43359 l -0.0371,-0.4336 c -0.55624,-6.39682 -2.30494,-10.39446 -2.47851,-12.39062 -0.31907,-3.66931 0.56493,-9.0527 0.006,-16.04102 -0.51086,-6.38574 -2.02184,-11.41867 -2.5293,-15.35156 -1.40741,-10.9074 -1.85398,-14.44776 -2.35156,-18.41016 0.0673,-0.37482 0.16892,-0.81605 0.23047,-1.08008 0.82703,-3.5482 0.4228,-4.05522 0.34375,-6.69921 -0.0791,-2.644 -0.27703,-6.33235 -0.64258,-11.63282 -0.55822,-8.09426 -2.13132,-15.00797 -2.47071,-20.94726 -0.38077,-6.6634 0.0156,-13.9191 0.0156,-21.73438 V 344.4867 251.5492 h -20 v 92.9375 16.10937 c 0,7.0546 -0.44999,14.69272 0.0176,22.875 0.46733,8.17831 2.06969,15.16879 2.48437,21.18164 0.20292,2.94229 0.24298,4.26559 0.34375,6.19727 -0.18518,0.28975 -0.42191,0.55172 -0.49219,0.7207 -0.32884,0.79068 -0.45004,1.30866 -0.53906,1.7168 -0.35605,1.63256 -0.2347,1.87333 -0.23437,2.21289 6.6e-4,0.67912 0.0309,0.88708 0.0547,1.16992 0.0476,0.56569 0.11105,1.12347 0.20704,1.94141 0.38394,3.27174 1.3002,10.34469 3.19726,25.04687 0.77864,6.0345 2.13716,10.75642 2.42774,14.38867 0.29735,3.71685 -0.60542,9.14805 0.006,16.17774 0.54547,6.27302 2.20656,10.18116 2.43554,12.21484 -0.006,7.62727 -0.0617,11.97169 -0.10156,13.84961 -0.0209,0.98571 -0.0407,1.09977 -0.0391,1.91406 4.2e-4,0.20358 -0.21961,-0.13809 0.18164,1.95118 0.0501,0.26115 0.11874,0.58528 0.26367,1.05664 0.14493,0.47136 0.8883,2.04428 0.88867,2.04492 10e-6,2e-5 0.10678,0.10491 0.11328,0.11133 0.18536,0.94964 0.55761,2.55267 1.25391,8.12304 0.10227,0.81815 -0.0762,2.8901 -0.0762,6.19532 v 13.63086 c 0,2.95221 -0.0142,4.0367 -0.004,4.89062 0.004,0.35292 -0.34887,0.57595 0.4082,2.85547 0.007,-0.0447 -0.009,-0.18948 -0.0117,-0.20703 -0.005,-0.0295 0.0267,0.23569 0.0332,0.28125 0.11139,0.32937 0.0675,0.36123 0.24219,0.80664 -0.0324,-0.091 -0.17111,-0.31517 -0.19141,-0.38867 0.0173,0.13952 0.0121,0.0704 0.0332,0.26562 0.15322,1.41752 0.40371,4.31531 0.75,9.50977 0.32769,4.91534 -0.90405,9.29909 0.0391,17.78711 0.65388,5.88496 2.28332,9.49126 2.48632,11.21679 0.11808,1.00369 -0.62137,4.32559 -0.008,9.84766 0.95119,8.56069 0.95144,10.94401 2.29492,15.05859 0.16794,0.51433 0.34561,1.10311 0.93946,2.14844 0.15478,0.27246 0.5269,0.76319 0.77148,1.16797 0.28298,2.40571 0.42071,3.06726 0.93164,8.6875 0.20721,2.27934 0.26071,3.33647 0.37305,4.87109 -0.0106,0.0194 -0.0465,0.0533 -0.0566,0.0723 -1.52576,2.84372 -1.14711,3.49585 -1.19727,4.15039 -0.10031,1.30909 -0.0253,1.7665 0.0234,2.46289 0.19499,2.78555 0.77199,7.31105 2.14648,17.39063 0.77124,5.65573 2.27106,9.13241 2.4375,10.79687 0.3201,3.20086 -0.0508,7.42782 -0.0508,12.63477 0,1.94855 -0.574,5.35892 0.10156,10.08789 0.79975,5.59812 2.42891,8.35723 2.49415,8.78125 0.0686,0.44568 -0.11719,2.42205 -0.11719,5.91406 v 12.39258 c 0,1.32905 -0.33013,3.78278 0.0605,7.29883 0.48384,4.3546 1.34794,5.92632 1.24024,4.95703 0.0655,0.58921 -0.0625,2.29032 -0.0625,5.09179 v 3.7168 c 0,0.34475 -0.64156,2.7337 0.19531,6.91797 0.83921,4.1961 1.89988,6.23761 2.26953,7.05859 -0.005,0.32851 0.0137,0.93298 0.0137,2.13282 v 1.92578 l 0.7168,1.78906 c 0.97149,2.4287 1.81958,4.27514 2.27539,5.64258 0.41337,1.2401 0.32067,0.90423 0.44141,1.35156 -10e-4,0.009 -0.009,0.0223 -0.01,0.0312 -0.18905,1.58922 -0.0694,2.63898 0.0684,3.68555 0.27559,2.09313 0.79773,4.28894 1.81836,8.03125 1.26261,4.6295 3.02221,6.46956 2.96289,6.33398 2.04815,4.68147 3.99395,9.63921 6.14258,14.74219 1.31676,3.12729 2.61665,5.92835 3.64844,8.50781 1.18225,2.95561 2.30883,6.25533 3.66797,9.78906 0.6637,1.72563 1.41683,4.17742 2.86718,7.07813 3.04717,6.09433 5.07549,8.99212 8.0586,13.4668 h 0.002 c 1.00198,1.50295 1.78272,2.58121 2.22266,3.31445 -1.14576,-1.90962 -1.23653,0.42317 2.74414,4.4043 1.46274,1.46274 2.25678,2.00978 3.00976,2.53906 0.28487,1.07742 0.78876,2.49967 3.18555,4.89648 0.21566,0.21565 0.47884,0.33934 0.71094,0.52735 0.18827,0.2325 0.31134,0.49688 0.52734,0.71289 0.21667,0.21667 0.48159,0.34052 0.71485,0.52929 0.18741,0.2312 0.31052,0.49413 0.52539,0.70899 1.46702,1.46702 3.1047,2.15604 4.6289,2.55469 0.75028,0.54157 1.439,0.97865 1.85547,1.17187 2.14429,0.99482 2.7078,0.97041 4.35742,1.38281 1.68404,0.42102 2.79564,0.41291 3.625,0.34961 0.13073,0.0949 0.28243,0.21403 2.1211,0.76563 3.17727,0.95319 6.07457,1.67964 8.60742,2.45898 1.26543,0.38937 3.99055,1.94733 8.63867,2.76758 5.9305,1.04657 10.66694,0.82156 13.95313,1.29102 3.18232,0.45461 7.19194,1.64758 12.22656,2.45312 17.77773,2.84444 23.27499,2.68821 41.1914,5 4.52893,0.58438 10.01671,2.05936 16.67774,2.53516 7.47685,0.53406 13.76058,-0.25212 18.77344,0.0117 8.82337,0.46438 18.28613,1.96646 28.52734,2.47851 7.67814,0.38391 14.87548,0.0137 21.56445,0.0137 h 14.8711 17.34765 c 2.47751,0 6.23239,0.53688 11.15235,-0.0781 5.89671,-0.73708 8.98168,-2.37729 9.7207,-2.45508 2.7421,-0.28864 7.15689,0.39094 13.17187,0.0371 5.90596,-0.34741 8.57797,-0.47319 10.10157,-0.58203 0.3809,-0.0272 0.51438,-0.004 1.4707,-0.16016 0.23908,-0.0391 0.52713,-0.0769 1.16016,-0.25586 0.63303,-0.1789 1.48518,0.54068 4.61328,-2.80859 0.23799,-0.25482 0.38658,-0.6864 0.69531,-1.2168 0.36483,-0.0741 0.48436,-0.0644 0.88867,-0.15429 1.65974,-0.36883 2.51396,-0.52383 3.90821,-0.97266 0.69712,-0.22441 1.65681,-0.47652 3.20703,-1.57031 0.84007,-0.59274 1.6906,-1.58102 2.41015,-2.58008 0.033,-0.0229 0.009,-0.01 0.0469,-0.0352 h 0.002 c 1.89038,-1.26025 6.43767,-1.71301 12.84375,-6.51758 4.69046,-3.51784 6.76793,-6.8227 7.98438,-7.87695 2.69432,-2.33508 6.80881,-4.81357 11.24609,-8.75781 4.51456,-4.01294 8.13943,-8.11404 11.58008,-11.55469 2.89138,-2.89138 5.78247,-5.78248 8.67383,-8.67383 3.71747,-3.71747 7.43487,-7.43488 11.15234,-11.15234 2.22468,-2.22469 6.01873,-4.96639 9.60352,-9.74609 3.96145,-5.28195 5.25838,-9.71961 6.51562,-11.60547 0.81272,-1.21909 3.10291,-3.28435 5.875,-6.98047 2.39397,-3.19196 3.83041,-5.88473 5.04492,-7.55469 0.94449,-1.29867 2.88118,-3.22563 5.0625,-6.3418 2.18689,-3.12411 3.14132,-5.37319 3.7168,-6.19531 1.02757,-1.46796 2.65363,-3.28528 4.57226,-5.68359 l 0.36329,-0.45508 0.30859,-0.49219 c 2.16913,-3.47061 4.09302,-6.74988 6.03711,-9.66601 0.20278,-0.30418 2.09367,-1.89959 4.17578,-5.7168 3.17242,-5.81609 4.2526,-9.51091 4.5625,-10.73828 0.3099,-1.22737 -0.2023,-0.34901 2.60938,-4.91797 0.83666,-1.35959 3.90107,-3.99745 6.62304,-9.44141 2.66388,-5.32776 2.64886,-8.95901 2.91797,-9.68945 1.59273,-4.32312 3.99925,-9.10545 6.15625,-14.76758 4.60775,-12.09532 4.9286,-16.74833 8.85352,-29.01367 1.12468,-3.51463 3.50891,-8.01923 5.10937,-14.1543 1.60116,-6.13778 1.87259,-11.45654 2.63477,-15.57226 1.12996,-6.10179 2.36927,-12.21154 3.66797,-18.33399 3.40671,-16.06019 5.46809,-22.2051 7.56445,-37.92773 1.09817,-8.23632 1.19279,-15.57812 2.38281,-21.72656 0.71669,-3.70288 3.18953,-8.70182 4.86328,-15.67579 1.40024,-5.83433 1.84793,-11.08756 2.60938,-15.5039 1.25625,-7.28631 2.18004,-14.19803 3.61719,-20.5625 1.09692,-4.85782 3.3018,-10.45023 4.92578,-17.2168 1.27819,-5.32582 1.77353,-10.06886 2.56054,-14.0039 1.67695,-8.38472 1.96569,-9.65248 2.62891,-12.82813 0.14977,-0.43975 0.32331,-0.93775 0.36914,-1.11914 0.0685,-0.27122 0.11921,-0.49178 0.17188,-0.72852 0.21067,-0.94694 0.44488,-2.13102 0.67578,-3.33789 0.23089,-1.20686 0.43603,-2.31908 0.57617,-3.19336 0.035,-0.21857 0.067,-0.40537 0.10742,-0.73632 0.0202,-0.16548 0.0478,-0.32006 0.0723,-0.83594 0.008,-0.16691 -0.0138,-0.60427 -0.0254,-0.9668 0.48493,-2.96884 0.4845,-3.16527 1.66601,-9.95898 0.54724,-3.14662 2.03558,-7.4389 2.58008,-13.15625 0.55063,-5.78156 0.0469,-10.66663 0.0469,-14.57813 v -21.0664 -76.82813 -48.32617 -18.58789 -2.47852 c 0,0.0683 0.56054,-1.89852 -0.19531,-5.67773 -0.36692,-1.83469 -0.7087,-2.51169 -1.04492,-3.33985 v -0.89453 c 0,1.28418 -0.089,1.35239 0.01,0.44532 0.0988,-0.90708 0.36118,-3.30491 -1.06446,-6.15625 v -0.002 c -0.031,-0.0619 -0.0606,-0.0687 -0.0918,-0.1289 0.10906,-1.29495 0.17134,-3.42682 -1.14844,-6.06641 -0.48604,-0.97207 -0.88681,-2.03148 -2.73242,-3.71484 -0.92281,-0.84168 -2.37222,-1.95264 -4.75391,-2.48633 -1.19084,-0.26685 -2.57463,-0.25955 -3.90625,-0.0371 z m 5.39453,2.24609 c -1.4e-4,-6e-5 4.5099,4.19751 4.50977,4.19727 -1.4e-4,-2.4e-4 0.83215,1.96525 0.83203,1.96484 -1.8e-4,-5.8e-4 0.13512,0.6078 0.23437,1.06446 h -0.48047 c -0.40769,-0.40042 -0.57233,-0.5562 -0.83984,-0.74219 0.14199,0.13552 0.35643,0.54248 0.52539,0.74219 h -18.82226 c 0.0248,-0.17109 0.0205,-0.24942 0.15429,-0.75 0.0515,-0.19257 0.11778,-0.42872 0.23828,-0.76758 0.12051,-0.33886 0.66618,-1.47881 0.66602,-1.47852 -1.6e-4,2.9e-4 2.87515,-3.25792 2.875,-3.25781 -1.5e-4,1.1e-4 10.10756,-0.97259 10.10742,-0.97266 z m 5.76172,9.31641 c -3.7e-4,0.006 2.7e-4,0.0367 0,0.043 -0.004,0.0967 -0.0142,0.15888 -0.0195,0.22461 -0.002,-0.0413 0.0237,-0.23947 0.0195,-0.26758 z m -17.5293,8.74805 c 0.0205,0.039 0.04,0.0457 0.0606,0.084 v 0.23047 c 0,-0.2061 -0.0385,-0.20759 -0.0606,-0.31445 z m 2.86133,3.53515 c 0.23286,0.16174 0.60691,0.46306 0.66797,0.50781 0.12469,0.0914 -0.17728,-0.0398 -0.66797,-0.50781 z M 277.31836,419.43359 c 0.0563,0.25056 0.18898,0.66385 0.25976,0.95703 -0.30637,-0.52946 -0.31403,-0.76413 -0.25976,-0.95703 z m 8.36719,78.75782 c -0.13969,0.38699 -0.42433,1.00231 -0.47852,1.19531 -0.10314,0.36735 -0.60168,1.52412 0.22852,-0.66602 0.0391,-0.10322 0.19049,-0.38463 0.25,-0.52929 z m 6.87695,13.00976 c 1.87765,0.12604 3.13954,0.21104 4.39062,0.29492 -0.7956,0.17104 -1.62589,0.27475 -2.49218,0.22266 -0.74785,-0.045 -1.26207,-0.33778 -1.89844,-0.51758 z m 14.08984,25.46485 c 0.004,0.0102 0.0193,0.0211 0.0234,0.0312 0.0135,0.0329 0.003,0.0185 0.0156,0.0508 -0.0116,-0.0258 -0.0269,-0.0556 -0.0391,-0.082 z M 288.33984,544.5 c 1.0173,2.11136 4.17649,4.71815 3.91407,4.55859 -0.27205,-0.1654 -2.51835,-2.02607 -3.27344,-3.25 -0.41941,-0.67982 -0.45918,-0.90686 -0.64063,-1.30859 z m 25.27735,59.56445 c -0.0157,0.079 0.034,0.30734 -0.1836,0.92383 0.003,-0.0974 0.12408,-0.52938 0.13868,-0.62695 0.0382,-0.25563 0.0709,-0.42751 0.0449,-0.29688 z m -2.15235,147.41016 c -0.36236,0.48987 -0.7555,1.30369 -1.10937,2.13476 0.0125,-0.0331 0.007,-0.0526 0.0195,-0.0859 0.84098,-2.16451 1.91931,-3.17015 1.08984,-2.04883 z m 45.80664,80.5332 c -0.18425,0.12437 -0.76228,0.62535 -1.30859,1.11914 0.003,-0.003 0.007,-0.0162 0.01,-0.0195 1.33247,-1.3509 1.81793,-1.45001 1.29882,-1.09961 z m 14.75586,11.93555 c -0.0908,0.23349 -0.16492,0.41463 -0.26562,0.62891 0.0929,-0.20344 0.17866,-0.41231 0.26562,-0.62891 z m 243.05469,4.01367 c 0.10578,0.025 0.41642,-0.16875 1.13477,0.14453 -0.013,-1.6e-4 -0.10771,-0.0214 -0.125,-0.0234 -0.2437,-0.028 -0.4216,-0.047 -0.58594,-0.0664 -0.32868,-0.0388 -0.61743,-0.1005 -0.42383,-0.0547 z m -254.03906,0.91992 c 0.11108,-0.0138 0.43021,0.0232 0.51172,0.01 1.20455,-0.19841 1.19144,0.0234 -0.95899,0.0234 0.44164,0 0.16352,-0.016 0.44727,-0.0332 z"
         id="path422" />
    </g>
  </g>
</svg>
