<?xml version="1.0" encoding="UTF-8" standalone="no"?>
<!-- Created with Inkscape (http://www.inkscape.org/) -->

<svg
   width="1000"
   height="1000"
   viewBox="0 0 1000 1000"
   version="1.1"
   id="svg1"
   xmlns:xlink="http://www.w3.org/1999/xlink"
   xmlns="http://www.w3.org/2000/svg"
   xmlns:svg="http://www.w3.org/2000/svg">
  <defs
     id="defs1">
    <pattern
       xlink:href="#pattern359"
       preserveAspectRatio="xMidYMid"
       id="pattern372"
       patternTransform="matrix(0.5,0,0,0.5,147.15462,1548.2922)" />
    <pattern
       xlink:href="#pattern357"
       preserveAspectRatio="xMidYMid"
       id="pattern371"
       patternTransform="matrix(0.5,0,0,0.5,221.32076,1552.4298)" />
    <pattern
       xlink:href="#pattern358"
       preserveAspectRatio="xMidYMid"
       id="pattern370"
       patternTransform="matrix(0.5,0,0,0.5,230.96346,1527.8214)" />
    <pattern
       xlink:href="#pattern355"
       preserveAspectRatio="xMidYMid"
       id="pattern369"
       patternTransform="matrix(0.5,0,0,0.5,287.08178,1553.6581)" />
    <pattern
       xlink:href="#pattern354"
       preserveAspectRatio="xMidYMid"
       id="pattern368"
       patternTransform="matrix(0.5,0,0,0.5,230.97274,1529.1717)" />
    <pattern
       xlink:href="#pattern342"
       preserveAspectRatio="xMidYMid"
       id="pattern360"
       patternTransform="matrix(0.5,0,0,0.5,210.45332,1525.5392)" />
    <pattern
       xlink:href="#pattern342"
       preserveAspectRatio="xMidYMid"
       id="pattern359"
       patternTransform="matrix(0.5,0,0,0.5,152.11125,1550.7705)" />
    <pattern
       xlink:href="#pattern342"
       preserveAspectRatio="xMidYMid"
       id="pattern358"
       patternTransform="matrix(0.5,0,0,0.5,202.11125,1533.2444)" />
    <pattern
       xlink:href="#pattern342"
       preserveAspectRatio="xMidYMid"
       id="pattern357"
       patternTransform="matrix(0.5,0,0,0.5,211.4075,1546.234)" />
    <pattern
       xlink:href="#pattern342"
       preserveAspectRatio="xMidYMid"
       id="pattern356"
       patternTransform="matrix(0.5,0,0,0.5,232.14929,1573.2544)" />
    <pattern
       xlink:href="#pattern342"
       preserveAspectRatio="xMidYMid"
       id="pattern355"
       patternTransform="matrix(0.5,0,0,0.5,275,1552.7287)" />
    <pattern
       xlink:href="#pattern342"
       preserveAspectRatio="xMidYMid"
       id="pattern354"
       patternTransform="matrix(0.5,0,0,0.5,235,1529.7913)" />
    <pattern
       xlink:href="#shading24"
       preserveAspectRatio="xMidYMid"
       id="pattern342"
       patternTransform="matrix(0.5,0,0,0.5,213.95332,1537.5392)"
       x="0"
       y="0" />
    <pattern
       patternUnits="userSpaceOnUse"
       width="338.5925"
       height="42.989567"
       patternTransform="translate(213.95332,1537.5392) scale(0.5)"
       preserveAspectRatio="xMidYMid"
       id="shading24"
       style="fill:#000000">
      <path
         style="fill-rule:nonzero;stroke:none;stroke-width:0.1;stroke-linecap:square;paint-order:markers fill stroke;stop-color:#000000"
         d="m 1806.4991,-758.06464 v 18.86792 c 55.9187,0 121.0493,0.59523 193.5686,3.15628 72.9408,2.57593 146.0589,6.87694 222.9288,13.47675 119.09,10.22471 223.0762,23.76065 340.6056,39.2177 117.5025,15.4535 222.0471,29.0563 341.8507,39.3312 77.366,6.63525 151.0001,10.96128 224.4674,13.55245 73.0344,2.5759 138.631,3.17493 194.9247,3.17493 -55.9642,0 -122.2215,-1.36594 -194.8324,-5.25394 -73.2143,-3.92032 -146.9676,-10.0663 -223.8166,-18.88656 -118.8791,-13.6442 -223.3242,-31.02113 -339.8009,-50.57815 -116.4705,-19.55598 -221.1862,-36.99475 -340.3724,-50.69165 -77.0605,-8.8558 -150.9942,-15.0266 -224.3694,-18.96225 -72.7637,-3.90286 -139.1256,-5.27261 -195.1541,-5.27261 z m 0,37.81515 v 18.86793 c 55.9187,0 121.0493,0.59523 193.5686,3.15627 72.9408,2.57593 146.0589,6.87694 222.9288,13.47676 119.09,10.22471 223.0762,23.76065 340.6056,39.2177 117.5025,15.4535 222.0471,29.0563 341.8507,39.33119 77.366,6.63526 151.0001,10.96128 224.4674,13.55245 73.0344,2.5759 138.631,3.17493 194.9247,3.17493 -55.9642,0 -122.2215,-1.36594 -194.8324,-5.25394 -73.2143,-3.92031 -146.9676,-10.0663 -223.8166,-18.88656 -118.8791,-13.6442 -223.3242,-31.02112 -339.8009,-50.57815 -116.4705,-19.55598 -221.1862,-36.99475 -340.3724,-50.69165 -77.0605,-8.8558 -150.9942,-15.02659 -224.3694,-18.96225 -72.7637,-3.90286 -139.1256,-5.2726 -195.1541,-5.2726 z m 0,37.81516 v 18.86792 c 55.9187,0 121.0493,0.59523 193.5686,3.15628 72.9408,2.57593 146.0589,6.87694 222.9288,13.47675 119.09,10.22471 223.0762,23.76065 340.6056,39.2177 117.5025,15.4535 222.0471,29.0563 341.8507,39.3312 77.366,6.63525 151.0001,10.96128 224.4674,13.55245 73.0344,2.5759 138.631,3.17493 194.9247,3.17493 -55.9642,0 -122.2215,-1.36594 -194.8324,-5.25394 -73.2143,-3.92032 -146.9676,-10.0663 -223.8166,-18.88656 -118.8791,-13.6442 -223.3242,-31.02113 -339.8009,-50.57815 -116.4705,-19.55598 -221.1862,-36.99475 -340.3724,-50.69165 -77.0605,-8.8558 -150.9942,-15.0266 -224.3694,-18.96225 -72.7637,-3.90286 -139.1256,-5.27261 -195.1541,-5.27261 z m 0,37.81515 v 18.86793 c 55.9187,0 121.0493,0.59523 193.5686,3.15627 72.9408,2.57593 146.0589,6.87694 222.9288,13.47676 119.09,10.22471 223.0762,23.76065 340.6056,39.2177 117.5025,15.4535 222.0471,29.0563 341.8507,39.33119 77.366,6.63526 151.0001,10.96128 224.4674,13.55245 73.0344,2.5759 138.631,3.17494 194.9247,3.17494 -55.9642,0 -122.2215,-1.36595 -194.8324,-5.25395 -73.2143,-3.92031 -146.9676,-10.0663 -223.8166,-18.88656 -118.8791,-13.6442 -223.3242,-31.02112 -339.8009,-50.57815 -116.4705,-19.55598 -221.1862,-36.99475 -340.3724,-50.69165 -77.0605,-8.8558 -150.9942,-15.02659 -224.3694,-18.96225 -72.7637,-3.90286 -139.1256,-5.2726 -195.1541,-5.2726 z m 0,37.81516 v 18.86792 c 55.9187,0 121.0493,0.59523 193.5686,3.15628 72.9408,2.57593 146.0589,6.87694 222.9288,13.47675 119.09,10.22471 223.0762,23.76065 340.6056,39.2177 117.5025,15.4535 222.0471,29.0563 341.8507,39.3312 77.366,6.63525 151.0001,10.96128 224.4674,13.55245 73.0344,2.5759 138.631,3.17493 194.9247,3.17493 -55.9642,0 -122.2215,-1.36594 -194.8324,-5.25394 -73.2143,-3.92032 -146.9676,-10.0663 -223.8166,-18.88656 -118.8791,-13.6442 -223.3242,-31.02113 -339.8009,-50.57815 -116.4705,-19.55598 -221.1862,-36.99475 -340.3724,-50.69165 -77.0605,-8.8558 -150.9942,-15.0266 -224.3694,-18.96225 -72.7637,-3.90286 -139.1256,-5.27261 -195.1541,-5.27261 z m 0,37.81515 v 18.86793 c 55.9187,0 121.0493,0.59523 193.5686,3.15627 72.9408,2.57593 146.0589,6.87694 222.9288,13.47676 119.09,10.22471 223.0762,23.76065 340.6056,39.2177 117.5025,15.4535 222.0471,29.0563 341.8507,39.33119 77.366,6.63526 151.0001,10.96128 224.4674,13.55245 73.0344,2.5759 138.631,3.17494 194.9247,3.17494 -55.9642,0 -122.2215,-1.36595 -194.8324,-5.25395 -73.2143,-3.92031 -146.9676,-10.0663 -223.8166,-18.88656 -118.8791,-13.6442 -223.3242,-31.02112 -339.8009,-50.57815 -116.4705,-19.55598 -221.1862,-36.99475 -340.3724,-50.69165 -77.0605,-8.8558 -150.9942,-15.02659 -224.3694,-18.96225 -72.7637,-3.90286 -139.1256,-5.2726 -195.1541,-5.2726 z m 0,37.81516 v 18.86792 c 55.9187,0 121.0493,0.59523 193.5686,3.15628 72.9408,2.57593 146.0589,6.87694 222.9288,13.47675 119.09,10.22471 223.0762,23.76065 340.6056,39.2177 117.5025,15.4535 222.0471,29.0563 341.8507,39.3312 77.366,6.63525 151.0001,10.96128 224.4674,13.55245 73.0344,2.5759 138.631,3.17493 194.9247,3.17493 -55.9642,0 -122.2215,-1.36594 -194.8324,-5.25394 -73.2143,-3.92032 -146.9676,-10.0663 -223.8166,-18.88656 -118.8791,-13.6442 -223.3242,-31.02113 -339.8009,-50.57815 -116.4705,-19.55598 -221.1862,-36.99475 -340.3724,-50.69165 -77.0605,-8.8558 -150.9942,-15.0266 -224.3694,-18.96225 -72.7637,-3.90286 -139.1256,-5.27261 -195.1541,-5.27261 z"
         id="use26"
         transform="matrix(0.22300099,0,0,0.37823052,-402.85121,237.25945)" />
    </pattern>
    <clipPath
       clipPathUnits="userSpaceOnUse"
       id="clipPath54">
      <path
         id="path336"
         style="stroke-width:0.0999999;stroke-linecap:square;paint-order:markers fill stroke;stop-color:#000000"
         d="m 1691.1994,-792.32001 h 1634.8919 v 92.82806 H 1691.1994 Z" />
    </clipPath>
    <clipPath
       clipPathUnits="userSpaceOnUse"
       id="clipPath33">
      <rect
         style="fill:#000000;stroke:none;stroke-width:0.999995;stroke-linecap:butt;stroke-linejoin:bevel;paint-order:stroke markers fill;stop-color:#000000"
         id="rect33"
         width="46.19186"
         height="80.006783"
         x="74.999985"
         y="399.99661" />
    </clipPath>
    <clipPath
       clipPathUnits="userSpaceOnUse"
       id="clipPath27">
      <rect
         style="fill:none;stroke:#000000;stroke-width:0.999999;stroke-linecap:butt;stroke-linejoin:bevel;paint-order:stroke markers fill;stop-color:#000000"
         id="rect28-6"
         width="46.160622"
         height="39.922417"
         x="86.574379"
         y="420.06253" />
    </clipPath>
    <clipPath
       clipPathUnits="userSpaceOnUse"
       id="clipPath25">
      <rect
         style="fill:#ff0000;stroke:none;stroke-width:3;stroke-linecap:square;stroke-linejoin:miter;paint-order:stroke markers fill;stop-color:#000000"
         id="rect25-8"
         width="78"
         height="45.033199"
         x="763.61322"
         y="452.82422" />
    </clipPath>
    <clipPath
       clipPathUnits="userSpaceOnUse"
       id="clipPath15">
      <rect
         style="fill:none;stroke:#000000;stroke-linecap:butt;stroke-linejoin:bevel;paint-order:stroke markers fill;stop-color:#000000"
         id="rect15-7"
         width="45.034248"
         height="38.955639"
         x="262.48285"
         y="121.00073" />
    </clipPath>
    <linearGradient
       id="swatch75">
      <stop
         style="stop-color:#000000;stop-opacity:1;"
         offset="0"
         id="stop75" />
    </linearGradient>
  </defs>
  <g
     id="layer51"
     style="display:inline">
    <g
       id="layer65"
       style="display:inline">
      <path
         style="baseline-shift:baseline;display:inline;overflow:visible;opacity:1;vector-effect:none;fill-rule:evenodd;enable-background:accumulate;stop-color:#000000;stop-opacity:1"
         d="m 839.54297,208.08398 c -0.19277,-0.0685 -1.42075,0.95696 -2.79688,3.32618 -0.41851,0.32311 -0.74339,0.40354 -1.18945,0.84961 -2.90207,2.90207 -3.62763,5.09085 -3.72852,5.24218 -0.82614,1.2392 -1.65242,2.47767 -2.47851,3.7168 -1.65222,2.47832 -3.30483,4.95725 -4.95703,7.43555 -1.71708,2.57562 -3.29513,5.0324 -4.85742,7.28906 -1.91094,2.76023 -3.98909,5.58354 -6.11133,8.55469 -2.20257,3.0836 -4.10604,5.94682 -5.98438,8.38867 0.13011,-0.16914 -2.7341,3.28026 -5.21484,6.24805 -2.48074,2.96778 -4.49625,5.1799 -6.33203,7.93359 -1.33308,1.99961 -2.23126,3.67358 -2.93555,5.04492 -0.01,0.003 -0.0336,0.003 -0.043,0.006 -3.22423,1.06389 -3.28571,1.79985 -3.72851,2.21094 -0.44281,0.41108 -0.64593,0.64569 -0.82422,0.84961 -0.35659,0.40783 -0.55137,0.66593 -0.76758,0.95117 -1.72971,2.28188 -4.5787,6.53602 -11.52734,16.95898 -3.25553,4.88327 -4.73296,8.95882 -6.19532,11.15235 -1.81388,2.72083 -9.17799,11.52299 -13.23632,16.79883 -2.13659,2.77754 -5.34379,6.12862 -8.16407,11 -3.72845,6.44007 -4.64092,11.30381 -5.80273,13.00781 -1.99533,2.92648 -7.22291,6.46655 -12.23633,13.4082 -3.68353,5.10028 -4.14225,9.17095 -4.66016,10.27149 -1.83123,3.89135 -3.95557,7.90529 -6.09179,12.17773 -1.36866,2.73732 -2.4493,5.13491 -3.51367,7.05078 -2.44242,4.39635 -5.86436,9.22872 -8.87696,15.25391 -2.15247,4.30494 -1.96285,6.86607 -1.91015,6.68164 -1.3135,4.59727 -2.17982,8.47297 -3.35743,11.35156 -2.37482,5.80513 -2.81977,6.69942 -3.93164,9.27148 -0.63427,0.42083 -1.06385,0.83925 -1.41406,1.16016 -2.92499,2.68028 -2.77228,3.45321 -3.84961,5.42774 -1.07732,1.97452 -2.40672,4.62736 -4.20898,8.4121 -2.93245,6.15816 -4.59978,11.95747 -6.48047,16.76368 -6.50134,16.61454 -5.59105,13.79469 -14.69531,34.27929 l -0.0859,0.19532 -0.0801,0.20117 c -2.7859,7.07187 -4.19371,13.50494 -6.19531,18.58594 -2.70904,6.8768 -6.4973,14.04508 -9.84961,22.14648 -2.79295,6.74963 -4.10385,10.26161 -4.87891,12.87109 -0.77506,2.60949 -0.96446,5.16481 -0.91211,4.75391 0.10472,-0.82181 -0.40583,1.80061 -8.93359,20.45508 -2.38853,5.2249 -6.53636,11.03773 -9.94727,18.66211 -4.51229,10.08632 -7.48894,19.95076 -11.21484,28.64453 -1.81211,4.22825 -4.62949,8.89502 -7.29102,14.55078 -0.50187,1.0665 -1.42216,3.12596 -3.19921,7.04687 -1.77706,3.92092 -4.1196,9.08444 -6.53125,14.37891 -4.82331,10.58894 -10.29318,22.39286 -11.16993,24.08789 -10.82861,20.93532 -10.40596,16.97172 -26.53515,39.69922 -8.60325,12.12276 -10.28202,15.21565 -11.6211,18.05469 -1.33908,2.83904 -2.39827,5.36972 -12.20312,20.77734 -3.87368,6.08721 -3.62517,5.60316 -5.88672,9.0918 -0.7503,0.29285 -1.58975,0.59565 -2,0.84961 -2.47108,1.52971 -2.69336,2.19132 -3.56445,3.17773 -0.8711,0.98642 -1.80759,2.14344 -2.97461,3.65039 -2.33405,3.01391 -5.55027,7.39909 -10.08203,13.79688 -4.57816,6.46327 -6.73077,12.65454 -9.17579,16.89258 -3.04397,5.27622 -6.27522,10.48772 -9.63476,15.65625 -1.06963,1.64558 -3.21164,4.12405 -5.41016,7.55664 -0.093,-0.53568 -0.0488,-0.90621 -0.26367,-1.55078 -0.88835,-2.66497 -1.78982,-3.80621 -1.78125,-3.78907 -0.82609,-1.65218 -1.65239,-3.30479 -2.47851,-4.95703 -0.66066,-1.32132 -0.96665,-1.88928 -0.89844,-1.71875 0.29325,0.73313 0.29517,-1.22514 -1.8418,-4.96484 -1.61033,-2.81807 -3.07214,-4.39888 -3.94336,-5.44727 -0.2499,-0.49981 -0.50007,-0.9982 -0.75,-1.49804 -1.91882,-3.83766 -0.32585,-0.0518 -1.9375,-4.88672 4e-4,10e-4 -0.0976,-2.11314 -2.04297,-5.51758 -1.26869,-2.22021 -2.23045,-3.46104 -2.89843,-4.20117 -0.0661,-0.5347 -0.64337,-1.99602 -2.0586,-4.47266 -1.48737,-2.6029 -3.09734,-4.35019 -3.74609,-5.13281 -0.64875,-0.78262 -0.37941,-0.42143 -0.40625,-0.50196 -0.14504,-0.43511 -0.37889,-1.98629 -1.10938,-4.54296 -0.51793,-1.81277 -1.04568,-3.16636 -1.36718,-4.13086 -0.11492,-0.34476 -0.35581,-2.17253 -1.78321,-5.02735 -1.0367,-2.07341 -1.90476,-3.49817 -2.49219,-4.34765 0.0129,-0.51243 -0.0126,-0.7799 0.14063,-1.96094 0.24168,-1.86326 0.41431,-4.88086 -1.03516,-8.17774 -0.91883,-2.08992 -2.5149,-3.76434 -4.26172,-5.1875 -0.19006,-0.24322 -0.35818,-0.37628 -0.54296,-0.57812 -0.0785,-1.27642 -0.28035,-3.13946 -0.9043,-5.94727 -0.90188,-4.05845 -2.36671,-5.4014 -2.05664,-4.78125 -1.48675,-2.97348 -2.75913,-5.1312 -3.37695,-6.67578 0.31727,0.7932 0.28606,-0.89729 -1.16016,-4.7539 -1.27583,-3.40225 -2.50647,-5.04895 -2.65039,-5.38477 0.61796,1.44189 0.86085,-0.87084 -2.10938,-5.32617 -1.92884,-2.89325 -3.42013,-4.18485 -4.01562,-4.51172 -0.13164,-0.24808 -0.13049,-0.23167 -0.31836,-0.60742 -0.8261,-1.65218 -1.65239,-3.30479 -2.47852,-4.95703 -0.4563,-0.91262 -1.15954,-3.11822 -3.10156,-6.03125 -0.84455,-1.26682 -1.42847,-2.20844 -2.36914,-3.23438 -0.0915,-0.27887 -0.075,-0.25822 -0.18164,-0.57812 -0.87805,-2.63415 -1.17383,-3.5577 -1.33594,-4.0625 -0.003,-0.009 -0.007,-0.0224 -0.01,-0.0312 -0.11382,-0.36807 -0.20318,-0.64546 -0.29883,-0.92774 -0.0239,-0.0706 -0.0405,-0.12109 -0.10547,-0.29883 -0.0325,-0.0889 -0.001,-0.0696 -0.27344,-0.67578 -0.068,-0.15154 -0.40604,-0.80627 -0.40625,-0.80664 0,0 -0.029,-0.0251 -0.0293,-0.0254 -0.009,-0.67784 -0.49865,-2.57805 -2.42579,-5.46875 -1.47559,-2.21339 -2.70947,-3.50302 -3.48828,-4.15039 -0.0772,-0.63452 -0.93145,-2.36548 -3.21875,-5.22461 -1.30871,-1.6359 -2.18548,-2.55103 -2.76562,-3.07812 -0.20699,-0.52532 -0.29272,-0.76694 -0.71485,-1.82227 -0.75426,-1.88566 -1.41463,-2.9074 -1.58007,-3.23828 -1.0737,-2.14741 -1.86192,-3.51025 -2.13672,-4.19727 -0.56705,-1.41762 -1.13399,-3.94172 -2.42969,-7.31054 -1.47902,-3.84546 -2.50599,-6.48688 -3.21484,-8.27539 -0.70886,-1.78851 -0.49466,-1.72266 -1.67774,-3.89453 -0.14788,-0.27149 -0.23333,-0.54998 -1.00781,-1.51954 -0.23639,-0.29592 -0.61476,-0.74228 -1.23438,-1.28125 -0.80604,-1.86101 -0.50149,-1.0872 -1.61718,-3.81445 -2.05667,-5.02742 -3.75209,-10.84347 -6.08789,-17.07226 -1.62165,-4.3244 -3.34015,-8.57374 -5.10352,-12.76172 -2.10391,-4.99679 -6.97686,-15.47287 -8.57031,-19.57032 -1.71475,-4.40936 -3.26896,-8.0855 -4.21289,-11.3457 0.3096,-0.52999 0.60165,-1.06284 0.76758,-1.48633 1.71281,-4.37148 0.68839,-4.54315 0.59765,-5.2207 -0.18148,-1.35509 -0.35817,-1.84868 -0.5918,-2.69922 -0.93451,-3.40213 -3.0025,-9.76141 -7.54687,-23.39453 -2.15429,-6.46286 -4.74619,-9.21127 -4.82813,-9.49805 -0.92153,-3.22536 -0.8165,-8.55983 -2.32226,-15.48632 -1.42816,-6.56951 -2.85351,-10.72293 -4.31055,-14.24219 -1.45704,-3.51927 -2.75343,-6.1669 -4.69726,-11.72071 -1.84284,-5.26524 -2.62945,-7.68688 -3.02539,-8.99023 0.10894,-1.46988 -0.003,-2.51452 -0.16407,-3.55469 -0.38544,-2.49368 -1.1408,-5.60726 -2.80859,-11.61133 -1.69729,-6.11025 -3.72682,-10.49341 -5.67578,-14.19531 -1.94896,-3.70189 -3.71621,-6.7076 -5.91992,-11.84961 -1.01041,-2.35761 -1.80314,-6.07465 -3.54688,-10.72461 -2.19506,-5.85354 -10.84305,-27.16372 -13.83984,-33.97461 -2.31293,-5.25665 -4.64708,-10.99803 -7.78321,-16.82226 -3.78692,-7.03284 -7.91532,-11.64209 -9.5664,-15.39453 -0.60684,-1.37918 0.0137,-7.13762 -3.85938,-15.18164 -4.24177,-8.80984 -9.96325,-14.34808 -12.70117,-19.17969 -2.76397,-4.8776 -4.97565,-11.22085 -8.42969,-18.12891 -1.98541,-3.97085 -3.96387,-6.68752 -4.95703,-8.67383 -1.84473,-3.68946 -3.50543,-8.49952 -6.28125,-13.79882 -6.37182,-12.16439 -10.16287,-15.62975 -16.28515,-26.34375 -2.00282,-3.50493 -3.84155,-7.46187 -5.83008,-11.6875 -0.38118,-0.81002 -0.63052,-5.25592 -4.95703,-10.66407 -4.40471,-5.50588 -8.78457,-6.00003 -8.85938,-6.04492 l -10.29101,17.15039 c 1.9529,1.17175 3.09111,1.88908 3.66992,2.17774 0.17484,0.8067 0.72582,2.46668 2.33984,5.89648 1.94419,4.13139 3.98292,8.58143 6.5625,13.0957 6.9016,12.0778 10.38782,15.11185 15.9336,25.69922 1.85582,3.54296 3.49008,8.2243 6.10937,13.46289 1.98542,3.97082 3.96389,6.68949 4.95703,8.67579 2.66139,5.32276 4.94026,12.02542 8.91797,19.04492 4.60444,8.12546 9.86307,13.38552 12.08203,17.99414 0.55984,1.16274 0.0657,6.5867 3.57422,14.56054 3.42744,7.78962 8.07026,12.75243 10.26172,16.82227 2.47154,4.59001 4.63526,9.82482 7.08594,15.39453 2.4459,5.55887 11.77129,28.54503 13.41992,32.94141 1.00806,2.68816 1.81383,6.73425 3.89062,11.58008 2.62874,6.13372 4.93655,10.11907 6.60547,13.28906 1.66893,3.16999 2.79802,5.53966 4.10157,10.23242 1.45885,5.25186 1.95651,7.61205 2.13281,8.57813 -0.1183,0.86449 -0.15805,1.64457 -0.12305,2.20703 0.11645,1.87134 0.4019,2.58022 0.70508,3.63672 0.60635,2.11299 1.61562,5.09653 3.67773,10.98828 2.21268,6.32193 3.92175,9.93009 5.09571,12.76562 1.17396,2.83553 2.00656,5.13603 3.24609,10.83789 0.80244,3.69123 0.57126,9.51015 2.63477,16.73242 1.94794,6.81784 4.9017,9.78127 5.08398,10.32813 2.57216,7.71648 2.93365,9.02528 4.11523,12.7207 -0.11896,0.42403 -0.35647,0.96928 -0.42382,1.27735 -0.29452,1.34706 -0.2754,2.11553 -0.26563,2.79882 0.0195,1.36659 0.16708,2.33432 0.36328,3.52344 0.39241,2.37825 1.06909,5.42479 2.19336,9.92188 1.47209,5.88834 3.7287,10.69214 5.33789,14.83007 2.28503,5.8758 7.15686,16.23338 8.77735,20.08204 1.68935,4.01219 3.30811,8.01496 4.81054,12.02148 1.97634,5.27021 3.70945,11.28584 6.30274,17.625 3.56103,8.70474 4.46918,11.26446 6.24023,14.35352 0.22138,0.38613 0.32885,0.74323 1.33985,1.88867 0.0784,0.0888 0.23539,0.24695 0.32031,0.35547 0.28179,0.72995 0.36996,0.94705 0.69531,1.79297 0.57988,1.50767 1.15397,4.12516 2.52734,7.55859 1.09728,2.74318 2.23986,4.55783 2.81836,5.71484 0.66066,1.32132 0.96862,1.89127 0.90039,1.72071 -0.46113,-1.15286 -0.67866,1.22619 2.20313,5.54882 1.47645,2.2147 2.70958,3.50734 3.48828,4.1543 0.0811,0.63885 0.93677,2.36822 3.21875,5.2207 1.30701,1.63377 2.18326,2.54644 2.76367,3.07422 0.20691,0.52535 0.29334,0.76948 0.7168,1.82813 0.47988,1.1997 0.82117,2.02489 1.12891,2.71875 0.15387,0.34693 0.28352,0.64064 0.52343,1.09961 0.0108,0.0206 0.0417,0.0667 0.0527,0.0879 0.2278,0.68965 0.2146,0.67116 0.57031,1.73828 0.68526,2.05578 0.94334,2.93398 1.02539,3.22266 0.0205,0.0722 0.0276,0.0962 0.0508,0.17968 0.0116,0.0418 0.0172,0.0737 0.0859,0.29883 0.0344,0.11257 0.0598,0.23244 0.25,0.7207 0.0951,0.24414 0.66175,1.37828 0.66211,1.37891 1.8e-4,3.1e-4 1.52524,2.00376 1.52539,2.00391 2e-5,10e-6 0.69487,0.25833 0.86133,0.32031 0.17323,0.1839 0.2476,0.19074 0.42383,0.45508 0.1073,0.16095 0.65762,1.48906 1.85351,3.88086 h 0.002 c 0.8261,1.65218 1.65044,3.30479 2.47657,4.95703 -0.21162,-0.42324 0.0528,1.35115 2.375,4.2539 1.2812,1.60152 2.12493,2.47607 2.70898,3.01368 0.22877,0.5712 0.34591,0.90155 0.86524,2.11328 1.31137,3.05991 2.28527,4.47036 2.30664,4.52734 -0.25027,-0.66737 -0.26392,1.20446 1.31836,5.16016 1.44029,3.60074 3.06507,6.21022 4.05664,8.19336 0.31319,0.6264 0.32474,0.68552 0.45507,0.98437 0.0318,1.22661 -0.11163,4.08109 1.48047,8.85742 1.07418,3.22252 2.6911,4.61288 3.85157,5.44922 l 0.27539,0.55078 c -0.34178,1.80728 -0.40098,4.36952 0.95312,7.98047 1.86926,4.98467 4.05772,6.99825 4.13672,7.15625 -0.25911,-0.51823 -0.0139,0.27464 0.69727,2.40821 0.50461,1.51382 0.91158,2.60363 1.11132,3.30273 0.20526,0.71838 0.43511,2.57489 1.36719,5.37109 1.04249,3.12747 2.87685,5.60771 3.98242,6.94141 0.64483,0.77788 0.76315,0.98142 1.03711,1.33789 -0.30571,-0.0802 0.15788,1.48234 1.98047,4.67188 1.90032,3.32558 3.12515,4.51252 3.42188,4.68554 0.10057,0.34106 0.3395,1.01656 0.73047,2.18946 1.4508,4.35242 1.2937,4.05029 3.02148,7.50585 0.41304,0.82608 0.82518,1.65233 1.23828,2.47852 l 0.4043,0.80664 0.54101,0.7207 c 1.73531,2.31376 2.83101,3.56072 3.03516,3.91797 -0.84087,-1.47152 -0.62675,-0.68794 0.63672,2.47071 0.75425,1.88565 1.41268,2.90543 1.57812,3.23632 0.8261,1.65219 1.65239,3.3048 2.47852,4.95704 0.43265,0.86529 0.26032,0.42524 0.36133,0.60546 0.0582,0.39221 0.005,0.60069 0.12109,1.06446 0.46078,1.84315 0.61474,1.99992 0.82813,2.48633 0.0235,1.17879 0.27575,2.7331 1.16796,4.51757 0.9817,1.96337 1.90682,3.08277 2.55665,3.69922 0.0863,0.80279 0.036,1.14863 0.29882,2.46289 0.34784,1.73919 -0.2263,2.22639 1.99805,5.79883 0.36006,0.57829 0.98831,1.3249 1.81055,2.0957 0.0542,0.19062 0.0323,0.23187 0.11914,0.48047 0.1611,0.46105 0.38095,1.04332 0.8789,1.86914 0.24898,0.41292 1.04261,1.42733 1.04297,1.42774 1.5e-4,1.6e-4 0.41046,0.35962 0.78907,0.6914 0.32665,0.48716 0.62159,0.99074 1.05273,1.42188 2.78898,2.78888 5.39871,3.14844 7.69141,3.14844 2.29269,0 4.90238,-0.35942 7.6914,-3.14844 2.74559,-2.74559 2.94704,-5.75716 2.87305,-7.67578 1.16476,-3.69608 4.33709,-11.97761 4.93359,-13.02149 0.95056,-1.66347 3.2761,-4.15117 5.89844,-8.18554 3.51272,-5.4042 6.93195,-10.91617 10.18945,-16.5625 3.65024,-6.32709 5.69978,-11.83616 8.17188,-15.32618 1.28348,-1.81197 1.69835,-2.30715 2.76562,-3.78906 1.68084,-0.22186 2.92046,-0.68517 3.57618,-1.05078 1.91588,-1.06826 2.09992,-1.53589 2.44531,-1.89648 0.69078,-0.7212 0.87734,-1.01415 1.14844,-1.37696 2.16873,-2.90247 5.70244,-8.47047 15.125,-23.27734 10.02257,-15.74976 12.20722,-20.41134 13.41992,-22.98242 1.21269,-2.57108 1.39159,-3.10461 9.84179,-15.01172 15.59043,-21.96832 16.74966,-20.35794 27.98829,-42.08594 2.00147,-3.86951 6.76661,-14.35702 11.60742,-24.98437 2.4204,-5.31368 4.7679,-10.48892 6.54687,-14.41407 1.77897,-3.92514 3.28168,-7.21966 3.07813,-6.78711 2.05773,-4.37268 5.02427,-9.22853 7.57812,-15.1875 4.31135,-10.05981 7.27014,-19.81924 11.08985,-28.35742 2.32409,-5.19504 6.42859,-10.96416 9.8789,-18.51172 8.62207,-18.86076 10.07023,-22.21015 10.58399,-26.24218 0.25688,-2.01602 -0.11617,-0.37481 0.24414,-1.58789 0.3603,-1.21308 1.50356,-4.43178 4.1875,-10.91797 2.86947,-6.93454 6.72138,-14.19974 9.97656,-22.46289 2.7703,-7.03231 4.18215,-13.4246 6.16602,-18.49219 8.80781,-19.80616 8.40628,-18.19841 14.9082,-34.81445 2.31221,-5.90896 3.89762,-11.2227 5.91211,-15.45313 0.60237,-1.26498 0.82136,-1.62981 1.30469,-2.61133 3.23462,-1.55097 3.38101,-2.57635 3.83203,-3.18554 0.91395,-1.23451 1.08262,-1.70807 1.42382,-2.38868 1.36481,-2.72243 3.22891,-7.16739 7.29688,-17.11132 2.08803,-5.10406 3.02223,-9.73402 4.07812,-13.42969 0.98844,-3.45951 1.19757,-4.49084 0.56836,-3.23242 2.11991,-4.23981 5.33959,-8.84837 8.47071,-14.48438 1.6269,-2.92842 2.81026,-5.60099 3.91992,-7.82031 1.9943,-3.9886 4.19929,-8.13981 6.30078,-12.60547 2.16098,-4.59206 2.77536,-7.07613 2.77539,-7.07617 2.17696,-3.01425 7.6239,-6.63316 12.54688,-13.85352 4.46133,-6.5433 5.31508,-12.05542 6.58789,-14.2539 1.31882,-2.27797 3.80675,-5.05582 6.70703,-8.82618 3.29572,-4.28444 10.27802,-12.27737 14.02539,-17.89843 3.25552,-4.88327 4.73295,-8.95882 6.19531,-11.15235 2.37425,-3.56137 2.14456,-3.15515 3.7168,-5.48242 1.82613,-0.77886 2.35891,-1.35693 2.85547,-1.78515 1.05796,-0.91237 1.55356,-1.51471 2.24804,-2.32227 1.38898,-1.61511 3.13641,-3.84854 5.72852,-7.30469 3.26463,-4.35283 4.39854,-7.80875 5.27734,-9.12695 -0.34494,0.51742 2.6152,-3.30376 5.03711,-6.20117 2.42191,-2.89741 4.38721,-5.14731 5.72071,-6.88086 2.45451,-3.19088 4.48025,-6.2579 6.4082,-8.95703 2.00828,-2.8116 4.14518,-5.71232 6.2793,-8.79493 1.82854,-2.64124 3.46929,-5.19905 5.05664,-7.58007 1.65221,-2.47832 3.30287,-4.95725 4.95507,-7.43555 0.82614,-1.23919 1.65244,-2.4777 2.47852,-3.7168 0.92538,-1.38808 0.61476,-1.06137 0.73242,-1.30859 0.8715,-0.44497 1.85903,-1.00942 2.97461,-2.125 1.96015,-1.96015 2.71952,-4.75023 2.87891,-6.63281 -0.18504,0.80894 -0.46511,1.71338 -1.00586,2.79492 -0.38055,0.76109 -0.49216,0.8016 -0.76758,1.22461 L 840.16797,209.4375 c 0.0178,-0.009 0.057,-0.0465 0.0742,-0.0547 -0.0253,0.007 -0.0683,0.0257 -0.0957,0.0332 l -0.87304,-0.87305 c 0.26939,-0.2694 0.34308,-0.43285 0.26953,-0.45899 z m 15.64648,9.56836 c -0.0104,0.0918 -10e-4,0.15344 -0.0156,0.25 4.7e-4,-0.0389 0.0296,-0.11093 0.0293,-0.14843 -4.7e-4,-0.0652 -0.0125,-0.0391 -0.0137,-0.10157 z m -7.69922,10.38672 c -0.54453,0.25976 -0.80119,0.26875 -0.5664,0.19336 0.0704,-0.0226 0.41681,-0.1533 0.5664,-0.19336 z M 693.70898,440.19727 c -0.0356,0.24075 -0.0691,0.42665 -0.10742,0.80664 -0.002,0.016 -0.002,0.052 -0.004,0.0684 -0.0667,-0.48378 0.0205,-0.61224 0.11132,-0.875 z m -348.38281,45.47656 c -0.0705,0.35243 0.0124,0.49706 -0.11719,0.89062 -0.50427,1.53127 -1.54541,2.90403 -1.69726,3.08789 -0.24192,0.29293 1.05975,-1.97986 1.81445,-3.97851 z m 25.90039,79.14453 c 0.46229,0.55554 0.34625,0.63846 0.31836,0.58984 -0.0309,-0.0539 -0.18219,-0.33561 -0.31836,-0.58984 z m -18.1289,6.29101 c 0.0109,0.0382 0.10516,0.31571 0.11523,0.35157 -0.053,-0.11677 -0.0978,-0.13679 -0.11523,-0.35157 z m 62.33398,115.90235 c -2.2e-4,-10e-6 0.44195,0.0798 0.5957,0.0977 -2.68652,1.9576 -9.186,6.69328 -10.45898,7.6211 0.0956,-0.45687 0.14777,-0.86473 0.43945,-1.56641 0.21297,-0.51231 0.5053,-1.1061 0.95508,-1.76953 0.44978,-0.66343 1.90898,-2.09634 1.9082,-2.0957 -7.7e-4,6.4e-4 3.08293,-1.73469 3.08203,-1.73438 -8.9e-4,3.1e-4 3.47954,-0.55271 3.47852,-0.55273 z m 12.16602,17.18164 c 0.0623,0.67657 0.44907,1.93196 -1.02344,4.2168 0.14524,-0.42839 0.87104,-2.56808 0.87109,-2.56836 1.1e-4,-6.2e-4 0.14411,-1.33071 0.15235,-1.64844 z m -19.98438,0.19336 c 0.007,0.13191 0.0107,0.36048 0.0156,0.42383 0.006,0.0731 0.009,0.1269 -0.004,-0.0625 -0.003,-0.0457 -0.007,-0.26257 -0.0117,-0.36133 z m 18.62695,4.44726 c -0.39552,0.55832 -0.743,1.09496 -1.39453,1.76758 -1.19317,1.23182 -3.08133,1.99934 -4.96679,2.47071 1.89022,-1.25936 5.98513,-3.98756 6.36132,-4.23829 z m -14.32421,2.79688 c 1.50544,0.56046 3.5492,1.32117 5.05273,1.88086 -0.0734,-0.005 -0.17894,0.0447 -0.25,0.0371 -2.42353,-0.25883 -3.586,-1.06683 -4.30469,-1.54883 -0.40968,-0.27476 -0.24512,-0.1864 -0.49804,-0.36914 z m 57.74218,126.26562 c -0.0173,0.10369 -0.0436,0.63294 -0.0879,0.9043 0.0254,-0.79766 0.13687,-1.19793 0.0879,-0.9043 z m 10.76758,4.41211 c -1.03606,0.52669 -2.10865,1.14214 -2.12891,1.15821 -0.0187,0.0148 0.66419,-0.57487 2.12891,-1.15821 z m 19.01758,12.98828 c -0.10485,-0.63652 -0.0234,0.32824 0.0117,0.50782 -0.003,0.0304 -0.0194,0.0956 -0.0234,0.1289 -0.0168,-0.14658 0.0284,-0.53535 0.0117,-0.63672 z m -2.67774,1.80469 c 0.0372,0.59012 0.148,1.20931 -0.67578,2.48438 0.30251,-0.7604 0.46111,-1.29259 0.52539,-1.57813 0.11158,-0.49561 0.12276,-0.67516 0.15039,-0.90625 z"
         id="path423" />
    </g>
  </g>
</svg>
