<?xml version="1.0" encoding="UTF-8" standalone="no"?>
<!-- Created with Inkscape (http://www.inkscape.org/) -->

<svg
   width="1000"
   height="1000"
   viewBox="0 0 1000 1000"
   version="1.1"
   id="svg1"
   xmlns:xlink="http://www.w3.org/1999/xlink"
   xmlns="http://www.w3.org/2000/svg"
   xmlns:svg="http://www.w3.org/2000/svg">
  <defs
     id="defs1">
    <pattern
       xlink:href="#pattern359"
       preserveAspectRatio="xMidYMid"
       id="pattern372"
       patternTransform="matrix(0.5,0,0,0.5,147.15462,1548.2922)" />
    <pattern
       xlink:href="#pattern357"
       preserveAspectRatio="xMidYMid"
       id="pattern371"
       patternTransform="matrix(0.5,0,0,0.5,221.32076,1552.4298)" />
    <pattern
       xlink:href="#pattern358"
       preserveAspectRatio="xMidYMid"
       id="pattern370"
       patternTransform="matrix(0.5,0,0,0.5,230.96346,1527.8214)" />
    <pattern
       xlink:href="#pattern355"
       preserveAspectRatio="xMidYMid"
       id="pattern369"
       patternTransform="matrix(0.5,0,0,0.5,287.08178,1553.6581)" />
    <pattern
       xlink:href="#pattern354"
       preserveAspectRatio="xMidYMid"
       id="pattern368"
       patternTransform="matrix(0.5,0,0,0.5,230.97274,1529.1717)" />
    <pattern
       xlink:href="#pattern342"
       preserveAspectRatio="xMidYMid"
       id="pattern360"
       patternTransform="matrix(0.5,0,0,0.5,210.45332,1525.5392)" />
    <pattern
       xlink:href="#pattern342"
       preserveAspectRatio="xMidYMid"
       id="pattern359"
       patternTransform="matrix(0.5,0,0,0.5,152.11125,1550.7705)" />
    <pattern
       xlink:href="#pattern342"
       preserveAspectRatio="xMidYMid"
       id="pattern358"
       patternTransform="matrix(0.5,0,0,0.5,202.11125,1533.2444)" />
    <pattern
       xlink:href="#pattern342"
       preserveAspectRatio="xMidYMid"
       id="pattern357"
       patternTransform="matrix(0.5,0,0,0.5,211.4075,1546.234)" />
    <pattern
       xlink:href="#pattern342"
       preserveAspectRatio="xMidYMid"
       id="pattern356"
       patternTransform="matrix(0.5,0,0,0.5,232.14929,1573.2544)" />
    <pattern
       xlink:href="#pattern342"
       preserveAspectRatio="xMidYMid"
       id="pattern355"
       patternTransform="matrix(0.5,0,0,0.5,275,1552.7287)" />
    <pattern
       xlink:href="#pattern342"
       preserveAspectRatio="xMidYMid"
       id="pattern354"
       patternTransform="matrix(0.5,0,0,0.5,235,1529.7913)" />
    <pattern
       xlink:href="#shading24"
       preserveAspectRatio="xMidYMid"
       id="pattern342"
       patternTransform="matrix(0.5,0,0,0.5,213.95332,1537.5392)"
       x="0"
       y="0" />
    <pattern
       patternUnits="userSpaceOnUse"
       width="338.5925"
       height="42.989567"
       patternTransform="translate(213.95332,1537.5392) scale(0.5)"
       preserveAspectRatio="xMidYMid"
       id="shading24"
       style="fill:#000000">
      <path
         style="fill-rule:nonzero;stroke:none;stroke-width:0.1;stroke-linecap:square;paint-order:markers fill stroke;stop-color:#000000"
         d="m 1806.4991,-758.06464 v 18.86792 c 55.9187,0 121.0493,0.59523 193.5686,3.15628 72.9408,2.57593 146.0589,6.87694 222.9288,13.47675 119.09,10.22471 223.0762,23.76065 340.6056,39.2177 117.5025,15.4535 222.0471,29.0563 341.8507,39.3312 77.366,6.63525 151.0001,10.96128 224.4674,13.55245 73.0344,2.5759 138.631,3.17493 194.9247,3.17493 -55.9642,0 -122.2215,-1.36594 -194.8324,-5.25394 -73.2143,-3.92032 -146.9676,-10.0663 -223.8166,-18.88656 -118.8791,-13.6442 -223.3242,-31.02113 -339.8009,-50.57815 -116.4705,-19.55598 -221.1862,-36.99475 -340.3724,-50.69165 -77.0605,-8.8558 -150.9942,-15.0266 -224.3694,-18.96225 -72.7637,-3.90286 -139.1256,-5.27261 -195.1541,-5.27261 z m 0,37.81515 v 18.86793 c 55.9187,0 121.0493,0.59523 193.5686,3.15627 72.9408,2.57593 146.0589,6.87694 222.9288,13.47676 119.09,10.22471 223.0762,23.76065 340.6056,39.2177 117.5025,15.4535 222.0471,29.0563 341.8507,39.33119 77.366,6.63526 151.0001,10.96128 224.4674,13.55245 73.0344,2.5759 138.631,3.17493 194.9247,3.17493 -55.9642,0 -122.2215,-1.36594 -194.8324,-5.25394 -73.2143,-3.92031 -146.9676,-10.0663 -223.8166,-18.88656 -118.8791,-13.6442 -223.3242,-31.02112 -339.8009,-50.57815 -116.4705,-19.55598 -221.1862,-36.99475 -340.3724,-50.69165 -77.0605,-8.8558 -150.9942,-15.02659 -224.3694,-18.96225 -72.7637,-3.90286 -139.1256,-5.2726 -195.1541,-5.2726 z m 0,37.81516 v 18.86792 c 55.9187,0 121.0493,0.59523 193.5686,3.15628 72.9408,2.57593 146.0589,6.87694 222.9288,13.47675 119.09,10.22471 223.0762,23.76065 340.6056,39.2177 117.5025,15.4535 222.0471,29.0563 341.8507,39.3312 77.366,6.63525 151.0001,10.96128 224.4674,13.55245 73.0344,2.5759 138.631,3.17493 194.9247,3.17493 -55.9642,0 -122.2215,-1.36594 -194.8324,-5.25394 -73.2143,-3.92032 -146.9676,-10.0663 -223.8166,-18.88656 -118.8791,-13.6442 -223.3242,-31.02113 -339.8009,-50.57815 -116.4705,-19.55598 -221.1862,-36.99475 -340.3724,-50.69165 -77.0605,-8.8558 -150.9942,-15.0266 -224.3694,-18.96225 -72.7637,-3.90286 -139.1256,-5.27261 -195.1541,-5.27261 z m 0,37.81515 v 18.86793 c 55.9187,0 121.0493,0.59523 193.5686,3.15627 72.9408,2.57593 146.0589,6.87694 222.9288,13.47676 119.09,10.22471 223.0762,23.76065 340.6056,39.2177 117.5025,15.4535 222.0471,29.0563 341.8507,39.33119 77.366,6.63526 151.0001,10.96128 224.4674,13.55245 73.0344,2.5759 138.631,3.17494 194.9247,3.17494 -55.9642,0 -122.2215,-1.36595 -194.8324,-5.25395 -73.2143,-3.92031 -146.9676,-10.0663 -223.8166,-18.88656 -118.8791,-13.6442 -223.3242,-31.02112 -339.8009,-50.57815 -116.4705,-19.55598 -221.1862,-36.99475 -340.3724,-50.69165 -77.0605,-8.8558 -150.9942,-15.02659 -224.3694,-18.96225 -72.7637,-3.90286 -139.1256,-5.2726 -195.1541,-5.2726 z m 0,37.81516 v 18.86792 c 55.9187,0 121.0493,0.59523 193.5686,3.15628 72.9408,2.57593 146.0589,6.87694 222.9288,13.47675 119.09,10.22471 223.0762,23.76065 340.6056,39.2177 117.5025,15.4535 222.0471,29.0563 341.8507,39.3312 77.366,6.63525 151.0001,10.96128 224.4674,13.55245 73.0344,2.5759 138.631,3.17493 194.9247,3.17493 -55.9642,0 -122.2215,-1.36594 -194.8324,-5.25394 -73.2143,-3.92032 -146.9676,-10.0663 -223.8166,-18.88656 -118.8791,-13.6442 -223.3242,-31.02113 -339.8009,-50.57815 -116.4705,-19.55598 -221.1862,-36.99475 -340.3724,-50.69165 -77.0605,-8.8558 -150.9942,-15.0266 -224.3694,-18.96225 -72.7637,-3.90286 -139.1256,-5.27261 -195.1541,-5.27261 z m 0,37.81515 v 18.86793 c 55.9187,0 121.0493,0.59523 193.5686,3.15627 72.9408,2.57593 146.0589,6.87694 222.9288,13.47676 119.09,10.22471 223.0762,23.76065 340.6056,39.2177 117.5025,15.4535 222.0471,29.0563 341.8507,39.33119 77.366,6.63526 151.0001,10.96128 224.4674,13.55245 73.0344,2.5759 138.631,3.17494 194.9247,3.17494 -55.9642,0 -122.2215,-1.36595 -194.8324,-5.25395 -73.2143,-3.92031 -146.9676,-10.0663 -223.8166,-18.88656 -118.8791,-13.6442 -223.3242,-31.02112 -339.8009,-50.57815 -116.4705,-19.55598 -221.1862,-36.99475 -340.3724,-50.69165 -77.0605,-8.8558 -150.9942,-15.02659 -224.3694,-18.96225 -72.7637,-3.90286 -139.1256,-5.2726 -195.1541,-5.2726 z m 0,37.81516 v 18.86792 c 55.9187,0 121.0493,0.59523 193.5686,3.15628 72.9408,2.57593 146.0589,6.87694 222.9288,13.47675 119.09,10.22471 223.0762,23.76065 340.6056,39.2177 117.5025,15.4535 222.0471,29.0563 341.8507,39.3312 77.366,6.63525 151.0001,10.96128 224.4674,13.55245 73.0344,2.5759 138.631,3.17493 194.9247,3.17493 -55.9642,0 -122.2215,-1.36594 -194.8324,-5.25394 -73.2143,-3.92032 -146.9676,-10.0663 -223.8166,-18.88656 -118.8791,-13.6442 -223.3242,-31.02113 -339.8009,-50.57815 -116.4705,-19.55598 -221.1862,-36.99475 -340.3724,-50.69165 -77.0605,-8.8558 -150.9942,-15.0266 -224.3694,-18.96225 -72.7637,-3.90286 -139.1256,-5.27261 -195.1541,-5.27261 z"
         id="use26"
         transform="matrix(0.22300099,0,0,0.37823052,-402.85121,237.25945)" />
    </pattern>
    <clipPath
       clipPathUnits="userSpaceOnUse"
       id="clipPath54">
      <path
         id="path336"
         style="stroke-width:0.0999999;stroke-linecap:square;paint-order:markers fill stroke;stop-color:#000000"
         d="m 1691.1994,-792.32001 h 1634.8919 v 92.82806 H 1691.1994 Z" />
    </clipPath>
    <clipPath
       clipPathUnits="userSpaceOnUse"
       id="clipPath33">
      <rect
         style="fill:#000000;stroke:none;stroke-width:0.999995;stroke-linecap:butt;stroke-linejoin:bevel;paint-order:stroke markers fill;stop-color:#000000"
         id="rect33"
         width="46.19186"
         height="80.006783"
         x="74.999985"
         y="399.99661" />
    </clipPath>
    <clipPath
       clipPathUnits="userSpaceOnUse"
       id="clipPath27">
      <rect
         style="fill:none;stroke:#000000;stroke-width:0.999999;stroke-linecap:butt;stroke-linejoin:bevel;paint-order:stroke markers fill;stop-color:#000000"
         id="rect28-6"
         width="46.160622"
         height="39.922417"
         x="86.574379"
         y="420.06253" />
    </clipPath>
    <clipPath
       clipPathUnits="userSpaceOnUse"
       id="clipPath25">
      <rect
         style="fill:#ff0000;stroke:none;stroke-width:3;stroke-linecap:square;stroke-linejoin:miter;paint-order:stroke markers fill;stop-color:#000000"
         id="rect25-8"
         width="78"
         height="45.033199"
         x="763.61322"
         y="452.82422" />
    </clipPath>
    <clipPath
       clipPathUnits="userSpaceOnUse"
       id="clipPath15">
      <rect
         style="fill:none;stroke:#000000;stroke-linecap:butt;stroke-linejoin:bevel;paint-order:stroke markers fill;stop-color:#000000"
         id="rect15-7"
         width="45.034248"
         height="38.955639"
         x="262.48285"
         y="121.00073" />
    </clipPath>
    <linearGradient
       id="swatch75">
      <stop
         style="stop-color:#000000;stop-opacity:1;"
         offset="0"
         id="stop75" />
    </linearGradient>
  </defs>
  <g
     id="layer51"
     style="display:inline">
    <g
       id="layer66"
       style="display:inline">
      <path
         style="baseline-shift:baseline;display:inline;overflow:visible;opacity:1;vector-effect:none;fill-rule:evenodd;enable-background:accumulate;stop-color:#000000;stop-opacity:1"
         d="m 210.57031,232.96094 c 0,2.33533 -0.14026,7.54378 -0.0488,12.91211 0.0914,5.36832 0.11029,10.54919 1.69336,15.93164 2.03943,6.93404 4.91156,9.75944 4.95703,9.91406 0.29754,1.01163 0.0426,4.41757 0.96875,9.97461 0.69133,4.14798 1.62007,8.19805 2.69532,12.14062 1.66731,6.11345 3.70957,11.33236 4.92773,16.00196 0.80256,3.07649 1.23142,7.23251 2.4336,12.21289 2.00694,8.31449 4.42281,16.05933 6.18554,23.50195 1.77135,7.47901 3.21572,15.28932 4.90235,23.30078 1.60863,7.64101 3.0267,15.65089 5.02734,23.85352 2.29824,9.42278 4.95287,18.60072 7.53516,27.63867 4.16813,14.58848 5.43973,17.42756 6.61718,20.76758 1.17746,3.34001 2.74063,8.46831 8.17774,29.76367 1.79392,7.02618 2.8762,14.96322 4.92773,23.42578 1.58443,6.53575 3.64256,12.26236 4.99219,17.49219 1.7079,6.61809 3.10833,13.67547 4.9375,20.99219 0.25524,1.02098 0.74911,2.87349 1.72461,6.58398 0.9755,3.71049 2.26552,8.60487 3.58008,13.58594 2.62912,9.96213 5.21257,19.75961 5.93359,22.2832 1.72593,6.04072 3.74518,11.17029 4.85742,15.73047 2.70595,11.09441 4.79232,22.66953 7.38282,34.4707 1.24613,5.67684 2.65644,10.96495 3.68945,15.98242 1.70753,8.29369 3.02191,17.06986 4.97851,26.11915 1.53998,7.12237 3.47952,13.74801 5.01172,20.06835 2.77728,11.45628 7.91063,33.3809 9.78321,43.99219 0.91358,5.17699 1.07117,11.55904 2.52148,18.81055 1.44312,7.21561 3.65803,13.44071 5.06055,19.05078 2.32259,9.29039 2.0481,8.63098 2.34765,10.60547 0.29956,1.97448 0.83,3.94891 3.95508,14.57422 0.99812,3.39356 1.77413,5.05096 2.04883,5.9375 -0.18238,-0.0783 -0.24386,1.44809 0.0742,4.6289 0.31549,3.15496 0.89116,5.9422 1.38281,8.40039 0.4149,2.07457 0.92681,3.98209 1.42969,5.74219 0.56077,1.96267 0.68774,2.08472 0.78906,2.20508 -0.0875,1.00186 -0.10066,2.3699 0.57813,4.40625 0.19853,0.59562 0.46069,0.97473 0.69531,1.45898 -0.0129,0.15524 -0.0141,0.2044 -0.0488,0.52344 -0.1219,1.11907 -0.38137,3.72559 1.13672,6.76172 0.51821,1.03643 1.05546,1.53591 1.5957,2.18945 0.10168,0.47748 0.15752,0.91004 0.33985,1.45704 0.23279,0.69835 0.5343,1.15244 0.8125,1.69921 -0.0179,0.53738 -0.0879,0.0162 -0.0879,1.33594 0,-1.69517 -0.95036,0.008 0.51367,4.40039 0.36061,1.08186 0.54311,1.40978 0.78515,1.97656 0.15946,0.9092 0.42577,1.90217 0.99024,3.03516 -0.0156,0.65321 -0.0153,1.37067 0.27148,2.61328 0.34656,1.50173 1.32438,3.8145 3.41992,5.55078 2.09555,1.73629 4.77977,2.33594 6.49805,2.33594 1.8063,0 5.06611,-0.76147 7.32227,-3.10937 1.25736,-1.3085 1.89846,-2.66052 2.28906,-3.90235 0.77011,-1.1555 1.26799,-1.90929 1.82031,-2.93945 0.17099,-0.31891 0.3976,-0.65994 0.65235,-1.31836 0.75233,-0.93814 0.76851,-0.95478 1.92187,-2.39648 5.19017,-6.48772 7.6461,-8.92571 13.50391,-15.95508 11.56755,-13.88106 13.13179,-16.59172 25.78515,-30.70508 5.26879,-5.87673 11.54982,-11.74804 17.52735,-18.79297 4.79716,-5.65381 27.77784,-35.34838 32.91406,-43.05273 4.28186,-6.42278 7.12332,-12.67753 10.16797,-17.75196 3.69378,-6.1563 8.40588,-12.5645 12.57812,-20.15039 10.05897,-18.28903 16.01712,-31.08679 22.91797,-49.66601 2.96274,-7.97663 6.46432,-16.38279 8.95703,-25.67383 2.60615,-9.71382 3.29746,-18.73106 5.04688,-26.38477 1.18096,-5.16671 3.07391,-10.70205 4.82422,-16.82812 l 0.0703,-0.24805 0.0586,-0.25195 c 2.46612,-10.68655 5.03869,-21.4319 7.45313,-32.29688 4.60494,-20.72223 6.37571,-28.59449 6.85351,-30.87695 0.0597,-0.28531 0.0532,0.0212 0.20899,-1.16406 0.0195,-0.14817 0.0477,-0.32058 0.0723,-0.76953 0.0246,-0.44896 -0.9781,-4.89758 -0.97851,-4.89844 -10e-6,-2e-5 -0.32131,-0.0298 -0.33399,-0.0312 0.58621,-3.36181 0.86659,-5.20276 1.68946,-9.72852 0.78527,-4.31902 3.17971,-9.74036 4.85156,-16.8457 1.63217,-6.93671 1.77807,-7.59592 2.75,-11.71484 0.70179,8.81718 0.91077,18.25993 2.41016,28.25586 1.29145,8.60967 4.20928,14.97755 4.96093,19.86328 1.29431,8.41296 1.30838,17.85737 2.42188,28.06445 1.4634,13.41455 3.26191,26.68571 4.98047,39.86133 1.8735,14.36354 2.32534,16.96024 3.00586,19.97656 0.68051,3.01632 1.47465,6.07426 4.48828,23.7793 2.76456,16.2418 3.7152,21.98316 4.54687,27.06054 -0.0228,0.18376 -0.22218,0.6569 -0.24219,0.80664 -0.15696,1.17517 -0.11026,1.59671 -0.0977,2.08985 0.10084,3.94511 0.88394,9.42979 3.18555,25.54101 1.09673,7.67716 5.59072,32.02635 7.49609,42.50586 0.82611,4.54357 1.6524,9.08728 2.47851,13.63086 0.87136,4.7925 1.83644,9.1851 2.41797,13.25586 0.4267,2.9869 0.28154,7.34272 1.3086,12.82031 0.76585,4.08455 2.05313,6.69097 2.66015,8.34571 0.82873,4.05388 1.71372,7.81318 2.24805,11.19726 0.48784,3.08969 0.73087,6.67548 1.17773,10.69727 l 0.0606,0.53711 0.11719,0.52734 c 0.88972,4.00372 1.83269,7.54997 2.39258,10.72266 0.33486,1.89758 0.6552,5.62931 1.1914,9.62695 0.53621,3.99764 1.11783,8.30986 3.42969,12.9336 3.3533,6.70659 4.3566,9.63754 8.87695,13.15039 0.44763,0.34785 1.03913,0.70657 1.65235,1.05078 0.76841,2.21619 1.60583,4.65913 3.42578,10.60156 0.75325,7.24223 0.4626,8.51307 1.49414,11.93164 0.91489,3.03201 1.64486,4.26129 3.21289,8.61719 -0.0298,0.47595 -0.20491,0.97625 -0.1543,1.41601 0.28245,2.45414 1.12742,3.76822 1.68164,4.63086 1.10845,1.7253 1.78627,2.28236 2.74805,3.24414 2.78902,2.78902 5.3987,3.14844 7.69141,3.14844 2.2927,0 4.90238,-0.35942 7.6914,-3.14844 1.94842,-1.94841 2.9016,-4.90348 3.01758,-6.67773 0.0265,-0.40614 -0.048,-0.38682 -0.0547,-0.70508 1.07803,-4.83716 1.87043,-9.0936 3.06641,-12.33984 0.17726,-0.48113 2.3302,-2.83192 4.67578,-7.99219 5.92445,-13.03379 12.41121,-32.41292 16.46875,-44.27344 8.27082,-24.17624 7.4153,-22.21439 14.98633,-47.45117 2.37126,-7.9042 5.3934,-16.21109 7.58008,-25.32227 3.08911,-12.87127 4.93201,-25.48483 7.48828,-37.41406 2.27769,-10.62921 4.8115,-21.27282 7.38086,-31.97851 2.29162,-9.5484 5.31025,-19.44424 7.5039,-30.04688 6.32177,-30.55519 7.43772,-36.44308 7.61524,-42.00781 0.17752,-5.56473 -0.5711,-7.13122 2.43945,-33.22266 1.17955,-10.22273 3.32934,-20.80153 4.92188,-31.94922 2.04081,-14.28568 8.90589,-65.93277 9.98437,-79.95312 0.69205,-8.99651 -0.49711,-16.45234 -0.006,-22.22461 0.9504,-11.16714 3.54348,-22.95648 4.9336,-35.69922 1.26904,-11.63291 0.97001,-22.34412 2.42187,-31.78125 0.49854,-3.24054 3.04808,-8.08381 4.79102,-15.27344 2.06854,-8.53271 3.65358,-17.04821 5.09375,-25.44922 2.27846,-13.29108 2.91876,-26.94804 5.93945,-37.30468 0.0683,-0.23426 2.80752,-3.02702 4.90234,-9.73047 1.61923,-5.18149 1.4339,-9.3728 1.65821,-12.06445 0.27514,-3.30168 0.028,-5.62327 0.0293,-6.34961 4.9e-4,-0.27455 0.16133,-0.53279 0.16602,-0.64063 0.44814,-0.34958 0.97257,-0.75967 0.97266,-0.75976 2.4e-4,-2.8e-4 1.29078,-1.78866 1.29101,-1.78907 2.3e-4,-4.1e-4 0.46464,-0.91398 0.60156,-1.26172 0.27385,-0.69546 0.38045,-1.1481 0.45899,-1.50195 0.15708,-0.70769 0.1783,-1.03598 0.20117,-1.29297 0.0457,-0.51397 0.0394,-0.67711 0.041,-0.81836 0.003,-0.28249 -5.6e-4,-0.35731 -0.002,-0.46093 -0.003,-0.20725 -0.008,-0.42754 -0.008,-0.82618 H 762.0918 c 0.022,-0.22556 0.0316,-0.41807 0.14648,-0.93554 0.0778,-0.35051 0.1821,-0.79892 0.45508,-1.49219 0.13649,-0.34664 0.60179,-1.26018 0.60156,-1.25977 -2.3e-4,4.1e-4 1.28931,-1.78738 1.28906,-1.78711 -2.4e-4,2.8e-4 2.7073,-2.10951 2.70704,-2.10937 -2.7e-4,1.4e-4 4.30106,-1.16798 4.30078,-1.16797 -2.9e-4,1e-5 4.0042,0.66223 4.0039,0.66211 -2.7e-4,-1.1e-4 1.92901,1.07388 2.24219,1.24805 -1.61157,-1.27949 -3.75789,-2.5323 -6.52148,-2.47657 -3.84168,0.0775 -6.11949,1.98733 -7.30664,3.17188 -2.37432,2.36911 -2.7785,3.81193 -3.6836,5.92383 -1.4729,3.43678 -2.05032,7.06988 -2.05469,9.53906 -0.004,2.46918 0.15824,3.31607 0.041,4.72266 -0.3288,3.9456 -0.45098,6.58611 -0.81836,7.76171 -0.10909,0.34911 -3.01114,3.23661 -5.01172,10.09571 -4.02477,13.79923 -4.50133,28.13794 -6.45312,39.52344 -1.40675,8.20603 -2.9172,16.27492 -4.81836,24.11718 -0.90432,3.73034 -3.9111,9.08028 -5.1211,16.94532 -1.82377,11.85455 -1.46995,22.87208 -2.53711,32.65429 -1.23256,11.29851 -3.87811,23.24226 -4.97851,36.17188 -0.76971,9.04404 0.44062,16.55517 -0.008,22.38476 -0.84338,10.96405 -7.87913,64.92144 -9.8418,78.66016 -1.48077,10.36533 -3.67884,21.1189 -4.99024,32.48437 -3.07138,26.61863 -2.46132,31.70552 -2.5625,34.87696 -0.10117,3.17144 -0.90092,8.10478 -7.20898,38.59375 -1.94695,9.41022 -4.88942,19.10764 -7.36719,29.43164 -2.57492,10.72887 -5.14727,21.53232 -7.48828,32.45703 -2.73937,12.78372 -4.57171,25.23076 -7.38086,36.93555 -1.8389,7.6621 -4.7037,15.62624 -7.28906,24.24414 -7.60893,25.36308 -6.51092,22.62973 -14.75391,46.72461 -3.79308,11.0875 -9.68189,28.09735 -14.57031,39.46679 -1.67308,-5.39557 -3.23051,-10.47011 -4.19141,-12.84765 -0.63858,-1.58007 -0.0763,-2.67082 -3.9082,-5.85352 -0.7217,-0.59944 -1.99751,-1.11377 -3.40234,-1.51758 -0.7624,-1.15084 -1.53922,-2.23469 -2.60938,-4.375 -0.26329,-0.52659 -1.05901,-3.38788 -1.49609,-6.64648 -0.43708,-3.2586 -0.68657,-6.86514 -1.31836,-10.44531 -0.72842,-4.12775 -1.69487,-7.74122 -2.44531,-11.04883 -0.35117,-3.29933 -0.59428,-6.9747 -1.24219,-11.07813 -0.74178,-4.69787 -1.77799,-8.92902 -2.55078,-12.79297 l -0.1211,-0.60937 -0.19726,-0.5918 c -1.11277,-3.33833 -1.98942,-5.32962 -2.13672,-6.11523 -0.50296,-2.68247 -0.42055,-6.73097 -1.16797,-11.96289 -0.72464,-5.07254 -1.75822,-9.7112 -2.53906,-14.00586 -0.82611,-4.54356 -1.6524,-9.08727 -2.47852,-13.63086 -1.91327,-10.52301 -6.55577,-36.02126 -7.375,-41.75586 -1.45666,-10.19662 -1.50852,-11.35063 -1.9082,-14.82617 0.0539,-0.12379 0.18564,-0.31133 0.20898,-0.39258 0.22066,-0.768 0.2792,-1.22701 0.32227,-1.58789 0.0861,-0.72177 0.0727,-1.04529 0.0703,-1.3125 -0.009,-1.06885 -0.0679,-1.17159 -0.10742,-1.49805 -0.0791,-0.65292 -0.18161,-1.33328 -0.3457,-2.38281 -0.65638,-4.19811 -2.26582,-13.7509 -5.7168,-34.02539 -3.05001,-17.91879 -4.10639,-22.22449 -4.69336,-24.82617 -0.58697,-2.60169 -0.82077,-3.8785 -2.68359,-18.16016 -1.72718,-13.24168 -3.50589,-26.3759 -4.93164,-39.44531 -0.95482,-8.75256 -0.92941,-18.49819 -2.53516,-28.93555 -1.32005,-8.58031 -4.22156,-14.925 -4.95117,-19.78906 -1.33826,-8.92177 -1.45885,-18.71921 -2.4082,-29.16211 -1.27266,-13.99916 -4.28104,-40.58003 -4.92969,-52.9043 -0.28881,-5.48741 0.0137,-11.51632 0.0137,-18.0625 v -44.60937 -2.47852 -2.47851 -1.23829 h -20 v 1.23829 2.47851 2.47852 5.53515 c -0.13547,1.12905 -0.81609,3.368 -1.18945,7.10157 -0.3058,3.05794 -0.23364,4.58303 -0.0762,4.64453 -0.35046,0.96652 -1.7299,3.57938 -2.375,8.74023 -0.71191,5.69519 0.0587,9.69182 -0.0606,11.83789 -0.3114,5.60505 -2.41939,18.83222 -3.55078,24.67774 -1.37741,7.11655 -3.91695,15.03871 -5.0625,24.20312 -0.73793,5.90344 -1.14412,10.02531 -1.31446,13.08203 -0.0852,1.52836 -0.11829,2.77729 -0.0644,4.03125 0.0489,1.14008 -0.014,2.21832 0.89258,4.4961 -1.0219,4.36047 -1.71642,7.3319 -4.28125,18.23242 -1.08311,4.60318 -3.69414,10.33437 -5.06055,17.84961 -1.87913,10.33521 -3.12191,17.54641 -3.90234,22.49414 -0.78043,4.94773 -1.22028,6.52293 -1.14258,9.95508 0.01,0.42902 0.0149,0.91652 0.17969,1.82422 0.0284,0.15637 0.10211,0.46417 0.12109,0.66015 -1.03256,4.63982 -0.84435,3.80644 -2.61523,11.77539 -2.34469,10.55111 -4.87783,21.14334 -7.34571,31.83008 -1.54723,5.38775 -3.54889,11.19047 -5.03125,17.67578 -2.18569,9.56242 -2.89709,18.31709 -4.86718,25.66016 -2.04329,7.61589 -5.25843,15.45971 -8.39063,23.89258 -6.64717,17.89622 -11.91099,29.20764 -21.6914,46.99023 -3.3394,6.07163 -7.87947,12.29065 -12.20508,19.5 -3.80871,6.34786 -6.55114,12.28473 -9.65821,16.94531 -1.51594,2.27393 -30.69176,40.2288 -31.52343,41.20899 -4.98892,5.87979 -11.12169,11.63888 -17.16797,18.38281 -12.95878,14.454 -14.9478,17.67759 -26.25977,31.25195 -2.97351,3.56822 -5.17807,6.17948 -7.38281,8.72852 -0.2453,-0.41835 -0.47911,-0.66115 -0.72852,-1 0.098,-1.00805 0.0777,-2.5702 -0.52734,-4.99024 v -0.002 c -0.27262,-1.09042 -0.67279,-1.93981 -1.0918,-2.71484 -0.033,-0.21397 0.003,-0.30526 -0.043,-0.53711 -0.637,-3.18508 -1.45752,-4.60134 -1.42968,-4.50391 -0.43284,-1.51495 -0.79575,-2.9045 -1.04883,-4.16992 -0.49385,-2.46923 -0.90924,-4.62365 -1.09375,-6.46875 0.0983,0.98338 0.82114,-1.09543 -0.14453,-5.92383 -0.88307,-4.41536 -2.32225,-7.03978 -2.69141,-8.29492 -3.1038,-10.55295 -3.30815,-11.52961 -3.36914,-11.93164 -0.061,-0.40203 -0.32085,-2.86348 -2.71875,-12.45508 -1.7079,-6.83161 -3.77958,-12.7631 -4.85156,-18.12305 -1.0014,-5.00695 -1.1766,-11.23119 -2.43555,-18.36523 -2.12644,-12.04983 -7.22611,-33.60702 -10.04297,-45.22656 -1.67772,-6.9206 -3.56302,-13.38962 -4.90234,-19.58399 -1.77556,-8.21195 -3.08185,-16.92214 -4.93555,-25.92578 -1.18953,-5.77771 -2.62716,-11.14787 -3.74414,-16.23633 -2.48152,-11.30474 -4.58879,-23.03394 -7.48828,-34.92187 -1.55026,-6.35606 -3.69573,-11.72315 -5.05664,-16.48633 -0.32874,-1.15058 -3.20077,-11.94457 -5.82617,-21.89258 -1.3127,-4.974 -2.60045,-9.86444 -3.57422,-13.56836 -0.97377,-3.70392 -1.80081,-6.89661 -1.66406,-6.34961 -1.66995,-6.67982 -3.07939,-13.78712 -4.97657,-21.13867 -1.65596,-6.41687 -3.67048,-12.05117 -4.91992,-17.20508 -1.72751,-7.12597 -2.81221,-15.14681 -4.98633,-23.66211 -5.47412,-21.44034 -7.22544,-27.29536 -8.69531,-31.46484 -1.46987,-4.16948 -2.17697,-5.36451 -6.24805,-19.61328 -2.59295,-9.07531 -5.17037,-18.00595 -7.33593,-26.88477 -1.80015,-7.38061 -3.19093,-15.17938 -4.88672,-23.23437 -1.6178,-7.68452 -3.08441,-15.65981 -5.00977,-23.78906 -1.97783,-8.35084 -4.40567,-16.12315 -6.20703,-23.58594 -0.77461,-3.20907 -1.19944,-7.49302 -2.52344,-12.56836 -1.61812,-6.20279 -3.69522,-11.48992 -4.98437,-16.2168 -0.92873,-3.40536 -1.70094,-6.79936 -2.26172,-10.16406 -0.30365,-1.82188 0.3035,-6.16499 -1.50977,-12.33008 -2.03942,-6.93404 -4.91155,-9.75944 -4.95703,-9.91406 -0.20345,-0.69174 -0.80325,-5.84469 -0.88476,-10.63086 -0.0815,-4.78617 0.0527,-9.55321 0.0527,-12.57031 z m 567.9336,14.76172 c 0.31543,0.27361 0.61595,0.52295 0.8125,0.73437 0.27915,0.30028 0.47091,0.54412 0.64062,0.76953 -0.17723,-0.26475 -0.0939,-0.29451 -0.3418,-0.60547 -0.21376,-0.26817 -0.78071,-0.59147 -1.11132,-0.89843 z m 2.7207,3.74804 c 0.0101,0.036 0.11442,0.24309 0.125,0.27149 0.10396,0.2791 0.0372,0.0966 -0.0547,-0.14649 -0.008,-0.0204 -0.0622,-0.10291 -0.0703,-0.125 z M 540.40625,453.07422 c -0.16471,0.37545 -0.43433,0.98273 -0.30664,0.75586 0.0552,-0.0981 5.2e-4,-0.31714 0.30664,-0.75586 z M 364.08789,814.95703 c -0.18674,-0.11779 0.46882,0.0993 1.31836,0.9375 -0.52854,-0.36328 -1.21276,-0.87088 -1.31836,-0.9375 z m 2.41797,8.45117 c -0.25302,-0.18543 -0.0589,-0.12567 0.33398,0.25586 -0.0779,-0.0517 -0.2857,-0.22047 -0.33398,-0.25586 z m 1.24414,3.89844 c -0.2068,-0.12825 0.41758,0.0354 1.25391,0.82227 0.005,0.0326 0.0284,0.0794 0.0332,0.11132 -0.49057,-0.32906 -1.17878,-0.86641 -1.28711,-0.93359 z m 254.63281,7.00391 c -0.0479,0.0683 -0.17591,0.21178 -0.21679,0.26367 -0.49866,0.63294 -0.38536,0.34021 0.21679,-0.26367 z m -268.0332,4.97461 c 0.0779,0.0517 0.2857,0.22047 0.33398,0.25586 0.25304,0.18543 0.0589,0.12568 -0.33398,-0.25586 z m 0.10742,4.64257 c -0.0189,0.10304 -0.0759,0.73611 -0.14258,1.12696 0.0286,-0.88762 0.18263,-1.34502 0.14258,-1.12696 z m 267.48633,2.01758 c -0.083,-0.2534 0.28999,-0.0681 0.4375,0.29688 0.008,0.0209 0.0634,0.19838 0.0723,0.2207 -0.0707,-0.10231 -0.49134,-0.46131 -0.50976,-0.51758 z m -246.51758,5.74024 c -9e-4,0.0116 0.007,0.0452 0.006,0.0566 -0.009,0.048 -0.0118,0.0896 -0.0215,0.13867 0.006,-0.053 0.009,-0.13641 0.0156,-0.19531 z m -19.64062,0.89257 c 0.10798,0.46291 0.23877,0.99805 0.23046,0.96875 -0.007,-0.0253 -0.13518,-0.32096 -0.23046,-0.96875 z m 18.89257,1.26954 c -0.0346,0.0657 -0.076,0.13472 -0.26562,0.29296 0.10434,-0.11609 0.1862,-0.20688 0.26562,-0.29296 z m -16.32617,0.67382 c 0.23348,0.16223 0.60876,0.46299 0.66992,0.50782 0.1247,0.0914 -0.17922,-0.0398 -0.66992,-0.50782 z m 274.75977,21.8125 c -0.13038,0.236 -0.2382,0.54682 -0.36328,0.83008 0.0376,-0.0955 0.0109,-0.17399 0.0527,-0.26953 0.12142,-0.27705 0.18755,-0.31346 0.31055,-0.56055 z m 21.1289,4.20118 c 0.0802,0.029 0.0642,0.81092 0.0723,1.5957 -0.0585,-0.37459 -0.0636,-1.12275 -0.10156,-1.29883 -0.0451,-0.20877 -0.0193,-0.31443 0.0293,-0.29687 z"
         id="path424" />
    </g>
  </g>
</svg>
