<?xml version="1.0" encoding="UTF-8" standalone="no"?>
<!-- Created with Inkscape (http://www.inkscape.org/) -->

<svg
   width="1000"
   height="1000"
   viewBox="0 0 1000 1000"
   version="1.1"
   id="svg1"
   xmlns:xlink="http://www.w3.org/1999/xlink"
   xmlns="http://www.w3.org/2000/svg"
   xmlns:svg="http://www.w3.org/2000/svg">
  <defs
     id="defs1">
    <pattern
       xlink:href="#pattern359"
       preserveAspectRatio="xMidYMid"
       id="pattern372"
       patternTransform="matrix(0.5,0,0,0.5,147.15462,1548.2922)" />
    <pattern
       xlink:href="#pattern357"
       preserveAspectRatio="xMidYMid"
       id="pattern371"
       patternTransform="matrix(0.5,0,0,0.5,221.32076,1552.4298)" />
    <pattern
       xlink:href="#pattern358"
       preserveAspectRatio="xMidYMid"
       id="pattern370"
       patternTransform="matrix(0.5,0,0,0.5,230.96346,1527.8214)" />
    <pattern
       xlink:href="#pattern355"
       preserveAspectRatio="xMidYMid"
       id="pattern369"
       patternTransform="matrix(0.5,0,0,0.5,287.08178,1553.6581)" />
    <pattern
       xlink:href="#pattern354"
       preserveAspectRatio="xMidYMid"
       id="pattern368"
       patternTransform="matrix(0.5,0,0,0.5,230.97274,1529.1717)" />
    <pattern
       xlink:href="#pattern342"
       preserveAspectRatio="xMidYMid"
       id="pattern360"
       patternTransform="matrix(0.5,0,0,0.5,210.45332,1525.5392)" />
    <pattern
       xlink:href="#pattern342"
       preserveAspectRatio="xMidYMid"
       id="pattern359"
       patternTransform="matrix(0.5,0,0,0.5,152.11125,1550.7705)" />
    <pattern
       xlink:href="#pattern342"
       preserveAspectRatio="xMidYMid"
       id="pattern358"
       patternTransform="matrix(0.5,0,0,0.5,202.11125,1533.2444)" />
    <pattern
       xlink:href="#pattern342"
       preserveAspectRatio="xMidYMid"
       id="pattern357"
       patternTransform="matrix(0.5,0,0,0.5,211.4075,1546.234)" />
    <pattern
       xlink:href="#pattern342"
       preserveAspectRatio="xMidYMid"
       id="pattern356"
       patternTransform="matrix(0.5,0,0,0.5,232.14929,1573.2544)" />
    <pattern
       xlink:href="#pattern342"
       preserveAspectRatio="xMidYMid"
       id="pattern355"
       patternTransform="matrix(0.5,0,0,0.5,275,1552.7287)" />
    <pattern
       xlink:href="#pattern342"
       preserveAspectRatio="xMidYMid"
       id="pattern354"
       patternTransform="matrix(0.5,0,0,0.5,235,1529.7913)" />
    <pattern
       xlink:href="#shading24"
       preserveAspectRatio="xMidYMid"
       id="pattern342"
       patternTransform="matrix(0.5,0,0,0.5,213.95332,1537.5392)"
       x="0"
       y="0" />
    <pattern
       patternUnits="userSpaceOnUse"
       width="338.5925"
       height="42.989567"
       patternTransform="translate(213.95332,1537.5392) scale(0.5)"
       preserveAspectRatio="xMidYMid"
       id="shading24"
       style="fill:#000000">
      <path
         style="fill-rule:nonzero;stroke:none;stroke-width:0.1;stroke-linecap:square;paint-order:markers fill stroke;stop-color:#000000"
         d="m 1806.4991,-758.06464 v 18.86792 c 55.9187,0 121.0493,0.59523 193.5686,3.15628 72.9408,2.57593 146.0589,6.87694 222.9288,13.47675 119.09,10.22471 223.0762,23.76065 340.6056,39.2177 117.5025,15.4535 222.0471,29.0563 341.8507,39.3312 77.366,6.63525 151.0001,10.96128 224.4674,13.55245 73.0344,2.5759 138.631,3.17493 194.9247,3.17493 -55.9642,0 -122.2215,-1.36594 -194.8324,-5.25394 -73.2143,-3.92032 -146.9676,-10.0663 -223.8166,-18.88656 -118.8791,-13.6442 -223.3242,-31.02113 -339.8009,-50.57815 -116.4705,-19.55598 -221.1862,-36.99475 -340.3724,-50.69165 -77.0605,-8.8558 -150.9942,-15.0266 -224.3694,-18.96225 -72.7637,-3.90286 -139.1256,-5.27261 -195.1541,-5.27261 z m 0,37.81515 v 18.86793 c 55.9187,0 121.0493,0.59523 193.5686,3.15627 72.9408,2.57593 146.0589,6.87694 222.9288,13.47676 119.09,10.22471 223.0762,23.76065 340.6056,39.2177 117.5025,15.4535 222.0471,29.0563 341.8507,39.33119 77.366,6.63526 151.0001,10.96128 224.4674,13.55245 73.0344,2.5759 138.631,3.17493 194.9247,3.17493 -55.9642,0 -122.2215,-1.36594 -194.8324,-5.25394 -73.2143,-3.92031 -146.9676,-10.0663 -223.8166,-18.88656 -118.8791,-13.6442 -223.3242,-31.02112 -339.8009,-50.57815 -116.4705,-19.55598 -221.1862,-36.99475 -340.3724,-50.69165 -77.0605,-8.8558 -150.9942,-15.02659 -224.3694,-18.96225 -72.7637,-3.90286 -139.1256,-5.2726 -195.1541,-5.2726 z m 0,37.81516 v 18.86792 c 55.9187,0 121.0493,0.59523 193.5686,3.15628 72.9408,2.57593 146.0589,6.87694 222.9288,13.47675 119.09,10.22471 223.0762,23.76065 340.6056,39.2177 117.5025,15.4535 222.0471,29.0563 341.8507,39.3312 77.366,6.63525 151.0001,10.96128 224.4674,13.55245 73.0344,2.5759 138.631,3.17493 194.9247,3.17493 -55.9642,0 -122.2215,-1.36594 -194.8324,-5.25394 -73.2143,-3.92032 -146.9676,-10.0663 -223.8166,-18.88656 -118.8791,-13.6442 -223.3242,-31.02113 -339.8009,-50.57815 -116.4705,-19.55598 -221.1862,-36.99475 -340.3724,-50.69165 -77.0605,-8.8558 -150.9942,-15.0266 -224.3694,-18.96225 -72.7637,-3.90286 -139.1256,-5.27261 -195.1541,-5.27261 z m 0,37.81515 v 18.86793 c 55.9187,0 121.0493,0.59523 193.5686,3.15627 72.9408,2.57593 146.0589,6.87694 222.9288,13.47676 119.09,10.22471 223.0762,23.76065 340.6056,39.2177 117.5025,15.4535 222.0471,29.0563 341.8507,39.33119 77.366,6.63526 151.0001,10.96128 224.4674,13.55245 73.0344,2.5759 138.631,3.17494 194.9247,3.17494 -55.9642,0 -122.2215,-1.36595 -194.8324,-5.25395 -73.2143,-3.92031 -146.9676,-10.0663 -223.8166,-18.88656 -118.8791,-13.6442 -223.3242,-31.02112 -339.8009,-50.57815 -116.4705,-19.55598 -221.1862,-36.99475 -340.3724,-50.69165 -77.0605,-8.8558 -150.9942,-15.02659 -224.3694,-18.96225 -72.7637,-3.90286 -139.1256,-5.2726 -195.1541,-5.2726 z m 0,37.81516 v 18.86792 c 55.9187,0 121.0493,0.59523 193.5686,3.15628 72.9408,2.57593 146.0589,6.87694 222.9288,13.47675 119.09,10.22471 223.0762,23.76065 340.6056,39.2177 117.5025,15.4535 222.0471,29.0563 341.8507,39.3312 77.366,6.63525 151.0001,10.96128 224.4674,13.55245 73.0344,2.5759 138.631,3.17493 194.9247,3.17493 -55.9642,0 -122.2215,-1.36594 -194.8324,-5.25394 -73.2143,-3.92032 -146.9676,-10.0663 -223.8166,-18.88656 -118.8791,-13.6442 -223.3242,-31.02113 -339.8009,-50.57815 -116.4705,-19.55598 -221.1862,-36.99475 -340.3724,-50.69165 -77.0605,-8.8558 -150.9942,-15.0266 -224.3694,-18.96225 -72.7637,-3.90286 -139.1256,-5.27261 -195.1541,-5.27261 z m 0,37.81515 v 18.86793 c 55.9187,0 121.0493,0.59523 193.5686,3.15627 72.9408,2.57593 146.0589,6.87694 222.9288,13.47676 119.09,10.22471 223.0762,23.76065 340.6056,39.2177 117.5025,15.4535 222.0471,29.0563 341.8507,39.33119 77.366,6.63526 151.0001,10.96128 224.4674,13.55245 73.0344,2.5759 138.631,3.17494 194.9247,3.17494 -55.9642,0 -122.2215,-1.36595 -194.8324,-5.25395 -73.2143,-3.92031 -146.9676,-10.0663 -223.8166,-18.88656 -118.8791,-13.6442 -223.3242,-31.02112 -339.8009,-50.57815 -116.4705,-19.55598 -221.1862,-36.99475 -340.3724,-50.69165 -77.0605,-8.8558 -150.9942,-15.02659 -224.3694,-18.96225 -72.7637,-3.90286 -139.1256,-5.2726 -195.1541,-5.2726 z m 0,37.81516 v 18.86792 c 55.9187,0 121.0493,0.59523 193.5686,3.15628 72.9408,2.57593 146.0589,6.87694 222.9288,13.47675 119.09,10.22471 223.0762,23.76065 340.6056,39.2177 117.5025,15.4535 222.0471,29.0563 341.8507,39.3312 77.366,6.63525 151.0001,10.96128 224.4674,13.55245 73.0344,2.5759 138.631,3.17493 194.9247,3.17493 -55.9642,0 -122.2215,-1.36594 -194.8324,-5.25394 -73.2143,-3.92032 -146.9676,-10.0663 -223.8166,-18.88656 -118.8791,-13.6442 -223.3242,-31.02113 -339.8009,-50.57815 -116.4705,-19.55598 -221.1862,-36.99475 -340.3724,-50.69165 -77.0605,-8.8558 -150.9942,-15.0266 -224.3694,-18.96225 -72.7637,-3.90286 -139.1256,-5.27261 -195.1541,-5.27261 z"
         id="use26"
         transform="matrix(0.22300099,0,0,0.37823052,-402.85121,237.25945)" />
    </pattern>
    <clipPath
       clipPathUnits="userSpaceOnUse"
       id="clipPath54">
      <path
         id="path336"
         style="stroke-width:0.0999999;stroke-linecap:square;paint-order:markers fill stroke;stop-color:#000000"
         d="m 1691.1994,-792.32001 h 1634.8919 v 92.82806 H 1691.1994 Z" />
    </clipPath>
    <clipPath
       clipPathUnits="userSpaceOnUse"
       id="clipPath33">
      <rect
         style="fill:#000000;stroke:none;stroke-width:0.999995;stroke-linecap:butt;stroke-linejoin:bevel;paint-order:stroke markers fill;stop-color:#000000"
         id="rect33"
         width="46.19186"
         height="80.006783"
         x="74.999985"
         y="399.99661" />
    </clipPath>
    <clipPath
       clipPathUnits="userSpaceOnUse"
       id="clipPath27">
      <rect
         style="fill:none;stroke:#000000;stroke-width:0.999999;stroke-linecap:butt;stroke-linejoin:bevel;paint-order:stroke markers fill;stop-color:#000000"
         id="rect28-6"
         width="46.160622"
         height="39.922417"
         x="86.574379"
         y="420.06253" />
    </clipPath>
    <clipPath
       clipPathUnits="userSpaceOnUse"
       id="clipPath25">
      <rect
         style="fill:#ff0000;stroke:none;stroke-width:3;stroke-linecap:square;stroke-linejoin:miter;paint-order:stroke markers fill;stop-color:#000000"
         id="rect25-8"
         width="78"
         height="45.033199"
         x="763.61322"
         y="452.82422" />
    </clipPath>
    <clipPath
       clipPathUnits="userSpaceOnUse"
       id="clipPath15">
      <rect
         style="fill:none;stroke:#000000;stroke-linecap:butt;stroke-linejoin:bevel;paint-order:stroke markers fill;stop-color:#000000"
         id="rect15-7"
         width="45.034248"
         height="38.955639"
         x="262.48285"
         y="121.00073" />
    </clipPath>
    <linearGradient
       id="swatch75">
      <stop
         style="stop-color:#000000;stop-opacity:1;"
         offset="0"
         id="stop75" />
    </linearGradient>
  </defs>
  <g
     id="layer51"
     style="display:inline">
    <g
       id="layer68"
       style="display:inline">
      <path
         style="baseline-shift:baseline;display:inline;overflow:visible;opacity:1;vector-effect:none;fill-rule:evenodd;enable-background:accumulate;stop-color:#000000;stop-opacity:1"
         d="m 297.20312,231.37891 -16.95898,10.59961 5.05664,8.09179 c 0.0403,1.05183 0.27336,3.01707 2.11719,6.33594 2.79726,5.03506 5.25458,6.70359 5.12305,6.48437 -0.23101,-0.385 0.14118,1.58905 2.10742,5.52149 2.06633,4.13267 3.2108,6.30786 4.25781,8.01367 0.5235,0.85291 1.04914,1.65368 1.86719,2.5625 0.81805,0.90883 2.03487,1.81558 2.10156,1.86328 0.13337,0.0954 -1.55882,-1.65483 -1.04688,-0.87304 0.51195,0.78178 1.81817,2.98914 4.09375,7.25585 0.81822,1.53415 1.68067,4.43636 3.51954,8.28125 3.23465,6.76337 6.5852,13.48777 10.07617,20.15235 1.47561,2.81707 2.96129,4.96675 4.00195,6.70117 3.77626,6.29376 7.56793,12.37881 11.06445,18.43945 2.42689,4.20661 4.76365,8.73825 7.31836,13.42188 4.08452,7.48828 5.60397,10.27129 6.54883,12.00195 0.0741,0.15568 0.11641,0.23984 0.14453,0.29492 0.067,0.13127 0.11293,0.21698 0.17578,0.33594 0.12571,0.23793 0.30216,0.568 0.56641,1.06055 1.05699,1.97019 3.49161,6.47954 8.66016,16.02148 2.40761,4.44481 4.83037,9.12278 7.5664,13.86524 3.72493,6.45655 7.57961,12.63657 11.23828,18.73437 2.67683,4.46136 5.27529,8.30325 7.15235,11.88672 1.76872,3.37666 3.29556,8.21981 6.23828,13.71289 4.09204,7.63847 8.57508,14.6242 12.59766,21.43164 1.30027,2.20047 2.56734,4.24027 3.70703,6.17774 2.86572,4.87173 5.71376,9.86085 8.68359,14.88671 2.67752,4.5312 5.30785,8.39705 7.20703,11.98438 0.87518,1.65311 1.77557,4.50007 3.47656,8.18555 1.33567,2.89394 2.70552,5.42472 3.85157,7.71679 1.07378,2.14757 2.23881,4.87592 3.98047,7.92383 3.63656,6.36398 7.85088,12.10213 9.19726,15.80469 -0.46903,-1.28983 -0.94866,1.33477 1.49805,6.83984 l 0.46094,1.03321 0.67773,0.90429 c 2.60223,3.46965 3.09674,3.71061 3.67187,5.14844 0.049,0.12239 0.31895,1.41555 1.24024,3.71875 0.95986,2.39969 1.5121,3.16308 1.23828,2.47852 -0.59477,-1.48691 -1.0151,1.28388 2.52344,6.00195 0.74666,0.99555 1.51444,1.71329 2.26367,2.29101 0.32866,1.29395 0.76716,2.88977 1.75,4.85547 0.0613,0.12262 0.1214,0.13796 0.18359,0.25391 v 0.11328 l 1.05469,2.11133 c 0.0324,0.0648 0.68311,1.38351 1.39649,2.66211 0.14812,1.05094 0.4168,2.20273 1.08203,3.5332 1.03272,2.06543 2.09996,3.10887 2.96875,3.82422 0.11803,0.70151 0.2249,1.42692 0.47656,2.09766 0.69123,1.84232 1.53265,3.05136 2.45508,4.28125 1.14701,1.52936 1.94223,2.39231 2.40234,2.80859 0.23345,0.40953 0.30703,0.57096 0.74024,1.29297 1.26439,2.10732 1.65741,2.50495 1.75585,2.53516 -0.17699,-0.005 0.20879,1.46057 1.5918,4.22656 0.65442,1.30886 1.26282,2.18092 1.8125,2.86328 0.0775,0.30185 0.0164,0.45731 0.125,0.7832 0.89915,2.6975 2.37535,4.08425 3.28711,4.85352 0.0733,0.79479 0.0784,1.52804 0.42969,2.58203 0.62533,1.87599 1.48735,3.10384 2.33789,4.06641 0.0837,0.33938 0.0171,0.52011 0.14062,0.89062 0.753,2.25903 1.86882,3.50233 2.78516,4.36523 0.1,0.23278 0.11507,0.41959 0.23633,0.66211 0.35567,0.71134 0.63691,1.2595 0.94922,1.82032 0.31231,0.56081 0.12453,0.81709 1.93164,2.67968 0.433,0.4463 1.07164,1.07304 2.38476,1.80469 0.30626,0.28667 0.37676,0.48553 0.78711,0.81055 1.31686,1.04299 3.88016,2.44802 7.10742,2.23047 1.82951,-0.12333 3.31485,-0.77967 4.54102,-1.5293 -0.54023,0.24781 -2.16448,0.99427 -2.16406,0.99414 4.9e-4,-1.5e-4 -4.46528,0.28704 -4.46485,0.28711 4.4e-4,7e-5 -4.58241,-2.01397 -4.58203,-2.01367 7e-5,5e-5 -0.29325,-0.33064 -0.41211,-0.46485 1.56442,0.70435 4.04186,1.41084 6.9375,0.54297 3.26431,-0.97836 5.22301,-3.46778 5.9961,-4.93164 0.45676,-0.86488 0.46276,-1.2251 0.59961,-1.74609 h 3.04882 c 0,-0.559 0.003,-0.29644 0.0195,-0.91602 0.004,-0.15489 0.13402,-0.0679 -0.0937,-1.70703 -0.057,-0.40978 -0.12385,-0.95825 -0.47071,-1.94531 -0.17342,-0.49353 -0.89029,-1.88031 -0.89062,-1.88086 -6e-5,-9e-5 -0.27667,-0.31228 -0.37891,-0.42773 -0.48188,-1.37232 -1.23644,-2.79504 -2.35351,-3.91211 -0.40605,-0.40605 -0.85039,-0.85366 -1.48047,-1.33203 -0.33537,-0.53682 -0.64151,-1.04516 -0.93555,-1.41016 -0.0776,-0.302 -0.0163,-0.45714 -0.125,-0.7832 -0.59972,-1.79915 -1.41615,-2.99192 -2.23242,-3.94532 -0.0255,-0.11341 -0.002,-0.15804 -0.0312,-0.27539 -0.68522,-2.74089 -2.36581,-5.02959 -3.6875,-6.6289 -0.10136,-0.54734 -0.0302,-0.90104 -0.24414,-1.54297 -0.83264,-2.49793 -2.12918,-3.81079 -3.0586,-4.63086 -0.24427,-0.71267 -0.49342,-1.4595 -1.20117,-2.875 -1.54676,-3.09353 -2.83393,-4.36776 -2.84765,-4.39063 0.66691,1.11154 0.47468,-0.27981 -1.81446,-3.33203 -1.04345,-1.39126 -1.70443,-2.09186 -2.18554,-2.55664 -0.063,-0.30964 -0.0119,-0.4265 -0.0996,-0.7207 -0.50052,-1.67809 -1.20743,-3.06251 -2.09571,-4.54297 -0.43379,-0.72299 -0.81411,-1.03263 -1.23047,-1.5293 -0.10139,-0.47367 -0.1553,-0.90146 -0.33593,-1.44336 -0.62919,-1.88759 -1.5449,-3.16914 -2.37696,-4.04882 -0.17479,-0.72824 -0.22922,-1.38814 -0.64453,-2.21875 -0.48884,-0.97769 -0.97359,-1.43164 -1.46484,-2.02344 -0.042,-0.1316 -0.0621,-0.21181 -0.12305,-0.42383 -0.14873,-2.23233 -0.70369,-4.59545 -1.42773,-5.73633 -0.98477,-1.55171 -1.71522,-2.22893 -2.57422,-3.08789 -0.45288,-0.45289 -0.86158,-0.73401 -1.2832,-1.0625 -0.11466,-0.27812 -0.0881,-0.20548 -0.22071,-0.53711 -0.95986,-2.39968 -1.51405,-3.16308 -1.24023,-2.47851 -0.0489,-0.12232 -0.31704,-1.4156 -1.23828,-3.71875 -1.40212,-3.50529 -3.08746,-5.70211 -4.63477,-7.64454 0.042,-0.6883 -0.29023,-2.50225 -1.44922,-5.68945 -3.01863,-8.30128 -8.15374,-14.56446 -10.62695,-18.89258 -1.00778,-1.76363 -2.05249,-4.13623 -3.45703,-6.94531 -1.33228,-2.66454 -2.59542,-5.01467 -3.58203,-7.15234 -0.93549,-2.02689 -1.89048,-5.25689 -3.95899,-9.16407 -2.60844,-4.92705 -5.4405,-9.03587 -7.66406,-12.79882 -2.86865,-4.85465 -5.71091,-9.83316 -8.66406,-14.85352 -1.30261,-2.21443 -2.5763,-4.26629 -3.72656,-6.21289 -4.26632,-7.21992 -8.58352,-13.97543 -12.18555,-20.69922 -1.77092,-3.30572 -3.28942,-8.08322 -6.15235,-13.54883 -2.59316,-4.95058 -5.43893,-9.0968 -7.71875,-12.89648 -3.77626,-6.29378 -7.56989,-12.37883 -11.0664,-18.43945 -2.43663,-4.22349 -4.78031,-8.7397 -7.30274,-13.39649 -4.81596,-8.89101 -6.90719,-12.76533 -8.04101,-14.875 -0.1208,-0.25955 -0.24115,-0.51855 -0.25,-0.53515 -0.016,-0.03 -0.0203,-0.0394 -0.0254,-0.0488 -0.0102,-0.0188 -0.0161,-0.0291 -0.0215,-0.0391 -0.009,-0.0163 -0.0185,-0.0329 -0.0293,-0.0527 2.3e-4,4.2e-4 -0.002,-0.005 -0.006,-0.0117 -3.4e-4,-6.1e-4 -0.002,-0.003 -0.002,-0.004 -0.001,-0.002 -0.008,-0.0127 -0.01,-0.0156 -0.003,-0.006 -0.0195,-0.0358 -0.0234,-0.043 -0.0612,-0.11221 -0.15036,-0.27888 -0.32226,-0.59375 -0.76062,-1.39313 -2.78074,-5.09182 -7.39258,-13.54687 -2.40193,-4.40353 -4.80697,-9.08051 -7.55274,-13.83985 -3.72493,-6.45655 -7.5796,-12.63657 -11.23828,-18.73437 -1.43766,-2.3961 -2.67603,-4.24144 -3.43555,-5.69141 -3.36603,-6.42608 -6.60867,-12.93373 -9.75,-19.50195 -0.87559,-1.8308 -1.77159,-5.04734 -3.91406,-9.06445 -2.39941,-4.4989 -3.81613,-6.97801 -5.00976,-8.80079 -0.70902,-1.08272 -1.72637,-2.1868 -2.625,-3.08789 -0.34569,-0.56502 -1.43511,-2.53818 -3.39844,-6.46484 -0.0233,-0.0466 -0.32781,-2.66939 -2.84766,-6.86914 -2.34295,-3.90494 -3.87514,-5.26885 -4.3457,-5.54297 -0.0923,-0.45325 -0.33295,-1.33185 -0.72266,-2.89062 l -0.38281,-1.53321 z m 17.30665,33.20507 c -0.23817,-0.17036 0.69303,0.5392 1.1289,1.02344 0.33012,0.36675 0.2778,0.3271 0.23633,0.26953 -0.57927,-0.57674 -1.18001,-1.16047 -1.36523,-1.29297 z m 52.1621,95.90821 c -0.3048,2.43713 -1.09968,7.30088 -1.0996,7.30078 9e-5,-1.3e-4 -14.2939,0.5291 -15.23438,0.56445 1.03037,-0.45153 14.50493,-6.97875 16.33398,-7.86523 z m 107.02149,197.11718 c -0.12469,-0.0914 0.17728,0.0398 0.66797,0.50782 -0.23287,-0.16174 -0.60691,-0.46306 -0.66797,-0.50782 z m 2.51562,4.91993 c -0.32306,-0.23589 -0.0604,-0.0923 0.42579,0.36132 -0.10916,-0.0777 -0.36172,-0.31455 -0.42579,-0.36132 z m -16.23437,3.88086 c 0.16561,0.0424 0.56423,0.20355 0.65039,0.22851 0.35311,0.10231 0.0203,0.0822 -0.65039,-0.22851 z m 18.16211,0.60937 c -0.1106,-0.084 0.0883,0.0733 0.17578,0.13086 v 0.004 c -0.0342,-0.0237 -0.1516,-0.11641 -0.17578,-0.13477 z m 0.28711,0.21484 c 0.0236,0.0221 0.004,0.002 0.0293,0.0273 -0.007,-0.005 -0.0227,-0.017 -0.0293,-0.0215 1.3e-4,-0.002 -1.3e-4,-0.004 0,-0.006 z m -17.41992,3.4668 c -0.0173,0.0942 -0.0553,0.56848 -0.0977,0.76758 0.0233,-0.7669 0.15904,-1.10179 0.0977,-0.76758 z m 0.19726,2.53125 c 0.23348,0.16223 0.60876,0.46299 0.66992,0.50781 0.12469,0.0914 -0.17921,-0.0398 -0.66992,-0.50781 z m 14.66602,23.75781 c -0.0117,0.0759 -0.0532,0.48031 -0.0899,0.66211 0.0125,-0.62502 0.12337,-0.87958 0.0899,-0.66211 z m 19.85547,2.38086 c -0.0124,0.62595 -0.12339,0.88363 -0.0899,0.66602 0.0118,-0.0763 0.053,-0.48281 0.0899,-0.66602 z m 0.43164,0.66993 c -0.27209,-0.17676 0.16062,-0.0677 0.80664,0.5625 -0.24125,-0.14015 -0.71158,-0.50075 -0.80664,-0.5625 z m -16.61719,4.55664 c -0.008,0.0578 -0.0269,0.31699 -0.043,0.41015 0.0119,-0.50956 0.0822,-0.69639 0.043,-0.41015 z m 2.52539,4.7832 c -0.0117,0.0761 -0.0531,0.48168 -0.0898,0.66406 0.0124,-0.6259 0.12339,-0.88168 0.0898,-0.66406 z m 15.23242,0.3457 c 0.39142,-0.0264 0.73532,0.0335 1.10352,0.0527 -0.88178,0.0569 -1.34327,0.0873 -2.07813,0.13476 0.32766,-0.0599 0.62862,-0.16417 0.97461,-0.1875 z m 3.71289,0.51172 c 0.26552,0.0893 0.45306,0.1784 0.69336,0.28125 0.001,0.008 0.003,0.0172 0.004,0.0254 -0.34044,-0.14968 -0.42153,-0.18541 -0.69727,-0.30664 z m 0.91016,1.52539 c -0.0124,0.62592 -0.12339,0.88166 -0.0899,0.66406 0.0117,-0.076 0.0531,-0.48169 0.0899,-0.66406 z m -11.11328,1.0332 c -0.008,0.008 -0.0136,0.0136 -0.0215,0.0215 0.007,-0.007 0.005,-0.007 0.0117,-0.0137 0.002,-0.002 0.008,-0.006 0.01,-0.008 z m -6.16211,0.36719 c -0.0165,0.0779 -0.16373,0.82298 -0.27344,1.50391 0.0289,-1.06013 0.29684,-1.61407 0.27344,-1.50391 z m 19.83594,2.65235 c -0.029,1.0601 -0.29684,1.61211 -0.27344,1.50195 0.0165,-0.0779 0.16373,-0.82146 0.27344,-1.50195 z m -19.94922,0.48828 c 0.20699,0.11854 0.64267,0.45204 0.72851,0.50781 0.25811,0.16767 -0.13434,0.0746 -0.72461,-0.4707 -0.003,-0.0142 -0.001,-0.023 -0.004,-0.0371 z m 22.32031,0.35547 c 0.0528,0.23074 0.0898,0.42227 0.12109,0.63086 -0.002,-0.16507 -0.10512,-0.44313 -0.12109,-0.63086 z m -1.1875,0.43945 c -0.005,-0.13935 0.0344,-0.008 -0.0293,0.7168 -0.005,0.0566 -0.032,0.22229 -0.0332,0.29101 -0.0274,-0.15778 0.0645,-0.95185 0.0625,-1.00781 z m 1.32422,0.44141 c 0.23433,2.07471 -0.46294,3.03744 -0.3711,2.6875 0.0653,-0.24866 0.33873,-1.03323 0.3711,-2.6875 z M 488.25,620.81836 h 16.66992 c -0.35594,0.7049 -0.84404,1.48904 -1.7168,2.45117 -1.3742,1.51494 -3.96318,2.91688 -6.22656,3.15234 -2.26338,0.23547 -3.86625,-0.31836 -4.84179,-0.74804 -1.9511,-0.85937 -2.18646,-1.38372 -2.30469,-1.50196 -0.45399,-0.45399 -0.82281,-0.98073 -1.15821,-1.51953 -0.25006,-0.7796 -0.36451,-1.34655 -0.41406,-1.70312 -0.0186,-0.13381 0.006,-0.0198 -0.008,-0.13086 z m 17.29492,5.46875 c -0.1009,0.10118 -0.1464,0.15532 -0.2832,0.28516 0.0292,-0.0301 0.10752,-0.0725 0.13476,-0.10157 0.0845,-0.0903 0.0756,-0.10063 0.14844,-0.18359 z"
         id="path427" />
      <path
         style="baseline-shift:baseline;display:inline;overflow:visible;opacity:1;vector-effect:none;fill-rule:evenodd;enable-background:accumulate;stop-color:#000000;stop-opacity:1"
         d="m 754.79883,230.79297 c -2.8431,12.79392 -3.22653,16.17308 -8.27539,29.63672 -0.84721,2.25922 -2.53389,5.10906 -4.45899,8.79883 -3.07558,5.89486 -6.7285,12.01985 -10.04297,18.84375 -4.8127,9.90851 -8.04947,16.67425 -10.15429,21.17578 -1.04694,2.23906 -1.80961,3.90527 -2.36914,5.17382 -3.38078,6.12144 -6.66157,12.04509 -17.04883,31.56055 -7.77337,14.60452 -14.78864,29.27802 -22.30078,43.36328 -5.46123,10.23982 -11.34405,20.41082 -17.21875,30.74219 -7.9942,14.05876 -25.73918,44.69465 -34.55469,59.24023 -1.10989,1.83133 -1.44492,2.36278 -2.32227,3.80469 -0.23354,0.18227 -0.57231,0.39624 -0.75,0.52539 -0.72925,0.53007 -1.06228,0.87147 -1.34765,1.15821 -1.1415,1.14692 -1.45301,1.66778 -2.11328,2.57031 -2.64109,3.61011 -7.62721,11.17953 -18.13477,27.6914 -7.46619,11.73258 -10.49014,16.64171 -12.49609,20.625 -2.20325,2.81584 -4.94056,6.40275 -9.31641,12.125 -2.86992,3.75298 -4.43732,6.98207 -5.2168,8.95313 -0.77947,1.97106 -0.81392,2.40373 -2.71093,5.38477 -0.23335,0.36667 -2.39865,2.1015 -5,6.26367 -2.34825,3.75718 -2.5695,6.85118 -2.85547,8.87695 -0.28597,2.02577 -0.69025,3.19564 -0.28125,2.27539 0.43236,-0.97282 -0.46861,0.0576 -2.7168,3.20508 -1.11551,1.56171 -1.95331,2.92216 -2.66016,3.98242 -0.57166,0.8575 -1.64581,2.21514 -2.83984,4.30469 -1.28342,2.24599 -2.07951,4.12387 -2.74023,5.44531 -0.38964,0.77927 -0.5288,1.01755 -0.66016,1.25977 -0.42016,0.46702 -0.85154,0.92402 -1.32812,1.32812 -0.8793,0.34975 -2.04438,0.87948 -3.09961,1.71485 -1.42556,1.12852 -2.28971,2.2871 -2.96289,3.29687 -0.31022,0.46533 -0.14197,0.30789 -0.34766,0.66602 -0.22973,0.13086 -0.32675,0.25067 -0.5293,0.38281 -1.30954,0.43803 -2.63267,1.12524 -3.75195,2.13867 -0.087,0.0397 -0.29535,0.10996 -0.36524,0.14453 -0.37719,0.0868 -0.57625,0.0209 -1,0.16211 -0.94496,0.31499 -1.17538,0.45906 -1.72656,0.68555 -0.74406,-0.009 -1.73545,0.0551 -3.30273,0.49023 -2.64075,0.73312 -4.07442,1.91177 -5.24414,2.78906 -0.96103,0.72077 -1.52919,1.2933 -2.07032,1.83399 -0.80206,0.19134 -1.66591,0.47358 -2.59765,0.93945 -0.1533,0.0767 -0.28097,0.25927 -0.4336,0.34961 -0.44988,0.0662 -0.71953,0.004 -1.23632,0.13281 -1.54628,0.38656 -2.65449,1.00746 -3.58985,1.66211 -0.32312,0.12955 -0.59278,0.16261 -0.93554,0.33399 -0.48609,0.24304 -0.62059,0.47724 -1.00586,0.72851 -1.42647,0.4771 -2.90418,1.21867 -4.07032,2.38477 h -0.002 c -0.79578,0.79578 -1.72434,1.82099 -2.51172,3.6582 -0.78737,1.83722 -1.20367,4.83822 -0.32812,7.46485 1.7511,5.25325 5.3302,6.20056 6.75,6.67382 0.7099,0.23664 1.21385,0.33726 1.59375,0.4043 0.095,0.0168 0.18061,0.031 0.25976,0.043 0.0198,0.003 0.0401,0.005 0.0586,0.008 0.002,3.6e-4 0.006,0.001 0.01,0.002 v 0.0547 c 0.61778,0 0.74454,0.0247 0.45117,-0.002 -0.0733,-0.007 -0.17378,-0.0167 -0.30273,-0.0332 -0.0322,-0.004 -0.0659,-0.009 -0.10156,-0.0137 -0.009,-0.001 -0.0195,-0.002 -0.0195,-0.002 0,0 0.15837,-1.10814 0.17968,-1.25781 0.92392,0.4053 2.86127,0.95511 6.74414,-0.98633 0.46605,-0.23302 0.59168,-0.45639 0.96485,-0.69726 0.5022,-0.17175 0.95903,-0.26369 1.51367,-0.54102 0.0877,-0.0438 0.12854,-0.0887 0.21289,-0.13281 0.98442,-0.0398 2.05245,-0.10408 3.43359,-0.56446 0.5621,-0.18737 1.1626,-0.70259 1.76172,-1.07226 0.25214,-0.069 0.44794,-0.0764 0.7168,-0.16602 3.10556,-1.03516 4.67782,-2.97768 5.30469,-3.75781 0.62686,-0.78013 0.69133,-0.74407 -0.15625,0.10352 0.76906,-0.76906 0.49664,-0.55159 0.72461,-0.79883 0.82581,-0.0886 1.42866,-0.0465 2.80078,-0.50391 1.48275,-0.49424 2.18788,-0.81884 2.70898,-1.07617 0.3797,-0.0871 0.58085,-0.0198 1.00781,-0.16211 1.55099,-0.51699 2.33411,-0.86987 2.83399,-1.125 1.6323,-0.43567 3.40664,-1.14492 4.79297,-2.53125 0.084,-0.084 0.12531,-0.19062 0.20508,-0.27734 0.31613,-0.12744 0.5792,-0.15875 0.91406,-0.32618 3.58766,-1.79384 5.22761,-4.71066 5.95312,-6.16601 0.70499,-0.38429 1.42821,-0.69452 2.01758,-1.16602 1.95038,-1.56029 3.71905,-3.32899 5.2793,-5.27929 2.32217,-2.90274 2.58664,-4.6772 2.375,-4.25391 0.9915,-1.98298 1.66531,-3.50511 2.21484,-4.4668 0.28363,-0.49635 1.03739,-1.51125 2.11719,-3.13086 v -0.002 c 0.94483,-1.41729 1.67941,-2.58946 2.29492,-3.45117 0.15263,-0.21368 2.60883,-1.95969 4.71875,-6.70703 1.61403,-3.63156 1.586,-6.03859 1.80664,-7.60156 0.10125,-0.71722 0.23291,-1.14584 0.29688,-1.375 0.48837,-0.53089 2.25996,-2.10359 4.6289,-5.82618 2.63531,-4.1412 3.86136,-7.31069 4.4375,-8.76757 0.57614,-1.45689 0.46069,-1.48179 2.50586,-4.15625 4.90063,-6.40851 4.80802,-6.1813 7.08594,-9.00196 0.0438,-0.033 0.16749,-0.0918 0.20898,-0.12304 0.84838,-0.63858 1.18289,-1.00691 1.52344,-1.35743 1.36219,-1.40204 2.18392,-2.52891 3.18555,-3.86523 1.00163,-1.33633 1.91544,-2.61411 2.68359,-3.81641 0.19204,-0.30057 0.37444,-0.59344 0.59961,-0.99414 0.22518,-0.4007 0.47397,-0.40666 1.0625,-2.52734 0.13615,-0.49058 0.30758,-1.22641 0.34375,-2.44336 2.02929,-3.43296 1.77457,-3.23252 6.10352,-10.03516 6.77068,-10.63964 8.42663,-12.97707 11.28125,-17.25586 0.0801,-0.0308 0.25399,-0.043 0.31054,-0.0723 1.75351,-0.90708 2.07533,-1.41206 2.4336,-1.76367 1.43307,-1.40646 1.1986,-1.39007 1.41406,-1.69922 0.21546,-0.30915 0.39831,-0.58718 0.61524,-0.92188 0.43384,-0.66939 0.98023,-1.53864 1.7246,-2.74023 1.48875,-2.40318 3.75025,-6.1093 7.11915,-11.66797 9.09659,-15.00937 26.73059,-45.46109 34.83789,-59.71875 5.82566,-10.24513 11.8007,-20.57089 17.47851,-31.2168 7.78824,-14.60292 14.80563,-29.28047 22.3086,-43.37695 9.06745,-17.03583 11.23369,-20.88432 14.70703,-27.23242 0.54848,-0.5398 0.63878,-0.90655 0.83398,-1.15039 0.35006,-0.43728 0.50813,-0.68065 0.6582,-0.90625 0.6003,-0.90243 0.92468,-1.50709 1.39844,-2.35743 0.94753,-1.70067 2.11646,-3.91454 3.1836,-5.99023 1.06713,-2.07569 1.91132,-3.72129 2.5625,-5.20703 0.16279,-0.37144 0.24639,0.0409 0.75781,-2.24024 0.0799,-0.35642 0.23684,-0.93087 0.2539,-1.90625 1.75068,-3.66079 2.90079,-6.12017 5.55274,-11.58007 2.82132,-5.8086 6.36261,-11.7759 9.7832,-18.33203 1.49277,-2.86114 3.70787,-6.36811 5.45508,-11.02735 5.34876,-14.26338 6.30076,-19.84857 9.07227,-32.32031 z m -143.54102,312.0664 c -0.0497,0.05 -0.0392,0.14002 -0.29297,0.3711 -0.0107,0.0101 0.309,-0.38724 0.29297,-0.3711 z m -58.58789,60.4629 c 1.03279,0.0348 1.56184,0.30238 1.45313,0.27929 -0.0779,-0.0165 -0.82298,-0.16373 -1.50391,-0.27344 0.0139,3.9e-4 0.037,-0.006 0.0508,-0.006 z m -1.79687,1.13085 c 1.06024,0.12222 1.46121,0.52477 1.20312,0.45704 -0.24941,-0.0655 -1.03265,-0.34011 -2.69726,-0.3711 0.54888,-0.0627 1.11441,-0.12971 1.49414,-0.0859 z m -1.72461,0.0977 c -0.17078,0.002 -0.45911,0.11011 -0.6543,0.12695 0.23934,-0.0551 0.43873,-0.095 0.6543,-0.12695 z m -3.91797,2.52539 c 0.0346,0.001 0.0122,0.006 0.0449,0.008 1e-5,2.1e-4 -0.008,0.0135 -0.008,0.0137 -0.0318,-0.005 -0.0516,-0.008 -0.0859,-0.0137 0.0109,2.9e-4 0.0382,-0.008 0.0488,-0.008 z m 0.0664,0.01 c 0.59009,0.0342 0.93407,0.14598 0.83594,0.13086 -0.0584,-0.009 -0.53896,-0.0647 -0.8457,-0.11719 8.6e-4,-0.002 0.009,-0.0118 0.01,-0.0137 z m -12.38867,6.18945 c 0.623,0.0441 0.78743,0.20091 0.48047,0.14453 -0.0943,-0.0173 -0.56847,-0.0553 -0.76758,-0.0977 0.0625,0.002 0.23179,-0.0508 0.28711,-0.0469 z m -3.36718,1.33594 c 0.46124,0.003 0.58605,0.0864 0.32617,0.0508 -0.0499,-0.007 -0.27381,-0.0327 -0.34961,-0.0469 0.005,10e-6 0.0188,-0.004 0.0234,-0.004 z m -3.59961,1.20508 c 0.13604,0.0285 0.22108,0.0314 0.30664,0.0586 -7.3e-4,10e-4 -0.003,0.003 -0.004,0.004 -0.0702,-0.0217 -0.21629,-0.0312 -0.3125,-0.0566 0.003,-0.002 0.006,-0.004 0.01,-0.006 z m 0.37109,0.0703 c 0.13362,0.046 0.58988,0.11419 0.54883,0.10547 -0.0286,-0.006 -0.43812,-0.0653 -0.55274,-0.10157 10e-4,-0.001 0.003,-0.002 0.004,-0.004 z m -3.52148,1.0039 c -0.033,0.0384 -0.0417,0.0824 -0.0742,0.1211 -0.27671,-0.0265 -0.22774,-0.0749 -0.5918,-0.082 0.24427,-0.0276 0.45536,-0.0363 0.66602,-0.0391 z m -0.91602,0.0547 c -0.16515,0.002 -0.44302,0.10511 -0.63086,0.1211 0.23065,-0.0528 0.42235,-0.0898 0.63086,-0.1211 z m 2.13477,0.0508 c 0.41666,0.15085 0.97722,0.34997 0.80468,0.30469 -0.0923,-0.0242 -0.75645,-0.0763 -0.99804,-0.13672 0.0693,-0.0621 0.12297,-0.10761 0.19336,-0.16797 z m -0.70704,1.40625 c 0.0182,0.003 0.0358,0.005 0.0547,0.008 0.0755,0.0114 0.15312,0.0247 0.23438,0.0391 0.32504,0.0574 0.70085,0.1314 1.25586,0.3164 1.11,0.37001 4.27641,1.11055 5.89843,5.97657 0.81101,2.43301 0.39981,5.19472 -0.26172,6.73828 -0.66152,1.54356 -1.34578,2.22078 -1.72851,2.60351 -0.0898,0.0898 -0.20669,0.1435 -0.30078,0.22852 -0.77262,0.0575 -1.80732,0.0947 -1.30078,0.16406 0.16129,0.0221 0.65656,0.0564 0.95703,0.0996 -0.27155,0.21965 -0.5349,0.44791 -0.82813,0.63281 -1.23193,0.42817 -2.31746,0.64176 -3.07422,0.6211 0.55184,0.0889 1.02823,0.0845 1.91407,-0.01 -1.59902,0.74234 -3.24524,1.10304 -4.2461,1.09571 -0.89183,-0.007 -0.87861,-0.0785 -1.19922,-0.1504 0.35182,-2.46998 2.61655,-18.3645 2.625,-18.36328 z m -4.93359,0.29297 c -0.18498,0.27255 -0.60785,0.75299 -0.67383,0.85156 -0.18481,0.27613 0.0316,-0.16928 0.67383,-0.85156 z m -2.38281,1.11914 c -0.16174,0.23287 -0.46306,0.60691 -0.50781,0.66797 -0.0914,0.12469 0.0398,-0.17727 0.50781,-0.66797 z m 42.88476,0.0996 c 0.0914,-0.1247 -0.0398,0.17729 -0.50781,0.66797 0.16174,-0.23286 0.46306,-0.6069 0.50781,-0.66797 z m -8.90429,3.25 c 0.0776,0.0165 0.82167,0.16568 1.49804,0.27539 -1.05688,-0.0296 -1.60803,-0.29875 -1.49804,-0.27539 z m -3.89453,2.49219 c 0.28605,0.0674 1.23542,0.21175 2.43359,0.24805 -2.28201,0.31989 -2.97384,-0.37531 -2.43359,-0.24805 z m -2.98633,1.32812 c 0.0653,0.0101 0.57096,0.0736 0.94531,0.13086 -0.71237,-0.019 -1.05267,-0.1474 -0.94531,-0.13086 z m -11.47657,5.32032 c 0.0915,-0.1248 -0.0407,0.18041 -0.50976,0.67187 0.163,-0.23443 0.46483,-0.61055 0.50976,-0.67187 z"
         id="path428" />
      <path
         style="baseline-shift:baseline;display:inline;overflow:visible;opacity:1;vector-effect:none;fill-rule:evenodd;enable-background:accumulate;stop-color:#000000;stop-opacity:1"
         d="m 510.10547,618.89453 -18.97266,6.32422 c 1.1549,3.46473 2.01396,5.39235 2.10156,5.91797 0.0471,0.28239 -0.13671,2.21668 -0.13671,5.79101 v 23.54297 12.39258 c 0,2.33775 -0.29691,5.5191 0.0351,9.50391 0.33176,3.98097 1.21909,6.18008 1.30469,6.77929 -0.14984,-1.04889 -0.0996,-0.70446 -0.0996,1.06446 v 9.91211 18.58789 8.67383 c 0,-0.48133 -0.48146,1.06531 0.19336,4.43945 0.86942,4.3471 2.75277,7.62173 4.0293,9.79883 1.09097,1.86063 1.61425,2.91803 2.0625,4.11328 -0.11689,0.14221 -0.0898,1.35032 -0.0898,3.95312 v 8.67578 c 0,0.41226 -0.28266,2.0864 0.0762,4.95704 0.4816,3.85283 1.19014,5.70606 1.19141,5.72265 0.175,2.27512 -0.0293,5.33077 -0.0293,9.14649 v 9.91211 c 0,0.70939 -0.39876,2.86881 0.10157,6.37109 0.37608,2.63262 0.84876,4.04234 1.13476,4.55078 10e-4,0.12537 0.004,0.0871 0.004,0.23047 v 2.47851 12.39258 42.13086 13.63086 3.7168 c 0,-1.28418 0.0871,-1.35434 -0.0117,-0.44727 -0.0942,0.86471 -0.24983,3.12695 0.96289,5.80274 0.0521,1.00336 0.21941,2.25982 0.80078,4.0039 0.41636,1.24912 0.95425,2.17088 1.50977,2.95508 0.485,1.21697 1.16005,2.4472 2.14453,3.43164 1.29122,1.29122 2.66527,2.48977 4.92969,3.40039 1.00818,0.40544 2.35191,0.54291 3.63476,0.59375 -2.78025,-0.43064 -6.89052,-3.21008 -7.9668,-5.37109 -0.91614,-1.8395 -0.96378,-2.65958 -0.9746,-3.2168 h 19.92773 c 0,-0.47994 0.14872,0.43048 -0.0117,-1.86523 -0.0401,-0.57393 0.12271,-1.50131 -1.03906,-3.83399 -0.44356,-0.8906 -1.46763,-1.86507 -2.63281,-2.77343 0.0114,-1.19461 -0.11454,-2.72316 -1.08985,-4.67383 -0.0613,-0.12263 -0.12139,-0.13795 -0.18359,-0.25391 v -1.46875 -13.63086 -42.13086 -12.39258 -2.47851 c 0,0.4813 0.47951,-1.06531 -0.19531,-4.43945 -0.54406,-2.72031 -0.96527,-3.93599 -1.12305,-3.9668 0.0336,-0.31261 0.0781,-0.73471 0.0781,-2.74609 v -9.91211 c 0,-2.79313 0.30256,-6.36738 -0.0293,-10.68164 -0.32181,-4.18334 -1.24624,-6.34101 -1.28711,-6.66797 0.0514,0.41148 0.0781,-0.4105 0.0781,-2.47657 v -8.67578 c 0,-0.1047 1.31713,-3.41506 -0.44336,-9.13672 -1.27077,-4.13001 -3.14697,-7.12042 -4.27539,-9.04492 -0.98352,-1.67738 -1.2482,-2.35286 -1.45703,-3.14258 -0.0101,-0.28617 -0.0195,-0.37122 -0.0195,-0.98046 v -8.67383 -18.58789 -9.91211 c 0,0.1167 0.28194,-1.20809 -0.10156,-3.89258 -0.51012,-3.57076 -1.15576,-5.39455 -1.17383,-5.61133 -0.14816,-1.77795 0.0352,-4.39875 0.0352,-7.84375 V 660.4707 636.92773 c 0,-1.3823 0.63109,-4.47328 -0.13672,-9.08007 -0.77134,-4.62805 -2.35817,-7.46122 -2.85547,-8.95313 z m 9.43555,248.50391 c -0.1248,-0.0915 0.18042,0.0407 0.67187,0.50976 -0.23443,-0.16299 -0.61056,-0.46482 -0.67187,-0.50976 z m -13.76368,11.75195 c -0.0421,0.16037 -0.14039,1.06491 -0.23828,1.73438 -0.074,-0.13301 -0.13122,-0.14326 -0.20508,-0.28907 0.0922,-1.20275 0.51503,-1.71837 0.44336,-1.44531 z m -0.41406,1.96094 c 0.0406,0.0515 0.0809,0.11487 0.12109,0.16406 -0.0246,0.26755 -0.0713,0.21721 -0.0781,0.56445 -0.0302,-0.26719 -0.0422,-0.50153 -0.043,-0.72851 z m 0.0586,0.97851 c 0.002,0.16507 0.10513,0.44312 0.1211,0.63086 -0.0528,-0.23062 -0.0898,-0.42238 -0.1211,-0.63086 z m 1.62891,0.9336 c 0.23286,0.16173 0.60691,0.46306 0.66797,0.50781 0.12469,0.0914 -0.17728,-0.0398 -0.66797,-0.50781 z m 1.33399,5.03711 c 0.25237,0.17059 0.69287,0.54586 0.77929,0.60547 0.22293,0.15374 -0.16808,-0.0315 -0.77929,-0.60547 z"
         id="path429" />
    </g>
  </g>
</svg>
