<?xml version="1.0" encoding="UTF-8" standalone="no"?>
<!-- Created with Inkscape (http://www.inkscape.org/) -->

<svg
   width="1000"
   height="1000"
   viewBox="0 0 1000 1000"
   version="1.1"
   id="svg1"
   xmlns:xlink="http://www.w3.org/1999/xlink"
   xmlns="http://www.w3.org/2000/svg"
   xmlns:svg="http://www.w3.org/2000/svg">
  <defs
     id="defs1">
    <pattern
       xlink:href="#pattern359"
       preserveAspectRatio="xMidYMid"
       id="pattern372"
       patternTransform="matrix(0.5,0,0,0.5,147.15462,1548.2922)" />
    <pattern
       xlink:href="#pattern357"
       preserveAspectRatio="xMidYMid"
       id="pattern371"
       patternTransform="matrix(0.5,0,0,0.5,221.32076,1552.4298)" />
    <pattern
       xlink:href="#pattern358"
       preserveAspectRatio="xMidYMid"
       id="pattern370"
       patternTransform="matrix(0.5,0,0,0.5,230.96346,1527.8214)" />
    <pattern
       xlink:href="#pattern355"
       preserveAspectRatio="xMidYMid"
       id="pattern369"
       patternTransform="matrix(0.5,0,0,0.5,287.08178,1553.6581)" />
    <pattern
       xlink:href="#pattern354"
       preserveAspectRatio="xMidYMid"
       id="pattern368"
       patternTransform="matrix(0.5,0,0,0.5,230.97274,1529.1717)" />
    <pattern
       xlink:href="#pattern342"
       preserveAspectRatio="xMidYMid"
       id="pattern360"
       patternTransform="matrix(0.5,0,0,0.5,210.45332,1525.5392)" />
    <pattern
       xlink:href="#pattern342"
       preserveAspectRatio="xMidYMid"
       id="pattern359"
       patternTransform="matrix(0.5,0,0,0.5,152.11125,1550.7705)" />
    <pattern
       xlink:href="#pattern342"
       preserveAspectRatio="xMidYMid"
       id="pattern358"
       patternTransform="matrix(0.5,0,0,0.5,202.11125,1533.2444)" />
    <pattern
       xlink:href="#pattern342"
       preserveAspectRatio="xMidYMid"
       id="pattern357"
       patternTransform="matrix(0.5,0,0,0.5,211.4075,1546.234)" />
    <pattern
       xlink:href="#pattern342"
       preserveAspectRatio="xMidYMid"
       id="pattern356"
       patternTransform="matrix(0.5,0,0,0.5,232.14929,1573.2544)" />
    <pattern
       xlink:href="#pattern342"
       preserveAspectRatio="xMidYMid"
       id="pattern355"
       patternTransform="matrix(0.5,0,0,0.5,275,1552.7287)" />
    <pattern
       xlink:href="#pattern342"
       preserveAspectRatio="xMidYMid"
       id="pattern354"
       patternTransform="matrix(0.5,0,0,0.5,235,1529.7913)" />
    <pattern
       xlink:href="#shading24"
       preserveAspectRatio="xMidYMid"
       id="pattern342"
       patternTransform="matrix(0.5,0,0,0.5,213.95332,1537.5392)"
       x="0"
       y="0" />
    <pattern
       patternUnits="userSpaceOnUse"
       width="338.5925"
       height="42.989567"
       patternTransform="translate(213.95332,1537.5392) scale(0.5)"
       preserveAspectRatio="xMidYMid"
       id="shading24"
       style="fill:#000000">
      <path
         style="fill-rule:nonzero;stroke:none;stroke-width:0.1;stroke-linecap:square;paint-order:markers fill stroke;stop-color:#000000"
         d="m 1806.4991,-758.06464 v 18.86792 c 55.9187,0 121.0493,0.59523 193.5686,3.15628 72.9408,2.57593 146.0589,6.87694 222.9288,13.47675 119.09,10.22471 223.0762,23.76065 340.6056,39.2177 117.5025,15.4535 222.0471,29.0563 341.8507,39.3312 77.366,6.63525 151.0001,10.96128 224.4674,13.55245 73.0344,2.5759 138.631,3.17493 194.9247,3.17493 -55.9642,0 -122.2215,-1.36594 -194.8324,-5.25394 -73.2143,-3.92032 -146.9676,-10.0663 -223.8166,-18.88656 -118.8791,-13.6442 -223.3242,-31.02113 -339.8009,-50.57815 -116.4705,-19.55598 -221.1862,-36.99475 -340.3724,-50.69165 -77.0605,-8.8558 -150.9942,-15.0266 -224.3694,-18.96225 -72.7637,-3.90286 -139.1256,-5.27261 -195.1541,-5.27261 z m 0,37.81515 v 18.86793 c 55.9187,0 121.0493,0.59523 193.5686,3.15627 72.9408,2.57593 146.0589,6.87694 222.9288,13.47676 119.09,10.22471 223.0762,23.76065 340.6056,39.2177 117.5025,15.4535 222.0471,29.0563 341.8507,39.33119 77.366,6.63526 151.0001,10.96128 224.4674,13.55245 73.0344,2.5759 138.631,3.17493 194.9247,3.17493 -55.9642,0 -122.2215,-1.36594 -194.8324,-5.25394 -73.2143,-3.92031 -146.9676,-10.0663 -223.8166,-18.88656 -118.8791,-13.6442 -223.3242,-31.02112 -339.8009,-50.57815 -116.4705,-19.55598 -221.1862,-36.99475 -340.3724,-50.69165 -77.0605,-8.8558 -150.9942,-15.02659 -224.3694,-18.96225 -72.7637,-3.90286 -139.1256,-5.2726 -195.1541,-5.2726 z m 0,37.81516 v 18.86792 c 55.9187,0 121.0493,0.59523 193.5686,3.15628 72.9408,2.57593 146.0589,6.87694 222.9288,13.47675 119.09,10.22471 223.0762,23.76065 340.6056,39.2177 117.5025,15.4535 222.0471,29.0563 341.8507,39.3312 77.366,6.63525 151.0001,10.96128 224.4674,13.55245 73.0344,2.5759 138.631,3.17493 194.9247,3.17493 -55.9642,0 -122.2215,-1.36594 -194.8324,-5.25394 -73.2143,-3.92032 -146.9676,-10.0663 -223.8166,-18.88656 -118.8791,-13.6442 -223.3242,-31.02113 -339.8009,-50.57815 -116.4705,-19.55598 -221.1862,-36.99475 -340.3724,-50.69165 -77.0605,-8.8558 -150.9942,-15.0266 -224.3694,-18.96225 -72.7637,-3.90286 -139.1256,-5.27261 -195.1541,-5.27261 z m 0,37.81515 v 18.86793 c 55.9187,0 121.0493,0.59523 193.5686,3.15627 72.9408,2.57593 146.0589,6.87694 222.9288,13.47676 119.09,10.22471 223.0762,23.76065 340.6056,39.2177 117.5025,15.4535 222.0471,29.0563 341.8507,39.33119 77.366,6.63526 151.0001,10.96128 224.4674,13.55245 73.0344,2.5759 138.631,3.17494 194.9247,3.17494 -55.9642,0 -122.2215,-1.36595 -194.8324,-5.25395 -73.2143,-3.92031 -146.9676,-10.0663 -223.8166,-18.88656 -118.8791,-13.6442 -223.3242,-31.02112 -339.8009,-50.57815 -116.4705,-19.55598 -221.1862,-36.99475 -340.3724,-50.69165 -77.0605,-8.8558 -150.9942,-15.02659 -224.3694,-18.96225 -72.7637,-3.90286 -139.1256,-5.2726 -195.1541,-5.2726 z m 0,37.81516 v 18.86792 c 55.9187,0 121.0493,0.59523 193.5686,3.15628 72.9408,2.57593 146.0589,6.87694 222.9288,13.47675 119.09,10.22471 223.0762,23.76065 340.6056,39.2177 117.5025,15.4535 222.0471,29.0563 341.8507,39.3312 77.366,6.63525 151.0001,10.96128 224.4674,13.55245 73.0344,2.5759 138.631,3.17493 194.9247,3.17493 -55.9642,0 -122.2215,-1.36594 -194.8324,-5.25394 -73.2143,-3.92032 -146.9676,-10.0663 -223.8166,-18.88656 -118.8791,-13.6442 -223.3242,-31.02113 -339.8009,-50.57815 -116.4705,-19.55598 -221.1862,-36.99475 -340.3724,-50.69165 -77.0605,-8.8558 -150.9942,-15.0266 -224.3694,-18.96225 -72.7637,-3.90286 -139.1256,-5.27261 -195.1541,-5.27261 z m 0,37.81515 v 18.86793 c 55.9187,0 121.0493,0.59523 193.5686,3.15627 72.9408,2.57593 146.0589,6.87694 222.9288,13.47676 119.09,10.22471 223.0762,23.76065 340.6056,39.2177 117.5025,15.4535 222.0471,29.0563 341.8507,39.33119 77.366,6.63526 151.0001,10.96128 224.4674,13.55245 73.0344,2.5759 138.631,3.17494 194.9247,3.17494 -55.9642,0 -122.2215,-1.36595 -194.8324,-5.25395 -73.2143,-3.92031 -146.9676,-10.0663 -223.8166,-18.88656 -118.8791,-13.6442 -223.3242,-31.02112 -339.8009,-50.57815 -116.4705,-19.55598 -221.1862,-36.99475 -340.3724,-50.69165 -77.0605,-8.8558 -150.9942,-15.02659 -224.3694,-18.96225 -72.7637,-3.90286 -139.1256,-5.2726 -195.1541,-5.2726 z m 0,37.81516 v 18.86792 c 55.9187,0 121.0493,0.59523 193.5686,3.15628 72.9408,2.57593 146.0589,6.87694 222.9288,13.47675 119.09,10.22471 223.0762,23.76065 340.6056,39.2177 117.5025,15.4535 222.0471,29.0563 341.8507,39.3312 77.366,6.63525 151.0001,10.96128 224.4674,13.55245 73.0344,2.5759 138.631,3.17493 194.9247,3.17493 -55.9642,0 -122.2215,-1.36594 -194.8324,-5.25394 -73.2143,-3.92032 -146.9676,-10.0663 -223.8166,-18.88656 -118.8791,-13.6442 -223.3242,-31.02113 -339.8009,-50.57815 -116.4705,-19.55598 -221.1862,-36.99475 -340.3724,-50.69165 -77.0605,-8.8558 -150.9942,-15.0266 -224.3694,-18.96225 -72.7637,-3.90286 -139.1256,-5.27261 -195.1541,-5.27261 z"
         id="use26"
         transform="matrix(0.22300099,0,0,0.37823052,-402.85121,237.25945)" />
    </pattern>
    <clipPath
       clipPathUnits="userSpaceOnUse"
       id="clipPath54">
      <path
         id="path336"
         style="stroke-width:0.0999999;stroke-linecap:square;paint-order:markers fill stroke;stop-color:#000000"
         d="m 1691.1994,-792.32001 h 1634.8919 v 92.82806 H 1691.1994 Z" />
    </clipPath>
    <clipPath
       clipPathUnits="userSpaceOnUse"
       id="clipPath33">
      <rect
         style="fill:#000000;stroke:none;stroke-width:0.999995;stroke-linecap:butt;stroke-linejoin:bevel;paint-order:stroke markers fill;stop-color:#000000"
         id="rect33"
         width="46.19186"
         height="80.006783"
         x="74.999985"
         y="399.99661" />
    </clipPath>
    <clipPath
       clipPathUnits="userSpaceOnUse"
       id="clipPath27">
      <rect
         style="fill:none;stroke:#000000;stroke-width:0.999999;stroke-linecap:butt;stroke-linejoin:bevel;paint-order:stroke markers fill;stop-color:#000000"
         id="rect28-6"
         width="46.160622"
         height="39.922417"
         x="86.574379"
         y="420.06253" />
    </clipPath>
    <clipPath
       clipPathUnits="userSpaceOnUse"
       id="clipPath25">
      <rect
         style="fill:#ff0000;stroke:none;stroke-width:3;stroke-linecap:square;stroke-linejoin:miter;paint-order:stroke markers fill;stop-color:#000000"
         id="rect25-8"
         width="78"
         height="45.033199"
         x="763.61322"
         y="452.82422" />
    </clipPath>
    <clipPath
       clipPathUnits="userSpaceOnUse"
       id="clipPath15">
      <rect
         style="fill:none;stroke:#000000;stroke-linecap:butt;stroke-linejoin:bevel;paint-order:stroke markers fill;stop-color:#000000"
         id="rect15-7"
         width="45.034248"
         height="38.955639"
         x="262.48285"
         y="121.00073" />
    </clipPath>
    <linearGradient
       id="swatch75">
      <stop
         style="stop-color:#000000;stop-opacity:1;"
         offset="0"
         id="stop75" />
    </linearGradient>
  </defs>
  <g
     id="layer51"
     style="display:inline">
    <g
       id="layer69"
       style="display:inline">
      <path
         style="baseline-shift:baseline;display:inline;overflow:visible;opacity:1;vector-effect:none;fill:#000000;fill-rule:evenodd;enable-background:accumulate;stop-color:#000000;stop-opacity:1"
         d="m 250.31445,227.99609 -4.64453,8.12696 c -0.0167,0.0251 -0.0361,0.0391 -0.0527,0.0644 -0.0335,0.0512 -0.042,0.10852 -0.0742,0.16016 l -5.15039,9.01367 c 4.05366,2.31638 6.19262,3.58409 7.27148,4.24023 0.37168,0.29754 0.6175,0.37648 0.99024,0.625 0.0883,0.0589 0.18291,0.12185 0.36132,0.23047 0.0892,0.0543 0.19427,0.11875 0.39063,0.22656 0.19636,0.10782 1.32168,0.60525 1.32227,0.60547 1.3e-4,5e-5 0.87566,0.13977 1.72851,0.27539 0.35083,0.12486 0.73699,0.26081 1.57422,0.59571 0.98855,0.39541 0.12369,0.0191 1.58984,0.84765 1.46615,0.82858 3.86031,1.65097 6.35743,2.15039 0.29658,0.0593 0.42019,0.0168 0.6875,0.0547 0.1925,0.10767 0.30763,0.21827 0.51953,0.32422 1.34338,0.67168 2.4972,0.95615 3.54492,1.11133 0.0805,0.0422 0.0883,0.0851 0.17187,0.12695 2.85141,1.42574 5.25305,1.16522 6.16016,1.06641 0.90711,-0.0988 0.83699,-0.01 -0.44727,-0.01 h 2.47852 c 0.41224,0 2.0864,0.28071 4.95703,-0.0781 3.05543,-0.38192 5.32783,-1.03784 6.91602,-1.35547 l 0.39648,-0.0801 0.39063,-0.11133 c 3.76298,-1.07515 6.1578,-2.02449 7.33984,-2.19336 0.99563,-0.14223 3.42559,0.0996 7.25977,0.0996 4.38082,0 7.77929,-0.28672 10.1582,-0.0488 3.00112,0.30012 7.4417,1.8596 13.63086,2.47852 5.75211,0.57521 9.47056,-0.18643 11.04297,-0.0117 2.28267,0.25363 5.62138,1.36088 10.19726,2.32422 6.99075,1.47174 27.24464,5.43325 32.73438,6.29101 9.765,1.52579 14.88775,2.32754 17.72461,2.73243 1.41843,0.20244 1.99016,0.32652 3.42187,0.38086 0.35793,0.0136 0.76798,0.0419 1.64649,-0.0527 0.60435,-0.0651 1.58356,0.11974 3.20507,-0.73437 0.92836,0.0157 1.37257,-0.0491 5.85938,0.25 8.07575,0.53839 16.73078,1.93131 26.09961,2.48242 6.49176,0.38187 11.90045,-0.22091 16.17187,0.004 9.76022,0.5137 20.0654,1.97203 31.03907,2.48243 8.04574,0.37422 15.64433,0.01 22.76953,0.01 h 78.0664 c 10.98611,0 21.6088,-0.38507 31.84766,-0.006 10.88485,0.40315 22.41544,2.05413 34.72266,2.47852 12.84343,0.44287 25.35769,0.006 37.51953,0.006 9.40425,0 18.34177,-0.41379 26.78515,-0.0117 7.3055,0.34788 15.48116,1.96218 24.70508,2.47461 7.33714,0.40763 14.14184,0.0156 20.38086,0.0156 h 19.82617 7.43555 c 3.09839,0 3.99772,0.0307 2.78711,-0.23828 1.76896,0.3931 1.47783,0.32816 2.08789,0.51563 0.47672,0.37588 0.92487,0.75113 1.2793,0.95117 2.23824,1.26325 2.87589,1.09652 3.40234,1.17773 0.52645,0.0812 0.78384,0.0921 0.98633,0.10352 0.80996,0.0457 0.81596,0.0168 0.99219,0.0137 0.70492,-0.0127 1.71751,-0.0449 4.57421,-0.0449 h 22.74415 c -0.54416,1.78614 -0.84055,3.12864 -0.9961,3.50195 -0.63289,1.51894 -2.03841,3.77921 -3.5664,7.08985 -1.15827,2.50958 -1.18099,2.73938 -1.81836,4.15429 -2.87704,2.82091 -4.33546,5.28459 -8.65039,11.95313 -3.58592,5.54186 -4.90443,10.22678 -6.375,12.67773 -3.29247,5.48745 -8.15218,11.28356 -12.46485,18.71094 -7.06496,12.16744 -9.27708,18.08729 -11.25781,22.85156 -1.98073,4.76427 -3.89035,8.9684 -11.99219,21.2832 -4.4675,6.7906 -11.00046,13.4996 -17.10156,21.94727 -5.43674,7.52779 -10.11402,15.12955 -14.85352,22.25781 -6.40006,7.98533 -13.23195,16.01305 -19.73632,24.68555 -6.44357,8.59143 -11.69055,17.23844 -17.34766,24.78125 -6.12081,8.16108 -12.86062,16.16755 -19.59961,24.49219 -12.30521,15.20054 -24.1881,29.87788 -36.90039,44.28515 -7.25372,8.22088 -14.77734,16.3719 -22.25781,24.73243 -6.66198,7.44574 -13.2552,14.90941 -19.84961,22.32812 -6.73487,7.57674 -13.07513,15.12816 -19.63282,22.0957 -5.98151,6.35537 -13.01539,12.56044 -19.83984,19.83985 -6.69971,7.14636 -11.65386,14.30485 -17.00391,19.47656 -5.05611,4.88758 -12.31009,9.33455 -19.5664,15.86523 -6.59958,5.93961 -12.19354,12.17597 -17.72852,17.71094 -5.97114,5.97114 -11.44289,11.88479 -17.06054,17.07031 -4.20789,3.88421 -9.28705,7.65485 -14.54688,12.10547 -5.78733,4.89698 -11.69095,9.83987 -17.53125,15.03125 l -0.0703,0.0625 -0.0703,0.0625 c -8.14912,7.52226 -10.57044,9.78322 -13.27539,12.30078 -0.46975,0.27994 -0.84344,0.51845 -1.07618,0.6875 -2.43298,1.76733 -5.6735,4.58159 -15.16601,12.83594 -1.1707,1.01801 -1.99676,1.81908 -4.23242,3.875 -2.23567,2.05592 -5.15475,4.73901 -8.13672,7.4668 -2.98198,2.72778 -6.02952,5.50341 -8.5,7.7207 -2.47048,2.21729 -4.80323,4.18891 -4.66602,4.08399 -1.69465,1.29591 -5.30939,2.80197 -9.77148,6.08984 -10.3995,7.66279 -15.43003,12.96534 -24.05274,20.22656 -4.65288,3.91822 -8.86018,7.673 -13.04492,10.69531 -0.93952,0.67855 -4.25777,1.71859 -8.73242,5 -4.36358,3.19996 -7.71402,6.59921 -10.72656,9.3379 -2.53731,2.30664 -3.39182,3.40658 -2.87305,3.02929 -2.11434,1.53771 -5.62092,3.1905 -9.76563,6.0918 -1.58366,1.10856 -2.24091,1.71198 -2.76562,2.21484 -0.89216,0.26327 -2.64454,1.09533 -5.18164,3.125 -1.29502,1.03602 -2.06888,2.07135 -2.65039,3.02735 -0.19703,0.11918 -0.15215,0.0344 -0.36719,0.17773 -2.66169,1.77448 -3.27511,2.99972 -2.76367,2.48828 -1.51513,1.51513 -2.13285,2.21009 -2.49024,2.56641 -1.34182,0.31623 -3.44435,0.89591 -5.49609,2.12695 -3.77477,2.26486 -4.72153,4.29966 -4.4043,3.98242 -1.66593,1.66594 -2.6299,2.75637 -3.04882,3.10547 -0.38932,0.32443 -0.48247,0.38701 -0.79297,0.64063 -0.01,-0.008 -0.26953,-0.2168 -0.26953,-0.2168 -2.3e-4,1.1e-4 -1.52452,0.93977 -1.74024,1.11133 -0.21571,0.17155 -0.31541,0.26044 -0.39648,0.33203 -0.16215,0.14317 -0.22294,0.20412 -0.27735,0.25586 -0.2176,0.20696 -0.23724,0.23018 -0.29882,0.29297 -0.0618,0.063 -0.1396,0.15268 -0.20118,0.21679 -0.007,0.008 -0.0179,0.0176 -0.0254,0.0254 -0.23552,0.24631 -1.57226,1.60666 -3.56836,3.60937 -1.7786,0.10766 -4.76417,1.05323 -6.72851,3.01758 -2.78894,2.78893 -3.14844,5.39864 -3.14844,7.6914 0,2.29277 0.35937,4.90048 3.14844,7.68946 3.47937,3.47937 8.06497,3.10466 9.26953,2.90625 1.20456,-0.19841 1.18956,0.0234 -0.96094,0.0234 h 1.24024 18.58789 29.73828 c 4.1001,0 8.87838,0.33975 14.29687,-0.0215 15.77115,-1.05141 21.31166,-2.08487 26.22461,-2.86914 4.91296,-0.78427 9.68426,-1.42942 26.77149,-2.07422 11.24188,-0.42422 23.22211,0.4316 35.89648,0.002 13.01344,-0.44112 25.39334,-1.98636 37.25195,-2.48046 6.87391,-0.28642 14.1762,0.008 21.88868,0.008 h 34.69726 32.2168 111.52539 16.10937 4.95508 c -2.15049,0 -2.16353,-0.22184 -0.95898,-0.0234 1.04821,0.17266 4.63164,0.32359 7.84375,-1.89258 0.45688,-0.15457 0.81604,-0.13458 1.30469,-0.3789 0.0842,-0.0421 0.0928,-0.0844 0.17382,-0.12696 1.04773,-0.15519 2.20155,-0.43963 3.54493,-1.11132 0.12263,-0.0613 0.13794,-0.1214 0.2539,-0.1836 h 0.23047 v -0.16797 c 1.86974,-1.06691 2.78397,-2.00403 3.2207,-2.63281 -0.44966,0.47143 -1.20887,1.11519 -2.46679,1.74414 -0.29022,0.14511 -0.47885,0.11588 -0.75391,0.22266 v -1.38086 c 0.0796,-0.10176 -0.0405,0.17682 -0.49805,0.65625 0.15923,-0.229 0.45196,-0.59176 0.49805,-0.65625 V 859.8891 h -2.47852 c 1.28426,0 1.35438,0.089 0.44727,-0.01 -0.90711,-0.0988 -3.3068,-0.36129 -6.1582,1.06445 -0.0842,0.0421 -0.0928,0.0844 -0.17383,0.12695 -1.04772,0.15518 -2.20154,0.4416 -3.54492,1.11328 -0.18058,0.0903 -0.20685,0.17941 -0.37305,0.27149 -1.13746,0.1463 -2.27485,0.46388 -3.5625,1.15039 h -1.50391 -16.10937 -111.52539 -32.2168 -34.69726 c -7.15741,0 -14.73762,-0.32286 -22.72071,0.01 -12.95801,0.53992 -25.28719,2.07426 -37.09765,2.47461 -11.26893,0.382 -23.27455,-0.47722 -35.97266,0.002 -17.48139,0.65967 -23.84042,1.45782 -29.16992,2.30859 -5.3295,0.85077 -9.14438,1.64491 -24.40235,2.66211 -3.64854,0.24324 -7.97975,-0.0215 -12.96679,-0.0215 h -19.94336 c 0.46758,-0.28289 1.00265,-0.45486 1.4082,-0.7793 2.47558,-1.98045 3.73875,-3.6393 4.46485,-4.37891 0.95763,-0.3885 2.24696,-1.00866 3.79296,-2.55469 0.67945,-0.67943 1.19156,-1.32648 1.60157,-1.92968 0.79715,-0.40481 1.56989,-0.77707 3.07031,-1.77735 4.10964,-2.73974 4.68044,-4.01556 2.66601,-2.60547 2.23994,-1.56795 5.87206,-3.25459 10.06055,-6.30078 3.35329,-2.43874 4.5064,-4.35525 4.5625,-4.40625 3.48531,-3.16847 6.38361,-6.0166 9.10156,-8.00976 0.89622,-0.65723 4.15542,-1.69309 8.61524,-4.91406 5.33356,-3.85203 9.88874,-7.9647 14.2168,-11.60938 9.31317,-7.84267 13.71843,-12.56083 23.03515,-19.42578 1.81207,-1.33521 5.55854,-2.86451 10.05469,-6.30274 1.72607,-1.31993 3.32057,-2.7935 5.87695,-5.08789 2.55638,-2.29438 5.63443,-5.09575 8.64063,-7.8457 3.0062,-2.74995 5.93669,-5.44468 8.17383,-7.50195 2.23713,-2.05727 4.50831,-4.10582 3.81835,-3.50586 5.92849,-5.1552 6.58656,-5.64452 8.69141,-7.40039 0.002,0.003 0.11914,0.16016 0.11914,0.16015 2.5e-4,-1.1e-4 2.06157,-1.30212 2.17578,-1.39843 0.11422,-0.0963 0.15405,-0.13076 0.18946,-0.16211 0.0708,-0.0627 0.0964,-0.087 0.12304,-0.11133 0.0533,-0.0486 0.0883,-0.0815 0.12891,-0.11914 0.12721,-0.11786 0.45192,-0.42891 0.66016,-0.625 0.10627,-0.0997 0.11096,-0.10438 0.25195,-0.23633 1.82702,-1.70991 6.78671,-6.32393 17.5332,-16.24414 5.52975,-4.91359 11.28944,-9.73815 17.11328,-14.66602 4.59106,-3.88473 9.91923,-7.8093 15.19336,-12.67773 6.40083,-5.90845 12.04045,-12.03068 17.63477,-17.625 6.0305,-6.03051 11.40901,-11.98433 16.96679,-16.98633 5.40244,-4.86219 12.89921,-9.40445 20.0879,-16.35351 7.27771,-7.03513 12.38084,-14.5091 17.69335,-20.17579 5.9602,-6.35754 12.98276,-12.55588 19.8125,-19.8125 7.0778,-7.52015 13.53674,-15.22246 20.01954,-22.51562 6.62326,-7.45117 13.20062,-14.89828 19.80468,-22.2793 7.34119,-8.20485 14.8986,-16.38925 22.35157,-24.83593 13.07872,-14.82257 25.14281,-29.73398 37.44726,-44.9336 6.57397,-8.12078 13.48034,-16.31037 20.05469,-25.07617 6.44357,-8.59143 11.69055,-17.23844 17.34766,-24.78125 6.0977,-8.13027 12.89779,-16.11346 19.63671,-24.53711 l 0.26954,-0.33984 0.24218,-0.35938 c 5.09521,-7.64281 9.71703,-15.15912 14.65625,-21.99805 4.92844,-6.82397 11.70752,-13.71699 17.59375,-22.66406 8.5056,-12.92851 11.53247,-19.2544 13.75391,-24.59765 2.22144,-5.34325 3.47711,-9.10783 10.08398,-20.48633 3.16554,-5.45176 7.9505,-11.17986 12.32032,-18.46289 3.28138,-5.46897 4.58399,-9.89296 6.01562,-12.10547 2.00853,-3.10409 1.77356,-2.68854 2.85938,-4.16602 0.12408,-0.0488 0.31699,-0.0706 0.40039,-0.11523 3.38639,-1.81442 2.99656,-2.43149 3.32226,-2.86914 0.32571,-0.43766 0.45867,-0.66211 0.57422,-0.85352 0.2311,-0.38282 0.33323,-0.58737 0.4375,-0.79101 0.41708,-0.81459 0.69618,-1.45585 1.04297,-2.38477 0.0828,-0.22188 0.17049,-0.54355 0.25586,-0.80078 0.32919,-0.76056 0.76459,-1.88871 2.94336,-6.60938 0.7943,-1.72098 2.37061,-4.18283 3.86914,-7.77929 1.74254,-4.18209 2.08292,-6.59162 2.19141,-6.8086 -0.51103,1.02205 1.01616,-0.19867 3.45507,-4.46679 1.69855,-2.97247 2.00871,-5.24968 2.25977,-6.25391 -0.0549,0.21966 0.21263,-0.39769 0.38672,-2.01758 0.17409,-1.61989 0.10732,-5.59385 -3.01758,-8.71875 -3.47937,-3.47937 -8.06694,-3.1027 -9.27148,-2.90429 -1.20455,0.1984 -1.1895,-0.0234 0.96093,-0.0234 h -4.95703 -32.2168 c -0.83618,0 -0.74128,0.009 -1.36132,0.0137 -2.27677,-1.03564 -4.12884,-1.47741 -7.62305,-2.25391 -4.43635,-0.98584 -6.91897,-0.23828 -7.125,-0.23828 h -7.43555 -19.82617 c -6.97864,0 -13.4113,0.3412 -19.27148,0.0156 -7.35503,-0.40861 -15.58308,-2.04051 -24.86328,-2.48242 -9.71036,-0.4624 -18.96628,-0.0117 -27.73633,-0.0117 -12.62133,0 -24.90509,0.41706 -36.83008,0.006 -10.86889,-0.37479 -22.38275,-2.02141 -34.67188,-2.47657 -11.22515,-0.41574 -22.09527,-0.008 -32.58789,-0.008 h -78.0664 c -7.74469,0 -15.03175,0.32838 -21.83985,0.0117 -9.72257,-0.4522 -19.98822,-1.90131 -30.91797,-2.47656 -6.45309,-0.33965 -11.81975,0.25267 -16.04882,0.004 -8.02781,-0.47222 -16.63102,-1.85182 -25.94336,-2.47265 -6.81541,-0.45436 -9.14476,-0.70749 -12.65039,-0.18946 -0.44109,0.0652 -0.91307,0.0819 -1.56836,0.25782 -2.72878,-0.40089 -6.9997,-1.06154 -15.88086,-2.44922 -3.0909,-0.48295 -25.37682,-4.76971 -31.70313,-6.10156 -2.87706,-0.6057 -6.82035,-2.04341 -12.10742,-2.63086 -5.81706,-0.64635 -9.61579,0.15287 -11.26172,-0.0117 -3.00113,-0.30012 -7.4417,-1.85959 -13.63086,-2.47852 -5.01915,-0.50191 -9.09432,-0.0508 -12.14843,-0.0508 -1.94857,0 -5.35892,-0.574 -10.0879,0.10156 -4.64263,0.66325 -7.76271,2.08047 -9.79101,2.68946 -2.14092,0.44601 -3.89707,0.878 -4.9043,1.0039 0.41145,-0.0514 -0.4105,-0.0762 -2.47656,-0.0762 h -0.23242 c -0.11534,-0.0619 -0.13002,-0.1226 -0.25196,-0.18359 h -0.002 c -1.37411,-0.68682 -2.54746,-0.96949 -3.61133,-1.11914 -0.46168,-0.22615 -0.85338,-0.47522 -1.41406,-0.66211 -2.25726,-0.75242 -3.72264,-0.66961 -4.68945,-0.55664 -0.29901,-0.18875 -1.44669,-0.92595 -3.4336,-1.72071 -1.30638,-0.52255 -2.27414,-0.88579 -3.15234,-1.17773 -0.41417,-0.13769 -0.70188,-0.28291 -1.13867,-0.41406 -1.38976,-0.83637 -3.18031,-1.90298 -6.85352,-4.00196 z m 9.43555,5.5918 c 0.41447,0.27635 0.69463,0.42362 1.21094,0.94922 -0.4481,-0.4093 -0.59715,-0.51187 -0.70508,-0.59375 -0.35741,-0.27114 -0.40376,-0.29083 -0.50586,-0.35547 z m 2.15234,2.01758 c 0.0203,0.0263 0.0162,0.0158 0.0371,0.043 0.0479,0.0623 0.13084,0.28276 0.1836,0.35156 -0.0663,-0.11837 -0.19029,-0.34022 -0.22071,-0.39453 z m 6.04883,0.97851 c 0.0212,-6.6e-4 0.0584,0.008 0.0801,0.008 -0.41042,0.0967 -1.10203,0.19562 -1.21094,0.21875 -0.21744,0.0462 0.20269,-0.19749 1.13086,-0.22657 z m -4.38281,2.64063 c 0.46463,1.88286 0.6008,5.13217 -1.21094,7.9043 -1.95567,2.99237 -4.65643,3.92275 -6.08594,4.25195 -0.70347,0.162 -0.90889,0.0928 -1.33984,0.11523 0.53632,-0.76189 8.26517,-11.74339 8.63672,-12.27148 z m 11.11328,0.26562 c 0.57213,0.60994 0.75513,0.99806 0.60156,0.77539 -0.0593,-0.0859 -0.43262,-0.52515 -0.60156,-0.77539 z m 3.63086,1.13868 c 0.46908,0.49146 0.60122,0.79667 0.50977,0.67187 -0.045,-0.0614 -0.34649,-0.43709 -0.50977,-0.67187 z m 129.58984,9.53711 c 0.21822,0.17456 0.71997,0.49167 1.33203,1.20703 -0.48798,-0.53127 -0.86029,-0.83639 -1.07421,-1.00977 -0.69234,-0.5611 -0.64956,-0.51065 -0.25782,-0.19726 z m -145.21289,2.95703 c 0.0447,0.0611 0.34608,0.4351 0.50782,0.66797 -0.46805,-0.4907 -0.5992,-0.79266 -0.50782,-0.66797 z m 8.28516,3.25195 c 0.22261,-0.0473 -0.23975,0.1998 -1.21484,0.21875 0.41267,-0.097 1.10559,-0.19555 1.21484,-0.21875 z m 526.00586,4.40039 c 0.0927,-0.0351 -0.34473,0.12725 -1.14063,0.53125 0.003,-0.002 0.009,-0.006 0.0117,-0.008 0.65383,-0.36038 1.00516,-0.4766 1.12891,-0.52344 z M 442.45703,750.88281 c 1.55417,2.32251 5.63368,7.71934 8.15625,11.0293 -1.00848,-0.1779 -2.14151,-0.51724 -3.48828,-1.33399 -3.36122,-2.0384 -4.89348,-6.81127 -4.79883,-8.9746 0.0177,-0.40493 0.10025,-0.38758 0.13086,-0.72071 z m -123.71484,96.67383 c -0.0342,0.0127 -0.59755,0.31314 -0.73047,0.35352 0.50149,-0.28268 0.81464,-0.38478 0.73047,-0.35352 z m -4.09571,3.96289 c -0.0416,0.16161 -0.19611,0.54786 -0.2207,0.63086 -0.097,0.32753 -0.0787,0.012 0.2207,-0.63086 z m 395.09766,9.59961 c 0.9282,0.0291 1.34828,0.27274 1.13086,0.22656 -0.10889,-0.0231 -0.80053,-0.12209 -1.21094,-0.21875 0.0217,4.4e-4 0.0589,-0.008 0.0801,-0.008 z m -4.44727,1.25391 c 0.955,0.0522 1.67692,0.17122 0.74415,0.0176 -0.0815,-0.0134 -0.40071,0.0236 -0.51172,0.01 -0.15573,-0.009 -0.0431,-0.0123 -0.2461,-0.0176 0.006,-0.004 0.007,-0.006 0.0137,-0.01 z m -2.19726,1.55468 c -0.16222,0.23348 -0.46299,0.60877 -0.50781,0.66993 -0.0914,0.12468 0.0397,-0.17921 0.50781,-0.66993 z m -402.68945,0.34375 c 1.5918,0.14543 4.16844,0.88488 6.17968,2.91993 1.16968,1.18352 1.83036,2.54431 2.26758,3.84961 h -3.82617 c -3.79211,-3.05491 -7.26745,-5.85468 -8.11719,-6.53907 0.6715,-0.22705 1.62328,-0.40156 3.4961,-0.23047 z m 398.9707,0.89649 c -0.16173,0.23285 -0.46307,0.60691 -0.50781,0.66797 -0.0914,0.12468 0.0398,-0.17729 0.50781,-0.66797 z m -406.91406,4.57226 c 0.6016,0.10704 0.62456,0.31138 0.2207,0.22266 -0.17923,-0.0394 -0.95459,-0.0494 -1.35742,-0.11133 0.29951,0.003 0.95135,-0.1443 1.13672,-0.11133 z m 414.2539,11.16993 c 0.10926,0.0232 0.80216,0.12177 1.21485,0.21875 -0.97514,-0.0189 -1.43748,-0.26604 -1.21485,-0.21875 z"
         id="path430" />
    </g>
  </g>
</svg>
