<?xml version="1.0" encoding="UTF-8" standalone="no"?>
<!-- Created with Inkscape (http://www.inkscape.org/) -->

<svg
   width="1000"
   height="1000"
   viewBox="0 0 1000 1000"
   version="1.1"
   id="svg1"
   xmlns:xlink="http://www.w3.org/1999/xlink"
   xmlns="http://www.w3.org/2000/svg"
   xmlns:svg="http://www.w3.org/2000/svg">
  <defs
     id="defs1">
    <pattern
       xlink:href="#pattern359"
       preserveAspectRatio="xMidYMid"
       id="pattern372"
       patternTransform="matrix(0.5,0,0,0.5,147.15462,1548.2922)" />
    <pattern
       xlink:href="#pattern357"
       preserveAspectRatio="xMidYMid"
       id="pattern371"
       patternTransform="matrix(0.5,0,0,0.5,221.32076,1552.4298)" />
    <pattern
       xlink:href="#pattern358"
       preserveAspectRatio="xMidYMid"
       id="pattern370"
       patternTransform="matrix(0.5,0,0,0.5,230.96346,1527.8214)" />
    <pattern
       xlink:href="#pattern355"
       preserveAspectRatio="xMidYMid"
       id="pattern369"
       patternTransform="matrix(0.5,0,0,0.5,287.08178,1553.6581)" />
    <pattern
       xlink:href="#pattern354"
       preserveAspectRatio="xMidYMid"
       id="pattern368"
       patternTransform="matrix(0.5,0,0,0.5,230.97274,1529.1717)" />
    <pattern
       xlink:href="#pattern342"
       preserveAspectRatio="xMidYMid"
       id="pattern360"
       patternTransform="matrix(0.5,0,0,0.5,210.45332,1525.5392)" />
    <pattern
       xlink:href="#pattern342"
       preserveAspectRatio="xMidYMid"
       id="pattern359"
       patternTransform="matrix(0.5,0,0,0.5,152.11125,1550.7705)" />
    <pattern
       xlink:href="#pattern342"
       preserveAspectRatio="xMidYMid"
       id="pattern358"
       patternTransform="matrix(0.5,0,0,0.5,202.11125,1533.2444)" />
    <pattern
       xlink:href="#pattern342"
       preserveAspectRatio="xMidYMid"
       id="pattern357"
       patternTransform="matrix(0.5,0,0,0.5,211.4075,1546.234)" />
    <pattern
       xlink:href="#pattern342"
       preserveAspectRatio="xMidYMid"
       id="pattern356"
       patternTransform="matrix(0.5,0,0,0.5,232.14929,1573.2544)" />
    <pattern
       xlink:href="#pattern342"
       preserveAspectRatio="xMidYMid"
       id="pattern355"
       patternTransform="matrix(0.5,0,0,0.5,275,1552.7287)" />
    <pattern
       xlink:href="#pattern342"
       preserveAspectRatio="xMidYMid"
       id="pattern354"
       patternTransform="matrix(0.5,0,0,0.5,235,1529.7913)" />
    <pattern
       xlink:href="#shading24"
       preserveAspectRatio="xMidYMid"
       id="pattern342"
       patternTransform="matrix(0.5,0,0,0.5,213.95332,1537.5392)"
       x="0"
       y="0" />
    <pattern
       patternUnits="userSpaceOnUse"
       width="338.5925"
       height="42.989567"
       patternTransform="translate(213.95332,1537.5392) scale(0.5)"
       preserveAspectRatio="xMidYMid"
       id="shading24"
       style="fill:#000000">
      <path
         style="fill-rule:nonzero;stroke:none;stroke-width:0.1;stroke-linecap:square;paint-order:markers fill stroke;stop-color:#000000"
         d="m 1806.4991,-758.06464 v 18.86792 c 55.9187,0 121.0493,0.59523 193.5686,3.15628 72.9408,2.57593 146.0589,6.87694 222.9288,13.47675 119.09,10.22471 223.0762,23.76065 340.6056,39.2177 117.5025,15.4535 222.0471,29.0563 341.8507,39.3312 77.366,6.63525 151.0001,10.96128 224.4674,13.55245 73.0344,2.5759 138.631,3.17493 194.9247,3.17493 -55.9642,0 -122.2215,-1.36594 -194.8324,-5.25394 -73.2143,-3.92032 -146.9676,-10.0663 -223.8166,-18.88656 -118.8791,-13.6442 -223.3242,-31.02113 -339.8009,-50.57815 -116.4705,-19.55598 -221.1862,-36.99475 -340.3724,-50.69165 -77.0605,-8.8558 -150.9942,-15.0266 -224.3694,-18.96225 -72.7637,-3.90286 -139.1256,-5.27261 -195.1541,-5.27261 z m 0,37.81515 v 18.86793 c 55.9187,0 121.0493,0.59523 193.5686,3.15627 72.9408,2.57593 146.0589,6.87694 222.9288,13.47676 119.09,10.22471 223.0762,23.76065 340.6056,39.2177 117.5025,15.4535 222.0471,29.0563 341.8507,39.33119 77.366,6.63526 151.0001,10.96128 224.4674,13.55245 73.0344,2.5759 138.631,3.17493 194.9247,3.17493 -55.9642,0 -122.2215,-1.36594 -194.8324,-5.25394 -73.2143,-3.92031 -146.9676,-10.0663 -223.8166,-18.88656 -118.8791,-13.6442 -223.3242,-31.02112 -339.8009,-50.57815 -116.4705,-19.55598 -221.1862,-36.99475 -340.3724,-50.69165 -77.0605,-8.8558 -150.9942,-15.02659 -224.3694,-18.96225 -72.7637,-3.90286 -139.1256,-5.2726 -195.1541,-5.2726 z m 0,37.81516 v 18.86792 c 55.9187,0 121.0493,0.59523 193.5686,3.15628 72.9408,2.57593 146.0589,6.87694 222.9288,13.47675 119.09,10.22471 223.0762,23.76065 340.6056,39.2177 117.5025,15.4535 222.0471,29.0563 341.8507,39.3312 77.366,6.63525 151.0001,10.96128 224.4674,13.55245 73.0344,2.5759 138.631,3.17493 194.9247,3.17493 -55.9642,0 -122.2215,-1.36594 -194.8324,-5.25394 -73.2143,-3.92032 -146.9676,-10.0663 -223.8166,-18.88656 -118.8791,-13.6442 -223.3242,-31.02113 -339.8009,-50.57815 -116.4705,-19.55598 -221.1862,-36.99475 -340.3724,-50.69165 -77.0605,-8.8558 -150.9942,-15.0266 -224.3694,-18.96225 -72.7637,-3.90286 -139.1256,-5.27261 -195.1541,-5.27261 z m 0,37.81515 v 18.86793 c 55.9187,0 121.0493,0.59523 193.5686,3.15627 72.9408,2.57593 146.0589,6.87694 222.9288,13.47676 119.09,10.22471 223.0762,23.76065 340.6056,39.2177 117.5025,15.4535 222.0471,29.0563 341.8507,39.33119 77.366,6.63526 151.0001,10.96128 224.4674,13.55245 73.0344,2.5759 138.631,3.17494 194.9247,3.17494 -55.9642,0 -122.2215,-1.36595 -194.8324,-5.25395 -73.2143,-3.92031 -146.9676,-10.0663 -223.8166,-18.88656 -118.8791,-13.6442 -223.3242,-31.02112 -339.8009,-50.57815 -116.4705,-19.55598 -221.1862,-36.99475 -340.3724,-50.69165 -77.0605,-8.8558 -150.9942,-15.02659 -224.3694,-18.96225 -72.7637,-3.90286 -139.1256,-5.2726 -195.1541,-5.2726 z m 0,37.81516 v 18.86792 c 55.9187,0 121.0493,0.59523 193.5686,3.15628 72.9408,2.57593 146.0589,6.87694 222.9288,13.47675 119.09,10.22471 223.0762,23.76065 340.6056,39.2177 117.5025,15.4535 222.0471,29.0563 341.8507,39.3312 77.366,6.63525 151.0001,10.96128 224.4674,13.55245 73.0344,2.5759 138.631,3.17493 194.9247,3.17493 -55.9642,0 -122.2215,-1.36594 -194.8324,-5.25394 -73.2143,-3.92032 -146.9676,-10.0663 -223.8166,-18.88656 -118.8791,-13.6442 -223.3242,-31.02113 -339.8009,-50.57815 -116.4705,-19.55598 -221.1862,-36.99475 -340.3724,-50.69165 -77.0605,-8.8558 -150.9942,-15.0266 -224.3694,-18.96225 -72.7637,-3.90286 -139.1256,-5.27261 -195.1541,-5.27261 z m 0,37.81515 v 18.86793 c 55.9187,0 121.0493,0.59523 193.5686,3.15627 72.9408,2.57593 146.0589,6.87694 222.9288,13.47676 119.09,10.22471 223.0762,23.76065 340.6056,39.2177 117.5025,15.4535 222.0471,29.0563 341.8507,39.33119 77.366,6.63526 151.0001,10.96128 224.4674,13.55245 73.0344,2.5759 138.631,3.17494 194.9247,3.17494 -55.9642,0 -122.2215,-1.36595 -194.8324,-5.25395 -73.2143,-3.92031 -146.9676,-10.0663 -223.8166,-18.88656 -118.8791,-13.6442 -223.3242,-31.02112 -339.8009,-50.57815 -116.4705,-19.55598 -221.1862,-36.99475 -340.3724,-50.69165 -77.0605,-8.8558 -150.9942,-15.02659 -224.3694,-18.96225 -72.7637,-3.90286 -139.1256,-5.2726 -195.1541,-5.2726 z m 0,37.81516 v 18.86792 c 55.9187,0 121.0493,0.59523 193.5686,3.15628 72.9408,2.57593 146.0589,6.87694 222.9288,13.47675 119.09,10.22471 223.0762,23.76065 340.6056,39.2177 117.5025,15.4535 222.0471,29.0563 341.8507,39.3312 77.366,6.63525 151.0001,10.96128 224.4674,13.55245 73.0344,2.5759 138.631,3.17493 194.9247,3.17493 -55.9642,0 -122.2215,-1.36594 -194.8324,-5.25394 -73.2143,-3.92032 -146.9676,-10.0663 -223.8166,-18.88656 -118.8791,-13.6442 -223.3242,-31.02113 -339.8009,-50.57815 -116.4705,-19.55598 -221.1862,-36.99475 -340.3724,-50.69165 -77.0605,-8.8558 -150.9942,-15.0266 -224.3694,-18.96225 -72.7637,-3.90286 -139.1256,-5.27261 -195.1541,-5.27261 z"
         id="use26"
         transform="matrix(0.22300099,0,0,0.37823052,-402.85121,237.25945)" />
    </pattern>
    <clipPath
       clipPathUnits="userSpaceOnUse"
       id="clipPath54">
      <path
         id="path336"
         style="stroke-width:0.0999999;stroke-linecap:square;paint-order:markers fill stroke;stop-color:#000000"
         d="m 1691.1994,-792.32001 h 1634.8919 v 92.82806 H 1691.1994 Z" />
    </clipPath>
    <clipPath
       clipPathUnits="userSpaceOnUse"
       id="clipPath33">
      <rect
         style="fill:#000000;stroke:none;stroke-width:0.999995;stroke-linecap:butt;stroke-linejoin:bevel;paint-order:stroke markers fill;stop-color:#000000"
         id="rect33"
         width="46.19186"
         height="80.006783"
         x="74.999985"
         y="399.99661" />
    </clipPath>
    <clipPath
       clipPathUnits="userSpaceOnUse"
       id="clipPath27">
      <rect
         style="fill:none;stroke:#000000;stroke-width:0.999999;stroke-linecap:butt;stroke-linejoin:bevel;paint-order:stroke markers fill;stop-color:#000000"
         id="rect28-6"
         width="46.160622"
         height="39.922417"
         x="86.574379"
         y="420.06253" />
    </clipPath>
    <clipPath
       clipPathUnits="userSpaceOnUse"
       id="clipPath25">
      <rect
         style="fill:#ff0000;stroke:none;stroke-width:3;stroke-linecap:square;stroke-linejoin:miter;paint-order:stroke markers fill;stop-color:#000000"
         id="rect25-8"
         width="78"
         height="45.033199"
         x="763.61322"
         y="452.82422" />
    </clipPath>
    <clipPath
       clipPathUnits="userSpaceOnUse"
       id="clipPath15">
      <rect
         style="fill:none;stroke:#000000;stroke-linecap:butt;stroke-linejoin:bevel;paint-order:stroke markers fill;stop-color:#000000"
         id="rect15-7"
         width="45.034248"
         height="38.955639"
         x="262.48285"
         y="121.00073" />
    </clipPath>
    <linearGradient
       id="swatch75">
      <stop
         style="stop-color:#000000;stop-opacity:1;"
         offset="0"
         id="stop75" />
    </linearGradient>
  </defs>
  <g
     id="layer70"
     style="display:inline">
    <g
       id="layer71"
       style="display:inline">
      <path
         style="baseline-shift:baseline;display:inline;overflow:visible;opacity:1;vector-effect:none;fill-rule:evenodd;enable-background:accumulate;stop-color:#000000;stop-opacity:1"
         d="m 755.29883,463.15625 c -4.50275,0 -7.45878,2.67525 -8.72461,4.19141 -1.26583,1.51615 -1.70707,2.55868 -1.97266,3.08984 -1.24925,2.49849 -1.88021,4.07304 -2.02148,4.75586 -1.12852,0.8824 -3.04132,2.32036 -4.72656,5.26953 -3.09258,5.41198 -2.64379,9.07651 -2.68555,9.22266 -0.34837,1.21928 -0.94733,2.81662 -1.62305,4.84375 l -0.19726,0.58984 -0.1211,0.61133 c -0.64632,3.23165 -1.07984,6.02252 -1.64844,8.29687 -0.75623,3.02494 -2.63514,7.191 -3.65234,12.95508 -2.61047,14.79267 -2.01177,27.45908 -1.91797,40.88672 -0.43604,1.16217 -0.87233,2.11686 -1.2832,3.43164 -2.73326,8.74643 -3.72481,11.93811 -4.23242,15.1875 -0.0692,0.44298 -0.27555,0.80512 -0.32032,1.57031 -1.12824,2.7322 -2.40167,5.80594 -5.70117,14.05469 -9.08166,22.70414 -4.83994,12.91889 -15.57812,36.34766 -3.64776,7.95872 -6.63119,15.56596 -10.2168,22.18554 -3.31128,6.11313 -7.38001,12.14367 -11.68359,18.33008 -12.01651,17.27373 -17.70356,23.79855 -32.32032,39.11133 -6.39596,6.70053 -12.3222,13.20876 -18.58007,18.61328 -5.13212,4.43228 -11.76395,8.43236 -18.6836,13.54688 -1.42793,1.05542 -10.18843,7.67621 -19.67383,14.75976 -4.74269,3.54178 -9.52741,7.0941 -13.27343,9.83594 -1.87301,1.37092 -3.49066,2.54281 -4.67774,3.38281 -1.18707,0.84001 -2.60036,1.65658 -1.5,1.06055 -5.18228,2.80707 -13.2689,4.19774 -22.33398,8.5332 -8.0925,3.87033 -13.11831,8.61851 -17.14844,10.34571 -3.99899,1.71385 -10.59708,2.19452 -18.64062,5.00976 -7.18047,2.51316 -11.94184,5.80763 -15.45118,6.9043 -4.69555,1.46736 -14.96334,1.29687 -23.30468,1.29687 -5.14814,0 -9.59293,0.29066 -13.30664,0.0254 -1.64336,-0.11738 -5.08464,-1.39066 -10.5625,-1.75586 -7.36135,-0.49075 -12.27267,0.58364 -14.59375,0.14844 -1.36212,-0.2554 -4.61284,-2.39943 -10.39649,-4.71289 -11.19338,-4.47735 -14.09537,-5.28351 -14.0664,-5.27344 0.029,0.0101 -0.4244,-0.25809 -9.70899,-4.90039 -4.48515,-2.24257 -7.70914,-3.38487 -9.10547,-4.40039 -1.93746,-1.40906 -4.22484,-4.04734 -7.21094,-7.36523 -1.8691,-2.07679 -1.34431,-1.51694 -2.69335,-3.04102 -0.23257,-0.81015 -0.47927,-1.32793 -0.64454,-1.66211 -0.26653,-0.53894 -0.44577,-0.821 -0.59961,-1.0625 -0.30767,-0.483 -0.51426,-0.75658 -0.73437,-1.04883 -0.44022,-0.58449 -0.90755,-1.15974 -1.53906,-1.91992 -1.26303,-1.52035 -3.14356,-3.70954 -5.96289,-6.93164 -3.0813,-3.52149 -4.8517,-4.86618 -5.48438,-5.29101 -0.0971,-1.4366 -0.18152,-4.24006 -2.48242,-7.69141 -1.89936,-2.84902 -3.85463,-3.94312 -5.32227,-4.62891 -10e-4,-0.44504 -0.008,-0.74913 -0.008,-2.09179 V 729.01172 720.25 c 0,-4.44769 -0.33056,-7.49666 -0.10156,-9.09961 1.1325,-7.92751 4.64034,-16.71885 8.18359,-25.83008 3.63988,-9.35969 11.36791,-28.55535 15.23047,-35.63672 3.43407,-6.29578 7.29581,-12.37411 11.53906,-18.13281 5.50624,-7.47274 15.71186,-17.3056 23.55469,-25.14844 7.88397,-7.88396 11.84702,-12.4468 19.83985,-18.25976 1.7052,-1.24015 4.58646,-2.61947 8.17968,-4.86524 2.11839,-1.324 3.91453,-2.60447 5.50391,-3.66406 3.37883,-2.25255 7.00406,-4.54737 10.70312,-7.13672 4.83258,-3.3828 8.25935,-6.42498 11.49414,-8.27344 1.62604,-0.92916 3.85222,-1.90853 6.51954,-3.24218 1.51837,-0.7592 2.49165,-1.29971 2.97265,-1.50586 2.59257,-1.1111 5.46546,-2.18345 8.53711,-3.41211 2.63533,-1.05414 5.76216,-2.12945 9.18555,-3.68555 4.74802,-2.15819 7.79209,-4.24759 9.74023,-4.94336 2.51772,-0.89918 7.62216,-1.01267 14.2793,-3.60156 7.85632,-3.05523 13.1745,-7.10535 17.46094,-8.73828 4.4688,-1.70241 11.2297,-2.29197 19.17383,-5.21875 6.73981,-2.48308 11.11934,-5.80834 14.36914,-7.14649 4.16805,-1.71626 9.41394,-2.99927 15.29296,-5.07421 5.05026,-1.78246 9.67452,-3.70519 14.05469,-5.26954 3.21212,-1.14718 6.67505,-2.22241 10.31446,-3.43554 4.28932,-1.42978 7.31144,-2.78533 9.3125,-3.18555 -1.19237,0.23847 0.98367,0.87652 6.46289,0.0937 2.37062,-0.33866 4.14376,-0.63831 6.27343,-1.49414 1.9077,-0.76662 3.95707,-2.49059 4.91797,-3.48242 1.28188,0.20716 2.23937,0.18955 2.88086,0.11914 1.71414,-0.18814 2.47388,-0.48804 3.44727,-0.8125 1.74552,-0.58185 2.49527,-0.92345 3.13281,-1.22656 0.31037,-0.006 0.28868,-0.0117 0.71484,-0.0117 h 7.00977 14.45508 c 1.25544,0.51163 2.35138,0.7898 3.19922,0.90039 2.5108,0.3275 4.11579,0.0965 5.66601,-0.125 1.55023,-0.22146 2.70801,-0.44108 4.26758,-0.96094 0.38989,-0.12996 0.79952,-0.26478 1.51367,-0.60937 0.71416,-0.3446 1.92374,0.61488 4.60742,-4.36915 1.34185,-2.49201 1.01919,-8.7473 -1.29687,-11.38281 -2.31606,-2.6355 -3.95112,-2.80402 -4.9082,-3.06836 -1.91418,-0.52867 -2.40605,-0.38476 -2.96875,-0.38476 2.16504,0 0.0462,-0.19038 -2.41993,-0.6836 -1.23304,-0.24661 -2.67812,-0.83014 -6.07226,-0.0469 -0.53858,0.12429 -1.22336,0.45561 -1.87305,0.73047 h -14.16992 -7.00977 c 0.44861,0 -1.65902,-0.77079 -5.92968,0.29687 -0.47245,0.11812 -0.48972,0.20186 -0.89454,0.32031 -0.93005,-0.13641 -1.66958,-0.11254 -2.21875,-0.082 -4.09756,0.22765 -4.48015,0.94871 -6.9375,1.93164 -2.46851,0.98741 -4.41534,1.99975 -6.11523,3.29688 -0.70556,0.53839 -0.72555,0.69075 -1.23047,1.21289 -0.26133,0.0602 0.008,0.008 -0.86914,0.13281 0.85304,-0.12186 -1.78188,-1.0612 -7.55664,0.0937 -5.24437,1.04889 -8.99638,2.91742 -11.7168,3.82422 -3.37033,1.12345 -6.96852,2.23625 -10.71484,3.57422 -5.02017,1.79292 -9.62183,3.70441 -13.98438,5.24414 -4.57247,1.61381 -10.17146,2.93767 -16.25195,5.44141 -6.41263,2.64049 -10.60256,5.74369 -13.66797,6.87304 -4.55511,1.6782 -11.39983,2.25527 -19.3789,5.29493 -7.91972,3.01703 -13.27245,7.10812 -17.58985,8.7871 -2.32175,0.90291 -7.20282,1.06715 -13.75781,3.40821 -5.4324,1.94015 -8.90242,4.48548 -11.28906,5.57031 -2.30411,1.04733 -5.13179,2.04177 -8.33789,3.32422 -2.76981,1.10792 -5.79811,2.23045 -8.98828,3.59766 -1.92014,0.82293 -3.21891,1.59089 -4.03711,2 -2.00583,1.0029 -4.58968,2.10454 -7.5,3.76757 -5.62783,3.21591 -9.51332,6.78394 -13.03907,9.25196 -3.20267,2.24187 -6.69721,4.46025 -10.32812,6.88086 -1.91548,1.27699 -3.55612,2.43716 -5.00977,3.3457 -2.18353,1.36471 -5.53963,2.88376 -9.34375,5.65039 -9.51231,6.91804 -14.72385,12.79807 -22.21875,20.29297 -7.50874,7.50874 -18.1599,17.44568 -25.51367,27.42578 -4.79272,6.5044 -9.13598,13.34306 -12.99609,20.41992 -5.48506,10.05596 -12.61972,28.46912 -16.3125,37.96485 -3.43595,8.83529 -7.7206,18.89959 -9.3418,30.24804 -0.76234,5.33633 -0.0996,9.36764 -0.0996,11.92969 v 8.76172 8.76172 c 0,2.18359 -0.91139,8.94132 3.94336,15.00976 1.54849,1.9356 2.99618,2.92806 4.21875,3.57813 0.16704,1.5263 0.53988,3.46339 2.11914,5.99023 2.95124,4.72197 5.64206,6.53128 6.96875,7.50977 0.20522,1.92016 1.04533,2.07014 1.27149,2.49609 0.65828,1.23987 0.82184,1.32157 1.03906,1.60742 1.73775,2.28687 4.06323,4.79921 11.04492,12.55664 2.54024,2.8225 5.56897,6.71032 10.3125,10.16016 4.94183,3.59406 9.40122,4.85295 11.92578,6.11523 9.16601,4.58301 9.9244,5.15041 12.08008,5.9004 2.15568,0.74998 2.29366,0.58817 13.21094,4.95507 2.47739,0.99096 6.75575,4.41648 14.13867,5.80078 8.01342,1.50252 13.81924,-0.0602 16.94922,0.14844 1.61281,0.10753 5.02178,1.36108 10.46679,1.75 5.60883,0.40064 10.53426,0.0254 14.73243,0.0254 7.20793,0 18.51984,1.1503 29.26953,-2.20898 7.4732,-2.33538 12.41192,-5.82728 16.09179,-7.11524 4.52916,-1.5852 11.66956,-1.97054 19.91407,-5.5039 8.49273,-3.63974 13.69983,-8.67752 17.89843,-10.68555 5.6148,-2.68533 14.1046,-4.04705 23.23047,-8.99023 1.83787,-0.99551 2.18634,-1.37138 3.52735,-2.32032 1.34101,-0.94893 3.0158,-2.16375 4.9375,-3.57031 3.84338,-2.81311 8.65831,-6.38943 13.42773,-9.95117 9.53885,-7.12347 19.45671,-14.59988 19.59375,-14.70117 5.85908,-4.33062 12.975,-8.53816 19.86914,-14.49219 7.49687,-6.47457 13.82165,-13.4935 19.97461,-19.93945 14.81569,-15.5212 21.88464,-23.69587 34.27149,-41.50196 4.39521,-6.31812 8.9078,-12.94382 12.85156,-20.22461 4.38135,-8.08863 7.49071,-16.12943 10.8125,-23.37695 5.58162,-12.17809 7.35004,-15.98144 8.93164,-19.72265 0.0283,0.69933 -0.008,1.35925 0.0293,2.0625 0.81959,15.57245 4.73395,46.15061 7.10351,62.26367 1.61034,10.95024 2.97904,22.31475 5.35547,33.85742 2.06826,10.04583 5.45996,18.542 6.99805,26.23242 3.19464,15.97322 3.16403,19.09669 3.27539,23.25195 0.11135,4.15527 0.40889,9.4456 3.78906,24.31836 2.32447,10.22767 4.0757,14.72855 5.25195,17.78321 1.17625,3.05466 1.85496,4.70518 3.42383,13.33398 -0.28127,-1.54699 -0.74415,0.0975 -0.0606,4.88281 0.45361,3.17525 1.0482,4.94637 1.42579,6.08008 -0.31251,-0.30067 -0.45243,1.54184 0.52343,5.44531 0.53556,2.1422 1.0445,3.25953 1.45508,4.05274 v 0.53125 h 0.19141 c 0.35445,0.59948 0.48496,0.5355 0.37695,0 h 19.43164 v -1.75195 c 0,1.52403 1.00434,-0.36191 -0.51367,-4.91602 -0.49437,-1.48311 -0.74643,-1.97927 -1.04297,-2.66016 -0.0641,-0.74627 -0.0655,-1.23092 -0.33203,-2.83007 -0.68363,-4.10183 -1.64531,-6.28085 -1.7168,-6.78125 0.18795,1.31563 0.84771,-0.63556 -0.0605,-5.63086 -1.70551,-9.38029 -3.1705,-13.65302 -4.4375,-16.94336 -1.26701,-3.29034 -2.25965,-5.5565 -4.41211,-15.02735 -3.24251,-14.26702 -3.1916,-16.34754 -3.30078,-20.42187 -0.10919,-4.07433 -0.3343,-10.03865 -3.6543,-26.63867 -2.01882,-10.09409 -5.43242,-18.6235 -7.02149,-26.3418 -2.15521,-10.46817 -3.49891,-21.45321 -5.1582,-32.73633 -2.29311,-15.5932 -6.20826,-46.91985 -6.91797,-60.4043 -0.5158,-9.80024 0.0137,-20.15453 0.0137,-31.01953 v -25.35547 c 1.05252,-2.50385 2.18689,-5.33411 3.14063,-8.76757 3.50836,-12.6301 3.39713,-18.60285 5.42773,-28.75586 0.97277,-4.8638 2.36624,-10.07334 3.50586,-15.77149 0.9461,-4.73049 1.04647,-8.01163 1.52344,-9.60156 0.3635,-1.21165 0.63107,-1.80366 0.91602,-2.51367 0.32227,-0.28226 0.53823,-0.42842 0.71875,-0.63672 0.49813,-0.57479 0.85105,-1.10706 1.11914,-1.57422 0.53617,-0.93431 0.7601,-1.61509 0.91601,-2.14062 0.31184,-1.05108 0.3373,-1.55031 0.37305,-1.92969 0.28603,-3.03502 0.0252,-1.75436 0.004,-2.24805 -0.0384,-0.88999 -0.0947,-3.1995 -0.10743,-6.85351 0.18588,-0.51167 0.44447,-1.05691 0.6836,-1.53516 0.79727,-1.59455 1.08648,-2.36128 1.31445,-4.4668 0.11398,-1.05276 0.40945,-2.43289 -0.64844,-5.16601 -1.05788,-2.73313 -5.95408,-6.5918 -9.60937,-6.5918 z m -2.56641,3.88672 c 2.71621,-0.0688 6.02152,0.87095 7.55664,2.24805 2.04683,1.83613 2.32465,3.09432 2.59375,3.85546 0.13455,0.38058 0.21197,0.67141 0.27149,0.92188 0.0298,0.12523 0.0548,0.24129 0.0762,0.34961 0.0109,0.055 0.0293,0.15625 0.0293,0.15625 0,0 -12.32637,2.15327 -16.67188,2.88867 -0.0865,-0.16118 -0.27277,-0.343 -0.33203,-0.49609 -0.9623,-2.48618 -0.65565,-3.52512 -0.58203,-4.20508 0.14724,-1.35992 0.14365,-1.25215 0.67969,-2.32422 -0.28475,0.56949 -1.55097,-0.82038 3.94531,-2.9668 0.68703,-0.2683 1.52819,-0.4048 2.43359,-0.42773 z m -71.03515,15.53711 c 1.49013,1.61421 2.99023,3.9894 2.99023,6.34961 0,1.37459 -0.51514,3.8014 -2.0957,5.70898 -0.27424,0.33098 -0.59695,0.46992 -0.89453,0.74024 z m -48.18946,1.89648 c 0.17494,-0.2624 0.0148,-0.0693 -0.45703,0.66992 -0.22589,0.35389 -0.55954,0.8792 -0.96484,1.88868 0.31972,-2.37299 1.2903,-2.36124 1.42187,-2.5586 z m 92.51367,85.11914 v 4.25196 c -1.01308,-0.43839 -3.25139,-1.41658 -3.30468,-1.43946 0.25285,-0.2819 0.12598,-0.20464 0.65625,-0.74414 0.42463,-0.43202 1.03752,-1.36214 2.64843,-2.06836 z m -3.71093,3.27149 c -0.0118,0.0259 -0.019,0.045 -0.0234,0.0547 -0.0116,0.0256 -0.023,0.0493 -0.0391,0.084 -0.0321,0.0693 -0.0794,0.17008 -0.11524,0.24219 -0.0485,0.0975 -0.23914,0.15451 0.17774,-0.38086 z m 18.16015,5.95117 c -0.0312,0.5793 -0.20854,0.69249 -0.21875,0.75781 -0.005,0.029 0.21516,-0.75095 0.21875,-0.75781 z M 347.30859,757.36523 c 0.001,6.4e-4 0.006,0.003 0.008,0.004 0.45807,0.20607 0.36425,0.25239 -0.008,-0.004 z M 358.19336,775.5 c 0.0687,0.0636 0.34234,0.32767 0.48437,0.46289 -0.37521,-0.25982 -0.43451,-0.39514 -0.48437,-0.46289 z"
         id="path431" />
    </g>
  </g>
</svg>
