<?xml version="1.0" encoding="UTF-8" standalone="no"?>
<!-- Created with Inkscape (http://www.inkscape.org/) -->

<svg
   width="1000"
   height="1000"
   viewBox="0 0 1000 1000"
   version="1.1"
   id="svg1"
   xmlns:xlink="http://www.w3.org/1999/xlink"
   xmlns="http://www.w3.org/2000/svg"
   xmlns:svg="http://www.w3.org/2000/svg">
  <defs
     id="defs1">
    <pattern
       xlink:href="#pattern359"
       preserveAspectRatio="xMidYMid"
       id="pattern372"
       patternTransform="matrix(0.5,0,0,0.5,147.15462,1548.2922)" />
    <pattern
       xlink:href="#pattern357"
       preserveAspectRatio="xMidYMid"
       id="pattern371"
       patternTransform="matrix(0.5,0,0,0.5,221.32076,1552.4298)" />
    <pattern
       xlink:href="#pattern358"
       preserveAspectRatio="xMidYMid"
       id="pattern370"
       patternTransform="matrix(0.5,0,0,0.5,230.96346,1527.8214)" />
    <pattern
       xlink:href="#pattern355"
       preserveAspectRatio="xMidYMid"
       id="pattern369"
       patternTransform="matrix(0.5,0,0,0.5,287.08178,1553.6581)" />
    <pattern
       xlink:href="#pattern354"
       preserveAspectRatio="xMidYMid"
       id="pattern368"
       patternTransform="matrix(0.5,0,0,0.5,230.97274,1529.1717)" />
    <pattern
       xlink:href="#pattern342"
       preserveAspectRatio="xMidYMid"
       id="pattern360"
       patternTransform="matrix(0.5,0,0,0.5,210.45332,1525.5392)" />
    <pattern
       xlink:href="#pattern342"
       preserveAspectRatio="xMidYMid"
       id="pattern359"
       patternTransform="matrix(0.5,0,0,0.5,152.11125,1550.7705)" />
    <pattern
       xlink:href="#pattern342"
       preserveAspectRatio="xMidYMid"
       id="pattern358"
       patternTransform="matrix(0.5,0,0,0.5,202.11125,1533.2444)" />
    <pattern
       xlink:href="#pattern342"
       preserveAspectRatio="xMidYMid"
       id="pattern357"
       patternTransform="matrix(0.5,0,0,0.5,211.4075,1546.234)" />
    <pattern
       xlink:href="#pattern342"
       preserveAspectRatio="xMidYMid"
       id="pattern356"
       patternTransform="matrix(0.5,0,0,0.5,232.14929,1573.2544)" />
    <pattern
       xlink:href="#pattern342"
       preserveAspectRatio="xMidYMid"
       id="pattern355"
       patternTransform="matrix(0.5,0,0,0.5,275,1552.7287)" />
    <pattern
       xlink:href="#pattern342"
       preserveAspectRatio="xMidYMid"
       id="pattern354"
       patternTransform="matrix(0.5,0,0,0.5,235,1529.7913)" />
    <pattern
       xlink:href="#shading24"
       preserveAspectRatio="xMidYMid"
       id="pattern342"
       patternTransform="matrix(0.5,0,0,0.5,213.95332,1537.5392)"
       x="0"
       y="0" />
    <pattern
       patternUnits="userSpaceOnUse"
       width="338.5925"
       height="42.989567"
       patternTransform="translate(213.95332,1537.5392) scale(0.5)"
       preserveAspectRatio="xMidYMid"
       id="shading24"
       style="fill:#000000">
      <path
         style="fill-rule:nonzero;stroke:none;stroke-width:0.1;stroke-linecap:square;paint-order:markers fill stroke;stop-color:#000000"
         d="m 1806.4991,-758.06464 v 18.86792 c 55.9187,0 121.0493,0.59523 193.5686,3.15628 72.9408,2.57593 146.0589,6.87694 222.9288,13.47675 119.09,10.22471 223.0762,23.76065 340.6056,39.2177 117.5025,15.4535 222.0471,29.0563 341.8507,39.3312 77.366,6.63525 151.0001,10.96128 224.4674,13.55245 73.0344,2.5759 138.631,3.17493 194.9247,3.17493 -55.9642,0 -122.2215,-1.36594 -194.8324,-5.25394 -73.2143,-3.92032 -146.9676,-10.0663 -223.8166,-18.88656 -118.8791,-13.6442 -223.3242,-31.02113 -339.8009,-50.57815 -116.4705,-19.55598 -221.1862,-36.99475 -340.3724,-50.69165 -77.0605,-8.8558 -150.9942,-15.0266 -224.3694,-18.96225 -72.7637,-3.90286 -139.1256,-5.27261 -195.1541,-5.27261 z m 0,37.81515 v 18.86793 c 55.9187,0 121.0493,0.59523 193.5686,3.15627 72.9408,2.57593 146.0589,6.87694 222.9288,13.47676 119.09,10.22471 223.0762,23.76065 340.6056,39.2177 117.5025,15.4535 222.0471,29.0563 341.8507,39.33119 77.366,6.63526 151.0001,10.96128 224.4674,13.55245 73.0344,2.5759 138.631,3.17493 194.9247,3.17493 -55.9642,0 -122.2215,-1.36594 -194.8324,-5.25394 -73.2143,-3.92031 -146.9676,-10.0663 -223.8166,-18.88656 -118.8791,-13.6442 -223.3242,-31.02112 -339.8009,-50.57815 -116.4705,-19.55598 -221.1862,-36.99475 -340.3724,-50.69165 -77.0605,-8.8558 -150.9942,-15.02659 -224.3694,-18.96225 -72.7637,-3.90286 -139.1256,-5.2726 -195.1541,-5.2726 z m 0,37.81516 v 18.86792 c 55.9187,0 121.0493,0.59523 193.5686,3.15628 72.9408,2.57593 146.0589,6.87694 222.9288,13.47675 119.09,10.22471 223.0762,23.76065 340.6056,39.2177 117.5025,15.4535 222.0471,29.0563 341.8507,39.3312 77.366,6.63525 151.0001,10.96128 224.4674,13.55245 73.0344,2.5759 138.631,3.17493 194.9247,3.17493 -55.9642,0 -122.2215,-1.36594 -194.8324,-5.25394 -73.2143,-3.92032 -146.9676,-10.0663 -223.8166,-18.88656 -118.8791,-13.6442 -223.3242,-31.02113 -339.8009,-50.57815 -116.4705,-19.55598 -221.1862,-36.99475 -340.3724,-50.69165 -77.0605,-8.8558 -150.9942,-15.0266 -224.3694,-18.96225 -72.7637,-3.90286 -139.1256,-5.27261 -195.1541,-5.27261 z m 0,37.81515 v 18.86793 c 55.9187,0 121.0493,0.59523 193.5686,3.15627 72.9408,2.57593 146.0589,6.87694 222.9288,13.47676 119.09,10.22471 223.0762,23.76065 340.6056,39.2177 117.5025,15.4535 222.0471,29.0563 341.8507,39.33119 77.366,6.63526 151.0001,10.96128 224.4674,13.55245 73.0344,2.5759 138.631,3.17494 194.9247,3.17494 -55.9642,0 -122.2215,-1.36595 -194.8324,-5.25395 -73.2143,-3.92031 -146.9676,-10.0663 -223.8166,-18.88656 -118.8791,-13.6442 -223.3242,-31.02112 -339.8009,-50.57815 -116.4705,-19.55598 -221.1862,-36.99475 -340.3724,-50.69165 -77.0605,-8.8558 -150.9942,-15.02659 -224.3694,-18.96225 -72.7637,-3.90286 -139.1256,-5.2726 -195.1541,-5.2726 z m 0,37.81516 v 18.86792 c 55.9187,0 121.0493,0.59523 193.5686,3.15628 72.9408,2.57593 146.0589,6.87694 222.9288,13.47675 119.09,10.22471 223.0762,23.76065 340.6056,39.2177 117.5025,15.4535 222.0471,29.0563 341.8507,39.3312 77.366,6.63525 151.0001,10.96128 224.4674,13.55245 73.0344,2.5759 138.631,3.17493 194.9247,3.17493 -55.9642,0 -122.2215,-1.36594 -194.8324,-5.25394 -73.2143,-3.92032 -146.9676,-10.0663 -223.8166,-18.88656 -118.8791,-13.6442 -223.3242,-31.02113 -339.8009,-50.57815 -116.4705,-19.55598 -221.1862,-36.99475 -340.3724,-50.69165 -77.0605,-8.8558 -150.9942,-15.0266 -224.3694,-18.96225 -72.7637,-3.90286 -139.1256,-5.27261 -195.1541,-5.27261 z m 0,37.81515 v 18.86793 c 55.9187,0 121.0493,0.59523 193.5686,3.15627 72.9408,2.57593 146.0589,6.87694 222.9288,13.47676 119.09,10.22471 223.0762,23.76065 340.6056,39.2177 117.5025,15.4535 222.0471,29.0563 341.8507,39.33119 77.366,6.63526 151.0001,10.96128 224.4674,13.55245 73.0344,2.5759 138.631,3.17494 194.9247,3.17494 -55.9642,0 -122.2215,-1.36595 -194.8324,-5.25395 -73.2143,-3.92031 -146.9676,-10.0663 -223.8166,-18.88656 -118.8791,-13.6442 -223.3242,-31.02112 -339.8009,-50.57815 -116.4705,-19.55598 -221.1862,-36.99475 -340.3724,-50.69165 -77.0605,-8.8558 -150.9942,-15.02659 -224.3694,-18.96225 -72.7637,-3.90286 -139.1256,-5.2726 -195.1541,-5.2726 z m 0,37.81516 v 18.86792 c 55.9187,0 121.0493,0.59523 193.5686,3.15628 72.9408,2.57593 146.0589,6.87694 222.9288,13.47675 119.09,10.22471 223.0762,23.76065 340.6056,39.2177 117.5025,15.4535 222.0471,29.0563 341.8507,39.3312 77.366,6.63525 151.0001,10.96128 224.4674,13.55245 73.0344,2.5759 138.631,3.17493 194.9247,3.17493 -55.9642,0 -122.2215,-1.36594 -194.8324,-5.25394 -73.2143,-3.92032 -146.9676,-10.0663 -223.8166,-18.88656 -118.8791,-13.6442 -223.3242,-31.02113 -339.8009,-50.57815 -116.4705,-19.55598 -221.1862,-36.99475 -340.3724,-50.69165 -77.0605,-8.8558 -150.9942,-15.0266 -224.3694,-18.96225 -72.7637,-3.90286 -139.1256,-5.27261 -195.1541,-5.27261 z"
         id="use26"
         transform="matrix(0.22300099,0,0,0.37823052,-402.85121,237.25945)" />
    </pattern>
    <clipPath
       clipPathUnits="userSpaceOnUse"
       id="clipPath54">
      <path
         id="path336"
         style="stroke-width:0.0999999;stroke-linecap:square;paint-order:markers fill stroke;stop-color:#000000"
         d="m 1691.1994,-792.32001 h 1634.8919 v 92.82806 H 1691.1994 Z" />
    </clipPath>
    <clipPath
       clipPathUnits="userSpaceOnUse"
       id="clipPath33">
      <rect
         style="fill:#000000;stroke:none;stroke-width:0.999995;stroke-linecap:butt;stroke-linejoin:bevel;paint-order:stroke markers fill;stop-color:#000000"
         id="rect33"
         width="46.19186"
         height="80.006783"
         x="74.999985"
         y="399.99661" />
    </clipPath>
    <clipPath
       clipPathUnits="userSpaceOnUse"
       id="clipPath27">
      <rect
         style="fill:none;stroke:#000000;stroke-width:0.999999;stroke-linecap:butt;stroke-linejoin:bevel;paint-order:stroke markers fill;stop-color:#000000"
         id="rect28-6"
         width="46.160622"
         height="39.922417"
         x="86.574379"
         y="420.06253" />
    </clipPath>
    <clipPath
       clipPathUnits="userSpaceOnUse"
       id="clipPath25">
      <rect
         style="fill:#ff0000;stroke:none;stroke-width:3;stroke-linecap:square;stroke-linejoin:miter;paint-order:stroke markers fill;stop-color:#000000"
         id="rect25-8"
         width="78"
         height="45.033199"
         x="763.61322"
         y="452.82422" />
    </clipPath>
    <clipPath
       clipPathUnits="userSpaceOnUse"
       id="clipPath15">
      <rect
         style="fill:none;stroke:#000000;stroke-linecap:butt;stroke-linejoin:bevel;paint-order:stroke markers fill;stop-color:#000000"
         id="rect15-7"
         width="45.034248"
         height="38.955639"
         x="262.48285"
         y="121.00073" />
    </clipPath>
    <linearGradient
       id="swatch75">
      <stop
         style="stop-color:#000000;stop-opacity:1;"
         offset="0"
         id="stop75" />
    </linearGradient>
  </defs>
  <g
     id="layer70"
     style="display:inline">
    <g
       id="layer79"
       style="display:inline">
      <path
         style="baseline-shift:baseline;display:inline;overflow:visible;opacity:1;vector-effect:none;fill-rule:evenodd;enable-background:accumulate;stop-color:#000000;stop-opacity:1"
         d="m 515.73047,497.69141 v 12.26757 c 0,2.69524 0.0808,3.97364 0.0996,3.8418 -0.01,0.0684 -1.30293,2.43157 -1.80274,7.42969 -0.5819,5.81897 0.1906,9.18102 0.0664,9.98828 -0.31088,2.02069 -2.21826,5.77878 -3.42773,11.82617 -1.79442,8.97206 -2.47075,12.44799 -2.65235,15.72266 -0.0298,0.53698 -0.10363,1.17134 0.0469,2.25781 -0.59777,2.25651 -0.93737,3.55417 -2.50782,9.44336 -1.08985,4.08695 -4.8309,14.01961 -5.56054,22.77539 -0.47397,5.68773 0.1888,9.82486 -0.004,12.33008 -0.3217,4.18207 -0.65349,6.30269 -0.78711,6.90039 -0.47529,0.81687 -1.6556,3.13001 -2.35547,5.69531 -0.71835,2.63307 -1.33657,5.98425 -2.05664,11.38477 -0.88976,6.67323 0.19108,10.83453 0,12.26758 -0.32647,2.44855 -2.67659,6.95718 -3.52539,14.17187 -0.79629,6.7685 -0.0684,12.4611 -0.0684,16.93945 v 24.53516 49.06836 14.01953 c 0,3.65693 0.22244,6.21681 0.0625,7.65625 0.007,-0.0613 -1.05179,2.07344 -1.71289,6.70117 l -0.10156,0.70313 v 0.71093 c 0,0.8473 0.0186,0.85316 0.0234,1.50196 -0.0951,0.33588 -0.22448,0.71066 -0.3418,1.02539 -0.43671,1.17153 -0.76329,2.3227 -1.13477,3.80859 -1.06766,4.27067 -0.29882,6.38025 -0.29882,5.93164 0,1.78279 0.19931,2.37776 0.15625,1.98242 -0.0431,-0.39533 -0.30427,-2.29772 0.89843,-4.70312 0.19567,-0.39132 0.19961,-0.31436 0.36328,-0.60352 l 1.50977,1.50977 c 9.3e-4,0.002 0.0195,0.0488 0.0195,0.0488 0,0 0.10076,0.0703 0.10352,0.0723 l 1.51758,1.51953 c -0.34953,-0.36191 -0.51153,-0.6388 -0.74219,-0.96679 0.93337,0.66465 2.70104,1.92351 4.54492,3.23633 -1.47751,-0.48732 -2.58771,-1.14617 -3.38477,-1.85157 l 10.33204,10.33008 c -0.90657,0.90657 1.36992,0.16048 3.625,-4.34961 1.46394,-2.92788 1.20407,-5.41331 1.0957,-6.4082 -0.10837,-0.9949 -0.0391,-1.01504 -0.0391,0.18359 0,-1.06423 0.0207,-1.43683 0.0293,-1.78515 0.18438,-0.10467 1.03905,-0.58982 1.03907,-0.58985 10e-5,-2.5e-4 0.59487,-1.87114 0.6621,-2.27539 0.13448,-0.8085 0.11831,-1.02761 0.12696,-1.24219 0.0636,-1.57761 -0.006,-1.17746 -0.0371,-1.33007 -7.9e-4,-0.0101 0.003,0.0475 0.002,0.0215 -0.013,-0.25265 -0.04,-1.99863 -0.0547,-3.96289 0.18926,-0.46085 1.18121,-2.5585 1.67579,-7.00977 0.48514,-4.36627 0.0605,-7.68072 0.0605,-9.86523 v -14.01953 -49.06836 -24.53516 c 0,-6.03624 -0.5006,-10.92943 -0.0684,-14.60351 0.27686,-2.35329 2.53955,-6.76435 3.48633,-13.86524 0.88977,-6.67323 -0.19107,-10.83453 0,-12.26757 0.65765,-4.93234 1.21348,-7.61128 1.52734,-8.76172 0.31387,-1.15044 -0.0422,-0.26576 0.31055,-0.85938 0.35272,-0.59362 1.70603,-3.23344 2.25586,-5.66992 0.54984,-2.43648 0.86585,-5.18381 1.2207,-9.79688 0.43452,-5.64869 -0.20907,-9.74107 -0.004,-12.20312 0.23763,-2.8516 3.40124,-13.46361 4.95312,-19.2832 2.36995,-8.88731 3.41049,-12.74031 3.86524,-14.55078 0.11368,-0.45262 0.17209,-0.58831 0.32226,-1.45508 0.0376,-0.2167 0.0931,-0.44714 0.13672,-1.1543 0.0218,-0.35358 0.073,-0.78965 -0.0547,-1.83984 -0.0379,-0.31164 -0.22047,-0.90064 -0.33984,-1.38282 0.30696,-1.96197 0.35359,-2.67617 1.47266,-8.27148 0.45854,-2.2927 2.59961,-6.3233 3.58203,-12.70898 0.94168,-6.12097 -0.0492,-9.88309 0.0664,-11.03907 -0.0205,0.20506 1.02972,-1.89159 1.70118,-6.59179 0.51449,-3.60148 0.10156,-5.8603 0.10156,-6.66993 v -12.26757 z m 12.35547,61.60156 c 0.013,0.45726 -0.10159,0.54728 -0.10352,0.58203 -6.4e-4,0.0116 0.10175,-0.57456 0.10352,-0.58203 z m -38.41992,224.43945 c 0.0155,0.11538 -0.004,0.0559 0.043,0.32031 -0.002,0.003 -0.008,0.0108 -0.01,0.0137 -0.0151,-0.13261 -0.0335,-0.2481 -0.0332,-0.33399 z m 0.0801,0.48047 c 0.008,0.0448 0.0439,0.17376 0.0547,0.23047 -0.0106,-0.0374 -0.0757,-0.14771 -0.084,-0.18164 0.007,-0.0105 0.0222,-0.0389 0.0293,-0.0488 z m 18.11914,1.62891 c 0.003,-0.008 0.10183,0.16831 -0.13867,0.64648 -6e-5,-0.0206 0.003,-0.1515 0.002,-0.16601 0.031,-0.0986 0.13503,-0.47596 0.13671,-0.48047 z m -0.70898,1.28906 c -0.31853,0.44029 -0.50726,0.80026 -1.46484,1.6543 -0.92434,0.82439 -2.99803,1.86949 -5.3711,2.22656 2.19325,-1.24487 5.07503,-2.88127 6.83594,-3.88086 z"
         id="path440" />
      <path
         style="baseline-shift:baseline;display:inline;overflow:visible;opacity:1;vector-effect:none;fill-rule:evenodd;enable-background:accumulate;stop-color:#000000;stop-opacity:1"
         d="m 496.21094,343.63281 -14.56446,13.70703 28.03907,29.79102 14.56445,-13.70703 z"
         id="path441" />
    </g>
  </g>
</svg>
