<?xml version="1.0" encoding="UTF-8" standalone="no"?>
<!-- Created with Inkscape (http://www.inkscape.org/) -->

<svg
   width="1000"
   height="1000"
   viewBox="0 0 1000 1000"
   version="1.1"
   id="svg1"
   xmlns:xlink="http://www.w3.org/1999/xlink"
   xmlns="http://www.w3.org/2000/svg"
   xmlns:svg="http://www.w3.org/2000/svg">
  <defs
     id="defs1">
    <pattern
       xlink:href="#pattern359"
       preserveAspectRatio="xMidYMid"
       id="pattern372"
       patternTransform="matrix(0.5,0,0,0.5,147.15462,1548.2922)" />
    <pattern
       xlink:href="#pattern357"
       preserveAspectRatio="xMidYMid"
       id="pattern371"
       patternTransform="matrix(0.5,0,0,0.5,221.32076,1552.4298)" />
    <pattern
       xlink:href="#pattern358"
       preserveAspectRatio="xMidYMid"
       id="pattern370"
       patternTransform="matrix(0.5,0,0,0.5,230.96346,1527.8214)" />
    <pattern
       xlink:href="#pattern355"
       preserveAspectRatio="xMidYMid"
       id="pattern369"
       patternTransform="matrix(0.5,0,0,0.5,287.08178,1553.6581)" />
    <pattern
       xlink:href="#pattern354"
       preserveAspectRatio="xMidYMid"
       id="pattern368"
       patternTransform="matrix(0.5,0,0,0.5,230.97274,1529.1717)" />
    <pattern
       xlink:href="#pattern342"
       preserveAspectRatio="xMidYMid"
       id="pattern360"
       patternTransform="matrix(0.5,0,0,0.5,210.45332,1525.5392)" />
    <pattern
       xlink:href="#pattern342"
       preserveAspectRatio="xMidYMid"
       id="pattern359"
       patternTransform="matrix(0.5,0,0,0.5,152.11125,1550.7705)" />
    <pattern
       xlink:href="#pattern342"
       preserveAspectRatio="xMidYMid"
       id="pattern358"
       patternTransform="matrix(0.5,0,0,0.5,202.11125,1533.2444)" />
    <pattern
       xlink:href="#pattern342"
       preserveAspectRatio="xMidYMid"
       id="pattern357"
       patternTransform="matrix(0.5,0,0,0.5,211.4075,1546.234)" />
    <pattern
       xlink:href="#pattern342"
       preserveAspectRatio="xMidYMid"
       id="pattern356"
       patternTransform="matrix(0.5,0,0,0.5,232.14929,1573.2544)" />
    <pattern
       xlink:href="#pattern342"
       preserveAspectRatio="xMidYMid"
       id="pattern355"
       patternTransform="matrix(0.5,0,0,0.5,275,1552.7287)" />
    <pattern
       xlink:href="#pattern342"
       preserveAspectRatio="xMidYMid"
       id="pattern354"
       patternTransform="matrix(0.5,0,0,0.5,235,1529.7913)" />
    <pattern
       xlink:href="#shading24"
       preserveAspectRatio="xMidYMid"
       id="pattern342"
       patternTransform="matrix(0.5,0,0,0.5,213.95332,1537.5392)"
       x="0"
       y="0" />
    <pattern
       patternUnits="userSpaceOnUse"
       width="338.5925"
       height="42.989567"
       patternTransform="translate(213.95332,1537.5392) scale(0.5)"
       preserveAspectRatio="xMidYMid"
       id="shading24"
       style="fill:#000000">
      <path
         style="fill-rule:nonzero;stroke:none;stroke-width:0.1;stroke-linecap:square;paint-order:markers fill stroke;stop-color:#000000"
         d="m 1806.4991,-758.06464 v 18.86792 c 55.9187,0 121.0493,0.59523 193.5686,3.15628 72.9408,2.57593 146.0589,6.87694 222.9288,13.47675 119.09,10.22471 223.0762,23.76065 340.6056,39.2177 117.5025,15.4535 222.0471,29.0563 341.8507,39.3312 77.366,6.63525 151.0001,10.96128 224.4674,13.55245 73.0344,2.5759 138.631,3.17493 194.9247,3.17493 -55.9642,0 -122.2215,-1.36594 -194.8324,-5.25394 -73.2143,-3.92032 -146.9676,-10.0663 -223.8166,-18.88656 -118.8791,-13.6442 -223.3242,-31.02113 -339.8009,-50.57815 -116.4705,-19.55598 -221.1862,-36.99475 -340.3724,-50.69165 -77.0605,-8.8558 -150.9942,-15.0266 -224.3694,-18.96225 -72.7637,-3.90286 -139.1256,-5.27261 -195.1541,-5.27261 z m 0,37.81515 v 18.86793 c 55.9187,0 121.0493,0.59523 193.5686,3.15627 72.9408,2.57593 146.0589,6.87694 222.9288,13.47676 119.09,10.22471 223.0762,23.76065 340.6056,39.2177 117.5025,15.4535 222.0471,29.0563 341.8507,39.33119 77.366,6.63526 151.0001,10.96128 224.4674,13.55245 73.0344,2.5759 138.631,3.17493 194.9247,3.17493 -55.9642,0 -122.2215,-1.36594 -194.8324,-5.25394 -73.2143,-3.92031 -146.9676,-10.0663 -223.8166,-18.88656 -118.8791,-13.6442 -223.3242,-31.02112 -339.8009,-50.57815 -116.4705,-19.55598 -221.1862,-36.99475 -340.3724,-50.69165 -77.0605,-8.8558 -150.9942,-15.02659 -224.3694,-18.96225 -72.7637,-3.90286 -139.1256,-5.2726 -195.1541,-5.2726 z m 0,37.81516 v 18.86792 c 55.9187,0 121.0493,0.59523 193.5686,3.15628 72.9408,2.57593 146.0589,6.87694 222.9288,13.47675 119.09,10.22471 223.0762,23.76065 340.6056,39.2177 117.5025,15.4535 222.0471,29.0563 341.8507,39.3312 77.366,6.63525 151.0001,10.96128 224.4674,13.55245 73.0344,2.5759 138.631,3.17493 194.9247,3.17493 -55.9642,0 -122.2215,-1.36594 -194.8324,-5.25394 -73.2143,-3.92032 -146.9676,-10.0663 -223.8166,-18.88656 -118.8791,-13.6442 -223.3242,-31.02113 -339.8009,-50.57815 -116.4705,-19.55598 -221.1862,-36.99475 -340.3724,-50.69165 -77.0605,-8.8558 -150.9942,-15.0266 -224.3694,-18.96225 -72.7637,-3.90286 -139.1256,-5.27261 -195.1541,-5.27261 z m 0,37.81515 v 18.86793 c 55.9187,0 121.0493,0.59523 193.5686,3.15627 72.9408,2.57593 146.0589,6.87694 222.9288,13.47676 119.09,10.22471 223.0762,23.76065 340.6056,39.2177 117.5025,15.4535 222.0471,29.0563 341.8507,39.33119 77.366,6.63526 151.0001,10.96128 224.4674,13.55245 73.0344,2.5759 138.631,3.17494 194.9247,3.17494 -55.9642,0 -122.2215,-1.36595 -194.8324,-5.25395 -73.2143,-3.92031 -146.9676,-10.0663 -223.8166,-18.88656 -118.8791,-13.6442 -223.3242,-31.02112 -339.8009,-50.57815 -116.4705,-19.55598 -221.1862,-36.99475 -340.3724,-50.69165 -77.0605,-8.8558 -150.9942,-15.02659 -224.3694,-18.96225 -72.7637,-3.90286 -139.1256,-5.2726 -195.1541,-5.2726 z m 0,37.81516 v 18.86792 c 55.9187,0 121.0493,0.59523 193.5686,3.15628 72.9408,2.57593 146.0589,6.87694 222.9288,13.47675 119.09,10.22471 223.0762,23.76065 340.6056,39.2177 117.5025,15.4535 222.0471,29.0563 341.8507,39.3312 77.366,6.63525 151.0001,10.96128 224.4674,13.55245 73.0344,2.5759 138.631,3.17493 194.9247,3.17493 -55.9642,0 -122.2215,-1.36594 -194.8324,-5.25394 -73.2143,-3.92032 -146.9676,-10.0663 -223.8166,-18.88656 -118.8791,-13.6442 -223.3242,-31.02113 -339.8009,-50.57815 -116.4705,-19.55598 -221.1862,-36.99475 -340.3724,-50.69165 -77.0605,-8.8558 -150.9942,-15.0266 -224.3694,-18.96225 -72.7637,-3.90286 -139.1256,-5.27261 -195.1541,-5.27261 z m 0,37.81515 v 18.86793 c 55.9187,0 121.0493,0.59523 193.5686,3.15627 72.9408,2.57593 146.0589,6.87694 222.9288,13.47676 119.09,10.22471 223.0762,23.76065 340.6056,39.2177 117.5025,15.4535 222.0471,29.0563 341.8507,39.33119 77.366,6.63526 151.0001,10.96128 224.4674,13.55245 73.0344,2.5759 138.631,3.17494 194.9247,3.17494 -55.9642,0 -122.2215,-1.36595 -194.8324,-5.25395 -73.2143,-3.92031 -146.9676,-10.0663 -223.8166,-18.88656 -118.8791,-13.6442 -223.3242,-31.02112 -339.8009,-50.57815 -116.4705,-19.55598 -221.1862,-36.99475 -340.3724,-50.69165 -77.0605,-8.8558 -150.9942,-15.02659 -224.3694,-18.96225 -72.7637,-3.90286 -139.1256,-5.2726 -195.1541,-5.2726 z m 0,37.81516 v 18.86792 c 55.9187,0 121.0493,0.59523 193.5686,3.15628 72.9408,2.57593 146.0589,6.87694 222.9288,13.47675 119.09,10.22471 223.0762,23.76065 340.6056,39.2177 117.5025,15.4535 222.0471,29.0563 341.8507,39.3312 77.366,6.63525 151.0001,10.96128 224.4674,13.55245 73.0344,2.5759 138.631,3.17493 194.9247,3.17493 -55.9642,0 -122.2215,-1.36594 -194.8324,-5.25394 -73.2143,-3.92032 -146.9676,-10.0663 -223.8166,-18.88656 -118.8791,-13.6442 -223.3242,-31.02113 -339.8009,-50.57815 -116.4705,-19.55598 -221.1862,-36.99475 -340.3724,-50.69165 -77.0605,-8.8558 -150.9942,-15.0266 -224.3694,-18.96225 -72.7637,-3.90286 -139.1256,-5.27261 -195.1541,-5.27261 z"
         id="use26"
         transform="matrix(0.22300099,0,0,0.37823052,-402.85121,237.25945)" />
    </pattern>
    <clipPath
       clipPathUnits="userSpaceOnUse"
       id="clipPath54">
      <path
         id="path336"
         style="stroke-width:0.0999999;stroke-linecap:square;paint-order:markers fill stroke;stop-color:#000000"
         d="m 1691.1994,-792.32001 h 1634.8919 v 92.82806 H 1691.1994 Z" />
    </clipPath>
    <clipPath
       clipPathUnits="userSpaceOnUse"
       id="clipPath33">
      <rect
         style="fill:#000000;stroke:none;stroke-width:0.999995;stroke-linecap:butt;stroke-linejoin:bevel;paint-order:stroke markers fill;stop-color:#000000"
         id="rect33"
         width="46.19186"
         height="80.006783"
         x="74.999985"
         y="399.99661" />
    </clipPath>
    <clipPath
       clipPathUnits="userSpaceOnUse"
       id="clipPath27">
      <rect
         style="fill:none;stroke:#000000;stroke-width:0.999999;stroke-linecap:butt;stroke-linejoin:bevel;paint-order:stroke markers fill;stop-color:#000000"
         id="rect28-6"
         width="46.160622"
         height="39.922417"
         x="86.574379"
         y="420.06253" />
    </clipPath>
    <clipPath
       clipPathUnits="userSpaceOnUse"
       id="clipPath25">
      <rect
         style="fill:#ff0000;stroke:none;stroke-width:3;stroke-linecap:square;stroke-linejoin:miter;paint-order:stroke markers fill;stop-color:#000000"
         id="rect25-8"
         width="78"
         height="45.033199"
         x="763.61322"
         y="452.82422" />
    </clipPath>
    <clipPath
       clipPathUnits="userSpaceOnUse"
       id="clipPath15">
      <rect
         style="fill:none;stroke:#000000;stroke-linecap:butt;stroke-linejoin:bevel;paint-order:stroke markers fill;stop-color:#000000"
         id="rect15-7"
         width="45.034248"
         height="38.955639"
         x="262.48285"
         y="121.00073" />
    </clipPath>
    <linearGradient
       id="swatch75">
      <stop
         style="stop-color:#000000;stop-opacity:1;"
         offset="0"
         id="stop75" />
    </linearGradient>
  </defs>
  <g
     id="layer70"
     style="display:inline">
    <g
       id="layer82"
       style="display:inline">
      <path
         style="baseline-shift:baseline;display:inline;overflow:visible;opacity:1;vector-effect:none;fill-rule:evenodd;enable-background:accumulate;stop-color:#000000;stop-opacity:1"
         d="m 591.61914,138.83398 c -2.16485,-0.0385 -4.50645,-0.0311 -7.01953,0.14844 -12.69827,0.90702 -16.42742,2.95631 -27.74219,5.4707 -4.96177,1.10262 -11.19446,1.61798 -18.17773,3.67188 -6.89413,2.02769 -10.41405,4.80652 -11.73438,5.11719 -2.90474,0.68347 -9.22716,-0.56093 -17.91211,1.85156 -8.26202,2.29501 -12.50327,6.4402 -14.70508,7.22656 0.31126,-0.11116 -3.8342,-1.04548 -10.99804,1.93946 l -0.89453,0.37304 -0.80664,0.53711 c -3.97798,2.65199 -5.31005,3.62588 -6.98243,4.81055 -3.5139,0.15798 -6.25385,0.9824 -11.66211,2.78515 -10.28664,3.42888 -14.40177,7.96651 -20.58593,11.0586 0.0343,-0.0172 -1.30044,0.32671 -3.94727,1.20898 -1.38102,0.46035 -3.36651,0.97825 -5.80859,1.95508 -0.31656,0.12663 -3.32447,0.426 -6.86328,3.96484 -1.50529,1.50529 -2.2581,2.74106 -2.78907,3.75782 -1.25288,0.28844 -2.79839,0.81804 -4.71289,2.18554 -4.47263,3.19473 -6.70795,6.51461 -8.26953,8.07618 -1.81597,1.81598 -4.76397,4.10388 -7.74804,7.83398 -7.23484,9.04354 -12.24559,19.97249 -16.61719,27.52344 -6.35541,10.97753 -17.63026,27.93375 -23.33594,41.41992 -3.74868,8.8605 -4.88257,16.95859 -7.11523,22.99609 -5.98967,13.16766 -8.82179,19.17742 -9.78907,21.17188 -0.19682,0.39902 -0.48736,0.9493 -0.625,1.24414 -0.0852,0.18247 -0.1354,0.28081 -0.28515,0.63867 -0.0374,0.0895 -0.0808,0.18996 -0.16797,0.42578 -0.0436,0.11791 -0.0984,0.26282 -0.1875,0.55469 -0.0891,0.29187 -0.40225,2.09653 -0.40235,2.09766 -1e-5,1.6e-4 1.56073,1.07456 2.07618,1.42968 -0.80123,2.67724 -1.53612,5.1904 -3.0586,9.75782 -0.71801,2.15403 -4.59255,6.27663 -7.06836,14.19921 -1.39906,4.47702 -2.18507,7.66568 -2.53711,10.59961 -0.35203,2.93394 -0.0443,5.8759 0.33399,7.58399 0.75665,3.41618 1.07797,1.54203 0.11328,7.8125 -0.25463,1.65508 -2.54559,5.54186 -3.52148,12.37305 -0.84494,5.91457 -0.0996,10.53543 -0.0996,13.68164 v 12.26757 14.01954 c 0,4.52109 -0.68263,10.1884 0.0605,16.87695 0.77588,6.98285 1.38106,11.92821 1.8711,15.42578 0.49003,3.49757 0.57907,4.92346 1.43359,7.55859 0.20324,0.62676 0.23127,1.33049 1.6582,3.22266 0.10184,1.29779 0.14425,1.71896 0.26172,3.24609 0.0676,0.87885 -0.74179,4.12261 0.0879,9.51563 0.93775,6.09535 2.7542,10.88993 3.64453,14.74805 0.44069,1.90962 0.6461,5.14712 1.91797,9.38671 1.62836,5.42783 3.26167,7.77416 3.24414,7.67774 0.0932,0.51257 -0.65416,3.74569 -0.11914,9.63086 0.42518,4.67692 1.5721,7.72544 1.82617,9.37695 0.55499,3.60738 0.48474,8.64742 1.89258,14.74805 0.99391,4.30692 1.67481,6.85746 3.05078,9.54687 0.84827,1.65799 2.45403,3.1966 3.82032,4.36914 0.14469,0.29544 0.90756,1.96751 2.01953,5.85938 0.54558,1.90954 0.0289,6.60524 1.625,13.52148 2.16788,9.39415 7.85398,17.46167 9.27539,20.87305 2.38686,5.72848 2.44435,6.86129 3.24023,9.90234 0.79588,3.04106 2.25072,6.99872 5.97266,13.82227 2.64331,4.84606 5.1579,6.86017 5.46094,7.36523 1.48995,2.48326 2.90758,5.87961 4.88867,9.8418 l 0.35156,0.70313 0.45508,0.63867 c 3.18631,4.46082 6.22818,8.19403 8.38281,11.69531 0.60819,0.98831 1.20218,5.89605 6.14063,11.73242 6.05634,7.15751 12.05277,9.81596 13.84375,12.05469 4.19538,5.24424 7.32821,13.73999 13.78711,22.47851 7.9939,10.81529 16.96872,18.96234 25.18554,27.11524 -1.66481,2.52276 -3.10509,4.64166 -4.75195,7.46484 -4.79221,8.21522 -8.11531,16.13099 -12.10938,22.52149 -3.53028,5.64846 -8.95807,11.48733 -13.92382,19.12695 -4.02461,6.1917 -6.2434,11.87899 -8.77344,15.78906 0.1139,-0.17602 -4.80758,6.4343 -9.12695,12.13867 -2.15969,2.85219 -4.33718,5.75246 -6.16797,8.27344 -1.83079,2.52099 -3.12645,4.21865 -4.39063,6.56641 -2.29286,4.25818 -3.79337,7.23198 -4.82031,9.54101 -0.51347,1.15452 -0.91242,2.1099 -1.27148,3.28321 -0.2028,0.66265 -0.75502,1.23254 -0.88282,2.52148 -1.70807,2.35444 -1.78342,2.38507 -4.625,6.36328 l 16.27344,11.625 c 6.15424,-8.61593 8.44457,-11.68449 9.72266,-13.38281 2.1e-4,-2.8e-4 0.002,-0.002 0.002,-0.002 0.79716,-1.0025 1.41862,-1.83161 1.90039,-2.51563 0.12044,-0.171 0.20789,-0.2875 0.44141,-0.6582 0.11675,-0.18535 0.15013,0.0451 0.8164,-1.57422 0.16657,-0.40483 0.66781,-2.50853 0.66797,-2.50977 3e-5,-2.2e-4 -0.87324,-1.38335 -1.24414,-1.9707 0.29056,-0.54888 0.30113,-0.63151 0.62891,-1.24023 -0.14056,0.26103 1.28255,-1.98111 2.96289,-4.29492 1.68034,-2.31382 3.80419,-5.14352 5.93164,-7.95313 4.25489,-5.61922 7.84952,-10.0645 9.97265,-13.3457 4.00433,-6.18851 6.2213,-11.86254 8.75196,-15.75586 3.69435,-5.68362 9.22165,-11.59916 14.11328,-19.42578 5.14819,-8.2371 8.52643,-16.35837 12.42578,-23.04297 0.42663,-0.73137 0.99242,-1.52725 1.45313,-2.26758 0.34809,0.44429 0.76898,0.96356 1.13867,1.42578 2.15571,2.69531 4.82194,5.59026 11.83398,11.96484 3.488,3.17091 6.74223,5.33826 9.08789,7.29297 3.72401,3.10334 7.67111,6.9877 12.57227,10.75782 4.43932,3.41486 8.27156,5.2646 10.47265,6.97656 l 1.52735,1.18945 0.73828,0.21094 c 0.0427,0.0893 -0.0588,-0.0365 0.0137,0.10156 0.75361,1.43514 1.84282,5.302 6.375,8.92774 2.65012,2.1201 5.00493,2.60311 6.34766,2.87304 0.65518,0.58423 1.2691,1.18435 2.43554,1.76758 0.78279,0.3914 1.46166,0.57091 2.14258,0.76367 0.48316,0.33994 0.71059,0.6639 1.36328,0.99024 0.71172,0.35586 1.57501,0.70698 2.64453,1.00195 l 1.38282,2.76367 2.98242,1.49024 c 2.23498,1.1175 2.83972,1.45596 1.97656,0.80859 -1.23679,-0.9276 -0.37161,0.93911 3.95899,3.82617 3.85602,2.57067 6.68704,3.34712 7.59375,3.86524 0.86224,0.49271 2.41231,1.73548 4.91992,3.30273 3.49126,2.18204 6.40221,3.62393 8.32617,4.9707 4.52208,3.16546 5.83126,4.54567 8.3457,6.71875 2.51445,2.17309 5.90523,4.67028 11.92578,7.91211 5.06378,2.72665 8.95153,3.76794 11.29297,4.85157 0.60621,0.83044 1.64936,2.22673 4.07422,3.68164 2.78032,1.66819 3.84693,2.4513 6.41211,3.39062 0.6413,0.23483 1.40156,0.53784 2.95313,0.67578 0.47091,0.0419 1.28295,-0.0783 1.99414,-0.13672 1.92041,0.92867 4.63906,1.65656 7.52148,1.08008 0.45501,-0.091 0.76613,-0.36402 1.19531,-0.52344 -0.44637,0.12608 -0.86606,0.26528 -1.45703,0.33399 -0.85789,0.0997 -2.98909,-0.10367 -2.98828,-0.10352 6.6e-4,1.3e-4 -1.84573,-0.69243 -2.64453,-0.99218 1.25212,-0.3314 2.61509,-0.91581 3.93164,-2.03125 1.85428,-1.57103 2.62141,-3.38759 3.06445,-5.01172 h 7.42969 c 0,-0.59844 0.007,-0.58303 0.0254,-0.82032 0.005,-0.0593 0.0146,-0.12887 0.0293,-0.46093 0.0147,-0.33207 0.62189,-0.28461 -0.50586,-3.66797 -0.14097,-0.42292 -0.33384,-0.91881 -0.63867,-1.49805 -0.30484,-0.57923 -1.33728,-1.94461 -1.33789,-1.94531 -6.2e-4,-7e-4 -2.42898,-2.0113 -2.42969,-2.01172 -4.8e-4,-2.8e-4 -1.21068,-0.45492 -2.17383,-0.81641 -0.85447,-0.65129 -1.87209,-1.29201 -3.31055,-1.77148 -1.35609,-0.45203 -2.53569,-0.79925 -4.08007,-1.00586 -0.6639,-0.0888 -1.5318,-0.17319 -2.49024,-0.14648 -0.73251,-0.92995 -1.80522,-2.13899 -4.00195,-3.35938 -5.59599,-3.10889 -10.10912,-4.09602 -12.38281,-5.32031 -5.19313,-2.7963 -6.48675,-3.84051 -8.33008,-5.4336 -1.84333,-1.59308 -4.56648,-4.20199 -9.95313,-7.97265 -3.65684,-2.55979 -6.91176,-4.11648 -9.19726,-5.54492 -1.06444,-0.66527 -2.80063,-2.10985 -5.59571,-3.70703 -3.62963,-2.07409 -5.93259,-2.81705 -6.42382,-3.14454 1.58115,1.05411 0.82759,-0.27333 -3.05274,-3.18359 -0.63194,-0.47395 -1.00135,-0.59949 -1.53515,-0.92383 -0.57692,-0.98563 -1.34489,-2.0988 -2.6504,-3.40429 -1.82585,-1.82586 -2.35985,-2.6019 -4.63867,-4.11524 -0.5697,-0.37833 -1.23901,-0.89333 -2.98437,-1.4082 -0.62632,-0.18476 -1.81223,-0.18902 -2.92969,-0.19141 -0.41487,-0.16658 -0.81933,-0.31975 -1.20117,-0.42773 -0.48254,-0.3393 -0.70793,-0.66257 -1.35938,-0.98828 -1.49665,-0.74834 -2.64951,-1.09413 -3.55468,-1.29883 -0.28174,-0.47448 -0.56164,-0.91988 -1.08985,-1.92578 -1.20995,-2.3042 -4.01807,-6.25189 -8.49023,-8.52539 -4.09109,-3.0531 -7.68025,-4.89617 -9.77539,-6.50782 -3.63627,-2.79712 -7.41036,-6.47934 -11.96094,-10.27148 -3.40118,-2.83431 -6.39022,-4.8654 -8.4375,-6.72656 -6.70896,-6.09906 -8.01291,-7.58448 -9.66992,-9.65625 -1.06348,-1.32968 -2.92876,-3.62975 -5.54883,-6.66993 5.04044,-8.81092 9.29311,-17.61093 13.76562,-25.81054 5.61003,-10.28505 11.91097,-20.643 17.63477,-31.75391 4.74908,-9.2188 8.27558,-18.30118 12.32227,-26.39453 8.32076,-16.64153 17.6833,-30.86233 24.93945,-49.99219 3.84472,-10.13609 5.86417,-19.86722 8.83594,-28.24218 5.82322,-16.4109 8.35099,-21.14194 11.10156,-27.57422 2.75057,-6.43228 5.29654,-13.78681 10.18945,-32.86914 3.16235,-12.3332 4.69909,-24.3246 7.09766,-35.41797 2.06528,-9.55194 4.87426,-19.41189 7.03125,-29.88867 7.13867,-34.6735 4.13645,-25.89212 8.87305,-60.23243 0.91984,-6.66889 2.26382,-13.55757 3.46289,-20.75195 1.15458,-6.92752 2.41946,-13.96383 3.52539,-21.15234 1.28884,-8.37753 2.28045,-16.58271 3.5039,-24.53516 1.03876,-6.75195 2.41108,-13.74183 3.50977,-21.06641 0.78748,-5.24983 1.07055,-9.9096 1.72851,-13.85742 0.91973,-5.5184 2.18203,-11.20152 3.42579,-17.10937 0.93947,-4.46251 2.85453,-9.89921 3.65039,-16.66407 0.78764,-6.69496 -0.18109,-11.55798 0.0391,-14.41992 0.0471,-0.6126 1.30782,-3.41637 1.74805,-8.69922 0.43153,-5.17835 0.0352,-9.56229 0.0352,-13.09765 V 205.03516 180.5 171.73828 c 0,-1.48606 0.12787,-3.83306 0.0684,-6.56641 0.74596,-1.93655 1.15644,-4.07207 0.79688,-6.10351 -0.76803,-4.33922 -3.00177,-6.26698 -4.31055,-7.4707 -0.12412,-0.11416 -0.12843,-0.095 -0.24609,-0.19922 -0.10153,-0.70677 -0.0408,-1.23757 -0.32813,-2.09961 -0.476,-1.42801 -0.73948,-2.89728 -2.94141,-5.26367 -1.16611,-1.25321 -3.37444,-2.16844 -5.52148,-2.70899 -0.57448,-0.44725 -0.94253,-0.88142 -1.80859,-1.31445 -2.92789,-1.46394 -5.41331,-1.20212 -6.40821,-1.09375 -0.99489,0.10837 -1.01504,0.0391 0.1836,0.0391 h -3.50391 -5.25781 c -1.80702,0 -3.79609,-0.0845 -5.96094,-0.12305 z m 25.01172,4.55469 c 0.43356,0.45115 0.53637,0.71076 0.40625,0.5332 -0.0455,-0.0621 -0.30317,-0.37815 -0.40625,-0.5332 z m 4.16797,5.92578 c 0.0851,-0.0409 0.35739,0.34357 0.64453,0.68946 -0.14833,-0.10892 -0.5491,-0.44472 -0.62695,-0.50586 -0.0807,-0.0634 -0.0822,-0.15254 -0.0176,-0.1836 z m -17.33008,3.37696 c -0.009,0.0602 -0.0377,0.33002 -0.0566,0.42382 0.007,-0.5518 0.10458,-0.73483 0.0566,-0.42382 z m 19.82227,2.62304 c -0.008,0.55087 -0.10455,0.73461 -0.0566,0.42383 0.009,-0.0601 0.0377,-0.33014 0.0566,-0.42383 z m -22.38672,0.42969 c 0.0455,0.0621 0.30317,0.37815 0.40625,0.5332 -0.43356,-0.45114 -0.53637,-0.71075 -0.40625,-0.5332 z m -14.87891,3.1875 c 3.13107,-0.22365 6.9907,0.0254 11.55469,0.0254 h 5.25781 1 c 0.0221,0.0696 0.004,0.10128 0.0273,0.17188 1.04818,3.14453 2.11113,4.30341 3.0586,5.01562 l 0.01,0.0723 c 0.15715,1.25715 -0.0762,3.77386 -0.0762,7.52148 v 8.76172 24.53516 10.51367 c 0,4.64265 0.28083,8.46607 0.0332,11.4375 -0.0545,0.65371 -1.34803,3.49724 -1.75781,8.82422 v 0.002 c -0.49667,6.45684 0.34346,11.02987 0.0391,13.61719 -0.46263,3.93246 -2.07793,8.80332 -3.35742,14.88086 -1.2107,5.75084 -2.54503,11.70571 -3.58398,17.93945 -0.89051,5.34308 -1.16759,10.11468 -1.77735,14.17969 -1.00965,6.73102 -2.37759,13.69655 -3.5,20.99218 -1.28884,8.37752 -2.28045,16.5827 -3.5039,24.53516 -1.05524,6.85907 -2.30435,13.81236 -3.48633,20.9043 -1.13751,6.82508 -2.52472,13.89598 -3.54687,21.30664 -4.82931,35.01241 -1.59768,24.67761 -8.6504,58.93359 -1.95739,9.50736 -4.74168,19.30479 -6.98828,29.69531 -2.63717,12.19695 -4.16777,23.92912 -6.92382,34.67774 -4.79165,18.6874 -6.82914,24.4119 -9.20704,29.97266 -2.37789,5.56075 -5.52183,11.7373 -11.55859,28.75 -3.57735,10.08161 -5.58664,19.66095 -8.6875,27.83593 -6.37223,16.79955 -15.20827,30.30129 -24.12891,48.14258 -4.60181,9.20363 -8.10572,18.20695 -12.21289,26.17969 -5.29305,10.27475 -11.50456,20.49991 -17.41406,31.33398 -3.80501,6.97585 -7.21741,13.61915 -10.74805,20.16211 -7.26837,-7.14147 -14.27995,-13.92104 -19.74609,-21.3164 -4.14096,-5.60248 -7.30706,-14.40482 -14.25195,-23.08594 -5.96716,-7.45896 -12.22966,-10.15546 -14.19532,-12.47852 -0.12386,-0.14639 -0.87577,-3.61064 -4.375,-9.29687 -2.94398,-4.78398 -6.0818,-8.64411 -8.66406,-12.19727 -1.42903,-2.94664 -2.92728,-6.53895 -5.29687,-10.48828 -2.70236,-4.50394 -4.89887,-6.37025 -5.05274,-6.65234 -3.33013,-6.10524 -3.65979,-7.30717 -4.18359,-9.3086 -0.5238,-2.00142 -1.32025,-5.79515 -4.12695,-12.53125 -2.94593,-7.07022 -7.69107,-15.25763 -8.25,-17.67968 -0.52191,-2.2616 0.16117,-7.37048 -1.88086,-14.51758 -1.36513,-4.77795 -2.38853,-7.70061 -3.85547,-10.34961 -0.85779,-1.549 -2.28583,-2.99822 -3.59571,-4.16602 -0.0401,-0.16218 -0.45184,-1.10121 -1.18164,-4.26367 -0.71013,-3.07721 -0.73602,-7.58888 -1.61328,-13.29101 -0.65174,-4.23634 -1.56162,-6.89075 -1.67578,-8.14649 -0.0996,-1.09577 1.03965,-5.01435 -0.12109,-11.39844 -1.14297,-6.28636 -3.58614,-9.24743 -3.76563,-9.8457 -0.43988,-1.46629 -0.6871,-4.24373 -1.58593,-8.13867 -1.27595,-5.52912 -2.83807,-9.86443 -3.36524,-13.29102 -0.0585,-0.38049 0.46635,-3.06242 0.0859,-8.00781 -0.48236,-6.27067 -0.8306,-10.57995 -1.08789,-13.48437 -0.2573,-2.90442 -0.0196,-3.03145 -0.73242,-6.02735 -0.0891,-0.37449 -0.0889,-0.7483 -0.74414,-2.11523 -0.26966,-0.56256 -0.75155,-1.48637 -2.0254,-2.72657 -0.24652,-2.07406 -0.40232,-3.10336 -0.69921,-5.77539 -0.41797,-3.76172 0.0625,-8.67446 0.0625,-14.66796 V 420.58407 408.3165 c 0,-5.03182 -0.41317,-8.6703 -0.10157,-10.85157 0.22695,-1.58859 2.45158,-5.41081 3.49024,-12.16211 1.28111,-8.32725 -0.12372,-14.1402 -0.35352,-15.17773 -0.1149,-0.51877 -0.1175,0.0698 -0.004,-0.87695 0.11359,-0.94677 0.56616,-3.16485 1.76953,-7.01563 0.64101,-2.05125 4.36671,-6.08061 6.95312,-13.83984 2.17066,-6.51197 3.60364,-11.13085 4.53516,-14.4961 0.93152,-3.36524 1.65469,-4.31827 1.49023,-8.51171 -0.001,-0.0342 -0.009,-0.0976 -0.01,-0.13282 1.6971,-3.63955 2.25479,-4.73828 5.86718,-12.68554 l 0.14063,-0.3086 0.11914,-0.31836 c 3.30979,-8.82613 4.44348,-16.69543 6.85547,-22.39648 4.22528,-9.98703 15.31399,-27.2515 22.22656,-39.19141 5.0634,-8.74585 10.00246,-18.89418 14.92774,-25.05078 1.14442,-1.43053 3.41432,-3.32837 6.27148,-6.18555 2.73842,-2.73841 4.08196,-4.34437 5.06055,-5.23046 1.31243,-0.19012 3.58504,-0.55476 6.38281,-2.79297 2.63575,-2.1086 3.64766,-4.20166 4.24609,-5.42383 0.13449,-0.0587 0.0683,-0.0465 0.23047,-0.11133 0.98812,-0.39525 2.58122,-0.84087 4.70508,-1.54883 0.85803,-0.286 3.22767,-0.62556 6.56641,-2.29492 9.03181,-4.51591 11.51815,-7.82311 17.96679,-9.97266 2.14166,-0.71388 3.54951,-1.04352 4.7168,-1.32031 0.6852,0.17924 1.2875,0.36636 1.78906,0.40235 3.27015,0.23464 4.09013,-0.53282 4.75391,-0.82422 0.66378,-0.2914 0.95199,-0.47403 1.17969,-0.61133 1.82153,-1.09844 1.18192,-0.80971 1.77539,-1.24219 1.00931,-0.73552 3.893,-2.73857 7.82226,-5.38672 0.0208,0.27396 3.22724,0.71334 9.70899,-1.60156 7.63891,-2.72818 11.52579,-6.29124 13.33203,-6.79297 2.62787,-0.72997 8.61435,0.35339 17.13867,-1.65234 7.34057,-1.7272 11.15708,-4.91557 12.79883,-5.39844 4.44685,-1.3079 10.20233,-1.85399 16.87109,-3.33594 12.55883,-2.79085 13.90117,-4.26428 24.83008,-5.04492 z m -99.57422,23.27148 c -0.1211,0.87319 -0.32644,1.44425 -0.44531,1.79883 -0.82939,2.47413 -0.5599,1.35987 -0.32227,0.84375 0.20007,-0.43452 0.52897,-1.40795 0.76758,-2.64258 z m -61.34765,12.0918 c 0.37343,-0.12109 0.4075,-0.0402 -0.0274,0.0332 -0.007,10e-4 -0.0352,0.007 -0.043,0.008 0.0139,-0.005 0.0572,-0.0368 0.0703,-0.041 z M 364.83789,331.9707 c -0.0846,0.11187 0.17934,0.59163 -0.74023,1.30469 0.43097,-0.75756 0.97751,-1.61843 0.74023,-1.30469 z m 171.52539,455.34766 c 0.0168,-5.5e-4 0.0455,0.006 0.0625,0.006 -0.55121,0.10899 -1.28749,0.23171 -1.38281,0.25195 -0.15375,0.0327 0.33082,-0.22535 1.32031,-0.25781 z m 6.66406,2.71875 c 0.43355,0.45113 0.53638,0.71076 0.40625,0.5332 -0.0455,-0.062 -0.3033,-0.37834 -0.40625,-0.5332 z m 3.50586,1.75195 c 0.43356,0.45115 0.53637,0.71076 0.40625,0.53321 -0.0455,-0.0621 -0.30317,-0.37815 -0.40625,-0.53321 z m -19.23047,10.60352 c 0.0452,0.0617 0.3023,0.37576 0.4043,0.52929 -0.43252,-0.45037 -0.53429,-0.70667 -0.4043,-0.52929 z m 3.50391,1.75195 c 0.0455,0.0621 0.30317,0.37815 0.40625,0.5332 -0.43356,-0.45114 -0.53637,-0.71075 -0.40625,-0.5332 z m 8.39258,2.99414 c 0.0885,-0.0188 -0.45115,0.0731 -0.75977,0.14844 -0.008,-0.003 -0.007,-0.005 -0.0156,-0.008 0.20151,-0.0579 0.72194,-0.12928 0.77539,-0.14063 z m 88.05859,33.83203 c 0.52658,0.55932 0.66959,0.89316 0.47656,0.61328 -0.0546,-0.0792 -0.36513,-0.44171 -0.47656,-0.61328 z m -217.63476,5.79492 c -0.0627,1.07249 -0.55221,1.23264 -0.58203,1.33008 -0.0508,0.16602 0.096,-0.28145 0.41992,-1.00976 0.0253,-0.057 0.13464,-0.25953 0.16211,-0.32032 z m 202.57422,0.8086 c -0.0107,0.13913 -0.0282,0.85044 -0.0488,1.38086 -0.065,-0.72404 0.032,-1.03103 0.0391,-1.19141 0.0118,-0.2676 0.0143,-0.24878 0.01,-0.18945 z m 0.17578,2.35547 h 11.63281 c -0.83075,1.8546 -2.02598,3.73828 -3.79883,4.72461 -2.18725,1.21688 -3.41057,1.24774 -4.24023,1.16601 -0.64954,-0.53795 -1.30697,-1.0824 -1.30664,-1.08203 6.1e-4,7e-4 -1.03214,-1.36414 -1.33594,-1.94141 -0.3038,-0.57726 -0.49465,-1.07183 -0.63477,-1.49218 -0.26284,-0.78855 -0.21374,-0.91692 -0.3164,-1.375 z"
         id="path446" />
    </g>
  </g>
</svg>
