<?xml version="1.0" encoding="UTF-8" standalone="no"?>
<!-- Created with Inkscape (http://www.inkscape.org/) -->

<svg
   width="1000"
   height="1000"
   viewBox="0 0 1000 1000"
   version="1.1"
   id="svg1"
   xmlns:xlink="http://www.w3.org/1999/xlink"
   xmlns="http://www.w3.org/2000/svg"
   xmlns:svg="http://www.w3.org/2000/svg">
  <defs
     id="defs1">
    <pattern
       xlink:href="#pattern359"
       preserveAspectRatio="xMidYMid"
       id="pattern372"
       patternTransform="matrix(0.5,0,0,0.5,147.15462,1548.2922)" />
    <pattern
       xlink:href="#pattern357"
       preserveAspectRatio="xMidYMid"
       id="pattern371"
       patternTransform="matrix(0.5,0,0,0.5,221.32076,1552.4298)" />
    <pattern
       xlink:href="#pattern358"
       preserveAspectRatio="xMidYMid"
       id="pattern370"
       patternTransform="matrix(0.5,0,0,0.5,230.96346,1527.8214)" />
    <pattern
       xlink:href="#pattern355"
       preserveAspectRatio="xMidYMid"
       id="pattern369"
       patternTransform="matrix(0.5,0,0,0.5,287.08178,1553.6581)" />
    <pattern
       xlink:href="#pattern354"
       preserveAspectRatio="xMidYMid"
       id="pattern368"
       patternTransform="matrix(0.5,0,0,0.5,230.97274,1529.1717)" />
    <pattern
       xlink:href="#pattern342"
       preserveAspectRatio="xMidYMid"
       id="pattern360"
       patternTransform="matrix(0.5,0,0,0.5,210.45332,1525.5392)" />
    <pattern
       xlink:href="#pattern342"
       preserveAspectRatio="xMidYMid"
       id="pattern359"
       patternTransform="matrix(0.5,0,0,0.5,152.11125,1550.7705)" />
    <pattern
       xlink:href="#pattern342"
       preserveAspectRatio="xMidYMid"
       id="pattern358"
       patternTransform="matrix(0.5,0,0,0.5,202.11125,1533.2444)" />
    <pattern
       xlink:href="#pattern342"
       preserveAspectRatio="xMidYMid"
       id="pattern357"
       patternTransform="matrix(0.5,0,0,0.5,211.4075,1546.234)" />
    <pattern
       xlink:href="#pattern342"
       preserveAspectRatio="xMidYMid"
       id="pattern356"
       patternTransform="matrix(0.5,0,0,0.5,232.14929,1573.2544)" />
    <pattern
       xlink:href="#pattern342"
       preserveAspectRatio="xMidYMid"
       id="pattern355"
       patternTransform="matrix(0.5,0,0,0.5,275,1552.7287)" />
    <pattern
       xlink:href="#pattern342"
       preserveAspectRatio="xMidYMid"
       id="pattern354"
       patternTransform="matrix(0.5,0,0,0.5,235,1529.7913)" />
    <pattern
       xlink:href="#shading24"
       preserveAspectRatio="xMidYMid"
       id="pattern342"
       patternTransform="matrix(0.5,0,0,0.5,213.95332,1537.5392)"
       x="0"
       y="0" />
    <pattern
       patternUnits="userSpaceOnUse"
       width="338.5925"
       height="42.989567"
       patternTransform="translate(213.95332,1537.5392) scale(0.5)"
       preserveAspectRatio="xMidYMid"
       id="shading24"
       style="fill:#000000">
      <path
         style="fill-rule:nonzero;stroke:none;stroke-width:0.1;stroke-linecap:square;paint-order:markers fill stroke;stop-color:#000000"
         d="m 1806.4991,-758.06464 v 18.86792 c 55.9187,0 121.0493,0.59523 193.5686,3.15628 72.9408,2.57593 146.0589,6.87694 222.9288,13.47675 119.09,10.22471 223.0762,23.76065 340.6056,39.2177 117.5025,15.4535 222.0471,29.0563 341.8507,39.3312 77.366,6.63525 151.0001,10.96128 224.4674,13.55245 73.0344,2.5759 138.631,3.17493 194.9247,3.17493 -55.9642,0 -122.2215,-1.36594 -194.8324,-5.25394 -73.2143,-3.92032 -146.9676,-10.0663 -223.8166,-18.88656 -118.8791,-13.6442 -223.3242,-31.02113 -339.8009,-50.57815 -116.4705,-19.55598 -221.1862,-36.99475 -340.3724,-50.69165 -77.0605,-8.8558 -150.9942,-15.0266 -224.3694,-18.96225 -72.7637,-3.90286 -139.1256,-5.27261 -195.1541,-5.27261 z m 0,37.81515 v 18.86793 c 55.9187,0 121.0493,0.59523 193.5686,3.15627 72.9408,2.57593 146.0589,6.87694 222.9288,13.47676 119.09,10.22471 223.0762,23.76065 340.6056,39.2177 117.5025,15.4535 222.0471,29.0563 341.8507,39.33119 77.366,6.63526 151.0001,10.96128 224.4674,13.55245 73.0344,2.5759 138.631,3.17493 194.9247,3.17493 -55.9642,0 -122.2215,-1.36594 -194.8324,-5.25394 -73.2143,-3.92031 -146.9676,-10.0663 -223.8166,-18.88656 -118.8791,-13.6442 -223.3242,-31.02112 -339.8009,-50.57815 -116.4705,-19.55598 -221.1862,-36.99475 -340.3724,-50.69165 -77.0605,-8.8558 -150.9942,-15.02659 -224.3694,-18.96225 -72.7637,-3.90286 -139.1256,-5.2726 -195.1541,-5.2726 z m 0,37.81516 v 18.86792 c 55.9187,0 121.0493,0.59523 193.5686,3.15628 72.9408,2.57593 146.0589,6.87694 222.9288,13.47675 119.09,10.22471 223.0762,23.76065 340.6056,39.2177 117.5025,15.4535 222.0471,29.0563 341.8507,39.3312 77.366,6.63525 151.0001,10.96128 224.4674,13.55245 73.0344,2.5759 138.631,3.17493 194.9247,3.17493 -55.9642,0 -122.2215,-1.36594 -194.8324,-5.25394 -73.2143,-3.92032 -146.9676,-10.0663 -223.8166,-18.88656 -118.8791,-13.6442 -223.3242,-31.02113 -339.8009,-50.57815 -116.4705,-19.55598 -221.1862,-36.99475 -340.3724,-50.69165 -77.0605,-8.8558 -150.9942,-15.0266 -224.3694,-18.96225 -72.7637,-3.90286 -139.1256,-5.27261 -195.1541,-5.27261 z m 0,37.81515 v 18.86793 c 55.9187,0 121.0493,0.59523 193.5686,3.15627 72.9408,2.57593 146.0589,6.87694 222.9288,13.47676 119.09,10.22471 223.0762,23.76065 340.6056,39.2177 117.5025,15.4535 222.0471,29.0563 341.8507,39.33119 77.366,6.63526 151.0001,10.96128 224.4674,13.55245 73.0344,2.5759 138.631,3.17494 194.9247,3.17494 -55.9642,0 -122.2215,-1.36595 -194.8324,-5.25395 -73.2143,-3.92031 -146.9676,-10.0663 -223.8166,-18.88656 -118.8791,-13.6442 -223.3242,-31.02112 -339.8009,-50.57815 -116.4705,-19.55598 -221.1862,-36.99475 -340.3724,-50.69165 -77.0605,-8.8558 -150.9942,-15.02659 -224.3694,-18.96225 -72.7637,-3.90286 -139.1256,-5.2726 -195.1541,-5.2726 z m 0,37.81516 v 18.86792 c 55.9187,0 121.0493,0.59523 193.5686,3.15628 72.9408,2.57593 146.0589,6.87694 222.9288,13.47675 119.09,10.22471 223.0762,23.76065 340.6056,39.2177 117.5025,15.4535 222.0471,29.0563 341.8507,39.3312 77.366,6.63525 151.0001,10.96128 224.4674,13.55245 73.0344,2.5759 138.631,3.17493 194.9247,3.17493 -55.9642,0 -122.2215,-1.36594 -194.8324,-5.25394 -73.2143,-3.92032 -146.9676,-10.0663 -223.8166,-18.88656 -118.8791,-13.6442 -223.3242,-31.02113 -339.8009,-50.57815 -116.4705,-19.55598 -221.1862,-36.99475 -340.3724,-50.69165 -77.0605,-8.8558 -150.9942,-15.0266 -224.3694,-18.96225 -72.7637,-3.90286 -139.1256,-5.27261 -195.1541,-5.27261 z m 0,37.81515 v 18.86793 c 55.9187,0 121.0493,0.59523 193.5686,3.15627 72.9408,2.57593 146.0589,6.87694 222.9288,13.47676 119.09,10.22471 223.0762,23.76065 340.6056,39.2177 117.5025,15.4535 222.0471,29.0563 341.8507,39.33119 77.366,6.63526 151.0001,10.96128 224.4674,13.55245 73.0344,2.5759 138.631,3.17494 194.9247,3.17494 -55.9642,0 -122.2215,-1.36595 -194.8324,-5.25395 -73.2143,-3.92031 -146.9676,-10.0663 -223.8166,-18.88656 -118.8791,-13.6442 -223.3242,-31.02112 -339.8009,-50.57815 -116.4705,-19.55598 -221.1862,-36.99475 -340.3724,-50.69165 -77.0605,-8.8558 -150.9942,-15.02659 -224.3694,-18.96225 -72.7637,-3.90286 -139.1256,-5.2726 -195.1541,-5.2726 z m 0,37.81516 v 18.86792 c 55.9187,0 121.0493,0.59523 193.5686,3.15628 72.9408,2.57593 146.0589,6.87694 222.9288,13.47675 119.09,10.22471 223.0762,23.76065 340.6056,39.2177 117.5025,15.4535 222.0471,29.0563 341.8507,39.3312 77.366,6.63525 151.0001,10.96128 224.4674,13.55245 73.0344,2.5759 138.631,3.17493 194.9247,3.17493 -55.9642,0 -122.2215,-1.36594 -194.8324,-5.25394 -73.2143,-3.92032 -146.9676,-10.0663 -223.8166,-18.88656 -118.8791,-13.6442 -223.3242,-31.02113 -339.8009,-50.57815 -116.4705,-19.55598 -221.1862,-36.99475 -340.3724,-50.69165 -77.0605,-8.8558 -150.9942,-15.0266 -224.3694,-18.96225 -72.7637,-3.90286 -139.1256,-5.27261 -195.1541,-5.27261 z"
         id="use26"
         transform="matrix(0.22300099,0,0,0.37823052,-402.85121,237.25945)" />
    </pattern>
    <clipPath
       clipPathUnits="userSpaceOnUse"
       id="clipPath54">
      <path
         id="path336"
         style="stroke-width:0.0999999;stroke-linecap:square;paint-order:markers fill stroke;stop-color:#000000"
         d="m 1691.1994,-792.32001 h 1634.8919 v 92.82806 H 1691.1994 Z" />
    </clipPath>
    <clipPath
       clipPathUnits="userSpaceOnUse"
       id="clipPath33">
      <rect
         style="fill:#000000;stroke:none;stroke-width:0.999995;stroke-linecap:butt;stroke-linejoin:bevel;paint-order:stroke markers fill;stop-color:#000000"
         id="rect33"
         width="46.19186"
         height="80.006783"
         x="74.999985"
         y="399.99661" />
    </clipPath>
    <clipPath
       clipPathUnits="userSpaceOnUse"
       id="clipPath27">
      <rect
         style="fill:none;stroke:#000000;stroke-width:0.999999;stroke-linecap:butt;stroke-linejoin:bevel;paint-order:stroke markers fill;stop-color:#000000"
         id="rect28-6"
         width="46.160622"
         height="39.922417"
         x="86.574379"
         y="420.06253" />
    </clipPath>
    <clipPath
       clipPathUnits="userSpaceOnUse"
       id="clipPath25">
      <rect
         style="fill:#ff0000;stroke:none;stroke-width:3;stroke-linecap:square;stroke-linejoin:miter;paint-order:stroke markers fill;stop-color:#000000"
         id="rect25-8"
         width="78"
         height="45.033199"
         x="763.61322"
         y="452.82422" />
    </clipPath>
    <clipPath
       clipPathUnits="userSpaceOnUse"
       id="clipPath15">
      <rect
         style="fill:none;stroke:#000000;stroke-linecap:butt;stroke-linejoin:bevel;paint-order:stroke markers fill;stop-color:#000000"
         id="rect15-7"
         width="45.034248"
         height="38.955639"
         x="262.48285"
         y="121.00073" />
    </clipPath>
    <linearGradient
       id="swatch75">
      <stop
         style="stop-color:#000000;stop-opacity:1;"
         offset="0"
         id="stop75" />
    </linearGradient>
  </defs>
  <g
     id="layer70"
     style="display:inline">
    <g
       id="layer83"
       style="display:inline">
      <path
         style="baseline-shift:baseline;display:inline;overflow:visible;opacity:1;vector-effect:none;fill-rule:evenodd;enable-background:accumulate;stop-color:#000000;stop-opacity:1"
         d="m 757.50391,494.34375 c -2.32551,0.12768 -3.99074,0.11338 -6.83008,2.69336 -1.59933,0.24596 -3.73732,0.77961 -6.57617,2.08984 -6.44995,2.9769 -14.48528,8.81223 -22.93164,14.78321 -8.44636,5.97097 -16.5886,11.97846 -17.24219,12.44531 -7.80576,5.57555 -16.61591,10.97091 -25.08008,17.9414 -20.58303,16.95073 -27.56972,23.5319 -33.41211,29.67774 -5.84239,6.14584 -10.01573,11.22739 -26.65234,26.82422 -9.71962,9.11214 -21.14931,17.63758 -31.77539,28.26367 -11.73004,11.73003 -21.3981,24.33372 -31.73243,35.24219 -16.18872,17.08809 -23.99823,25.05638 -28.16015,29.15429 -0.30765,0.10731 -0.74175,0.20079 -0.85742,0.26954 -0.59405,0.35302 -0.86139,0.56766 -1.07618,0.73632 -1.71826,1.34932 -1.16445,1.06524 -1.33593,1.25196 -0.31753,0.34572 -0.61527,0.73831 -0.9043,1.08203 0.0707,-0.0456 0.12652,-0.0388 0.16992,-0.10156 0.45946,-0.66423 0.10714,-0.14858 -0.27539,0.32226 -0.005,0.007 -0.0609,0.0713 -0.0664,0.0781 0.0167,-0.0267 0.0716,-0.17544 0.0859,-0.19532 -0.30829,0.36989 -0.6087,0.69139 -0.96289,1.15235 -0.0618,0.0804 -0.17281,0.27157 -0.23242,0.3457 -1.85963,2.26436 -6.14584,7.38465 -17.51953,20.57813 -16.22849,18.82505 -23.99922,26.39927 -35,42.06054 V 713.2402 693.96286 c 0,-7.10139 0.60638,-14.96414 -0.0274,-23.51953 -0.68173,-9.20343 -2.54895,-17.50098 -3.56445,-25.11719 -1.17155,-8.7867 -1.63023,-18.44205 -3.59961,-28.61719 -1.8959,-9.79549 -4.92624,-18.64544 -7.17187,-26.98632 -1.61632,-6.00348 -2.94911,-12.82816 -5.48242,-20.00586 -1.85459,-5.25468 -4.3615,-8.89293 -5.74415,-11.65821 -0.53848,-1.07698 -0.45519,-0.83238 -0.64648,-1.17578 -0.15814,-1.86451 -1.02555,-4.72672 -2.97852,-6.67969 -3.21202,-3.21209 -7.07458,-3.12869 -8.7832,-2.93945 0.51455,0.0145 0.91407,0.0547 0.14258,-0.0293 -0.9949,-0.10837 -3.48032,-0.36823 -6.4082,1.09571 -0.35828,0.17919 -0.57668,0.36681 -0.88282,0.55078 -1.25457,0.0945 -2.69865,0.36396 -4.37304,1.20117 -4.88238,2.44119 -7.19736,5.24141 -8.34961,6.06445 -4.07149,2.90821 -4.46006,2.86922 -6.70117,4.39649 -2.24112,1.52726 -4.29284,3.35235 -10.04297,8.66015 -3.9505,3.64662 -9.03923,7.69099 -13.48242,13.61524 -5.16819,6.89091 -6.8013,13.05285 -8.86915,15.91601 -4.31112,5.96925 -8.22052,9.69406 -12.70117,14.26563 -4.48064,4.57157 -9.45825,10.02062 -14.14062,18.13672 -6.11888,10.60605 -9.7851,21.28115 -14.30274,30.3164 -7.2653,14.53061 -9.43965,17.8098 -11.89648,22.10157 -2.45683,4.29176 -4.77489,8.96776 -11.15039,24.03711 -3.32992,7.87072 -6.07308,15.67188 -8.90235,23.13086 -3.66697,9.66746 -6.67547,19.05983 -10.35546,27.64648 -2.97463,6.94079 -3.92079,8.69481 -5.34375,11.66016 v -25.2461 c 0,-9.58425 -0.32246,-18.81686 -0.006,-27.68164 0.29596,-8.28708 0.58746,-12.91198 0.85156,-15.44922 0.26409,-2.53724 0.32518,-2.53532 0.67773,-3.7207 0.70511,-2.37075 2.15525,-7.39217 3.69922,-25.91992 0.62958,-7.55491 -0.39127,-13.40038 -0.01,-17.40625 0.8108,-8.51343 1.4495,-12.91697 1.80273,-14.62891 0.31784,-0.39209 0.66045,-0.72695 0.91016,-1.14844 1.01628,-1.7154 1.46205,-3.19876 1.87304,-4.83398 0.82199,-3.27044 1.47622,-7.64533 2.40821,-16.0332 1.46047,-13.14433 -1.11736,-22.68666 1.23437,-29.29492 l -18.84179,-6.70704 c -5.00497,14.06372 -1.40611,26.0045 -2.27149,33.79297 -0.87407,7.86662 -1.55771,11.73005 -1.88281,13.07617 -0.5414,0.67865 -1.11218,1.40784 -1.45508,2.10938 -0.8392,1.71691 -1.18283,3.12251 -1.53516,4.80469 -0.70464,3.36435 -1.30732,8.09413 -2.15234,16.96679 -0.72613,7.6244 0.33087,13.55497 -0.01,17.64258 -1.49793,17.97526 -2.07765,18.97474 -2.9414,21.87891 -0.43188,1.45208 -1.03984,3.90447 -1.39844,7.34961 -0.35859,3.44513 -0.64264,8.33376 -0.94531,16.80859 -0.35057,9.81594 -0.008,19.28616 -0.008,28.39453 v 38.55469 15.77148 c 0,6.66836 0.59754,12.12792 0.0781,16.28321 -0.0176,0.14084 -2.18888,3.18529 -3.42187,9.96679 -0.94916,5.22031 -0.16016,8.82265 -0.16016,10.55079 v 0.86328 c -0.98325,4.00408 -1.29924,7.51849 -1.65234,9.99023 0.22536,-1.5777 0.0678,-0.78558 -0.20704,0.81836 -0.13743,0.80197 -0.61668,1.91318 0.22852,4.88867 0.4226,1.48775 1.4731,3.64604 3.50391,5.25196 2.0308,1.60591 4.62692,2.20703 6.375,2.20703 2.43282,0 5.75601,-0.99808 7.99023,-3.07227 2.23422,-2.07418 3.09133,-4.47643 3.45508,-6.0957 0.7275,-3.23854 0.30664,-5.12692 0.30664,-4.33594 v -6.8418 c 6.74429,-16.7511 6.29592,-14.66853 11.88281,-34.22265 2.74834,-9.61918 3.89212,-14.00762 4.55078,-16.6211 0.65948,-0.90077 1.13628,-1.72451 1.70899,-2.76953 1.79092,-3.26785 4.38795,-8.75613 9.08789,-19.72265 4.1841,-9.76291 7.25863,-19.43309 10.67187,-28.43164 2.9418,-7.75566 5.61261,-15.31603 8.62305,-22.43164 6.28414,-14.85343 7.99809,-18.24392 10.08789,-21.89454 2.0898,-3.65061 4.97592,-8.1901 12.42774,-23.09375 5.29878,-10.59756 8.88817,-20.85877 13.73828,-29.26562 3.61564,-6.26711 6.93444,-9.88116 11.09961,-14.13086 4.16517,-4.2497 9.25024,-9.10462 14.63086,-16.55469 4.97459,-6.88789 6.60747,-12.89524 8.65625,-15.62695 2.49608,-3.32811 6.50098,-6.72192 11.04882,-10.91992 5.64032,-5.20644 7.12071,-6.40593 7.74024,-6.82813 0.61953,-0.42219 2.42127,-1.33662 7.06054,-4.65039 2.50786,-1.79133 3.09419,-2.37209 3.94922,-3.09765 1.47049,2.74545 3.02458,5.44364 3.5918,7.05078 1.90005,5.38345 3.18264,11.68978 5.0293,18.54882 2.46945,9.17222 5.29913,17.57711 6.84961,25.5879 1.61026,8.31972 2.09201,17.57284 3.41015,27.45898 1.16813,8.76095 2.90458,16.67764 3.44336,23.95117 0.48821,6.59087 -0.0273,13.95662 -0.0273,22.04297 v 19.27734 68.34571 12.26562 2.40235 c -0.0208,0.15215 -0.0565,0.31778 -0.0684,0.46093 -0.17344,0.68045 -0.569,1.64698 0.0781,4.45118 0.35057,1.5191 1.33612,3.84581 3.44336,5.59179 2.10724,1.74599 4.80721,2.35156 6.54688,2.35156 1.82768,0 5.10323,-0.76696 7.36914,-3.125 2.26591,-2.35803 2.74326,-5.04346 2.82617,-6.51171 0.002,-0.0402 -0.006,-0.0388 -0.004,-0.0781 2.83328,-5.63163 5.63108,-11.05661 8.7461,-15.92383 15.49468,-24.21044 20.83794,-27.80091 41.21094,-51.43359 10.33518,-11.98881 13.68311,-15.99911 16.17578,-19.00586 0.73237,-0.50903 1.08008,-0.86749 1.56054,-1.29688 0.72248,-0.64567 1.55353,-1.43406 2.6543,-2.50781 4.4031,-4.295 13.05105,-13.15577 30.11524,-31.16797 11.28521,-11.91217 20.8573,-24.35535 31.35546,-34.85351 9.26916,-9.26915 20.50579,-17.68316 31.3125,-27.81446 17.01231,-15.94903 22.16405,-22.05453 27.46875,-27.63476 5.30471,-5.58023 11.2857,-11.2647 31.63086,-28.01953 7.05163,-5.80722 15.438,-11.00007 23.98828,-17.10742 1.77779,-1.26985 8.93229,-6.56745 17.16407,-12.38672 6.31765,-4.46613 12.57223,-8.51701 16.34375,-10.83789 0.9675,9.17011 2.85111,17.29119 3.27148,24.4375 0.60576,10.29798 -0.0176,21.21876 -0.0176,32.70898 v 71.84961 96.38281 15.77344 c 0,7.12349 0.58123,13.22635 0.0547,18.22852 -0.23772,2.25837 -2.45183,6.60221 -3.45898,13.65234 -0.5611,3.92768 -0.90334,6.73837 -1.08985,8.89648 -0.1865,2.15812 -0.70115,2.73962 0.1875,6.45313 0.0821,0.34295 0.22445,0.81845 0.38086,1.29297 -0.42273,2.10937 -0.33436,1.84226 -1.10937,5.45898 -1.10751,5.16834 -1.70083,7.48894 -2.03321,8.67969 -1.02955,1.34738 -1.51009,2.4099 -1.89062,3.375 -0.90464,2.29432 -1.65775,4.98844 -3.00977,10.39648 -1.23318,4.93274 -1.83988,7.45846 -2.18945,9.59961 -0.17478,1.07058 -0.47852,1.92537 -0.12695,4.34766 0.0968,0.66723 0.33957,1.53689 0.70898,2.45898 -0.0267,0.39645 0.0187,0.96731 -0.36719,4.05469 0.19705,-1.57632 -0.69058,-0.18382 -1.63476,4.53711 -0.58026,2.90129 -0.11395,4.56779 -0.0625,4.97656 0.049,0.389 -0.21916,-0.5943 0.33984,-2.45312 0.11709,-0.39094 0.35567,-1.12548 2.47852,-2.66211 1.27785,-0.92497 3.80794,-2.08915 6.71679,-1.78711 2.90886,0.30204 5.1442,1.95416 6.2168,3.13086 2.1452,2.3534 1.96167,3.26359 2.10352,3.80664 0.14184,0.54305 0.15404,0.73456 0.17383,0.90039 0.01,0.0829 0.0173,0.15237 0.0234,0.22656 0.003,0.0371 0.005,0.0749 0.008,0.11524 3.5e-4,0.005 0.002,0.0114 0.002,0.0156 2.9e-4,0.004 -19.95671,1.33882 -19.95703,1.33399 -6.4e-4,-0.01 5.6e-4,-0.0204 0,-0.0293 -10e-4,-0.0177 -0.003,-0.0337 -0.004,-0.0469 -0.0121,-0.21074 0.0137,0.15515 0.0137,1.44336 h 0.1836 c 0.0496,0.32366 0.0686,0.56561 0.20703,1.09571 0.22556,0.86353 0.15853,2.08098 2.46679,4.61328 1.15414,1.26615 3.48344,2.97604 6.49805,3.28906 3.01462,0.31302 5.66347,-0.88508 7.07422,-1.90625 2.8215,-2.04234 3.07306,-3.33263 3.5918,-4.38281 0.51873,-1.05018 0.85809,-1.96881 1.21875,-3.05078 0.71805,-2.1542 0.70408,-3.64118 0.60742,-4.75977 0.41202,-0.63075 1.14827,-2.47135 1.58008,-5.92578 0.57666,-4.61334 0.82567,-6.95861 0.52539,-9.8457 -0.0642,-0.61753 -0.19281,-1.38138 -0.40039,-2.1875 0.24989,-1.1878 0.49614,-2.41622 1.40625,-6.05664 1.19223,-4.76892 1.87246,-6.84426 2.07031,-7.40235 0.23242,-0.26365 0.66669,-0.56536 0.80469,-0.79687 0.98145,-1.64654 1.20286,-2.56322 1.54492,-3.69141 0.68412,-2.25638 1.40226,-5.31602 2.66797,-11.22265 1.85836,-8.67238 2.58484,-11.95578 2.92383,-14.68165 0.0424,-0.34073 0.0859,-0.68591 0.10742,-1.25781 0.0216,-0.5719 0.42504,-0.95886 -0.53711,-3.79101 -0.13029,-0.38353 -0.58154,-1.0776 -0.87695,-1.66211 0.10974,-0.82621 0.11472,-1.08235 0.25585,-2.07032 0.35529,-2.48698 2.77997,-7.06407 3.55079,-14.38671 0.81877,-7.77842 0.0547,-14.59458 0.0547,-20.32227 v -15.7734 -96.38281 -71.84961 c 0,-10.70726 0.68014,-22.02161 -0.0176,-33.88281 -0.5932,-10.08419 -2.82408,-18.84799 -3.5293,-26.60547 -0.17536,-1.92892 0.87139,-6.26549 -0.0586,-12.77539 -0.53209,-3.72466 -3.85852,-7.05305 -6.14648,-8.05274 -2.28796,-0.99968 -3.79151,-0.95987 -5.05273,-0.89062 z M 427.41016,549.0293 c 0.53543,0.0372 0.60876,0.17622 0.21289,0.10351 -0.0675,-0.0124 -0.37036,-0.0368 -0.47071,-0.0586 0.0533,10e-4 0.21145,-0.0481 0.25782,-0.0449 z m 15.48632,9.18945 c 0.30202,2.18054 -0.36989,2.78034 -0.22656,2.17187 0.0652,-0.2769 0.15646,-1.26006 0.22656,-2.17187 z m -6.17773,5.64844 c 0.19331,-0.28029 0.0503,0.0562 -0.47852,0.61718 0.11239,-0.17294 0.42363,-0.5376 0.47852,-0.61718 z M 287.91797,773.55078 c 0.0359,10e-4 0.0714,0.0255 0.10742,0.0273 -1.20443,0.14617 -2.99932,0.36369 -3.91211,0.47461 0.98089,-0.32277 2.14732,-0.56402 3.80469,-0.50195 z m 3.27344,0.85547 c 0.36883,0.1527 0.65771,0.28404 1,0.4668 -0.45163,-0.21037 -0.50674,-0.23706 -1,-0.4668 z m 3.39257,2.09375 c 0.0118,0.012 0.0372,0.0212 0.0488,0.0332 0.0571,0.0586 0.0671,0.10053 0.1211,0.15821 -0.0766,-0.0824 -0.0985,-0.11555 -0.16993,-0.19141 z m 1.39844,1.78906 c 0.36308,0.59978 0.5995,1.11279 0.75195,1.51172 -0.11006,-0.31831 -0.39117,-0.87488 -0.75195,-1.51172 z m 454.58399,20.05469 c -0.0661,0.14937 -0.1836,0.36593 -0.21875,0.4668 0.0843,-0.18767 0.0377,-0.25428 0.21875,-0.4668 z m -301.13672,1.94922 c 0.0816,0.3099 0.20508,0.85642 0.20703,0.86328 0.002,0.007 -0.1162,-0.2528 -0.20703,-0.86328 z m 311.78906,34.73437 c -0.18032,0.29396 0.022,0.1414 -0.46484,0.69336 -0.18621,0.21112 -0.55586,0.37312 -0.82227,0.58203 0.53257,-0.42363 0.8354,-0.83505 1.28711,-1.27539 z m -2.26367,1.9668 c -1.3845,0.86681 -2.7382,1.5633 -2.06836,1.33398 0.35705,-0.12223 1.25172,-0.75839 2.06836,-1.33398 z m -5.17969,4.6582 c 0.50205,0.34721 0.99939,0.83945 1.57422,1.44727 -0.55337,-0.51209 -1.08949,-1.1162 -1.57422,-1.44727 z"
         id="path447" />
    </g>
  </g>
</svg>
