<?xml version="1.0" encoding="UTF-8" standalone="no"?>
<!-- Created with Inkscape (http://www.inkscape.org/) -->

<svg
   width="1000"
   height="1000"
   viewBox="0 0 1000 1000"
   version="1.1"
   id="svg1"
   xmlns:xlink="http://www.w3.org/1999/xlink"
   xmlns="http://www.w3.org/2000/svg"
   xmlns:svg="http://www.w3.org/2000/svg">
  <defs
     id="defs1">
    <pattern
       xlink:href="#pattern359"
       preserveAspectRatio="xMidYMid"
       id="pattern372"
       patternTransform="matrix(0.5,0,0,0.5,147.15462,1548.2922)" />
    <pattern
       xlink:href="#pattern357"
       preserveAspectRatio="xMidYMid"
       id="pattern371"
       patternTransform="matrix(0.5,0,0,0.5,221.32076,1552.4298)" />
    <pattern
       xlink:href="#pattern358"
       preserveAspectRatio="xMidYMid"
       id="pattern370"
       patternTransform="matrix(0.5,0,0,0.5,230.96346,1527.8214)" />
    <pattern
       xlink:href="#pattern355"
       preserveAspectRatio="xMidYMid"
       id="pattern369"
       patternTransform="matrix(0.5,0,0,0.5,287.08178,1553.6581)" />
    <pattern
       xlink:href="#pattern354"
       preserveAspectRatio="xMidYMid"
       id="pattern368"
       patternTransform="matrix(0.5,0,0,0.5,230.97274,1529.1717)" />
    <pattern
       xlink:href="#pattern342"
       preserveAspectRatio="xMidYMid"
       id="pattern360"
       patternTransform="matrix(0.5,0,0,0.5,210.45332,1525.5392)" />
    <pattern
       xlink:href="#pattern342"
       preserveAspectRatio="xMidYMid"
       id="pattern359"
       patternTransform="matrix(0.5,0,0,0.5,152.11125,1550.7705)" />
    <pattern
       xlink:href="#pattern342"
       preserveAspectRatio="xMidYMid"
       id="pattern358"
       patternTransform="matrix(0.5,0,0,0.5,202.11125,1533.2444)" />
    <pattern
       xlink:href="#pattern342"
       preserveAspectRatio="xMidYMid"
       id="pattern357"
       patternTransform="matrix(0.5,0,0,0.5,211.4075,1546.234)" />
    <pattern
       xlink:href="#pattern342"
       preserveAspectRatio="xMidYMid"
       id="pattern356"
       patternTransform="matrix(0.5,0,0,0.5,232.14929,1573.2544)" />
    <pattern
       xlink:href="#pattern342"
       preserveAspectRatio="xMidYMid"
       id="pattern355"
       patternTransform="matrix(0.5,0,0,0.5,275,1552.7287)" />
    <pattern
       xlink:href="#pattern342"
       preserveAspectRatio="xMidYMid"
       id="pattern354"
       patternTransform="matrix(0.5,0,0,0.5,235,1529.7913)" />
    <pattern
       xlink:href="#shading24"
       preserveAspectRatio="xMidYMid"
       id="pattern342"
       patternTransform="matrix(0.5,0,0,0.5,213.95332,1537.5392)"
       x="0"
       y="0" />
    <pattern
       patternUnits="userSpaceOnUse"
       width="338.5925"
       height="42.989567"
       patternTransform="translate(213.95332,1537.5392) scale(0.5)"
       preserveAspectRatio="xMidYMid"
       id="shading24"
       style="fill:#000000">
      <path
         style="fill-rule:nonzero;stroke:none;stroke-width:0.1;stroke-linecap:square;paint-order:markers fill stroke;stop-color:#000000"
         d="m 1806.4991,-758.06464 v 18.86792 c 55.9187,0 121.0493,0.59523 193.5686,3.15628 72.9408,2.57593 146.0589,6.87694 222.9288,13.47675 119.09,10.22471 223.0762,23.76065 340.6056,39.2177 117.5025,15.4535 222.0471,29.0563 341.8507,39.3312 77.366,6.63525 151.0001,10.96128 224.4674,13.55245 73.0344,2.5759 138.631,3.17493 194.9247,3.17493 -55.9642,0 -122.2215,-1.36594 -194.8324,-5.25394 -73.2143,-3.92032 -146.9676,-10.0663 -223.8166,-18.88656 -118.8791,-13.6442 -223.3242,-31.02113 -339.8009,-50.57815 -116.4705,-19.55598 -221.1862,-36.99475 -340.3724,-50.69165 -77.0605,-8.8558 -150.9942,-15.0266 -224.3694,-18.96225 -72.7637,-3.90286 -139.1256,-5.27261 -195.1541,-5.27261 z m 0,37.81515 v 18.86793 c 55.9187,0 121.0493,0.59523 193.5686,3.15627 72.9408,2.57593 146.0589,6.87694 222.9288,13.47676 119.09,10.22471 223.0762,23.76065 340.6056,39.2177 117.5025,15.4535 222.0471,29.0563 341.8507,39.33119 77.366,6.63526 151.0001,10.96128 224.4674,13.55245 73.0344,2.5759 138.631,3.17493 194.9247,3.17493 -55.9642,0 -122.2215,-1.36594 -194.8324,-5.25394 -73.2143,-3.92031 -146.9676,-10.0663 -223.8166,-18.88656 -118.8791,-13.6442 -223.3242,-31.02112 -339.8009,-50.57815 -116.4705,-19.55598 -221.1862,-36.99475 -340.3724,-50.69165 -77.0605,-8.8558 -150.9942,-15.02659 -224.3694,-18.96225 -72.7637,-3.90286 -139.1256,-5.2726 -195.1541,-5.2726 z m 0,37.81516 v 18.86792 c 55.9187,0 121.0493,0.59523 193.5686,3.15628 72.9408,2.57593 146.0589,6.87694 222.9288,13.47675 119.09,10.22471 223.0762,23.76065 340.6056,39.2177 117.5025,15.4535 222.0471,29.0563 341.8507,39.3312 77.366,6.63525 151.0001,10.96128 224.4674,13.55245 73.0344,2.5759 138.631,3.17493 194.9247,3.17493 -55.9642,0 -122.2215,-1.36594 -194.8324,-5.25394 -73.2143,-3.92032 -146.9676,-10.0663 -223.8166,-18.88656 -118.8791,-13.6442 -223.3242,-31.02113 -339.8009,-50.57815 -116.4705,-19.55598 -221.1862,-36.99475 -340.3724,-50.69165 -77.0605,-8.8558 -150.9942,-15.0266 -224.3694,-18.96225 -72.7637,-3.90286 -139.1256,-5.27261 -195.1541,-5.27261 z m 0,37.81515 v 18.86793 c 55.9187,0 121.0493,0.59523 193.5686,3.15627 72.9408,2.57593 146.0589,6.87694 222.9288,13.47676 119.09,10.22471 223.0762,23.76065 340.6056,39.2177 117.5025,15.4535 222.0471,29.0563 341.8507,39.33119 77.366,6.63526 151.0001,10.96128 224.4674,13.55245 73.0344,2.5759 138.631,3.17494 194.9247,3.17494 -55.9642,0 -122.2215,-1.36595 -194.8324,-5.25395 -73.2143,-3.92031 -146.9676,-10.0663 -223.8166,-18.88656 -118.8791,-13.6442 -223.3242,-31.02112 -339.8009,-50.57815 -116.4705,-19.55598 -221.1862,-36.99475 -340.3724,-50.69165 -77.0605,-8.8558 -150.9942,-15.02659 -224.3694,-18.96225 -72.7637,-3.90286 -139.1256,-5.2726 -195.1541,-5.2726 z m 0,37.81516 v 18.86792 c 55.9187,0 121.0493,0.59523 193.5686,3.15628 72.9408,2.57593 146.0589,6.87694 222.9288,13.47675 119.09,10.22471 223.0762,23.76065 340.6056,39.2177 117.5025,15.4535 222.0471,29.0563 341.8507,39.3312 77.366,6.63525 151.0001,10.96128 224.4674,13.55245 73.0344,2.5759 138.631,3.17493 194.9247,3.17493 -55.9642,0 -122.2215,-1.36594 -194.8324,-5.25394 -73.2143,-3.92032 -146.9676,-10.0663 -223.8166,-18.88656 -118.8791,-13.6442 -223.3242,-31.02113 -339.8009,-50.57815 -116.4705,-19.55598 -221.1862,-36.99475 -340.3724,-50.69165 -77.0605,-8.8558 -150.9942,-15.0266 -224.3694,-18.96225 -72.7637,-3.90286 -139.1256,-5.27261 -195.1541,-5.27261 z m 0,37.81515 v 18.86793 c 55.9187,0 121.0493,0.59523 193.5686,3.15627 72.9408,2.57593 146.0589,6.87694 222.9288,13.47676 119.09,10.22471 223.0762,23.76065 340.6056,39.2177 117.5025,15.4535 222.0471,29.0563 341.8507,39.33119 77.366,6.63526 151.0001,10.96128 224.4674,13.55245 73.0344,2.5759 138.631,3.17494 194.9247,3.17494 -55.9642,0 -122.2215,-1.36595 -194.8324,-5.25395 -73.2143,-3.92031 -146.9676,-10.0663 -223.8166,-18.88656 -118.8791,-13.6442 -223.3242,-31.02112 -339.8009,-50.57815 -116.4705,-19.55598 -221.1862,-36.99475 -340.3724,-50.69165 -77.0605,-8.8558 -150.9942,-15.02659 -224.3694,-18.96225 -72.7637,-3.90286 -139.1256,-5.2726 -195.1541,-5.2726 z m 0,37.81516 v 18.86792 c 55.9187,0 121.0493,0.59523 193.5686,3.15628 72.9408,2.57593 146.0589,6.87694 222.9288,13.47675 119.09,10.22471 223.0762,23.76065 340.6056,39.2177 117.5025,15.4535 222.0471,29.0563 341.8507,39.3312 77.366,6.63525 151.0001,10.96128 224.4674,13.55245 73.0344,2.5759 138.631,3.17493 194.9247,3.17493 -55.9642,0 -122.2215,-1.36594 -194.8324,-5.25394 -73.2143,-3.92032 -146.9676,-10.0663 -223.8166,-18.88656 -118.8791,-13.6442 -223.3242,-31.02113 -339.8009,-50.57815 -116.4705,-19.55598 -221.1862,-36.99475 -340.3724,-50.69165 -77.0605,-8.8558 -150.9942,-15.0266 -224.3694,-18.96225 -72.7637,-3.90286 -139.1256,-5.27261 -195.1541,-5.27261 z"
         id="use26"
         transform="matrix(0.22300099,0,0,0.37823052,-402.85121,237.25945)" />
    </pattern>
    <clipPath
       clipPathUnits="userSpaceOnUse"
       id="clipPath54">
      <path
         id="path336"
         style="stroke-width:0.0999999;stroke-linecap:square;paint-order:markers fill stroke;stop-color:#000000"
         d="m 1691.1994,-792.32001 h 1634.8919 v 92.82806 H 1691.1994 Z" />
    </clipPath>
    <clipPath
       clipPathUnits="userSpaceOnUse"
       id="clipPath33">
      <rect
         style="fill:#000000;stroke:none;stroke-width:0.999995;stroke-linecap:butt;stroke-linejoin:bevel;paint-order:stroke markers fill;stop-color:#000000"
         id="rect33"
         width="46.19186"
         height="80.006783"
         x="74.999985"
         y="399.99661" />
    </clipPath>
    <clipPath
       clipPathUnits="userSpaceOnUse"
       id="clipPath27">
      <rect
         style="fill:none;stroke:#000000;stroke-width:0.999999;stroke-linecap:butt;stroke-linejoin:bevel;paint-order:stroke markers fill;stop-color:#000000"
         id="rect28-6"
         width="46.160622"
         height="39.922417"
         x="86.574379"
         y="420.06253" />
    </clipPath>
    <clipPath
       clipPathUnits="userSpaceOnUse"
       id="clipPath25">
      <rect
         style="fill:#ff0000;stroke:none;stroke-width:3;stroke-linecap:square;stroke-linejoin:miter;paint-order:stroke markers fill;stop-color:#000000"
         id="rect25-8"
         width="78"
         height="45.033199"
         x="763.61322"
         y="452.82422" />
    </clipPath>
    <clipPath
       clipPathUnits="userSpaceOnUse"
       id="clipPath15">
      <rect
         style="fill:none;stroke:#000000;stroke-linecap:butt;stroke-linejoin:bevel;paint-order:stroke markers fill;stop-color:#000000"
         id="rect15-7"
         width="45.034248"
         height="38.955639"
         x="262.48285"
         y="121.00073" />
    </clipPath>
    <linearGradient
       id="swatch75">
      <stop
         style="stop-color:#000000;stop-opacity:1;"
         offset="0"
         id="stop75" />
    </linearGradient>
  </defs>
  <g
     id="layer70"
     style="display:inline">
    <g
       id="layer84"
       style="display:inline">
      <path
         style="baseline-shift:baseline;display:inline;overflow:visible;opacity:1;vector-effect:none;fill-rule:evenodd;enable-background:accumulate;stop-color:#000000;stop-opacity:1"
         d="m 417.59375,469.65234 c 0,6.66834 0.59754,12.12789 0.0781,16.28321 0.0215,-0.1719 -2.50347,2.98893 -3.49609,10.43359 -0.92773,6.95792 -0.0879,12.71755 -0.0879,17.09375 v 21.0293 c 0,7.74881 -0.5603,16.16002 0.0215,25.17773 0.0935,1.44873 0.17155,1.76834 0.36133,3.43555 0.18979,1.6672 0.45187,3.91588 0.76367,6.56445 0.62362,5.29714 1.44544,12.18591 2.28125,19.10742 0.83582,6.92152 1.68523,13.87255 2.35938,19.29493 0.67415,5.42237 0.96522,8.19939 1.375,10.52148 2.01236,11.40337 5.18021,21.78666 7.0293,31.64844 0.78604,4.19224 2.09358,14.10615 3.33398,23.85351 v 11.10547 36.80078 12.26758 c 0,3.8942 -0.65969,8.99913 0.0684,15.1875 0.86053,7.31452 3.08529,12.41667 3.51367,15.84375 0.1252,1.00159 0.0867,6.50397 -0.10937,11.68164 -0.19613,5.17768 -0.62258,9.87314 0.14843,14.88477 1.11996,7.27966 3.73781,9.98197 3.58204,9.20312 0.06,0.29992 -0.19336,2.57262 -0.19336,6.80078 v 9.14649 c -1e-5,0 -0.01,0 -0.01,0 -6.5e-4,-0.01 -0.001,-0.0185 -0.002,-0.0273 -0.001,-0.0178 -0.001,-0.0337 -0.002,-0.0469 -0.012,-0.21081 0.0137,0.15515 0.0137,1.44336 v 1.75195 h 0.5664 c 0.17153,0.83543 0.43183,1.91758 2.28907,3.95508 1.15413,1.26616 3.48341,2.97605 6.49804,3.28906 3.01464,0.31301 5.66349,-0.88507 7.07422,-1.90625 2.82147,-2.04235 3.07502,-3.33263 3.59375,-4.38281 0.51873,-1.05018 0.85614,-1.96881 1.2168,-3.05078 1.7028,-5.10836 0.51367,-7.60594 0.51367,-6.66602 v -21.02929 -28.03907 c 0,-5.82201 0.65003,-12.58024 -0.041,-20.18164 -0.72901,-8.01915 -2.8655,-14.44216 -3.54687,-19.66601 -0.81233,-6.22784 -0.93956,-13.1938 -1.72266,-20.76367 -0.55168,-5.33299 -1.93038,-17.19637 -3.45117,-29.24805 v -13.53516 c 0,-4.38597 -0.31821,-7.46402 -0.0879,-9.1914 0.52152,-3.91143 2.30382,-8.90916 3.44141,-15.35547 1.1414,-6.46793 0.8496,-10.85665 1.44922,-12.77539 0.6035,-1.93123 4.49645,-5.97692 7.00976,-14.01953 2.50161,-8.00518 1.40466,-12.97374 1.69336,-13.83985 0.32696,-0.98088 4.02505,-4.28683 6.88672,-11.91797 3.61174,-9.6313 5.20703,-14.38462 6.15234,-18.27343 0.62945,-1.00721 1.01338,-1.53012 1.82032,-2.875 1.91924,-3.19874 3.10361,-5.17307 4.15234,-6.99219 0.6807,-0.59663 1.23634,-1.20655 2.04492,-1.98633 1.69708,-1.63664 3.81134,-3.84208 6.64844,-6.96289 5.31635,-5.84799 7.69709,-10.17847 8.97461,-12.32031 1.27752,-2.14185 1.28434,-2.48331 5.53711,-5.79102 1.05362,-0.81948 4.14132,-2.00771 8.35742,-4.95898 4.35256,-3.0468 6.81246,-5.75566 8.39648,-6.76368 5.05131,-3.21447 5.99961,-3.56094 6.39453,-3.68554 0.39493,-0.1246 3.04116,-0.60474 7.72071,-2.47656 2.24092,-0.89636 3.59062,-1.75723 4.26367,-2.09375 0.65664,-0.32833 1.31404,-0.65605 1.9707,-0.98438 0.76443,1.28396 1.57342,2.50081 2.30274,3.83789 v 0.002 c 1.47139,2.69756 2.92443,6.43466 5.35351,10.68555 4.25441,7.44522 6.54946,11.06656 8.01953,13.17578 0.085,0.12193 0.11151,0.14133 0.19336,0.25586 0.16168,0.7289 0.27729,1.33245 0.57032,2.41016 0.93455,3.43721 2.68307,9.09566 6.22656,19.2832 2.39592,6.88829 5.32324,12.46582 6.96875,17.40234 1.85806,5.57416 3.19345,11.95403 5.11328,18.81055 2.40484,8.58871 5.14624,16.50159 6.89648,24.08594 1.37604,5.96283 1.94557,12.96263 3.42774,20.66992 1.75894,9.14648 4.37817,16.90548 5.13867,23.75 0.62173,5.59555 -0.72139,13.12543 -0.0332,22.41602 0.67952,9.17346 2.51221,17.49087 3.57031,25.16211 1.25296,9.08399 2.84193,17.59161 3.43945,25.6582 0.44506,6.00832 -0.0273,12.78881 -0.0273,20.29101 v 28.03907 49.0664 c 0,4.53248 0.23449,8.40854 0.0215,11.60352 -0.32147,4.82211 -0.3618,5.41164 -0.5332,8.04492 -0.11961,0.1713 -0.40033,0.42613 -0.49805,0.56641 -0.93239,1.33845 -1.31566,2.27891 -1.71679,3.27929 -0.80227,2.00077 -1.43762,4.19775 -2.23243,7.37696 -1.351,5.40405 -0.29882,8.71586 -0.29882,9.43554 v 3.50586 c 0,1.15393 -0.0281,1.62226 -0.0332,1.93555 -0.11202,0.0665 -0.7578,0.45116 -0.75781,0.45117 -9e-5,1.9e-4 -0.83391,2.50157 -0.83398,2.50196 -8e-5,3.8e-4 -0.11294,0.72095 -0.13282,0.92773 -0.0795,0.82711 -0.0477,0.89626 -0.0469,1.0332 0.003,0.54779 0.0109,0.39876 0.0137,0.47266 0.011,0.29561 0.0391,1.06933 0.0391,3.19141 h 0.5918 c 0.17234,1.1179 0.0735,3.14715 4.94531,5.71289 2.69325,1.4184 7.22172,1.18989 9.51172,-0.0332 2.29001,-1.22309 3.09543,-2.4532 3.68164,-3.29687 0.74348,-1.07002 0.93478,-1.66962 1.26367,-2.38281 h 0.006 c 0,-0.007 0,-0.005 0,-0.0117 0.70367,-1.53031 1.00236,-2.76918 1.45313,-4.57227 1.06772,-4.27075 0.29883,-6.37835 0.29883,-5.92969 v -3.50586 c 0,-2.24877 -0.10729,-1.9306 -0.16993,-2.60742 0.68192,-0.45266 1.19332,-0.71297 1.49219,-1.03125 1.39081,-1.48109 1.66328,-2.34035 1.91992,-2.94336 1.02659,-2.41201 0.68071,-2.30913 0.73243,-2.66992 0.10344,-0.72158 0.12186,-1.05632 0.16601,-1.61719 0.17659,-2.24346 0.44653,-6.79549 1.09375,-16.5039 0.331,-4.96492 0.0234,-9.28805 0.0234,-12.9336 v -49.0664 -28.03907 c 0,-6.51725 0.56324,-13.79473 -0.0273,-21.76757 -0.70848,-9.56452 -2.40957,-18.48639 -3.57227,-26.91602 -1.19944,-8.6959 -2.8965,-16.60275 -3.4375,-23.90625 -0.43375,-5.85568 1.02032,-13.64717 -0.0352,-23.14648 -1.08672,-9.78052 -3.97501,-18.03846 -5.375,-25.31836 -1.20188,-6.24981 -1.76218,-13.50265 -3.58203,-21.38867 -2.07476,-8.99058 -4.94133,-17.1906 -7.12304,-24.98243 -1.6718,-5.97067 -3.04611,-12.67936 -5.4004,-19.74218 -2.33353,-7.00062 -5.31298,-12.65227 -7.05078,-17.64844 -3.45703,-9.93897 -5.09218,-15.29014 -5.81836,-17.96094 -0.36308,-1.3354 -0.49567,-1.98277 -0.52929,-2.16797 -0.0336,-0.18519 0.23556,0.8833 -0.17578,-1.12695 -0.20567,-1.00513 -1.10409,-3.08838 -1.70899,-3.94141 -0.60489,-0.85302 -0.6965,-0.88453 -0.72656,-0.91992 -0.0601,-0.0708 -0.0812,-0.0787 -0.51367,-0.69922 -0.86495,-1.241 -2.9678,-4.49442 -7.0625,-11.66015 -1.45922,-2.55363 -2.87873,-6.15918 -5.16016,-10.3418 -1.74163,-3.193 -3.62716,-6.38702 -5.7168,-9.52149 -0.79924,-1.19886 -2.16234,-3.42978 -5.59961,-5.14843 -2.92794,-1.464 -5.4133,-1.20408 -6.4082,-1.09571 -0.99489,0.10838 -1.01507,0.0391 0.1836,0.0391 -0.62231,0 -0.89763,-0.0246 -1.76368,-0.006 -0.86604,0.0188 -3.08212,0.34461 -4.49023,0.95703 -2.81621,1.22483 -1.84968,1.04398 -3.47656,1.85742 -1.16825,0.58413 -2.33558,1.16778 -3.50391,1.75195 -1.66353,0.83176 -2.56342,1.33827 -2.74805,1.41211 -3.51762,1.40705 -3.49814,1.08532 -6.31054,1.97266 -2.81241,0.88734 -5.64926,2.40642 -11.11524,5.88476 -4.72716,3.00821 -7.35304,6.01276 -9.1289,7.25586 -1.3647,0.95529 -4.84238,2.19186 -9.16602,5.55469 -5.56588,4.32902 -8.66953,8.37315 -10.43555,11.33399 -1.76601,2.96083 -2.36107,4.45128 -6.5957,9.10937 -1.05415,1.15956 -1.45798,1.52534 -2.27539,2.39063 -1.18405,0.26961 -2.08897,0.62783 -2.63867,0.92968 -1.65781,0.91035 -2.00523,1.41486 -2.4043,1.8125 -1.59628,1.59058 -1.8041,2.14798 -2.42578,3.14258 -0.62168,0.99461 -1.21818,1.56944 -1.95508,4.23047 -0.0362,0.1306 -0.0421,0.45008 -0.0801,0.59766 -0.78337,1.47236 -0.90589,1.74358 -3.12304,5.49023 -2.02774,1.32 -2.4349,2.13713 -2.90039,2.76563 -0.53712,0.7252 -0.90524,1.32478 -1.25977,1.92968 -0.70907,1.20981 -1.29604,2.36984 -1.82617,3.59766 -0.26507,0.61391 -0.51022,1.18334 -0.79102,2.14648 -0.1404,0.48158 -0.31845,1.00605 -0.42773,2.2168 -0.0546,0.60538 -0.12715,1.38858 0.11719,2.75781 0.041,0.22987 0.21189,0.61286 0.28125,0.89453 -0.87081,2.55447 -1.62353,4.84958 -3.03711,8.61915 -0.44558,1.18819 -4.48122,4.66237 -7.13282,12.61718 -2.68985,8.06958 -1.5027,13.21411 -1.81054,14.19922 -0.3999,1.27966 -2.25746,3.62843 -4.1875,7.3125 -0.20363,-1.5445 -0.19454,-1.43875 -0.42774,-3.31445 -0.66936,-5.38384 -1.51581,-12.31975 -2.34961,-19.22461 -0.8338,-6.90486 -1.65527,-13.78142 -2.27539,-19.04883 -0.31005,-2.6337 -0.56929,-4.86654 -0.7539,-6.48828 -0.18461,-1.62174 -0.33398,-3.3993 -0.27344,-2.46094 -0.47125,-7.30441 0.0195,-15.28338 0.0195,-23.89062 v -21.0293 c 0,-6.1384 -0.54787,-10.98673 -0.0859,-14.45117 -0.0161,0.12056 2.57571,-3.09197 3.51367,-10.5957 0.92967,-7.43736 0.0781,-13.74913 0.0781,-18.76368 z m 41.55859,87.84961 c -0.002,0.0116 -0.11813,0.37923 -0.12695,0.41407 0.0337,-0.39173 0.1332,-0.44825 0.12695,-0.41407 z m 144.24219,314.69336 c -1.86004,1.10403 -5.11068,3.03302 -6.61133,3.92383 0.0852,-0.12511 0.01,-0.0211 0.11328,-0.16992 0.45075,-0.64872 1.13666,-1.76535 3.32032,-2.93164 0.80826,-0.43169 1.9592,-0.68091 3.17773,-0.82227 z m 3.31445,0.0195 c 0.99915,0.14195 1.95634,0.36944 2.73829,0.78125 4.83308,2.54535 4.52964,4.42051 4.64257,5.28711 -0.0509,-0.16798 -0.10857,-0.35796 -0.23828,-0.68945 -0.14476,-0.36994 -0.98424,-1.89434 -0.98437,-1.89453 -1e-4,-1.5e-4 -4.06008,-2.2975 -6.15821,-3.48438 z m -11.98828,10.91407 c -0.0479,-0.25159 0.10863,0.43334 0.23438,0.95703 -0.0949,-0.31987 -0.13332,-0.48482 -0.16016,-0.60157 -0.0561,-0.24415 -0.0655,-0.3097 -0.0742,-0.35546 z m 0.55664,1.84961 h 18.46289 c -0.0818,0.2454 -0.21486,0.64262 -0.21484,0.64257 9e-5,-1.9e-4 -9.44152,5.60351 -9.44141,5.60352 1.1e-4,0 -7.87317,-4.45332 -7.87304,-4.45313 1.2e-4,1.9e-4 -0.73237,-1.33668 -0.9336,-1.79296 z"
         id="path448" />
    </g>
  </g>
</svg>
