<?xml version="1.0" encoding="UTF-8" standalone="no"?>
<!-- Created with Inkscape (http://www.inkscape.org/) -->

<svg
   width="1000"
   height="1000"
   viewBox="0 0 1000 1000"
   version="1.1"
   id="svg1"
   xmlns:xlink="http://www.w3.org/1999/xlink"
   xmlns="http://www.w3.org/2000/svg"
   xmlns:svg="http://www.w3.org/2000/svg">
  <defs
     id="defs1">
    <pattern
       xlink:href="#pattern359"
       preserveAspectRatio="xMidYMid"
       id="pattern372"
       patternTransform="matrix(0.5,0,0,0.5,147.15462,1548.2922)" />
    <pattern
       xlink:href="#pattern357"
       preserveAspectRatio="xMidYMid"
       id="pattern371"
       patternTransform="matrix(0.5,0,0,0.5,221.32076,1552.4298)" />
    <pattern
       xlink:href="#pattern358"
       preserveAspectRatio="xMidYMid"
       id="pattern370"
       patternTransform="matrix(0.5,0,0,0.5,230.96346,1527.8214)" />
    <pattern
       xlink:href="#pattern355"
       preserveAspectRatio="xMidYMid"
       id="pattern369"
       patternTransform="matrix(0.5,0,0,0.5,287.08178,1553.6581)" />
    <pattern
       xlink:href="#pattern354"
       preserveAspectRatio="xMidYMid"
       id="pattern368"
       patternTransform="matrix(0.5,0,0,0.5,230.97274,1529.1717)" />
    <pattern
       xlink:href="#pattern342"
       preserveAspectRatio="xMidYMid"
       id="pattern360"
       patternTransform="matrix(0.5,0,0,0.5,210.45332,1525.5392)" />
    <pattern
       xlink:href="#pattern342"
       preserveAspectRatio="xMidYMid"
       id="pattern359"
       patternTransform="matrix(0.5,0,0,0.5,152.11125,1550.7705)" />
    <pattern
       xlink:href="#pattern342"
       preserveAspectRatio="xMidYMid"
       id="pattern358"
       patternTransform="matrix(0.5,0,0,0.5,202.11125,1533.2444)" />
    <pattern
       xlink:href="#pattern342"
       preserveAspectRatio="xMidYMid"
       id="pattern357"
       patternTransform="matrix(0.5,0,0,0.5,211.4075,1546.234)" />
    <pattern
       xlink:href="#pattern342"
       preserveAspectRatio="xMidYMid"
       id="pattern356"
       patternTransform="matrix(0.5,0,0,0.5,232.14929,1573.2544)" />
    <pattern
       xlink:href="#pattern342"
       preserveAspectRatio="xMidYMid"
       id="pattern355"
       patternTransform="matrix(0.5,0,0,0.5,275,1552.7287)" />
    <pattern
       xlink:href="#pattern342"
       preserveAspectRatio="xMidYMid"
       id="pattern354"
       patternTransform="matrix(0.5,0,0,0.5,235,1529.7913)" />
    <pattern
       xlink:href="#shading24"
       preserveAspectRatio="xMidYMid"
       id="pattern342"
       patternTransform="matrix(0.5,0,0,0.5,213.95332,1537.5392)"
       x="0"
       y="0" />
    <pattern
       patternUnits="userSpaceOnUse"
       width="338.5925"
       height="42.989567"
       patternTransform="translate(213.95332,1537.5392) scale(0.5)"
       preserveAspectRatio="xMidYMid"
       id="shading24"
       style="fill:#000000">
      <path
         style="fill-rule:nonzero;stroke:none;stroke-width:0.1;stroke-linecap:square;paint-order:markers fill stroke;stop-color:#000000"
         d="m 1806.4991,-758.06464 v 18.86792 c 55.9187,0 121.0493,0.59523 193.5686,3.15628 72.9408,2.57593 146.0589,6.87694 222.9288,13.47675 119.09,10.22471 223.0762,23.76065 340.6056,39.2177 117.5025,15.4535 222.0471,29.0563 341.8507,39.3312 77.366,6.63525 151.0001,10.96128 224.4674,13.55245 73.0344,2.5759 138.631,3.17493 194.9247,3.17493 -55.9642,0 -122.2215,-1.36594 -194.8324,-5.25394 -73.2143,-3.92032 -146.9676,-10.0663 -223.8166,-18.88656 -118.8791,-13.6442 -223.3242,-31.02113 -339.8009,-50.57815 -116.4705,-19.55598 -221.1862,-36.99475 -340.3724,-50.69165 -77.0605,-8.8558 -150.9942,-15.0266 -224.3694,-18.96225 -72.7637,-3.90286 -139.1256,-5.27261 -195.1541,-5.27261 z m 0,37.81515 v 18.86793 c 55.9187,0 121.0493,0.59523 193.5686,3.15627 72.9408,2.57593 146.0589,6.87694 222.9288,13.47676 119.09,10.22471 223.0762,23.76065 340.6056,39.2177 117.5025,15.4535 222.0471,29.0563 341.8507,39.33119 77.366,6.63526 151.0001,10.96128 224.4674,13.55245 73.0344,2.5759 138.631,3.17493 194.9247,3.17493 -55.9642,0 -122.2215,-1.36594 -194.8324,-5.25394 -73.2143,-3.92031 -146.9676,-10.0663 -223.8166,-18.88656 -118.8791,-13.6442 -223.3242,-31.02112 -339.8009,-50.57815 -116.4705,-19.55598 -221.1862,-36.99475 -340.3724,-50.69165 -77.0605,-8.8558 -150.9942,-15.02659 -224.3694,-18.96225 -72.7637,-3.90286 -139.1256,-5.2726 -195.1541,-5.2726 z m 0,37.81516 v 18.86792 c 55.9187,0 121.0493,0.59523 193.5686,3.15628 72.9408,2.57593 146.0589,6.87694 222.9288,13.47675 119.09,10.22471 223.0762,23.76065 340.6056,39.2177 117.5025,15.4535 222.0471,29.0563 341.8507,39.3312 77.366,6.63525 151.0001,10.96128 224.4674,13.55245 73.0344,2.5759 138.631,3.17493 194.9247,3.17493 -55.9642,0 -122.2215,-1.36594 -194.8324,-5.25394 -73.2143,-3.92032 -146.9676,-10.0663 -223.8166,-18.88656 -118.8791,-13.6442 -223.3242,-31.02113 -339.8009,-50.57815 -116.4705,-19.55598 -221.1862,-36.99475 -340.3724,-50.69165 -77.0605,-8.8558 -150.9942,-15.0266 -224.3694,-18.96225 -72.7637,-3.90286 -139.1256,-5.27261 -195.1541,-5.27261 z m 0,37.81515 v 18.86793 c 55.9187,0 121.0493,0.59523 193.5686,3.15627 72.9408,2.57593 146.0589,6.87694 222.9288,13.47676 119.09,10.22471 223.0762,23.76065 340.6056,39.2177 117.5025,15.4535 222.0471,29.0563 341.8507,39.33119 77.366,6.63526 151.0001,10.96128 224.4674,13.55245 73.0344,2.5759 138.631,3.17494 194.9247,3.17494 -55.9642,0 -122.2215,-1.36595 -194.8324,-5.25395 -73.2143,-3.92031 -146.9676,-10.0663 -223.8166,-18.88656 -118.8791,-13.6442 -223.3242,-31.02112 -339.8009,-50.57815 -116.4705,-19.55598 -221.1862,-36.99475 -340.3724,-50.69165 -77.0605,-8.8558 -150.9942,-15.02659 -224.3694,-18.96225 -72.7637,-3.90286 -139.1256,-5.2726 -195.1541,-5.2726 z m 0,37.81516 v 18.86792 c 55.9187,0 121.0493,0.59523 193.5686,3.15628 72.9408,2.57593 146.0589,6.87694 222.9288,13.47675 119.09,10.22471 223.0762,23.76065 340.6056,39.2177 117.5025,15.4535 222.0471,29.0563 341.8507,39.3312 77.366,6.63525 151.0001,10.96128 224.4674,13.55245 73.0344,2.5759 138.631,3.17493 194.9247,3.17493 -55.9642,0 -122.2215,-1.36594 -194.8324,-5.25394 -73.2143,-3.92032 -146.9676,-10.0663 -223.8166,-18.88656 -118.8791,-13.6442 -223.3242,-31.02113 -339.8009,-50.57815 -116.4705,-19.55598 -221.1862,-36.99475 -340.3724,-50.69165 -77.0605,-8.8558 -150.9942,-15.0266 -224.3694,-18.96225 -72.7637,-3.90286 -139.1256,-5.27261 -195.1541,-5.27261 z m 0,37.81515 v 18.86793 c 55.9187,0 121.0493,0.59523 193.5686,3.15627 72.9408,2.57593 146.0589,6.87694 222.9288,13.47676 119.09,10.22471 223.0762,23.76065 340.6056,39.2177 117.5025,15.4535 222.0471,29.0563 341.8507,39.33119 77.366,6.63526 151.0001,10.96128 224.4674,13.55245 73.0344,2.5759 138.631,3.17494 194.9247,3.17494 -55.9642,0 -122.2215,-1.36595 -194.8324,-5.25395 -73.2143,-3.92031 -146.9676,-10.0663 -223.8166,-18.88656 -118.8791,-13.6442 -223.3242,-31.02112 -339.8009,-50.57815 -116.4705,-19.55598 -221.1862,-36.99475 -340.3724,-50.69165 -77.0605,-8.8558 -150.9942,-15.02659 -224.3694,-18.96225 -72.7637,-3.90286 -139.1256,-5.2726 -195.1541,-5.2726 z m 0,37.81516 v 18.86792 c 55.9187,0 121.0493,0.59523 193.5686,3.15628 72.9408,2.57593 146.0589,6.87694 222.9288,13.47675 119.09,10.22471 223.0762,23.76065 340.6056,39.2177 117.5025,15.4535 222.0471,29.0563 341.8507,39.3312 77.366,6.63525 151.0001,10.96128 224.4674,13.55245 73.0344,2.5759 138.631,3.17493 194.9247,3.17493 -55.9642,0 -122.2215,-1.36594 -194.8324,-5.25394 -73.2143,-3.92032 -146.9676,-10.0663 -223.8166,-18.88656 -118.8791,-13.6442 -223.3242,-31.02113 -339.8009,-50.57815 -116.4705,-19.55598 -221.1862,-36.99475 -340.3724,-50.69165 -77.0605,-8.8558 -150.9942,-15.0266 -224.3694,-18.96225 -72.7637,-3.90286 -139.1256,-5.27261 -195.1541,-5.27261 z"
         id="use26"
         transform="matrix(0.22300099,0,0,0.37823052,-402.85121,237.25945)" />
    </pattern>
    <clipPath
       clipPathUnits="userSpaceOnUse"
       id="clipPath54">
      <path
         id="path336"
         style="stroke-width:0.0999999;stroke-linecap:square;paint-order:markers fill stroke;stop-color:#000000"
         d="m 1691.1994,-792.32001 h 1634.8919 v 92.82806 H 1691.1994 Z" />
    </clipPath>
    <clipPath
       clipPathUnits="userSpaceOnUse"
       id="clipPath33">
      <rect
         style="fill:#000000;stroke:none;stroke-width:0.999995;stroke-linecap:butt;stroke-linejoin:bevel;paint-order:stroke markers fill;stop-color:#000000"
         id="rect33"
         width="46.19186"
         height="80.006783"
         x="74.999985"
         y="399.99661" />
    </clipPath>
    <clipPath
       clipPathUnits="userSpaceOnUse"
       id="clipPath27">
      <rect
         style="fill:none;stroke:#000000;stroke-width:0.999999;stroke-linecap:butt;stroke-linejoin:bevel;paint-order:stroke markers fill;stop-color:#000000"
         id="rect28-6"
         width="46.160622"
         height="39.922417"
         x="86.574379"
         y="420.06253" />
    </clipPath>
    <clipPath
       clipPathUnits="userSpaceOnUse"
       id="clipPath25">
      <rect
         style="fill:#ff0000;stroke:none;stroke-width:3;stroke-linecap:square;stroke-linejoin:miter;paint-order:stroke markers fill;stop-color:#000000"
         id="rect25-8"
         width="78"
         height="45.033199"
         x="763.61322"
         y="452.82422" />
    </clipPath>
    <clipPath
       clipPathUnits="userSpaceOnUse"
       id="clipPath15">
      <rect
         style="fill:none;stroke:#000000;stroke-linecap:butt;stroke-linejoin:bevel;paint-order:stroke markers fill;stop-color:#000000"
         id="rect15-7"
         width="45.034248"
         height="38.955639"
         x="262.48285"
         y="121.00073" />
    </clipPath>
    <linearGradient
       id="swatch75">
      <stop
         style="stop-color:#000000;stop-opacity:1;"
         offset="0"
         id="stop75" />
    </linearGradient>
  </defs>
  <g
     id="layer70"
     style="display:inline">
    <g
       id="layer95"
       style="display:inline">
      <path
         style="baseline-shift:baseline;display:inline;overflow:visible;opacity:1;vector-effect:none;fill-rule:evenodd;enable-background:accumulate;stop-color:#000000;stop-opacity:1"
         d="m 744.60156,449.4082 c -0.58412,1.16825 -1.16779,2.33558 -1.75195,3.50391 l -1.05664,2.11133 v 2.36133 c 0,0.79851 -0.0242,0.79985 -0.0508,1.21093 -0.56696,0.83367 -1.54837,2.41155 -2.81641,5.79297 -1.37727,3.67271 -1.68929,6.49349 -2.08984,8.0957 -2.82967,11.31864 -4.83123,20.18381 -8.5,30.66602 -2.60552,7.44435 -4.13123,11.42602 -4.99805,13.42969 -0.86682,2.00366 -0.66551,1.53793 -1.35156,2.52734 -0.68605,0.98941 -2.07128,3.10325 -3.71485,6.54492 -1.64356,3.44168 -3.852,8.60287 -7.32812,17.45118 -5.58567,14.21805 -7.46872,21.55331 -9.29297,27.98242 -1.82425,6.4291 -3.61652,12.21072 -9.79102,25.88281 -3.62107,8.0181 -9.15674,16.24724 -13.90429,26.03906 -2.68515,5.53811 -7.61587,16.99759 -12.8125,28.79688 -5.19663,11.79928 -10.74237,24.02583 -13.24414,28.58789 -4.83015,8.80792 -11.46142,17.5912 -17.4043,27.82617 -8.26264,14.2301 -12.2877,21.27867 -14.27148,24.98047 -0.49595,0.92545 -0.86389,1.63525 -1.19922,2.34765 -0.33534,0.71241 -0.78517,0.36323 -1.19532,3.91211 -0.0564,0.48843 -0.11136,1.17651 -0.0371,2.06055 -1.00809,2.18874 -1.86106,4.23229 -6.2793,12.62695 -2.05045,3.89585 -5.27416,8.1744 -8.48828,13.53125 -1.89277,3.15462 -3.5951,6.2318 -5.31641,9.30079 -0.18997,-1.53398 -0.18056,-1.63893 -0.74219,-5.57032 l -0.0605,-0.41992 -0.0957,-0.41406 c -1.22985,-5.32939 -3.05226,-8.71297 -3.54687,-10.69141 -2.10006,-8.40024 -6.27242,-33.851 -6.73633,-40.3457 -0.47854,-6.69958 0.73818,-14.94086 -0.004,-24.58789 -0.67886,-8.8252 -3.07863,-15.69595 -3.50781,-21.06055 -0.52078,-6.50983 0.0312,-13.85887 0.0312,-21.98437 v -24.53321 c 0,-28.36579 1.352,-20.03311 -3.71875,-44.11914 -1.16938,-5.55458 -2.49841,-10.74207 -3.48437,-15.67187 -0.52941,-2.64706 -0.94954,-5.41775 -1.36524,-8.20899 -0.005,-0.0942 -0.0149,-0.10969 -0.0234,-0.18359 0.17576,-0.69807 0.35153,-1.66876 -0.17968,-3.9707 -0.35056,-1.51909 -1.33417,-3.8458 -3.44141,-5.5918 -2.10724,-1.746 -4.80914,-2.35156 -6.54883,-2.35156 -1.74804,0 -4.34223,0.60113 -6.37304,2.20703 -2.03082,1.6059 -3.0813,3.76614 -3.50391,5.2539 -0.83108,2.92575 -0.38225,4.03483 -0.23633,4.83399 -0.28774,0.8572 -0.57959,1.66845 -1.125,3.30469 -1.21313,3.6394 -2.28836,7.10233 -3.43555,10.31445 -1.59505,4.46616 -3.43628,9.07174 -5.2246,13.92578 -2.64736,7.18567 -4.2086,13.53828 -6.57032,18.26172 -2.67771,5.35542 -7.51758,11.09181 -11.96093,18.70898 -4.79221,8.21522 -8.11531,16.13097 -12.10938,22.52149 -6.20251,9.92401 -23.22928,30.29336 -31.22266,41.57812 -10.29682,14.5367 -14.49061,20.53285 -16.3789,23.58789 -0.23604,0.38189 -0.44101,0.71647 -0.71485,1.23829 -0.13691,0.2609 -0.29221,0.55111 -0.51953,1.12109 -0.22732,0.56998 -0.85842,0.92662 -0.72851,4.19922 0.005,0.13431 0.1127,0.4129 0.12695,0.57031 -1.10937,1.6901 -1.54431,2.41901 -2.97461,4.56445 -2.98345,4.47517 -7.6391,9.20878 -12.11719,15.55274 -4.18497,5.92873 -6.13553,10.88794 -8.18359,13.27734 -1.65876,1.93521 -6.63681,4.36373 -12.04688,10.26563 -4.66553,5.08967 -6.18247,9.47953 -7.37695,10.93945 -0.0723,0.0884 -0.38151,0.31517 -0.48242,0.41406 -0.0519,-0.14784 -0.047,-0.20565 -0.11133,-0.38281 -0.085,-0.23421 0.0968,-0.20517 -0.83594,-1.76953 -0.19949,-0.33459 -0.58942,-0.89694 -1.2832,-1.6543 -1.15376,-3.51762 -1.83973,-5.42262 -4.51562,-14.21484 -1.75899,-5.77954 -2.62339,-13.13774 -5.33789,-21.28125 -5.30888,-15.92664 -7.94929,-23.25579 -9.68555,-27.24024 -0.43407,-0.99611 -0.75569,-1.74691 -1.44141,-2.85937 -0.23973,-0.38892 -0.80581,-1.04088 -1.35937,-1.67383 -0.95675,-3.19744 -1.84951,-6.17348 -4.90821,-16.87891 -5.41691,-18.95916 -9.47546,-36.02358 -13.88086,-55.5332 -1.7474,-7.73849 -3.07224,-16.12551 -5.33203,-24.8418 -2.14389,-8.26928 -4.88408,-15.90453 -7.13281,-23.21289 -2.45992,-7.99474 -5.18336,-15.26366 -6.8418,-22.17382 -1.43958,-5.99826 -2.11985,-12.86757 -3.36523,-20.33985 l -0.0664,-0.39258 -0.0957,-0.38867 c -1.75243,-7.00974 -3.50537,-14.01956 -5.25781,-21.0293 -1.04428,-4.17711 -1.87406,-9.21592 -3.72071,-14.75585 -2.60243,-7.8073 -4.86078,-11.57831 -5.39648,-12.69727 -0.5357,-1.11896 -0.6524,-1.01832 -1.125,-7.63477 -0.26526,-3.71375 0.0254,-8.15852 0.0254,-13.30664 h -20 c 0,4.19819 -0.37523,9.12362 0.0254,14.73243 0.52704,7.37851 1.51559,11.67166 3.03516,14.8457 1.51956,3.17404 2.26654,3.79574 4.46289,10.38476 1.19988,3.59965 1.99871,8.114 3.29101,13.28321 1.71418,6.85668 3.42646,13.71361 5.14063,20.57031 1.06197,6.47002 1.74947,13.69572 3.59766,21.39648 2.04996,8.5415 4.96254,16.19566 7.17578,23.38868 2.42443,7.87938 5.04466,15.23699 6.88867,22.34961 1.93816,7.47573 3.24466,15.64851 5.18164,24.22656 4.43474,19.63958 8.59695,37.15183 14.16016,56.62304 4.06092,14.21325 5.7904,20.21745 6.7207,23.07227 0.23257,0.71371 0.21509,0.93626 0.91015,2.35938 0.17377,0.35577 0.33062,0.78098 1.10743,1.79101 0.26855,0.34918 0.93816,0.93514 1.5664,1.48828 1.377,3.54189 3.08282,7.97891 7.34766,20.77344 1.85528,5.56585 2.72916,12.73204 5.17773,20.77734 4.16174,13.67427 6.16335,19.91236 7.375,23.13672 0.30292,0.80609 0.41075,1.25079 1.12305,2.53906 0.13837,0.25025 0.39488,0.63856 0.69727,1.06641 0.42544,1.55473 0.65302,2.37554 1.23828,4.52149 0.475,1.74169 0.82945,3.20996 1.17773,4.6875 -0.0695,0.62516 -0.10319,1.40748 0.10742,2.77343 0.23538,1.52658 1.05532,4.06124 3.25586,6.04492 2.20055,1.98369 5.10155,2.625 6.85742,2.625 1.78243,0 4.84534,-0.68603 7.0879,-2.83984 2.24256,-2.15381 2.91473,-4.78275 3.07617,-6.29101 0.0474,-0.44274 -0.0161,-0.53327 -0.002,-0.87891 0.0111,-0.21266 0.0511,-0.32273 0.043,-0.58984 0.60693,-1.78778 1.30564,-3.9132 1.49219,-4.17969 0.66199,-0.9457 4.11842,-3.04034 8.31055,-8.16406 4.14033,-5.0604 5.61341,-8.96926 6.64062,-10.08985 1.86822,-2.03806 7.1373,-4.52282 12.48828,-10.76562 5.12473,-5.97885 7.16885,-11.68418 9.33985,-14.75977 3.20363,-4.53848 8.0125,-9.38399 12.41797,-15.99219 4.11687,-6.1753 6.90477,-10.46609 8.77148,-13.46484 0.93335,-1.49938 1.63334,-2.66618 2.19922,-3.68164 0.56587,-1.01546 0.9613,-1.29192 1.63672,-3.7207 0.13952,-0.50173 0.27721,-1.37972 0.32031,-2.53711 2.54099,-3.66762 2.74903,-4.07975 7.94141,-11.41016 6.64812,-9.38559 23.71497,-29.50178 31.86328,-42.53906 5.14818,-8.2371 8.52643,-16.35837 12.42578,-23.04297 3.23193,-5.54044 8.43774,-11.57469 12.57226,-19.84375 3.03581,-6.07162 4.64825,-11.68316 6.26368,-16.67774 2.09557,9.70267 1.07812,6.61324 1.07812,29.73047 v 24.53321 c 0,7.06224 -0.65715,14.9505 0.0332,23.58007 0.70425,8.80298 3.09074,15.65225 3.50196,20.99805 0.51237,6.66083 -0.69069,14.86557 -0.004,24.48047 0.72307,10.12304 4.54715,32.82725 7.2832,43.77148 1.26911,5.0764 2.92337,8.27619 3.4004,10.16602 1.83518,12.97729 0.969,9.06356 3.60937,19.625 0.36568,1.46274 0.60441,4.38994 2.16797,8.29883 1.58783,3.96955 4.13218,5.76529 6.56641,6.98242 1.30276,0.65136 2.43536,1.11942 4.58007,1.30078 2.14472,0.18137 7.02212,-0.28526 9.96485,-4.69922 3.95326,-5.9299 6.50653,-11.70541 9.15625,-16.41601 2.33425,-4.14979 4.56886,-8.18964 6.86914,-12.02344 2.45646,-4.09409 5.95427,-8.65043 9.03711,-14.50781 6.05708,-11.50847 8.33681,-15.98029 9.64258,-19.7461 0.29414,-0.84831 0.75395,-1.53339 0.72851,-4.0957 1.98281,-3.59963 4.99522,-8.93372 12.20899,-21.35742 5.12579,-8.82777 11.87558,-17.73211 17.64453,-28.25195 3.57011,-6.51023 8.77716,-18.26357 14.00976,-30.14454 5.23261,-11.88096 10.40685,-23.80163 12.50586,-28.13086 3.91723,-8.07929 9.58331,-16.45064 14.13672,-26.5332 6.46988,-14.32616 8.87185,-21.84938 10.80273,-28.6543 1.93089,-6.80491 3.36306,-12.6324 8.66602,-26.13085 3.38601,-8.61894 5.4808,-13.46421 6.76172,-16.14649 1.28091,-2.68228 1.4424,-2.81217 2.10351,-3.76562 0.66112,-0.95346 2.01007,-3.06212 3.27344,-5.98243 1.26337,-2.9203 2.84956,-7.14269 5.51758,-14.76562 4.07959,-11.65595 6.25846,-21.35417 9.02539,-32.42188 0.76773,-3.07095 1.09997,-5.08626 1.41406,-5.92382 0.0955,-0.25464 1.9864,-2.42993 3.62891,-7.35743 0.74304,-2.22915 0.8904,-3.85704 0.87109,-5.02343 0.11288,-0.22575 0.22502,-0.45199 0.33789,-0.67774 l -0.42773,-0.21289 c -0.11697,-0.48985 -0.26953,-1.08598 -0.26953,-0.7539 l -0.13086,0.55273 z M 623.66211,731.12891 c -0.0447,0.0293 -0.14495,0.0734 -0.18555,0.10156 0.0681,-0.0403 0.10816,-0.0633 0.18555,-0.10156 z m -3.70508,6.0332 c -0.002,0.004 -0.21211,0.42408 -0.2168,0.43555 0.10286,-0.41645 0.22484,-0.45873 0.2168,-0.43555 z m 17.39063,6.46094 c -0.1614,0.52233 -0.27149,0.53269 -0.22852,0.4414 0.0216,-0.0459 0.17186,-0.32847 0.22852,-0.4414 z m -1.66016,3.44336 c -0.0528,0.0484 -0.15334,0.22442 -0.5625,0.52148 0.0364,-0.0421 0.24334,-0.20278 0.2832,-0.24219 0.23989,-0.23713 0.37207,-0.36422 0.2793,-0.27929 z m -228.73047,48.44336 c 0.12825,-0.32479 0.34548,0.0893 0.21875,0.62109 -0.0246,0.10315 -0.0828,0.33548 -0.12891,0.46875 0.0119,-0.22833 -0.12654,-0.99691 -0.0898,-1.08984 z m 0.38086,4.56054 c 0.10951,0.47967 0.22983,0.95011 0.21484,0.89258 -0.0113,-0.0435 -0.13535,-0.30384 -0.21484,-0.89258 z"
         id="path461" />
    </g>
  </g>
</svg>
