<?xml version="1.0" encoding="UTF-8" standalone="no"?>
<!-- Created with Inkscape (http://www.inkscape.org/) -->

<svg
   width="1000"
   height="1000"
   viewBox="0 0 1000 1000"
   version="1.1"
   id="svg1"
   xmlns:xlink="http://www.w3.org/1999/xlink"
   xmlns="http://www.w3.org/2000/svg"
   xmlns:svg="http://www.w3.org/2000/svg">
  <defs
     id="defs1">
    <pattern
       xlink:href="#pattern359"
       preserveAspectRatio="xMidYMid"
       id="pattern372"
       patternTransform="matrix(0.5,0,0,0.5,147.15462,1548.2922)" />
    <pattern
       xlink:href="#pattern357"
       preserveAspectRatio="xMidYMid"
       id="pattern371"
       patternTransform="matrix(0.5,0,0,0.5,221.32076,1552.4298)" />
    <pattern
       xlink:href="#pattern358"
       preserveAspectRatio="xMidYMid"
       id="pattern370"
       patternTransform="matrix(0.5,0,0,0.5,230.96346,1527.8214)" />
    <pattern
       xlink:href="#pattern355"
       preserveAspectRatio="xMidYMid"
       id="pattern369"
       patternTransform="matrix(0.5,0,0,0.5,287.08178,1553.6581)" />
    <pattern
       xlink:href="#pattern354"
       preserveAspectRatio="xMidYMid"
       id="pattern368"
       patternTransform="matrix(0.5,0,0,0.5,230.97274,1529.1717)" />
    <pattern
       xlink:href="#pattern342"
       preserveAspectRatio="xMidYMid"
       id="pattern360"
       patternTransform="matrix(0.5,0,0,0.5,210.45332,1525.5392)" />
    <pattern
       xlink:href="#pattern342"
       preserveAspectRatio="xMidYMid"
       id="pattern359"
       patternTransform="matrix(0.5,0,0,0.5,152.11125,1550.7705)" />
    <pattern
       xlink:href="#pattern342"
       preserveAspectRatio="xMidYMid"
       id="pattern358"
       patternTransform="matrix(0.5,0,0,0.5,202.11125,1533.2444)" />
    <pattern
       xlink:href="#pattern342"
       preserveAspectRatio="xMidYMid"
       id="pattern357"
       patternTransform="matrix(0.5,0,0,0.5,211.4075,1546.234)" />
    <pattern
       xlink:href="#pattern342"
       preserveAspectRatio="xMidYMid"
       id="pattern356"
       patternTransform="matrix(0.5,0,0,0.5,232.14929,1573.2544)" />
    <pattern
       xlink:href="#pattern342"
       preserveAspectRatio="xMidYMid"
       id="pattern355"
       patternTransform="matrix(0.5,0,0,0.5,275,1552.7287)" />
    <pattern
       xlink:href="#pattern342"
       preserveAspectRatio="xMidYMid"
       id="pattern354"
       patternTransform="matrix(0.5,0,0,0.5,235,1529.7913)" />
    <pattern
       xlink:href="#shading24"
       preserveAspectRatio="xMidYMid"
       id="pattern342"
       patternTransform="matrix(0.5,0,0,0.5,213.95332,1537.5392)"
       x="0"
       y="0" />
    <pattern
       patternUnits="userSpaceOnUse"
       width="338.5925"
       height="42.989567"
       patternTransform="translate(213.95332,1537.5392) scale(0.5)"
       preserveAspectRatio="xMidYMid"
       id="shading24"
       style="fill:#000000">
      <path
         style="fill-rule:nonzero;stroke:none;stroke-width:0.1;stroke-linecap:square;paint-order:markers fill stroke;stop-color:#000000"
         d="m 1806.4991,-758.06464 v 18.86792 c 55.9187,0 121.0493,0.59523 193.5686,3.15628 72.9408,2.57593 146.0589,6.87694 222.9288,13.47675 119.09,10.22471 223.0762,23.76065 340.6056,39.2177 117.5025,15.4535 222.0471,29.0563 341.8507,39.3312 77.366,6.63525 151.0001,10.96128 224.4674,13.55245 73.0344,2.5759 138.631,3.17493 194.9247,3.17493 -55.9642,0 -122.2215,-1.36594 -194.8324,-5.25394 -73.2143,-3.92032 -146.9676,-10.0663 -223.8166,-18.88656 -118.8791,-13.6442 -223.3242,-31.02113 -339.8009,-50.57815 -116.4705,-19.55598 -221.1862,-36.99475 -340.3724,-50.69165 -77.0605,-8.8558 -150.9942,-15.0266 -224.3694,-18.96225 -72.7637,-3.90286 -139.1256,-5.27261 -195.1541,-5.27261 z m 0,37.81515 v 18.86793 c 55.9187,0 121.0493,0.59523 193.5686,3.15627 72.9408,2.57593 146.0589,6.87694 222.9288,13.47676 119.09,10.22471 223.0762,23.76065 340.6056,39.2177 117.5025,15.4535 222.0471,29.0563 341.8507,39.33119 77.366,6.63526 151.0001,10.96128 224.4674,13.55245 73.0344,2.5759 138.631,3.17493 194.9247,3.17493 -55.9642,0 -122.2215,-1.36594 -194.8324,-5.25394 -73.2143,-3.92031 -146.9676,-10.0663 -223.8166,-18.88656 -118.8791,-13.6442 -223.3242,-31.02112 -339.8009,-50.57815 -116.4705,-19.55598 -221.1862,-36.99475 -340.3724,-50.69165 -77.0605,-8.8558 -150.9942,-15.02659 -224.3694,-18.96225 -72.7637,-3.90286 -139.1256,-5.2726 -195.1541,-5.2726 z m 0,37.81516 v 18.86792 c 55.9187,0 121.0493,0.59523 193.5686,3.15628 72.9408,2.57593 146.0589,6.87694 222.9288,13.47675 119.09,10.22471 223.0762,23.76065 340.6056,39.2177 117.5025,15.4535 222.0471,29.0563 341.8507,39.3312 77.366,6.63525 151.0001,10.96128 224.4674,13.55245 73.0344,2.5759 138.631,3.17493 194.9247,3.17493 -55.9642,0 -122.2215,-1.36594 -194.8324,-5.25394 -73.2143,-3.92032 -146.9676,-10.0663 -223.8166,-18.88656 -118.8791,-13.6442 -223.3242,-31.02113 -339.8009,-50.57815 -116.4705,-19.55598 -221.1862,-36.99475 -340.3724,-50.69165 -77.0605,-8.8558 -150.9942,-15.0266 -224.3694,-18.96225 -72.7637,-3.90286 -139.1256,-5.27261 -195.1541,-5.27261 z m 0,37.81515 v 18.86793 c 55.9187,0 121.0493,0.59523 193.5686,3.15627 72.9408,2.57593 146.0589,6.87694 222.9288,13.47676 119.09,10.22471 223.0762,23.76065 340.6056,39.2177 117.5025,15.4535 222.0471,29.0563 341.8507,39.33119 77.366,6.63526 151.0001,10.96128 224.4674,13.55245 73.0344,2.5759 138.631,3.17494 194.9247,3.17494 -55.9642,0 -122.2215,-1.36595 -194.8324,-5.25395 -73.2143,-3.92031 -146.9676,-10.0663 -223.8166,-18.88656 -118.8791,-13.6442 -223.3242,-31.02112 -339.8009,-50.57815 -116.4705,-19.55598 -221.1862,-36.99475 -340.3724,-50.69165 -77.0605,-8.8558 -150.9942,-15.02659 -224.3694,-18.96225 -72.7637,-3.90286 -139.1256,-5.2726 -195.1541,-5.2726 z m 0,37.81516 v 18.86792 c 55.9187,0 121.0493,0.59523 193.5686,3.15628 72.9408,2.57593 146.0589,6.87694 222.9288,13.47675 119.09,10.22471 223.0762,23.76065 340.6056,39.2177 117.5025,15.4535 222.0471,29.0563 341.8507,39.3312 77.366,6.63525 151.0001,10.96128 224.4674,13.55245 73.0344,2.5759 138.631,3.17493 194.9247,3.17493 -55.9642,0 -122.2215,-1.36594 -194.8324,-5.25394 -73.2143,-3.92032 -146.9676,-10.0663 -223.8166,-18.88656 -118.8791,-13.6442 -223.3242,-31.02113 -339.8009,-50.57815 -116.4705,-19.55598 -221.1862,-36.99475 -340.3724,-50.69165 -77.0605,-8.8558 -150.9942,-15.0266 -224.3694,-18.96225 -72.7637,-3.90286 -139.1256,-5.27261 -195.1541,-5.27261 z m 0,37.81515 v 18.86793 c 55.9187,0 121.0493,0.59523 193.5686,3.15627 72.9408,2.57593 146.0589,6.87694 222.9288,13.47676 119.09,10.22471 223.0762,23.76065 340.6056,39.2177 117.5025,15.4535 222.0471,29.0563 341.8507,39.33119 77.366,6.63526 151.0001,10.96128 224.4674,13.55245 73.0344,2.5759 138.631,3.17494 194.9247,3.17494 -55.9642,0 -122.2215,-1.36595 -194.8324,-5.25395 -73.2143,-3.92031 -146.9676,-10.0663 -223.8166,-18.88656 -118.8791,-13.6442 -223.3242,-31.02112 -339.8009,-50.57815 -116.4705,-19.55598 -221.1862,-36.99475 -340.3724,-50.69165 -77.0605,-8.8558 -150.9942,-15.02659 -224.3694,-18.96225 -72.7637,-3.90286 -139.1256,-5.2726 -195.1541,-5.2726 z m 0,37.81516 v 18.86792 c 55.9187,0 121.0493,0.59523 193.5686,3.15628 72.9408,2.57593 146.0589,6.87694 222.9288,13.47675 119.09,10.22471 223.0762,23.76065 340.6056,39.2177 117.5025,15.4535 222.0471,29.0563 341.8507,39.3312 77.366,6.63525 151.0001,10.96128 224.4674,13.55245 73.0344,2.5759 138.631,3.17493 194.9247,3.17493 -55.9642,0 -122.2215,-1.36594 -194.8324,-5.25394 -73.2143,-3.92032 -146.9676,-10.0663 -223.8166,-18.88656 -118.8791,-13.6442 -223.3242,-31.02113 -339.8009,-50.57815 -116.4705,-19.55598 -221.1862,-36.99475 -340.3724,-50.69165 -77.0605,-8.8558 -150.9942,-15.0266 -224.3694,-18.96225 -72.7637,-3.90286 -139.1256,-5.27261 -195.1541,-5.27261 z"
         id="use26"
         transform="matrix(0.22300099,0,0,0.37823052,-402.85121,237.25945)" />
    </pattern>
    <clipPath
       clipPathUnits="userSpaceOnUse"
       id="clipPath54">
      <path
         id="path336"
         style="stroke-width:0.0999999;stroke-linecap:square;paint-order:markers fill stroke;stop-color:#000000"
         d="m 1691.1994,-792.32001 h 1634.8919 v 92.82806 H 1691.1994 Z" />
    </clipPath>
    <clipPath
       clipPathUnits="userSpaceOnUse"
       id="clipPath33">
      <rect
         style="fill:#000000;stroke:none;stroke-width:0.999995;stroke-linecap:butt;stroke-linejoin:bevel;paint-order:stroke markers fill;stop-color:#000000"
         id="rect33"
         width="46.19186"
         height="80.006783"
         x="74.999985"
         y="399.99661" />
    </clipPath>
    <clipPath
       clipPathUnits="userSpaceOnUse"
       id="clipPath27">
      <rect
         style="fill:none;stroke:#000000;stroke-width:0.999999;stroke-linecap:butt;stroke-linejoin:bevel;paint-order:stroke markers fill;stop-color:#000000"
         id="rect28-6"
         width="46.160622"
         height="39.922417"
         x="86.574379"
         y="420.06253" />
    </clipPath>
    <clipPath
       clipPathUnits="userSpaceOnUse"
       id="clipPath25">
      <rect
         style="fill:#ff0000;stroke:none;stroke-width:3;stroke-linecap:square;stroke-linejoin:miter;paint-order:stroke markers fill;stop-color:#000000"
         id="rect25-8"
         width="78"
         height="45.033199"
         x="763.61322"
         y="452.82422" />
    </clipPath>
    <clipPath
       clipPathUnits="userSpaceOnUse"
       id="clipPath15">
      <rect
         style="fill:none;stroke:#000000;stroke-linecap:butt;stroke-linejoin:bevel;paint-order:stroke markers fill;stop-color:#000000"
         id="rect15-7"
         width="45.034248"
         height="38.955639"
         x="262.48285"
         y="121.00073" />
    </clipPath>
    <linearGradient
       id="swatch75">
      <stop
         style="stop-color:#000000;stop-opacity:1;"
         offset="0"
         id="stop75" />
    </linearGradient>
  </defs>
  <g
     id="layer70"
     style="display:inline">
    <g
       id="layer97"
       style="display:inline">
      <path
         style="baseline-shift:baseline;display:inline;overflow:visible;opacity:1;vector-effect:none;fill-rule:evenodd;enable-background:accumulate;stop-color:#000000;stop-opacity:1"
         d="m 407.72461,452.64062 -19.8457,2.48047 c 0.55305,4.42445 1.1071,8.84901 1.66015,13.27344 -0.0382,4.47961 -0.60363,9.92175 0.0703,16.32422 0.82971,7.88223 3.15308,13.48888 3.48829,17.34375 0.51174,5.88514 -0.7423,13.50746 -0.006,22.71289 0.66393,8.29918 2.62102,15.45464 3.58984,21.75195 1.17811,7.6577 1.80281,16.07853 3.58203,24.97461 2.11809,10.59048 5.59423,19.58097 6.95117,27.72266 0.20244,1.21462 -1.50482,6.13043 0.041,14.24609 l 0.10351,0.54102 0.16211,0.52734 c 3.45509,11.22904 5.14686,16.4321 6.21094,19.65821 -0.008,0.31808 -0.15854,0.89048 -0.16015,1.1875 -0.0205,3.75376 0.61329,8.00917 2.42187,18.25781 0.97302,5.51379 2.73249,9.79287 3.71484,13.20898 1.27693,5.05772 2.67208,9.35278 3.27735,12.98438 -0.13093,-0.78555 -0.78751,1.51278 -0.0352,6.77929 0.35722,2.5005 0.64767,4.21776 1.01758,5.76368 0.15176,0.63422 0.36809,1.32091 0.67969,2.14257 -0.0139,1.70387 -0.0449,1.87937 -0.0449,4.69922 0,4.55317 -0.0344,6.49533 -0.0488,7.11914 -0.004,0.15596 -0.005,0.18593 -0.008,0.29688 -7.2e-4,0.0277 -0.004,-0.0317 -0.004,0.27148 -7e-5,0.0758 0.0136,0.53093 0.0137,0.53125 2e-5,3.2e-4 18.16487,2.70271 18.96875,2.82227 -0.18637,0.32964 -0.20771,0.48764 -0.53125,0.95312 -0.74923,1.07793 -2.27738,3.06632 -5.6875,3.93164 -3.41012,0.86533 -7.21269,-0.68435 -8.76172,-1.96679 -3.09806,-2.56489 -2.66117,-3.46672 -2.83008,-3.92774 -0.67564,-1.84406 0.16423,0.79231 0.71875,5.22852 -0.13483,-1.07872 -0.006,3.24205 -0.10547,6.57812 -0.0495,1.66804 -0.0996,3.3585 -0.10742,4.90821 -0.008,1.5497 -0.20185,2.34621 0.33008,5.00586 1.30332,6.51664 3.59628,9.18423 3.54883,8.9707 -0.29811,-1.34147 -0.83747,0.67704 -0.16211,6.08008 v 0.002 c 0.58274,4.6619 1.74236,6.95238 1.77539,7.18359 -0.20446,-1.43124 -0.94663,0.60083 0.0937,5.80274 0.39603,1.98016 1.00476,3.17746 1.54297,4.0664 9.4e-4,0.0365 -9.2e-4,0.059 0,0.0977 -0.14302,0.7131 -0.46323,1.8754 -0.0332,4.17383 0.43658,2.33346 2.77889,6.00954 5.57617,7.4082 4.27468,2.13737 8.17453,2.13737 12.44922,0 2.79728,-1.39866 5.14154,-5.07474 5.57812,-7.4082 0.43658,-2.33346 0.0984,-3.50896 -0.041,-4.21875 -0.27889,-1.41958 -0.008,-1.75966 -0.008,0.92969 v -7.00977 h -4.21875 c -0.26873,-0.77543 -0.53592,-1.59988 -0.8125,-2.11133 0.0472,-0.83296 6.8e-4,-2.25895 -0.32812,-4.56054 -0.64819,-4.53737 -1.71378,-6.71806 -1.72852,-6.83594 0.0957,0.76597 1.15171,-2.03415 -0.16015,-7.9375 -1.33715,-6.01715 -3.18916,-8.40224 -3.33594,-8.36719 -0.0288,-0.33204 -0.0687,-0.71709 -0.0664,-1.16992 0.006,-1.17478 0.0486,-2.76538 0.0977,-4.41602 0.0981,-3.30126 0.44625,-5.76973 -0.0391,-9.65234 -0.58238,-4.65898 -0.61381,-6.22781 -1.70118,-9.30859 0.01,-1.1825 0.0254,-1.34008 0.0254,-3.47071 0,-6.00496 0.0497,-8.28178 0.082,-9.48047 0.005,-0.10717 0.0304,-0.27036 0.0352,-0.375 0.0353,-0.77706 0.0581,-1.19164 0.0293,-2.06836 -0.007,-0.21917 0.23381,0.30305 -0.2168,-1.83789 -0.0563,-0.26761 -0.12796,-0.60418 -0.33203,-1.19726 -0.12629,-0.36705 -0.62468,-1.15632 -1.10547,-1.96094 0.0845,-1.22129 0.0587,-3.1163 -0.38086,-5.75391 -0.96671,-5.80022 -2.62861,-10.64338 -3.66797,-14.80078 l -0.0391,-0.16015 -0.0469,-0.16016 c -1.35774,-4.75211 -2.77214,-8.42815 -3.27149,-11.25781 -1.51622,-8.59192 -1.74248,-11.67308 -1.84179,-12.76563 0.13606,-0.2015 0.62108,-0.91981 0.62109,-0.91992 1.1e-4,-8.3e-4 0.087,-1.8753 0.0449,-2.31055 -0.16846,-1.74097 -0.28658,-1.60936 -0.3457,-1.8164 -0.0591,-0.20704 -0.0916,-0.30304 -0.11914,-0.38867 -0.2205,-0.68506 -0.35274,-1.03616 -0.82031,-2.44336 -0.89489,-2.69324 -2.90094,-8.91852 -6.3086,-19.9668 -0.13092,-1.18749 1.33083,-5.77672 0.0234,-13.62109 -1.81068,-10.86407 -5.40771,-20.05221 -7.06836,-28.35547 -1.46104,-7.30518 -2.09353,-15.42147 -3.42773,-24.09375 -1.19235,-7.75025 -2.95046,-14.43824 -3.41993,-20.30664 -0.47472,-5.93397 0.7981,-13.60409 -0.006,-22.84961 -0.69692,-8.01459 -3.10395,-13.73851 -3.52148,-17.70508 -0.40424,-3.84028 0.0547,-8.76941 0.0547,-14.72461 v -0.62305 l -0.0762,-0.61718 c -0.58415,-4.67317 -1.16977,-9.3464 -1.75391,-14.01954 z m 9.44922,189.19727 c 0.28012,0.27685 0.60612,0.54518 1.06836,0.93359 -0.54347,-0.3535 -0.81526,-0.59316 -1.06836,-0.93359 z m 2.68164,1.70117 c 0.87191,0.0266 3.68047,0.11031 6.42773,0.19336 -1.19517,0.3454 -2.41631,0.5664 -3.50781,0.44531 -1.24072,-0.13764 -2.13318,-0.37698 -2.91992,-0.63867 z m 4.74805,62.31055 c -0.006,0.0941 -0.0339,0.32567 -0.0371,0.37695 -0.003,0.0464 -0.0204,0.25081 0.008,-0.10351 0.004,-0.0443 0.007,-0.0969 0.0234,-0.25196 1.5e-4,-10e-4 0.006,-0.0197 0.006,-0.0215 z m 20.51367,50.19922 c 0.81367,0 1.62831,0.27411 2.7207,0.82031 0.0879,0.044 0.16485,0.13254 0.25195,0.18164 h -5.94336 c 0.0871,-0.0491 0.16401,-0.13767 0.25196,-0.18164 1.09239,-0.5462 1.90508,-0.82031 2.71875,-0.82031 z"
         id="path464" />
      <path
         style="baseline-shift:baseline;display:inline;overflow:visible;opacity:1;vector-effect:none;fill-rule:evenodd;enable-background:accumulate;stop-color:#000000;stop-opacity:1"
         d="m 638.07227,453.99219 c -1.09912,1.83185 -4.04815,4.90238 -6.08008,10.49023 -2.40074,6.602 -1.76153,10.52873 -1.8418,10.76953 -0.64286,1.92861 -2.53882,4.85696 -4.71289,9.20508 h -0.002 c -2.48183,4.96367 -4.5363,9.60033 -6.7793,13.58789 -6.91922,12.30084 -10.74498,15.99249 -19.06445,29.43164 -4.42424,7.14685 -8.44869,14.33256 -12.44727,21.33008 -3.23385,5.65924 -5.77741,10.98369 -8.55859,15.43359 -5.28143,8.45029 -11.60717,16.88814 -17.50782,26.25977 -4.80969,7.63893 -8.15534,14.96937 -12.07421,20.73242 -4.88089,7.17777 -11.21216,14.24667 -17.29102,22.45313 -6.16891,8.32804 -11.77628,16.69529 -17.55273,24.57226 -19.67751,26.83296 -19.51084,25.7621 -38.45118,50.6836 -24.18742,31.82556 -7.51185,10.66088 -33.22656,43.72265 -10.03795,12.90595 -26.70981,33.68666 -36.94336,47.50196 -6.33552,8.55295 -11.54626,17.04953 -17.29883,24.24023 -12.91883,16.14856 -18.23772,18.94394 -32.78125,34.45703 -4.43923,4.7352 -7.41553,9.15967 -10.29101,12.03516 -2.72351,2.72351 -7.37477,5.62088 -12.26758,10.51367 -3.73748,3.73749 -5.86843,7.29058 -7.67773,9.50195 -2.94762,3.60263 -5.70775,7.06623 -8.4961,10.20313 -1.12636,1.26714 -2.82621,2.80081 -4.85547,4.83008 l -0.39062,0.39062 -0.3457,0.43359 c -2.41987,3.02483 -4.66095,5.93885 -6.88477,8.60743 0.24392,-0.29271 -0.12967,0.0711 -1.14063,1.08203 -0.94301,0.94301 -1.88508,1.88704 -2.82812,2.83008 -1.46524,0.48118 -2.9819,1.22796 -4.18164,2.42773 -3.5399,3.53981 -3.16471,8.21143 -2.95117,9.50781 0.21354,1.29639 0.0234,1.38138 0.0234,-0.68359 h 19.6211 c -0.19825,1.60095 -0.75275,3.52037 -2.55078,5.31836 -2.02403,2.02408 -5.2207,2.80236 -6.76953,2.79101 -1.54884,-0.0113 -2.02191,-0.25225 -2.00586,-0.24804 0.0321,0.008 2.72361,1.93208 7.92773,-0.66993 h 0.002 c 4.51006,-2.25505 5.25611,-4.53346 4.34961,-3.62695 1.16827,-1.16827 2.33755,-2.33559 3.50586,-3.5039 0.15732,-0.15733 1.06164,-0.85991 2.36328,-2.42188 2.44383,-2.93258 4.64597,-5.79455 6.79883,-8.49609 1.44069,-1.41184 3.24643,-3.01626 5.25977,-5.28125 3.27371,-3.68294 6.19689,-7.36675 9.02734,-10.82618 2.92776,-3.57836 4.78964,-6.47127 6.3418,-8.02343 2.72351,-2.72351 7.37477,-5.62087 12.26758,-10.51367 4.74081,-4.74082 7.81074,-9.37728 10.73828,-12.5 13.65887,-14.56946 19.92488,-18.28355 33.81054,-35.64063 6.80382,-8.50476 12.12145,-17.22958 17.75,-24.82812 9.75118,-13.16409 26.42666,-33.97154 36.66016,-47.12891 25.74773,-33.10423 9.27055,-12.19942 33.36328,-43.90039 18.80698,-24.74602 18.86008,-23.96225 38.65625,-50.95703 6.10997,-8.33177 11.70095,-16.67264 17.4961,-24.4961 5.32651,-7.19078 11.86406,-14.4421 17.75781,-23.10937 5.20763,-7.65829 8.62287,-15.22847 12.46094,-21.32422 5.32125,-8.45141 11.6598,-16.90647 17.54101,-26.31641 3.59378,-5.75005 6.231,-11.32515 8.96485,-16.10937 4.05394,-7.0944 7.96918,-14.07327 12.08789,-20.72656 7.70616,-12.44843 11.88174,-16.62961 19.48828,-30.15235 2.87998,-5.11996 5.04696,-10.06852 7.23828,-14.45117 1.33081,-2.6616 3.96534,-6.31787 5.80078,-11.82422 2.16699,-6.50094 1.63622,-10.18318 1.66406,-10.25976 0.29609,-0.81424 2.02783,-3.02361 4.4336,-7.03321 z M 305.48242,918.63477 c 1.01438,0.11634 1.36762,0.50585 1.0625,0.42578 -0.25522,-0.067 -1.1869,-0.26021 -2.44726,-0.3418 0.50404,-0.0542 1.03666,-0.12391 1.38476,-0.084 z"
         id="path465" />
    </g>
  </g>
</svg>
