<?xml version="1.0" encoding="UTF-8" standalone="no"?>
<!-- Created with Inkscape (http://www.inkscape.org/) -->

<svg
   width="1000"
   height="1000"
   viewBox="0 0 1000 1000"
   version="1.1"
   id="svg1"
   xmlns:xlink="http://www.w3.org/1999/xlink"
   xmlns="http://www.w3.org/2000/svg"
   xmlns:svg="http://www.w3.org/2000/svg">
  <defs
     id="defs1">
    <pattern
       xlink:href="#pattern359"
       preserveAspectRatio="xMidYMid"
       id="pattern372"
       patternTransform="matrix(0.5,0,0,0.5,147.15462,1548.2922)" />
    <pattern
       xlink:href="#pattern357"
       preserveAspectRatio="xMidYMid"
       id="pattern371"
       patternTransform="matrix(0.5,0,0,0.5,221.32076,1552.4298)" />
    <pattern
       xlink:href="#pattern358"
       preserveAspectRatio="xMidYMid"
       id="pattern370"
       patternTransform="matrix(0.5,0,0,0.5,230.96346,1527.8214)" />
    <pattern
       xlink:href="#pattern355"
       preserveAspectRatio="xMidYMid"
       id="pattern369"
       patternTransform="matrix(0.5,0,0,0.5,287.08178,1553.6581)" />
    <pattern
       xlink:href="#pattern354"
       preserveAspectRatio="xMidYMid"
       id="pattern368"
       patternTransform="matrix(0.5,0,0,0.5,230.97274,1529.1717)" />
    <pattern
       xlink:href="#pattern342"
       preserveAspectRatio="xMidYMid"
       id="pattern360"
       patternTransform="matrix(0.5,0,0,0.5,210.45332,1525.5392)" />
    <pattern
       xlink:href="#pattern342"
       preserveAspectRatio="xMidYMid"
       id="pattern359"
       patternTransform="matrix(0.5,0,0,0.5,152.11125,1550.7705)" />
    <pattern
       xlink:href="#pattern342"
       preserveAspectRatio="xMidYMid"
       id="pattern358"
       patternTransform="matrix(0.5,0,0,0.5,202.11125,1533.2444)" />
    <pattern
       xlink:href="#pattern342"
       preserveAspectRatio="xMidYMid"
       id="pattern357"
       patternTransform="matrix(0.5,0,0,0.5,211.4075,1546.234)" />
    <pattern
       xlink:href="#pattern342"
       preserveAspectRatio="xMidYMid"
       id="pattern356"
       patternTransform="matrix(0.5,0,0,0.5,232.14929,1573.2544)" />
    <pattern
       xlink:href="#pattern342"
       preserveAspectRatio="xMidYMid"
       id="pattern355"
       patternTransform="matrix(0.5,0,0,0.5,275,1552.7287)" />
    <pattern
       xlink:href="#pattern342"
       preserveAspectRatio="xMidYMid"
       id="pattern354"
       patternTransform="matrix(0.5,0,0,0.5,235,1529.7913)" />
    <pattern
       xlink:href="#shading24"
       preserveAspectRatio="xMidYMid"
       id="pattern342"
       patternTransform="matrix(0.5,0,0,0.5,213.95332,1537.5392)"
       x="0"
       y="0" />
    <pattern
       patternUnits="userSpaceOnUse"
       width="338.5925"
       height="42.989567"
       patternTransform="translate(213.95332,1537.5392) scale(0.5)"
       preserveAspectRatio="xMidYMid"
       id="shading24"
       style="fill:#000000">
      <path
         style="fill-rule:nonzero;stroke:none;stroke-width:0.1;stroke-linecap:square;paint-order:markers fill stroke;stop-color:#000000"
         d="m 1806.4991,-758.06464 v 18.86792 c 55.9187,0 121.0493,0.59523 193.5686,3.15628 72.9408,2.57593 146.0589,6.87694 222.9288,13.47675 119.09,10.22471 223.0762,23.76065 340.6056,39.2177 117.5025,15.4535 222.0471,29.0563 341.8507,39.3312 77.366,6.63525 151.0001,10.96128 224.4674,13.55245 73.0344,2.5759 138.631,3.17493 194.9247,3.17493 -55.9642,0 -122.2215,-1.36594 -194.8324,-5.25394 -73.2143,-3.92032 -146.9676,-10.0663 -223.8166,-18.88656 -118.8791,-13.6442 -223.3242,-31.02113 -339.8009,-50.57815 -116.4705,-19.55598 -221.1862,-36.99475 -340.3724,-50.69165 -77.0605,-8.8558 -150.9942,-15.0266 -224.3694,-18.96225 -72.7637,-3.90286 -139.1256,-5.27261 -195.1541,-5.27261 z m 0,37.81515 v 18.86793 c 55.9187,0 121.0493,0.59523 193.5686,3.15627 72.9408,2.57593 146.0589,6.87694 222.9288,13.47676 119.09,10.22471 223.0762,23.76065 340.6056,39.2177 117.5025,15.4535 222.0471,29.0563 341.8507,39.33119 77.366,6.63526 151.0001,10.96128 224.4674,13.55245 73.0344,2.5759 138.631,3.17493 194.9247,3.17493 -55.9642,0 -122.2215,-1.36594 -194.8324,-5.25394 -73.2143,-3.92031 -146.9676,-10.0663 -223.8166,-18.88656 -118.8791,-13.6442 -223.3242,-31.02112 -339.8009,-50.57815 -116.4705,-19.55598 -221.1862,-36.99475 -340.3724,-50.69165 -77.0605,-8.8558 -150.9942,-15.02659 -224.3694,-18.96225 -72.7637,-3.90286 -139.1256,-5.2726 -195.1541,-5.2726 z m 0,37.81516 v 18.86792 c 55.9187,0 121.0493,0.59523 193.5686,3.15628 72.9408,2.57593 146.0589,6.87694 222.9288,13.47675 119.09,10.22471 223.0762,23.76065 340.6056,39.2177 117.5025,15.4535 222.0471,29.0563 341.8507,39.3312 77.366,6.63525 151.0001,10.96128 224.4674,13.55245 73.0344,2.5759 138.631,3.17493 194.9247,3.17493 -55.9642,0 -122.2215,-1.36594 -194.8324,-5.25394 -73.2143,-3.92032 -146.9676,-10.0663 -223.8166,-18.88656 -118.8791,-13.6442 -223.3242,-31.02113 -339.8009,-50.57815 -116.4705,-19.55598 -221.1862,-36.99475 -340.3724,-50.69165 -77.0605,-8.8558 -150.9942,-15.0266 -224.3694,-18.96225 -72.7637,-3.90286 -139.1256,-5.27261 -195.1541,-5.27261 z m 0,37.81515 v 18.86793 c 55.9187,0 121.0493,0.59523 193.5686,3.15627 72.9408,2.57593 146.0589,6.87694 222.9288,13.47676 119.09,10.22471 223.0762,23.76065 340.6056,39.2177 117.5025,15.4535 222.0471,29.0563 341.8507,39.33119 77.366,6.63526 151.0001,10.96128 224.4674,13.55245 73.0344,2.5759 138.631,3.17494 194.9247,3.17494 -55.9642,0 -122.2215,-1.36595 -194.8324,-5.25395 -73.2143,-3.92031 -146.9676,-10.0663 -223.8166,-18.88656 -118.8791,-13.6442 -223.3242,-31.02112 -339.8009,-50.57815 -116.4705,-19.55598 -221.1862,-36.99475 -340.3724,-50.69165 -77.0605,-8.8558 -150.9942,-15.02659 -224.3694,-18.96225 -72.7637,-3.90286 -139.1256,-5.2726 -195.1541,-5.2726 z m 0,37.81516 v 18.86792 c 55.9187,0 121.0493,0.59523 193.5686,3.15628 72.9408,2.57593 146.0589,6.87694 222.9288,13.47675 119.09,10.22471 223.0762,23.76065 340.6056,39.2177 117.5025,15.4535 222.0471,29.0563 341.8507,39.3312 77.366,6.63525 151.0001,10.96128 224.4674,13.55245 73.0344,2.5759 138.631,3.17493 194.9247,3.17493 -55.9642,0 -122.2215,-1.36594 -194.8324,-5.25394 -73.2143,-3.92032 -146.9676,-10.0663 -223.8166,-18.88656 -118.8791,-13.6442 -223.3242,-31.02113 -339.8009,-50.57815 -116.4705,-19.55598 -221.1862,-36.99475 -340.3724,-50.69165 -77.0605,-8.8558 -150.9942,-15.0266 -224.3694,-18.96225 -72.7637,-3.90286 -139.1256,-5.27261 -195.1541,-5.27261 z m 0,37.81515 v 18.86793 c 55.9187,0 121.0493,0.59523 193.5686,3.15627 72.9408,2.57593 146.0589,6.87694 222.9288,13.47676 119.09,10.22471 223.0762,23.76065 340.6056,39.2177 117.5025,15.4535 222.0471,29.0563 341.8507,39.33119 77.366,6.63526 151.0001,10.96128 224.4674,13.55245 73.0344,2.5759 138.631,3.17494 194.9247,3.17494 -55.9642,0 -122.2215,-1.36595 -194.8324,-5.25395 -73.2143,-3.92031 -146.9676,-10.0663 -223.8166,-18.88656 -118.8791,-13.6442 -223.3242,-31.02112 -339.8009,-50.57815 -116.4705,-19.55598 -221.1862,-36.99475 -340.3724,-50.69165 -77.0605,-8.8558 -150.9942,-15.02659 -224.3694,-18.96225 -72.7637,-3.90286 -139.1256,-5.2726 -195.1541,-5.2726 z m 0,37.81516 v 18.86792 c 55.9187,0 121.0493,0.59523 193.5686,3.15628 72.9408,2.57593 146.0589,6.87694 222.9288,13.47675 119.09,10.22471 223.0762,23.76065 340.6056,39.2177 117.5025,15.4535 222.0471,29.0563 341.8507,39.3312 77.366,6.63525 151.0001,10.96128 224.4674,13.55245 73.0344,2.5759 138.631,3.17493 194.9247,3.17493 -55.9642,0 -122.2215,-1.36594 -194.8324,-5.25394 -73.2143,-3.92032 -146.9676,-10.0663 -223.8166,-18.88656 -118.8791,-13.6442 -223.3242,-31.02113 -339.8009,-50.57815 -116.4705,-19.55598 -221.1862,-36.99475 -340.3724,-50.69165 -77.0605,-8.8558 -150.9942,-15.0266 -224.3694,-18.96225 -72.7637,-3.90286 -139.1256,-5.27261 -195.1541,-5.27261 z"
         id="use26"
         transform="matrix(0.22300099,0,0,0.37823052,-402.85121,237.25945)" />
    </pattern>
    <clipPath
       clipPathUnits="userSpaceOnUse"
       id="clipPath54">
      <path
         id="path336"
         style="stroke-width:0.0999999;stroke-linecap:square;paint-order:markers fill stroke;stop-color:#000000"
         d="m 1691.1994,-792.32001 h 1634.8919 v 92.82806 H 1691.1994 Z" />
    </clipPath>
    <clipPath
       clipPathUnits="userSpaceOnUse"
       id="clipPath33">
      <rect
         style="fill:#000000;stroke:none;stroke-width:0.999995;stroke-linecap:butt;stroke-linejoin:bevel;paint-order:stroke markers fill;stop-color:#000000"
         id="rect33"
         width="46.19186"
         height="80.006783"
         x="74.999985"
         y="399.99661" />
    </clipPath>
    <clipPath
       clipPathUnits="userSpaceOnUse"
       id="clipPath27">
      <rect
         style="fill:none;stroke:#000000;stroke-width:0.999999;stroke-linecap:butt;stroke-linejoin:bevel;paint-order:stroke markers fill;stop-color:#000000"
         id="rect28-6"
         width="46.160622"
         height="39.922417"
         x="86.574379"
         y="420.06253" />
    </clipPath>
    <clipPath
       clipPathUnits="userSpaceOnUse"
       id="clipPath25">
      <rect
         style="fill:#ff0000;stroke:none;stroke-width:3;stroke-linecap:square;stroke-linejoin:miter;paint-order:stroke markers fill;stop-color:#000000"
         id="rect25-8"
         width="78"
         height="45.033199"
         x="763.61322"
         y="452.82422" />
    </clipPath>
    <clipPath
       clipPathUnits="userSpaceOnUse"
       id="clipPath15">
      <rect
         style="fill:none;stroke:#000000;stroke-linecap:butt;stroke-linejoin:bevel;paint-order:stroke markers fill;stop-color:#000000"
         id="rect15-7"
         width="45.034248"
         height="38.955639"
         x="262.48285"
         y="121.00073" />
    </clipPath>
    <linearGradient
       id="swatch75">
      <stop
         style="stop-color:#000000;stop-opacity:1;"
         offset="0"
         id="stop75" />
    </linearGradient>
  </defs>
  <g
     id="layer70"
     style="display:inline">
    <g
       id="layer72"
       style="display:inline">
      <path
         style="baseline-shift:baseline;display:inline;overflow:visible;opacity:1;vector-effect:none;fill-rule:evenodd;enable-background:accumulate;stop-color:#000000;stop-opacity:1"
         d="m 380.79297,262.86523 c 0,3.73035 -0.82795,8.94073 0.0996,15.4336 0.96324,6.74278 3.41221,10.19319 3.62695,11.19531 0.64289,3.00014 0.49686,7.746 1.72461,13.88477 1.01836,5.09172 2.57578,9.23659 3.59961,12.75 1.16144,5.78027 2.38159,11.3947 3.37695,16.86914 1.22379,6.73084 2.27522,13.643 3.44532,20.67578 1.12721,8.47674 1.96729,17.37792 3.54882,26.55078 1.57042,9.10837 4.0599,17.10964 5.24024,24.42773 1.50131,9.30809 2.24369,19.15342 3.44531,29.36719 1.16828,9.93047 2.33562,19.86057 3.50391,29.79102 1.17331,9.97317 2.40334,19.87426 3.49804,29.72656 1.22588,11.0329 2.35716,22.10816 3.4961,33.21289 1.12477,10.96654 1.01899,23.18051 3.65625,36.03711 2.56882,12.52301 7.28015,23.43689 10.57226,33.71484 2.25794,13.61954 4.25951,27.50397 6.92578,41.50196 2.02008,10.60539 4.85419,20.22423 6.54883,29.39062 -0.45253,0.97447 -0.92051,1.97631 -1.23047,3.37109 -1.26103,5.67469 -0.23828,9.45712 -0.23828,10.93165 v 8.76171 7.00977 c 0,2.19742 -1.00682,6.47371 0.19336,12.47461 0.75828,3.79137 2.45569,5.94962 3.21485,7.08984 0.22046,0.33112 0.23356,0.38291 0.31835,0.53907 -0.0217,0.27919 -0.22265,2.08833 -0.22265,6.18359 v 7.00781 c 0,2.18451 -0.42264,5.50092 0.0625,9.86719 0.56174,5.05575 1.78175,7.278 1.75195,7.00976 -7.2e-4,-0.007 -1.24112,3.44325 0.17774,9.82813 0.82486,3.71191 2.48742,5.78636 3.21093,6.87305 0.0407,0.0611 0.0198,0.0391 0.0547,0.0937 v 8.38672 24.53515 10.83985 c -2.87181,-0.20589 -6.31523,-0.33611 -10.69141,0.28906 -7.42753,1.06107 -10.15767,3.76942 -9.30859,3.59961 -0.29992,0.06 -2.57262,-0.19532 -6.80078,-0.19532 h -5.25781 -9.9336 c -0.91153,-0.57567 -1.99981,-1.10005 -3.41211,-1.45312 -2.45993,-0.61499 -4.1161,-0.4748 -5.24414,-0.3457 -0.79494,-0.47046 -1.86769,-0.99379 -3.51757,-1.40625 -4.27064,-1.06765 -6.38025,-0.29883 -5.93165,-0.29883 h -1.75195 c -2.64906,0 -3.23585,0.39738 -2.5664,0.28711 0.66944,-0.11027 4.75796,-0.48618 7.88476,2.64062 1.79899,1.79899 2.35293,3.71907 2.55078,5.32032 h -19.62109 c 0,-2.06497 0.19205,-1.98194 -0.0215,-0.68555 -0.21353,1.29639 -0.59058,5.96801 2.94922,9.50781 3.53986,3.53985 8.2134,3.1647 9.50977,2.95117 1.29636,-0.21353 1.37936,-0.0215 -0.68555,-0.0215 h 1.75195 c 0.58684,0 0.61663,0.006 0.98438,0.0156 0.88894,0.53822 2.08428,1.14694 4.06445,1.54297 1.37967,0.27593 2.49005,0.31077 3.41211,0.28711 0.69605,0.4103 1.42075,0.82125 2.39649,1.14649 5.10839,1.70282 7.60789,0.51171 6.66797,0.51171 h 10.51367 5.25781 c 1.61328,0 5.29455,0.89226 10.72266,-0.19335 7.01831,-1.40366 9.41615,-3.58345 8.21679,-3.41211 2.64871,-0.37839 7.8483,0.84224 15.4043,0.0469 7.47028,-0.78634 13.31881,-2.86423 17.96094,-3.56055 7.73897,-1.16084 11.65973,-1.52975 13.5039,-1.63086 1.84418,-0.1011 1.26326,0.20109 4.00977,-0.082 5.38796,-0.5554 5.67013,-1.71163 22.11328,-7.23437 7.33512,-1.57953 15.84568,-1.93323 25.19531,-3.31836 16.80066,-2.48899 19.62893,-2.95177 22.56446,-3.85742 2.93552,-0.90565 3.62461,-1.43241 20.15234,-5.02539 5.43173,-1.18081 12.16333,-1.62287 19.69727,-3.60547 6.37028,-1.6764 11.01133,-4.23295 14.63671,-5.44141 3.48497,-1.16165 7.48412,-2.12715 11.85157,-3.375 l 0.89453,-0.25586 0.83008,-0.41601 c 4.00004,-2.00002 7.14563,-3.87193 9.75586,-4.91602 -1.1282,0.45128 2.26511,1.06893 8.25781,-2.35547 3.97648,-2.27228 6.79671,-5.60123 8.38476,-8.02929 1.58805,-2.42807 2.2623,-3.7632 3.09766,-4.76563 0.81376,-0.97652 2.46726,-2.40868 4.64648,-4.58789 0.50158,-0.50158 2.31088,-1.74586 4.4336,-4.57617 0.7694,-1.02588 1.18721,-1.85939 1.51562,-2.58203 1.23992,-0.60892 3.24961,-1.61521 5.30274,-4.18164 4.03347,-5.04181 3.57632,-8.77585 3.43164,-8.3418 0.58413,-1.75241 1.1678,-3.50341 1.75195,-5.25586 0.32268,-0.96801 1.38567,-3.02597 2.07227,-6.45898 0.74194,-3.70971 0.19336,-5.60597 0.19336,-5.4668 V 725.50781 720.25 c 0,-1.0162 0.29559,-3.15616 -0.0606,-6.36133 -0.40631,-3.65686 -0.98354,-6.05796 -1.38867,-8.33398 0.63542,-1.28598 0.69068,-2.38898 0.80078,-3.00391 0.43655,-2.43832 0.15271,-2.72044 0.0879,-3.3418 -0.0648,-0.62135 -0.14777,-1.14837 -0.25195,-1.77343 -0.41675,-2.50025 -1.24687,-6.54985 -2.91407,-14.33008 -1.18954,-5.55119 -3.1128,-8.96684 -3.58203,-10.84375 -0.6039,-2.4156 -0.9183,-5.70512 -1.58984,-9.73438 -0.47353,-2.84113 -0.67973,-6.77363 -1.96875,-11.5 -1.38342,-5.07255 -3.22968,-7.85737 -3.57422,-9.00586 -0.18725,-0.62416 0.0499,-4.02242 -1.9668,-9.40039 -1.96143,-5.23044 -4.35148,-6.99741 -4.18554,-6.70703 -0.92917,-1.62604 -1.91047,-3.85219 -3.24414,-6.51953 -1.4804,-2.96079 -2.65878,-4.90972 -3.08594,-6.04883 0.19674,0.52466 0.53535,-2.56015 -2.16992,-7.9707 -1.55803,-3.11606 -3.54046,-4.47852 -4.39844,-5.13477 -0.53293,-0.93517 -1.217,-2.59221 -2.61133,-5.38086 l -1.49219,-2.98046 -2.98047,-1.49024 c -0.26289,-0.13144 -0.19115,-0.10667 -0.4082,-0.2207 -0.48193,-0.94331 -1.08149,-1.99554 -2.25,-3.16406 -3.53988,-3.53989 -8.21145,-3.16471 -9.50781,-2.95118 -1.29637,0.21353 -1.38136,0.0215 0.68359,0.0215 H 630.875 595.82812 578.30273 c -5.64878,0 -10.71698,0.28032 -15.18359,0.0176 -3.5125,-0.20662 -8.07593,-1.29686 -13.83984,-1.74024 -3.93173,-0.30244 -7.11988,-0.0293 -9.5293,-0.0293 h -7.00977 -5.25781 c 1.19867,0 1.17849,0.0693 0.1836,-0.0391 -0.9949,-0.10837 -3.48026,-0.3683 -6.40821,1.09571 -0.50354,0.25177 -0.83805,0.51206 -1.24023,0.77148 -0.51857,0.042 -0.86746,-0.009 -1.50586,0.11914 -4.03559,0.80712 -6.12409,1.91208 -9.3418,3.16406 -1.60885,0.626 -3.14319,1.24119 -4.34961,1.73438 -1.20641,0.49319 -1.06637,0.33398 -2.83984,1.2207 -8.67163,4.33583 -14.40798,11.26548 -16.8457,12.89063 -1.35945,0.9063 -5.17049,1.91197 -10.26758,5.09765 -3.94347,2.46468 -5.16905,4.80577 -5.27735,4.91407 l -5.25586,5.25585 c -0.025,0.025 -2.49593,1.24195 -5.00976,5.43165 -0.3723,0.62049 -0.33496,0.81196 -0.61328,1.3496 -1.88002,-10.85075 -3.62303,-21.75182 -5.48047,-32.89648 l -0.11719,-0.69531 -0.21094,-0.67188 c -3.71239,-11.75589 -8.19403,-22.24351 -10.25586,-32.29492 -2.08138,-10.14674 -2.08241,-21.66732 -3.35351,-34.06055 -1.13834,-11.09891 -2.27471,-22.2282 -3.51367,-33.3789 -1.1137,-10.02329 -2.34846,-19.96773 -3.51172,-29.85547 -1.16829,-9.93045 -2.33563,-19.86252 -3.50391,-29.79297 -1.13496,-9.64712 -1.88144,-19.78021 -3.56445,-30.21484 -1.4832,-9.19585 -4.0037,-17.26486 -5.27539,-24.64063 -1.41545,-8.20959 -2.24534,-16.89378 -3.44727,-25.9082 l -0.0215,-0.16211 -0.0274,-0.16016 c -1.15217,-6.91304 -2.22299,-13.98914 -3.52929,-21.17383 -1.10749,-6.09113 -2.39175,-11.97048 -3.53711,-17.69726 l -0.0801,-0.39649 -0.11133,-0.39062 c -1.3163,-4.60704 -2.69175,-8.367 -3.31445,-11.48047 -0.61947,-3.09735 -0.44862,-7.94252 -1.7793,-14.15234 -1.33344,-6.22278 -3.30307,-9.26213 -3.38476,-9.83399 -0.39422,-2.75951 0.10156,-6.98949 0.10156,-12.60547 z m 267.38672,329.60352 c 0.22517,0.46434 0.21109,0.6358 0.10351,0.30078 -0.0147,-0.0459 -0.0859,-0.23741 -0.10351,-0.30078 z m -18.93946,6.41602 c 0.0148,0.0462 0.0857,0.23891 0.10352,0.30273 -0.22563,-0.46499 -0.21115,-0.63795 -0.10352,-0.30273 z m -96.13671,0.0312 c 0.19301,-0.27986 0.0499,0.054 -0.47657,0.61328 0.11143,-0.17156 0.42198,-0.53413 0.47657,-0.61328 z m 14.64062,3.37695 c 3.62739,0.27903 8.30892,1.41719 14.19922,1.76367 6.02983,0.3547 11.49356,0.0176 16.35937,0.0176 h 17.52539 35.04688 1.28125 c 0.18557,0.20875 0.19724,0.36325 0.41016,0.57617 1.17588,1.17587 2.20457,1.92541 3.1289,2.5 0.63473,1.37124 1.45829,2.97651 2.63281,4.73828 0.97625,1.46438 1.87506,2.36251 2.625,2.99805 0.12734,0.96844 0.5671,2.75834 1.5879,5.48047 1.40735,3.75297 3.06764,6.25833 3.92382,7.9707 1.00291,2.00581 2.10454,4.58968 3.76758,7.5 1.65185,2.89073 2.64043,4.24618 2.8711,4.27734 0.0583,0.67325 0.12641,3.10827 1.49023,7.6543 1.46328,4.87761 3.16359,7.52235 3.43555,8.51953 0.58082,2.12966 0.84233,5.35874 1.53711,9.52735 0.49674,2.98046 0.7944,6.81627 1.91406,11.29492 1.32285,5.29137 3.06908,8.51184 3.42773,10.18554 1.11095,5.18444 1.40299,6.77357 1.84766,9.03711 -0.0686,0.37165 -0.29668,0.94496 -0.34766,1.19141 -0.28308,1.36851 -0.26969,2.11171 -0.27148,2.88477 -0.004,1.54611 0.1254,3.03096 0.36328,5.17187 0.51268,4.6141 1.47986,8.06679 1.75195,10.51563 0.0309,0.27826 -0.0605,1.66368 -0.0605,4.15234 v 5.25781 3.50391 c 0,1.17722 -0.019,1.83632 -0.01,2.12305 -0.15397,0.44261 -0.5035,1.30155 -1.22852,3.47656 -0.58413,1.75241 -1.16975,3.50536 -1.7539,5.25781 -0.38779,1.16336 -0.48737,1.42209 -0.69531,1.99219 -1.03013,0.52332 -2.31067,1.27355 -3.89844,2.86133 -2.11158,2.11158 -2.75122,3.9666 -3.0918,4.96289 -0.15405,0.10481 -0.62108,0.50388 -2.16406,2.04687 -1.32566,1.32565 -3.50976,3.0945 -5.86914,5.92578 -2.46393,2.95671 -3.72621,5.48175 -4.47266,6.62305 -0.47685,0.72908 -0.72833,0.81345 -1.00195,1.0293 -0.20208,-0.28076 -2.28574,0.11468 -6.33008,1.73242 -4.33104,1.73242 -7.67675,3.72707 -10.55078,5.21484 -3.57746,0.99541 -7.45672,1.9387 -11.67773,3.34571 -5.84426,1.94808 -10.11943,4.20834 -13.40235,5.07226 -5.09786,1.34154 -11.52541,1.81039 -18.85742,3.4043 -16.88938,3.6716 -20.44931,5.04069 -21.79883,5.45703 -1.34952,0.41634 -2.84075,0.70275 -19.59961,3.18555 -7.98516,1.18299 -17.14727,1.44744 -26.99023,3.63476 l -0.50391,0.11133 -0.49023,0.16406 c -17.70783,5.90261 -21.35933,6.83184 -18.44336,6.53125 1.45798,-0.15029 -0.19212,-0.15108 -3.05469,0.006 -2.86257,0.15694 -7.28343,0.60853 -15.375,1.82227 -0.94551,0.14182 -1.64582,0.35142 -2.53711,0.51758 v -8.15235 -24.53515 c 0,-1.99887 0.75294,-5.79407 0,-10.9668 V 744.7832 c 0,-19.89366 0.57639,-21.39515 -0.0391,-25.5957 -0.61545,-4.20055 -1.16097,-3.35086 -3.55274,-21.28906 -1.11677,-8.37578 -1.69887,-17.49968 -2.96289,-26.96875 0.35188,-0.8069 0.73152,-1.50614 1,-2.58008 1.54861,-6.19444 0.33809,-9.13435 0.22071,-8.19531 2.2e-4,-0.002 1.15472,-2.23179 1.75195,-7.00977 0.44237,-3.53893 0.29382,-5.17164 0.125,-5.91211 0.36666,-0.63753 0.79613,-1.49386 1.19141,-2.67969 0.21562,-0.64684 0.14818,-0.99589 0.24609,-1.53906 0.17931,-0.2383 0.65401,-0.63475 0.79687,-0.83594 0.86505,-1.2182 1.30745,-2.09925 1.91993,-3.32421 1.21764,-2.43527 1.79241,-3.99232 1.9414,-4.72657 0.38676,-0.38462 0.67612,-0.67026 1.44336,-1.4375 l 5.25586,-5.25781 c 2.22829,-2.22828 2.87571,-2.80904 1.73438,-2.0957 1.54876,-0.96798 5.60029,-1.97506 10.76172,-5.41602 6.87029,-4.58019 12.16703,-10.37746 14.69726,-11.64258 -1.39991,0.69995 0.36364,-0.14907 1.46094,-0.59765 1.0973,-0.44858 2.54851,-1.02898 4.03515,-1.60742 2.65174,-1.03178 5.61762,-1.92701 5.36133,-1.95508 1.05009,0.13927 2.77009,0.30776 5.35742,-0.55469 1.0437,-0.3479 1.91433,-0.78102 2.64063,-1.24023 h 2.95898 7.00977 c 3.43204,0 6.10163,-0.17488 7.99414,-0.0293 z m -75.21875,36.69726 c -0.0236,-0.15287 0.0993,0.15538 0.11523,0.83399 -0.0505,-0.28065 -0.10365,-0.7589 -0.11523,-0.83399 z m 212.96289,55.625 c 0.36941,0.47395 0.41056,0.70593 0.4668,0.79883 0.13951,0.23043 -0.18264,-0.32285 -0.4668,-0.79883 z M 415.08594,814.50781 c 0.79503,0.80128 0.97451,1.39599 0.81836,1.14844 -0.0717,-0.11374 -0.55829,-0.73801 -0.81836,-1.14844 z"
         id="path432" />
    </g>
  </g>
</svg>
