<?xml version="1.0" encoding="UTF-8" standalone="no"?>
<!-- Created with Inkscape (http://www.inkscape.org/) -->

<svg
   width="1000"
   height="1000"
   viewBox="0 0 1000 1000"
   version="1.1"
   id="svg1"
   xmlns:xlink="http://www.w3.org/1999/xlink"
   xmlns="http://www.w3.org/2000/svg"
   xmlns:svg="http://www.w3.org/2000/svg">
  <defs
     id="defs1">
    <pattern
       xlink:href="#pattern359"
       preserveAspectRatio="xMidYMid"
       id="pattern372"
       patternTransform="matrix(0.5,0,0,0.5,147.15462,1548.2922)" />
    <pattern
       xlink:href="#pattern357"
       preserveAspectRatio="xMidYMid"
       id="pattern371"
       patternTransform="matrix(0.5,0,0,0.5,221.32076,1552.4298)" />
    <pattern
       xlink:href="#pattern358"
       preserveAspectRatio="xMidYMid"
       id="pattern370"
       patternTransform="matrix(0.5,0,0,0.5,230.96346,1527.8214)" />
    <pattern
       xlink:href="#pattern355"
       preserveAspectRatio="xMidYMid"
       id="pattern369"
       patternTransform="matrix(0.5,0,0,0.5,287.08178,1553.6581)" />
    <pattern
       xlink:href="#pattern354"
       preserveAspectRatio="xMidYMid"
       id="pattern368"
       patternTransform="matrix(0.5,0,0,0.5,230.97274,1529.1717)" />
    <pattern
       xlink:href="#pattern342"
       preserveAspectRatio="xMidYMid"
       id="pattern360"
       patternTransform="matrix(0.5,0,0,0.5,210.45332,1525.5392)" />
    <pattern
       xlink:href="#pattern342"
       preserveAspectRatio="xMidYMid"
       id="pattern359"
       patternTransform="matrix(0.5,0,0,0.5,152.11125,1550.7705)" />
    <pattern
       xlink:href="#pattern342"
       preserveAspectRatio="xMidYMid"
       id="pattern358"
       patternTransform="matrix(0.5,0,0,0.5,202.11125,1533.2444)" />
    <pattern
       xlink:href="#pattern342"
       preserveAspectRatio="xMidYMid"
       id="pattern357"
       patternTransform="matrix(0.5,0,0,0.5,211.4075,1546.234)" />
    <pattern
       xlink:href="#pattern342"
       preserveAspectRatio="xMidYMid"
       id="pattern356"
       patternTransform="matrix(0.5,0,0,0.5,232.14929,1573.2544)" />
    <pattern
       xlink:href="#pattern342"
       preserveAspectRatio="xMidYMid"
       id="pattern355"
       patternTransform="matrix(0.5,0,0,0.5,275,1552.7287)" />
    <pattern
       xlink:href="#pattern342"
       preserveAspectRatio="xMidYMid"
       id="pattern354"
       patternTransform="matrix(0.5,0,0,0.5,235,1529.7913)" />
    <pattern
       xlink:href="#shading24"
       preserveAspectRatio="xMidYMid"
       id="pattern342"
       patternTransform="matrix(0.5,0,0,0.5,213.95332,1537.5392)"
       x="0"
       y="0" />
    <pattern
       patternUnits="userSpaceOnUse"
       width="338.5925"
       height="42.989567"
       patternTransform="translate(213.95332,1537.5392) scale(0.5)"
       preserveAspectRatio="xMidYMid"
       id="shading24"
       style="fill:#000000">
      <path
         style="fill-rule:nonzero;stroke:none;stroke-width:0.1;stroke-linecap:square;paint-order:markers fill stroke;stop-color:#000000"
         d="m 1806.4991,-758.06464 v 18.86792 c 55.9187,0 121.0493,0.59523 193.5686,3.15628 72.9408,2.57593 146.0589,6.87694 222.9288,13.47675 119.09,10.22471 223.0762,23.76065 340.6056,39.2177 117.5025,15.4535 222.0471,29.0563 341.8507,39.3312 77.366,6.63525 151.0001,10.96128 224.4674,13.55245 73.0344,2.5759 138.631,3.17493 194.9247,3.17493 -55.9642,0 -122.2215,-1.36594 -194.8324,-5.25394 -73.2143,-3.92032 -146.9676,-10.0663 -223.8166,-18.88656 -118.8791,-13.6442 -223.3242,-31.02113 -339.8009,-50.57815 -116.4705,-19.55598 -221.1862,-36.99475 -340.3724,-50.69165 -77.0605,-8.8558 -150.9942,-15.0266 -224.3694,-18.96225 -72.7637,-3.90286 -139.1256,-5.27261 -195.1541,-5.27261 z m 0,37.81515 v 18.86793 c 55.9187,0 121.0493,0.59523 193.5686,3.15627 72.9408,2.57593 146.0589,6.87694 222.9288,13.47676 119.09,10.22471 223.0762,23.76065 340.6056,39.2177 117.5025,15.4535 222.0471,29.0563 341.8507,39.33119 77.366,6.63526 151.0001,10.96128 224.4674,13.55245 73.0344,2.5759 138.631,3.17493 194.9247,3.17493 -55.9642,0 -122.2215,-1.36594 -194.8324,-5.25394 -73.2143,-3.92031 -146.9676,-10.0663 -223.8166,-18.88656 -118.8791,-13.6442 -223.3242,-31.02112 -339.8009,-50.57815 -116.4705,-19.55598 -221.1862,-36.99475 -340.3724,-50.69165 -77.0605,-8.8558 -150.9942,-15.02659 -224.3694,-18.96225 -72.7637,-3.90286 -139.1256,-5.2726 -195.1541,-5.2726 z m 0,37.81516 v 18.86792 c 55.9187,0 121.0493,0.59523 193.5686,3.15628 72.9408,2.57593 146.0589,6.87694 222.9288,13.47675 119.09,10.22471 223.0762,23.76065 340.6056,39.2177 117.5025,15.4535 222.0471,29.0563 341.8507,39.3312 77.366,6.63525 151.0001,10.96128 224.4674,13.55245 73.0344,2.5759 138.631,3.17493 194.9247,3.17493 -55.9642,0 -122.2215,-1.36594 -194.8324,-5.25394 -73.2143,-3.92032 -146.9676,-10.0663 -223.8166,-18.88656 -118.8791,-13.6442 -223.3242,-31.02113 -339.8009,-50.57815 -116.4705,-19.55598 -221.1862,-36.99475 -340.3724,-50.69165 -77.0605,-8.8558 -150.9942,-15.0266 -224.3694,-18.96225 -72.7637,-3.90286 -139.1256,-5.27261 -195.1541,-5.27261 z m 0,37.81515 v 18.86793 c 55.9187,0 121.0493,0.59523 193.5686,3.15627 72.9408,2.57593 146.0589,6.87694 222.9288,13.47676 119.09,10.22471 223.0762,23.76065 340.6056,39.2177 117.5025,15.4535 222.0471,29.0563 341.8507,39.33119 77.366,6.63526 151.0001,10.96128 224.4674,13.55245 73.0344,2.5759 138.631,3.17494 194.9247,3.17494 -55.9642,0 -122.2215,-1.36595 -194.8324,-5.25395 -73.2143,-3.92031 -146.9676,-10.0663 -223.8166,-18.88656 -118.8791,-13.6442 -223.3242,-31.02112 -339.8009,-50.57815 -116.4705,-19.55598 -221.1862,-36.99475 -340.3724,-50.69165 -77.0605,-8.8558 -150.9942,-15.02659 -224.3694,-18.96225 -72.7637,-3.90286 -139.1256,-5.2726 -195.1541,-5.2726 z m 0,37.81516 v 18.86792 c 55.9187,0 121.0493,0.59523 193.5686,3.15628 72.9408,2.57593 146.0589,6.87694 222.9288,13.47675 119.09,10.22471 223.0762,23.76065 340.6056,39.2177 117.5025,15.4535 222.0471,29.0563 341.8507,39.3312 77.366,6.63525 151.0001,10.96128 224.4674,13.55245 73.0344,2.5759 138.631,3.17493 194.9247,3.17493 -55.9642,0 -122.2215,-1.36594 -194.8324,-5.25394 -73.2143,-3.92032 -146.9676,-10.0663 -223.8166,-18.88656 -118.8791,-13.6442 -223.3242,-31.02113 -339.8009,-50.57815 -116.4705,-19.55598 -221.1862,-36.99475 -340.3724,-50.69165 -77.0605,-8.8558 -150.9942,-15.0266 -224.3694,-18.96225 -72.7637,-3.90286 -139.1256,-5.27261 -195.1541,-5.27261 z m 0,37.81515 v 18.86793 c 55.9187,0 121.0493,0.59523 193.5686,3.15627 72.9408,2.57593 146.0589,6.87694 222.9288,13.47676 119.09,10.22471 223.0762,23.76065 340.6056,39.2177 117.5025,15.4535 222.0471,29.0563 341.8507,39.33119 77.366,6.63526 151.0001,10.96128 224.4674,13.55245 73.0344,2.5759 138.631,3.17494 194.9247,3.17494 -55.9642,0 -122.2215,-1.36595 -194.8324,-5.25395 -73.2143,-3.92031 -146.9676,-10.0663 -223.8166,-18.88656 -118.8791,-13.6442 -223.3242,-31.02112 -339.8009,-50.57815 -116.4705,-19.55598 -221.1862,-36.99475 -340.3724,-50.69165 -77.0605,-8.8558 -150.9942,-15.02659 -224.3694,-18.96225 -72.7637,-3.90286 -139.1256,-5.2726 -195.1541,-5.2726 z m 0,37.81516 v 18.86792 c 55.9187,0 121.0493,0.59523 193.5686,3.15628 72.9408,2.57593 146.0589,6.87694 222.9288,13.47675 119.09,10.22471 223.0762,23.76065 340.6056,39.2177 117.5025,15.4535 222.0471,29.0563 341.8507,39.3312 77.366,6.63525 151.0001,10.96128 224.4674,13.55245 73.0344,2.5759 138.631,3.17493 194.9247,3.17493 -55.9642,0 -122.2215,-1.36594 -194.8324,-5.25394 -73.2143,-3.92032 -146.9676,-10.0663 -223.8166,-18.88656 -118.8791,-13.6442 -223.3242,-31.02113 -339.8009,-50.57815 -116.4705,-19.55598 -221.1862,-36.99475 -340.3724,-50.69165 -77.0605,-8.8558 -150.9942,-15.0266 -224.3694,-18.96225 -72.7637,-3.90286 -139.1256,-5.27261 -195.1541,-5.27261 z"
         id="use26"
         transform="matrix(0.22300099,0,0,0.37823052,-402.85121,237.25945)" />
    </pattern>
    <clipPath
       clipPathUnits="userSpaceOnUse"
       id="clipPath54">
      <path
         id="path336"
         style="stroke-width:0.0999999;stroke-linecap:square;paint-order:markers fill stroke;stop-color:#000000"
         d="m 1691.1994,-792.32001 h 1634.8919 v 92.82806 H 1691.1994 Z" />
    </clipPath>
    <clipPath
       clipPathUnits="userSpaceOnUse"
       id="clipPath33">
      <rect
         style="fill:#000000;stroke:none;stroke-width:0.999995;stroke-linecap:butt;stroke-linejoin:bevel;paint-order:stroke markers fill;stop-color:#000000"
         id="rect33"
         width="46.19186"
         height="80.006783"
         x="74.999985"
         y="399.99661" />
    </clipPath>
    <clipPath
       clipPathUnits="userSpaceOnUse"
       id="clipPath27">
      <rect
         style="fill:none;stroke:#000000;stroke-width:0.999999;stroke-linecap:butt;stroke-linejoin:bevel;paint-order:stroke markers fill;stop-color:#000000"
         id="rect28-6"
         width="46.160622"
         height="39.922417"
         x="86.574379"
         y="420.06253" />
    </clipPath>
    <clipPath
       clipPathUnits="userSpaceOnUse"
       id="clipPath25">
      <rect
         style="fill:#ff0000;stroke:none;stroke-width:3;stroke-linecap:square;stroke-linejoin:miter;paint-order:stroke markers fill;stop-color:#000000"
         id="rect25-8"
         width="78"
         height="45.033199"
         x="763.61322"
         y="452.82422" />
    </clipPath>
    <clipPath
       clipPathUnits="userSpaceOnUse"
       id="clipPath15">
      <rect
         style="fill:none;stroke:#000000;stroke-linecap:butt;stroke-linejoin:bevel;paint-order:stroke markers fill;stop-color:#000000"
         id="rect15-7"
         width="45.034248"
         height="38.955639"
         x="262.48285"
         y="121.00073" />
    </clipPath>
    <linearGradient
       id="swatch75">
      <stop
         style="stop-color:#000000;stop-opacity:1;"
         offset="0"
         id="stop75" />
    </linearGradient>
  </defs>
  <g
     id="layer70"
     style="display:inline">
    <g
       id="layer73"
       style="display:inline">
      <path
         style="baseline-shift:baseline;display:inline;overflow:visible;opacity:1;vector-effect:none;fill-rule:evenodd;enable-background:accumulate;stop-color:#000000;stop-opacity:1"
         d="m 629.60937,392.88477 c -1.15692,0.047 -1.91005,0.17578 -2.23828,0.17578 h -7.00976 -19.27735 -22.78125 -8.76171 c -0.80964,0 -3.07041,-0.41489 -6.67188,0.0996 -3.32009,0.47429 -5.14069,1.11262 -6.23437,1.47461 0.1772,-0.23532 -1.40356,-0.31343 -4.82618,0.37109 -3.35029,0.67005 -4.98721,1.33406 -5.13672,1.57812 -0.0972,-0.0137 0.2613,-0.0143 -0.58203,-0.10937 -1.46027,-0.16455 -4.20733,-0.57737 -7.75,0.60351 -3.14732,1.04912 -4.6466,2.62361 -5.64453,3.91993 -0.9601,0.16781 -2.57685,0.57119 -4.87109,1.33593 v 0.002 c -3.02795,1.00933 -4.48939,2.13239 -4.81445,2.29492 -2.33657,1.16828 -4.67318,2.33561 -7.00977,3.50391 -2.9608,1.48039 -4.9097,2.65876 -6.04883,3.08593 -4.16521,1.56196 -2.2309,0.96179 -4.9043,1.18946 -1.33669,0.11383 -3.57293,0.58357 -5.48632,1.3457 -1.9134,0.76213 -3.88896,1.7673 -6.72657,3.34375 -4.45953,2.47752 -6.64036,4.97183 -7.69921,5.67773 -2.04256,1.3617 -5.13612,2.84074 -8.76172,5.25782 -3.35328,2.23551 -5.50265,4.25306 -7.00977,5.25781 -2.73055,1.82036 -5.27334,3.42573 -7.6875,4.63281 -0.45419,0.2271 -4.50986,0.39693 -10.02539,4.25781 -5.28214,3.6975 -7.99617,7.78133 -10.09766,9.88282 -2.65016,2.65016 -4.70605,4.96277 -6.52539,6.55468 -0.73159,0.64015 -3.74246,1.96123 -7.49414,5.71289 -4.50641,4.50642 -6.818,8.56801 -8.76367,10.51368 -2.19343,2.19343 -5.91532,4.60464 -10.13281,8.40039 -2.97705,2.67933 -5.3018,5.28226 -7.39063,7.37109 -2.61339,2.61339 -4.69745,4.93225 -6.58203,6.60742 -1.72749,1.53555 -5.25971,3.48237 -9.18945,7.41211 -3.78841,3.78843 -5.08325,6.78848 -5.66016,7.4375 -1.78275,2.0056 -5.32616,4.54818 -9.02929,9.07422 -3.58678,4.38385 -5.59241,8.44199 -7.46094,11.11133 -1.29906,1.85581 -3.20704,4.08007 -5.25781,7.00976 -2.67622,3.82316 -4.85476,7.43705 -7.00977,10.51563 -1.21223,1.73176 -3.23328,3.97003 -5.38477,7.19726 -2.5011,3.75164 -3.89641,6.81073 -5.13085,8.57422 -1.24311,1.77587 -4.24571,4.40173 -7.25391,9.12891 -2.84038,4.46343 -4.31802,8.51885 -5.76367,11.41016 l -0.13282,0.26367 -0.11523,0.26953 c -2.07409,4.83952 -3.20425,8.54374 -4.4668,10.70703 -0.33411,0.40309 -0.82799,0.99116 -1.42382,1.69727 -1.20956,1.43341 -2.82412,3.33925 -4.48633,5.33398 -1.66222,1.99473 -3.3681,4.07213 -4.83008,5.94141 -1.46198,1.86928 -2.41841,2.77041 -3.82227,5.57812 -1.50869,3.0174 -1.6671,5.38573 -1.83593,6.59961 -0.0507,0.36478 -0.0737,0.42921 -0.10938,0.5918 -0.18517,0.0318 -2.14106,1.68191 -4.80273,6.33984 -1.48004,2.59009 -2.18519,4.35841 -2.37305,5.22852 -0.82242,0.71391 -1.78009,1.68753 -2.77734,3.34961 -2.43854,4.06421 -2.53725,6.85979 -2.66407,7.24023 -0.70796,2.12386 -1.15553,3.71696 -1.55078,4.70508 0.27715,-0.69288 -0.76944,0.50556 -1.95312,4.05664 -1.80613,5.4184 -3.30803,12.62642 -3.94141,17.69336 -0.31068,2.4855 -0.31354,3.99953 -0.22656,4.72266 -0.37935,0.57814 -1.02948,2.31184 -1.50195,5.61914 -0.59711,4.17974 -0.10157,7.03005 -0.10157,8.42382 v 8.76172 15.77149 3.50586 c 0,-1.19867 0.0693,-1.17849 -0.0391,-0.1836 -0.10837,0.9949 -0.3683,3.48026 1.0957,6.40821 0.174,0.34798 0.34725,0.42836 0.52735,0.72656 0.0789,1.28249 0.33973,2.75952 1.22461,4.5293 v 0.002 c 1.71263,3.42522 3.84247,4.67717 4.62695,5.22461 0.44991,1.50634 1.22526,3.10416 2.50391,4.38281 0.30513,0.30513 0.6699,0.49503 1.00586,0.74609 0.25106,0.33596 0.44096,0.70073 0.74609,1.00586 1.31375,1.31376 2.96911,2.03673 4.55078,2.49805 0.52585,0.38655 0.80884,0.75695 1.55273,1.12891 0.52511,0.26255 0.95719,0.3427 1.4375,0.51172 0.39922,1.06618 1.08148,2.73188 2.97461,4.625 1.64966,1.64965 3.06788,2.33006 4.15625,2.77343 0.48401,0.43289 1.06499,0.94047 2.625,1.98047 3.03252,2.02167 5.76857,2.87952 7.29297,3.45117 1.05497,0.39562 1.27025,0.58059 1.63672,0.8086 0.55077,1.25846 1.57309,3.74805 4.82422,6.07031 5.28818,3.77728 9.43752,4.06665 10.44922,4.48828 5.17921,2.59281 7.3912,3.73483 7.93555,4.01953 0.19551,0.10248 0.46735,0.25226 0.62695,0.33399 0.2502,0.12812 0.18297,0.11265 0.82226,0.40234 0.0799,0.0362 0.16771,0.0795 0.41211,0.17773 0.12221,0.0491 0.2699,0.11067 0.61719,0.22461 0.3473,0.11395 3.21052,0.49806 3.21094,0.49805 10e-6,0 0.19946,-0.43586 0.21094,-0.46094 0.26875,0.10664 0.30704,0.11188 0.59375,0.22657 2.83005,1.13202 5.93409,2.83887 9.4414,4.75195 1.57539,0.8593 4.45045,3.60947 9.83594,5.76367 5.78336,2.31335 9.21353,1.91948 9.31445,1.95313 0.75166,0.25055 1.01842,0.40326 1.62696,0.64062 0.89293,1.14231 1.85644,1.7572 2.42382,2.15625 1.09663,0.77127 1.74032,1.02835 2.35157,1.29297 2.44501,1.05847 4.72194,1.66973 9.90039,3.08203 6.83718,1.86468 10.57525,2.36973 13.50976,2.11719 2.93451,-0.25254 2.11666,-0.54337 7.49219,-0.0547 2.05633,0.18694 5.49472,1.29746 10.51563,1.75391 4.99005,0.45364 7.79393,-0.12045 8.3457,-0.0469 8.22933,1.09725 12.29949,1.86486 13.86133,2.23633 2.53763,1.50067 3.81401,1.36124 4.46093,1.41211 1.35377,0.10645 1.62189,0.0464 2.61915,0.0332 1.9945,-0.0263 5.79577,-0.0898 13.67578,-0.0898 h 66.59179 15.77344 c 4.51858,0 7.53389,-0.33989 8.99414,-0.11524 1.80827,0.2782 5.63814,2.4003 12.14258,3.48438 5.04313,0.84052 8.5815,0.13672 10.40625,0.13672 h 14.01953 10.51563 c -0.64494,0 0.43232,0.50919 2.75781,0.31055 2.10823,0.50392 4.39506,0.63624 6.54883,0.0312 3.92684,-1.10305 6.0494,-3.51451 7.26757,-5.05079 0.80013,-1.00906 1.02655,-1.42641 1.37696,-1.97656 0.55534,-0.15365 0.90072,-0.22667 2.73437,-0.83789 l 1.53907,-0.51367 1.29882,-0.97266 c 2.88539,-2.16403 4.82627,-3.88677 6.1543,-4.68359 2.11539,-1.26923 5.84011,-2.52864 10.4082,-5.19336 6.21645,-3.62626 9.17212,-5.39358 11.06446,-6.6582 0.47308,-0.31616 0.87472,-0.58404 1.46093,-1.0586 0.29311,-0.23728 0.63121,-0.50771 1.17188,-1.08398 0.31796,-0.3389 0.80073,-0.86537 1.31641,-1.71875 0.90433,-0.63597 1.55278,-1.12894 2.84179,-1.94922 2.50292,-1.59277 7.63139,-3.12597 13.23047,-7.70703 5.36955,-4.39327 7.0661,-8.66431 8.07617,-9.77539 4.12786,-4.54064 6.30449,-6.93276 7.51953,-8.21875 0.37074,-0.13941 0.84668,-0.1765 1.18164,-0.33008 2.54623,-1.16746 4.90993,-2.74983 9.17579,-5.94922 5.37961,-4.03471 8.70422,-8.97969 11.33789,-13.36914 0.47722,-0.79538 0.48283,-0.81257 0.78515,-1.30078 0.47164,-0.24236 0.85632,-0.38989 1.44336,-0.78125 2.47552,-1.65034 3.18025,-2.72381 3.15821,-2.82422 0.11451,-0.096 0.11789,-0.10262 0.30859,-0.25586 0.8775,-0.7051 2.90508,-2.36372 3.97851,-5.58398 0.69086,-2.07258 1.02316,-4.29929 0.80274,-6.45313 -0.0466,-0.45527 -0.20554,-0.83651 -0.31055,-1.28125 0.11975,1.01301 0.081,2.32818 -0.44726,4.04297 -1.09932,3.5683 -4.77114,5.98746 -6.41016,6.52148 -0.87374,0.28469 -0.97181,0.2073 -1.36914,0.25 v -19.74609 c -0.63029,0 -0.14524,-0.0944 -2.00391,-0.0195 -0.46466,0.0187 -1.12634,-0.0526 -2.82226,0.5 -1.69593,0.55256 -5.3969,2.99952 -6.50781,6.60547 -0.21283,0.69081 -0.2954,1.26938 -0.375,1.84375 -1.08743,0.44622 -2.49258,1.12931 -4.125,2.76172 -4.25245,4.25244 -4.20493,7.01146 -3.25586,5.42968 -2.22376,3.70626 -3.84182,5.90089 -6.1875,7.66016 -3.67621,2.75716 -5.43457,3.69981 -5.38868,3.68555 -1.94311,0.50683 -3.85986,1.44162 -4.68554,2.10937 -1.03091,0.83374 -1.57489,1.42524 -2.36524,2.25391 -1.58069,1.65734 -3.90521,4.23187 -8.23633,8.99609 -4.02198,4.4242 -5.52316,7.40621 -5.94335,7.75 -1.69087,1.38344 -5.85918,2.84841 -11.30274,6.3125 -4.76028,3.02927 -6.07214,3.54281 -8.75,6.19727 -0.4075,0.40394 -1.18577,0.66774 -1.9043,1.94922 -1.62357,0.99308 -2.5456,1.59041 -6.53906,3.91992 -2.20144,1.28418 -6.0162,2.55543 -10.62109,5.31836 v 0.002 c -2.90447,1.74269 -4.86897,3.4024 -6.50586,4.73828 -1.20334,0.30562 -2.79775,0.75531 -5.08789,1.90039 -2.52543,1.26271 -3.68736,2.58664 -4.54492,3.7461 L 612,785.51367 c -0.21198,0.0175 -0.73306,0.0918 -2.15234,0.0918 H 599.33203 585.3125 c -4.01671,0 -6.39836,0.25457 -7.11719,0.13476 -1.8851,-0.31418 -5.79253,-2.50835 -12.39062,-3.52343 -5.46797,-0.84123 -9.544,-0.11719 -12.03516,-0.11719 H 537.99609 471.4043 c -7.66595,0 -11.37748,0.0607 -13.37696,0.0879 -0.78909,-0.27734 -1.60277,-0.64014 -2.47656,-0.85156 -2.96595,-0.71764 -7.45896,-1.49739 -16.12109,-2.65235 -5.23843,-0.69845 -8.35033,0.0284 -9.17774,-0.0469 -2.05631,-0.18694 -5.49471,-1.29746 -10.51562,-1.75391 -6.6744,-0.60676 -10.59435,0.0105 -11.01758,0.0469 -0.42323,0.0364 -0.29774,0.21425 -6.5332,-1.48633 -2.6607,-0.72565 -2.68246,-0.77318 -3.89258,-1.1543 -0.7032,-0.76332 -1.3505,-1.29949 -1.84961,-1.64844 -3.31471,-2.31742 -4.92178,-2.52145 -9.49805,-4.04687 -5.55049,-1.85016 -8.46326,-1.65171 -8.21094,-1.55078 -0.9395,-0.3758 -3.28244,-2.3492 -7.6875,-4.75195 -3.37286,-1.83975 -7.14331,-3.98311 -11.58984,-5.76172 -3.06136,-1.22455 -5.22151,-2.04856 -6.86719,-2.6211 -0.82283,-0.28627 -1.50497,-0.50977 -2.24804,-0.71289 -0.46705,-0.12766 -0.96212,-0.29425 -1.8086,-0.40039 -1.09291,-0.54976 -0.81173,-0.42149 -2.33593,-1.18359 l -0.20313,-0.10156 -0.20898,-0.0918 c -3.41212,-1.51649 -5.15894,-2.05326 -6.07422,-2.27735 -0.53673,-1.22955 -1.41015,-2.99478 -3.85157,-5.02929 -3.01181,-2.50986 -6.16797,-3.78662 -8.14843,-4.5293 -1.17928,-0.44223 -1.40472,-0.58493 -1.91797,-0.8125 -0.36599,-0.37741 -1.23807,-1.09556 -3.05469,-2.30664 -0.65575,-0.43716 -1.10272,-0.61899 -1.61328,-0.87305 -0.25388,-0.50992 -0.43472,-0.95481 -0.87109,-1.60937 -1.90875,-2.86312 -3.34239,-3.61778 -3.00196,-3.27735 0.90661,0.90661 0.15866,-1.36992 -4.35156,-3.625 -0.71963,-0.35981 -1.33472,-0.51114 -1.96875,-0.70117 -0.23595,-0.30914 -0.40706,-0.64925 -0.68945,-0.93164 -0.30514,-0.30512 -0.66991,-0.49503 -1.00586,-0.74609 -0.25108,-0.33596 -0.44096,-0.70073 -0.7461,-1.00586 -0.2486,-0.2486 -0.58265,-0.51117 -0.8789,-0.76953 -0.45991,-0.6762 -0.907,-1.24548 -1.35352,-1.70703 -0.16078,-1.09769 -0.4584,-2.29768 -1.15234,-3.68555 -0.23001,-0.46002 -0.45803,-0.5869 -0.69727,-0.96094 v -1.57812 -15.77149 -8.76172 c 0,-3.27938 -0.16338,-5.14925 -0.0996,-5.5957 -0.2228,1.55963 0.87484,0.0245 1.7168,-5.02734 0.78395,-4.70365 0.18264,-6.65452 0.0586,-5.66211 -0.0778,0.62235 3.07352,-13.86507 3.06836,-13.84961 -0.35758,1.07276 0.30344,0.16527 1.55078,-2.95313 0.97686,-2.4421 1.49475,-4.42759 1.95508,-5.80859 0.86449,-2.59347 0.90099,-2.91139 0.69727,-2.71875 0.82957,-0.62291 2.22131,-1.68201 3.64844,-4.06055 2.2445,-3.74082 2.7579,-5.84831 2.47461,-6.04687 0.74612,-0.6426 2.64684,-2.37767 4.90429,-6.89258 1.5087,-3.0174 1.66711,-5.38573 1.83594,-6.59961 0.059,-0.42397 0.094,-0.53528 0.12891,-0.6875 -0.20704,0.48083 0.39797,-0.5492 1.47461,-1.92578 1.23183,-1.57501 2.84579,-3.54418 4.4414,-5.45899 1.59562,-1.9148 3.17584,-3.78014 4.40625,-5.23828 0.61521,-0.72907 1.14013,-1.35337 1.5625,-1.86328 0.21119,-0.25495 0.39422,-0.47758 0.58008,-0.71094 0.18586,-0.23335 0.15767,-0.0521 0.91406,-1.28125 3.31326,-5.38403 4.53034,-10.23025 5.87891,-13.42578 1.9194,-3.89058 3.24305,-7.16738 4.55469,-9.22851 1.008,-1.58401 3.71883,-4.04393 6.76562,-8.39649 2.67212,-3.8173 4.10906,-7.03273 5.38672,-8.94922 1.08876,-1.63314 2.99128,-3.76852 5.12891,-6.82226 2.67621,-3.82316 4.85475,-7.43509 7.00976,-10.51367 1.29906,-1.85581 3.20704,-4.08008 5.25781,-7.00977 2.96269,-4.2324 4.80862,-7.78149 6.55664,-9.91797 1.5281,-1.86766 4.79051,-4.28239 8.4961,-8.45117 3.30393,-3.71693 4.51141,-6.23992 4.85351,-6.58203 1.35991,-1.3599 4.4723,-3.17112 8.33594,-6.60547 3.05495,-2.7155 5.37773,-5.35429 7.4375,-7.41406 2.58432,-2.58433 4.69168,-4.9067 6.62695,-6.64844 2.56479,-2.30831 6.63784,-4.8644 10.89649,-9.12305 4.50641,-4.50641 6.81605,-8.568 8.76172,-10.51367 0.37886,-0.37885 2.85889,-1.59626 6.52344,-4.80273 3.15432,-2.76002 5.47309,-5.44185 7.49609,-7.46485 3.73995,-3.73995 5.9402,-6.60071 7.42578,-7.64062 -0.36141,0.25299 2.32698,-0.1674 7.5,-2.75391 3.6789,-1.83945 6.90032,-3.92248 9.83789,-5.88086 3.35324,-2.2355 5.50266,-4.25308 7.00977,-5.25781 2.04252,-1.36168 5.13613,-2.83881 8.76172,-5.25586 3.80151,-2.53435 5.67155,-4.47855 6.31835,-4.83789 2.47273,-1.37374 3.90342,-2.04192 4.41602,-2.24609 0.5126,-0.20418 -0.2759,0.007 -0.21875,0.002 0.11431,-0.01 4.62335,-0.28796 10.23047,-2.39062 3.75295,-1.40737 6.25834,-3.06765 7.9707,-3.92383 2.33657,-1.16829 4.67318,-2.33757 7.00977,-3.50586 2.01151,-1.00577 2.74494,-1.3922 2.19531,-1.20899 -0.0648,0.0216 3.12684,0.30084 8.31836,-2.29492 1.56175,-0.78087 2.58565,-1.62668 3.39258,-2.42383 1.04627,0.0901 2.35543,0.11916 4.06445,-0.125 3.09026,-0.44145 4.56199,-0.99671 5.30274,-1.40234 0.66603,0.004 1.69219,-0.0538 3.68945,-0.38672 4.10181,-0.68363 6.27888,-1.64531 6.7793,-1.7168 -0.13184,0.0188 1.14851,0.10157 3.84375,0.10157 h 8.76171 22.78125 19.27735 7.00976 c 2.84844,0 4.04686,-0.0645 3.61328,-0.13672 -1.25473,-0.20912 0.3589,0.93547 5.25782,1.75195 4.97185,0.82865 6.77053,0.25245 5.25586,0 1.04193,0.17366 0.92584,0.1628 1.1875,0.22656 0.48341,0.48189 0.49878,0.60366 1.17773,1.11719 1.60058,1.21061 3.44838,2.21058 5.85547,3.24219 4.23181,1.81363 6.71969,1.90686 7.39453,1.99219 0.0334,0.1265 1.09431,0.7049 3.3457,1.60546 2.80553,1.12221 4.63117,1.50208 5.25586,1.75196 0.18464,0.0738 1.08456,0.58036 2.74805,1.41211 1.16833,0.58417 2.33566,1.16782 3.50391,1.75195 0.74546,0.37273 0.53881,0.24617 0.94922,0.44141 0.30214,0.3434 1.31246,1.15818 3.23437,2.43945 1.24625,0.83083 1.96271,1.18913 2.60938,1.50977 0.47944,0.43104 1.07389,0.9477 2.64648,1.99609 1.00814,0.67209 1.82982,1.06839 2.48047,1.3418 0.19042,0.40605 0.89317,1.56752 2.50586,4.21289 1.93426,3.17285 5.52863,8.21348 12.18945,9.85351 l 4.78125,-19.41992 c 1.10569,0.27224 1.17436,0.9096 0.10547,-0.84375 -1.06889,-1.75334 -2.18644,-5.03018 -5.93945,-8.7832 -1.64924,-1.64922 -3.0679,-2.33195 -4.15625,-2.77539 -0.48399,-0.43288 -1.06502,-0.94048 -2.625,-1.98047 -1.2529,-0.83527 -1.97825,-1.19768 -2.625,-1.51758 -0.48233,-0.43222 -1.0682,-0.94325 -2.63282,-1.98633 -2.46281,-1.64186 -4.14939,-2.16259 -4.57812,-2.37695 -1.16833,-0.58417 -2.33761,-1.16782 -3.50586,-1.75195 -0.67307,-0.33654 -2.02279,-1.19741 -4.26367,-2.09375 -2.80553,-1.12221 -4.63116,-1.50208 -5.25586,-1.75196 0.69279,0.27712 -0.50565,-0.76944 -4.05664,-1.95312 v -0.002 c -4.26534,-1.42177 -6.43696,-1.54469 -6.23242,-1.45703 -1.32639,-0.56845 -1.59567,-0.79075 -1.53125,-0.74218 -0.0574,-0.0652 0.0154,0.0121 -0.0918,-0.10743 -0.77212,-0.86039 -3.24878,-2.83032 -5.23047,-3.60547 -1.98169,-0.77514 -3.64798,-1.08976 -5.95703,-1.4746 -2.93573,-0.4893 -4.62376,-0.47235 -5.31836,-0.3379 -0.68711,-0.36477 -2.30385,-0.93182 -5.19727,-1.41406 -1.94538,-0.32423 -3.50518,-0.35759 -4.66211,-0.31054 z m -98.08984,9.6289 c -0.006,0.008 -0.0297,0.037 -0.0352,0.0449 -0.32632,0.47315 -0.33153,0.33832 0.0352,-0.0449 z m 196.41016,305.84375 c 0.098,0.25532 0.21326,0.73863 0.33593,1.1836 -0.14821,-0.4913 -0.19674,-0.82277 -0.33593,-1.1836 z m -426.73438,4.70313 c -0.17755,-0.13013 0.0821,-0.0273 0.53321,0.40625 -0.15486,-0.10294 -0.47116,-0.36078 -0.53321,-0.40625 z m 2.61914,6.08007 c 0.0139,0.0132 0.0495,0.0808 0.0645,0.0957 -0.0102,-0.007 -0.0451,-0.0359 -0.0547,-0.043 -0.34575,-0.25339 -0.28577,-0.3152 -0.01,-0.0527 z m -17.43554,2.53711 c -0.0235,0.11069 -0.10055,0.69787 -0.17188,0.9668 0.0114,-0.90163 0.23926,-1.28404 0.17188,-0.9668 z m 27.08007,7.02344 c 0.43356,0.45115 0.53638,0.71076 0.40625,0.5332 -0.0455,-0.0621 -0.30316,-0.37815 -0.40625,-0.5332 z m -24.61523,0.0859 c 0.15354,0.102 0.4676,0.35908 0.5293,0.4043 0.17738,0.12999 -0.0789,0.0282 -0.5293,-0.4043 z m 0.96875,0.84766 c 0.0203,0.002 1.49036,0.21508 1.80664,0.25976 -0.11087,0.40107 -0.20008,0.43094 -0.28125,1.38281 -0.0748,0.87762 0.0358,2.28794 0.4668,3.79493 -0.2861,-0.31098 -0.64421,-0.71224 -1.08203,-1.5879 z m 1.83203,0.26367 c 3.16224,0.44685 17.85471,2.55037 17.85352,2.55859 -0.003,0.0182 -0.005,0.038 -0.008,0.0566 -0.0113,0.0747 -0.0233,0.1501 -0.0371,0.22852 -0.0554,0.31368 -0.12647,0.66262 -0.30078,1.18554 -0.34861,1.04586 -1.04619,4.12543 -5.83203,5.72071 -2.39292,0.79764 -5.10515,0.38937 -6.58789,-0.2461 -0.93012,-0.39862 -1.11584,-0.66794 -1.49609,-0.98242 -1.59117,-2.29661 -2.01941,-5.105 -1.91211,-6.36328 0.12585,-1.47593 0.34265,-1.77681 0.29101,-1.60937 -0.0516,0.16743 -0.37177,0.8033 -0.52343,2.58203 -0.0734,0.86046 0.0453,2.24939 0.45507,3.72265 -1.64243,-2.31105 -2.08518,-5.17326 -1.97656,-6.44726 0.0317,-0.37218 0.0366,-0.17201 0.0742,-0.40625 z m 0.30664,5.38867 c 0.009,0.007 0.0419,0.0326 0.0508,0.0391 0.36249,0.26566 0.26018,0.26943 -0.0508,-0.0391 z m 14.59375,8.71094 c 0.4098,-0.10755 -0.4744,0.55413 -2.44726,0.34179 1.26034,-0.0816 2.19206,-0.27482 2.44726,-0.34179 z m 3.08399,1.80664 c 0.15626,-0.0332 -0.35642,0.22466 -1.37891,0.25 0.54846,-0.10881 1.28386,-0.22981 1.37891,-0.25 z m 343.82421,15.26367 c 0.0556,-0.029 0.84508,0.0214 1.18165,0.0176 -0.12212,0.0297 -0.56323,0.0613 -0.64649,0.0781 -0.25908,0.0524 -0.65658,-0.0323 -0.53516,-0.0957 z m -296.66796,2.09961 c -0.0343,1.00289 -0.17225,2.06708 -0.61329,3.20117 -0.57492,1.47837 -1.50686,2.67588 -2.49609,3.60156 1.36522,-2.98656 1.90806,-4.1744 3.10938,-6.80273 z m 29.63086,9.18555 c 0.12127,0.0636 0.13343,0.17818 0.0312,0.2246 -0.20438,0.0929 -0.72062,0.20719 -2.0625,1.20118 -0.12217,0.0905 -0.29379,0.25617 -0.4336,0.36718 1.32871,-1.65371 2.19577,-1.93408 2.46485,-1.79296 z m -41.34766,0.13476 c 0.01,0.003 0.31104,0.10348 0.47656,0.15625 -0.41314,-0.0696 -0.4875,-0.15924 -0.47656,-0.15625 z m 115.80078,11.125 c 0.0459,0.0281 0.0566,0.0176 0.10352,0.0469 0.0966,0.0604 0.16237,0.15734 0.25586,0.22265 -0.12073,-0.0832 -0.24365,-0.19673 -0.35938,-0.26953 z m 167.64844,14.27344 c 0.13939,-0.20126 0.14057,-0.0774 -0.15235,0.2207 0.0231,-0.0354 0.13303,-0.19281 0.15235,-0.2207 z m -180.69727,0.18359 c 0.19732,0.27195 0.36601,0.53701 0.59766,0.80664 -0.0894,-0.0894 -0.12303,-0.0653 -0.21485,-0.16406 -0.19757,-0.21258 -0.19866,-0.38043 -0.38281,-0.64258 z"
         id="path433" />
    </g>
  </g>
</svg>
