<?xml version="1.0" encoding="UTF-8" standalone="no"?>
<!-- Created with Inkscape (http://www.inkscape.org/) -->

<svg
   width="1000"
   height="1000"
   viewBox="0 0 1000 1000"
   version="1.1"
   id="svg1"
   xmlns:xlink="http://www.w3.org/1999/xlink"
   xmlns="http://www.w3.org/2000/svg"
   xmlns:svg="http://www.w3.org/2000/svg">
  <defs
     id="defs1">
    <pattern
       xlink:href="#pattern359"
       preserveAspectRatio="xMidYMid"
       id="pattern372"
       patternTransform="matrix(0.5,0,0,0.5,147.15462,1548.2922)" />
    <pattern
       xlink:href="#pattern357"
       preserveAspectRatio="xMidYMid"
       id="pattern371"
       patternTransform="matrix(0.5,0,0,0.5,221.32076,1552.4298)" />
    <pattern
       xlink:href="#pattern358"
       preserveAspectRatio="xMidYMid"
       id="pattern370"
       patternTransform="matrix(0.5,0,0,0.5,230.96346,1527.8214)" />
    <pattern
       xlink:href="#pattern355"
       preserveAspectRatio="xMidYMid"
       id="pattern369"
       patternTransform="matrix(0.5,0,0,0.5,287.08178,1553.6581)" />
    <pattern
       xlink:href="#pattern354"
       preserveAspectRatio="xMidYMid"
       id="pattern368"
       patternTransform="matrix(0.5,0,0,0.5,230.97274,1529.1717)" />
    <pattern
       xlink:href="#pattern342"
       preserveAspectRatio="xMidYMid"
       id="pattern360"
       patternTransform="matrix(0.5,0,0,0.5,210.45332,1525.5392)" />
    <pattern
       xlink:href="#pattern342"
       preserveAspectRatio="xMidYMid"
       id="pattern359"
       patternTransform="matrix(0.5,0,0,0.5,152.11125,1550.7705)" />
    <pattern
       xlink:href="#pattern342"
       preserveAspectRatio="xMidYMid"
       id="pattern358"
       patternTransform="matrix(0.5,0,0,0.5,202.11125,1533.2444)" />
    <pattern
       xlink:href="#pattern342"
       preserveAspectRatio="xMidYMid"
       id="pattern357"
       patternTransform="matrix(0.5,0,0,0.5,211.4075,1546.234)" />
    <pattern
       xlink:href="#pattern342"
       preserveAspectRatio="xMidYMid"
       id="pattern356"
       patternTransform="matrix(0.5,0,0,0.5,232.14929,1573.2544)" />
    <pattern
       xlink:href="#pattern342"
       preserveAspectRatio="xMidYMid"
       id="pattern355"
       patternTransform="matrix(0.5,0,0,0.5,275,1552.7287)" />
    <pattern
       xlink:href="#pattern342"
       preserveAspectRatio="xMidYMid"
       id="pattern354"
       patternTransform="matrix(0.5,0,0,0.5,235,1529.7913)" />
    <pattern
       xlink:href="#shading24"
       preserveAspectRatio="xMidYMid"
       id="pattern342"
       patternTransform="matrix(0.5,0,0,0.5,213.95332,1537.5392)"
       x="0"
       y="0" />
    <pattern
       patternUnits="userSpaceOnUse"
       width="338.5925"
       height="42.989567"
       patternTransform="translate(213.95332,1537.5392) scale(0.5)"
       preserveAspectRatio="xMidYMid"
       id="shading24"
       style="fill:#000000">
      <path
         style="fill-rule:nonzero;stroke:none;stroke-width:0.1;stroke-linecap:square;paint-order:markers fill stroke;stop-color:#000000"
         d="m 1806.4991,-758.06464 v 18.86792 c 55.9187,0 121.0493,0.59523 193.5686,3.15628 72.9408,2.57593 146.0589,6.87694 222.9288,13.47675 119.09,10.22471 223.0762,23.76065 340.6056,39.2177 117.5025,15.4535 222.0471,29.0563 341.8507,39.3312 77.366,6.63525 151.0001,10.96128 224.4674,13.55245 73.0344,2.5759 138.631,3.17493 194.9247,3.17493 -55.9642,0 -122.2215,-1.36594 -194.8324,-5.25394 -73.2143,-3.92032 -146.9676,-10.0663 -223.8166,-18.88656 -118.8791,-13.6442 -223.3242,-31.02113 -339.8009,-50.57815 -116.4705,-19.55598 -221.1862,-36.99475 -340.3724,-50.69165 -77.0605,-8.8558 -150.9942,-15.0266 -224.3694,-18.96225 -72.7637,-3.90286 -139.1256,-5.27261 -195.1541,-5.27261 z m 0,37.81515 v 18.86793 c 55.9187,0 121.0493,0.59523 193.5686,3.15627 72.9408,2.57593 146.0589,6.87694 222.9288,13.47676 119.09,10.22471 223.0762,23.76065 340.6056,39.2177 117.5025,15.4535 222.0471,29.0563 341.8507,39.33119 77.366,6.63526 151.0001,10.96128 224.4674,13.55245 73.0344,2.5759 138.631,3.17493 194.9247,3.17493 -55.9642,0 -122.2215,-1.36594 -194.8324,-5.25394 -73.2143,-3.92031 -146.9676,-10.0663 -223.8166,-18.88656 -118.8791,-13.6442 -223.3242,-31.02112 -339.8009,-50.57815 -116.4705,-19.55598 -221.1862,-36.99475 -340.3724,-50.69165 -77.0605,-8.8558 -150.9942,-15.02659 -224.3694,-18.96225 -72.7637,-3.90286 -139.1256,-5.2726 -195.1541,-5.2726 z m 0,37.81516 v 18.86792 c 55.9187,0 121.0493,0.59523 193.5686,3.15628 72.9408,2.57593 146.0589,6.87694 222.9288,13.47675 119.09,10.22471 223.0762,23.76065 340.6056,39.2177 117.5025,15.4535 222.0471,29.0563 341.8507,39.3312 77.366,6.63525 151.0001,10.96128 224.4674,13.55245 73.0344,2.5759 138.631,3.17493 194.9247,3.17493 -55.9642,0 -122.2215,-1.36594 -194.8324,-5.25394 -73.2143,-3.92032 -146.9676,-10.0663 -223.8166,-18.88656 -118.8791,-13.6442 -223.3242,-31.02113 -339.8009,-50.57815 -116.4705,-19.55598 -221.1862,-36.99475 -340.3724,-50.69165 -77.0605,-8.8558 -150.9942,-15.0266 -224.3694,-18.96225 -72.7637,-3.90286 -139.1256,-5.27261 -195.1541,-5.27261 z m 0,37.81515 v 18.86793 c 55.9187,0 121.0493,0.59523 193.5686,3.15627 72.9408,2.57593 146.0589,6.87694 222.9288,13.47676 119.09,10.22471 223.0762,23.76065 340.6056,39.2177 117.5025,15.4535 222.0471,29.0563 341.8507,39.33119 77.366,6.63526 151.0001,10.96128 224.4674,13.55245 73.0344,2.5759 138.631,3.17494 194.9247,3.17494 -55.9642,0 -122.2215,-1.36595 -194.8324,-5.25395 -73.2143,-3.92031 -146.9676,-10.0663 -223.8166,-18.88656 -118.8791,-13.6442 -223.3242,-31.02112 -339.8009,-50.57815 -116.4705,-19.55598 -221.1862,-36.99475 -340.3724,-50.69165 -77.0605,-8.8558 -150.9942,-15.02659 -224.3694,-18.96225 -72.7637,-3.90286 -139.1256,-5.2726 -195.1541,-5.2726 z m 0,37.81516 v 18.86792 c 55.9187,0 121.0493,0.59523 193.5686,3.15628 72.9408,2.57593 146.0589,6.87694 222.9288,13.47675 119.09,10.22471 223.0762,23.76065 340.6056,39.2177 117.5025,15.4535 222.0471,29.0563 341.8507,39.3312 77.366,6.63525 151.0001,10.96128 224.4674,13.55245 73.0344,2.5759 138.631,3.17493 194.9247,3.17493 -55.9642,0 -122.2215,-1.36594 -194.8324,-5.25394 -73.2143,-3.92032 -146.9676,-10.0663 -223.8166,-18.88656 -118.8791,-13.6442 -223.3242,-31.02113 -339.8009,-50.57815 -116.4705,-19.55598 -221.1862,-36.99475 -340.3724,-50.69165 -77.0605,-8.8558 -150.9942,-15.0266 -224.3694,-18.96225 -72.7637,-3.90286 -139.1256,-5.27261 -195.1541,-5.27261 z m 0,37.81515 v 18.86793 c 55.9187,0 121.0493,0.59523 193.5686,3.15627 72.9408,2.57593 146.0589,6.87694 222.9288,13.47676 119.09,10.22471 223.0762,23.76065 340.6056,39.2177 117.5025,15.4535 222.0471,29.0563 341.8507,39.33119 77.366,6.63526 151.0001,10.96128 224.4674,13.55245 73.0344,2.5759 138.631,3.17494 194.9247,3.17494 -55.9642,0 -122.2215,-1.36595 -194.8324,-5.25395 -73.2143,-3.92031 -146.9676,-10.0663 -223.8166,-18.88656 -118.8791,-13.6442 -223.3242,-31.02112 -339.8009,-50.57815 -116.4705,-19.55598 -221.1862,-36.99475 -340.3724,-50.69165 -77.0605,-8.8558 -150.9942,-15.02659 -224.3694,-18.96225 -72.7637,-3.90286 -139.1256,-5.2726 -195.1541,-5.2726 z m 0,37.81516 v 18.86792 c 55.9187,0 121.0493,0.59523 193.5686,3.15628 72.9408,2.57593 146.0589,6.87694 222.9288,13.47675 119.09,10.22471 223.0762,23.76065 340.6056,39.2177 117.5025,15.4535 222.0471,29.0563 341.8507,39.3312 77.366,6.63525 151.0001,10.96128 224.4674,13.55245 73.0344,2.5759 138.631,3.17493 194.9247,3.17493 -55.9642,0 -122.2215,-1.36594 -194.8324,-5.25394 -73.2143,-3.92032 -146.9676,-10.0663 -223.8166,-18.88656 -118.8791,-13.6442 -223.3242,-31.02113 -339.8009,-50.57815 -116.4705,-19.55598 -221.1862,-36.99475 -340.3724,-50.69165 -77.0605,-8.8558 -150.9942,-15.0266 -224.3694,-18.96225 -72.7637,-3.90286 -139.1256,-5.27261 -195.1541,-5.27261 z"
         id="use26"
         transform="matrix(0.22300099,0,0,0.37823052,-402.85121,237.25945)" />
    </pattern>
    <clipPath
       clipPathUnits="userSpaceOnUse"
       id="clipPath54">
      <path
         id="path336"
         style="stroke-width:0.0999999;stroke-linecap:square;paint-order:markers fill stroke;stop-color:#000000"
         d="m 1691.1994,-792.32001 h 1634.8919 v 92.82806 H 1691.1994 Z" />
    </clipPath>
    <clipPath
       clipPathUnits="userSpaceOnUse"
       id="clipPath33">
      <rect
         style="fill:#000000;stroke:none;stroke-width:0.999995;stroke-linecap:butt;stroke-linejoin:bevel;paint-order:stroke markers fill;stop-color:#000000"
         id="rect33"
         width="46.19186"
         height="80.006783"
         x="74.999985"
         y="399.99661" />
    </clipPath>
    <clipPath
       clipPathUnits="userSpaceOnUse"
       id="clipPath27">
      <rect
         style="fill:none;stroke:#000000;stroke-width:0.999999;stroke-linecap:butt;stroke-linejoin:bevel;paint-order:stroke markers fill;stop-color:#000000"
         id="rect28-6"
         width="46.160622"
         height="39.922417"
         x="86.574379"
         y="420.06253" />
    </clipPath>
    <clipPath
       clipPathUnits="userSpaceOnUse"
       id="clipPath25">
      <rect
         style="fill:#ff0000;stroke:none;stroke-width:3;stroke-linecap:square;stroke-linejoin:miter;paint-order:stroke markers fill;stop-color:#000000"
         id="rect25-8"
         width="78"
         height="45.033199"
         x="763.61322"
         y="452.82422" />
    </clipPath>
    <clipPath
       clipPathUnits="userSpaceOnUse"
       id="clipPath15">
      <rect
         style="fill:none;stroke:#000000;stroke-linecap:butt;stroke-linejoin:bevel;paint-order:stroke markers fill;stop-color:#000000"
         id="rect15-7"
         width="45.034248"
         height="38.955639"
         x="262.48285"
         y="121.00073" />
    </clipPath>
    <linearGradient
       id="swatch75">
      <stop
         style="stop-color:#000000;stop-opacity:1;"
         offset="0"
         id="stop75" />
    </linearGradient>
  </defs>
  <g
     id="layer70"
     style="display:inline">
    <g
       id="layer74"
       style="display:inline">
      <path
         style="baseline-shift:baseline;display:inline;overflow:visible;opacity:1;vector-effect:none;fill-rule:evenodd;enable-background:accumulate;stop-color:#000000;stop-opacity:1"
         d="m 742.85547,214.16406 c -6.58205,4.25977 -8.84313,11.82507 -9.41016,16.24414 -0.56702,4.41907 -0.95605,6.65644 -0.9082,6.57032 -0.26372,0.47469 -3.47842,2.70379 -6.90625,8.58007 -2.72246,4.66707 -4.25122,7.43708 -5.34766,10.09961 -1.09644,2.66254 -1.50424,6.94772 -1.12695,8.91602 0.37729,1.9683 0.20665,0.3853 0.17969,0.84375 -0.027,0.45845 -0.30434,2.51684 -1.6211,6.73047 -1.25833,4.02666 -3.95534,8.73498 -6.60351,14.69336 l -0.66992,1.51172 -0.15039,1.64453 c -0.65324,7.18567 -0.57938,13.32047 -1.58399,18.14257 -1.28223,6.15468 -4.74862,13.34354 -6.94336,22.48829 -1.8773,7.82214 -2.55333,15.17156 -3.64453,21.71875 -1.24341,7.46044 -1.93482,14.33325 -3.36914,20.35742 -0.93385,3.92214 -3.34267,8.85315 -5.16406,15.41015 -0.91268,3.28567 -2.30258,9.96594 -3.89453,17.52344 -0.79598,3.77875 -1.57194,7.53264 -2.17774,10.5586 -0.60579,3.02595 -0.97353,4.64174 -1.22461,6.65039 -0.71457,5.71648 0.0959,9.38607 -0.0371,10.84961 -0.35717,3.92889 -0.82691,5.24726 -1.73437,7.84375 -0.90746,2.59648 -2.3397,6.45821 -3.40235,12.30273 -0.78397,4.31188 -0.27583,7.04606 -0.19531,8.35547 -0.55006,4.13057 -0.84561,7.78604 -1.46289,10.46094 -0.312,1.352 -2.57236,4.80328 -3.625,11.11914 -1.09127,6.54754 0.0386,10.22793 -0.0352,10.74414 -0.41209,2.8847 -2.38915,7.31348 -3.46875,13.79101 -1.18025,7.08156 -1.00197,13.0236 -1.75195,17.52344 -0.60193,3.61156 -2.10944,7.98614 -3.37695,13.37305 -2.46802,10.48913 -5.13875,23.26536 -7.10352,33.74414 -0.0812,0.43325 -0.18706,0.96706 -0.27734,1.42187 -0.43893,-1.10457 -0.9586,-2.32859 -1.03906,-2.85156 0.19874,1.29183 -0.002,-0.47625 0.004,-2.0293 0.006,-1.55304 0.0459,-3.5684 0.0879,-5.63281 0.084,-4.12882 0.34828,-7.35313 -0.0254,-11.08984 -0.46254,-4.62552 -1.5782,-7.60989 -1.80273,-9.18164 0.10145,0.71013 0.0996,0.0213 0.0996,-2.08985 v -1.23047 l -0.29883,-1.19531 c -0.71308,-2.85236 -1.3687,-4.90162 -1.58984,-6.22851 0.43589,2.6153 1.16878,1.0384 -0.16211,-4.28516 -0.38162,-1.52647 -0.66716,-2.67597 -1.40039,-4.26953 -0.55869,-1.21421 -1.92156,-2.81311 -3.25196,-4.02735 -0.0926,-0.3974 -0.64161,-1.5708 -1.98633,-3.58789 -1.90871,-2.86307 -3.34226,-3.6157 -3.00195,-3.27539 0.34027,0.34028 -0.41237,-1.09327 -3.27539,-3.00195 -2.46291,-1.64197 -4.15148,-2.16265 -4.58008,-2.37695 0.12525,0.0626 -1.47757,-1.49146 -5.55078,-2.50977 -0.71211,-0.17802 -1.11752,-0.1206 -1.69922,-0.18359 -0.93964,-0.62015 -2.05532,-1.19254 -3.55859,-1.56836 -4.83738,-1.20935 -7.54808,-0.29883 -7.68359,-0.29883 h -3.50391 -5.25781 c -1.50966,0 -4.29043,-0.41683 -8.25,0.0781 -4.29523,0.53689 -6.77867,1.67878 -7.73047,1.86914 -4.40659,0.88131 -7.04859,1.09462 -10.58594,1.76562 -3.53735,0.67101 -7.51645,1.87307 -12.62109,4.19336 -5.64023,2.56374 -7.93286,4.92356 -8.04102,4.96289 -0.0766,0.0279 -3.75885,-0.5029 -10.25976,1.66406 -5.73868,1.91289 -9.23215,4.61422 -11.49024,5.64063 -6.22569,2.82986 -6.66922,2.84079 -9,3.42578 -2.33078,0.58499 -6.24579,1.60886 -15.10937,5.1543 -4.66638,1.86654 -8.26375,4.0928 -11.27344,5.59765 -4.18835,2.09418 -7.21266,3.98785 -9.45899,4.80469 0.46996,-0.17089 -3.10397,-0.7893 -9.40625,2.01172 -5.57201,2.47646 -7.54857,4.90801 -7.48242,5.30273 -0.14377,0.0271 -0.13293,0.0346 -0.34765,0.0645 -1.21388,0.16883 -3.58221,0.32723 -6.59961,1.83593 -3.11608,1.55804 -4.47852,3.54045 -5.13477,4.39844 -0.93521,0.53295 -2.59224,1.21703 -5.38086,2.61133 0.0812,-0.0406 -2.07779,0.32746 -5.2793,2.88867 -3.54494,2.83596 -4.74296,3.5695 -6.79296,5.86719 -0.51251,0.57442 -1.27705,1.03402 -2.20899,3.67383 -0.26807,0.75934 -0.46367,1.90186 -0.49609,3.20898 -0.23937,0.30395 -0.25709,0.41351 -0.54297,0.74024 -0.9151,1.04583 -3.64587,2.71629 -7.48438,5.78711 l -1.95703,1.56445 -0.98633,2.30469 c -2.1756,5.07638 -3.26699,8.89529 -4.50195,10.83593 v 0.002 c 0.39781,-0.62514 -2.70932,0.84788 -6.76562,6.64257 -3.53927,5.05612 -4.59904,9.17768 -5.62696,11.03516 -6.1057,9.07748 -6.66207,7.93023 -8.07226,13.01367 -5.1e-4,0.002 -10e-4,0.002 -0.002,0.004 0.0167,-0.0469 0.062,-0.15193 -0.0957,0.1875 -0.45292,0.97461 -1.68574,3.4307 -4.31445,8.25 -4.27572,7.83882 -6.88314,10.00571 -11.02149,20.35156 -1.06871,2.67177 -1.56598,4.53994 -1.72461,5.58985 -1.15269,0.93901 -2.47973,2.29506 -3.53125,4.92382 -1.41212,3.53034 -0.94594,6.30018 -0.78906,7.54883 0.0427,0.33994 0.033,0.36406 0.041,0.52539 -0.19524,0.8599 -0.85234,2.58011 -1.52539,5.94531 -0.0229,0.11459 -0.002,0.15194 -0.0215,0.26172 -0.41756,0.71664 -1.02816,2.13805 -1.62695,4.53321 -1.06765,4.27063 -0.29883,6.37829 -0.29883,5.92968 v 12.26758 1.75196 c 0,-2.06492 0.19205,-1.98192 -0.0215,-0.68555 -0.21353,1.29636 -0.58868,5.96796 2.95117,9.50781 0.14086,0.14086 0.31677,0.21466 0.46484,0.34375 0.12361,1.19226 0.3948,2.52592 1.16602,4.06836 0.9269,1.85378 2.91723,3.335 4.92187,4.34375 0.44599,0.47711 1.48656,1.27173 2.61719,2.10938 0.5011,1.4691 1.38904,3.20155 3.0957,4.9082 1.29611,1.29611 2.92799,2.08902 4.4961,2.57617 0.26453,0.31328 0.4352,0.60122 0.76172,0.92773 3.90504,3.90505 6.82082,3.98365 6.10351,3.625 1.16831,0.58417 2.33759,1.16977 3.50586,1.75391 0.32498,0.16249 1.78641,1.28558 4.81445,2.29492 3.74012,1.24671 6.1801,1.4754 7.00977,1.75196 -1.44414,-0.48138 -0.4185,0.44446 3.50391,1.75195 3.25505,1.08502 5.90754,1.50667 7.74804,1.9668 1.47043,0.3676 4.16166,1.52708 8.33008,1.99023 2.70214,0.30024 4.34418,0.28528 5.58594,0.2168 0.9033,0.86958 2.05851,1.77508 3.8457,2.54101 5.39028,2.31012 9.24581,2.03618 10.53321,2.32227 2.50722,0.55716 4.53517,0.98503 6.01562,1.47851 0.97572,0.32524 4.04746,2.74834 10.13672,3.85547 5.795,1.05364 9.99043,0.16211 12.30273,0.16211 h 26.28711 22.78125 7.00977 c 1.61328,0 5.29455,0.89226 10.72265,-0.19336 6.77038,-1.35406 9.3017,-3.60208 8.58985,-3.47265 0.0898,-0.0163 0.097,-0.0133 0.18555,-0.0293 1.03247,0.71166 1.99314,1.07267 2.6582,1.28906 1.2534,0.40782 1.96323,0.44673 2.51562,0.48438 1.1048,0.0753 1.59357,0.005 2.0625,-0.043 3.75149,-0.3808 6.66753,-1.25966 15.9961,-3.5918 6.49005,-1.6225 11.76903,-3.98873 16.33008,-5.41406 3.46975,-1.08429 7.70801,-1.98275 12.44726,-3.5625 5.20297,-1.73433 9.92507,-3.71507 14.36719,-5.38086 4.53747,-1.70156 9.31964,-3.37473 14.22265,-5.33594 4.58332,-1.83332 8.58984,-3.78476 12.26758,-5.25586 4.07944,-1.63178 8.95863,-3.08634 14.24414,-5.35156 4.54804,-1.94916 7.95136,-4.09046 10.71289,-5.3457 2.73749,-1.24431 2.90781,-1.28911 4.14063,-1.81836 1.031,-0.002 1.58862,-0.36664 2.07031,-0.44141 0.9478,-0.14711 1.4814,-0.30997 2.05274,-0.48047 2.28534,-0.682 4.97529,-1.74784 10.72265,-4.14258 4.46396,-1.85996 8.04603,-3.99566 11.14063,-5.54296 3.77562,-1.88782 7.07596,-3.71693 10.10351,-5.0625 -0.80902,0.35956 -0.53077,0.19372 0.77735,-0.0899 1.30812,-0.28356 3.90372,-0.7839 6.66406,-2.99219 2.40206,-1.92164 3.394,-3.75774 4.02734,-5.02343 1.79739,-0.35966 3.94461,-1.10867 5.56055,-2.72461 3.53988,-3.53988 3.16275,-8.21145 2.94922,-9.50781 -0.21353,-1.29637 -0.0215,-1.38137 -0.0215,0.68359 h -19.62109 c 0.1979,-1.60117 0.7519,-3.51948 2.55078,-5.31836 1.86971,-1.86971 4.8002,-2.71901 6.34961,-2.77344 1.54941,-0.0544 2.11369,0.17896 2.19141,0.19727 0.15543,0.0366 -1.69342,-1.40363 -6.38477,0.16015 -1.09403,0.36468 -4.12649,0.8804 -7.41406,4.16797 -1.62421,1.62423 -2.37319,2.9268 -2.89258,3.96094 -0.76417,0.19017 -1.69505,0.46495 -2.85937,0.98242 -4.13409,1.83737 -7.69167,3.83411 -10.92579,5.45117 -3.91512,1.95756 -7.11834,3.81641 -9.88867,4.97071 -4.05127,1.68803 -5.14724,2.05656 -6.39648,2.51367 -0.88402,-0.0219 -1.53113,0.0524 -1.94922,0.12305 -1.31499,0.22227 -1.698,0.41421 -2.1875,0.58789 -1.95801,0.69469 -3.99805,1.62251 -9.03516,3.91211 -4.37312,1.98778 -7.66098,4.03188 -10.3164,5.16992 -3.88927,1.66682 -8.60449,3.08866 -13.79297,5.16406 -4.58332,1.83332 -8.58983,3.78672 -12.26758,5.25781 -4.3649,1.74596 -9.00758,3.37442 -13.81641,5.17774 -4.90419,1.83907 -9.4052,3.71253 -13.67187,5.13476 -3.32955,1.10985 -7.43757,1.99466 -12.08594,3.44727 -6.01779,1.88057 -10.95245,4.03401 -15.21484,5.09961 -2.82911,0.70727 -2.06315,0.49793 -4.05469,0.95312 -0.23212,-0.0957 -0.56015,-0.31747 -0.75195,-0.38672 -2.74788,-0.99198 -3.59799,-0.70624 -4.65039,-0.6875 -1.0524,0.0187 -2.02803,0.10418 -3.1836,0.23633 -2.31113,0.26431 -5.29719,0.73479 -9.50586,1.5 -6.90178,1.25489 -9.53472,3.65734 -8.93359,3.53711 -0.29992,0.06 -2.57262,-0.19336 -6.80078,-0.19336 h -7.00977 -22.78125 -26.28711 c -4.69744,0 -7.6249,0.36241 -8.72656,0.16211 -0.10068,-0.0183 -2.39581,-1.49 -7.38867,-3.1543 -3.08933,-1.02977 -5.8069,-1.53954 -8.00195,-2.02734 -3.57165,-0.7937 -4.68924,-0.84171 -5.51563,-0.93164 -1.02691,-1.40826 -2.62965,-3.16706 -6.17383,-4.17969 -7.02175,-2.0062 -10.80213,-0.36647 -10.40429,-0.32226 -0.61908,-0.0688 -2.48672,-0.71495 -5.68946,-1.51563 -2.83265,-0.70817 -4.95675,-1.09886 -6.27148,-1.53711 1.44409,0.48137 0.4166,-0.44643 -3.50586,-1.7539 -3.74011,-1.24671 -6.1801,-1.4754 -7.00977,-1.75196 0.54973,0.18324 -0.18371,-0.20319 -2.19531,-1.20898 -1.16831,-0.58416 -2.33564,-1.16781 -3.50391,-1.75195 -0.092,-0.046 -0.0562,-0.0342 -0.14257,-0.0781 -0.68672,-1.43021 -1.83036,-3.08287 -4.04102,-4.55664 -0.51583,-0.34388 -1.03932,-0.56827 -1.56055,-0.80078 -0.27136,-0.54383 -0.51847,-1.07849 -0.92187,-1.68359 -1.07041,-1.60557 -2.83862,-2.74916 -4.61524,-3.52344 -0.24009,-0.24044 -0.81625,-0.64609 -1.19726,-0.96485 -0.0162,-0.0504 -0.0143,-0.0858 -0.0312,-0.13671 -0.47522,-1.42571 -1.10864,-2.43568 -1.75391,-3.28711 -0.29486,-0.88235 -0.6945,-1.74435 -1.23828,-2.58985 v -10.23633 c 0,-0.42732 0.005,-0.40589 0.0117,-0.71679 0.30312,-0.63758 0.64671,-1.38544 1.22852,-3.13086 0.56822,-1.70468 0.62897,-2.92613 0.58593,-3.85742 0.38267,-1.2774 1.09734,-3.28678 1.57813,-6.65235 0.13655,-0.9558 0.0829,-1.55943 0.0781,-2.26172 0.80909,-0.81007 1.68053,-1.85909 2.47266,-3.44336 2.7698,-5.5396 2.40653,-8.5544 2.0918,-7.76757 3.43577,-8.58942 4.9428,-8.91369 10.00976,-18.20313 2.72713,-4.99972 4.07584,-7.63899 4.89258,-9.39648 0.40837,-0.87875 0.69984,-1.5539 0.9668,-2.35157 0.26696,-0.79766 0.57362,-2.03963 0.26367,-0.92187 -1.2398,4.47103 -0.8664,2.22831 5.68555,-7.59961 l 0.16601,-0.25 0.15039,-0.25781 c 2.90056,-4.97241 3.93053,-8.56035 4.8125,-9.82032 -0.26636,0.38052 3.30798,-1.17422 7.25391,-7.375 2.81639,-4.42575 4.03904,-8.2217 5.12109,-11.26953 2.17097,-1.47126 4.94071,-3.31029 7.98633,-6.79101 3.22807,-3.68922 4.91165,-4.90448 6.39453,-9.60938 0.0579,-0.18363 0.0939,-0.4596 0.15039,-0.66601 0.58042,-0.48876 0.20612,-0.18091 0.93946,-0.76758 -1.16159,0.92927 -0.68726,0.59169 1.73046,-0.61719 1.59702,-0.7985 4.53434,-1.76248 8.08399,-4.1289 1.65877,-1.10585 2.54426,-2.06595 3.16992,-2.84961 1.27175,-0.1621 3.44202,-0.36945 6.26953,-1.78321 4.43873,-2.21937 6.47166,-4.13479 6.83008,-4.82812 0.87255,0.11247 3.52689,-0.14313 7.88672,-1.72852 5.11895,-1.86143 8.74894,-4.30025 11.57031,-5.71094 4.00005,-2.00003 7.14566,-3.87193 9.75586,-4.91601 8.31655,-3.32662 10.16277,-3.72682 12.55078,-4.32617 2.38801,-0.59935 5.62105,-1.53212 12.4082,-4.61719 4.87655,-2.21661 7.84278,-4.30957 9.53907,-4.875 0.24083,-0.0803 4.16755,0.55891 10.76953,-1.8418 6.29392,-2.2887 8.92103,-5.2956 9.48242,-5.55078 4.09653,-1.86206 5.80675,-2.32257 8.07031,-2.75195 2.26357,-0.42938 5.53427,-0.75334 10.78125,-1.80274 3.77164,-0.75432 5.80451,-1.57615 6.28907,-1.63671 0.6775,-0.0847 2.60605,0.0781 5.76953,0.0781 h 5.25781 3.50391 c 0.65219,0 0.77799,-0.007 1.24609,-0.006 0.73203,0.44995 1.5421,0.89294 2.60156,1.24609 1.98312,0.66105 3.41693,0.70466 4.5332,0.63086 0.37727,0.18356 0.52262,0.25645 1.16602,0.57813 1.46206,0.73104 1.69092,0.81121 1.86328,0.86523 0.20292,0.18834 0.31142,0.28017 0.79688,0.76563 0.20087,0.20086 0.16822,0.17626 0.3164,0.33008 0.20741,0.54989 0.78076,1.66917 1.9375,3.40429 0.48322,0.72483 1.03093,1.43962 1.63867,2.11133 0.0674,0.74852 0.0654,1.19521 0.32422,2.74805 0.46015,2.7609 1.06321,4.58212 1.54297,6.28125 -0.0674,0.77943 -0.11778,1.9626 0.17383,4.0039 0.61793,4.32552 1.57097,7.03976 1.70117,8.3418 -0.0677,-0.67691 0.014,4.54542 -0.0703,8.69336 -0.0422,2.07397 -0.0846,4.15394 -0.0918,5.96094 -0.007,1.807 -0.15381,2.66329 0.22852,5.14844 1.05645,6.86684 3.29436,10.62245 3.46484,11.98632 0.44696,3.57567 -0.0762,8.44706 -0.0762,14.53125 v 47.31641 c 0,6.30677 -0.0452,9.00089 -0.0664,9.80469 -0.007,0.23277 -0.0258,0.52837 -0.0273,0.73828 -9.4e-4,0.12814 -0.008,0.18956 0.006,0.56445 0.003,0.0937 0.008,0.20564 0.0273,0.44922 0.01,0.12179 0.0218,0.27217 0.0586,0.54492 0.0368,0.27276 0.35919,1.63027 0.35937,1.63086 10e-6,2e-5 0.31675,0.16483 0.33399,0.17383 -0.0792,0.22981 -0.0932,0.20149 -0.17774,0.45508 -1.51801,4.55411 -0.51367,6.44004 -0.51367,4.91601 v 3.50391 1.75195 c 0,-2.06491 0.19204,-1.97995 -0.0215,-0.68359 -0.19069,1.15766 -0.3531,4.97912 2.10156,8.31055 0.61392,3.0366 1.59613,5.24035 2.14062,6.60156 0.47065,1.17664 0.75866,1.74127 1.03907,2.30078 -0.10998,1.94738 0.0381,5.17869 2.92578,8.06641 2.84952,2.84952 5.55649,3.23828 7.94726,3.23828 2.39077,0 5.09775,-0.38876 7.94727,-3.23828 3.5398,-3.53981 3.16471,-8.21143 2.95117,-9.50782 -0.21354,-1.29638 -0.0215,-1.37942 -0.0215,0.68555 v -8.76367 c 0,2.06497 -0.19206,1.98193 0.0215,0.68555 0.21354,-1.29639 0.58863,-5.96801 -2.95117,-9.50782 -0.66816,-0.66816 -1.42008,-1.20277 -2.20117,-1.63281 0.0706,-1.81246 0.0946,-3.88138 -0.1875,-6.41992 -0.006,-0.055 -0.01,-0.0706 -0.0156,-0.125 0.0439,-0.47132 0.17106,-1.05703 0.16602,-1.43555 0.30221,-0.66141 0.60488,-1.29904 1.15039,-2.93554 0.39917,-1.19752 0.56067,-2.77157 0.54297,-4.38868 0.94083,-0.75873 1.95537,-1.72946 2.73632,-2.92187 1.46824,-2.2418 2.00977,-4.40041 2.35547,-6.47461 0.62245,-3.73467 0.47246,-5.48494 0.26368,-6.30859 0.48379,-0.84333 1.01317,-2.00947 1.38476,-3.68165 1.67186,-7.52336 2.35529,-10.46662 2.65625,-13.36132 0.0752,-0.72368 0.35602,-1.18191 -0.11133,-3.60743 -0.13856,-0.71911 -0.35725,-1.92946 -1.18945,-3.3164 0.14304,-1.54421 0.21746,-2.78004 0.53516,-5.00391 0.34501,-2.41507 1.80337,-5.97293 3.2207,-10.93359 l 0.38476,-1.3457 v -1.4004 c 0,-4.05849 -0.23426,-7.29622 -0.0352,-9.68554 0.21551,-2.58613 0.91147,-5.73809 1.61719,-9.50196 1.90149,-10.14127 4.53936,-22.75516 6.91406,-32.84765 0.93905,-3.99095 2.65287,-8.7747 3.63476,-14.66602 1.18027,-7.08156 1.00199,-13.02554 1.75196,-17.52539 0.50422,-3.02535 2.59067,-7.5956 3.54101,-14.24804 0.91758,-6.42308 -0.0963,-9.91836 -0.0351,-10.28516 0.16208,-0.97252 2.03529,-4.06248 3.38476,-9.91016 1.18301,-5.12643 1.40401,-9.57216 1.90821,-13.10156 l 0.0996,-0.70312 v -0.71094 c 0,-3.52915 -0.15146,-5.26848 -0.16015,-5.22071 0.80406,-4.4223 1.56744,-6.31312 2.60547,-9.2832 1.03803,-2.97007 2.26271,-7.03441 2.77148,-12.63086 0.50158,-5.5174 -0.19005,-8.93862 -0.0352,-10.17773 -0.0682,0.54517 0.40435,-2.28057 0.99023,-5.20703 0.58588,-2.92647 1.35156,-6.63586 2.13672,-10.36328 1.57033,-7.45485 3.50195,-15.96055 3.59375,-16.29102 1.14501,-4.12202 3.71827,-9.27299 5.35156,-16.13281 1.85766,-7.8022 2.54746,-15.14216 3.64063,-21.70117 1.24538,-7.47228 1.9237,-14.33963 3.36328,-20.3379 1.51366,-6.3069 5.11746,-13.6744 7.07617,-23.07617 1.48326,-7.11964 1.45696,-13.38195 1.82617,-18.74804 2.01747,-4.25158 4.73323,-9.09125 6.69141,-15.35743 1.58803,-5.0817 2.31665,-8.47185 2.49609,-11.52343 0.0838,-1.4256 -0.0556,-2.82263 -0.20117,-3.91797 0.41914,-0.93236 1.44423,-2.98392 3.80859,-7.03711 0.34147,-0.58538 3.74405,-2.88071 7.11328,-8.94531 3.3683,-6.06295 2.92938,-11.16148 3.25977,-13.73633 0.33039,-2.57485 -0.0859,-1.65873 0.44141,-2 z M 622.88086,505.2832 c 0.004,-2e-5 0.0156,0.004 0.0195,0.004 -0.0908,0.0173 -0.34557,0.0452 -0.40039,0.0527 -0.24179,0.0331 -0.0981,-0.0537 0.38086,-0.0566 z m 6.00195,2.54883 c 0.795,0.80127 0.97452,1.396 0.81836,1.14844 -0.0718,-0.11375 -0.55828,-0.738 -0.81836,-1.14844 z m -173.91992,56.92188 c 0.0185,0.002 0.0727,0.0325 0.0918,0.0351 -0.37157,0.0238 -0.90993,0.003 -1.09961,0.008 0.1994,-0.0223 0.43953,-0.11396 1.00781,-0.043 z m -0.94531,20.04296 c -0.11702,6.8e-4 -0.64087,0.19186 -1.5918,0.0215 0.36919,-0.008 0.76986,-0.0237 0.97461,-0.0195 0.60318,0.0123 0.73005,-0.003 0.61719,-0.002 z m 215.00195,41.06641 c -0.0783,0.10492 -0.1875,0.43218 -0.73633,0.9707 0.19729,-0.25742 0.47982,-0.6015 0.58399,-0.75 0.1865,-0.26586 0.28506,-0.39845 0.15234,-0.2207 z m -276.98437,33.51953 c 0.29734,-0.2693 0.34926,-0.17528 -0.0508,0.10742 -0.009,0.006 -0.0399,0.0309 -0.0488,0.0371 0.0231,-0.0224 0.0788,-0.12571 0.0996,-0.14453 z m 11.78125,16.23047 c -0.40348,0.40397 -0.59857,0.42771 -0.28907,0.20899 0.0444,-0.0314 0.22638,-0.16914 0.28907,-0.20899 z m 329.08984,15.90234 c 0.27683,0.0652 1.25857,0.15644 2.16992,0.22657 -2.18057,0.30203 -2.77839,-0.3699 -2.16992,-0.22657 z m -50.04492,6.45508 c -0.13753,0.15489 -0.60724,0.89712 -0.96485,1.40235 0.009,-0.0156 0.0283,-0.0571 0.0371,-0.0723 0.47324,-0.81413 0.72858,-1.08301 0.88477,-1.27148 0.31238,-0.37695 0.26774,-0.31173 0.043,-0.0586 z m -282.51563,8.94141 c 0.0423,-0.006 0.15806,0.008 0.20508,0.002 -0.28271,0.0838 -1.07666,0.16063 -1.18555,0.19336 -0.29151,0.0876 -0.10858,-0.0419 0.98047,-0.19531 z m 3.92383,0.95117 c 0.0489,0.0643 0.1062,0.12412 0.15234,0.18945 -0.0443,1.31667 -0.48428,1.8928 -0.39453,1.55079 0.0476,-0.18146 0.14142,-1.09911 0.24219,-1.74024 z m -18.11328,1.8418 c -0.0124,0.0677 -0.0367,0.37185 -0.0586,0.47265 0.0186,-0.66842 0.13759,-0.90279 0.0586,-0.47265 z m 32.60352,10.9375 c 0.28312,0.61152 0.26738,0.85735 0.12695,0.35351 -0.0152,-0.0544 -0.10839,-0.28044 -0.12695,-0.35351 z m 45.06445,13.05859 c 0.45907,0.47894 0.48585,0.70452 0.17773,0.23828 -0.0255,-0.0386 -0.14738,-0.18976 -0.17773,-0.23828 z m 108.49219,2.03125 c 0.49474,-0.32928 -0.16391,0.0683 -0.82227,0.39453 0.44129,-0.35356 0.69205,-0.30786 0.82227,-0.39453 z m 4.97461,17.47266 c 0.0112,-2e-4 -0.0843,0.0718 -0.4668,0.041 0.12414,-0.008 0.45896,-0.0409 0.4668,-0.041 z"
         id="path434" />
    </g>
  </g>
</svg>
