<?xml version="1.0" encoding="UTF-8" standalone="no"?>
<!-- Created with Inkscape (http://www.inkscape.org/) -->

<svg
   width="1000"
   height="1000"
   viewBox="0 0 1000 1000"
   version="1.1"
   id="svg1"
   xmlns:xlink="http://www.w3.org/1999/xlink"
   xmlns="http://www.w3.org/2000/svg"
   xmlns:svg="http://www.w3.org/2000/svg">
  <defs
     id="defs1">
    <pattern
       xlink:href="#pattern359"
       preserveAspectRatio="xMidYMid"
       id="pattern372"
       patternTransform="matrix(0.5,0,0,0.5,147.15462,1548.2922)" />
    <pattern
       xlink:href="#pattern357"
       preserveAspectRatio="xMidYMid"
       id="pattern371"
       patternTransform="matrix(0.5,0,0,0.5,221.32076,1552.4298)" />
    <pattern
       xlink:href="#pattern358"
       preserveAspectRatio="xMidYMid"
       id="pattern370"
       patternTransform="matrix(0.5,0,0,0.5,230.96346,1527.8214)" />
    <pattern
       xlink:href="#pattern355"
       preserveAspectRatio="xMidYMid"
       id="pattern369"
       patternTransform="matrix(0.5,0,0,0.5,287.08178,1553.6581)" />
    <pattern
       xlink:href="#pattern354"
       preserveAspectRatio="xMidYMid"
       id="pattern368"
       patternTransform="matrix(0.5,0,0,0.5,230.97274,1529.1717)" />
    <pattern
       xlink:href="#pattern342"
       preserveAspectRatio="xMidYMid"
       id="pattern360"
       patternTransform="matrix(0.5,0,0,0.5,210.45332,1525.5392)" />
    <pattern
       xlink:href="#pattern342"
       preserveAspectRatio="xMidYMid"
       id="pattern359"
       patternTransform="matrix(0.5,0,0,0.5,152.11125,1550.7705)" />
    <pattern
       xlink:href="#pattern342"
       preserveAspectRatio="xMidYMid"
       id="pattern358"
       patternTransform="matrix(0.5,0,0,0.5,202.11125,1533.2444)" />
    <pattern
       xlink:href="#pattern342"
       preserveAspectRatio="xMidYMid"
       id="pattern357"
       patternTransform="matrix(0.5,0,0,0.5,211.4075,1546.234)" />
    <pattern
       xlink:href="#pattern342"
       preserveAspectRatio="xMidYMid"
       id="pattern356"
       patternTransform="matrix(0.5,0,0,0.5,232.14929,1573.2544)" />
    <pattern
       xlink:href="#pattern342"
       preserveAspectRatio="xMidYMid"
       id="pattern355"
       patternTransform="matrix(0.5,0,0,0.5,275,1552.7287)" />
    <pattern
       xlink:href="#pattern342"
       preserveAspectRatio="xMidYMid"
       id="pattern354"
       patternTransform="matrix(0.5,0,0,0.5,235,1529.7913)" />
    <pattern
       xlink:href="#shading24"
       preserveAspectRatio="xMidYMid"
       id="pattern342"
       patternTransform="matrix(0.5,0,0,0.5,213.95332,1537.5392)"
       x="0"
       y="0" />
    <pattern
       patternUnits="userSpaceOnUse"
       width="338.5925"
       height="42.989567"
       patternTransform="translate(213.95332,1537.5392) scale(0.5)"
       preserveAspectRatio="xMidYMid"
       id="shading24"
       style="fill:#000000">
      <path
         style="fill-rule:nonzero;stroke:none;stroke-width:0.1;stroke-linecap:square;paint-order:markers fill stroke;stop-color:#000000"
         d="m 1806.4991,-758.06464 v 18.86792 c 55.9187,0 121.0493,0.59523 193.5686,3.15628 72.9408,2.57593 146.0589,6.87694 222.9288,13.47675 119.09,10.22471 223.0762,23.76065 340.6056,39.2177 117.5025,15.4535 222.0471,29.0563 341.8507,39.3312 77.366,6.63525 151.0001,10.96128 224.4674,13.55245 73.0344,2.5759 138.631,3.17493 194.9247,3.17493 -55.9642,0 -122.2215,-1.36594 -194.8324,-5.25394 -73.2143,-3.92032 -146.9676,-10.0663 -223.8166,-18.88656 -118.8791,-13.6442 -223.3242,-31.02113 -339.8009,-50.57815 -116.4705,-19.55598 -221.1862,-36.99475 -340.3724,-50.69165 -77.0605,-8.8558 -150.9942,-15.0266 -224.3694,-18.96225 -72.7637,-3.90286 -139.1256,-5.27261 -195.1541,-5.27261 z m 0,37.81515 v 18.86793 c 55.9187,0 121.0493,0.59523 193.5686,3.15627 72.9408,2.57593 146.0589,6.87694 222.9288,13.47676 119.09,10.22471 223.0762,23.76065 340.6056,39.2177 117.5025,15.4535 222.0471,29.0563 341.8507,39.33119 77.366,6.63526 151.0001,10.96128 224.4674,13.55245 73.0344,2.5759 138.631,3.17493 194.9247,3.17493 -55.9642,0 -122.2215,-1.36594 -194.8324,-5.25394 -73.2143,-3.92031 -146.9676,-10.0663 -223.8166,-18.88656 -118.8791,-13.6442 -223.3242,-31.02112 -339.8009,-50.57815 -116.4705,-19.55598 -221.1862,-36.99475 -340.3724,-50.69165 -77.0605,-8.8558 -150.9942,-15.02659 -224.3694,-18.96225 -72.7637,-3.90286 -139.1256,-5.2726 -195.1541,-5.2726 z m 0,37.81516 v 18.86792 c 55.9187,0 121.0493,0.59523 193.5686,3.15628 72.9408,2.57593 146.0589,6.87694 222.9288,13.47675 119.09,10.22471 223.0762,23.76065 340.6056,39.2177 117.5025,15.4535 222.0471,29.0563 341.8507,39.3312 77.366,6.63525 151.0001,10.96128 224.4674,13.55245 73.0344,2.5759 138.631,3.17493 194.9247,3.17493 -55.9642,0 -122.2215,-1.36594 -194.8324,-5.25394 -73.2143,-3.92032 -146.9676,-10.0663 -223.8166,-18.88656 -118.8791,-13.6442 -223.3242,-31.02113 -339.8009,-50.57815 -116.4705,-19.55598 -221.1862,-36.99475 -340.3724,-50.69165 -77.0605,-8.8558 -150.9942,-15.0266 -224.3694,-18.96225 -72.7637,-3.90286 -139.1256,-5.27261 -195.1541,-5.27261 z m 0,37.81515 v 18.86793 c 55.9187,0 121.0493,0.59523 193.5686,3.15627 72.9408,2.57593 146.0589,6.87694 222.9288,13.47676 119.09,10.22471 223.0762,23.76065 340.6056,39.2177 117.5025,15.4535 222.0471,29.0563 341.8507,39.33119 77.366,6.63526 151.0001,10.96128 224.4674,13.55245 73.0344,2.5759 138.631,3.17494 194.9247,3.17494 -55.9642,0 -122.2215,-1.36595 -194.8324,-5.25395 -73.2143,-3.92031 -146.9676,-10.0663 -223.8166,-18.88656 -118.8791,-13.6442 -223.3242,-31.02112 -339.8009,-50.57815 -116.4705,-19.55598 -221.1862,-36.99475 -340.3724,-50.69165 -77.0605,-8.8558 -150.9942,-15.02659 -224.3694,-18.96225 -72.7637,-3.90286 -139.1256,-5.2726 -195.1541,-5.2726 z m 0,37.81516 v 18.86792 c 55.9187,0 121.0493,0.59523 193.5686,3.15628 72.9408,2.57593 146.0589,6.87694 222.9288,13.47675 119.09,10.22471 223.0762,23.76065 340.6056,39.2177 117.5025,15.4535 222.0471,29.0563 341.8507,39.3312 77.366,6.63525 151.0001,10.96128 224.4674,13.55245 73.0344,2.5759 138.631,3.17493 194.9247,3.17493 -55.9642,0 -122.2215,-1.36594 -194.8324,-5.25394 -73.2143,-3.92032 -146.9676,-10.0663 -223.8166,-18.88656 -118.8791,-13.6442 -223.3242,-31.02113 -339.8009,-50.57815 -116.4705,-19.55598 -221.1862,-36.99475 -340.3724,-50.69165 -77.0605,-8.8558 -150.9942,-15.0266 -224.3694,-18.96225 -72.7637,-3.90286 -139.1256,-5.27261 -195.1541,-5.27261 z m 0,37.81515 v 18.86793 c 55.9187,0 121.0493,0.59523 193.5686,3.15627 72.9408,2.57593 146.0589,6.87694 222.9288,13.47676 119.09,10.22471 223.0762,23.76065 340.6056,39.2177 117.5025,15.4535 222.0471,29.0563 341.8507,39.33119 77.366,6.63526 151.0001,10.96128 224.4674,13.55245 73.0344,2.5759 138.631,3.17494 194.9247,3.17494 -55.9642,0 -122.2215,-1.36595 -194.8324,-5.25395 -73.2143,-3.92031 -146.9676,-10.0663 -223.8166,-18.88656 -118.8791,-13.6442 -223.3242,-31.02112 -339.8009,-50.57815 -116.4705,-19.55598 -221.1862,-36.99475 -340.3724,-50.69165 -77.0605,-8.8558 -150.9942,-15.02659 -224.3694,-18.96225 -72.7637,-3.90286 -139.1256,-5.2726 -195.1541,-5.2726 z m 0,37.81516 v 18.86792 c 55.9187,0 121.0493,0.59523 193.5686,3.15628 72.9408,2.57593 146.0589,6.87694 222.9288,13.47675 119.09,10.22471 223.0762,23.76065 340.6056,39.2177 117.5025,15.4535 222.0471,29.0563 341.8507,39.3312 77.366,6.63525 151.0001,10.96128 224.4674,13.55245 73.0344,2.5759 138.631,3.17493 194.9247,3.17493 -55.9642,0 -122.2215,-1.36594 -194.8324,-5.25394 -73.2143,-3.92032 -146.9676,-10.0663 -223.8166,-18.88656 -118.8791,-13.6442 -223.3242,-31.02113 -339.8009,-50.57815 -116.4705,-19.55598 -221.1862,-36.99475 -340.3724,-50.69165 -77.0605,-8.8558 -150.9942,-15.0266 -224.3694,-18.96225 -72.7637,-3.90286 -139.1256,-5.27261 -195.1541,-5.27261 z"
         id="use26"
         transform="matrix(0.22300099,0,0,0.37823052,-402.85121,237.25945)" />
    </pattern>
    <clipPath
       clipPathUnits="userSpaceOnUse"
       id="clipPath54">
      <path
         id="path336"
         style="stroke-width:0.0999999;stroke-linecap:square;paint-order:markers fill stroke;stop-color:#000000"
         d="m 1691.1994,-792.32001 h 1634.8919 v 92.82806 H 1691.1994 Z" />
    </clipPath>
    <clipPath
       clipPathUnits="userSpaceOnUse"
       id="clipPath33">
      <rect
         style="fill:#000000;stroke:none;stroke-width:0.999995;stroke-linecap:butt;stroke-linejoin:bevel;paint-order:stroke markers fill;stop-color:#000000"
         id="rect33"
         width="46.19186"
         height="80.006783"
         x="74.999985"
         y="399.99661" />
    </clipPath>
    <clipPath
       clipPathUnits="userSpaceOnUse"
       id="clipPath27">
      <rect
         style="fill:none;stroke:#000000;stroke-width:0.999999;stroke-linecap:butt;stroke-linejoin:bevel;paint-order:stroke markers fill;stop-color:#000000"
         id="rect28-6"
         width="46.160622"
         height="39.922417"
         x="86.574379"
         y="420.06253" />
    </clipPath>
    <clipPath
       clipPathUnits="userSpaceOnUse"
       id="clipPath25">
      <rect
         style="fill:#ff0000;stroke:none;stroke-width:3;stroke-linecap:square;stroke-linejoin:miter;paint-order:stroke markers fill;stop-color:#000000"
         id="rect25-8"
         width="78"
         height="45.033199"
         x="763.61322"
         y="452.82422" />
    </clipPath>
    <clipPath
       clipPathUnits="userSpaceOnUse"
       id="clipPath15">
      <rect
         style="fill:none;stroke:#000000;stroke-linecap:butt;stroke-linejoin:bevel;paint-order:stroke markers fill;stop-color:#000000"
         id="rect15-7"
         width="45.034248"
         height="38.955639"
         x="262.48285"
         y="121.00073" />
    </clipPath>
    <linearGradient
       id="swatch75">
      <stop
         style="stop-color:#000000;stop-opacity:1;"
         offset="0"
         id="stop75" />
    </linearGradient>
  </defs>
  <g
     id="layer70"
     style="display:inline">
    <g
       id="layer75"
       style="display:inline">
      <path
         style="baseline-shift:baseline;display:inline;overflow:visible;opacity:1;vector-effect:none;fill-rule:evenodd;enable-background:accumulate;stop-color:#000000;stop-opacity:1"
         d="m 507.14062,417.21094 c -1.14572,-0.0846 -3.04742,0.0451 -5.60156,0.89648 -1.16946,0.38983 -2.1185,0.87153 -2.89258,1.38086 -0.77314,0.0936 -1.39405,0.0474 -2.36523,0.37109 -1.5281,0.50938 -2.58172,1.18575 -3.45508,1.8711 -1.19033,0.0678 -3.18524,0.4598 -6.61719,2.17578 -2.77844,1.38921 -3.98746,2.94178 -4.71093,3.93555 -0.89601,0.14587 -3.70103,0.61296 -8.38282,3.53906 h -0.002 c -5.74898,3.59314 -6.86846,6.32572 -5.50391,5.41601 -1.46019,0.97347 -5.16393,2.03548 -10.11132,5.00391 -4.70765,2.8246 -6.46821,4.95188 -6.33789,4.88672 -0.9953,0.49765 -4.68572,0.84844 -10.17969,3.3457 -4.47906,2.03594 -7.49789,4.42412 -9.76953,5.78711 -2.92071,1.75243 -5.84098,3.50536 -8.76172,5.25781 -2.33249,1.3995 -5.79471,2.96517 -9.61719,5.83204 -4.24541,3.18404 -5.5379,5.46592 -5.25781,5.25586 -1.80374,1.3528 -4.43165,2.74479 -7.61914,4.51562 -2.62665,1.45925 -4.46888,2.15388 -7.18164,3.5918 -2.71276,1.43791 -5.84083,3.62988 -9.05274,6.84179 -3.62185,3.62185 -5.87514,7.17736 -7.83203,9.69336 -1.93674,2.4901 -3.68101,4.90738 -5.36328,7.15039 -1.53055,2.04074 -3.54775,4.4154 -5.57812,7.46094 -2.30834,3.46252 -3.90736,6.59591 -5.41602,9.00977 -1.28417,2.05467 -2.14348,3.47998 -2.70703,4.15625 0.31816,-0.3818 -2.99518,0.98766 -6.25781,6.69726 -3.35334,5.8683 -2.75909,9.32699 -2.4336,8.45899 -0.42718,1.13913 -1.60554,3.08806 -3.08594,6.04883 -1.03291,2.06582 -2.39234,4.48141 -3.69921,7.42187 -4.51435,10.15728 -3.53302,9.64451 -7.26954,19.91992 -2.61319,7.18628 -2.60693,6.79595 -3.56445,8.72852 -0.95752,1.93257 -2.05893,4.62992 -5.28515,14.30859 -1.26778,3.80337 -4.41833,14.68932 -5.57618,20.47852 -0.68401,3.42008 -1.5141,7.2567 -1.90625,11.57031 -0.37372,4.11091 -0.041,7.34887 -0.041,9.66602 0,1.97286 0.009,3.21591 0.0527,3.95117 -0.78183,0.86658 -1.85751,2.14278 -2.84179,4.60351 -2.27304,5.68248 -0.7168,8.52645 -0.7168,7.21875 v 3.50391 c 0,-0.44868 -0.7689,1.65892 0.29883,5.92969 0.68356,2.73433 1.36972,4.22656 1.77343,4.78711 0.0943,0.44412 0.0242,0.69947 0.19336,1.20703 0.62998,1.88995 1.15402,3.03601 1.49219,3.6289 0.0975,0.56853 0.0334,0.94391 0.26172,1.62891 0.51646,1.54938 0.88841,2.3027 1.22266,2.97461 0.12999,1.05056 0.38665,2.22249 1.07226,3.59375 2.25506,4.51005 4.53151,5.25806 3.625,4.35156 0.35965,0.35965 0.72049,0.71854 1.08008,1.07813 0.48132,1.46391 1.22724,2.97919 2.42578,4.17773 0.30513,0.30513 0.66991,0.49503 1.00586,0.74609 0.25107,0.33596 0.44097,0.70074 0.74609,1.00586 1.8602,1.8602 3.48733,2.54379 4.56055,2.94922 0.6777,0.73902 1.63732,1.6009 3.29492,2.42969 2.37983,1.18992 3.85503,1.77892 4.58789,1.95898 0.63038,0.80127 1.82085,2.05082 4.15235,3.91602 3.20146,2.56115 5.3604,2.92727 5.27929,2.88672 1.84502,0.9225 2.5592,1.24254 2.34961,1.0918 3.58019,2.68924 5.55738,4.20629 6.28321,4.77148 0.19223,0.14969 0.31295,0.24466 0.41211,0.32227 0.0496,0.0388 0.0855,0.0661 0.17773,0.13671 0.0461,0.0353 0.0923,0.072 0.26367,0.19532 0.0857,0.0617 0.17896,0.13623 0.49414,0.33593 0.1576,0.0999 0.85115,0.48221 0.85157,0.48243 1.3e-4,6e-5 0.9575,0.18264 1.67578,0.32031 0.15164,0.11075 1.13851,0.56709 4.34375,2.49023 2.18003,1.30802 5.48257,4.75082 11.46875,7.51368 5.84049,2.69561 10.6898,3.11233 13.51757,3.98242 5.36172,1.64976 7.96716,2.52756 8.95118,2.88281 0.49201,0.17763 0.75709,0.34086 -0.002,-0.0391 -0.13061,-0.0654 -0.43976,-0.25284 -0.72851,-0.42774 0.71577,0.43686 1.30458,0.74131 1.77734,0.91602 0.58078,0.21463 1.02665,0.38959 2.19336,0.54297 0.41834,0.055 1.33071,0.009 2.25781,-0.0606 -0.0473,0.002 -0.21167,0.0516 -0.25586,0.0547 -1.82049,0.12576 -1.35826,-0.0258 -0.94921,0.0293 0.78453,0.1056 3.49944,0.567 8.40429,1.54102 0.77004,0.56383 1.41521,0.9633 1.81446,1.15625 2.01083,0.97181 2.95134,1.14967 5.03125,1.74414 2.07991,0.59447 4.90216,1.33834 8.82226,2.31836 4.83732,1.20931 7.54609,0.29883 7.68164,0.29883 h 5.25781 28.03907 22.78125 c 0.71968,0 4.03149,1.05218 9.43554,-0.29883 3.45679,-0.8642 5.44246,-2.38963 6.52539,-3.09375 0.29446,-0.19145 0.33595,-0.20228 0.48829,-0.28516 -0.0406,0.19077 2.16677,0.63918 7.32812,0.12305 4.83263,-0.48327 7.70557,-1.63417 8.87109,-1.76367 2.2816,-0.25351 3.80612,0.034 7.19922,0.13476 3.39311,0.10077 8.2871,-0.467 13.28321,-2.6875 3.57782,-1.59014 5.06758,-3.63379 5.98828,-5 3.60678,-0.56424 6.61005,-1.02223 7.73242,-1.15429 0.63001,-0.0332 1.36173,-0.0314 1.88867,-0.0957 0.4779,-0.0584 0.90922,-0.12192 1.39063,-0.21289 0.4814,-0.091 -0.19788,0.62022 3.00195,-0.97851 0.39998,-0.19984 0.91464,-0.4522 1.74805,-1.11133 0.4167,-0.32956 0.92324,-0.76639 1.51562,-1.48437 0.28034,-0.33979 0.48955,-0.85798 0.85352,-1.56055 0.35245,-0.0852 0.13108,-0.005 0.53125,-0.10547 2.33661,-0.58415 4.67322,-1.16977 7.00976,-1.75391 0.93355,-0.23339 4.31539,-0.13718 9.05664,-2.50781 5.81241,-2.90618 7.59739,-5.55162 7.00977,-5.25781 0.21393,-0.10697 1.4863,-0.45531 3.91406,-0.79297 2.42776,-0.33766 6.01097,-0.66564 10.10547,-2.71289 6.80656,-3.40328 9.19153,-4.46432 12.01562,-6.45508 0.35302,-0.24884 0.74112,-0.52 1.35743,-1.09766 0.45537,-0.42681 1.22648,-1.20303 2.02343,-2.80468 0.17663,-0.086 0.1887,-0.0631 0.375,-0.15625 3.64533,-1.82265 5.37788,-3.54392 5.92969,-3.875 -0.46718,0.28031 1.01925,-0.0812 3.90625,-2.00586 2.86312,-1.90875 3.61778,-3.34239 3.27735,-3.00196 0.93847,-0.93847 1.87597,-1.87792 2.81445,-2.8164 0.52773,-0.17738 1.01242,-0.27672 1.5957,-0.56836 0.6518,-0.3259 0.87862,-0.6488 1.36133,-0.98828 0.68137,-0.19277 1.36114,-0.37198 2.14453,-0.76367 1.54711,-0.77355 2.51504,-1.60213 3.19727,-2.31641 0.58709,-0.26107 1.58867,-0.81141 2.95312,-1.70703 1.99569,-0.18036 4.93201,-1.07654 6.96289,-3.10742 3.74639,-3.7464 3.37063,-8.71049 3.10547,-10.32032 -0.26516,-1.60982 -0.17773,-2.02872 -0.17773,-0.25586 h -19.1211 c 0.34794,-1.15994 0.89835,-2.41397 2.05078,-3.5664 1.76641,-1.76641 4.5714,-2.5755 5.98047,-2.625 1.40907,-0.0495 1.81721,0.15382 1.73633,0.13476 -0.16176,-0.0381 -2.34414,-1.58187 -7.3125,0.0742 -2.34126,0.78043 -3.639,1.89484 -4.54687,2.88282 -0.6269,0.2815 -1.61827,0.8041 -3.09571,1.78906 -0.25442,0.16961 -0.31345,0.28725 -0.53125,0.45117 -0.61465,0.18837 -1.20432,0.33069 -1.89843,0.67773 -0.6518,0.32591 -0.87863,0.6488 -1.36133,0.98829 -0.68138,0.19278 -1.36113,0.37196 -2.14453,0.76367 -4.50864,2.25478 -5.25613,4.5315 -4.34961,3.625 -1.16826,1.16827 -2.33757,2.33757 -3.50586,3.50586 -0.49948,0.49947 -0.6203,0.60157 -0.82032,0.78711 0.0214,-0.11701 -0.31882,-0.10167 -2.50976,1.21289 -3.06023,1.83613 -4.46364,3.07557 -4.58594,3.13672 1.33494,-0.66747 -1.06381,-0.79844 -5.92969,2.12109 -2.17667,1.306 -3.59222,2.1947 -5.02734,3.33203 -0.71756,0.56867 -1.43872,0.94146 -2.75195,2.88867 -0.25034,0.37119 -0.56748,0.94879 -0.86524,1.54883 -0.74258,0.38128 -0.35523,0.20203 -1.19726,0.62305 -0.21394,0.10697 -1.48826,0.45531 -3.91602,0.79297 -2.42775,0.33766 -6.00901,0.66564 -10.10351,2.71289 -5.81239,2.90619 -7.59742,5.55163 -7.00977,5.25781 0.43282,-0.21641 -1.22328,0.0592 -4.96289,0.99414 -2.33661,0.58415 -4.67322,1.16782 -7.00977,1.75195 -0.93351,0.23338 -4.31534,0.13911 -9.05664,2.50977 -2.22555,1.11277 -3.76482,1.89512 -5.66406,3.52539 -2.01593,0.30527 -2.39275,0.29007 -5.52734,0.8125 l -1.25391,0.20898 -1.16406,0.51758 c -4.16417,1.85075 -5.71682,4.51049 -6.51758,5.70899 -1.24549,0.45051 -1.99805,0.56028 -3.30469,0.52148 -1.7316,-0.0514 -5.22461,-0.5523 -10.00195,-0.0215 -4.75517,0.52834 -7.55742,1.63074 -8.65234,1.74023 -0.1385,0.0138 -3.62172,-1.21361 -9.93555,0.18945 -3.55709,0.79046 -5.64218,2.35723 -6.79297,3.10547 -0.42589,0.27691 -0.5855,0.3532 -0.75,0.44141 0.54803,-0.18912 -0.59419,-0.28125 -4.30859,-0.28125 h -22.78125 -28.03907 -5.25781 c -3.36931,0 -4.26913,-0.0604 -2.83203,0.29883 -1.05649,-0.26413 -1.39186,-0.37037 -2.27734,-0.59766 -0.29086,-0.28713 -0.63755,-0.70085 -0.86719,-0.88477 -0.89142,-0.71392 -1.38882,-0.94403 -1.77149,-1.13671 -3.0613,-1.54149 -2.24252,-0.83608 -2.74414,-0.95704 -0.50161,-0.12095 -1.05309,-0.24226 -1.78515,-0.39843 -1.46413,-0.31235 -3.61383,-0.75167 -6.78906,-1.38672 -5.52361,-1.10472 -8.25648,-1.58105 -10.01954,-1.81836 -0.0517,-0.007 -0.13448,-0.002 -0.18164,-0.01 -1.60476,-0.57916 -4.34378,-1.48754 -9.84961,-3.18164 -5.30136,-1.63119 -9.13563,-2.1568 -11.01757,-3.02539 -1.66307,-0.76757 -4.51455,-3.47944 -9.5586,-6.50586 -4.14618,-2.48771 -5.68794,-3.45453 -8.08789,-4.41797 -0.0324,-0.013 -0.13992,-0.0293 -0.17187,-0.043 -1.13474,-0.87204 -2.00847,-1.55323 -4.90625,-3.72657 l -0.22071,-0.16601 -0.23242,-0.1543 c -2.46286,-1.6419 -4.14941,-2.1626 -4.57812,-2.37695 -1.08873,-0.54437 -1.65973,-0.84323 -1.98828,-0.99805 -0.14817,-0.41641 -1.43423,-2.54339 -5.69922,-5.38672 -3.20759,-2.13839 -5.30196,-2.77128 -6.19922,-2.8164 -0.30466,-0.24407 -0.42211,-0.4305 -0.81055,-0.68946 -0.21119,-0.14079 -0.32261,-0.16133 -0.51953,-0.28125 -0.39831,-0.69586 -0.86286,-1.37456 -1.46094,-1.97265 v -0.002 c -0.21725,-0.21725 -0.4831,-0.34172 -0.71679,-0.53125 -1.92803,-3.13143 -3.58032,-3.7639 -2.78907,-2.97265 -0.33672,-0.33673 -0.67309,-0.67309 -1.00976,-1.00977 -0.0376,-0.12338 -0.0376,-0.21049 -0.0801,-0.33789 v -0.002 c -0.6296,-1.88845 -1.15222,-3.03433 -1.49024,-3.62696 -0.0975,-0.56853 -0.0334,-0.9439 -0.26171,-1.6289 -0.62998,-1.88994 -1.15206,-3.03601 -1.49024,-3.62891 -0.0975,-0.56831 -0.0335,-0.94424 -0.26172,-1.6289 -0.58253,-1.74763 -0.92541,-2.49775 -1.22851,-3.13477 -0.006,-0.30984 -0.0117,-0.28789 -0.0117,-0.71289 v -3.50391 c 0,-0.2483 0.0179,-0.14 0.0234,-0.35156 0.92871,-1.06849 2.24704,-2.68691 3.09765,-5.66406 1.64821,-5.76871 0.38477,-9.25271 0.38477,-9.75781 0,-3.5243 -0.19616,-6.14895 -0.041,-7.85547 0.25124,-2.76363 0.88995,-5.91065 1.59961,-9.45899 0.44615,-2.23074 4.8709,-17.87636 4.9375,-18.07617 3.15479,-9.46436 3.7487,-10.77366 4.23438,-11.75391 0.48567,-0.98024 1.6821,-3.18878 4.43945,-10.77148 4.03468,-11.09536 2.55611,-9.19655 6.75,-18.63281 0.81511,-1.83398 2.00688,-3.99228 3.31055,-6.59961 0.85619,-1.71237 2.51646,-4.21776 3.92382,-7.97071 1.01379,-2.70345 1.52135,-4.51366 1.6543,-5.4375 0.73388,-0.61946 1.95809,-1.88057 3.67383,-3.93945 2.13311,-2.55974 3.35438,-4.84201 4.30273,-6.35937 2.10182,-3.3629 3.62726,-6.30807 5.09766,-8.51368 1.20989,-1.81481 2.96319,-3.92421 4.9375,-6.55664 1.82261,-2.43014 3.50083,-4.75022 5.15039,-6.87109 2.63581,-3.38891 4.51969,-6.16227 6.1875,-7.83008 2.1139,-2.1139 2.8735,-2.56838 4.27734,-3.3125 1.40385,-0.74411 3.9073,-1.76816 7.52735,-3.77929 2.76746,-1.53749 6.26019,-3.26547 9.90625,-6 4.24539,-3.18405 5.5379,-5.46593 5.25781,-5.25586 1.6273,-1.22048 4.3973,-2.57823 7.90625,-4.6836 2.9207,-1.75242 5.84099,-3.50537 8.76172,-5.25781 3.5698,-2.14189 6.03329,-3.94553 7.75586,-4.72852 1.23265,-0.56029 5.23606,-0.85729 10.84961,-3.66406 5.35508,-2.67752 7.3803,-5.4442 7.68164,-5.625 1.77289,-1.06373 5.85535,-2.13792 10.91601,-5.51172 5.48874,-3.65914 6.5575,-6.06573 5.01172,-5.09961 -0.11396,0.0712 3.06453,-0.23833 8.42383,-3.30078 1.80443,-1.0311 2.84958,-2.05459 3.58789,-2.92773 1.01867,-0.1339 2.8874,-0.61238 5.67774,-1.72852 0.8714,-0.34856 1.5323,-0.74945 2.15429,-1.15039 0.81672,-0.086 1.50457,-0.051 2.55274,-0.40039 1.0492,-0.34972 1.87384,-0.78694 2.60156,-1.23828 h 1.24609 5.25586 c 2.94499,0 4.09121,-0.0489 3.46875,-0.16211 3.20981,0.5836 7.83913,2.62991 14.39453,3.56641 6.15388,0.87911 9.78729,-0.0891 10.6875,0.0234 4.33406,0.54176 10.08591,2.72389 17.71875,3.52735 6.96405,0.73306 12.44064,-0.16174 16.29297,0.041 4.87476,0.25658 10.69561,1.44222 17.59571,1.75586 8.21087,0.37322 15.10022,-0.52924 20.57812,-0.0312 4.51807,0.41073 9.93089,2.04399 16.46875,3.35157 l 0.27149,0.0547 0.27539,0.0391 c 3.70147,0.52878 7.95504,1.41031 12.85156,1.81835 4.95155,0.41263 8.26509,0.0501 9.77344,0.0332 1.50835,-0.0169 1.85018,-0.0896 5.06836,1.11719 0.48009,0.18003 0.29142,0.11846 0.66601,0.26953 1.33692,2.10205 2.91513,3.01633 4.3086,3.94531 2.46285,1.6419 4.15136,2.1626 4.58007,2.37695 0.67313,0.33657 2.02287,1.19547 4.26368,2.0918 2.50099,1.00039 2.96289,1.00832 3.38867,1.06445 0.15173,0.14154 0.0805,0.0434 0.26367,0.22656 0.48612,0.48614 0.57738,0.59602 0.76562,0.79883 0.0547,0.17359 0.13504,0.39896 0.86524,1.85938 0.57898,1.15796 0.51903,0.95383 0.69726,1.26367 v 3.02734 10.51368 5.79296 c -0.41047,0.79372 -0.92005,1.90877 -1.45507,4.04883 -0.40225,1.60898 -0.43397,3.24173 -0.38086,4.70899 -1.03599,0.51688 -2.35194,1.266 -3.99805,2.91211 -1.63804,1.63803 -2.81406,2.89425 -3.83398,4.16601 -0.87053,1.08547 -1.98271,1.68286 -2.68946,4.81641 -1.16193,0.94346 -1.05762,0.90658 -3.05859,2.46289 -2.78425,2.16553 -11.73494,6.32596 -17.84375,9.58398 -12.47515,6.65341 -15.43949,9.45314 -26.66211,13.41407 -15.43494,5.44762 -15.42825,4.26153 -30.89063,8.55664 -11.58667,3.21852 -15.65295,4.91399 -15.78515,4.94921 -0.1322,0.0352 -0.60045,-0.0566 -9.57813,-0.0566 h -47.31445 -15.77344 c -2.7428,0 -3.64412,0.0805 -4.28711,0.10938 -0.87637,-0.57049 -2.10559,-1.23597 -4.26562,-1.66797 -2.62552,-0.5251 -4.26608,-0.60283 -5.20313,-0.54297 -0.6927,-0.27147 -0.99291,-0.43579 -2.35742,-0.89062 -3.74009,-1.2467 -6.18007,-1.47539 -7.00976,-1.75196 -0.57244,-0.19081 -1.39589,-0.52778 -1.99024,-0.74609 -1.07727,-1.03239 -2.09556,-1.76171 -2.95117,-2.22656 -2.47815,-1.34637 -4.40781,-1.81613 -6.25781,-2.25 -1.85,-0.43387 -3.34303,-0.69027 -5.01563,-0.80664 -0.41815,-0.0291 -0.83417,-0.0582 -1.54492,-0.0312 -0.35538,0.0135 -0.77438,0.0293 -1.50586,0.1582 -0.73148,0.12885 -1.73221,0.0142 -4.13867,1.72266 -1.20323,0.85421 -2.97063,2.53921 -3.79883,5.27929 -0.8282,2.74009 -0.18599,5.78446 0.66797,7.45899 1.70793,3.34905 3.03472,3.60714 3.77344,4.05664 1.14937,0.69938 1.46847,0.73428 1.88086,0.85742 l -0.0156,0.041 c -1.63456,-0.65383 0.75056,0.7214 3.28906,2.37695 1.26926,0.82777 2.59612,2.01508 6.20508,2.57422 0.96756,0.1499 2.22029,0.14736 3.56641,-0.0586 0.56607,0.20081 0.92548,0.371 1.51172,0.56641 3.74008,1.2467 6.18007,1.47734 7.00976,1.75391 -2.22862,-0.74287 -0.9251,0.9443 4.70508,2.07031 2.64826,0.52965 4.31783,0.61436 5.24805,0.55078 0.92719,0.48152 2.1611,0.98128 3.83203,1.25977 4.46694,0.74448 7.41177,0.13671 8.65234,0.13671 h 15.77344 47.31445 c 8.59561,0 10.8706,0.41014 14.72657,-0.61718 3.85596,-1.02733 5.02305,-1.95996 15.98828,-5.00586 14.51296,-4.03138 15.8858,-3.20982 32.19726,-8.9668 13.0291,-4.59851 17.89734,-8.48171 29.41602,-14.625 4.42673,-2.36092 13.6682,-5.96762 20.71094,-11.44531 4.77329,-3.71257 6.8928,-5.35756 8.7207,-7.12305 0.45697,-0.44137 0.90523,-0.82023 1.69922,-1.94726 0.39699,-0.56352 0.94955,-1.28266 1.4707,-2.99219 0.0766,-0.25138 0.0444,-0.76871 0.10547,-1.09766 1.21853,-0.59654 3.32475,-1.60955 5.44336,-4.25781 1.33887,-1.67359 2.48747,-3.31091 3.32226,-5.58203 0.80222,-2.1825 0.88094,-5.01228 0.64258,-6.65821 0.30315,-0.64035 0.64061,-1.37692 1.21875,-3.11132 1.51801,-4.55411 0.51367,-6.44005 0.51367,-4.91602 v -7.00976 -10.51368 -3.50586 c 0,1.52403 1.00434,-0.35995 -0.51367,-4.91406 -1.00933,-3.02794 -2.13239,-4.48939 -2.29492,-4.81445 -0.21436,-0.42873 -0.73506,-2.11725 -2.37695,-4.58008 -1.90874,-2.86315 -3.34043,-3.61583 -3,-3.27539 0.89928,0.89396 0.15078,-1.37581 -4.35157,-3.62695 -3.68686,-1.84345 -5.90499,-2.04755 -6.01562,-2.0918 -0.18472,-0.0739 -1.0846,-0.58038 -2.74805,-1.41211 -1.12442,-0.5622 -1.06979,-0.50584 -1.43164,-0.66602 -0.30292,-0.53819 -0.55659,-1.21188 -0.88476,-1.58593 -1.36989,-1.5614 -2.42571,-2.13082 -3.3125,-2.63282 -1.77358,-1.00398 -3.29855,-1.58973 -5.84571,-2.54492 -4.85322,-1.81995 -9.14418,-2.42422 -12.3164,-2.38867 -3.17222,0.0356 -4.58525,0.31044 -7.88867,0.0352 -3.22781,-0.26899 -7.01125,-1.00655 -11.30469,-1.63282 -5.11252,-1.03689 -11.13774,-2.95783 -18.41211,-3.61914 -8.48398,-0.77127 -15.68634,0.23212 -21.48047,-0.0312 -4.82896,-0.21949 -10.60294,-1.3875 -17.45313,-1.74804 -6.64772,-0.34987 -11.75722,0.40867 -15.25,0.041 -4.21555,-0.44374 -9.84293,-2.54626 -17.33007,-3.48242 h -0.002 c -6.05386,-0.75638 -9.55452,0.13563 -10.33984,0.0234 -2.98172,-0.42597 -7.37577,-2.30358 -13.64453,-3.44336 -4.0708,-0.74013 -6.487,-0.16211 -7.04688,-0.16211 h -5.25586 -1.7539 c 0.46993,0 0.0813,-0.29826 -1.06446,-0.38281 z m -4.74609,2.17968 c 0.50253,0.0143 0.62378,0.11845 0.32422,0.0723 -0.0593,-0.009 -0.32596,-0.0361 -0.41797,-0.0547 0.0191,2.7e-4 0.0757,-0.0181 0.0937,-0.0176 z m -6.25195,2.61915 c -0.22234,0.35919 -0.64241,0.91825 -0.70313,1.01171 -0.12394,0.19079 0.0275,-0.30912 0.70313,-1.01171 z m -5.23633,1.73437 c -0.19904,0.31122 -0.60447,0.82351 -0.66992,0.92188 -0.1548,0.23264 -0.004,-0.23828 0.66992,-0.92188 z m 21.30469,10.17383 c 0.12404,-0.19094 -0.0282,0.31027 -0.70508,1.01367 0.22309,-0.36019 0.64425,-0.92004 0.70508,-1.01367 z m -12.53907,5.31055 c 0.0601,0.009 0.33014,0.0377 0.42383,0.0566 -0.55084,-0.008 -0.73462,-0.10456 -0.42383,-0.0566 z m 159.88672,5.69531 c -0.0464,0.28311 -0.0248,0.84023 -0.0391,1.28515 -6.8e-4,-0.0423 -0.0317,-0.10323 -0.0312,-0.14453 0.0204,-1.94649 0.24759,-2.22227 0.0703,-1.14062 z m 27.25391,68.93554 c -0.31761,0.58791 -0.54977,0.61113 -0.41992,0.44922 0.0406,-0.0506 0.34373,-0.36079 0.41992,-0.44922 z m -5.7207,5.73829 c 0.0506,-0.0107 -0.0222,0.0544 -0.92774,0.12109 -0.0102,7.5e-4 -0.0462,-0.005 -0.0566,-0.004 0.17352,-0.0527 0.95161,-0.11028 0.98438,-0.11718 z m -219.17774,22.84961 -1.99023,4.97265 c 0.0189,-0.93317 0.13091,-1.84192 0.44336,-2.62305 0.25533,-0.63833 0.80444,-1.49664 1.54687,-2.3496 z m 35.96289,3.82812 c 0.39273,0.19853 0.46214,0.31122 0.19532,0.12891 -0.0303,-0.0207 -0.15752,-0.10122 -0.19532,-0.12891 z m 143.39649,116.61914 c 0.98947,0.0324 1.47209,0.29047 1.31836,0.25781 -0.0955,-0.0203 -0.8321,-0.14287 -1.38477,-0.25195 0.0181,4.3e-4 0.0486,-0.006 0.0664,-0.006 z m -325.20508,0.63086 c -0.0115,0.0744 -0.0633,0.55008 -0.11328,0.82617 0.0164,-0.67504 0.13679,-0.97865 0.11328,-0.82617 z m 321.69922,1.12109 c 0.98945,0.0325 1.47407,0.29047 1.32031,0.25782 -0.0956,-0.0203 -0.83269,-0.14279 -1.38672,-0.25196 0.0181,4.4e-4 0.0486,-0.006 0.0664,-0.006 z m -301.81641,1.0918 c -0.0159,0.67861 -0.1388,0.98684 -0.11523,0.83399 0.0116,-0.0751 0.0648,-0.55335 0.11523,-0.83399 z m 295.14844,1.63086 c -0.102,0.15354 -0.35908,0.4676 -0.4043,0.5293 -0.13,0.17738 -0.0282,-0.079 0.4043,-0.5293 z m -313.27734,1.41211 c -0.0116,0.075 -0.0648,0.5539 -0.11524,0.83398 0.0159,-0.6786 0.1388,-0.98683 0.11524,-0.83398 z m 19.88085,2.21484 c -0.0159,0.67861 -0.13879,0.98684 -0.11523,0.83399 0.0116,-0.075 0.0648,-0.5539 0.11523,-0.83399 z m -18.10937,2.77149 c -0.0189,0.10291 -0.0674,0.67904 -0.125,0.97656 0.0267,-0.83586 0.17385,-1.24257 0.125,-0.97656 z m 328.37109,3.81445 c 0.0953,0.0224 0.4856,0.0355 0.61133,0.0664 -0.93332,-0.0303 -1.26676,-0.22081 -0.61133,-0.0664 z m -1.13672,2.14063 c 0.13001,-0.17739 0.0282,0.0789 -0.40429,0.52929 0.102,-0.15354 0.35908,-0.46759 0.40429,-0.52929 z m -321.84375,0.35351 c -0.0669,0.255 -0.25807,1.18705 -0.33984,2.44531 -0.21181,-1.97179 0.44736,-2.855 0.33984,-2.44531 z m 313.45313,2.64063 c 0.0955,0.0203 0.83207,0.14287 1.38477,0.25195 -1.02564,-0.0246 -1.54129,-0.2852 -1.38477,-0.25195 z m -3.50586,1.75195 c 0.0956,0.0203 0.83272,0.14278 1.38672,0.25195 -1.02572,-0.0246 -1.54321,-0.28519 -1.38672,-0.25195 z m -260.56836,14.05078 c 0.34882,0.23757 0.82495,0.5502 1.23242,1.92383 -0.0219,-0.0358 -0.98533,-1.60349 -1.23242,-1.92383 z m 1.24219,1.95117 c 0.22603,0.77645 0.41359,1.78199 0.46484,3.41602 0.0833,2.65576 -2.34072,7.53258 -5.26562,9.0918 -1.17546,0.62661 -2.02193,0.79784 -2.83008,0.94921 0.85475,-1.50682 7.62445,-13.44533 7.63086,-13.45703 z m 185.01367,4.37305 c 0.012,-10e-6 -0.01,0.0117 -0.002,0.0137 -0.008,7.6e-4 -0.0391,0.007 -0.0469,0.008 0.004,-1.9e-4 0.0454,-0.0215 0.0488,-0.0215 z m -155.69141,7.33594 c -0.13211,0.0132 -0.34798,0.0774 -0.51562,0.10742 0.15239,-0.0402 0.26839,-0.0847 0.36914,-0.10352 0.0885,-0.0165 0.0632,0.0103 0.14648,-0.004 z m 9.19922,3.3164 c 0.0301,0.0352 0.0416,0.0279 0.0723,0.0645 0.0337,0.0403 0.073,0.1257 0.10742,0.16797 -0.0565,-0.0652 -0.12632,-0.1744 -0.17969,-0.23243 z m -15.96679,1.31641 c -0.0957,0.14993 -0.19829,0.24924 -0.28907,0.41016 0.002,-0.006 0.0352,-0.11915 0.0352,-0.11914 -2e-5,3e-5 0.21035,-0.24125 0.25391,-0.29102 z m 164.26757,7.9668 c -0.0663,0.0405 -0.13801,0.058 -0.35351,0.0527 0.0376,-0.004 0.32044,-0.0494 0.35351,-0.0527 z m -164.48046,2.18554 c 0.0602,0.10099 0.1175,0.18409 0.17773,0.27735 -0.0511,-0.0823 -0.0761,-0.0781 -0.12891,-0.16797 -0.016,-0.0272 -0.0313,-0.0768 -0.0488,-0.10938 z m 1.41601,1.88672 c 0.34123,0.34777 0.63264,0.60927 0.9043,0.81641 -0.24066,-0.1872 -0.36961,-0.23395 -0.76563,-0.63477 -0.0359,-0.0363 -0.10085,-0.14287 -0.13867,-0.18164 z m 12.28906,1.69336 c -0.23351,0.13847 -0.42847,0.25423 -0.63476,0.35156 0.28456,-0.15749 0.32949,-0.18259 0.63476,-0.35156 z"
         id="path435" />
    </g>
  </g>
</svg>
