<?xml version="1.0" encoding="UTF-8" standalone="no"?>
<!-- Created with Inkscape (http://www.inkscape.org/) -->

<svg
   width="1000"
   height="1000"
   viewBox="0 0 1000 1000"
   version="1.1"
   id="svg1"
   xmlns:xlink="http://www.w3.org/1999/xlink"
   xmlns="http://www.w3.org/2000/svg"
   xmlns:svg="http://www.w3.org/2000/svg">
  <defs
     id="defs1">
    <pattern
       xlink:href="#pattern359"
       preserveAspectRatio="xMidYMid"
       id="pattern372"
       patternTransform="matrix(0.5,0,0,0.5,147.15462,1548.2922)" />
    <pattern
       xlink:href="#pattern357"
       preserveAspectRatio="xMidYMid"
       id="pattern371"
       patternTransform="matrix(0.5,0,0,0.5,221.32076,1552.4298)" />
    <pattern
       xlink:href="#pattern358"
       preserveAspectRatio="xMidYMid"
       id="pattern370"
       patternTransform="matrix(0.5,0,0,0.5,230.96346,1527.8214)" />
    <pattern
       xlink:href="#pattern355"
       preserveAspectRatio="xMidYMid"
       id="pattern369"
       patternTransform="matrix(0.5,0,0,0.5,287.08178,1553.6581)" />
    <pattern
       xlink:href="#pattern354"
       preserveAspectRatio="xMidYMid"
       id="pattern368"
       patternTransform="matrix(0.5,0,0,0.5,230.97274,1529.1717)" />
    <pattern
       xlink:href="#pattern342"
       preserveAspectRatio="xMidYMid"
       id="pattern360"
       patternTransform="matrix(0.5,0,0,0.5,210.45332,1525.5392)" />
    <pattern
       xlink:href="#pattern342"
       preserveAspectRatio="xMidYMid"
       id="pattern359"
       patternTransform="matrix(0.5,0,0,0.5,152.11125,1550.7705)" />
    <pattern
       xlink:href="#pattern342"
       preserveAspectRatio="xMidYMid"
       id="pattern358"
       patternTransform="matrix(0.5,0,0,0.5,202.11125,1533.2444)" />
    <pattern
       xlink:href="#pattern342"
       preserveAspectRatio="xMidYMid"
       id="pattern357"
       patternTransform="matrix(0.5,0,0,0.5,211.4075,1546.234)" />
    <pattern
       xlink:href="#pattern342"
       preserveAspectRatio="xMidYMid"
       id="pattern356"
       patternTransform="matrix(0.5,0,0,0.5,232.14929,1573.2544)" />
    <pattern
       xlink:href="#pattern342"
       preserveAspectRatio="xMidYMid"
       id="pattern355"
       patternTransform="matrix(0.5,0,0,0.5,275,1552.7287)" />
    <pattern
       xlink:href="#pattern342"
       preserveAspectRatio="xMidYMid"
       id="pattern354"
       patternTransform="matrix(0.5,0,0,0.5,235,1529.7913)" />
    <pattern
       xlink:href="#shading24"
       preserveAspectRatio="xMidYMid"
       id="pattern342"
       patternTransform="matrix(0.5,0,0,0.5,213.95332,1537.5392)"
       x="0"
       y="0" />
    <pattern
       patternUnits="userSpaceOnUse"
       width="338.5925"
       height="42.989567"
       patternTransform="translate(213.95332,1537.5392) scale(0.5)"
       preserveAspectRatio="xMidYMid"
       id="shading24"
       style="fill:#000000">
      <path
         style="fill-rule:nonzero;stroke:none;stroke-width:0.1;stroke-linecap:square;paint-order:markers fill stroke;stop-color:#000000"
         d="m 1806.4991,-758.06464 v 18.86792 c 55.9187,0 121.0493,0.59523 193.5686,3.15628 72.9408,2.57593 146.0589,6.87694 222.9288,13.47675 119.09,10.22471 223.0762,23.76065 340.6056,39.2177 117.5025,15.4535 222.0471,29.0563 341.8507,39.3312 77.366,6.63525 151.0001,10.96128 224.4674,13.55245 73.0344,2.5759 138.631,3.17493 194.9247,3.17493 -55.9642,0 -122.2215,-1.36594 -194.8324,-5.25394 -73.2143,-3.92032 -146.9676,-10.0663 -223.8166,-18.88656 -118.8791,-13.6442 -223.3242,-31.02113 -339.8009,-50.57815 -116.4705,-19.55598 -221.1862,-36.99475 -340.3724,-50.69165 -77.0605,-8.8558 -150.9942,-15.0266 -224.3694,-18.96225 -72.7637,-3.90286 -139.1256,-5.27261 -195.1541,-5.27261 z m 0,37.81515 v 18.86793 c 55.9187,0 121.0493,0.59523 193.5686,3.15627 72.9408,2.57593 146.0589,6.87694 222.9288,13.47676 119.09,10.22471 223.0762,23.76065 340.6056,39.2177 117.5025,15.4535 222.0471,29.0563 341.8507,39.33119 77.366,6.63526 151.0001,10.96128 224.4674,13.55245 73.0344,2.5759 138.631,3.17493 194.9247,3.17493 -55.9642,0 -122.2215,-1.36594 -194.8324,-5.25394 -73.2143,-3.92031 -146.9676,-10.0663 -223.8166,-18.88656 -118.8791,-13.6442 -223.3242,-31.02112 -339.8009,-50.57815 -116.4705,-19.55598 -221.1862,-36.99475 -340.3724,-50.69165 -77.0605,-8.8558 -150.9942,-15.02659 -224.3694,-18.96225 -72.7637,-3.90286 -139.1256,-5.2726 -195.1541,-5.2726 z m 0,37.81516 v 18.86792 c 55.9187,0 121.0493,0.59523 193.5686,3.15628 72.9408,2.57593 146.0589,6.87694 222.9288,13.47675 119.09,10.22471 223.0762,23.76065 340.6056,39.2177 117.5025,15.4535 222.0471,29.0563 341.8507,39.3312 77.366,6.63525 151.0001,10.96128 224.4674,13.55245 73.0344,2.5759 138.631,3.17493 194.9247,3.17493 -55.9642,0 -122.2215,-1.36594 -194.8324,-5.25394 -73.2143,-3.92032 -146.9676,-10.0663 -223.8166,-18.88656 -118.8791,-13.6442 -223.3242,-31.02113 -339.8009,-50.57815 -116.4705,-19.55598 -221.1862,-36.99475 -340.3724,-50.69165 -77.0605,-8.8558 -150.9942,-15.0266 -224.3694,-18.96225 -72.7637,-3.90286 -139.1256,-5.27261 -195.1541,-5.27261 z m 0,37.81515 v 18.86793 c 55.9187,0 121.0493,0.59523 193.5686,3.15627 72.9408,2.57593 146.0589,6.87694 222.9288,13.47676 119.09,10.22471 223.0762,23.76065 340.6056,39.2177 117.5025,15.4535 222.0471,29.0563 341.8507,39.33119 77.366,6.63526 151.0001,10.96128 224.4674,13.55245 73.0344,2.5759 138.631,3.17494 194.9247,3.17494 -55.9642,0 -122.2215,-1.36595 -194.8324,-5.25395 -73.2143,-3.92031 -146.9676,-10.0663 -223.8166,-18.88656 -118.8791,-13.6442 -223.3242,-31.02112 -339.8009,-50.57815 -116.4705,-19.55598 -221.1862,-36.99475 -340.3724,-50.69165 -77.0605,-8.8558 -150.9942,-15.02659 -224.3694,-18.96225 -72.7637,-3.90286 -139.1256,-5.2726 -195.1541,-5.2726 z m 0,37.81516 v 18.86792 c 55.9187,0 121.0493,0.59523 193.5686,3.15628 72.9408,2.57593 146.0589,6.87694 222.9288,13.47675 119.09,10.22471 223.0762,23.76065 340.6056,39.2177 117.5025,15.4535 222.0471,29.0563 341.8507,39.3312 77.366,6.63525 151.0001,10.96128 224.4674,13.55245 73.0344,2.5759 138.631,3.17493 194.9247,3.17493 -55.9642,0 -122.2215,-1.36594 -194.8324,-5.25394 -73.2143,-3.92032 -146.9676,-10.0663 -223.8166,-18.88656 -118.8791,-13.6442 -223.3242,-31.02113 -339.8009,-50.57815 -116.4705,-19.55598 -221.1862,-36.99475 -340.3724,-50.69165 -77.0605,-8.8558 -150.9942,-15.0266 -224.3694,-18.96225 -72.7637,-3.90286 -139.1256,-5.27261 -195.1541,-5.27261 z m 0,37.81515 v 18.86793 c 55.9187,0 121.0493,0.59523 193.5686,3.15627 72.9408,2.57593 146.0589,6.87694 222.9288,13.47676 119.09,10.22471 223.0762,23.76065 340.6056,39.2177 117.5025,15.4535 222.0471,29.0563 341.8507,39.33119 77.366,6.63526 151.0001,10.96128 224.4674,13.55245 73.0344,2.5759 138.631,3.17494 194.9247,3.17494 -55.9642,0 -122.2215,-1.36595 -194.8324,-5.25395 -73.2143,-3.92031 -146.9676,-10.0663 -223.8166,-18.88656 -118.8791,-13.6442 -223.3242,-31.02112 -339.8009,-50.57815 -116.4705,-19.55598 -221.1862,-36.99475 -340.3724,-50.69165 -77.0605,-8.8558 -150.9942,-15.02659 -224.3694,-18.96225 -72.7637,-3.90286 -139.1256,-5.2726 -195.1541,-5.2726 z m 0,37.81516 v 18.86792 c 55.9187,0 121.0493,0.59523 193.5686,3.15628 72.9408,2.57593 146.0589,6.87694 222.9288,13.47675 119.09,10.22471 223.0762,23.76065 340.6056,39.2177 117.5025,15.4535 222.0471,29.0563 341.8507,39.3312 77.366,6.63525 151.0001,10.96128 224.4674,13.55245 73.0344,2.5759 138.631,3.17493 194.9247,3.17493 -55.9642,0 -122.2215,-1.36594 -194.8324,-5.25394 -73.2143,-3.92032 -146.9676,-10.0663 -223.8166,-18.88656 -118.8791,-13.6442 -223.3242,-31.02113 -339.8009,-50.57815 -116.4705,-19.55598 -221.1862,-36.99475 -340.3724,-50.69165 -77.0605,-8.8558 -150.9942,-15.0266 -224.3694,-18.96225 -72.7637,-3.90286 -139.1256,-5.27261 -195.1541,-5.27261 z"
         id="use26"
         transform="matrix(0.22300099,0,0,0.37823052,-402.85121,237.25945)" />
    </pattern>
    <clipPath
       clipPathUnits="userSpaceOnUse"
       id="clipPath54">
      <path
         id="path336"
         style="stroke-width:0.0999999;stroke-linecap:square;paint-order:markers fill stroke;stop-color:#000000"
         d="m 1691.1994,-792.32001 h 1634.8919 v 92.82806 H 1691.1994 Z" />
    </clipPath>
    <clipPath
       clipPathUnits="userSpaceOnUse"
       id="clipPath33">
      <rect
         style="fill:#000000;stroke:none;stroke-width:0.999995;stroke-linecap:butt;stroke-linejoin:bevel;paint-order:stroke markers fill;stop-color:#000000"
         id="rect33"
         width="46.19186"
         height="80.006783"
         x="74.999985"
         y="399.99661" />
    </clipPath>
    <clipPath
       clipPathUnits="userSpaceOnUse"
       id="clipPath27">
      <rect
         style="fill:none;stroke:#000000;stroke-width:0.999999;stroke-linecap:butt;stroke-linejoin:bevel;paint-order:stroke markers fill;stop-color:#000000"
         id="rect28-6"
         width="46.160622"
         height="39.922417"
         x="86.574379"
         y="420.06253" />
    </clipPath>
    <clipPath
       clipPathUnits="userSpaceOnUse"
       id="clipPath25">
      <rect
         style="fill:#ff0000;stroke:none;stroke-width:3;stroke-linecap:square;stroke-linejoin:miter;paint-order:stroke markers fill;stop-color:#000000"
         id="rect25-8"
         width="78"
         height="45.033199"
         x="763.61322"
         y="452.82422" />
    </clipPath>
    <clipPath
       clipPathUnits="userSpaceOnUse"
       id="clipPath15">
      <rect
         style="fill:none;stroke:#000000;stroke-linecap:butt;stroke-linejoin:bevel;paint-order:stroke markers fill;stop-color:#000000"
         id="rect15-7"
         width="45.034248"
         height="38.955639"
         x="262.48285"
         y="121.00073" />
    </clipPath>
    <linearGradient
       id="swatch75">
      <stop
         style="stop-color:#000000;stop-opacity:1;"
         offset="0"
         id="stop75" />
    </linearGradient>
  </defs>
  <g
     id="layer70"
     style="display:inline">
    <g
       id="layer76"
       style="display:inline">
      <path
         style="baseline-shift:baseline;display:inline;overflow:visible;opacity:1;vector-effect:none;fill-rule:evenodd;enable-background:accumulate;stop-color:#000000;stop-opacity:1"
         d="m 607.91602,238.5332 c -0.84991,-0.0615 -2.45928,0.0672 -4.73633,0.82617 -1.79664,0.59888 -2.82685,1.07768 -3.44922,1.41797 -0.39514,0.0596 -0.60848,0.004 -1.07031,0.11914 -2.52715,0.63179 -3.32262,1.04817 -4.05079,1.34961 -0.91957,-0.013 -2.16439,0.10622 -3.69726,0.61719 -3.55105,1.18367 -4.74944,2.2322 -4.05664,1.95508 -0.11066,0.0443 -2.32881,0.2484 -6.01563,2.0918 -4.41853,2.20925 -7.08719,4.42055 -8.76172,5.25781 -1.06901,0.53451 -4.44243,1.09366 -9.14648,3.70703 -8.82076,4.90042 -13.02879,11.16893 -17.64258,15.36328 -2.91391,2.64902 -6.46756,5.33012 -10.24609,8.52734 -8.58324,7.26274 -21.34013,17.61315 -29.38867,27.67383 -5.78721,7.234 -9.07349,14.53944 -12.72071,19.88867 -3.98412,5.84339 -9.42255,11.90928 -14.23632,19.61133 -5.13126,8.21 -8.55004,16.32539 -12.44922,23.08399 -4.07453,7.06251 -9.48054,14.34276 -14.16211,23.03711 -4.3193,8.02154 -7.52243,16.04192 -10.83594,23.43359 -8.14098,18.16066 -15.93681,36.01706 -23.01953,54.9043 -3.74775,9.994 -7.27562,20.05148 -10.63867,30.14062 -1.24661,3.73982 -4.90859,15.76818 -8.52539,27.79492 -1.80841,6.01338 -3.57057,11.92361 -4.92579,16.53907 -0.6776,2.30773 -1.25274,4.28952 -1.6875,5.82226 -0.43475,1.53275 -0.63829,2.09025 -0.9414,3.5625 -2.27384,11.04437 -2.3636,21.36705 -3.61524,30.44141 -0.90847,6.58638 -2.34803,13.50146 -3.48242,20.875 -2.545,16.54251 -4.53016,32.95092 -7.00976,49.06836 -0.97977,6.36851 -2.83933,13.49632 -3.58008,21.64453 -0.68626,7.54884 0.32312,13.4698 -0.01,17.63086 -0.61924,7.74063 -2.74589,16.41328 -3.50781,26.31836 -0.61757,8.02838 0.43791,14.44858 0.0117,19.13672 -0.43544,4.78973 -2.68087,11.03519 -3.49609,19.1875 -0.65514,6.55134 -0.0488,12.17363 -0.0488,16.76757 0,5.64879 0.28032,10.71698 0.0176,15.1836 -0.20263,3.4446 -1.35448,8.03781 -1.74805,13.9414 -0.331,4.96493 -0.0215,9.28805 -0.0215,12.9336 v 10.51367 40.30664 19.27734 3.50391 c 0,-2.06501 0.19011,-1.98193 -0.0234,-0.68555 -0.21354,1.29639 -0.58876,5.96993 2.95117,9.50977 3.53984,3.53993 8.21338,3.16471 9.50976,2.95117 1.29639,-0.21354 1.37947,-0.0234 -0.68554,-0.0234 v -19.62109 c 1.60121,0.19792 3.5195,0.75188 5.31836,2.55078 3.12686,3.12679 2.7509,7.2153 2.64062,7.88477 -0.11027,0.66947 0.28906,0.0827 0.28906,-2.56641 v -3.50391 -19.27734 -40.30664 -10.51367 c 0,-4.53248 -0.23643,-8.40657 -0.0234,-11.60156 0.23297,-3.49458 1.40733,-8.13946 1.75781,-14.09766 0.3547,-6.02984 0.0176,-11.49356 0.0176,-16.35938 0,-5.92065 -0.44189,-10.86626 -0.0508,-14.77734 0.48447,-4.84473 2.76652,-11.14675 3.51367,-19.36523 0.73729,-8.11027 -0.35636,-14.63108 0.0117,-19.41602 0.59401,-7.72226 2.71331,-16.37339 3.5039,-26.25586 0.59878,-7.48464 -0.38122,-13.32993 -0.01,-17.41601 0.54602,-6.00625 2.24829,-12.73501 3.42968,-20.41407 2.545,-16.54251 4.53017,-32.95092 7.00977,-49.06836 1.02677,-6.67403 2.4938,-13.69043 3.52734,-21.18359 1.48083,-10.73596 1.6338,-20.59793 3.39258,-29.14062 -0.15139,0.73532 0.18829,-0.70917 0.59375,-2.13868 0.40547,-1.4295 0.96728,-3.37128 1.63477,-5.64453 1.33497,-4.5465 3.08911,-10.43011 4.88867,-16.41406 3.59911,-11.9679 7.52103,-24.75059 8.34766,-27.23047 3.29722,-9.89167 6.74315,-19.71676 10.39062,-29.44336 6.84328,-18.24874 14.45481,-35.70327 22.54297,-53.74609 3.52891,-7.87219 6.58417,-15.42447 10.19531,-22.13086 3.77313,-7.00723 9.03789,-14.14108 13.875,-22.52539 4.72081,-8.18275 8.07493,-16.06092 12.08594,-22.47852 3.60814,-5.77303 8.83519,-11.65762 13.80273,-18.94336 4.93389,-7.23636 8.08395,-14.00337 11.8125,-18.66406 5.52384,-6.9048 17.98318,-17.53159 26.68946,-24.89844 3.18707,-2.69676 6.94543,-5.50721 10.7832,-8.99609 6.56439,-5.96763 9.50097,-10.23362 13.90039,-12.67774 0.79565,-0.44202 3.8207,-1.02362 8.37891,-3.30273 4.41851,-2.20926 7.08719,-4.42055 8.76172,-5.25781 -0.3824,0.1912 1.17848,-0.0843 4.49804,-1.41211 1.34038,-0.53616 2.07934,-0.89852 2.6211,-1.1836 0.47561,-0.0596 0.76608,-0.005 1.34765,-0.15039 2.52723,-0.63181 3.32265,-1.05013 4.05078,-1.35156 0.91954,0.0131 2.16443,-0.10625 3.69727,-0.61719 1.57035,-0.52344 2.34434,-0.90288 3.01367,-1.23828 h 0.83399 0.9707 l 0.0566,0.17188 c 0.9034,2.71016 2.23146,4.02146 3.26367,4.86914 0.14324,0.28643 0.23077,0.40798 0.44336,0.93945 1.91799,4.795 3.26696,12.67887 4.7793,19.48438 l 19.52344,-4.33789 c -1.26164,-5.67736 -2.46915,-14.41112 -5.73438,-22.57422 -0.59188,-1.4797 -1.37807,-3.32979 -2.7168,-5.33789 -0.66728,-1.00092 -1.20617,-1.4805 -1.73632,-1.98828 0.0138,0.2268 0.0497,0.47745 0.041,0.66796 0.38986,0.57959 0.79707,1.01621 1.10938,1.95313 l 0.17382,1.07031 c -0.59478,-0.11077 -19.35636,-3.60429 -19.3457,-3.6582 0.0214,-0.10819 0.0464,-0.22244 0.0762,-0.34766 0.0595,-0.25044 0.13694,-0.54131 0.27149,-0.92187 0.2691,-0.76114 0.54886,-2.01934 2.5957,-3.85547 2.04684,-1.83613 7.24015,-2.89549 9.98828,-1.82227 5.49627,2.14645 4.23006,3.53629 3.94531,2.9668 0.76878,1.53751 1.02312,2.68172 1.12696,3.64648 0.0159,-0.2464 0.0642,-0.17851 0.0664,-0.47851 0.0135,-1.83447 -0.8358,-5.28698 -3.0664,-7.51758 v -0.002 c -3.53985,-3.53976 -8.21145,-3.16275 -9.50782,-2.94922 -1.29636,0.21353 -1.37936,0.0215 0.68555,0.0215 h -1.7539 -5.25586 -1.75391 c 0.76199,0 0.67217,-0.25103 -0.17773,-0.3125 z m -12.04102,3.8086 c 0.48681,0.0239 0.63295,0.11208 0.42773,0.084 -0.0714,-0.01 -0.4336,-0.0352 -0.5957,-0.0625 0.0362,9.6e-4 0.13489,-0.0231 0.16797,-0.0215 z m 31.18555,6.34961 c -0.0293,-0.0214 0.71437,0.6626 1.52148,1.77343 0.0261,-0.16819 0.0445,-0.2434 0.0644,-0.45312 -0.87684,-0.82859 -1.55787,-1.29983 -1.58593,-1.32031 z m -26.45118,11.83007 c 0.0724,0.01 0.43808,0.0367 0.60352,0.0645 -0.57325,-0.0146 -0.8233,-0.0945 -0.60352,-0.0645 z"
         id="path436" />
      <path
         style="baseline-shift:baseline;display:inline;overflow:visible;opacity:1;vector-effect:none;fill-rule:evenodd;enable-background:accumulate;stop-color:#000000;stop-opacity:1"
         d="m 663.67187,512.19336 c -0.0741,-5.4e-4 -0.15108,-10e-4 -0.3457,0.004 -0.0973,0.002 -0.21041,0.003 -0.48828,0.0234 -0.13893,0.0102 -0.31126,0.0219 -0.65625,0.0703 -0.34499,0.0484 -2.40216,0.64836 -2.40234,0.64843 -1e-5,10e-6 -0.13897,0.88093 -0.15625,0.99024 -1.07805,-0.11406 -2.50267,-0.18778 -4.63086,0.28515 -5.75388,1.27864 -8.97544,3.19509 -10.30469,3.46094 -3.63651,0.72731 -8.93053,0.543 -15.54883,1.71094 -6.27184,1.1068 -10.71919,2.99436 -13.80273,3.46875 -14.2482,2.19203 -16.26263,2.33166 -21.6211,3.01953 -0.12008,-0.0526 -0.31883,-0.20068 -0.39843,-0.22266 -0.83496,-0.23048 -1.31163,-0.27722 -1.68555,-0.31445 -1.49568,-0.14891 -1.63627,-0.037 -1.94141,-0.0117 -0.61027,0.0505 -0.87514,0.0964 -1.21679,0.14844 -1.36663,0.20809 -3.10809,0.54381 -5.00782,0.93945 -1.89972,0.39565 -3.59471,0.74735 -5.38867,1.29688 -0.23351,0.0715 -0.64213,0.2442 -0.93359,0.34765 -5.11057,1.13563 -8.9301,2.02548 -25.38281,5.40039 -17.9213,3.67617 -27.04555,5.55229 -31.5293,6.41211 -1.43298,0.2748 -1.59142,0.28997 -2.08594,0.36914 -0.24362,-0.0412 -0.6119,-0.21278 -0.83008,-0.24023 -1.99453,-0.25099 -3.5232,-0.17721 -6.13281,-0.006 -5.21921,0.3427 -14.37078,1.35588 -32.39648,3.87109 -13.48063,1.88102 -26.38002,4.78678 -38.96094,7.07422 -13.07771,2.37777 -25.74433,5.13042 -38.21289,6.95508 -9.99946,1.46334 -21.40763,1.30741 -33.66016,3.56445 -12.6267,2.32597 -23.4582,6.7353 -33.5,8.80274 -6.78743,1.39741 -16.20703,0.59487 -27.01758,3.68359 -10.18441,2.90984 -17.56658,8.19121 -23.97461,10.9375 -4.24871,1.82088 -8.68438,3.44363 -13.24218,4.96289 -1.31476,0.43825 -3.43888,0.82897 -6.27149,1.53711 l 4.84961,19.40235 c 1.84056,-0.46014 4.49107,-0.88179 7.7461,-1.9668 4.91184,-1.63728 9.8708,-3.44156 14.79687,-5.55274 8.96683,-3.84292 15.69052,-8.40432 21.58984,-10.08984 6.18864,-1.76818 15.02784,-1.15848 25.55664,-3.32617 12.43991,-2.56117 23.14311,-6.89036 33.08985,-8.72266 9.69827,-1.78652 20.84815,-1.67475 32.93359,-3.44336 13.37984,-1.95801 26.26988,-4.77101 38.89453,-7.0664 13.12142,-2.38572 25.75403,-5.21418 38.14649,-6.94336 17.82441,-2.48713 26.83944,-3.45319 30.94336,-3.72266 1.71399,-0.11254 2.06128,-0.0642 1.9414,-0.0898 0.26632,0.0928 0.56092,0.29464 0.80274,0.34375 1.88993,0.38377 2.80092,0.2278 3.57422,0.15625 1.54659,-0.1431 2.76904,-0.38426 5.18554,-0.84766 4.833,-0.92679 13.86714,-2.7878 31.78321,-6.46289 16.10427,-3.30344 19.8496,-4.18092 25.34179,-5.40039 0.27264,-0.007 0.61998,0.003 0.88282,-0.0117 4.52166,-0.26009 13.51307,-1.4987 36.37304,-5.01562 6.4384,-0.99052 11.02082,-2.97358 14.23633,-3.54102 3.80002,-0.6706 9.25874,-0.44549 15.99609,-1.79297 5.49943,-1.09988 8.59639,-2.82936 10.20313,-3.34375 0.97257,0.11994 3.01469,0.48899 6.0332,-0.26562 1.31723,-0.32931 2.36126,-0.62176 3.5293,-1.07422 1.16804,-0.45246 2.60868,0.23252 5.60156,-4.33203 1.49644,-2.28228 2.00785,-7.80815 0.24414,-10.77344 -1.76371,-2.96529 -3.50277,-3.59911 -4.52148,-4.07813 -2.03743,-0.95802 -2.75646,-0.91141 -3.46875,-1.01953 -0.13199,-0.02 -0.18741,-0.0156 -0.30664,-0.0312 v -0.14648 c -0.84854,0 -1.38428,-0.006 -1.66016,-0.0117 -0.0221,-4.2e-4 -0.0124,4.2e-4 -0.0312,0 -0.076,-0.003 -0.15939,-0.009 -0.23437,-0.0117 -0.0925,-0.003 -0.17804,-0.007 -0.32618,-0.008 z m 2.25196,0.28125 c 5e-5,10e-6 0.006,0.002 0.006,0.002 -4e-4,-9e-5 4.09776,2.08407 4.09765,2.08399 -10e-5,-9e-5 -2.66815,16.88875 -2.66797,16.88867 1.2e-4,-5e-5 -0.77085,0.20566 -1.43554,0.38867 z m -4.77344,1.48047 c 0.0454,-0.0176 -0.28226,0.0771 -0.33594,0.0937 -0.0697,-0.009 -0.24466,-0.0218 -0.32812,-0.0332 0.2899,-0.0319 0.60948,-0.0394 0.66406,-0.0605 z m -1.63086,0.63086 c -0.37684,2.38346 -1.7556,11.09617 -2.14258,13.54492 -0.12159,-0.18308 -0.22292,-0.20178 -0.3457,-0.4082 -1.70081,-2.85954 -1.19055,-8.26664 0.21875,-10.41602 1.00026,-1.52553 1.69584,-2.2469 2.26953,-2.7207 z m -72.85351,11.32617 c 0.29398,-0.0936 0.32544,0.0188 0.41992,0.0293 -0.0174,0.004 -0.009,0.003 -0.0274,0.008 -0.0449,0.0112 -0.58117,0.12254 -0.63086,0.13476 0.0392,-0.0164 0.20551,-0.16143 0.23829,-0.17187 z m -76.61524,31.57422 c 0.30313,0.29113 1.7354,1.15913 3.2207,1.87695 -0.35599,-0.11167 -0.44577,-0.0542 -0.92382,-0.28711 -1.27757,-0.62248 -2.73824,-2.01375 -2.29688,-1.58984 z"
         id="path437" />
    </g>
  </g>
</svg>
