<?xml version="1.0" encoding="UTF-8" standalone="no"?>
<!-- Created with Inkscape (http://www.inkscape.org/) -->

<svg
   width="1000"
   height="1000"
   viewBox="0 0 1000 1000"
   version="1.1"
   id="svg1"
   xmlns:xlink="http://www.w3.org/1999/xlink"
   xmlns="http://www.w3.org/2000/svg"
   xmlns:svg="http://www.w3.org/2000/svg">
  <defs
     id="defs1">
    <pattern
       xlink:href="#pattern359"
       preserveAspectRatio="xMidYMid"
       id="pattern372"
       patternTransform="matrix(0.5,0,0,0.5,147.15462,1548.2922)" />
    <pattern
       xlink:href="#pattern357"
       preserveAspectRatio="xMidYMid"
       id="pattern371"
       patternTransform="matrix(0.5,0,0,0.5,221.32076,1552.4298)" />
    <pattern
       xlink:href="#pattern358"
       preserveAspectRatio="xMidYMid"
       id="pattern370"
       patternTransform="matrix(0.5,0,0,0.5,230.96346,1527.8214)" />
    <pattern
       xlink:href="#pattern355"
       preserveAspectRatio="xMidYMid"
       id="pattern369"
       patternTransform="matrix(0.5,0,0,0.5,287.08178,1553.6581)" />
    <pattern
       xlink:href="#pattern354"
       preserveAspectRatio="xMidYMid"
       id="pattern368"
       patternTransform="matrix(0.5,0,0,0.5,230.97274,1529.1717)" />
    <pattern
       xlink:href="#pattern342"
       preserveAspectRatio="xMidYMid"
       id="pattern360"
       patternTransform="matrix(0.5,0,0,0.5,210.45332,1525.5392)" />
    <pattern
       xlink:href="#pattern342"
       preserveAspectRatio="xMidYMid"
       id="pattern359"
       patternTransform="matrix(0.5,0,0,0.5,152.11125,1550.7705)" />
    <pattern
       xlink:href="#pattern342"
       preserveAspectRatio="xMidYMid"
       id="pattern358"
       patternTransform="matrix(0.5,0,0,0.5,202.11125,1533.2444)" />
    <pattern
       xlink:href="#pattern342"
       preserveAspectRatio="xMidYMid"
       id="pattern357"
       patternTransform="matrix(0.5,0,0,0.5,211.4075,1546.234)" />
    <pattern
       xlink:href="#pattern342"
       preserveAspectRatio="xMidYMid"
       id="pattern356"
       patternTransform="matrix(0.5,0,0,0.5,232.14929,1573.2544)" />
    <pattern
       xlink:href="#pattern342"
       preserveAspectRatio="xMidYMid"
       id="pattern355"
       patternTransform="matrix(0.5,0,0,0.5,275,1552.7287)" />
    <pattern
       xlink:href="#pattern342"
       preserveAspectRatio="xMidYMid"
       id="pattern354"
       patternTransform="matrix(0.5,0,0,0.5,235,1529.7913)" />
    <pattern
       xlink:href="#shading24"
       preserveAspectRatio="xMidYMid"
       id="pattern342"
       patternTransform="matrix(0.5,0,0,0.5,213.95332,1537.5392)"
       x="0"
       y="0" />
    <pattern
       patternUnits="userSpaceOnUse"
       width="338.5925"
       height="42.989567"
       patternTransform="translate(213.95332,1537.5392) scale(0.5)"
       preserveAspectRatio="xMidYMid"
       id="shading24"
       style="fill:#000000">
      <path
         style="fill-rule:nonzero;stroke:none;stroke-width:0.1;stroke-linecap:square;paint-order:markers fill stroke;stop-color:#000000"
         d="m 1806.4991,-758.06464 v 18.86792 c 55.9187,0 121.0493,0.59523 193.5686,3.15628 72.9408,2.57593 146.0589,6.87694 222.9288,13.47675 119.09,10.22471 223.0762,23.76065 340.6056,39.2177 117.5025,15.4535 222.0471,29.0563 341.8507,39.3312 77.366,6.63525 151.0001,10.96128 224.4674,13.55245 73.0344,2.5759 138.631,3.17493 194.9247,3.17493 -55.9642,0 -122.2215,-1.36594 -194.8324,-5.25394 -73.2143,-3.92032 -146.9676,-10.0663 -223.8166,-18.88656 -118.8791,-13.6442 -223.3242,-31.02113 -339.8009,-50.57815 -116.4705,-19.55598 -221.1862,-36.99475 -340.3724,-50.69165 -77.0605,-8.8558 -150.9942,-15.0266 -224.3694,-18.96225 -72.7637,-3.90286 -139.1256,-5.27261 -195.1541,-5.27261 z m 0,37.81515 v 18.86793 c 55.9187,0 121.0493,0.59523 193.5686,3.15627 72.9408,2.57593 146.0589,6.87694 222.9288,13.47676 119.09,10.22471 223.0762,23.76065 340.6056,39.2177 117.5025,15.4535 222.0471,29.0563 341.8507,39.33119 77.366,6.63526 151.0001,10.96128 224.4674,13.55245 73.0344,2.5759 138.631,3.17493 194.9247,3.17493 -55.9642,0 -122.2215,-1.36594 -194.8324,-5.25394 -73.2143,-3.92031 -146.9676,-10.0663 -223.8166,-18.88656 -118.8791,-13.6442 -223.3242,-31.02112 -339.8009,-50.57815 -116.4705,-19.55598 -221.1862,-36.99475 -340.3724,-50.69165 -77.0605,-8.8558 -150.9942,-15.02659 -224.3694,-18.96225 -72.7637,-3.90286 -139.1256,-5.2726 -195.1541,-5.2726 z m 0,37.81516 v 18.86792 c 55.9187,0 121.0493,0.59523 193.5686,3.15628 72.9408,2.57593 146.0589,6.87694 222.9288,13.47675 119.09,10.22471 223.0762,23.76065 340.6056,39.2177 117.5025,15.4535 222.0471,29.0563 341.8507,39.3312 77.366,6.63525 151.0001,10.96128 224.4674,13.55245 73.0344,2.5759 138.631,3.17493 194.9247,3.17493 -55.9642,0 -122.2215,-1.36594 -194.8324,-5.25394 -73.2143,-3.92032 -146.9676,-10.0663 -223.8166,-18.88656 -118.8791,-13.6442 -223.3242,-31.02113 -339.8009,-50.57815 -116.4705,-19.55598 -221.1862,-36.99475 -340.3724,-50.69165 -77.0605,-8.8558 -150.9942,-15.0266 -224.3694,-18.96225 -72.7637,-3.90286 -139.1256,-5.27261 -195.1541,-5.27261 z m 0,37.81515 v 18.86793 c 55.9187,0 121.0493,0.59523 193.5686,3.15627 72.9408,2.57593 146.0589,6.87694 222.9288,13.47676 119.09,10.22471 223.0762,23.76065 340.6056,39.2177 117.5025,15.4535 222.0471,29.0563 341.8507,39.33119 77.366,6.63526 151.0001,10.96128 224.4674,13.55245 73.0344,2.5759 138.631,3.17494 194.9247,3.17494 -55.9642,0 -122.2215,-1.36595 -194.8324,-5.25395 -73.2143,-3.92031 -146.9676,-10.0663 -223.8166,-18.88656 -118.8791,-13.6442 -223.3242,-31.02112 -339.8009,-50.57815 -116.4705,-19.55598 -221.1862,-36.99475 -340.3724,-50.69165 -77.0605,-8.8558 -150.9942,-15.02659 -224.3694,-18.96225 -72.7637,-3.90286 -139.1256,-5.2726 -195.1541,-5.2726 z m 0,37.81516 v 18.86792 c 55.9187,0 121.0493,0.59523 193.5686,3.15628 72.9408,2.57593 146.0589,6.87694 222.9288,13.47675 119.09,10.22471 223.0762,23.76065 340.6056,39.2177 117.5025,15.4535 222.0471,29.0563 341.8507,39.3312 77.366,6.63525 151.0001,10.96128 224.4674,13.55245 73.0344,2.5759 138.631,3.17493 194.9247,3.17493 -55.9642,0 -122.2215,-1.36594 -194.8324,-5.25394 -73.2143,-3.92032 -146.9676,-10.0663 -223.8166,-18.88656 -118.8791,-13.6442 -223.3242,-31.02113 -339.8009,-50.57815 -116.4705,-19.55598 -221.1862,-36.99475 -340.3724,-50.69165 -77.0605,-8.8558 -150.9942,-15.0266 -224.3694,-18.96225 -72.7637,-3.90286 -139.1256,-5.27261 -195.1541,-5.27261 z m 0,37.81515 v 18.86793 c 55.9187,0 121.0493,0.59523 193.5686,3.15627 72.9408,2.57593 146.0589,6.87694 222.9288,13.47676 119.09,10.22471 223.0762,23.76065 340.6056,39.2177 117.5025,15.4535 222.0471,29.0563 341.8507,39.33119 77.366,6.63526 151.0001,10.96128 224.4674,13.55245 73.0344,2.5759 138.631,3.17494 194.9247,3.17494 -55.9642,0 -122.2215,-1.36595 -194.8324,-5.25395 -73.2143,-3.92031 -146.9676,-10.0663 -223.8166,-18.88656 -118.8791,-13.6442 -223.3242,-31.02112 -339.8009,-50.57815 -116.4705,-19.55598 -221.1862,-36.99475 -340.3724,-50.69165 -77.0605,-8.8558 -150.9942,-15.02659 -224.3694,-18.96225 -72.7637,-3.90286 -139.1256,-5.2726 -195.1541,-5.2726 z m 0,37.81516 v 18.86792 c 55.9187,0 121.0493,0.59523 193.5686,3.15628 72.9408,2.57593 146.0589,6.87694 222.9288,13.47675 119.09,10.22471 223.0762,23.76065 340.6056,39.2177 117.5025,15.4535 222.0471,29.0563 341.8507,39.3312 77.366,6.63525 151.0001,10.96128 224.4674,13.55245 73.0344,2.5759 138.631,3.17493 194.9247,3.17493 -55.9642,0 -122.2215,-1.36594 -194.8324,-5.25394 -73.2143,-3.92032 -146.9676,-10.0663 -223.8166,-18.88656 -118.8791,-13.6442 -223.3242,-31.02113 -339.8009,-50.57815 -116.4705,-19.55598 -221.1862,-36.99475 -340.3724,-50.69165 -77.0605,-8.8558 -150.9942,-15.0266 -224.3694,-18.96225 -72.7637,-3.90286 -139.1256,-5.27261 -195.1541,-5.27261 z"
         id="use26"
         transform="matrix(0.22300099,0,0,0.37823052,-402.85121,237.25945)" />
    </pattern>
    <clipPath
       clipPathUnits="userSpaceOnUse"
       id="clipPath54">
      <path
         id="path336"
         style="stroke-width:0.0999999;stroke-linecap:square;paint-order:markers fill stroke;stop-color:#000000"
         d="m 1691.1994,-792.32001 h 1634.8919 v 92.82806 H 1691.1994 Z" />
    </clipPath>
    <clipPath
       clipPathUnits="userSpaceOnUse"
       id="clipPath33">
      <rect
         style="fill:#000000;stroke:none;stroke-width:0.999995;stroke-linecap:butt;stroke-linejoin:bevel;paint-order:stroke markers fill;stop-color:#000000"
         id="rect33"
         width="46.19186"
         height="80.006783"
         x="74.999985"
         y="399.99661" />
    </clipPath>
    <clipPath
       clipPathUnits="userSpaceOnUse"
       id="clipPath27">
      <rect
         style="fill:none;stroke:#000000;stroke-width:0.999999;stroke-linecap:butt;stroke-linejoin:bevel;paint-order:stroke markers fill;stop-color:#000000"
         id="rect28-6"
         width="46.160622"
         height="39.922417"
         x="86.574379"
         y="420.06253" />
    </clipPath>
    <clipPath
       clipPathUnits="userSpaceOnUse"
       id="clipPath25">
      <rect
         style="fill:#ff0000;stroke:none;stroke-width:3;stroke-linecap:square;stroke-linejoin:miter;paint-order:stroke markers fill;stop-color:#000000"
         id="rect25-8"
         width="78"
         height="45.033199"
         x="763.61322"
         y="452.82422" />
    </clipPath>
    <clipPath
       clipPathUnits="userSpaceOnUse"
       id="clipPath15">
      <rect
         style="fill:none;stroke:#000000;stroke-linecap:butt;stroke-linejoin:bevel;paint-order:stroke markers fill;stop-color:#000000"
         id="rect15-7"
         width="45.034248"
         height="38.955639"
         x="262.48285"
         y="121.00073" />
    </clipPath>
    <linearGradient
       id="swatch75">
      <stop
         style="stop-color:#000000;stop-opacity:1;"
         offset="0"
         id="stop75" />
    </linearGradient>
  </defs>
  <g
     id="layer70"
     style="display:inline">
    <g
       id="layer77"
       style="display:inline">
      <path
         style="baseline-shift:baseline;display:inline;overflow:visible;opacity:1;vector-effect:none;fill-rule:evenodd;enable-background:accumulate;stop-color:#000000;stop-opacity:1"
         d="m 588.35547,387.62109 c -0.92019,0.0442 -1.36059,0.18164 -1.29102,0.18164 h -5.25586 c -0.80962,0 -3.07039,-0.41488 -6.67187,0.0996 -3.7425,0.53464 -6.35044,1.53342 -8.02149,1.95118 -1.8405,0.46013 -4.49104,0.88178 -7.74609,1.96679 -4.16837,1.38947 -6.19108,2.57727 -7.29883,2.99219 -1.14754,-0.17985 -3.4167,-0.58767 -6.7207,0.51367 -2.85387,0.9513 -4.30056,2.18946 -5.25195,3.06641 -1.13929,-0.1515 -2.86069,-0.37901 -5.49805,0.0605 -2.95852,0.49354 -4.64457,1.68387 -5.43555,2.19727 -0.78211,0.13536 -3.15942,0.29111 -7.14844,1.88672 -2.72126,1.08851 -3.96167,2.56292 -4.64062,3.4375 -1.07637,0.75742 -2.39991,1.58236 -4.20117,2.7832 -0.66461,0.44307 -3.44298,1.41759 -6.78125,4.75586 -1.92953,1.92952 -2.69186,3.48022 -3.17578,4.4961 -0.77808,0.19912 -2.59538,0.99736 -5.56836,2.85546 -3.43558,2.14724 -5.82468,4.32506 -7.70899,5.73829 -1.93516,1.45138 -4.64246,3.14638 -7.5957,5.73046 -3.70917,3.24553 -5.58676,5.86042 -6.67188,6.72852 -3.64241,2.91393 -5.72213,4.40955 -6.61914,4.99023 -0.40924,0.26493 -0.32025,0.25381 -0.18164,0.20508 -0.48721,0.16728 -2.8241,0.99369 -4.42187,2.06446 -1.72279,1.15454 -3.48091,2.58128 -6.5625,5.22265 -2.65813,2.27838 -4.42942,4.3884 -5.82031,5.7793 -2.69813,2.69812 -4.71479,5.00329 -6.44727,6.48828 1.00226,-0.85908 -2.1107,-0.34645 -6.3418,4.58984 -3.57857,4.17497 -5.0677,8.07208 -6.3457,10.3086 -1.01499,1.77623 -1.59686,3.15662 -2.01562,3.99414 -1.1683,2.33659 -2.33563,4.67319 -3.50391,7.00976 -4.85278,9.70557 -2.93016,5.4758 -7.35156,16.5293 -1.02288,2.55722 -2.46468,5.58737 -3.70703,9.31445 -1.02977,3.08931 -1.53955,5.80685 -2.02735,8.00196 -0.94041,4.23176 -1.10914,6.76827 -1.35351,7.41992 0.74826,-1.99539 -0.94673,-0.73567 -3.33204,4.83008 -2.76748,6.45748 -2.5625,11.74369 -2.5625,16.20507 v 5.25782 7.00976 1.75196 c 10e-6,-1.52399 -1.00439,0.36182 0.51368,4.91601 0.15436,0.46307 0.22319,0.50563 0.36523,0.88867 -0.063,1.1099 0.0174,1.97706 0.125,2.51563 0.32873,1.64535 0.61305,2.00468 0.79102,2.38086 0.35593,0.75236 0.49938,0.94323 0.65429,1.19726 0.61967,1.01615 1.25986,1.94936 2.73633,4.16407 1.90872,2.86307 3.34232,3.61575 3.00195,3.27539 1.32566,1.32566 3.09456,3.50978 5.92579,5.86914 1.37607,1.14673 2.43097,1.75138 3.27734,2.17773 0.10801,1.11739 0.91025,3.71345 3.40625,7.70703 2.59799,4.15679 6.30121,7.36375 9.27344,8.90821 2.97222,1.54445 4.2066,1.80564 6.17383,3.03515 1.88352,1.17721 3.81682,2.66694 5.80273,4.36914 2.57065,2.20342 3.17033,2.87422 3.38477,3.06641 0.57133,0.8404 1.09937,1.48204 1.58593,1.93555 0.57939,0.54003 1.09235,0.96989 2.06641,1.52539 0.48703,0.27774 1.05703,0.60677 2.23828,0.95117 0.73913,0.2155 1.93206,0.6037 3.63867,0.43945 0.49953,0.17281 0.82612,0.26985 1.44727,0.52149 0.10706,0.0744 0.23751,0.15689 0.5957,0.45703 0.92101,0.77173 2.67954,2.43419 5.91211,3.51172 5.6625,1.8875 8.77569,0.51367 8.41992,0.51367 2.90226,0 4.33553,0.0652 5.81446,0.0645 1.47892,-7e-4 4.64497,-0.44069 6.58789,-1.44336 1.94291,-1.00266 1.86276,-1.15025 2.85156,-1.71484 0.9888,-0.56459 2.79382,-1.50902 6.20898,-2.97266 7.19273,-3.08259 10.52669,-4.29305 11.41797,-4.57617 0.006,0.004 0.18554,0.13086 0.18555,0.13086 2.5e-4,-4e-5 2.30696,-0.66044 2.73047,-0.86524 1.69402,-0.81919 1.47537,-0.87224 1.71484,-1.05468 0.0204,-0.0156 0.0294,-0.0261 0.0488,-0.041 0.0391,-0.0273 0.45809,-0.3184 1.45117,-0.94531 2.05885,-1.29971 6.43494,-3.95986 15.06641,-8.95703 4.85852,-2.81283 10.26359,-5.52133 15.83203,-8.79688 5.45312,-3.20772 9.75854,-6.47981 13.65625,-8.55859 1.85017,-0.98676 6.91871,-1.63396 13.10742,-5.75977 6.81837,-4.54558 8.6399,-8.68206 8.58398,-8.64648 -0.32014,0.20373 0.25129,-0.11006 1.9961,-0.49414 1.74481,-0.38408 4.60647,-0.81653 8.00586,-2.70508 3.09618,-1.7201 5.06744,-2.77259 7.33984,-5.27539 1.10583,-1.21794 2.3238,-3.13569 2.85742,-5.38477 1.31673,-0.29033 2.94532,-0.8335 4.9668,-2.34961 2.82827,-2.12122 3.73157,-4.45651 4.19141,-5.78515 0.16643,-0.17402 0.13945,-0.15703 0.38281,-0.40039 -0.90653,0.90652 1.3719,0.15849 3.62695,-4.35156 1.8434,-3.68682 2.04754,-5.90497 2.0918,-6.01563 0.51937,-1.29842 0.71657,-1.61419 0.55469,-1.35156 0.57619,-0.59365 1.03972,-0.91817 1.45312,-1.51563 0.95382,-1.37846 1.77056,-2.85753 2.91016,-5.13672 2.66119,-5.3224 4.3298,-10.92103 5.79883,-15.32812 1.11927,-3.35782 2.39851,-6.90896 3.57617,-10.73633 1.63119,-5.30138 2.15875,-9.13564 3.02734,-11.01758 0.30426,-0.65921 1.44647,-1.89945 2.90039,-3.83593 -0.76941,5.55419 -1.74797,11.30952 -2.60937,17.55468 -1.202,8.71446 -2.47787,17.53062 -3.53125,26.48438 -2.12254,18.0416 -3.17693,26.77525 -3.64453,30.99609 -0.1169,1.05521 -0.19681,1.82479 -0.25391,2.47656 -0.0571,0.65178 -0.22499,0.57464 -0.0469,2.63868 0.0445,0.516 -0.0543,1.12221 0.73047,3.02343 0.10121,0.2452 0.31994,0.61025 0.47266,0.92188 0.0146,3.75299 -0.11473,10.3417 -0.81641,23.67383 -0.60312,11.45955 -2.81367,23.65128 -3.50586,36.80273 -0.55877,10.61656 -0.0137,20.73634 -0.0137,30.31641 0,10.64313 -2.02338,23.01344 0.12305,36.60742 2.19899,13.92692 8.95213,23.7763 10.58594,31.94531 6.06587,30.32939 1.67205,39.93683 3.32422,72.1543 0.6233,12.15441 2.89202,23.19589 3.50976,33.38867 0.44594,7.35792 -0.0176,15.34836 -0.0176,23.92969 v 21.02929 17.52344 c 0,4.81231 0.3679,7.68004 0.19336,8.55274 0.30963,-1.54812 -1.03397,0.0516 -3.0625,5.46093 -0.66078,1.76211 -1.09979,3.38481 -1.43945,4.8711 -0.85178,0.35863 -1.65651,0.8447 -2.42969,1.45508 -0.5977,0.17578 -1.10047,0.18109 -1.7539,0.50781 -0.45897,0.22948 -0.58562,0.45663 -0.95899,0.69531 H 630.875 c -1.361,0 -1.98757,-0.0191 -2.25195,-0.0137 0.36152,0.0443 -0.39123,-0.23913 -3.34766,-1.22461 -3.6394,-1.21314 -7.10036,-2.28836 -10.3125,-3.43555 -3.99752,-1.42768 -8.7066,-3.76075 -14.63672,-5.45508 -4.79782,-1.3708 -8.72273,-1.53827 -11.48047,-1.98437 -5.52001,-1.21063 -10.53571,-2.0182 -14.73047,-3.25195 -3.29747,-0.96984 -7.76202,-3.52048 -14.16406,-5.29883 h -0.002 c -12.40683,-3.44634 -21.91561,-3.59821 -30.85547,-6.79102 -4.33944,-1.5498 -5.69024,-2.31838 -7.23828,-3.38476 -1.54804,-1.06639 -3.76517,-2.9987 -7.91602,-5.9043 -3.43948,-2.40764 -7.07732,-4.97686 -11.10351,-7.39258 -3.36499,-2.019 -5.96879,-2.93296 -7.29883,-3.67187 -3.41146,-1.89525 -12.83273,-8.11984 -13.55664,-8.84375 0.21157,0.21156 -0.81586,-3.08545 -5.68555,-7.41407 -4.88748,-4.34441 -9.18959,-6.00596 -11.01758,-7.42773 -0.65084,-0.50621 -1.98904,-2.09842 -4.32617,-4.43555 -1.816,-1.816 -4.10391,-4.76398 -7.83398,-7.74804 -5.94352,-4.75481 -8.5061,-6.73448 -11.19141,-8.26172 -0.22401,-0.1274 -0.74196,-0.28876 -0.99023,-0.42383 -1.36904,-1.40365 -2.47518,-2.55134 -6.27149,-6.34766 -6.42558,-6.42558 -12.84979,-12.85175 -19.27539,-19.27734 -1.75242,-1.75242 -3.50539,-3.50539 -5.25781,-5.25781 -0.58411,-0.5841 -1.1678,-1.16781 -1.75195,-1.75196 -2.07485,-2.07484 -1.39702,-2.18461 0.11914,0.84766 h 0.002 c 0.52681,1.05362 0.69619,1.94279 0.80273,2.71875 h -19.74804 c 0,-1.19864 0.0693,-1.17849 -0.0391,-0.18359 -0.10837,0.99489 -0.36823,3.48032 1.09571,6.4082 2.25505,4.51005 4.53156,5.25812 3.625,4.35156 0.58415,0.58415 1.16776,1.16778 1.75195,1.75196 1.75244,1.75245 3.50536,3.50536 5.25781,5.25781 6.42559,6.42558 12.85175,12.85175 19.27735,19.27734 5.1829,5.1829 7.47952,7.55133 8.41797,8.52344 0.23461,0.24303 0.37247,0.38616 0.52148,0.53906 0.0745,0.0764 0.0767,0.0916 0.41211,0.40625 0.0839,0.0786 0.18479,0.17656 0.43359,0.38477 0.12441,0.1041 0.28097,0.23398 0.58008,0.44922 0.29911,0.21524 1.88817,1.07009 1.88867,1.07031 4e-5,10e-6 0.68846,-0.18162 0.78516,-0.20703 0.79647,0.55857 2.38635,1.60244 7.06055,5.34179 1.43054,1.14444 3.32839,3.41629 6.18554,6.27344 1.16773,1.16773 2.92778,3.54322 6.18946,6.08008 4.82203,3.75047 8.60058,5.33724 10.00976,6.58984 -0.50375,-0.44777 0.48797,2.26534 4.83008,6.60743 5.86167,5.86168 13.88927,9.90745 17.98633,12.18359 3.2372,1.79845 5.60747,2.66877 6.72265,3.33789 3.19789,1.91873 6.46158,4.20533 9.92383,6.62891 3.39637,2.37746 5.12231,3.97904 8.03907,5.98828 2.91675,2.00923 6.5546,3.85614 11.85742,5.75 12.46086,4.45031 22.64553,4.56603 32.23047,7.22851 3.21566,0.89325 7.59425,3.36815 13.87304,5.21485 6.02798,1.77293 11.60667,2.60291 16.42578,3.67382 l 0.25977,0.0586 0.26562,0.043 c 4.24735,0.70788 7.44119,0.94134 9.41016,1.5039 3.66769,1.04792 8.00148,3.12902 13.4043,5.0586 3.74632,1.33797 7.34452,2.45273 10.71484,3.57617 2.90753,0.96917 2.89408,1.26586 5.60742,1.91211 2.71335,0.64624 3.87046,0.35156 6.31641,0.35156 h 5.25781 c -1.19867,0 -1.17849,-0.0674 -0.18359,0.041 0.99489,0.10837 3.48025,0.3683 6.4082,-1.09571 0.47516,-0.23757 0.60861,-0.47348 0.99219,-0.7207 1.67959,-0.0781 3.54124,-0.52035 5.5918,-2.00195 1.642,-0.45436 3.37853,-1.25746 4.77734,-2.65625 0.30513,-0.30514 0.49503,-0.6699 0.74609,-1.00586 0.33596,-0.25107 0.70073,-0.44096 1.00586,-0.7461 1.94955,-1.94954 2.92501,-4.88316 3.06055,-6.6914 0.0491,-0.65499 -0.0549,-0.72696 -0.084,-1.17578 0.37652,-1.83079 0.72209,-3.5317 1.06835,-4.45508 -0.19398,0.5173 2.61299,-1.88718 3.94727,-8.5586 1.20018,-6.0009 0.19531,-10.27913 0.19531,-12.47656 v -17.52344 -21.02929 c 0,-7.77473 0.524,-16.17246 -0.0195,-25.14063 -0.73251,-12.08645 -2.98018,-23.06669 -3.5,-33.20312 -1.54343,-30.09703 2.90342,-42.10595 -3.68555,-75.05078 -2.71345,-13.56725 -9.18321,-23.17404 -10.4414,-31.14258 -1.49777,-9.48586 0.12109,-20.76564 0.12109,-33.48828 0,-10.28086 -0.49878,-20.04872 -0.0137,-29.26563 0.60314,-11.45955 2.81369,-23.64932 3.50586,-36.80078 0.88464,-16.80842 1.05667,-24.49221 0.83594,-28.9043 -0.0552,-1.10302 -0.10762,-1.97855 -0.34571,-3.20703 -0.0689,-0.35559 -0.29227,-0.95325 -0.43945,-1.4414 0.48583,-4.29369 1.40905,-11.98279 3.39844,-28.89258 1.0123,-8.60456 2.26679,-17.28875 3.48047,-26.08789 1.06346,-7.71008 2.83911,-16.01234 3.5664,-25.10352 0.5972,-7.465 0.0312,-14.18026 0.0312,-20.07422 v -17.52539 c 0,-0.2946 2.4109,-5.18902 -0.80859,-12.70117 -0.51886,-1.21067 -1.11363,-2.154 -1.68164,-3.20703 -10e-4,-0.004 -0.002,-0.008 -0.004,-0.0117 1.3007,-4.57459 -0.33631,-6.05354 -0.79492,-6.97266 -0.50075,-1.00358 -0.85956,-1.4749 -1.20117,-1.93945 -0.68322,-0.9291 -1.31536,-1.64351 -2.13477,-2.53906 -1.7159,-1.87536 -4.38073,-4.54603 -8.06054,-8.07617 -0.53308,-1.03399 -1.2781,-2.19358 -3.08008,-3.71289 -0.66747,-0.56277 -1.5886,-1.16634 -2.67578,-1.66211 -2.38649,-2.23396 -4.20954,-3.98765 -7.33594,-6.85352 -4.89008,-4.48256 -8.77876,-4.80159 -8.80469,-4.8164 -2.72533,-1.55734 -2.92336,-1.90356 -4.80273,-3.25196 -1.87937,-1.3484 -4.65821,-2.8435 -8.91406,-4.43945 -4.10399,-1.539 -6.03112,-2.26093 -7.73047,-2.77539 -0.42484,-0.12862 -0.81221,-0.25503 -1.61719,-0.4043 -0.40249,-0.0746 -0.88826,-0.17518 -1.88086,-0.18359 -0.60878,-0.005 -1.55289,-0.0921 -2.88672,0.31054 -0.86801,-0.28992 -1.67887,-0.58889 -3.20703,-0.89453 -1.85484,-0.37096 -3.25559,-0.41919 -4.17578,-0.375 z m -10.39063,20.08008 c -0.13184,0.0188 1.14852,0.10156 3.84375,0.10156 h 5.25586 c 1.03318,0 1.51687,0.0103 1.86328,0.008 0.23055,0.22481 1.53539,0.87036 4.9375,1.55078 1.48618,0.29723 2.61699,0.4987 4.06836,0.57226 0.63015,0.0319 1.43822,0.008 2.48633,-0.13867 0.98806,0.3594 0.91806,0.31547 2.41016,0.875 3.44697,1.29262 3.56664,1.45298 4.27734,1.96289 0.7107,0.50991 2.7954,2.22684 6.54102,4.36719 4.51041,2.57738 6.25153,3.14544 5.21289,2.19336 2.61408,2.39624 4.0176,3.76032 6.0957,5.70312 0.63733,1.75573 1.29841,2.72292 1.91211,3.57813 1.36269,1.89896 2.76352,3.34171 4.31445,4.86914 0.16701,0.16447 0.33165,0.26255 0.5,0.42578 1.74657,3.15389 3.55694,5.78747 5.14258,7.81836 -0.42869,2.29756 -0.28732,3.77172 -0.15234,4.73242 -0.3901,0.38194 -1.42976,1.89475 -2.89453,5.80078 -1.37727,3.67272 -1.6893,6.49352 -2.08985,8.09571 -2.03533,8.14133 -2.6299,11.73833 -6.25195,18.98242 h -0.002 c -0.68127,1.36255 -4.16777,4.34722 -7.14453,10.79687 -2.69562,5.8405 -3.11234,10.68785 -3.98243,13.51563 -0.99532,3.23481 -2.21629,6.64107 -3.43359,10.29297 -1.56437,4.69313 -3.18514,9.65152 -4.71484,12.71093 -0.89435,1.78869 -1.39778,2.5782 -1.43164,2.63086 -0.75342,0.74709 -1.62365,1.68023 -2.08594,2.44336 -0.90504,1.49401 -1.34869,2.61685 -2.08008,4.44532 -0.9993,2.49826 -1.00567,2.95904 -1.0625,3.38671 -0.14234,0.15267 -0.0439,0.0811 -0.22852,0.26563 0.34037,-0.34037 -1.09323,0.41427 -3.00195,3.27734 -0.15345,0.23018 -0.15773,0.33525 -0.28711,0.54883 -1.30468,0.3703 -2.89147,1.04014 -4.65039,2.44727 -2.68849,2.15079 -4.77754,3.95692 -6.29883,7.42383 -0.24304,0.55388 -0.33723,1.17082 -0.46875,1.77343 -0.25148,0.15275 -0.3003,0.21437 -0.60351,0.38282 0.16986,-0.0944 -0.66591,0.23426 -2.5918,0.6582 -1.92589,0.42394 -4.99853,0.96515 -8.43555,3.15234 -7.02543,4.47074 -8.88422,8.84209 -8.93945,8.87891 -1.21439,0.80959 -5.42529,1.55364 -11.42578,4.7539 -5.82725,3.10787 -10.33799,6.58634 -14.38477,8.9668 -4.79914,2.82302 -10.15987,5.51279 -15.71093,8.72656 -8.75611,5.06933 -13.27893,7.81084 -15.72266,9.35352 -0.23622,0.14912 -0.27748,0.18701 -0.47656,0.31445 -0.19707,0.0563 -0.4272,0.0999 -0.62891,0.16211 -2.48819,0.76738 -6.04042,2.14539 -13.64453,5.4043 -3.93746,1.68748 -6.47569,2.97629 -8.24805,3.98828 -0.69196,0.3951 -0.38636,0.24949 -0.82226,0.51172 -0.95701,-0.0174 -2.03543,-0.0508 -4.51563,-0.0508 -1.31297,0 -1.72584,-0.0135 -2.29297,-0.0234 -0.84992,-0.7346 -2.06203,-1.7219 -4.2832,-2.67383 -2.82503,-1.21072 -4.61053,-1.90591 -6.53125,-2.41406 -0.98914,-0.9208 -1.46718,-1.53995 -3.16602,-2.99609 -2.44925,-2.09936 -5.14678,-4.22578 -8.21679,-6.14454 -3.83355,-2.39596 -6.80531,-3.43192 -7.55274,-3.82031 -0.74743,-0.38838 -0.27847,0.24898 -1.53515,-1.76172 0.42829,0.68527 0.50236,-3.18537 -3.84766,-9.27539 -2.18325,-3.05656 -4.73682,-4.29672 -6.04297,-4.96875 -1.30614,-0.67202 -1.60657,-0.95209 -0.94922,-0.40429 -0.97655,-0.8138 -2.40867,-2.46727 -4.58789,-4.64649 -0.35319,-0.35319 -0.36332,-0.37453 -0.55664,-0.58008 -0.16564,-0.87472 -0.30651,-1.84141 -0.5332,-2.52148 -0.5242,-1.57258 -0.90472,-2.35051 -1.24024,-3.01953 v -0.82813 -7.00976 -5.25782 c 0,-5.58907 -0.64212,-4.62215 0.94532,-8.32617 -0.72601,1.69403 1.44847,0.25399 3.67578,-5.68554 1.84733,-4.92617 1.80045,-8.52198 2.15234,-10.10547 0.55715,-2.50717 0.98307,-4.53515 1.47656,-6.01563 0.74717,-2.24149 1.98906,-4.92671 3.30274,-8.21094 4.52876,-11.32188 1.69936,-5.07253 6.66992,-15.01367 1.1683,-2.33659 2.33562,-4.67319 3.50391,-7.00976 0.74954,-1.49907 1.20912,-2.52368 1.49023,-3.01563 1.85369,-3.24397 2.84119,-5.16746 3.67578,-6.36328 0.12815,0.2609 1.66363,-0.69969 4.66407,-3.27148 3.28532,-2.816 5.59918,-5.55622 7.57421,-7.53125 2.11397,-2.11398 3.58813,-3.78899 4.69336,-4.73633 2.84887,-2.44188 4.36309,-3.58144 4.68164,-3.79492 0.31856,-0.21349 -1.76906,0.64657 -0.90234,0.40039 0.86672,-0.24619 3.28888,-1.23218 5.23828,-2.49414 1.9494,-1.26196 4.34793,-3.04358 8.2461,-6.16211 4.07552,-3.26043 6.08316,-6.18654 7.34765,-7.29297 1.4429,-1.26254 3.68781,-2.72971 6.42578,-4.7832 2.78886,-2.09164 4.79063,-3.82862 6.3086,-4.77735 -0.15992,0.1 3.28047,-0.27702 8.11132,-4.30273 2.75961,-2.29967 3.764,-4.64369 4.31446,-5.72657 0.12005,-0.23616 0.12235,-0.2185 0.19922,-0.34765 -0.0604,0.1474 0.81272,-0.32763 3.39453,-2.04883 1.44472,-0.96315 3.43238,-2.11873 5.70898,-3.82617 h 0.002 c 0.35599,-0.26701 0.44571,-0.42672 0.7207,-0.66797 1.03462,-0.16731 2.59039,-0.4787 5.20312,-1.34961 1.20918,-0.40306 2.09222,-0.84362 2.73243,-1.21484 0.0878,0.008 -0.0406,0.003 0.0586,0.0137 1.35749,0.14711 3.90564,0.54843 7.30859,-0.42383 2.93517,-0.83862 4.48688,-2.09279 5.54297,-3.0332 1.13101,0.11173 2.58292,0.13161 4.64844,-0.38477 5.17731,-1.29433 8.11492,-3.25705 9.5,-3.71875 1.31473,-0.43824 3.44078,-0.83089 6.27344,-1.53906 3.00211,-0.75052 4.97198,-1.40811 5.99804,-1.55469 z M 584.25,559.93164 c 0.0639,0.63412 0.14716,1.62605 0.12305,1.51758 -0.0237,-0.10679 -0.1025,-0.72285 -0.12305,-1.51758 z m 17.59961,2.80469 c -0.42447,0.14303 -0.51015,0.0849 -0.0391,0.008 0.007,-10e-4 0.032,-0.007 0.0391,-0.008 z m -179.54688,0.55078 c 0.87563,0.33171 1.18046,0.68674 1.46289,1 -0.19212,-0.14784 -0.33418,-0.27782 -0.89257,-0.5957 -0.11787,-0.0671 -0.43087,-0.26916 -0.57032,-0.4043 z m -10.67382,16.85547 c 0.0263,0.0226 0.24613,0.18539 0.29882,0.23242 -0.008,-0.006 -0.0414,-0.0275 -0.0488,-0.0332 -0.33048,-0.2546 -0.30954,-0.25039 -0.25,-0.19922 z m 92.25195,21.83398 c -0.10508,0.0751 -0.23468,0.17176 -0.43359,0.33985 0.10943,-0.0927 0.20741,-0.17915 0.35937,-0.29493 0.01,-0.008 0.0657,-0.0377 0.0742,-0.0449 z m -0.6582,0.52344 c -0.15356,0.13004 -0.22967,0.11453 -0.98438,1.00195 -0.12547,0.14754 -0.35437,0.48057 -0.57812,0.79688 0.61873,-0.95211 1.15853,-1.45729 1.5625,-1.79883 z m -1.93946,2.54687 c -0.0929,0.49879 -0.90573,4.86215 -1.11914,6.00977 -0.20299,-1.8164 0.002,-3.48995 0.34766,-4.48047 0.29796,-0.85402 0.51368,-1.02954 0.77148,-1.5293 z m 18.38086,3.0918 c 8e-5,5e-5 0.0215,0.0137 0.0215,0.0137 0,0 -0.01,0.0501 -0.01,0.0508 -0.003,-0.0215 -0.008,-0.0429 -0.0117,-0.0644 z m -19.33008,3.89258 c 0.57592,0.40415 10.45879,7.33667 10.90625,7.65039 -0.34349,0.11968 -0.85271,0.4209 -3.36914,-0.0977 -1.40305,-0.28912 -4.1701,-1.10434 -6.24414,-4.21875 -0.70743,-1.06228 -1.06264,-2.20369 -1.29297,-3.33398 z m 18.04883,3.12891 c -2.1e-4,10e-4 -0.0117,0.0644 -0.0117,0.0644 2e-5,-3e-5 -0.0624,0.0844 -0.0703,0.0957 0.0259,-0.0422 0.0557,-0.11526 0.082,-0.16015 z m -72.54883,225.95507 c 0.64382,0.98495 1.18826,2.5479 -0.53906,6.72461 -0.0247,0.0597 -0.0807,0.11068 -0.10742,0.16993 0.42837,-2.79557 0.95326,-6.22814 0.95312,-6.22852 -8e-5,-2.5e-4 -0.17673,-0.37562 -0.30664,-0.66602 z m -4.23046,10.91797 c -1.33804,0.93829 -2.75244,1.61538 -3.82813,1.79492 -1.49649,0.24978 -2.38636,0.16268 -3.08984,0.0254 1.86091,-0.48934 4.25966,-1.12107 6.91797,-1.82032 z m 216.69335,76.98047 c 0.058,-0.0437 0.0508,0.62858 0.0664,1.29883 -0.0405,-0.20961 -0.0347,-0.75223 -0.0625,-0.88477 -0.0509,-0.24313 -0.0395,-0.38725 -0.004,-0.41406 z m -27.19726,1.2207 c -0.102,0.15355 -0.35908,0.4676 -0.4043,0.5293 -0.13,0.17739 -0.0282,-0.0789 0.4043,-0.5293 z m 15.72851,12.35157 c 0.13012,-0.17755 0.0273,0.0821 -0.40625,0.5332 0.10294,-0.15486 0.36078,-0.47115 0.40625,-0.5332 z"
         id="path438" />
    </g>
  </g>
</svg>
