<?xml version="1.0" encoding="UTF-8" standalone="no"?>
<!-- Created with Inkscape (http://www.inkscape.org/) -->

<svg
   width="1000"
   height="1000"
   viewBox="0 0 1000 1000"
   version="1.1"
   id="svg1"
   xmlns:xlink="http://www.w3.org/1999/xlink"
   xmlns="http://www.w3.org/2000/svg"
   xmlns:svg="http://www.w3.org/2000/svg">
  <defs
     id="defs1">
    <pattern
       xlink:href="#pattern359"
       preserveAspectRatio="xMidYMid"
       id="pattern372"
       patternTransform="matrix(0.5,0,0,0.5,147.15462,1548.2922)" />
    <pattern
       xlink:href="#pattern357"
       preserveAspectRatio="xMidYMid"
       id="pattern371"
       patternTransform="matrix(0.5,0,0,0.5,221.32076,1552.4298)" />
    <pattern
       xlink:href="#pattern358"
       preserveAspectRatio="xMidYMid"
       id="pattern370"
       patternTransform="matrix(0.5,0,0,0.5,230.96346,1527.8214)" />
    <pattern
       xlink:href="#pattern355"
       preserveAspectRatio="xMidYMid"
       id="pattern369"
       patternTransform="matrix(0.5,0,0,0.5,287.08178,1553.6581)" />
    <pattern
       xlink:href="#pattern354"
       preserveAspectRatio="xMidYMid"
       id="pattern368"
       patternTransform="matrix(0.5,0,0,0.5,230.97274,1529.1717)" />
    <pattern
       xlink:href="#pattern342"
       preserveAspectRatio="xMidYMid"
       id="pattern360"
       patternTransform="matrix(0.5,0,0,0.5,210.45332,1525.5392)" />
    <pattern
       xlink:href="#pattern342"
       preserveAspectRatio="xMidYMid"
       id="pattern359"
       patternTransform="matrix(0.5,0,0,0.5,152.11125,1550.7705)" />
    <pattern
       xlink:href="#pattern342"
       preserveAspectRatio="xMidYMid"
       id="pattern358"
       patternTransform="matrix(0.5,0,0,0.5,202.11125,1533.2444)" />
    <pattern
       xlink:href="#pattern342"
       preserveAspectRatio="xMidYMid"
       id="pattern357"
       patternTransform="matrix(0.5,0,0,0.5,211.4075,1546.234)" />
    <pattern
       xlink:href="#pattern342"
       preserveAspectRatio="xMidYMid"
       id="pattern356"
       patternTransform="matrix(0.5,0,0,0.5,232.14929,1573.2544)" />
    <pattern
       xlink:href="#pattern342"
       preserveAspectRatio="xMidYMid"
       id="pattern355"
       patternTransform="matrix(0.5,0,0,0.5,275,1552.7287)" />
    <pattern
       xlink:href="#pattern342"
       preserveAspectRatio="xMidYMid"
       id="pattern354"
       patternTransform="matrix(0.5,0,0,0.5,235,1529.7913)" />
    <pattern
       xlink:href="#shading24"
       preserveAspectRatio="xMidYMid"
       id="pattern342"
       patternTransform="matrix(0.5,0,0,0.5,213.95332,1537.5392)"
       x="0"
       y="0" />
    <pattern
       patternUnits="userSpaceOnUse"
       width="338.5925"
       height="42.989567"
       patternTransform="translate(213.95332,1537.5392) scale(0.5)"
       preserveAspectRatio="xMidYMid"
       id="shading24"
       style="fill:#000000">
      <path
         style="fill-rule:nonzero;stroke:none;stroke-width:0.1;stroke-linecap:square;paint-order:markers fill stroke;stop-color:#000000"
         d="m 1806.4991,-758.06464 v 18.86792 c 55.9187,0 121.0493,0.59523 193.5686,3.15628 72.9408,2.57593 146.0589,6.87694 222.9288,13.47675 119.09,10.22471 223.0762,23.76065 340.6056,39.2177 117.5025,15.4535 222.0471,29.0563 341.8507,39.3312 77.366,6.63525 151.0001,10.96128 224.4674,13.55245 73.0344,2.5759 138.631,3.17493 194.9247,3.17493 -55.9642,0 -122.2215,-1.36594 -194.8324,-5.25394 -73.2143,-3.92032 -146.9676,-10.0663 -223.8166,-18.88656 -118.8791,-13.6442 -223.3242,-31.02113 -339.8009,-50.57815 -116.4705,-19.55598 -221.1862,-36.99475 -340.3724,-50.69165 -77.0605,-8.8558 -150.9942,-15.0266 -224.3694,-18.96225 -72.7637,-3.90286 -139.1256,-5.27261 -195.1541,-5.27261 z m 0,37.81515 v 18.86793 c 55.9187,0 121.0493,0.59523 193.5686,3.15627 72.9408,2.57593 146.0589,6.87694 222.9288,13.47676 119.09,10.22471 223.0762,23.76065 340.6056,39.2177 117.5025,15.4535 222.0471,29.0563 341.8507,39.33119 77.366,6.63526 151.0001,10.96128 224.4674,13.55245 73.0344,2.5759 138.631,3.17493 194.9247,3.17493 -55.9642,0 -122.2215,-1.36594 -194.8324,-5.25394 -73.2143,-3.92031 -146.9676,-10.0663 -223.8166,-18.88656 -118.8791,-13.6442 -223.3242,-31.02112 -339.8009,-50.57815 -116.4705,-19.55598 -221.1862,-36.99475 -340.3724,-50.69165 -77.0605,-8.8558 -150.9942,-15.02659 -224.3694,-18.96225 -72.7637,-3.90286 -139.1256,-5.2726 -195.1541,-5.2726 z m 0,37.81516 v 18.86792 c 55.9187,0 121.0493,0.59523 193.5686,3.15628 72.9408,2.57593 146.0589,6.87694 222.9288,13.47675 119.09,10.22471 223.0762,23.76065 340.6056,39.2177 117.5025,15.4535 222.0471,29.0563 341.8507,39.3312 77.366,6.63525 151.0001,10.96128 224.4674,13.55245 73.0344,2.5759 138.631,3.17493 194.9247,3.17493 -55.9642,0 -122.2215,-1.36594 -194.8324,-5.25394 -73.2143,-3.92032 -146.9676,-10.0663 -223.8166,-18.88656 -118.8791,-13.6442 -223.3242,-31.02113 -339.8009,-50.57815 -116.4705,-19.55598 -221.1862,-36.99475 -340.3724,-50.69165 -77.0605,-8.8558 -150.9942,-15.0266 -224.3694,-18.96225 -72.7637,-3.90286 -139.1256,-5.27261 -195.1541,-5.27261 z m 0,37.81515 v 18.86793 c 55.9187,0 121.0493,0.59523 193.5686,3.15627 72.9408,2.57593 146.0589,6.87694 222.9288,13.47676 119.09,10.22471 223.0762,23.76065 340.6056,39.2177 117.5025,15.4535 222.0471,29.0563 341.8507,39.33119 77.366,6.63526 151.0001,10.96128 224.4674,13.55245 73.0344,2.5759 138.631,3.17494 194.9247,3.17494 -55.9642,0 -122.2215,-1.36595 -194.8324,-5.25395 -73.2143,-3.92031 -146.9676,-10.0663 -223.8166,-18.88656 -118.8791,-13.6442 -223.3242,-31.02112 -339.8009,-50.57815 -116.4705,-19.55598 -221.1862,-36.99475 -340.3724,-50.69165 -77.0605,-8.8558 -150.9942,-15.02659 -224.3694,-18.96225 -72.7637,-3.90286 -139.1256,-5.2726 -195.1541,-5.2726 z m 0,37.81516 v 18.86792 c 55.9187,0 121.0493,0.59523 193.5686,3.15628 72.9408,2.57593 146.0589,6.87694 222.9288,13.47675 119.09,10.22471 223.0762,23.76065 340.6056,39.2177 117.5025,15.4535 222.0471,29.0563 341.8507,39.3312 77.366,6.63525 151.0001,10.96128 224.4674,13.55245 73.0344,2.5759 138.631,3.17493 194.9247,3.17493 -55.9642,0 -122.2215,-1.36594 -194.8324,-5.25394 -73.2143,-3.92032 -146.9676,-10.0663 -223.8166,-18.88656 -118.8791,-13.6442 -223.3242,-31.02113 -339.8009,-50.57815 -116.4705,-19.55598 -221.1862,-36.99475 -340.3724,-50.69165 -77.0605,-8.8558 -150.9942,-15.0266 -224.3694,-18.96225 -72.7637,-3.90286 -139.1256,-5.27261 -195.1541,-5.27261 z m 0,37.81515 v 18.86793 c 55.9187,0 121.0493,0.59523 193.5686,3.15627 72.9408,2.57593 146.0589,6.87694 222.9288,13.47676 119.09,10.22471 223.0762,23.76065 340.6056,39.2177 117.5025,15.4535 222.0471,29.0563 341.8507,39.33119 77.366,6.63526 151.0001,10.96128 224.4674,13.55245 73.0344,2.5759 138.631,3.17494 194.9247,3.17494 -55.9642,0 -122.2215,-1.36595 -194.8324,-5.25395 -73.2143,-3.92031 -146.9676,-10.0663 -223.8166,-18.88656 -118.8791,-13.6442 -223.3242,-31.02112 -339.8009,-50.57815 -116.4705,-19.55598 -221.1862,-36.99475 -340.3724,-50.69165 -77.0605,-8.8558 -150.9942,-15.02659 -224.3694,-18.96225 -72.7637,-3.90286 -139.1256,-5.2726 -195.1541,-5.2726 z m 0,37.81516 v 18.86792 c 55.9187,0 121.0493,0.59523 193.5686,3.15628 72.9408,2.57593 146.0589,6.87694 222.9288,13.47675 119.09,10.22471 223.0762,23.76065 340.6056,39.2177 117.5025,15.4535 222.0471,29.0563 341.8507,39.3312 77.366,6.63525 151.0001,10.96128 224.4674,13.55245 73.0344,2.5759 138.631,3.17493 194.9247,3.17493 -55.9642,0 -122.2215,-1.36594 -194.8324,-5.25394 -73.2143,-3.92032 -146.9676,-10.0663 -223.8166,-18.88656 -118.8791,-13.6442 -223.3242,-31.02113 -339.8009,-50.57815 -116.4705,-19.55598 -221.1862,-36.99475 -340.3724,-50.69165 -77.0605,-8.8558 -150.9942,-15.0266 -224.3694,-18.96225 -72.7637,-3.90286 -139.1256,-5.27261 -195.1541,-5.27261 z"
         id="use26"
         transform="matrix(0.22300099,0,0,0.37823052,-402.85121,237.25945)" />
    </pattern>
    <clipPath
       clipPathUnits="userSpaceOnUse"
       id="clipPath54">
      <path
         id="path336"
         style="stroke-width:0.0999999;stroke-linecap:square;paint-order:markers fill stroke;stop-color:#000000"
         d="m 1691.1994,-792.32001 h 1634.8919 v 92.82806 H 1691.1994 Z" />
    </clipPath>
    <clipPath
       clipPathUnits="userSpaceOnUse"
       id="clipPath33">
      <rect
         style="fill:#000000;stroke:none;stroke-width:0.999995;stroke-linecap:butt;stroke-linejoin:bevel;paint-order:stroke markers fill;stop-color:#000000"
         id="rect33"
         width="46.19186"
         height="80.006783"
         x="74.999985"
         y="399.99661" />
    </clipPath>
    <clipPath
       clipPathUnits="userSpaceOnUse"
       id="clipPath27">
      <rect
         style="fill:none;stroke:#000000;stroke-width:0.999999;stroke-linecap:butt;stroke-linejoin:bevel;paint-order:stroke markers fill;stop-color:#000000"
         id="rect28-6"
         width="46.160622"
         height="39.922417"
         x="86.574379"
         y="420.06253" />
    </clipPath>
    <clipPath
       clipPathUnits="userSpaceOnUse"
       id="clipPath25">
      <rect
         style="fill:#ff0000;stroke:none;stroke-width:3;stroke-linecap:square;stroke-linejoin:miter;paint-order:stroke markers fill;stop-color:#000000"
         id="rect25-8"
         width="78"
         height="45.033199"
         x="763.61322"
         y="452.82422" />
    </clipPath>
    <clipPath
       clipPathUnits="userSpaceOnUse"
       id="clipPath15">
      <rect
         style="fill:none;stroke:#000000;stroke-linecap:butt;stroke-linejoin:bevel;paint-order:stroke markers fill;stop-color:#000000"
         id="rect15-7"
         width="45.034248"
         height="38.955639"
         x="262.48285"
         y="121.00073" />
    </clipPath>
    <linearGradient
       id="swatch75">
      <stop
         style="stop-color:#000000;stop-opacity:1;"
         offset="0"
         id="stop75" />
    </linearGradient>
  </defs>
  <g
     id="layer70"
     style="display:inline">
    <g
       id="layer78"
       style="display:inline">
      <path
         style="baseline-shift:baseline;display:inline;overflow:visible;opacity:1;vector-effect:none;fill-rule:evenodd;enable-background:accumulate;stop-color:#000000;stop-opacity:1"
         d="m 484.38086,227.60742 c -0.80504,4.02526 -1.02073,6.45546 -1.28125,7.13281 -1.15007,2.99018 -4.52153,7.26601 -7.05859,14.15235 -2.79795,7.59437 -3.7291,14.43819 -5.4043,19.70312 -1.82623,5.73958 -4.68984,11.98422 -7.00977,19.27539 -2.46825,7.7574 -3.1292,14.1973 -4.91797,18.3711 -2.83797,6.62193 -4.59358,9.9627 -5.70898,11.96093 -0.21023,0.0828 -0.485,0.0917 -0.67773,0.1875 -1.93899,0.96346 -2.95599,2.12744 -3.60157,2.95899 -2.5823,3.32622 -2.08709,3.9427 -2.60547,5.66797 -1.03674,3.45054 -2.49594,9.26111 -5.4414,21.04297 -3.6806,14.72241 -4.51199,21.5387 -5.44531,27.22461 -0.93333,5.6859 -1.96885,10.6956 -6.60743,24.61132 -2.53765,7.61297 -7.49313,15.99389 -10.62109,26.62891 -4.91925,16.72548 -6.42612,25.54246 -7.23047,33.68164 -0.80435,8.13919 -0.96293,15.03151 -3.55469,30.58203 -1.00694,6.04167 -4.35935,13.58774 -5.34375,23.43164 -1.15683,11.56846 0.43978,21.71693 -0.0332,30.23047 -0.56321,10.13783 -2.86733,21.157 -3.50781,33.32617 -0.64075,12.17423 0.5891,23.28612 0.004,33.23438 -0.43844,7.45347 -2.74711,16.04988 -3.49414,26.13476 -0.64219,8.66963 0.56357,15.62659 0.0274,20.72071 -0.13619,1.29378 -2.19673,4.91601 -3.39844,11.52539 -0.97553,5.3654 -0.13639,8.02633 -0.0996,7.69531 -0.16058,1.44528 -1.10727,4.19813 -1.71484,8.45117 -0.58714,4.10999 -0.28589,5.21336 0.0371,3.27539 -0.19835,1.19008 -0.11017,0.68883 -0.2793,1.58203 -0.32243,0.41647 -0.63713,0.84139 -0.84961,1.16407 -2.34447,3.56041 -2.48755,5.29293 -3.88086,10.16992 -1.11189,3.89164 -0.80867,5.95723 -0.56836,6.98437 -0.25947,0.67219 -0.51034,1.45723 -0.88086,2.66993 -0.47496,1.05783 -0.76752,1.9434 -0.94726,3.60351 -0.11399,1.05276 -0.4075,2.43289 0.65039,5.16602 1.05789,2.73312 5.95408,6.59179 9.60937,6.59179 1.76458,0 4.72475,-0.65579 6.94336,-2.70312 1.62252,-1.49727 2.32197,-3.15623 2.74024,-4.59961 0.57472,-0.81121 1.13036,-1.76221 1.55664,-3.04102 1.45123,-4.35367 0.84864,-6.30212 0.625,-6.35156 0.20732,-1.05546 0.75335,-3.19226 0.58398,-2.85351 -0.12843,0.25685 2.13277,-1.50871 4.99609,-6.51954 2.67905,-4.68829 2.61787,-6.95448 2.01368,-5.74609 -0.16751,0.33502 1.4526,-1.15518 3.5039,-5.25781 l 0.1875,-0.37305 0.1543,-0.38476 c 1.08568,-2.7142 1.11166,-2.89174 1.78711,-4.625 0.43981,-0.43296 0.69656,-0.79961 0.99805,-1.15625 1.20469,-1.42511 2.1068,-2.7994 3.41992,-4.9004 2.74681,-4.3949 4.25094,-8.40228 5.7207,-11.34179 2.01448,-4.02896 3.39057,-7.40691 4.83008,-9.7461 1.69969,-2.76201 5.67428,-6.4388 9.06836,-12.80273 3.42266,-6.4175 4.18914,-11.71856 5.48242,-14.4668 5.3506,-11.37002 10.03408,-16.97375 17.0957,-28.97851 3.29898,-5.60826 5.96212,-11.01412 8.76172,-15.77344 2.45625,-4.17562 5.76789,-8.68956 8.85938,-14.18555 3.16752,-5.63116 4.85641,-10.50618 6.81054,-13.68164 1.10235,-1.79132 3.4529,-4.196 6.30078,-7.75586 l 0.66211,-0.82812 0.47461,-0.94727 c 1.88193,-3.76386 3.43293,-7.21168 5.05469,-10.13086 1.89489,-3.41079 1.68179,-3.05196 2.78516,-4.03906 0.14395,-0.0431 0.24701,-0.042 0.39648,-0.0918 1.89201,-0.63068 3.04065,-1.15409 3.63281,-1.49218 0.56747,-0.0976 0.94163,-0.0339 1.625,-0.26172 v 0.002 c 1.5706,-0.52353 2.34633,-0.90483 3.01563,-1.24023 h 1.9707 c 0.73964,0.82883 1.36514,1.65538 3.12891,3.0664 1.67223,1.33779 2.83703,1.90922 3.64062,2.28516 0.1642,0.50301 0.59645,2.02106 2.03516,5.76172 1.385,3.60101 2.40076,9.15754 5.875,15.33398 3.95318,7.02788 8.65172,11.15312 10.81836,14.52344 1.24961,1.94385 2.49905,5.41253 4.8457,9.8125 2.86356,5.36918 5.8197,10.48928 8.6211,15.52148 2.71094,5.99748 5.29083,12.66489 8.87695,19.47852 3.1098,5.90863 6.63023,10.41827 8.99219,14.43359 10.26269,17.44658 7.54665,15.18484 19.5,33.65821 3.42852,5.29861 6.80263,8.86554 8.47656,11.79492 1.36246,2.38429 2.5225,6.43286 4.85937,11.49609 2.13728,4.63079 4.19343,7.69063 4.93946,9.74219 0.44613,1.22686 0.24549,0.68006 0.58008,1.67578 -1.65458,4.10021 -0.69316,5.11854 -0.45899,6.76563 0.25247,1.7758 0.6724,3.715 1.32813,6.33789 1.12631,4.50529 2.52867,6.75096 3.20312,7.3789 -0.003,0.56247 0.002,1.12026 0.002,2.46289 v 15.77149 26.28711 3.50586 c 0,-3.04132 0.25073,-2.23802 -0.0234,-0.86719 -0.13709,0.68541 -0.66793,1.63758 0.0332,4.67578 0.35056,1.5191 1.33612,3.84581 3.44336,5.5918 2.10724,1.74598 4.8072,2.35156 6.54687,2.35156 1.7397,0 4.4416,-0.60556 6.54883,-2.35156 2.10724,-1.74601 3.09281,-4.07272 3.44336,-5.5918 0.70111,-3.03816 0.17029,-3.99038 0.0332,-4.67578 -0.27416,-1.37081 -0.0254,-2.17408 -0.0254,0.86719 V 764.0606 737.77349 722.002 c 0,0.0791 1.1049,-2.79689 -0.38281,-8.0039 h -0.002 c -0.8934,-3.12686 -1.8357,-5.15764 -2.51172,-6.23047 0.0297,-0.0677 0.10386,-0.1556 0.12891,-0.22071 1.65382,-4.29891 0.65773,-4.90385 0.50781,-5.77929 -0.5997,-3.50176 -1.45481,-5.32788 -3.59766,-11.22071 -1.93225,-5.31369 -4.42924,-8.80404 -5.57617,-11.28906 -1.39166,-3.01527 -2.60239,-7.69628 -5.6543,-13.03711 -3.31226,-5.79646 -7.01766,-9.59921 -9.04882,-12.73828 -11.61068,-17.94378 -8.40204,-14.82409 -19.05469,-32.93359 -3.22622,-5.48458 -6.50777,-9.76281 -8.53125,-13.60742 -2.9283,-5.56377 -5.42759,-11.98132 -8.50781,-18.75782 l -0.16602,-0.36523 -0.19531,-0.35156 c -2.97622,-5.35718 -5.95901,-10.51811 -8.68164,-15.62305 -1.34141,-2.51513 -2.67961,-6.56627 -5.66797,-11.21484 -4.15098,-6.45708 -8.43646,-10.36099 -10.21094,-13.51563 -1.41947,-2.52351 -2.44235,-6.99151 -4.64062,-12.70703 -0.62576,-1.62698 -1.08072,-5.91845 -4.69922,-10.98438 -2.14587,-3.00419 -4.661,-4.266 -5.99219,-4.95898 -1.33119,-0.69298 -1.71923,-0.9914 -1.15625,-0.54102 -0.1404,-0.11232 -0.99278,-1.07871 -2.68164,-2.76757 0.90667,0.90666 0.15868,-1.36991 -4.35156,-3.625 -2.92789,-1.46394 -5.41136,-1.20408 -6.40625,-1.09571 -0.9949,0.10838 -1.01505,0.0391 0.18359,0.0391 h -1.75391 -3.5039 c 1.52403,0 -0.36191,-1.00434 -4.91602,0.51367 -1.88991,0.62996 -3.03404,1.15206 -3.62695,1.49023 -0.56854,0.0975 -0.94389,0.0334 -1.62891,0.26172 -1.55025,0.51675 -2.30475,0.88835 -2.97656,1.22266 -1.05017,0.13016 -2.22138,0.38705 -3.5918,1.07226 -4.51015,2.25505 -5.25805,4.53151 -4.35156,3.625 -2.45567,2.45568 -4.35018,4.58502 -6.92773,9.22461 -1.9639,3.53502 -3.43901,6.79662 -4.90821,9.79883 -1.85439,2.19318 -4.55063,4.8977 -7.13281,9.09375 -3.52243,5.72393 -5.25353,10.88106 -7.20898,14.35742 -2.31198,4.1102 -5.53408,8.52727 -8.66602,13.85156 -3.29898,5.60827 -5.96212,11.01412 -8.76172,15.77344 -6.43103,10.93276 -11.78395,17.49402 -17.95312,30.60352 -2.95696,6.28355 -3.75853,11.1803 -5.03321,13.57031 -1.33531,2.50373 -4.88761,5.93526 -8.45507,11.73242 -0.24493,0.39801 -0.37697,0.73758 -0.60352,1.12891 -0.15804,-3.48187 -0.37666,-6.56162 -0.18359,-9.16797 0.55897,-7.54624 2.91393,-16.24401 3.51367,-26.43945 0.71829,-12.21093 -0.52202,-23.36484 0.004,-33.35743 0.53264,-10.12008 2.82902,-21.11964 3.50391,-33.26757 0.62872,-11.31678 -0.85454,-21.15573 -0.0352,-29.34961 0.56657,-5.66566 3.61636,-12.79964 5.17188,-22.13282 2.73107,-16.3864 3.01536,-24.66817 3.73047,-31.90429 0.71511,-7.23612 1.80438,-13.99428 6.51367,-30.00586 2.19774,-7.4723 6.97728,-15.65256 10.4082,-25.94531 4.82967,-14.48901 6.33341,-21.38744 7.36914,-27.69727 1.03574,-6.30983 1.60235,-11.57736 5.11133,-25.61328 2.48272,-9.93085 3.55993,-14.02444 4.38672,-17.01172 1.41957,-1.02302 2.33529,-2.22945 3.0957,-3.20898 2.86483,-3.69039 5.17046,-8.39252 9.53321,-18.57227 3.45845,-8.06972 4.02318,-15.24749 5.59375,-20.18359 1.82623,-5.73957 4.68983,-11.98421 7.00976,-19.27539 v -0.002 c 2.36362,-7.42855 3.30427,-13.94671 5.11133,-18.85156 1.07538,-2.91888 4.35985,-7.12392 6.96094,-13.88672 1.87796,-4.8827 1.86137,-8.57442 2.22461,-10.39062 z m -34.11328,107.13477 c -0.0188,-0.018 0.93819,0.68154 1.81054,1.27343 -1.19983,-0.66147 -1.79367,-1.25726 -1.81054,-1.27343 z m 56.0625,177.47461 c 0.64952,0.0201 0.9193,0.14809 0.76953,0.125 -0.0749,-0.0116 -0.5525,-0.0649 -0.83203,-0.11524 0.0136,3.2e-4 0.0492,-0.0102 0.0625,-0.01 z m -4.88477,1.72265 c 0.68489,0.049 0.91208,0.21866 0.66797,0.17383 -0.10319,-0.019 -0.6797,-0.0652 -0.97851,-0.12305 0.0699,0.002 0.24819,-0.0552 0.31054,-0.0508 z m 2.60742,18.16797 c 0.0746,0.0115 0.55225,0.0651 0.83008,0.11524 -0.67682,-0.0162 -0.98276,-0.13878 -0.83008,-0.11524 z M 388.81055,693.80859 c 0.0101,-0.005 -0.22084,1.10977 -0.16407,0.92578 0.0476,-0.15432 -0.0538,-0.38094 0.16407,-0.92578 z m 240.44336,8.875 c 0.10421,-0.0662 0.0218,0.40285 -0.0117,0.83008 -0.0154,-0.0924 -0.0998,-0.43837 -0.10938,-0.50586 -0.0204,-0.1435 0.0447,-0.27564 0.1211,-0.32422 z m -17.70508,1.46289 c 0.005,-0.0258 0.3749,1.178 0.34375,0.9961 -0.0305,-0.17838 -0.28956,-0.35249 -0.34375,-0.9961 z m -211.79492,17.74219 c -0.5601,0.52769 -0.89531,0.66972 -0.61524,0.47656 0.0794,-0.0547 0.44306,-0.36471 0.61524,-0.47656 z m 224.11132,37.42969 c 1.59364,0 4.18552,0.56823 6.21289,2.24805 2.02738,1.67981 2.96198,3.9101 3.28516,5.31054 0.0795,0.34449 0.0282,0.40737 0.0762,0.68946 H 614.293 c 0.0479,-0.28209 -0.003,-0.34497 0.0762,-0.68946 0.32317,-1.40042 1.25779,-3.63071 3.28516,-5.31054 2.02737,-1.67984 4.61727,-2.24805 6.21093,-2.24805 z"
         id="path439" />
    </g>
  </g>
</svg>
