<?xml version="1.0" encoding="UTF-8" standalone="no"?>
<!-- Created with Inkscape (http://www.inkscape.org/) -->

<svg
   width="1000"
   height="1000"
   viewBox="0 0 1000 1000"
   version="1.1"
   id="svg1"
   xmlns:xlink="http://www.w3.org/1999/xlink"
   xmlns="http://www.w3.org/2000/svg"
   xmlns:svg="http://www.w3.org/2000/svg">
  <defs
     id="defs1">
    <pattern
       xlink:href="#pattern359"
       preserveAspectRatio="xMidYMid"
       id="pattern372"
       patternTransform="matrix(0.5,0,0,0.5,147.15462,1548.2922)" />
    <pattern
       xlink:href="#pattern357"
       preserveAspectRatio="xMidYMid"
       id="pattern371"
       patternTransform="matrix(0.5,0,0,0.5,221.32076,1552.4298)" />
    <pattern
       xlink:href="#pattern358"
       preserveAspectRatio="xMidYMid"
       id="pattern370"
       patternTransform="matrix(0.5,0,0,0.5,230.96346,1527.8214)" />
    <pattern
       xlink:href="#pattern355"
       preserveAspectRatio="xMidYMid"
       id="pattern369"
       patternTransform="matrix(0.5,0,0,0.5,287.08178,1553.6581)" />
    <pattern
       xlink:href="#pattern354"
       preserveAspectRatio="xMidYMid"
       id="pattern368"
       patternTransform="matrix(0.5,0,0,0.5,230.97274,1529.1717)" />
    <pattern
       xlink:href="#pattern342"
       preserveAspectRatio="xMidYMid"
       id="pattern360"
       patternTransform="matrix(0.5,0,0,0.5,210.45332,1525.5392)" />
    <pattern
       xlink:href="#pattern342"
       preserveAspectRatio="xMidYMid"
       id="pattern359"
       patternTransform="matrix(0.5,0,0,0.5,152.11125,1550.7705)" />
    <pattern
       xlink:href="#pattern342"
       preserveAspectRatio="xMidYMid"
       id="pattern358"
       patternTransform="matrix(0.5,0,0,0.5,202.11125,1533.2444)" />
    <pattern
       xlink:href="#pattern342"
       preserveAspectRatio="xMidYMid"
       id="pattern357"
       patternTransform="matrix(0.5,0,0,0.5,211.4075,1546.234)" />
    <pattern
       xlink:href="#pattern342"
       preserveAspectRatio="xMidYMid"
       id="pattern356"
       patternTransform="matrix(0.5,0,0,0.5,232.14929,1573.2544)" />
    <pattern
       xlink:href="#pattern342"
       preserveAspectRatio="xMidYMid"
       id="pattern355"
       patternTransform="matrix(0.5,0,0,0.5,275,1552.7287)" />
    <pattern
       xlink:href="#pattern342"
       preserveAspectRatio="xMidYMid"
       id="pattern354"
       patternTransform="matrix(0.5,0,0,0.5,235,1529.7913)" />
    <pattern
       xlink:href="#shading24"
       preserveAspectRatio="xMidYMid"
       id="pattern342"
       patternTransform="matrix(0.5,0,0,0.5,213.95332,1537.5392)"
       x="0"
       y="0" />
    <pattern
       patternUnits="userSpaceOnUse"
       width="338.5925"
       height="42.989567"
       patternTransform="translate(213.95332,1537.5392) scale(0.5)"
       preserveAspectRatio="xMidYMid"
       id="shading24"
       style="fill:#000000">
      <path
         style="fill-rule:nonzero;stroke:none;stroke-width:0.1;stroke-linecap:square;paint-order:markers fill stroke;stop-color:#000000"
         d="m 1806.4991,-758.06464 v 18.86792 c 55.9187,0 121.0493,0.59523 193.5686,3.15628 72.9408,2.57593 146.0589,6.87694 222.9288,13.47675 119.09,10.22471 223.0762,23.76065 340.6056,39.2177 117.5025,15.4535 222.0471,29.0563 341.8507,39.3312 77.366,6.63525 151.0001,10.96128 224.4674,13.55245 73.0344,2.5759 138.631,3.17493 194.9247,3.17493 -55.9642,0 -122.2215,-1.36594 -194.8324,-5.25394 -73.2143,-3.92032 -146.9676,-10.0663 -223.8166,-18.88656 -118.8791,-13.6442 -223.3242,-31.02113 -339.8009,-50.57815 -116.4705,-19.55598 -221.1862,-36.99475 -340.3724,-50.69165 -77.0605,-8.8558 -150.9942,-15.0266 -224.3694,-18.96225 -72.7637,-3.90286 -139.1256,-5.27261 -195.1541,-5.27261 z m 0,37.81515 v 18.86793 c 55.9187,0 121.0493,0.59523 193.5686,3.15627 72.9408,2.57593 146.0589,6.87694 222.9288,13.47676 119.09,10.22471 223.0762,23.76065 340.6056,39.2177 117.5025,15.4535 222.0471,29.0563 341.8507,39.33119 77.366,6.63526 151.0001,10.96128 224.4674,13.55245 73.0344,2.5759 138.631,3.17493 194.9247,3.17493 -55.9642,0 -122.2215,-1.36594 -194.8324,-5.25394 -73.2143,-3.92031 -146.9676,-10.0663 -223.8166,-18.88656 -118.8791,-13.6442 -223.3242,-31.02112 -339.8009,-50.57815 -116.4705,-19.55598 -221.1862,-36.99475 -340.3724,-50.69165 -77.0605,-8.8558 -150.9942,-15.02659 -224.3694,-18.96225 -72.7637,-3.90286 -139.1256,-5.2726 -195.1541,-5.2726 z m 0,37.81516 v 18.86792 c 55.9187,0 121.0493,0.59523 193.5686,3.15628 72.9408,2.57593 146.0589,6.87694 222.9288,13.47675 119.09,10.22471 223.0762,23.76065 340.6056,39.2177 117.5025,15.4535 222.0471,29.0563 341.8507,39.3312 77.366,6.63525 151.0001,10.96128 224.4674,13.55245 73.0344,2.5759 138.631,3.17493 194.9247,3.17493 -55.9642,0 -122.2215,-1.36594 -194.8324,-5.25394 -73.2143,-3.92032 -146.9676,-10.0663 -223.8166,-18.88656 -118.8791,-13.6442 -223.3242,-31.02113 -339.8009,-50.57815 -116.4705,-19.55598 -221.1862,-36.99475 -340.3724,-50.69165 -77.0605,-8.8558 -150.9942,-15.0266 -224.3694,-18.96225 -72.7637,-3.90286 -139.1256,-5.27261 -195.1541,-5.27261 z m 0,37.81515 v 18.86793 c 55.9187,0 121.0493,0.59523 193.5686,3.15627 72.9408,2.57593 146.0589,6.87694 222.9288,13.47676 119.09,10.22471 223.0762,23.76065 340.6056,39.2177 117.5025,15.4535 222.0471,29.0563 341.8507,39.33119 77.366,6.63526 151.0001,10.96128 224.4674,13.55245 73.0344,2.5759 138.631,3.17494 194.9247,3.17494 -55.9642,0 -122.2215,-1.36595 -194.8324,-5.25395 -73.2143,-3.92031 -146.9676,-10.0663 -223.8166,-18.88656 -118.8791,-13.6442 -223.3242,-31.02112 -339.8009,-50.57815 -116.4705,-19.55598 -221.1862,-36.99475 -340.3724,-50.69165 -77.0605,-8.8558 -150.9942,-15.02659 -224.3694,-18.96225 -72.7637,-3.90286 -139.1256,-5.2726 -195.1541,-5.2726 z m 0,37.81516 v 18.86792 c 55.9187,0 121.0493,0.59523 193.5686,3.15628 72.9408,2.57593 146.0589,6.87694 222.9288,13.47675 119.09,10.22471 223.0762,23.76065 340.6056,39.2177 117.5025,15.4535 222.0471,29.0563 341.8507,39.3312 77.366,6.63525 151.0001,10.96128 224.4674,13.55245 73.0344,2.5759 138.631,3.17493 194.9247,3.17493 -55.9642,0 -122.2215,-1.36594 -194.8324,-5.25394 -73.2143,-3.92032 -146.9676,-10.0663 -223.8166,-18.88656 -118.8791,-13.6442 -223.3242,-31.02113 -339.8009,-50.57815 -116.4705,-19.55598 -221.1862,-36.99475 -340.3724,-50.69165 -77.0605,-8.8558 -150.9942,-15.0266 -224.3694,-18.96225 -72.7637,-3.90286 -139.1256,-5.27261 -195.1541,-5.27261 z m 0,37.81515 v 18.86793 c 55.9187,0 121.0493,0.59523 193.5686,3.15627 72.9408,2.57593 146.0589,6.87694 222.9288,13.47676 119.09,10.22471 223.0762,23.76065 340.6056,39.2177 117.5025,15.4535 222.0471,29.0563 341.8507,39.33119 77.366,6.63526 151.0001,10.96128 224.4674,13.55245 73.0344,2.5759 138.631,3.17494 194.9247,3.17494 -55.9642,0 -122.2215,-1.36595 -194.8324,-5.25395 -73.2143,-3.92031 -146.9676,-10.0663 -223.8166,-18.88656 -118.8791,-13.6442 -223.3242,-31.02112 -339.8009,-50.57815 -116.4705,-19.55598 -221.1862,-36.99475 -340.3724,-50.69165 -77.0605,-8.8558 -150.9942,-15.02659 -224.3694,-18.96225 -72.7637,-3.90286 -139.1256,-5.2726 -195.1541,-5.2726 z m 0,37.81516 v 18.86792 c 55.9187,0 121.0493,0.59523 193.5686,3.15628 72.9408,2.57593 146.0589,6.87694 222.9288,13.47675 119.09,10.22471 223.0762,23.76065 340.6056,39.2177 117.5025,15.4535 222.0471,29.0563 341.8507,39.3312 77.366,6.63525 151.0001,10.96128 224.4674,13.55245 73.0344,2.5759 138.631,3.17493 194.9247,3.17493 -55.9642,0 -122.2215,-1.36594 -194.8324,-5.25394 -73.2143,-3.92032 -146.9676,-10.0663 -223.8166,-18.88656 -118.8791,-13.6442 -223.3242,-31.02113 -339.8009,-50.57815 -116.4705,-19.55598 -221.1862,-36.99475 -340.3724,-50.69165 -77.0605,-8.8558 -150.9942,-15.0266 -224.3694,-18.96225 -72.7637,-3.90286 -139.1256,-5.27261 -195.1541,-5.27261 z"
         id="use26"
         transform="matrix(0.22300099,0,0,0.37823052,-402.85121,237.25945)" />
    </pattern>
    <clipPath
       clipPathUnits="userSpaceOnUse"
       id="clipPath54">
      <path
         id="path336"
         style="stroke-width:0.0999999;stroke-linecap:square;paint-order:markers fill stroke;stop-color:#000000"
         d="m 1691.1994,-792.32001 h 1634.8919 v 92.82806 H 1691.1994 Z" />
    </clipPath>
    <clipPath
       clipPathUnits="userSpaceOnUse"
       id="clipPath33">
      <rect
         style="fill:#000000;stroke:none;stroke-width:0.999995;stroke-linecap:butt;stroke-linejoin:bevel;paint-order:stroke markers fill;stop-color:#000000"
         id="rect33"
         width="46.19186"
         height="80.006783"
         x="74.999985"
         y="399.99661" />
    </clipPath>
    <clipPath
       clipPathUnits="userSpaceOnUse"
       id="clipPath27">
      <rect
         style="fill:none;stroke:#000000;stroke-width:0.999999;stroke-linecap:butt;stroke-linejoin:bevel;paint-order:stroke markers fill;stop-color:#000000"
         id="rect28-6"
         width="46.160622"
         height="39.922417"
         x="86.574379"
         y="420.06253" />
    </clipPath>
    <clipPath
       clipPathUnits="userSpaceOnUse"
       id="clipPath25">
      <rect
         style="fill:#ff0000;stroke:none;stroke-width:3;stroke-linecap:square;stroke-linejoin:miter;paint-order:stroke markers fill;stop-color:#000000"
         id="rect25-8"
         width="78"
         height="45.033199"
         x="763.61322"
         y="452.82422" />
    </clipPath>
    <clipPath
       clipPathUnits="userSpaceOnUse"
       id="clipPath15">
      <rect
         style="fill:none;stroke:#000000;stroke-linecap:butt;stroke-linejoin:bevel;paint-order:stroke markers fill;stop-color:#000000"
         id="rect15-7"
         width="45.034248"
         height="38.955639"
         x="262.48285"
         y="121.00073" />
    </clipPath>
    <linearGradient
       id="swatch75">
      <stop
         style="stop-color:#000000;stop-opacity:1;"
         offset="0"
         id="stop75" />
    </linearGradient>
  </defs>
  <g
     id="layer70"
     style="display:inline">
    <g
       id="layer80"
       style="display:inline">
      <path
         style="baseline-shift:baseline;display:inline;overflow:visible;opacity:1;vector-effect:none;fill-rule:evenodd;enable-background:accumulate;stop-color:#000000;stop-opacity:1"
         d="m 553.79297,418.36914 c -0.88765,0.0225 -1.77617,0.1559 -2.6211,0.4375 -2.67605,0.89189 -3.97399,2.31991 -4.85742,3.5293 h -2.54492 c 0,4.8328 -0.0904,6.97566 -0.10937,7.28711 -0.005,0.0779 -0.13057,0.64641 0.084,-0.67188 -0.0336,0.3107 -0.10237,0.68329 -0.11914,1.00781 -0.009,0.17565 -0.0384,0.15836 -0.008,0.97461 0.008,0.20407 -0.009,0.40277 0.11718,1.19727 0.0629,0.39725 0.66389,2.32575 0.66407,2.32617 4e-5,1e-4 1.77587,0.83419 2.72851,1.28125 0.18706,0.55317 0.27451,0.71469 0.53125,1.61328 -0.36436,-1.27529 -0.38476,0.0937 -0.38476,4.26172 0,2.25735 -0.37187,5.53142 0.0508,9.75781 0.49054,4.90555 1.64975,7.73969 1.75195,8.76172 0.0395,0.3947 -0.95563,3.6884 0.11133,9.55664 1.16684,6.41769 3.34898,9.66161 3.50391,10.51367 0.0958,0.52696 -0.16016,2.85938 -0.16016,6.97266 v 14.01953 c 0,3.02988 -0.29202,6.78498 0.0254,11.22852 0.5721,8.00946 0.92908,11.76543 1.32617,14.26562 0.0993,0.62505 0.18462,1.15754 0.41016,1.98242 0.005,0.0169 0.0207,0.0532 0.0254,0.0703 -0.0144,1.79687 -0.0352,3.63127 -0.0352,9.2539 V 569.541 c 0,4.05849 0.23427,7.29427 0.0352,9.68359 -0.1555,1.86596 -1.35318,5.31765 -1.75781,10.57812 -0.39206,5.0966 -0.0293,9.45747 -0.0293,13.03516 0,4.10842 0.24904,7.3191 0.041,9.60742 -0.0722,0.79451 -1.32722,3.64734 -1.75977,8.83789 -0.51595,6.19148 0.31177,10.08288 0.082,11.57617 -0.0775,0.50396 -2.2597,3.65197 -3.45898,10.24805 -1.06697,5.86825 -0.0719,9.16 -0.11133,9.55469 -0.10949,1.09493 -1.21384,3.89719 -1.74219,8.65234 -0.5813,5.2317 -0.10067,7.19812 0.17774,5.94532 -0.0214,0.0961 -1.98445,2.66232 -3.44532,8.50585 -1.20935,4.83739 -0.29883,7.54809 -0.29883,7.6836 0,2.33613 0.0663,2.46294 0.14844,2.51562 -0.50477,0.78234 -1.11658,1.88043 -1.60156,3.82032 -1.06765,4.27063 -0.29883,6.38024 -0.29883,5.93164 0,2.30168 0.0675,2.39376 0.14649,2.47851 -0.56877,0.86818 -1.26161,2.10489 -1.70508,4.32227 -0.54266,2.7133 -0.63684,4.46573 -0.5625,5.375 -0.43466,0.85067 -0.89353,1.90709 -1.18946,3.38672 -0.6401,3.2005 -0.61942,5.02377 -0.45312,5.73242 -0.36788,0.7628 -0.90292,2.37266 -1.35742,5.09961 -0.64843,3.89069 -0.13672,6.24391 -0.13672,6.90039 v 5.25781 22.78125 c 0,2.69524 0.0827,3.97559 0.10156,3.84375 -0.25244,1.76709 -0.66481,3.44014 -1.2168,4.91211 -0.80785,2.15427 -4.63155,6.23537 -5.79296,14.36523 -0.4289,3.0023 -0.51273,4.95695 -0.41211,5.89649 -0.62135,0.75223 -1.35147,1.7381 -2.13868,3.3125 -2.46585,4.93171 -3.48022,7.65453 -3.99609,9.69726 -0.51587,2.04274 -0.26586,1.74082 -1.60156,5.08008 0.13173,-0.32931 -0.65001,0.74907 -1.75195,3.50391 -0.27774,0.69435 -0.10392,0.40256 -0.29493,0.94141 -2.21021,1.34069 -2.01663,2.32012 -2.32617,2.8164 -0.39852,0.63894 -0.53109,0.95045 -0.65625,1.2207 -1.00125,2.16207 -1.1083,2.86789 -2.18164,6.0879 -0.0748,0.22446 -0.0787,0.3837 -0.13867,0.5957 -0.16234,0.21597 -0.27935,0.27352 -0.44727,0.52539 -1.15064,1.72596 -1.72498,2.8448 -1.93554,3.39844 -0.14936,0.1551 -0.11701,0.13068 -0.32032,0.33398 0.90657,-0.90656 -1.36994,-0.15849 -3.625,4.35156 -7.7e-4,0.002 -10e-4,0.002 -0.002,0.004 -1.99934,1.31793 -4.15819,3.05855 -5.25586,5.25391 -1.02164,2.04328 -1.54271,3.513 -1.7832,4.42187 -2.6827,0.99059 -4.11281,2.01401 -7.08594,3.99609 -0.23841,0.15895 -0.39452,0.41747 -0.61328,0.60352 -0.61671,0.17729 -1.13943,0.1869 -1.81641,0.52539 -0.46002,0.23001 -0.58689,0.45803 -0.96093,0.69727 h -5.08204 -10.51562 -1.00195 c -0.53516,-0.52259 -1.09743,-1.08253 -2.21289,-1.82618 -2.46286,-1.6419 -4.15137,-2.16259 -4.58008,-2.37695 -2.23493,-1.11745 -2.83975,-1.45403 -1.97656,-0.80664 0.1867,0.14003 -0.59865,-0.74122 -2.4336,-2.57617 0.34044,0.34043 -0.41423,-1.09321 -3.27734,-3.00195 -1.49511,-0.99673 -2.5074,-1.53314 -3.13086,-1.81055 -0.48705,-0.51053 -1.32799,-1.0567 -2.23438,-1.63672 -0.65276,-0.99157 -1.28264,-1.72405 -1.87109,-2.3125 -0.57,-0.57 -1.27271,-1.1804 -2.20703,-1.81055 -0.37136,-0.60279 -0.7897,-1.18619 -1.29883,-1.69531 -1.289,-1.289 -2.82839,-2.20073 -4.15039,-2.84961 -0.22326,-1.31141 -1.47739,-5.06667 -3.36133,-7.89258 -1.75805,-2.63708 -4.7077,-4.40026 -6.49219,-5.33398 -0.19757,-0.58861 -0.5373,-1.42431 -1.30664,-3.34766 -0.59189,-1.47976 -1.37805,-3.32977 -2.71679,-5.33789 -2.00509,-3.00763 -3.30629,-4.24218 -3.70508,-4.32226 -0.3163,-0.64661 -0.69771,-1.40497 -1.55274,-2.6875 -0.16925,-0.25388 -0.28758,-0.31189 -0.45117,-0.5293 -0.1884,-0.61507 -0.32846,-1.20573 -0.67578,-1.90039 h -0.002 c -0.61248,-1.22496 -1.05292,-2.10796 -1.91797,-3.32617 -0.10253,-0.14439 -0.45733,-0.43811 -0.57227,-0.59961 -0.16592,-0.9285 -0.44094,-1.93855 -1.01367,-3.08399 -1.0105,-2.021 -2.10794,-3.19955 -3.0664,-4.02539 -0.15553,-0.41779 -0.21419,-0.78188 -0.43946,-1.23242 -0.25737,-0.51475 -0.52383,-0.85863 -0.78906,-1.26758 -0.0799,-0.8449 -0.053,-1.57893 -0.41992,-2.67968 -0.47469,-1.42406 -1.1055,-2.43609 -1.75,-3.28711 -0.17402,-0.5076 -0.26574,-0.96896 -0.54492,-1.52735 -0.32538,-0.65074 -0.6474,-0.8772 -0.98633,-1.35937 -0.19282,-0.68235 -0.37325,-1.36175 -0.76563,-2.14649 -0.82428,-1.64857 -1.21226,-3.01641 -3.92383,-5.16406 -1.35578,-1.07382 -3.9481,-2.48868 -7.19921,-2.26953 -1.89659,0.12784 -3.41269,0.82468 -4.66211,1.60742 0.76798,-0.40162 2.20568,-1.0119 2.20507,-1.01172 -6.9e-4,2.1e-4 4.46547,-0.28896 4.46485,-0.28906 -6.2e-4,-1e-4 4.58257,2.0141 4.58203,2.01367 -5.4e-4,-4.3e-4 2.35594,2.66093 2.35547,2.66016 -4.7e-4,-7.7e-4 0.71396,1.38537 0.88672,1.87695 0.0594,0.1691 0.0358,0.18743 0.0801,0.33203 -0.16369,-0.12314 -0.29396,-0.23461 -0.41407,-0.31445 0.13576,0.13046 0.34946,0.53401 0.51563,0.73437 0.0693,0.28131 0.16419,0.59769 0.19336,0.79102 h -19.78125 c 0,0.85994 -0.009,0.73304 -0.0274,1.40625 -0.004,0.1683 -0.13468,0.0888 0.0937,1.73242 0.0571,0.41092 0.1236,0.96151 0.47071,1.94922 0.17355,0.49385 0.89015,1.88009 0.89062,1.88086 1.3e-4,2.2e-4 0.39598,0.44533 0.66406,0.74805 0.1909,0.646 0.34902,1.27809 0.7168,2.01367 0.3259,0.6518 0.6488,0.87862 0.98828,1.36133 0.19277,0.68125 0.37206,1.35935 0.76367,2.14257 0.25786,0.51573 0.52529,0.86196 0.79102,1.27149 0.0801,0.84407 0.0535,1.5766 0.41992,2.67578 0.47446,1.42335 1.10584,2.43431 1.75,3.28516 0.17416,0.50836 0.26526,0.97191 0.54492,1.53125 0.96325,1.92648 2.02645,3.11469 2.95899,3.94336 5.2e-4,0.002 10e-4,0.002 0.002,0.004 1.07334,3.22001 1.1804,3.92583 2.18164,6.08789 0.12516,0.27026 0.25773,0.58177 0.65625,1.22071 0.31818,0.51012 0.15344,1.53625 2.57031,2.93554 0.34464,0.43454 0.64906,0.9791 0.95508,1.27149 0.277,0.62311 0.81457,1.63785 1.8125,3.13476 3.09221,4.63832 4.76511,5.39474 3.50586,3.50586 0.11033,0.1655 0.40881,0.7261 0.78711,1.67188 -0.46818,-1.17046 -1.03691,2.45732 3.22852,7.78906 2.16868,2.71086 5.12866,4.45699 6.98047,5.36719 0.26105,1.23972 0.91366,3.90935 2.39843,6.8789 1.09718,2.19435 3.2571,3.93205 5.25586,5.25 0.001,0.002 8.5e-4,0.004 0.002,0.006 0.48917,0.97835 0.87139,1.72017 1.25781,2.41407 0.38642,0.6939 0.24721,1.02275 2.08594,2.91796 0.10997,0.11335 0.46357,0.32235 0.5996,0.45508 0.13274,0.13604 0.34173,0.48964 0.45508,0.59961 1.89523,1.83874 2.22407,1.70147 2.91797,2.08789 0.6939,0.38642 1.43572,0.76669 2.41406,1.25586 0.69412,0.34706 1.28378,0.48936 1.89844,0.67774 0.2178,0.16391 0.27683,0.28156 0.53125,0.45117 1.72598,1.15066 2.84479,1.72498 3.39844,1.93554 0.15511,0.14936 0.13067,0.11701 0.33398,0.32032 0.50163,0.50163 1.74593,2.3109 4.57618,4.43359 2.95306,2.21482 4.93155,2.64449 5.0332,2.69531 1.45733,0.72866 1.67952,0.8073 1.85547,0.86328 0.20232,0.18777 0.31422,0.28102 0.80273,0.76954 -0.90663,-0.90662 -0.15852,1.36992 4.35156,3.625 2.92789,1.46394 5.41331,1.20407 6.40821,1.0957 0.99489,-0.10837 1.01504,-0.0391 -0.1836,-0.0391 h 3.50391 10.51562 5.25782 1.75195 c -1.19867,0 -1.17849,-0.0693 -0.18359,0.0391 0.9949,0.10837 3.48032,0.36824 6.4082,-1.0957 0.47533,-0.23767 0.60851,-0.4734 0.99219,-0.72071 2.02795,-0.0945 4.51986,-0.56087 6.86328,-2.90429 0.42949,-0.4295 0.70194,-0.92201 1.02344,-1.39649 1.00923,-0.22359 2.19127,-0.48625 2.1914,-0.48633 3.8e-4,-2.2e-4 0.85269,-0.56118 1.04492,-0.71093 0.76894,-0.599 0.71369,-0.61158 0.80664,-0.70118 0.18592,-0.1792 0.21118,-0.20829 0.25977,-0.25781 0.0972,-0.099 0.17537,-0.1802 0.30469,-0.3125 0.25863,-0.26459 0.6856,-0.69927 1.3789,-1.39258 0.58415,-0.58415 1.16778,-1.16776 1.75196,-1.75195 -0.90651,0.90649 1.37189,0.15849 3.62695,-4.35156 0.823,-1.64601 1.14083,-2.64381 1.43555,-3.5625 1.21866,-0.63611 2.55243,-1.45283 3.70117,-2.60156 1.11829,-1.11832 1.88581,-2.54293 2.375,-3.91797 0.55191,-0.486 1.37351,-1.35519 2.37891,-2.86328 0.99675,-1.49515 1.53313,-2.50935 1.81054,-3.13282 0.71458,-0.68221 1.54423,-1.65093 2.31836,-3.19922 0.57227,-1.14454 0.84569,-2.15405 1.01172,-3.08203 0.11541,-0.16211 0.47135,-0.45669 0.57422,-0.60156 0.86505,-1.21821 1.30549,-2.10121 1.91797,-3.32617 1.8434,-3.68682 2.04948,-5.90497 2.09375,-6.01563 -0.13173,0.32932 0.65,-0.74906 1.75195,-3.5039 1.6977,-4.24425 2.23703,-6.87936 2.42188,-7.61133 0.18485,-0.73197 0.28169,-1.22549 2.49414,-5.65039 -0.35847,0.71692 -0.23286,0.39019 0.63672,-0.65625 0.86957,-1.04644 2.58123,-2.97379 3.53906,-6.32617 1.90231,-6.65806 0.48292,-9.72614 0.28515,-8.3418 0.17759,-1.24309 2.2662,-3.62457 4.72071,-10.16992 1.13937,-3.03832 1.86028,-6.10595 2.28906,-9.10742 0.51449,-3.60148 0.0996,-5.86225 0.0996,-6.67188 v -22.78125 -5.25781 c 0,-2.8484 -0.0625,-4.04679 -0.13477,-3.61328 -0.20911,1.25464 0.93546,-0.35702 1.75196,-5.25586 v -0.002 c 0.40255,-2.41538 0.45904,-3.90021 0.41015,-4.7832 0.46617,-0.8698 0.96535,-2.06111 1.28516,-3.66015 0.54227,-2.71138 0.63651,-4.46313 0.5625,-5.37305 0.43489,-0.85084 0.89337,-1.91018 1.18945,-3.39063 0.8565,-4.2825 0.19336,-6.7718 0.19336,-7.21679 0,-0.58684 0.006,-0.61663 0.0156,-0.98438 0.5382,-0.88893 1.14693,-2.08431 1.54297,-4.06445 0.8565,-4.2825 0.19335,-6.77375 0.19335,-7.21875 0,-3.36935 0.0624,-4.2692 -0.29687,-2.83203 0.065,-0.26005 2.22101,-2.97207 3.56445,-9.01758 1.29217,-5.81468 0.24297,-8.66331 0.17774,-8.07617 0.1295,-1.16555 1.2804,-4.03846 1.76367,-8.8711 0.54177,-5.41776 -0.0893,-8.08977 -0.11133,-7.96875 0.12248,-0.67364 2.50282,-3.9822 3.54883,-10.78125 1.0138,-6.58962 -0.0812,-11.00067 0.082,-12.95898 0.0622,-0.74599 1.27898,-3.5474 1.74609,-8.68555 0.4266,-4.69264 0.041,-8.51862 0.041,-11.41992 0,-4.60033 -0.26448,-8.44267 -0.0293,-11.5 0.14039,-1.82503 1.31143,-5.23527 1.7461,-10.45117 0.38301,-4.5962 0.0351,-8.39448 0.0351,-11.3457 v -31.54493 c 0,-7.15757 0.0306,-10.34523 0.043,-11.69531 0.003,-0.33752 0.006,-0.54222 0.006,-0.78125 -1.6e-4,-0.11951 0.009,-0.16245 -0.0156,-0.63281 -0.006,-0.11759 -0.0123,-0.26197 -0.043,-0.55078 -0.0154,-0.14441 -0.0349,-0.32499 -0.082,-0.60547 -0.0471,-0.28048 -0.3279,-1.36061 -0.32813,-1.36133 -3e-5,-10e-5 -0.29877,-0.45928 -0.38867,-0.59766 -0.18957,-1.50832 -0.49018,-4.07337 -0.96875,-10.77343 -0.18203,-2.54839 0.0254,-5.82287 0.0254,-9.80274 v -14.01953 c 0,-1.72816 0.78702,-5.33052 -0.16211,-10.55078 -1.16686,-6.41766 -3.34899,-9.66162 -3.50391,-10.51367 0.022,0.12102 0.6531,-2.55099 0.11133,-7.96875 -0.49055,-4.90553 -1.64975,-7.73971 -1.75195,-8.76172 -0.15861,-1.58605 0.0488,-4.18348 0.0488,-7.76758 0,-0.50513 1.2634,-3.98916 -0.38477,-9.75781 -0.67126,-2.34943 -1.25619,-4.11894 -1.96289,-5.75586 -0.36549,-0.84657 -0.57193,-1.69171 -1.17578,-2.66797 0.002,-0.56125 0.0195,-0.4447 0.0195,-1.0957 h -0.87695 c -0.56728,-0.63648 -1.28301,-1.31754 -2.40039,-2.11133 -1.38785,-0.98592 -4.03627,-1.92309 -6.69922,-1.85547 z m -3.08008,2.62891 c -5e-5,1e-5 1.82507,0.85621 2.85156,1.33789 h -4.36133 c 0.55293,-0.48995 1.50982,-1.33791 1.50977,-1.33789 z m -4.14844,13.02929 c 0.021,0.0487 0.12919,0.40973 0.16211,0.49414 -0.31838,-0.48889 -0.23933,-0.673 -0.16211,-0.49414 z m 15.91602,82.46289 c 2.60642,-0.42967 5.40439,0.43869 6.98047,1.44336 -2.15126,0.0563 -9.36621,0.24729 -11.02735,0.29102 1.02353,-0.7345 2.27823,-1.44281 4.04688,-1.73438 z m -170,244.03516 c -0.0358,0.0367 -0.12914,0.0878 -0.16211,0.12305 -0.10092,0.10782 -0.0932,0.1233 -0.17774,0.2207 0.12035,-0.12085 0.16673,-0.18081 0.33985,-0.34375 z m 17.17383,6.67773 c -0.27974,-0.19292 0.0525,-0.0532 0.61132,0.47266 -0.1704,-0.11062 -0.53254,-0.41832 -0.61132,-0.47266 z m -18.12891,0.91407 c -0.0203,0.0954 -0.14287,0.83209 -0.25195,1.38476 0.0246,-1.02568 0.28519,-1.54125 0.25195,-1.38476 z m 19.81641,2.76953 c -0.0246,1.02565 -0.2852,1.54128 -0.25196,1.38476 0.0203,-0.0955 0.14287,-0.83207 0.25196,-1.38476 z m -18.06446,0.73437 c -0.0203,0.0956 -0.14278,0.8327 -0.25195,1.38672 0.0246,-1.02567 0.2852,-1.54324 0.25195,-1.38672 z m 19.81641,2.76953 c -0.0246,1.02568 -0.28519,1.54322 -0.25195,1.38672 0.0203,-0.0956 0.14278,-0.83271 0.25195,-1.38672 z m -18.16406,2.16602 c -0.009,0.0601 -0.0377,0.33014 -0.0566,0.42383 0.007,-0.55178 0.10458,-0.73482 0.0566,-0.42383 z m 19.28711,0.41406 c 0.0134,0.0127 0.0481,0.0776 0.0625,0.0918 -0.009,-0.007 -0.0419,-0.0326 -0.0508,-0.0391 -0.34575,-0.25339 -0.28773,-0.31521 -0.0117,-0.0527 z m -13.18555,0.28907 c -0.19226,0.0259 -0.36042,0.0941 -0.55859,0.10742 -0.12877,0.009 -0.20966,-0.0542 -0.33594,-0.0508 0.44717,-0.0289 0.51526,-0.0322 0.89453,-0.0566 z m 13.71875,1.92578 c -0.008,0.5489 -0.10253,0.72832 -0.0547,0.41797 0.009,-0.0593 0.0361,-0.32608 0.0547,-0.41797 z m -19.00977,0.42187 c 0.15424,0.1025 0.46937,0.35895 0.53125,0.4043 0.17755,0.13012 -0.0801,0.0292 -0.53125,-0.4043 z m 1.04297,0.77735 c -0.0203,0.0955 -0.14281,0.83126 -0.25195,1.38476 0.0246,-1.02568 0.28519,-1.54125 0.25195,-1.38476 z m 2.57227,8.0957 c 0.17218,0.11185 0.53589,0.42184 0.61523,0.47656 0.28008,0.19317 -0.0551,0.0512 -0.61523,-0.47656 z m 20.70117,0.0547 c -0.0264,0.83795 -0.17196,1.24484 -0.12305,0.97851 0.019,-0.10319 0.0652,-0.6797 0.12305,-0.97851 z m -16.26367,4.11523 c -0.0203,0.0956 -0.14279,0.83269 -0.25195,1.38672 0.0246,-1.02568 0.28519,-1.54324 0.25195,-1.38672 z m -1.44141,0.46289 c 0.0102,0.007 0.0451,0.0359 0.0547,0.043 0.36315,0.26614 0.25765,0.26738 -0.0547,-0.043 z m 21.25586,2.30664 c -0.0246,1.02568 -0.28519,1.54321 -0.25195,1.38672 0.0203,-0.0956 0.14278,-0.83272 0.25195,-1.38672 z m 8.29102,11.46289 c 0.082,0.1025 0.0336,0.0156 0.10742,0.10742 -0.0189,-0.009 -0.0722,-0.043 -0.0898,-0.0508 -0.0205,-0.0315 0.017,-0.0134 -0.0176,-0.0566 z m 100.1914,14.08985 c -0.0489,-0.26633 0.0967,0.14056 0.12305,0.97851 -0.0578,-0.29881 -0.10409,-0.87532 -0.12305,-0.97851 z m -86.85351,6.65039 c 0.0178,-5.9e-4 0.0483,0.006 0.0664,0.006 -0.55402,0.10917 -1.29112,0.23165 -1.38671,0.25195 -0.15375,0.0326 0.33083,-0.22536 1.32031,-0.25781 z m 79.70898,3.16211 c -0.10747,-0.4095 0.55259,0.47367 0.3418,2.44336 -0.0819,-1.25628 -0.27493,-2.18856 -0.3418,-2.44336 z m -75.01367,0.79492 c 0.21231,1.97283 -0.44935,2.85709 -0.3418,2.44726 0.067,-0.25522 0.26021,-1.18689 0.3418,-2.44726 z m 35.71875,14.53515 c -0.10294,0.15486 -0.36078,0.47116 -0.40625,0.53321 -0.13012,0.17755 -0.0273,-0.0821 0.40625,-0.53321 z m 7.98633,0.77149 c 0.74928,1.03039 4.49833,6.18502 6.54297,8.99609 -1.98363,-0.81204 -4.1983,-2.22881 -5.36914,-4.5 -0.93222,-1.80831 -1.18712,-3.30455 -1.17383,-4.49609 z m -45.56445,0.55859 c 0.1565,-0.0332 -0.36101,0.22734 -1.38672,0.25196 0.55402,-0.10917 1.29112,-0.23165 1.38672,-0.25196 z m 39.79492,4.99024 c 0.11751,0.42179 0.25064,1.32147 0.28515,1.42773 0.071,0.21865 -0.12239,-0.0146 -0.28711,-1.41601 -2.8e-4,-0.002 0.002,-0.009 0.002,-0.0117 z m 13.50781,6.03515 c 0.13,-0.17738 0.0282,0.0789 -0.4043,0.5293 0.102,-0.15354 0.35908,-0.4676 0.4043,-0.5293 z"
         id="path442" />
      <path
         style="baseline-shift:baseline;display:inline;overflow:visible;opacity:1;vector-effect:none;fill-rule:evenodd;enable-background:accumulate;stop-color:#000000;stop-opacity:1"
         d="m 559.65625,312.16406 -7.00977,45.56446 19.76758,3.04101 7.00977,-45.5625 z"
         id="path443" />
    </g>
  </g>
</svg>
