<?xml version="1.0" encoding="UTF-8" standalone="no"?>
<!-- Created with Inkscape (http://www.inkscape.org/) -->

<svg
   width="1000"
   height="1000"
   viewBox="0 0 1000 1000"
   version="1.1"
   id="svg1"
   xmlns:xlink="http://www.w3.org/1999/xlink"
   xmlns="http://www.w3.org/2000/svg"
   xmlns:svg="http://www.w3.org/2000/svg">
  <defs
     id="defs1">
    <pattern
       xlink:href="#pattern359"
       preserveAspectRatio="xMidYMid"
       id="pattern372"
       patternTransform="matrix(0.5,0,0,0.5,147.15462,1548.2922)" />
    <pattern
       xlink:href="#pattern357"
       preserveAspectRatio="xMidYMid"
       id="pattern371"
       patternTransform="matrix(0.5,0,0,0.5,221.32076,1552.4298)" />
    <pattern
       xlink:href="#pattern358"
       preserveAspectRatio="xMidYMid"
       id="pattern370"
       patternTransform="matrix(0.5,0,0,0.5,230.96346,1527.8214)" />
    <pattern
       xlink:href="#pattern355"
       preserveAspectRatio="xMidYMid"
       id="pattern369"
       patternTransform="matrix(0.5,0,0,0.5,287.08178,1553.6581)" />
    <pattern
       xlink:href="#pattern354"
       preserveAspectRatio="xMidYMid"
       id="pattern368"
       patternTransform="matrix(0.5,0,0,0.5,230.97274,1529.1717)" />
    <pattern
       xlink:href="#pattern342"
       preserveAspectRatio="xMidYMid"
       id="pattern360"
       patternTransform="matrix(0.5,0,0,0.5,210.45332,1525.5392)" />
    <pattern
       xlink:href="#pattern342"
       preserveAspectRatio="xMidYMid"
       id="pattern359"
       patternTransform="matrix(0.5,0,0,0.5,152.11125,1550.7705)" />
    <pattern
       xlink:href="#pattern342"
       preserveAspectRatio="xMidYMid"
       id="pattern358"
       patternTransform="matrix(0.5,0,0,0.5,202.11125,1533.2444)" />
    <pattern
       xlink:href="#pattern342"
       preserveAspectRatio="xMidYMid"
       id="pattern357"
       patternTransform="matrix(0.5,0,0,0.5,211.4075,1546.234)" />
    <pattern
       xlink:href="#pattern342"
       preserveAspectRatio="xMidYMid"
       id="pattern356"
       patternTransform="matrix(0.5,0,0,0.5,232.14929,1573.2544)" />
    <pattern
       xlink:href="#pattern342"
       preserveAspectRatio="xMidYMid"
       id="pattern355"
       patternTransform="matrix(0.5,0,0,0.5,275,1552.7287)" />
    <pattern
       xlink:href="#pattern342"
       preserveAspectRatio="xMidYMid"
       id="pattern354"
       patternTransform="matrix(0.5,0,0,0.5,235,1529.7913)" />
    <pattern
       xlink:href="#shading24"
       preserveAspectRatio="xMidYMid"
       id="pattern342"
       patternTransform="matrix(0.5,0,0,0.5,213.95332,1537.5392)"
       x="0"
       y="0" />
    <pattern
       patternUnits="userSpaceOnUse"
       width="338.5925"
       height="42.989567"
       patternTransform="translate(213.95332,1537.5392) scale(0.5)"
       preserveAspectRatio="xMidYMid"
       id="shading24"
       style="fill:#000000">
      <path
         style="fill-rule:nonzero;stroke:none;stroke-width:0.1;stroke-linecap:square;paint-order:markers fill stroke;stop-color:#000000"
         d="m 1806.4991,-758.06464 v 18.86792 c 55.9187,0 121.0493,0.59523 193.5686,3.15628 72.9408,2.57593 146.0589,6.87694 222.9288,13.47675 119.09,10.22471 223.0762,23.76065 340.6056,39.2177 117.5025,15.4535 222.0471,29.0563 341.8507,39.3312 77.366,6.63525 151.0001,10.96128 224.4674,13.55245 73.0344,2.5759 138.631,3.17493 194.9247,3.17493 -55.9642,0 -122.2215,-1.36594 -194.8324,-5.25394 -73.2143,-3.92032 -146.9676,-10.0663 -223.8166,-18.88656 -118.8791,-13.6442 -223.3242,-31.02113 -339.8009,-50.57815 -116.4705,-19.55598 -221.1862,-36.99475 -340.3724,-50.69165 -77.0605,-8.8558 -150.9942,-15.0266 -224.3694,-18.96225 -72.7637,-3.90286 -139.1256,-5.27261 -195.1541,-5.27261 z m 0,37.81515 v 18.86793 c 55.9187,0 121.0493,0.59523 193.5686,3.15627 72.9408,2.57593 146.0589,6.87694 222.9288,13.47676 119.09,10.22471 223.0762,23.76065 340.6056,39.2177 117.5025,15.4535 222.0471,29.0563 341.8507,39.33119 77.366,6.63526 151.0001,10.96128 224.4674,13.55245 73.0344,2.5759 138.631,3.17493 194.9247,3.17493 -55.9642,0 -122.2215,-1.36594 -194.8324,-5.25394 -73.2143,-3.92031 -146.9676,-10.0663 -223.8166,-18.88656 -118.8791,-13.6442 -223.3242,-31.02112 -339.8009,-50.57815 -116.4705,-19.55598 -221.1862,-36.99475 -340.3724,-50.69165 -77.0605,-8.8558 -150.9942,-15.02659 -224.3694,-18.96225 -72.7637,-3.90286 -139.1256,-5.2726 -195.1541,-5.2726 z m 0,37.81516 v 18.86792 c 55.9187,0 121.0493,0.59523 193.5686,3.15628 72.9408,2.57593 146.0589,6.87694 222.9288,13.47675 119.09,10.22471 223.0762,23.76065 340.6056,39.2177 117.5025,15.4535 222.0471,29.0563 341.8507,39.3312 77.366,6.63525 151.0001,10.96128 224.4674,13.55245 73.0344,2.5759 138.631,3.17493 194.9247,3.17493 -55.9642,0 -122.2215,-1.36594 -194.8324,-5.25394 -73.2143,-3.92032 -146.9676,-10.0663 -223.8166,-18.88656 -118.8791,-13.6442 -223.3242,-31.02113 -339.8009,-50.57815 -116.4705,-19.55598 -221.1862,-36.99475 -340.3724,-50.69165 -77.0605,-8.8558 -150.9942,-15.0266 -224.3694,-18.96225 -72.7637,-3.90286 -139.1256,-5.27261 -195.1541,-5.27261 z m 0,37.81515 v 18.86793 c 55.9187,0 121.0493,0.59523 193.5686,3.15627 72.9408,2.57593 146.0589,6.87694 222.9288,13.47676 119.09,10.22471 223.0762,23.76065 340.6056,39.2177 117.5025,15.4535 222.0471,29.0563 341.8507,39.33119 77.366,6.63526 151.0001,10.96128 224.4674,13.55245 73.0344,2.5759 138.631,3.17494 194.9247,3.17494 -55.9642,0 -122.2215,-1.36595 -194.8324,-5.25395 -73.2143,-3.92031 -146.9676,-10.0663 -223.8166,-18.88656 -118.8791,-13.6442 -223.3242,-31.02112 -339.8009,-50.57815 -116.4705,-19.55598 -221.1862,-36.99475 -340.3724,-50.69165 -77.0605,-8.8558 -150.9942,-15.02659 -224.3694,-18.96225 -72.7637,-3.90286 -139.1256,-5.2726 -195.1541,-5.2726 z m 0,37.81516 v 18.86792 c 55.9187,0 121.0493,0.59523 193.5686,3.15628 72.9408,2.57593 146.0589,6.87694 222.9288,13.47675 119.09,10.22471 223.0762,23.76065 340.6056,39.2177 117.5025,15.4535 222.0471,29.0563 341.8507,39.3312 77.366,6.63525 151.0001,10.96128 224.4674,13.55245 73.0344,2.5759 138.631,3.17493 194.9247,3.17493 -55.9642,0 -122.2215,-1.36594 -194.8324,-5.25394 -73.2143,-3.92032 -146.9676,-10.0663 -223.8166,-18.88656 -118.8791,-13.6442 -223.3242,-31.02113 -339.8009,-50.57815 -116.4705,-19.55598 -221.1862,-36.99475 -340.3724,-50.69165 -77.0605,-8.8558 -150.9942,-15.0266 -224.3694,-18.96225 -72.7637,-3.90286 -139.1256,-5.27261 -195.1541,-5.27261 z m 0,37.81515 v 18.86793 c 55.9187,0 121.0493,0.59523 193.5686,3.15627 72.9408,2.57593 146.0589,6.87694 222.9288,13.47676 119.09,10.22471 223.0762,23.76065 340.6056,39.2177 117.5025,15.4535 222.0471,29.0563 341.8507,39.33119 77.366,6.63526 151.0001,10.96128 224.4674,13.55245 73.0344,2.5759 138.631,3.17494 194.9247,3.17494 -55.9642,0 -122.2215,-1.36595 -194.8324,-5.25395 -73.2143,-3.92031 -146.9676,-10.0663 -223.8166,-18.88656 -118.8791,-13.6442 -223.3242,-31.02112 -339.8009,-50.57815 -116.4705,-19.55598 -221.1862,-36.99475 -340.3724,-50.69165 -77.0605,-8.8558 -150.9942,-15.02659 -224.3694,-18.96225 -72.7637,-3.90286 -139.1256,-5.2726 -195.1541,-5.2726 z m 0,37.81516 v 18.86792 c 55.9187,0 121.0493,0.59523 193.5686,3.15628 72.9408,2.57593 146.0589,6.87694 222.9288,13.47675 119.09,10.22471 223.0762,23.76065 340.6056,39.2177 117.5025,15.4535 222.0471,29.0563 341.8507,39.3312 77.366,6.63525 151.0001,10.96128 224.4674,13.55245 73.0344,2.5759 138.631,3.17493 194.9247,3.17493 -55.9642,0 -122.2215,-1.36594 -194.8324,-5.25394 -73.2143,-3.92032 -146.9676,-10.0663 -223.8166,-18.88656 -118.8791,-13.6442 -223.3242,-31.02113 -339.8009,-50.57815 -116.4705,-19.55598 -221.1862,-36.99475 -340.3724,-50.69165 -77.0605,-8.8558 -150.9942,-15.0266 -224.3694,-18.96225 -72.7637,-3.90286 -139.1256,-5.27261 -195.1541,-5.27261 z"
         id="use26"
         transform="matrix(0.22300099,0,0,0.37823052,-402.85121,237.25945)" />
    </pattern>
    <clipPath
       clipPathUnits="userSpaceOnUse"
       id="clipPath54">
      <path
         id="path336"
         style="stroke-width:0.0999999;stroke-linecap:square;paint-order:markers fill stroke;stop-color:#000000"
         d="m 1691.1994,-792.32001 h 1634.8919 v 92.82806 H 1691.1994 Z" />
    </clipPath>
    <clipPath
       clipPathUnits="userSpaceOnUse"
       id="clipPath33">
      <rect
         style="fill:#000000;stroke:none;stroke-width:0.999995;stroke-linecap:butt;stroke-linejoin:bevel;paint-order:stroke markers fill;stop-color:#000000"
         id="rect33"
         width="46.19186"
         height="80.006783"
         x="74.999985"
         y="399.99661" />
    </clipPath>
    <clipPath
       clipPathUnits="userSpaceOnUse"
       id="clipPath27">
      <rect
         style="fill:none;stroke:#000000;stroke-width:0.999999;stroke-linecap:butt;stroke-linejoin:bevel;paint-order:stroke markers fill;stop-color:#000000"
         id="rect28-6"
         width="46.160622"
         height="39.922417"
         x="86.574379"
         y="420.06253" />
    </clipPath>
    <clipPath
       clipPathUnits="userSpaceOnUse"
       id="clipPath25">
      <rect
         style="fill:#ff0000;stroke:none;stroke-width:3;stroke-linecap:square;stroke-linejoin:miter;paint-order:stroke markers fill;stop-color:#000000"
         id="rect25-8"
         width="78"
         height="45.033199"
         x="763.61322"
         y="452.82422" />
    </clipPath>
    <clipPath
       clipPathUnits="userSpaceOnUse"
       id="clipPath15">
      <rect
         style="fill:none;stroke:#000000;stroke-linecap:butt;stroke-linejoin:bevel;paint-order:stroke markers fill;stop-color:#000000"
         id="rect15-7"
         width="45.034248"
         height="38.955639"
         x="262.48285"
         y="121.00073" />
    </clipPath>
    <linearGradient
       id="swatch75">
      <stop
         style="stop-color:#000000;stop-opacity:1;"
         offset="0"
         id="stop75" />
    </linearGradient>
  </defs>
  <g
     id="layer70"
     style="display:inline">
    <g
       id="layer81"
       style="display:inline">
      <path
         style="baseline-shift:baseline;display:inline;overflow:visible;opacity:1;vector-effect:none;fill-rule:evenodd;enable-background:accumulate;stop-color:#000000;stop-opacity:1"
         d="m 457.90039,194.51953 c 0,7.007 0.8376,5.29506 -1.11719,10.50781 v 0.002 c -0.0955,0.25458 -1.98444,2.4299 -3.62695,7.35742 -1.56467,4.69403 -1.59913,8.02932 -1.9668,9.5 -0.89506,3.58029 -2.25302,7.56355 -3.46679,12.11523 -1.39428,5.22853 -2.21113,9.85138 -3.38672,13.61328 -0.25777,0.82485 -0.31197,0.97259 -0.55078,1.73438 -2.90491,1.98063 -2.41771,2.68681 -2.73829,3.25976 -1.43957,2.57289 -1.77689,3.92854 -3.125,7.6836 -1.3481,3.75506 -3.2122,9.18543 -5.79492,16.93359 -2.76997,8.3099 -3.45799,15.62983 -5.25781,21.0293 -1.41317,4.23951 -4.06472,9.02893 -6.66211,14.87305 l -0.35156,0.79296 -0.21094,0.84375 c -1.8591,7.43642 -3.13429,14.3531 -5.07617,20.39454 -2.85142,8.87107 -6.77485,17.91512 -10.37109,27.625 -2.38885,6.44988 -4.73871,12.91289 -7.05079,19.38671 -3.41271,9.55562 -7.64326,19.49836 -10.72265,30.44727 -2.75351,9.7903 -3.5514,18.9323 -5.36914,26.72266 -1.94191,8.32246 -4.67201,16.93023 -6.97266,26.13281 -6.28351,25.13406 -6.9252,32.10107 -13.90625,55.66211 -1.89961,6.41121 -4.74803,13.27565 -7.02148,21.07031 l 0.36523,-1.03711 c -6.11706,14.71957 -6.03707,28.77329 -9.14258,39.64258 -1.54195,5.39685 -4.55913,11.50071 -6.93164,19.01367 -1.74349,5.52107 -2.67423,8.81601 -3.23828,11.3457 -0.56405,2.5297 -0.70981,4.76898 -0.73633,5.7168 -0.0265,0.94782 0.0439,0.70523 -0.29883,2.39844 -0.34268,1.69321 -1.13747,4.89084 -2.79296,10.51953 -0.96985,3.29747 -3.52048,7.76202 -5.29883,14.16406 -1.87459,6.74857 -2.55772,12.9226 -3.65625,18.14063 -1.00531,4.77519 -2.56716,10.10024 -3.58203,16.18945 -1.05913,6.35477 -1.02838,11.66599 -1.73633,15.67774 -0.51884,2.9401 -2.81507,7.62671 -3.5957,14.65234 -0.88473,7.96254 0.38048,13.89319 -0.008,17.58203 -0.33458,3.17859 -2.61453,8.20691 -3.49023,15.65039 -0.77648,6.60005 0.14212,11.50923 -0.0488,14.56445 -0.22518,3.60272 -1.26727,8.16041 -1.73828,13.8125 -0.30836,3.70038 -0.0813,5.45136 0.0117,5.95313 -0.22682,0.0703 -0.91572,1.74459 -1.60352,5.18359 -0.10581,0.52907 -0.0525,0.80126 -0.0976,1.24805 -0.49123,0.76034 -0.95864,1.67667 -1.33594,2.80859 -0.78423,2.35345 -0.92524,4.08189 -0.88086,5.2461 -0.11133,0.19749 -0.2215,0.23597 -0.33008,0.45312 -0.39193,0.78388 -0.57089,1.46282 -0.76367,2.14453 -0.33929,0.48253 -0.66256,0.70794 -0.98828,1.35938 -0.68521,1.37042 -0.94211,2.54162 -1.07227,3.5918 -0.3343,0.67181 -0.70591,1.4263 -1.22265,2.97656 -0.93454,2.8035 -0.89687,4.44877 -0.74219,5.05664 -0.15887,0.26863 -0.31293,0.33484 -0.4668,0.64258 -1.46386,2.92784 -1.20407,5.41333 -1.0957,6.4082 0.10837,0.99487 0.0391,1.01499 0.0391,-0.18359 v 1.75195 5.25781 h 20 v -5.08203 c 0.23917,-0.37395 0.46732,-0.50105 0.69727,-0.96094 1.46392,-2.9279 1.20211,-5.41333 1.09375,-6.4082 -0.10837,-0.99487 -0.0391,-1.01502 -0.0391,0.18359 v -0.82812 c 0.33551,-0.66903 0.71603,-1.44692 1.24024,-3.01953 0.098,-0.29389 0.10886,-0.50681 0.18164,-0.7793 0.3527,-0.49532 0.6886,-0.73657 1.02734,-1.41406 0.3917,-0.7834 0.5709,-1.46316 0.76367,-2.14453 0.33949,-0.48271 0.66238,-0.70953 0.98829,-1.36133 1.29031,-2.58067 1.20956,-4.64484 1.10546,-5.82031 0.43131,-0.71007 0.85359,-1.49241 1.18946,-2.5 h 0.002 c 0.77842,-2.33531 0.70585,-3.90433 0.58594,-5.00782 0.30226,-0.24384 1.02812,-1.65182 1.57812,-5.50195 0.67508,-4.72553 0.0428,-7.31052 0.0664,-7.59375 0.31121,-3.73441 1.40519,-8.42663 1.76758,-14.22461 0.39205,-6.27289 -0.36439,-10.79431 -0.0488,-13.47656 0.3828,-3.25384 2.7246,-8.35925 3.51758,-15.89258 0.83472,-7.92986 -0.41129,-13.8179 -0.006,-17.4668 0.28327,-2.54941 2.25866,-6.83945 3.41406,-13.38672 1.13057,-6.40658 1.08748,-11.78463 1.76758,-15.86523 0.75589,-4.53533 2.21408,-9.59062 3.42773,-15.35547 1.35593,-6.44067 2.03935,-12.17717 3.35352,-16.9082 0.89325,-3.21567 3.3701,-7.59621 5.2168,-13.875 1.73876,-5.91179 2.66356,-9.51003 3.20703,-12.19531 0.54347,-2.68529 0.66377,-4.88872 0.68945,-5.80664 0.0257,-0.91793 -0.0647,-0.44936 0.26367,-1.92188 0.32833,-1.47252 1.12781,-4.41091 2.79102,-9.67773 1.74529,-5.52678 4.87514,-11.78953 7.08984,-19.54102 4.13553,-14.47435 4.2506,-27.52418 8.38086,-37.46289 l 0.21094,-0.50781 0.1543,-0.5293 c 1.86434,-6.39203 4.69946,-13.23055 6.99804,-20.98828 7.19146,-24.27117 7.98485,-31.90224 14.13281,-56.49414 2.09816,-8.39262 4.86759,-17.09964 7.04688,-26.43945 2.24316,-9.61355 3.05946,-18.43796 5.14453,-25.85157 2.62297,-9.32608 6.63558,-18.85578 10.30664,-29.13476 2.28714,-6.404 4.60826,-12.79268 6.96875,-19.16602 3.33744,-9.01108 7.40053,-18.31816 10.6582,-28.45312 2.37413,-7.3862 3.68173,-14.40872 5.23243,-20.77344 2.06129,-4.50341 4.88407,-9.57801 7,-15.92578 2.76996,-8.30989 3.45798,-15.62984 5.25781,-21.0293 0.7793,-2.33791 1.07163,-3.11302 1.7207,-5.03125 1.1083,-0.66978 1.67695,-1.37654 2.07813,-1.8125 0.68132,-0.74039 0.93839,-1.17257 1.15039,-1.51172 1.69595,-2.71317 1.13525,-2.32942 1.46094,-3.23828 0.32568,-0.90886 0.71644,-2.062 1.22851,-3.62109 1.02414,-3.11819 2.52201,-7.82628 4.6875,-14.75586 1.69797,-5.43352 2.53305,-10.34565 3.62109,-14.42578 0.97771,-3.66642 2.37717,-7.74692 3.54493,-12.41797 1.07715,-4.30858 1.21798,-7.068 1.53711,-8.02539 0.01,-0.0291 1.64181,-2.02267 3.38086,-6.66016 2.68349,-7.15599 2.39062,-11.70151 2.39062,-17.53125 z m -17.92187,61.78711 c 0.0511,-0.0831 0.1615,0.31268 0.13671,0.45898 -0.008,0.0455 -0.0574,0.25749 -0.0684,0.31641 -0.002,-0.14968 -0.0848,-0.74871 -0.0684,-0.77539 z m 17.54492,14.23242 c -0.0292,0.41832 -0.10571,0.4886 -0.11524,0.55078 -0.0204,0.13317 0.0602,-0.2774 0.11524,-0.55078 z M 309.11328,779.33203 c -0.0936,0.0608 -0.65348,0.48199 -1.01367,0.70508 0.7034,-0.6769 1.20461,-0.82912 1.01367,-0.70508 z m -2.21484,7.33008 c -0.0621,0.0455 -0.37815,0.30317 -0.53321,0.40625 0.45114,-0.43354 0.71076,-0.53638 0.53321,-0.40625 z m -1.75196,3.50586 c -0.062,0.0455 -0.37835,0.30331 -0.5332,0.40625 0.45115,-0.43357 0.71075,-0.53637 0.5332,-0.40625 z m 16.56836,4.23437 c -0.003,-0.0139 0.022,0.12273 0.0234,0.11914 -6e-4,8e-4 -0.001,10e-4 -0.002,0.002 -0.003,-0.0121 -0.0197,-0.11275 -0.0215,-0.1211 z m 0.0879,0.45508 c 0.0716,0.18172 0.14777,0.25313 0.16407,0.93164 -0.073,-0.37061 -0.11459,-0.75716 -0.16797,-0.92773 0.002,-0.002 0.002,-0.002 0.004,-0.004 z m -0.77929,0.54297 c -0.70261,0.67565 -1.20447,0.82902 -1.01367,0.70508 0.0936,-0.0608 0.65349,-0.482 1.01367,-0.70508 z m -19.125,1.77148 c 0.10917,0.55401 0.23165,1.29114 0.25195,1.38672 0.0332,0.15649 -0.22734,-0.361 -0.25195,-1.38672 z m -1.70508,3.62891 c 0.0578,0.29881 0.10409,0.87532 0.12305,0.97852 0.0489,0.26633 -0.0967,-0.14057 -0.12305,-0.97852 z m 19.06055,1.58789 c -0.45114,0.43355 -0.71075,0.53637 -0.53321,0.40625 0.0621,-0.0455 0.37816,-0.30317 0.53321,-0.40625 z m -17.61329,0.0449 c -0.0621,0.0455 -0.37815,0.30317 -0.5332,0.40625 0.45114,-0.43354 0.71076,-0.53637 0.5332,-0.40625 z m 15.85743,3.46094 c -0.45036,0.43249 -0.70669,0.5343 -0.5293,0.4043 0.0617,-0.0452 0.37575,-0.30229 0.5293,-0.4043 z m -3.50196,12.26563 c -0.45114,0.43356 -0.71075,0.53637 -0.5332,0.40625 0.0621,-0.0455 0.37815,-0.30317 0.5332,-0.40625 z"
         id="path444" />
      <path
         style="baseline-shift:baseline;display:inline;overflow:visible;opacity:1;vector-effect:none;fill-rule:evenodd;enable-background:accumulate;stop-color:#000000;stop-opacity:1"
         d="m 641.50195,518.9082 c -3.41598,2.0496 -3.89682,2.35948 -5.47656,3.32227 -0.0443,0.0126 -0.16213,0.0232 -0.20508,0.0352 -3.74544,1.04043 -5.08377,1.99306 -11.16797,5.03516 -4.41851,2.20925 -7.08911,4.41858 -8.76367,5.25586 0.87759,-0.43879 -1.07385,-0.33708 -5.25586,1.75391 -5.05388,2.52694 -7.4087,3.77516 -9.38281,5.0957 -0.3804,0.25446 -0.81335,0.59654 -1.2793,0.98047 -1.25682,0.48342 -2.36883,0.90778 -5.98047,2.29687 -4.55369,1.75142 -9.21578,3.45445 -13.9414,5.22657 -4.01968,1.50738 -9.268,2.81953 -14.98047,5.67578 -7.70822,3.8541 -12.83537,8.39544 -17.15625,10.33984 -3.94442,1.77499 -9.61097,2.76501 -16.33203,4.81055 -7.20238,2.19203 -15.20837,4.06887 -23.45899,7.24219 -8.98688,3.45648 -16.18946,7.93631 -22.83593,10.5371 -4.64345,1.81701 -10.38824,3.05269 -16.79297,5.00196 -7.34001,2.23392 -15.20935,4.27122 -23.25586,7.16797 -7.69914,2.77168 -14.77986,6.0633 -21.58203,8.97851 -5.33864,2.28799 -10.70531,4.64152 -16.06055,7.14063 -4.45982,2.08124 -7.58582,4.10511 -9.87695,4.98633 -2.46261,0.94715 -6.66437,1.50039 -12.03907,3.41992 -5.48761,1.95987 -9.28714,4.26108 -12.0664,5.1875 -0.4723,0.15743 -3.58261,0.0256 -8.76172,1.75195 -4.26714,1.42239 -6.827,3.30217 -8.32031,4.04883 -3.50487,1.75243 -7.01077,3.50343 -10.51563,5.25586 -1.16833,0.58416 -2.33564,1.16977 -3.5039,1.7539 -0.80646,0.40324 -0.97804,0.47619 -1.375,0.66016 -1.11844,-0.13175 -2.8145,-0.29736 -5.33985,0.33398 -2.85979,0.71495 -4.35636,2.05867 -5.37305,3.21094 -1.95429,-0.10556 -5.16157,0.0503 -8.03515,2.92383 v 0.002 c -3.53976,3.53985 -3.1647,8.21145 -2.95117,9.50782 0.21353,1.29636 0.0215,1.37936 0.0215,-0.68555 v 1.75195 c 0,-1.45782 -1.72056,1.54392 0.80859,7.44531 1.86948,4.36208 4.27826,7.73149 6.25586,10.55665 2.96552,4.23644 5.68507,6.77761 6.88282,8.57421 -0.4094,-0.61409 -0.17317,2.93799 4.29882,8.04883 4.70158,5.37323 8.57779,6.80842 8.88868,7.15039 1.76805,1.94487 3.74691,6.83438 8.81445,12.32422 5.05237,5.47341 10.00787,8.26764 12.54297,10.80274 2.89799,2.89799 5.88449,7.29025 10.25781,12 4.27067,4.59918 8.60891,8.61867 12.52344,12.5332 3.91454,3.91454 7.93598,8.25473 12.53515,12.52539 7.48823,6.95334 10.39423,9.47887 13.72071,11.63477 3.32648,2.1559 5.58827,3.14349 13.82226,8.63281 3.44295,2.2953 7.33351,5.73392 12.57422,8.95898 6.36211,3.91515 14.91258,7.3947 21.09961,9.64453 4.04249,1.46999 7.5914,2.40805 10.41992,3.46875 0.39035,0.14638 1.03368,0.46239 1.8711,0.96485 -0.0424,-0.0255 1.79294,2.38061 6.89258,4.29297 2.60997,0.97874 4.47134,1.13353 5.87109,1.21679 0.7286,1.43027 1.8903,3.10396 4.35937,4.75 3.33185,2.22123 6.29297,2.43758 7.77344,2.61719 0.71217,0.0864 1.10122,0.17567 1.23828,0.20117 3.77221,1.71096 4.58761,2.22798 4.55078,2.18946 -0.0377,-0.0394 2.01523,2.54709 5.80469,5.85742 3.00226,3.70154 7.4307,5.67998 9.79102,6.23437 0.36107,0.0848 0.3598,0.1012 0.64648,0.17774 0.47228,0.77583 1.06893,1.60408 1.9668,2.50195 2.59854,2.59854 3.46422,2.49613 4.65625,3.04102 1.19203,0.54488 2.35249,0.99433 3.47851,1.40625 1.12603,0.41191 2.19608,0.77277 3.09961,1.06054 0.90353,0.28777 0.92251,0.38919 2.63868,0.73242 1.36786,0.27358 2.43741,0.30746 3.24804,0.27149 0.3841,0.18712 0.55953,0.27391 1.25,0.61914 0.32507,0.16253 1.78651,1.28559 4.81446,2.29492 2.37949,0.79317 3.98426,0.89168 4.80078,0.81055 0.2925,0.10679 0.61995,0.26017 0.90039,0.40039 1.92578,0.96289 4.73565,1.72591 7.6914,1.13476 0.45197,-0.0904 0.76097,-0.36154 1.1875,-0.51953 -0.44439,0.12509 -0.862,0.26181 -1.44922,0.33008 -0.85789,0.0997 -2.98909,-0.10367 -2.98828,-0.10351 8.1e-4,1.5e-4 -3.2468,-1.21917 -3.24609,-1.21875 1.3e-4,7e-5 -0.30924,-0.25543 -0.43945,-0.36329 0.99594,-0.0208 2.16157,-0.0335 2.71875,-0.0781 0.43649,-0.035 0.78498,-0.0734 1.17968,-0.13867 0.0488,-0.008 0.15235,-0.0254 0.15235,-0.0254 0,0 -0.67322,-3.52467 -1.17578,-6.21094 h 0.0996 c -0.79012,-4.51416 -1.35092,-7.73339 -1.8125,-10.46094 0.61578,-0.3081 1.16306,-0.68457 1.85156,-0.82226 2.40812,-0.48163 4.41633,0.20914 5.17383,0.58789 -0.5695,-0.28475 0.82036,-1.55095 2.96679,3.94531 0.68534,1.75491 0.44302,4.45667 -0.25781,6.75 h 4.57227 c 0,-0.59843 0.007,-0.58302 0.0254,-0.82031 0.005,-0.0593 0.0146,-0.12887 0.0293,-0.46094 0.0147,-0.33207 0.61994,-0.28265 -0.50781,-3.66602 -0.14097,-0.42292 -0.33383,-0.91881 -0.63867,-1.49804 -0.30484,-0.57924 -1.33728,-1.94657 -1.33789,-1.94727 -6.1e-4,-7e-4 -2.42898,-2.0113 -2.42969,-2.01172 -7.1e-4,-4.2e-4 -3.24919,-1.22055 -3.25,-1.2207 -8.1e-4,-1.5e-4 -2.13442,-0.20152 -2.99414,-0.10156 -0.85972,0.0999 -1.55624,0.2887 -2.12109,0.48437 -0.56903,0.19712 -0.76207,0.36431 -1.1211,0.55274 -0.11568,-0.68606 -0.49261,-2.8056 -0.48632,-2.80664 0.35746,-0.0591 0.5118,-0.0666 0.48437,-0.0645 -0.0454,0.004 -0.98367,0.0344 -2.20117,0.0469 -0.31719,-0.18113 -0.10427,-0.11658 -1.2461,-0.6875 0.12526,0.0626 -1.47952,-1.49146 -5.55273,-2.50977 -2.25289,-0.56322 -3.68387,-0.42617 -4.56836,-0.31836 -0.62558,-0.20067 -1.41589,-0.46702 -2.18945,-0.75 -0.0474,-0.0173 -0.0719,-0.0294 -0.11914,-0.0469 -2.7e-4,-10e-5 2.6e-4,-0.002 0,-0.002 -0.63576,-1.27483 -1.70683,-2.7933 -3.56836,-4.18945 -3.88304,-2.91228 -6.80403,-3.20127 -8.35156,-3.39844 l -0.0586,-0.12304 -1.70117,-1.41993 c -3.28381,-2.7365 -2.61578,-2.62289 -4.95898,-5.07421 -2.34321,-2.45133 -5.58906,-4.31086 -11.40235,-6.89454 -1.95416,-0.86851 -3.40825,-1.16028 -4.58594,-1.3164 -0.78915,-1.61132 -2.03717,-3.52964 -5.02734,-5.23828 -3.57653,-2.04375 -6.69866,-2.18189 -8.46094,-2.32422 -1.36733,-0.11043 -1.41377,-0.13217 -1.35937,-0.084 -0.0812,-0.2298 -1.3617,-1.14983 -4.01563,-2.74218 -1.40268,-0.84161 -3.08297,-1.77012 -5.13867,-2.54102 -4.08991,-1.53372 -7.7078,-2.48395 -10.60937,-3.53906 -5.22363,-1.89951 -13.83881,-5.65667 -17.45313,-7.88086 -3.31844,-2.04212 -7.04179,-5.28697 -11.96094,-8.56641 -8.7183,-5.81219 -12.17196,-7.56658 -14.03711,-8.77539 -1.86514,-1.2088 -3.62621,-2.66798 -10.99218,-9.50781 -3.87593,-3.59908 -7.73652,-7.74628 -12,-12.00977 -4.26349,-4.26348 -8.41071,-8.12603 -12.00977,-12.00195 -2.95587,-3.18325 -6.05317,-7.81488 -10.77148,-12.5332 -5.08122,-5.08121 -9.73679,-7.78533 -11.99024,-10.22656 -1.74915,-1.89492 -3.71863,-6.71941 -8.71094,-12.21094 -4.72117,-5.19328 -8.41026,-6.61061 -8.63476,-6.86719 1.03147,1.17882 0.59662,-1.01132 -2.71094,-5.97266 -2.95181,-4.42771 -5.81428,-7.05723 -7.13867,-8.94921 -0.83109,-1.18728 -1.17949,-1.97697 -1.83398,-3.00196 0.26763,-0.16518 0.63264,-0.27141 0.88867,-0.4414 0.93047,0.0272 2.07088,-0.0118 3.47656,-0.29297 4.72087,-0.9442 6.41621,-2.81358 6.01562,-2.61328 1.16831,-0.58415 2.33762,-1.16979 3.50586,-1.75391 3.50489,-1.75244 7.00882,-3.50343 10.51368,-5.25586 3.17984,-1.58992 5.01169,-2.73306 5.70117,-2.96289 0.47233,-0.15744 3.58259,-0.0256 8.76172,-1.75195 5.66157,-1.88719 9.57728,-4.29546 12.46875,-5.32813 2.63508,-0.94109 7.01645,-1.48184 12.49218,-3.58789 5.02361,-1.93217 8.51226,-4.29634 11.1543,-5.5293 5.0716,-2.36674 10.2451,-4.63433 15.48242,-6.8789 7.15759,-3.06753 13.88575,-6.17223 20.47657,-8.54492 6.9046,-2.48566 14.44467,-4.46074 22.30664,-6.85352 5.2641,-1.60212 11.54067,-2.88209 18.25586,-5.50977 8.93074,-3.49464 16.10299,-7.94586 22.72851,-10.49414 6.58066,-2.53102 14.10393,-4.34267 22.10352,-6.77734 4.94777,-1.50584 11.53628,-2.47472 18.71484,-5.70508 8.10356,-3.6466 13.41665,-8.45051 17.89453,-10.68945 3.21557,-1.60779 7.73198,-2.84041 13.0586,-4.83789 4.62069,-1.73277 9.33481,-3.45525 14.09765,-5.28711 4.85957,-1.86907 7.05187,-2.69488 8.29883,-3.18945 0.31174,-0.12365 0.55374,-0.2172 0.94141,-0.39063 0.19383,-0.0867 0.41257,-0.18207 0.85351,-0.42383 0.39866,-0.21857 1.00651,-0.25571 2.63086,-2.12695 0.83064,-0.47942 1.91177,-1.1346 5.68164,-3.01953 -0.87758,0.43879 1.07581,0.33708 5.25781,-1.75391 4.41849,-2.20925 7.08718,-4.41859 8.76172,-5.25586 2.84504,-1.42252 5.13575,-2.42816 6.56641,-3.05273 0.0352,0.0459 0.46483,0.60743 0.46484,0.60742 4.4e-4,-1.9e-4 0.65696,-0.31941 0.76172,-0.37695 0.20953,-0.11508 0.24705,-0.14036 0.29688,-0.16992 0.1993,-0.11826 0.22179,-0.13417 0.30078,-0.1836 0.0468,-0.0293 0.14808,-0.0973 0.20117,-0.13086 0.0511,-0.0327 -0.009,0.006 0.0879,-0.0547 0.81694,-0.50968 3.452,-2.13213 9.51758,-5.77148 l -3.20313,-5.33789 c -0.21676,-1.71968 -0.70439,-3.5557 -1.9375,-5.0957 -0.9004,-1.12451 -1.76158,-1.86489 -2.58789,-2.44532 z m -11.96289,9.36914 c 1.21237,1.58237 9.0901,11.85902 10.33008,13.47657 -0.19853,0.0259 -0.15373,0.0544 -0.44141,0.0742 -1.13647,0.0782 -4.48277,1.17051 -8.38671,-3.70507 -1.95198,-2.43779 -2.36812,-5.91156 -2.05469,-7.82813 0.14225,-0.86982 0.34417,-1.48878 0.55273,-2.01758 z m -22.80664,10.24219 c 0.0503,0.002 0.18992,0.008 0.25195,0.004 -0.008,-6e-5 -0.0268,0.002 -0.0352,0.002 -0.76042,-0.0377 -0.62312,-0.0242 -0.2168,-0.006 z m -1.72851,19.95703 c 0.31063,0.01 0.64085,0.0151 0.82421,0.0234 0.53533,0.0242 0.80323,0.0352 0.13282,0.002 -0.18198,-0.009 -0.43056,0.0475 -0.95703,-0.0254 z m -275.64649,88.17578 c -0.0381,0.0548 -0.18731,0.21032 -0.2168,0.25196 -0.30789,0.43468 -0.21686,0.21885 0.2168,-0.25196 z m 159.11914,160.60938 c 0.0147,0.0357 0.0779,0.17259 0.0937,0.21484 -0.34197,-0.50612 -0.29377,-0.69913 -0.0937,-0.21484 z m 52.91797,14.96094 c 0.26713,0.57104 0.25186,0.79596 0.11914,0.33789 -0.0151,-0.0523 -0.1009,-0.2676 -0.11914,-0.33789 z"
         id="path445" />
    </g>
  </g>
</svg>
