<?xml version="1.0" encoding="UTF-8" standalone="no"?>
<!-- Created with Inkscape (http://www.inkscape.org/) -->

<svg
   width="1000"
   height="1000"
   viewBox="0 0 1000 1000"
   version="1.1"
   id="svg1"
   xmlns:xlink="http://www.w3.org/1999/xlink"
   xmlns="http://www.w3.org/2000/svg"
   xmlns:svg="http://www.w3.org/2000/svg">
  <defs
     id="defs1">
    <pattern
       xlink:href="#pattern359"
       preserveAspectRatio="xMidYMid"
       id="pattern372"
       patternTransform="matrix(0.5,0,0,0.5,147.15462,1548.2922)" />
    <pattern
       xlink:href="#pattern357"
       preserveAspectRatio="xMidYMid"
       id="pattern371"
       patternTransform="matrix(0.5,0,0,0.5,221.32076,1552.4298)" />
    <pattern
       xlink:href="#pattern358"
       preserveAspectRatio="xMidYMid"
       id="pattern370"
       patternTransform="matrix(0.5,0,0,0.5,230.96346,1527.8214)" />
    <pattern
       xlink:href="#pattern355"
       preserveAspectRatio="xMidYMid"
       id="pattern369"
       patternTransform="matrix(0.5,0,0,0.5,287.08178,1553.6581)" />
    <pattern
       xlink:href="#pattern354"
       preserveAspectRatio="xMidYMid"
       id="pattern368"
       patternTransform="matrix(0.5,0,0,0.5,230.97274,1529.1717)" />
    <pattern
       xlink:href="#pattern342"
       preserveAspectRatio="xMidYMid"
       id="pattern360"
       patternTransform="matrix(0.5,0,0,0.5,210.45332,1525.5392)" />
    <pattern
       xlink:href="#pattern342"
       preserveAspectRatio="xMidYMid"
       id="pattern359"
       patternTransform="matrix(0.5,0,0,0.5,152.11125,1550.7705)" />
    <pattern
       xlink:href="#pattern342"
       preserveAspectRatio="xMidYMid"
       id="pattern358"
       patternTransform="matrix(0.5,0,0,0.5,202.11125,1533.2444)" />
    <pattern
       xlink:href="#pattern342"
       preserveAspectRatio="xMidYMid"
       id="pattern357"
       patternTransform="matrix(0.5,0,0,0.5,211.4075,1546.234)" />
    <pattern
       xlink:href="#pattern342"
       preserveAspectRatio="xMidYMid"
       id="pattern356"
       patternTransform="matrix(0.5,0,0,0.5,232.14929,1573.2544)" />
    <pattern
       xlink:href="#pattern342"
       preserveAspectRatio="xMidYMid"
       id="pattern355"
       patternTransform="matrix(0.5,0,0,0.5,275,1552.7287)" />
    <pattern
       xlink:href="#pattern342"
       preserveAspectRatio="xMidYMid"
       id="pattern354"
       patternTransform="matrix(0.5,0,0,0.5,235,1529.7913)" />
    <pattern
       xlink:href="#shading24"
       preserveAspectRatio="xMidYMid"
       id="pattern342"
       patternTransform="matrix(0.5,0,0,0.5,213.95332,1537.5392)"
       x="0"
       y="0" />
    <pattern
       patternUnits="userSpaceOnUse"
       width="338.5925"
       height="42.989567"
       patternTransform="translate(213.95332,1537.5392) scale(0.5)"
       preserveAspectRatio="xMidYMid"
       id="shading24"
       style="fill:#000000">
      <path
         style="fill-rule:nonzero;stroke:none;stroke-width:0.1;stroke-linecap:square;paint-order:markers fill stroke;stop-color:#000000"
         d="m 1806.4991,-758.06464 v 18.86792 c 55.9187,0 121.0493,0.59523 193.5686,3.15628 72.9408,2.57593 146.0589,6.87694 222.9288,13.47675 119.09,10.22471 223.0762,23.76065 340.6056,39.2177 117.5025,15.4535 222.0471,29.0563 341.8507,39.3312 77.366,6.63525 151.0001,10.96128 224.4674,13.55245 73.0344,2.5759 138.631,3.17493 194.9247,3.17493 -55.9642,0 -122.2215,-1.36594 -194.8324,-5.25394 -73.2143,-3.92032 -146.9676,-10.0663 -223.8166,-18.88656 -118.8791,-13.6442 -223.3242,-31.02113 -339.8009,-50.57815 -116.4705,-19.55598 -221.1862,-36.99475 -340.3724,-50.69165 -77.0605,-8.8558 -150.9942,-15.0266 -224.3694,-18.96225 -72.7637,-3.90286 -139.1256,-5.27261 -195.1541,-5.27261 z m 0,37.81515 v 18.86793 c 55.9187,0 121.0493,0.59523 193.5686,3.15627 72.9408,2.57593 146.0589,6.87694 222.9288,13.47676 119.09,10.22471 223.0762,23.76065 340.6056,39.2177 117.5025,15.4535 222.0471,29.0563 341.8507,39.33119 77.366,6.63526 151.0001,10.96128 224.4674,13.55245 73.0344,2.5759 138.631,3.17493 194.9247,3.17493 -55.9642,0 -122.2215,-1.36594 -194.8324,-5.25394 -73.2143,-3.92031 -146.9676,-10.0663 -223.8166,-18.88656 -118.8791,-13.6442 -223.3242,-31.02112 -339.8009,-50.57815 -116.4705,-19.55598 -221.1862,-36.99475 -340.3724,-50.69165 -77.0605,-8.8558 -150.9942,-15.02659 -224.3694,-18.96225 -72.7637,-3.90286 -139.1256,-5.2726 -195.1541,-5.2726 z m 0,37.81516 v 18.86792 c 55.9187,0 121.0493,0.59523 193.5686,3.15628 72.9408,2.57593 146.0589,6.87694 222.9288,13.47675 119.09,10.22471 223.0762,23.76065 340.6056,39.2177 117.5025,15.4535 222.0471,29.0563 341.8507,39.3312 77.366,6.63525 151.0001,10.96128 224.4674,13.55245 73.0344,2.5759 138.631,3.17493 194.9247,3.17493 -55.9642,0 -122.2215,-1.36594 -194.8324,-5.25394 -73.2143,-3.92032 -146.9676,-10.0663 -223.8166,-18.88656 -118.8791,-13.6442 -223.3242,-31.02113 -339.8009,-50.57815 -116.4705,-19.55598 -221.1862,-36.99475 -340.3724,-50.69165 -77.0605,-8.8558 -150.9942,-15.0266 -224.3694,-18.96225 -72.7637,-3.90286 -139.1256,-5.27261 -195.1541,-5.27261 z m 0,37.81515 v 18.86793 c 55.9187,0 121.0493,0.59523 193.5686,3.15627 72.9408,2.57593 146.0589,6.87694 222.9288,13.47676 119.09,10.22471 223.0762,23.76065 340.6056,39.2177 117.5025,15.4535 222.0471,29.0563 341.8507,39.33119 77.366,6.63526 151.0001,10.96128 224.4674,13.55245 73.0344,2.5759 138.631,3.17494 194.9247,3.17494 -55.9642,0 -122.2215,-1.36595 -194.8324,-5.25395 -73.2143,-3.92031 -146.9676,-10.0663 -223.8166,-18.88656 -118.8791,-13.6442 -223.3242,-31.02112 -339.8009,-50.57815 -116.4705,-19.55598 -221.1862,-36.99475 -340.3724,-50.69165 -77.0605,-8.8558 -150.9942,-15.02659 -224.3694,-18.96225 -72.7637,-3.90286 -139.1256,-5.2726 -195.1541,-5.2726 z m 0,37.81516 v 18.86792 c 55.9187,0 121.0493,0.59523 193.5686,3.15628 72.9408,2.57593 146.0589,6.87694 222.9288,13.47675 119.09,10.22471 223.0762,23.76065 340.6056,39.2177 117.5025,15.4535 222.0471,29.0563 341.8507,39.3312 77.366,6.63525 151.0001,10.96128 224.4674,13.55245 73.0344,2.5759 138.631,3.17493 194.9247,3.17493 -55.9642,0 -122.2215,-1.36594 -194.8324,-5.25394 -73.2143,-3.92032 -146.9676,-10.0663 -223.8166,-18.88656 -118.8791,-13.6442 -223.3242,-31.02113 -339.8009,-50.57815 -116.4705,-19.55598 -221.1862,-36.99475 -340.3724,-50.69165 -77.0605,-8.8558 -150.9942,-15.0266 -224.3694,-18.96225 -72.7637,-3.90286 -139.1256,-5.27261 -195.1541,-5.27261 z m 0,37.81515 v 18.86793 c 55.9187,0 121.0493,0.59523 193.5686,3.15627 72.9408,2.57593 146.0589,6.87694 222.9288,13.47676 119.09,10.22471 223.0762,23.76065 340.6056,39.2177 117.5025,15.4535 222.0471,29.0563 341.8507,39.33119 77.366,6.63526 151.0001,10.96128 224.4674,13.55245 73.0344,2.5759 138.631,3.17494 194.9247,3.17494 -55.9642,0 -122.2215,-1.36595 -194.8324,-5.25395 -73.2143,-3.92031 -146.9676,-10.0663 -223.8166,-18.88656 -118.8791,-13.6442 -223.3242,-31.02112 -339.8009,-50.57815 -116.4705,-19.55598 -221.1862,-36.99475 -340.3724,-50.69165 -77.0605,-8.8558 -150.9942,-15.02659 -224.3694,-18.96225 -72.7637,-3.90286 -139.1256,-5.2726 -195.1541,-5.2726 z m 0,37.81516 v 18.86792 c 55.9187,0 121.0493,0.59523 193.5686,3.15628 72.9408,2.57593 146.0589,6.87694 222.9288,13.47675 119.09,10.22471 223.0762,23.76065 340.6056,39.2177 117.5025,15.4535 222.0471,29.0563 341.8507,39.3312 77.366,6.63525 151.0001,10.96128 224.4674,13.55245 73.0344,2.5759 138.631,3.17493 194.9247,3.17493 -55.9642,0 -122.2215,-1.36594 -194.8324,-5.25394 -73.2143,-3.92032 -146.9676,-10.0663 -223.8166,-18.88656 -118.8791,-13.6442 -223.3242,-31.02113 -339.8009,-50.57815 -116.4705,-19.55598 -221.1862,-36.99475 -340.3724,-50.69165 -77.0605,-8.8558 -150.9942,-15.0266 -224.3694,-18.96225 -72.7637,-3.90286 -139.1256,-5.27261 -195.1541,-5.27261 z"
         id="use26"
         transform="matrix(0.22300099,0,0,0.37823052,-402.85121,237.25945)" />
    </pattern>
    <clipPath
       clipPathUnits="userSpaceOnUse"
       id="clipPath54">
      <path
         id="path336"
         style="stroke-width:0.0999999;stroke-linecap:square;paint-order:markers fill stroke;stop-color:#000000"
         d="m 1691.1994,-792.32001 h 1634.8919 v 92.82806 H 1691.1994 Z" />
    </clipPath>
    <clipPath
       clipPathUnits="userSpaceOnUse"
       id="clipPath33">
      <rect
         style="fill:#000000;stroke:none;stroke-width:0.999995;stroke-linecap:butt;stroke-linejoin:bevel;paint-order:stroke markers fill;stop-color:#000000"
         id="rect33"
         width="46.19186"
         height="80.006783"
         x="74.999985"
         y="399.99661" />
    </clipPath>
    <clipPath
       clipPathUnits="userSpaceOnUse"
       id="clipPath27">
      <rect
         style="fill:none;stroke:#000000;stroke-width:0.999999;stroke-linecap:butt;stroke-linejoin:bevel;paint-order:stroke markers fill;stop-color:#000000"
         id="rect28-6"
         width="46.160622"
         height="39.922417"
         x="86.574379"
         y="420.06253" />
    </clipPath>
    <clipPath
       clipPathUnits="userSpaceOnUse"
       id="clipPath25">
      <rect
         style="fill:#ff0000;stroke:none;stroke-width:3;stroke-linecap:square;stroke-linejoin:miter;paint-order:stroke markers fill;stop-color:#000000"
         id="rect25-8"
         width="78"
         height="45.033199"
         x="763.61322"
         y="452.82422" />
    </clipPath>
    <clipPath
       clipPathUnits="userSpaceOnUse"
       id="clipPath15">
      <rect
         style="fill:none;stroke:#000000;stroke-linecap:butt;stroke-linejoin:bevel;paint-order:stroke markers fill;stop-color:#000000"
         id="rect15-7"
         width="45.034248"
         height="38.955639"
         x="262.48285"
         y="121.00073" />
    </clipPath>
    <linearGradient
       id="swatch75">
      <stop
         style="stop-color:#000000;stop-opacity:1;"
         offset="0"
         id="stop75" />
    </linearGradient>
  </defs>
  <g
     id="layer70"
     style="display:inline">
    <g
       id="layer85"
       style="display:inline">
      <path
         style="baseline-shift:baseline;display:inline;overflow:visible;opacity:1;vector-effect:none;fill-rule:evenodd;enable-background:accumulate;stop-color:#000000;stop-opacity:1"
         d="m 524.47656,452.61133 c -0.14814,10e-4 -0.23175,0.003 -0.32422,0.006 -0.0847,0.003 -0.17919,0.01 -0.26562,0.0137 -0.002,9e-5 -0.004,-9e-5 -0.006,0 -0.27674,0.005 -0.8107,0.0117 -1.65625,0.0117 v 0.14648 c -0.11923,0.0157 -0.17465,0.0112 -0.30664,0.0312 -0.71229,0.10812 -1.42937,0.0615 -3.4668,1.01953 -1.01871,0.47902 -2.75778,1.11086 -4.52148,4.07618 -1.76371,2.96531 -1.2523,8.49312 0.24414,10.77539 2.99288,4.56452 4.43352,3.87957 5.60156,4.33203 1.16804,0.45245 2.21208,0.74296 3.5293,1.07226 0.73953,0.18489 1.12601,0.0867 1.74609,0.15821 0.51328,0.54829 0.95442,1.0952 1.68945,1.64648 4.52018,3.39015 7.56867,3.29551 7.80274,3.20703 0.3118,0.15936 0.73408,0.37422 0.89453,0.45117 -0.0544,0.0907 0.054,0.39059 0.57227,1.08399 -2.09973,-0.60491 -4.3392,-1.24484 -7.20508,-1.62696 -5.79987,-0.77331 -10.38193,-0.0859 -13.58985,-0.0859 h -12.26562 -17.52539 c -3.31008,0 -7.82735,-0.59142 -13.43555,0.0684 -7.50934,0.88345 -13.20013,2.99528 -17.52344,3.5039 -4.9519,0.58258 -7.45001,0.61217 -7.96484,0.58203 -0.51483,-0.0301 2.64056,1.07659 1.43555,0.45508 -0.60251,-0.31075 -2.60246,-1.10789 -4.22657,-1.30273 -1.6241,-0.19485 -2.85709,-0.0881 -4.10937,0.0625 -2.50456,0.30123 -5.42018,0.91262 -10.75,2.14258 -5.03034,1.16084 -7.60415,1.75855 -9.79492,2.45703 -1.09539,0.34923 -2.12913,0.483 -4.25586,2.08203 -0.79753,0.59963 -1.5577,1.78229 -2.24219,3.05469 -0.58926,0.38446 -1.71752,1.09997 -3.45508,1.96875 0.88308,-0.44154 -1.06468,-0.3339 -5.69922,1.21093 -3.02803,1.00935 -4.48947,2.13244 -4.81445,2.29493 -1.16825,0.58413 -2.33753,1.16778 -3.50586,1.75195 -0.97084,0.48542 -4.58653,1.13819 -8.93945,4.76562 -2.75957,2.29965 -3.76204,4.64369 -4.3125,5.72657 -0.14338,0.28205 -0.15834,0.28545 -0.23828,0.41601 -1.27812,1.09589 -4.42504,2.77659 -8.38477,6.73633 -3.62188,3.62187 -5.87516,7.1774 -7.83203,9.69336 -2.62191,3.37103 -4.34969,5.59964 -5.43945,7.01562 -0.54488,0.708 -0.92477,1.20622 -1.21094,1.58789 -0.14309,0.19084 -0.25347,0.33758 -0.41016,0.5586 -0.0783,0.11051 -0.15592,0.21146 -0.35547,0.52734 -0.0998,0.15795 -0.21814,0.31997 -0.51171,0.91016 -0.14679,0.29509 -0.35121,0.63446 -0.65235,1.67187 -0.006,0.0193 0.037,0.16326 0.0332,0.1875 -1.57682,2.14778 -1.24551,1.7642 -3.82617,5.20508 -1.90094,2.53458 -5.57652,5.70756 -9.08398,10.96875 -3.09099,4.63648 -4.49823,8.82261 -5.88086,11.58789 -1.95904,3.91807 -5.22013,8.6644 -7.50391,15.18946 -2.8518,8.148 -3.76456,15.62708 -5.44726,21.63671 -1.97279,7.04567 -4.86248,14.54217 -7.05664,22.95313 -2.40053,9.20201 -4.79088,23.39676 -5.55274,33.30078 -0.30244,3.93173 -0.0293,7.11989 -0.0293,9.5293 v 5.25781 c 0,0.42093 -1.35045,3.97507 0.42187,9.88281 2.09719,6.99064 5.10571,10.02422 5.27734,10.58203 0.36062,1.17199 -0.13201,5.3714 1.66407,11.95703 1.47699,5.41557 3.75743,7.84352 3.96093,8.31836 0.29148,0.68012 0.69782,2.20282 1.45704,4.48047 0.286,0.858 0.62552,3.22764 2.29492,6.56641 0.77609,1.55221 1.60475,2.52099 2.32031,3.20312 0.27783,0.62383 0.81303,1.63556 1.80859,3.12891 0.70434,1.0565 0.90905,1.22001 1.3418,1.77734 0.0197,1.52395 0.30122,3.43448 1.53906,5.91016 1.03017,2.06029 3.39542,3.7001 5.60547,4.69727 0.22369,0.3693 0.9364,1.24796 3.04883,2.65625 2.46292,1.64196 4.15144,2.16068 4.58008,2.375 4.60322,2.3016 6.19297,3.00071 13.02539,4.36718 4.73052,0.94612 8.01166,1.04842 9.60156,1.52539 0.31402,0.0942 2.05387,1.19198 5.41211,2.8711 l 1.59375,0.79687 1.77344,0.19727 c 6.31483,0.70165 11.15298,0.60304 14.19922,1.44922 3.13731,0.87147 7.76337,4.22909 15.14453,6.8125 8.2446,2.88561 12.77996,4.35474 15.94531,5.18359 1.58267,0.41443 2.83859,0.70081 4.41406,0.82031 1.57548,0.11951 3.91674,-0.23781 4.82422,-0.51757 0.90748,-0.27977 -0.2769,0.0977 -1.07617,0.17187 -0.79927,0.0742 -0.98597,-0.0248 -0.42773,0.0664 1.11646,0.18235 4.72154,1.02336 11.76171,3.16601 7.32332,2.22883 15.24791,6.05367 24.64649,8.79492 6.82337,1.99016 13.08399,2.65547 18.36133,3.71094 5.72678,1.14536 11.60613,2.42963 17.69726,3.53711 6.72493,1.22272 13.963,2.86795 21.8711,3.62109 12.89678,1.22827 24.95149,-0.30259 37.06445,-3.86523 4.6875,-1.37868 7.88997,-2.49782 10.65625,-3.84766 2.76628,-1.34983 5.10331,-3.16604 6.54492,-4.52734 2.88321,-2.72259 3.09053,-3.65943 11.22656,-8.30859 0.77131,-0.44075 0.97351,-0.51363 1.63672,-0.88282 2.59849,0.87084 4.13065,0.43636 5.0586,0.2461 1.08406,-0.22227 1.64847,-0.45874 2.14257,-0.66211 3.95281,-1.62695 5.83768,-3.19908 12.77539,-7.82422 3.55472,-2.36981 5.11676,-4.17253 5.48829,-4.93945 1.09062,-0.21823 2.57368,-0.58562 4.625,-1.81641 1.83545,-1.10129 2.8155,-2.13473 3.52148,-2.98828 0.79523,-0.19703 2.29926,-0.76585 4.56836,-1.90039 1.1089,-0.55446 1.67067,-1.122 2.31445,-1.68164 1.54943,-0.28142 4.45269,-0.85501 7.29297,-3.69531 2.39356,-2.39356 3.07713,-4.48851 3.38281,-6.17188 1.98823,-0.35302 4.88471,-1.14262 6.8711,-2.83008 2.53182,-2.1508 3.81459,-4.31118 5.4375,-7.23242 3.44352,-6.19833 3.44923,-10.38285 3.70703,-10.89844 v -0.002 c -0.18741,0.37482 2.20346,-1.39615 5.0918,-6.69141 3.01627,-5.52983 4.03441,-9.99722 5.2832,-12.3164 0.63129,-1.17241 4.91193,-4.29949 7.62305,-11.89063 2.69112,-7.53516 1.71178,-13.13926 2.16211,-15.54101 0.76042,-4.05562 2.05004,-8.44845 3.33984,-13.28516 0.78518,-2.94446 2.92049,-7.27084 3.75391,-13.52148 0.85053,-6.37891 0.0879,-11.54974 0.0879,-15.3418 0,-4.43039 0.78104,-10.15399 -0.0762,-17.01172 -0.53992,-4.31944 -1.08427,-7.33458 -1.90625,-10.01758 -0.82197,-2.683 -2.19284,-5.14807 -3.20312,-6.57031 -2.02057,-2.84447 -1.99244,-1.82497 -4.08984,-8.11719 -0.13724,-0.41169 0.35808,-4.1836 -1.75196,-10.51367 -2.97061,-8.91183 -6.54336,-12.74828 -9.76953,-17.91016 -1.67677,-2.68283 -3.34732,-5.58278 -5.16211,-8.60742 -1.51148,-2.51914 -3.15022,-5.79384 -5.64062,-9.35156 -2.87865,-4.11236 -5.59852,-6.74565 -7.00977,-8.76172 -0.9553,-1.36471 -2.19188,-4.84239 -5.55469,-9.16601 -2.34597,-3.01626 -5.22436,-6.30061 -9.16992,-9.0625 -4.97498,-3.48248 -9.27497,-4.66879 -11.50781,-5.8711 -4.35653,-2.34582 -8.25276,-4.3048 -11.31641,-6.42578 -1.36485,-0.9449 -4.23174,-5.98926 -11.97656,-9.60352 -4.89108,-2.28249 -8.97921,-2.18164 -11.51953,-2.375 -2.54033,-0.19335 -3.23585,-0.59527 -2.83399,-0.32031 -4.18379,-2.8626 -8.07028,-10.6066 -16.3496,-18.33398 -3.60405,-3.36378 -5.48277,-5.1253 -8.14844,-6.75586 -1.33284,-0.81528 -3.13436,-2.02144 -6.6836,-1.94141 -0.75035,0.0169 -1.48552,0.19563 -2.20507,0.40235 5.2e-4,-0.37709 -1.37135,-1.9131 -4.56836,-4.47071 -3.2015,-2.5612 -5.36039,-2.92921 -5.2793,-2.88867 l -0.63477,-0.31641 -0.67382,-0.2246 c -0.69375,-0.23125 -0.75017,-0.25095 -1.23047,-0.41993 -0.91626,-1.48851 -2.29925,-3.2092 -4.47071,-4.29492 -3.02622,-1.5131 -5.29773,-1.43183 -6.95117,-1.22851 -0.0133,-0.0841 -0.13671,-0.86523 -0.13672,-0.86524 -1.8e-4,-7e-5 -2.05733,-0.60003 -2.40234,-0.64844 -0.34501,-0.0484 -0.51731,-0.0601 -0.65625,-0.0703 -0.27788,-0.0205 -0.39097,-0.0229 -0.48828,-0.0254 -0.19462,-0.005 -0.27359,-0.002 -0.34766,-0.002 z m -2.25195,0.28125 v 15.57617 c 0.006,0.0137 -0.0723,-0.20674 -0.0625,-0.16406 0.006,0.0263 0.0571,0.23162 0.0625,0.27343 v 3.67383 c -0.66431,-0.18293 -1.43371,-0.38676 -1.43359,-0.38672 1.8e-4,8e-5 -2.66982,-16.88875 -2.66993,-16.88867 -10e-5,9e-5 4.09806,-2.08212 4.09766,-2.08203 0,0 0.006,-0.002 0.006,-0.002 z m 6.40625,2.10937 c 0.5738,0.47364 1.26675,1.19626 2.26758,2.72266 1.4093,2.14936 1.91955,7.55646 0.21875,10.41601 -0.12282,0.2065 -0.22407,0.22508 -0.34571,0.40821 -0.38692,-2.44918 -1.76422,-11.16546 -2.14062,-13.54688 z m 12.63476,7.65235 c 0.60391,1.09443 0.51371,1.71463 0.39258,1.18554 -0.0404,-0.17671 -0.3041,-0.8407 -0.39258,-1.18554 z m 10.45508,5.32422 c 0.24733,0.14132 0.31316,0.11181 0.42188,0.12109 -0.0335,0.0102 -0.0702,0.007 -0.10352,0.0176 -0.15755,-0.0814 -0.14441,-0.0393 -0.31836,-0.13867 z m -139.73828,25.12109 c -0.84653,1.82359 -1.42768,3.67964 -1.41211,4.52344 0.03,1.625 -0.18492,-0.0895 0.26367,-1.9375 0.26418,-1.08832 0.71332,-1.92237 1.14844,-2.58594 z m 114.17774,5.74219 c 2.68339,0.35778 7.10441,2.44334 13.82031,3.47656 5.21306,0.80201 7.94083,0.18557 8.61523,0.0898 0.0883,0.18584 1.53318,0.73681 4.5,1.47852 18.90021,4.72505 -3.02277,-3.32132 22.89844,8.19922 l 0.008,-0.0176 c 4.27182,2.36988 8.33765,2.68665 11.01758,2.89062 3.01437,0.22944 4.58891,0.56168 4.57813,0.55664 0.52376,0.24443 2.9154,3.67296 9.05273,7.92188 4.68064,3.24044 9.28013,5.47206 13.2168,7.5918 4.6675,2.51327 8.07604,3.63272 9.52148,4.64453 1.4686,1.02802 3.1401,2.75658 4.85156,4.95703 0.8195,1.05364 2.00578,4.14134 4.95704,8.35742 2.87864,4.11235 5.59851,6.7476 7.00976,8.76367 1.41616,2.02308 2.88163,4.84958 4.875,8.17188 1.69008,2.8168 3.41981,5.82209 5.35352,8.91601 4.18206,6.69131 5.67283,7.39154 7.7539,13.63477 0.13723,0.41167 -0.35612,4.18556 1.75391,10.51562 2.69423,8.08269 6.09822,12.4445 6.75781,13.37305 0.3298,0.46428 0.1239,-0.006 0.38477,0.8457 0.26087,0.85151 0.7175,2.91193 1.18359,6.64063 0.44696,3.57567 -0.0781,8.44706 -0.0781,14.53125 0,5.55426 0.47261,9.81185 0.0879,12.69726 -0.29067,2.18002 -1.84761,5.7381 -3.25391,11.01172 -1.19252,4.47195 -2.65688,9.34057 -3.67187,14.75391 -1.2855,6.85597 -0.86497,11.16486 -1.3418,12.5 -0.1224,0.34272 -3.03366,2.89146 -6.39649,9.13672 -2.96948,5.51474 -3.98815,9.93758 -5.23242,12.21875 0.0911,-0.16708 -2.6221,1.72659 -5.42187,7.32617 -3.04663,6.09325 -3.15788,9.87012 -3.30274,10.13086 -0.17139,0.3085 -0.2224,0.34564 -0.36914,0.58203 -0.78853,0.14747 -1.51662,0.20783 -2.36133,0.52539 -2.89564,1.08858 -5.37033,2.94456 -7.86523,5.43945 -1.62815,1.62815 -2.43824,3.20563 -2.94336,4.60547 -0.51416,0.1937 -0.86152,0.22862 -1.4668,0.53125 -0.94712,0.47356 -1.37697,0.94939 -1.97851,1.43555 -0.85059,0.0855 -2.74796,0.66519 -5.70508,2.43945 -2.10302,1.26182 -3.11251,2.44582 -3.78711,3.3125 -1.17153,0.22681 -2.99897,0.61389 -5.37695,2.19922 -5.32568,3.55044 -6.45932,6.05687 -5.25782,5.25586 -2.25907,1.50605 -1.54632,1.03575 -3.11132,1.99805 -0.97139,-0.10612 -2.00784,-0.23799 -2.61719,-0.17188 -3.56881,0.38723 -4.46918,1.18324 -6.55469,2.1875 -2.08551,1.00427 -4.66529,2.38966 -8.16015,4.38672 -9.53401,5.448 -13.61716,9.7937 -15.03321,11.13086 -0.70802,0.66858 -0.52256,0.57777 -1.58398,1.0957 -1.06143,0.51794 -3.36384,1.40964 -7.5293,2.63477 -10.23656,3.01076 -19.27251,4.11923 -29.52734,3.14258 -6.24072,-0.59435 -12.92883,-2.06891 -20.1875,-3.38867 -5.63093,-1.02381 -11.39545,-2.27948 -17.35157,-3.47071 -6.40554,-1.28111 -12.07124,-1.95298 -16.68554,-3.29882 -7.27456,-2.12175 -15.13177,-5.90246 -24.42383,-8.73047 -7.38347,-2.24714 -11.29584,-3.26883 -14.36133,-3.76953 -1.53274,-0.25035 -2.97581,-0.39708 -4.64453,-0.24219 -0.49659,0.0461 -0.44021,0.0947 -0.88281,0.1875 -0.1751,-0.0346 0.05,0.0125 -0.36328,-0.0957 -1.95535,-0.512 -6.34779,-1.89311 -14.4043,-4.71289 -3.47916,-1.2177 -8.44921,-4.99892 -16.39844,-7.20703 -6.26339,-1.73984 -11.41133,-1.67592 -15.47265,-1.9414 -1.50583,-0.92625 -3.5755,-2.19707 -7.11133,-3.25782 -5.21682,-1.56504 -9.18982,-1.53288 -11.42774,-1.98046 -6.96243,-1.39249 -2.78522,-0.0352 -8.0039,-2.64454 v 0.002 c -1.45739,-0.7287 -1.67955,-0.80732 -1.85547,-0.86328 -0.20232,-0.18776 -0.31424,-0.28103 -0.80274,-0.76954 0.55368,0.55367 0.3538,-0.13564 -0.80664,-1.22656 -0.14879,-0.9349 -0.27721,-1.87397 -0.75195,-2.97265 -0.7445,-1.723 -2.05126,-3.17965 -3.48828,-4.41602 -0.35071,-0.4717 -0.74111,-1.0258 -0.94727,-1.25586 -0.31989,-0.64674 -0.68231,-1.3721 -1.51757,-2.625 -0.54106,-0.81158 -0.98759,-1.22375 -1.44141,-1.69141 -0.13418,-0.49492 -0.24311,-0.96761 -0.89844,-2.93359 -0.40907,-1.22721 -0.88303,-3.31758 -2.04687,-6.0332 -1.85462,-4.32746 -3.15108,-6.0761 -3.04883,-5.70117 -0.37754,-1.38433 0.22705,-5.85438 -1.8418,-12.57813 -1.97293,-6.41204 -4.44451,-9.19374 -4.95703,-10.02344 0.13431,-0.22621 0.14063,-1.656 0.14063,-4.55859 v -5.25781 c 0,-3.43203 -0.17488,-6.10359 -0.0293,-7.9961 0.61183,-7.9537 3.07149,-22.5348 4.96289,-29.78515 1.81693,-6.96492 4.65114,-14.3531 6.96289,-22.60938 2.21371,-7.90608 3.14435,-14.93221 5.06641,-20.42383 1.16822,-3.33778 3.8015,-7.42136 6.51562,-12.84961 2.12223,-4.24446 3.37655,-7.55505 4.63281,-9.43945 h 0.002 c 1.55396,-2.33094 4.86756,-5.29738 8.4414,-10.0625 6.93002,-9.24002 9.54244,-12.74381 11.04492,-15.0957 0.18782,-0.29399 0.35612,-0.53469 0.69922,-1.21094 0.0928,-0.1828 0.27569,-0.7427 0.41602,-1.07812 2.63585,-3.38894 4.51972,-6.16231 6.1875,-7.83008 1.08307,-1.08308 4.55515,-2.80318 8.76172,-7.00977 2.15109,-2.15109 2.922,-3.93874 3.37304,-4.88281 0.0846,0.0697 1.2319,-0.35032 4.54297,-2.00586 1.16825,-0.58413 2.33558,-1.16974 3.50391,-1.75391 v 0.002 c 2.0116,-1.00579 2.74504,-1.39418 2.19531,-1.21094 -0.0647,0.0216 3.1288,0.30084 8.32031,-2.29492 4.22489,-2.11245 6.58118,-3.37262 9.03907,-5.89063 0.16804,-0.17215 0.33057,-0.45577 0.50195,-0.65429 1.30352,-0.34066 2.30105,-0.61981 5.75977,-1.41797 4.89275,-1.1291 7.37831,-1.57805 8.28711,-1.70117 1.19845,0.36154 2.53659,0.75432 3.69726,0.82226 2.78486,0.16303 5.97096,-0.0387 11.46875,-0.68555 7.50935,-0.88345 13.2021,-2.99528 17.52539,-3.5039 2.51382,-0.29574 6.22971,0.0684 11.09766,0.0684 h 17.52539 12.26562 c 4.97011,0 8.63891,-0.39542 10.94532,-0.0879 z m 99.23046,239.96484 c -0.007,0.1016 -0.0621,0.40202 -0.0703,0.47461 -0.0586,0.51848 -0.17249,0.24211 0.0703,-0.47461 z m -4.80273,0.41016 c -0.10294,0.15485 -0.36077,0.47115 -0.40625,0.5332 -0.13013,0.17756 -0.0273,-0.0821 0.40625,-0.5332 z m 24.60547,2.30859 c 0.0585,-0.51844 0.17244,-0.24397 -0.0703,0.47266 0.007,-0.10108 0.0621,-0.40036 0.0703,-0.47266 z m -8.88086,10.04688 c 0.13,-0.17739 0.0282,0.0789 -0.4043,0.52929 0.102,-0.15354 0.35908,-0.46759 0.4043,-0.52929 z"
         id="path449" />
    </g>
  </g>
</svg>
