<?xml version="1.0" encoding="UTF-8" standalone="no"?>
<!-- Created with Inkscape (http://www.inkscape.org/) -->

<svg
   width="1000"
   height="1000"
   viewBox="0 0 1000 1000"
   version="1.1"
   id="svg1"
   xmlns:xlink="http://www.w3.org/1999/xlink"
   xmlns="http://www.w3.org/2000/svg"
   xmlns:svg="http://www.w3.org/2000/svg">
  <defs
     id="defs1">
    <pattern
       xlink:href="#pattern359"
       preserveAspectRatio="xMidYMid"
       id="pattern372"
       patternTransform="matrix(0.5,0,0,0.5,147.15462,1548.2922)" />
    <pattern
       xlink:href="#pattern357"
       preserveAspectRatio="xMidYMid"
       id="pattern371"
       patternTransform="matrix(0.5,0,0,0.5,221.32076,1552.4298)" />
    <pattern
       xlink:href="#pattern358"
       preserveAspectRatio="xMidYMid"
       id="pattern370"
       patternTransform="matrix(0.5,0,0,0.5,230.96346,1527.8214)" />
    <pattern
       xlink:href="#pattern355"
       preserveAspectRatio="xMidYMid"
       id="pattern369"
       patternTransform="matrix(0.5,0,0,0.5,287.08178,1553.6581)" />
    <pattern
       xlink:href="#pattern354"
       preserveAspectRatio="xMidYMid"
       id="pattern368"
       patternTransform="matrix(0.5,0,0,0.5,230.97274,1529.1717)" />
    <pattern
       xlink:href="#pattern342"
       preserveAspectRatio="xMidYMid"
       id="pattern360"
       patternTransform="matrix(0.5,0,0,0.5,210.45332,1525.5392)" />
    <pattern
       xlink:href="#pattern342"
       preserveAspectRatio="xMidYMid"
       id="pattern359"
       patternTransform="matrix(0.5,0,0,0.5,152.11125,1550.7705)" />
    <pattern
       xlink:href="#pattern342"
       preserveAspectRatio="xMidYMid"
       id="pattern358"
       patternTransform="matrix(0.5,0,0,0.5,202.11125,1533.2444)" />
    <pattern
       xlink:href="#pattern342"
       preserveAspectRatio="xMidYMid"
       id="pattern357"
       patternTransform="matrix(0.5,0,0,0.5,211.4075,1546.234)" />
    <pattern
       xlink:href="#pattern342"
       preserveAspectRatio="xMidYMid"
       id="pattern356"
       patternTransform="matrix(0.5,0,0,0.5,232.14929,1573.2544)" />
    <pattern
       xlink:href="#pattern342"
       preserveAspectRatio="xMidYMid"
       id="pattern355"
       patternTransform="matrix(0.5,0,0,0.5,275,1552.7287)" />
    <pattern
       xlink:href="#pattern342"
       preserveAspectRatio="xMidYMid"
       id="pattern354"
       patternTransform="matrix(0.5,0,0,0.5,235,1529.7913)" />
    <pattern
       xlink:href="#shading24"
       preserveAspectRatio="xMidYMid"
       id="pattern342"
       patternTransform="matrix(0.5,0,0,0.5,213.95332,1537.5392)"
       x="0"
       y="0" />
    <pattern
       patternUnits="userSpaceOnUse"
       width="338.5925"
       height="42.989567"
       patternTransform="translate(213.95332,1537.5392) scale(0.5)"
       preserveAspectRatio="xMidYMid"
       id="shading24"
       style="fill:#000000">
      <path
         style="fill-rule:nonzero;stroke:none;stroke-width:0.1;stroke-linecap:square;paint-order:markers fill stroke;stop-color:#000000"
         d="m 1806.4991,-758.06464 v 18.86792 c 55.9187,0 121.0493,0.59523 193.5686,3.15628 72.9408,2.57593 146.0589,6.87694 222.9288,13.47675 119.09,10.22471 223.0762,23.76065 340.6056,39.2177 117.5025,15.4535 222.0471,29.0563 341.8507,39.3312 77.366,6.63525 151.0001,10.96128 224.4674,13.55245 73.0344,2.5759 138.631,3.17493 194.9247,3.17493 -55.9642,0 -122.2215,-1.36594 -194.8324,-5.25394 -73.2143,-3.92032 -146.9676,-10.0663 -223.8166,-18.88656 -118.8791,-13.6442 -223.3242,-31.02113 -339.8009,-50.57815 -116.4705,-19.55598 -221.1862,-36.99475 -340.3724,-50.69165 -77.0605,-8.8558 -150.9942,-15.0266 -224.3694,-18.96225 -72.7637,-3.90286 -139.1256,-5.27261 -195.1541,-5.27261 z m 0,37.81515 v 18.86793 c 55.9187,0 121.0493,0.59523 193.5686,3.15627 72.9408,2.57593 146.0589,6.87694 222.9288,13.47676 119.09,10.22471 223.0762,23.76065 340.6056,39.2177 117.5025,15.4535 222.0471,29.0563 341.8507,39.33119 77.366,6.63526 151.0001,10.96128 224.4674,13.55245 73.0344,2.5759 138.631,3.17493 194.9247,3.17493 -55.9642,0 -122.2215,-1.36594 -194.8324,-5.25394 -73.2143,-3.92031 -146.9676,-10.0663 -223.8166,-18.88656 -118.8791,-13.6442 -223.3242,-31.02112 -339.8009,-50.57815 -116.4705,-19.55598 -221.1862,-36.99475 -340.3724,-50.69165 -77.0605,-8.8558 -150.9942,-15.02659 -224.3694,-18.96225 -72.7637,-3.90286 -139.1256,-5.2726 -195.1541,-5.2726 z m 0,37.81516 v 18.86792 c 55.9187,0 121.0493,0.59523 193.5686,3.15628 72.9408,2.57593 146.0589,6.87694 222.9288,13.47675 119.09,10.22471 223.0762,23.76065 340.6056,39.2177 117.5025,15.4535 222.0471,29.0563 341.8507,39.3312 77.366,6.63525 151.0001,10.96128 224.4674,13.55245 73.0344,2.5759 138.631,3.17493 194.9247,3.17493 -55.9642,0 -122.2215,-1.36594 -194.8324,-5.25394 -73.2143,-3.92032 -146.9676,-10.0663 -223.8166,-18.88656 -118.8791,-13.6442 -223.3242,-31.02113 -339.8009,-50.57815 -116.4705,-19.55598 -221.1862,-36.99475 -340.3724,-50.69165 -77.0605,-8.8558 -150.9942,-15.0266 -224.3694,-18.96225 -72.7637,-3.90286 -139.1256,-5.27261 -195.1541,-5.27261 z m 0,37.81515 v 18.86793 c 55.9187,0 121.0493,0.59523 193.5686,3.15627 72.9408,2.57593 146.0589,6.87694 222.9288,13.47676 119.09,10.22471 223.0762,23.76065 340.6056,39.2177 117.5025,15.4535 222.0471,29.0563 341.8507,39.33119 77.366,6.63526 151.0001,10.96128 224.4674,13.55245 73.0344,2.5759 138.631,3.17494 194.9247,3.17494 -55.9642,0 -122.2215,-1.36595 -194.8324,-5.25395 -73.2143,-3.92031 -146.9676,-10.0663 -223.8166,-18.88656 -118.8791,-13.6442 -223.3242,-31.02112 -339.8009,-50.57815 -116.4705,-19.55598 -221.1862,-36.99475 -340.3724,-50.69165 -77.0605,-8.8558 -150.9942,-15.02659 -224.3694,-18.96225 -72.7637,-3.90286 -139.1256,-5.2726 -195.1541,-5.2726 z m 0,37.81516 v 18.86792 c 55.9187,0 121.0493,0.59523 193.5686,3.15628 72.9408,2.57593 146.0589,6.87694 222.9288,13.47675 119.09,10.22471 223.0762,23.76065 340.6056,39.2177 117.5025,15.4535 222.0471,29.0563 341.8507,39.3312 77.366,6.63525 151.0001,10.96128 224.4674,13.55245 73.0344,2.5759 138.631,3.17493 194.9247,3.17493 -55.9642,0 -122.2215,-1.36594 -194.8324,-5.25394 -73.2143,-3.92032 -146.9676,-10.0663 -223.8166,-18.88656 -118.8791,-13.6442 -223.3242,-31.02113 -339.8009,-50.57815 -116.4705,-19.55598 -221.1862,-36.99475 -340.3724,-50.69165 -77.0605,-8.8558 -150.9942,-15.0266 -224.3694,-18.96225 -72.7637,-3.90286 -139.1256,-5.27261 -195.1541,-5.27261 z m 0,37.81515 v 18.86793 c 55.9187,0 121.0493,0.59523 193.5686,3.15627 72.9408,2.57593 146.0589,6.87694 222.9288,13.47676 119.09,10.22471 223.0762,23.76065 340.6056,39.2177 117.5025,15.4535 222.0471,29.0563 341.8507,39.33119 77.366,6.63526 151.0001,10.96128 224.4674,13.55245 73.0344,2.5759 138.631,3.17494 194.9247,3.17494 -55.9642,0 -122.2215,-1.36595 -194.8324,-5.25395 -73.2143,-3.92031 -146.9676,-10.0663 -223.8166,-18.88656 -118.8791,-13.6442 -223.3242,-31.02112 -339.8009,-50.57815 -116.4705,-19.55598 -221.1862,-36.99475 -340.3724,-50.69165 -77.0605,-8.8558 -150.9942,-15.02659 -224.3694,-18.96225 -72.7637,-3.90286 -139.1256,-5.2726 -195.1541,-5.2726 z m 0,37.81516 v 18.86792 c 55.9187,0 121.0493,0.59523 193.5686,3.15628 72.9408,2.57593 146.0589,6.87694 222.9288,13.47675 119.09,10.22471 223.0762,23.76065 340.6056,39.2177 117.5025,15.4535 222.0471,29.0563 341.8507,39.3312 77.366,6.63525 151.0001,10.96128 224.4674,13.55245 73.0344,2.5759 138.631,3.17493 194.9247,3.17493 -55.9642,0 -122.2215,-1.36594 -194.8324,-5.25394 -73.2143,-3.92032 -146.9676,-10.0663 -223.8166,-18.88656 -118.8791,-13.6442 -223.3242,-31.02113 -339.8009,-50.57815 -116.4705,-19.55598 -221.1862,-36.99475 -340.3724,-50.69165 -77.0605,-8.8558 -150.9942,-15.0266 -224.3694,-18.96225 -72.7637,-3.90286 -139.1256,-5.27261 -195.1541,-5.27261 z"
         id="use26"
         transform="matrix(0.22300099,0,0,0.37823052,-402.85121,237.25945)" />
    </pattern>
    <clipPath
       clipPathUnits="userSpaceOnUse"
       id="clipPath54">
      <path
         id="path336"
         style="stroke-width:0.0999999;stroke-linecap:square;paint-order:markers fill stroke;stop-color:#000000"
         d="m 1691.1994,-792.32001 h 1634.8919 v 92.82806 H 1691.1994 Z" />
    </clipPath>
    <clipPath
       clipPathUnits="userSpaceOnUse"
       id="clipPath33">
      <rect
         style="fill:#000000;stroke:none;stroke-width:0.999995;stroke-linecap:butt;stroke-linejoin:bevel;paint-order:stroke markers fill;stop-color:#000000"
         id="rect33"
         width="46.19186"
         height="80.006783"
         x="74.999985"
         y="399.99661" />
    </clipPath>
    <clipPath
       clipPathUnits="userSpaceOnUse"
       id="clipPath27">
      <rect
         style="fill:none;stroke:#000000;stroke-width:0.999999;stroke-linecap:butt;stroke-linejoin:bevel;paint-order:stroke markers fill;stop-color:#000000"
         id="rect28-6"
         width="46.160622"
         height="39.922417"
         x="86.574379"
         y="420.06253" />
    </clipPath>
    <clipPath
       clipPathUnits="userSpaceOnUse"
       id="clipPath25">
      <rect
         style="fill:#ff0000;stroke:none;stroke-width:3;stroke-linecap:square;stroke-linejoin:miter;paint-order:stroke markers fill;stop-color:#000000"
         id="rect25-8"
         width="78"
         height="45.033199"
         x="763.61322"
         y="452.82422" />
    </clipPath>
    <clipPath
       clipPathUnits="userSpaceOnUse"
       id="clipPath15">
      <rect
         style="fill:none;stroke:#000000;stroke-linecap:butt;stroke-linejoin:bevel;paint-order:stroke markers fill;stop-color:#000000"
         id="rect15-7"
         width="45.034248"
         height="38.955639"
         x="262.48285"
         y="121.00073" />
    </clipPath>
    <linearGradient
       id="swatch75">
      <stop
         style="stop-color:#000000;stop-opacity:1;"
         offset="0"
         id="stop75" />
    </linearGradient>
  </defs>
  <g
     id="layer70"
     style="display:inline">
    <g
       id="layer86"
       style="display:inline">
      <path
         style="baseline-shift:baseline;display:inline;overflow:visible;opacity:1;vector-effect:none;fill-rule:evenodd;enable-background:accumulate;stop-color:#000000;stop-opacity:1"
         d="m 410.96875,431.85547 c -1.27993,4.47975 -2.17544,8.44371 -3.32031,11.6875 -1.80954,5.12704 -4.66594,10.78856 -7.02344,17.5664 -8.20099,23.57785 -7.07905,25.42895 -14.16797,49.53125 -3.20391,10.8933 -6.94384,21.86327 -10.4668,33.13672 -2.24971,7.19904 -5.19467,14.88257 -7.20312,23.49024 -2.60724,11.17387 -2.87115,21.27429 -5.14453,29.35742 -1.68025,5.97423 -2.56071,8.72526 -3.78125,12.8418 -0.75033,0.13427 -1.48527,0.27911 -1.82227,0.51757 -3.36029,2.37784 -2.91673,3.17533 -3.19336,3.73047 -0.27662,0.55515 -0.37093,0.82699 -0.45508,1.05469 -0.33658,0.91082 -0.35793,1.11033 -0.46875,1.53125 -0.88651,3.36734 -2.825,12.17248 -7.93945,35.1875 -2.8802,12.96091 -3.44876,17.69262 -3.8418,22.00781 -0.39303,4.3152 -0.63107,8.07345 -3.23828,22.15235 -1.95712,10.56844 -2.89706,15.14967 -3.51172,17.88281 -2.30581,2.15079 -2.21493,3.44397 -2.80078,4.92773 -1.4188,3.59337 -2.97615,9.00227 -5.82422,20.39454 -2.09512,8.38051 -2.21187,15.63996 -3.52734,21.12109 -1.65369,6.89037 -4.40422,14.16184 -6.85156,22.20312 -1.65932,5.45206 -3.89692,11.41637 -5.44336,18.22071 -1.82621,8.03535 -2.21307,15.21467 -3.51563,21.07617 -0.32423,1.45907 -2.36559,4.80649 -3.54882,10.72266 -1.34748,6.73734 -1.12238,12.19411 -1.79297,15.99414 -0.52631,2.98238 -2.77385,7.65381 -3.58985,14.58984 -0.84795,7.20762 0.19389,12.69321 -0.0449,16.27539 -0.1161,1.74154 -1.26338,5.09262 -1.73437,10.27344 -0.48213,5.30341 0.10979,7.94106 0.12109,7.8789 -0.15492,0.85205 -2.33902,4.09796 -3.50586,10.51563 -1.08003,5.94013 -0.0719,9.19571 -0.0996,9.44531 -0.0103,0.0927 -0.95988,2.16366 -1.67773,6.4707 -0.55241,3.31451 -0.13672,5.07611 -0.13672,5.14844 v 1.75391 h 20 v -1.75391 c 0,-2.26425 0.0335,-2.87105 -0.13477,-1.86133 0.075,-0.44579 1.30472,-2.85588 1.82617,-7.54882 0.61735,-5.55612 -0.0645,-8.27104 -0.0996,-8.07813 0.15491,-0.85204 2.33706,-4.096 3.5039,-10.51367 1.05626,-5.80938 0.0744,-9.13246 0.1211,-9.64649 0.1724,-1.89642 1.41486,-5.40476 1.77148,-10.7539 0.46061,-6.90914 -0.42746,-12.03458 -0.0469,-15.26953 0.30964,-2.63195 2.27394,-6.94425 3.42188,-13.44922 1.16794,-6.6183 0.98363,-11.91232 1.71094,-15.54883 0.26585,-1.32925 2.18229,-4.55277 3.46093,-10.30664 1.78065,-8.0129 2.1705,-15.15835 3.49415,-20.98242 1.15673,-5.08965 3.1802,-10.61137 5.07226,-16.82813 2.17934,-7.16069 5.11131,-14.79808 7.16602,-23.35937 2.00142,-8.33927 2.13043,-15.52953 3.48242,-20.9375 2.47965,-9.91861 3.77619,-13.96228 4.49219,-16.00391 0.74126,-0.6929 1.29621,-1.35084 1.63086,-1.85547 2.22767,-3.35926 1.70927,-3.7967 2.11914,-5.48633 0.81972,-3.37924 1.95229,-9.16897 4.15625,-21.07031 2.69123,-14.53266 3.12257,-19.92235 3.49218,-23.98047 0.36962,-4.05811 0.65706,-6.92649 3.44727,-19.48242 2.29833,-10.34249 2.25514,-10.00638 3.48633,-15.47851 1.5663,-1.27595 2.09873,-2.22351 2.48047,-2.87305 1.94506,-3.3096 2.49262,-5.57684 4.22461,-11 1.73198,-5.42316 4.05161,-13.251 7.19726,-24.43555 3.18696,-11.33141 3.39366,-21.76021 5.36914,-30.22656 1.60233,-6.86711 4.32638,-14.10225 6.81641,-22.07031 3.42029,-10.94493 7.19815,-22.01823 10.5625,-33.45703 7.32298,-24.89812 5.96232,-25.86777 13.87109,-48.60547 1.77622,-5.10664 4.61782,-10.74201 6.9961,-17.48047 1.68587,-4.77662 2.6328,-9.14939 3.68945,-12.84766 z m -62.82227,279.60742 c 2.52162,1.03828 2.72772,2.05613 2.66211,1.98633 -0.0667,-0.071 -0.82915,-0.98287 -2.66211,-1.98633 z m 3.41407,14.24805 c -0.0243,0.0604 -0.4045,0.34832 -0.46289,0.43554 0.0116,-0.0303 0.0849,-0.3164 0.0957,-0.34375 0.14067,-0.35627 0.50768,-0.44124 0.36719,-0.0918 z"
         id="path450" />
      <path
         style="baseline-shift:baseline;display:inline;overflow:visible;opacity:1;vector-effect:none;fill-rule:evenodd;enable-background:accumulate;stop-color:#000000;stop-opacity:1"
         d="m 482.35352,439.43164 -7.87891,18.38281 c 5.07832,2.17643 5.65646,2.40223 8.125,3.44532 0.84246,0.73307 1.29899,0.95907 1.7832,1.2539 0.66609,0.40558 1.38152,0.80853 2.30078,1.30664 1.83853,0.99622 4.45986,2.3481 8.28711,4.26172 4.29917,2.14958 7.43562,2.83988 8.76367,3.50391 6.18417,3.09208 10.2993,7.62972 20.58594,11.05859 3.61225,1.20409 6.35344,1.11213 7.94531,1.19922 1.59188,0.0871 1.87948,0.31962 1.25977,0.01 -1.25509,-0.62755 0.0715,1.45718 4.97266,5.6582 3.25487,2.78988 5.4042,3.62844 5.51953,3.7207 0.14037,0.1123 0.99082,1.07872 2.67969,2.76758 1.25087,1.2509 1.45997,1.52933 0.82421,0.68164 0.47312,0.63083 1.42734,2.66894 3.69532,5.50391 2.54192,3.17739 3.89522,4.03217 3.31445,3.25781 -0.45756,-0.61008 0.77,2.80847 1.80273,6.93945 0.77872,3.11482 1.43153,5.02833 1.53125,5.82617 -0.14466,-1.15733 -1.56188,1.96888 0.3086,8.51563 1.05298,3.68542 2.98483,5.57325 3.77539,6.47851 0.19793,0.22666 0.16611,0.20814 0.24219,0.31641 0.53697,1.49893 0.87989,2.5371 1.00195,2.97656 -0.14139,0.56156 -0.16161,0.3399 -0.27539,1.25 -0.25889,2.07086 -0.15664,4.22575 0.22851,6.92188 0.59203,4.14415 0.75733,5.81341 1.70313,8.44726 -0.0226,1.47312 -0.0508,2.48853 -0.0508,5.91016 0,1.9324 -0.0225,2.50678 -0.0254,3.22852 -7.3e-4,0.18043 -0.0245,0.30344 0.0371,1.05078 0.0308,0.37367 -0.0261,0.82002 0.47461,2.34179 0.1619,0.49205 0.4863,1.21332 0.99218,2.04688 0.10386,0.39232 0.14741,0.45968 0.4668,2.05664 -0.28369,-1.41846 -0.19336,-0.93276 -0.19336,1.54297 v 5.25781 3.50391 c 0,0.69746 -0.008,0.78147 -0.0195,1.16992 -0.18982,0.38834 -0.29991,0.61348 -0.67773,1.36914 -0.33657,0.67313 -1.19547,2.02089 -2.0918,4.26172 -0.97066,2.42663 -1.40615,3.65387 -1.41016,3.99414 -0.2548,0.17224 -1.45564,1.51951 -3.27344,3.01562 -2.16217,1.77956 -4.73608,3.61143 -5.35156,3.9961 -0.31277,0.19548 -3.18859,0.81326 -7.44531,3.79297 -5.23658,3.6656 -8.17687,7.20189 -10.32617,8.63476 -5.41941,3.61294 -13.74722,5.7772 -22.86719,9.61719 -11.48813,4.8371 -14.1138,6.05477 -17.66797,7.67187 -3.67979,1.17549 -8.12058,2.71358 -22.23047,7.93946 -9.70379,3.594 -17.94617,7.95823 -25.72656,10.32617 -2.1306,0.64844 -6.46587,0.46243 -12.66602,1.44141 -6.2416,0.98551 -12.50836,2.11612 -18.77343,3.41406 -5.90288,-0.13135 -10.9593,1.6045 -14.72852,3.27734 -4.21535,1.87085 -7.28719,3.46633 -9.42187,4 1.43715,-0.35929 0.53731,-0.29883 -2.83203,-0.29883 h -3.50586 -19.27735 v 20 h 19.27735 3.50586 c 0.13553,0 2.84426,0.91053 7.68164,-0.29882 5.57331,-1.39333 9.58724,-3.74688 12.68359,-5.1211 3.09635,-1.37421 4.87187,-1.82559 6.64648,-1.64258 l 1.55664,0.16016 1.5293,-0.32227 c 6.1818,-1.30142 12.45063,-2.41315 18.77735,-3.4121 3.10363,-0.49005 8.49075,0.0296 15.37109,-2.06446 10.27615,-3.12752 18.85211,-7.7418 26.84766,-10.70312 8.98064,-3.32617 9.45079,-3.41794 13.4375,-4.82422 0.15084,-0.0172 0.5725,0.0347 0.69531,0.0215 1.95798,-0.21106 1.84138,-0.35925 2.20312,-0.4707 0.36174,-0.11145 0.65515,-0.21023 0.96875,-0.32031 1.25442,-0.44032 2.7986,-1.0404 4.38672,-1.67774 1.58813,-0.63733 3.06054,-1.24441 4.31055,-1.82617 0.3125,-0.14544 0.60285,-0.28142 1.03711,-0.51562 0.21713,-0.1171 0.45937,-0.2449 0.90039,-0.53516 0.24951,-0.16422 0.60549,-0.29936 1.14453,-0.76172 3.69725,-1.61862 3.63991,-1.65965 11.62891,-5.02344 6.99905,-2.94697 16.78349,-5.13171 26.20117,-11.41015 5.44284,-3.62857 8.4645,-7.32359 10.70312,-8.89063 0.0236,-0.0165 2.45641,-0.64316 6.57422,-3.21679 2.16102,-1.35063 4.69577,-3.23979 7.46094,-5.51563 2.76516,-2.27584 5.28643,-4.12204 7.82617,-7.93164 3.18186,-4.77279 2.97701,-7.74233 2.7168,-7.0918 0.0739,-0.18471 0.58038,-1.08264 1.41211,-2.74609 -0.0626,0.12525 1.49145,-1.47758 2.50976,-5.55078 1.06767,-4.27066 0.29883,-6.38025 0.29883,-5.93164 v -3.50391 -5.25781 c 0,0.13915 0.54662,-1.75517 -0.19531,-5.46485 -0.55379,-2.76894 -0.91026,-4.29219 -1.5625,-6.05468 0.002,-0.37796 0.006,-0.2765 0.006,-0.74805 0,-4.97212 0.0434,-7.31121 0.0684,-8.27148 0.006,-0.24007 0.01,-0.39026 0.0137,-0.5 0.002,-0.0549 0.004,-0.0953 0.006,-0.16993 0.002,-0.0746 0.14348,0.90719 -0.0293,-1.17578 -0.0216,-0.26037 -0.25969,-1.58562 -0.25976,-1.58593 -10e-6,-2e-5 -0.63485,-0.38687 -0.71485,-0.43555 -0.061,-0.39681 -0.53641,-2.23929 -0.9375,-5.04688 -0.2331,-1.63172 -0.13415,-1.9931 -0.18164,-1.61328 -0.0475,0.37983 -0.18538,1.11154 0.25,-0.73633 0.43539,-1.84786 0.36324,-4.75078 -0.0977,-6.77734 -0.4609,-2.02656 -1.14177,-4.00892 -2.25977,-6.99023 -0.85335,-2.27563 -1.814,-3.5463 -2.61719,-4.47852 0.0811,-0.9391 0.0227,-2.71076 -0.32812,-5.51758 -0.49773,-3.98193 -1.58307,-6.63502 -1.97266,-8.19336 -0.497,-1.98801 -0.50517,-7.82068 -5.20703,-14.08984 -2.56343,-3.4179 -4.17493,-4.34903 -3.69727,-3.75195 -0.36344,-0.4543 -1.25822,-2.27074 -3.3125,-5.00977 -1.62707,-2.16946 -2.76423,-2.90682 -2.68164,-2.82422 -0.64771,-0.64771 -1.88817,-2.29024 -4.32812,-4.24219 -3.17393,-2.53915 -5.05468,-3.3376 -4.99805,-3.28906 -0.11662,-0.1 -1.87871,-4.77822 -9.04492,-8.36133 -3.7978,-1.8989 -7.08314,-1.98083 -9.11133,-2.09179 -2.02818,-0.11096 -2.95427,-0.28359 -2.71289,-0.20313 -6.44864,-2.14954 -8.93498,-5.45674 -17.9668,-9.97265 -4.29916,-2.14958 -7.43366,-2.83989 -8.76171,-3.50391 -1.57383,-0.78691 -2.10772,-1.08592 -3.25977,-1.67578 0.017,-0.0492 0.23244,-0.66795 0.23242,-0.66797 -5e-4,-4.5e-4 -1.44037,-1.07196 -1.67187,-1.20508 -0.926,-0.53246 -0.75595,-0.39399 -0.85938,-0.44141 -0.20686,-0.0948 -0.29689,-0.13323 -0.42773,-0.18945 -0.42869,-0.18419 -1.11691,-0.46516 -1.83008,-0.75195 -1.64678,-0.68092 -5.01995,-2.0903 -13.74609,-5.83008 z m 15.54882,17.0332 c -0.16356,0.58261 -0.32743,1.13583 -0.58203,1.67969 0.28168,-0.81254 0.29097,-0.84003 0.58203,-1.67969 z m 77.54102,84.10157 c 3.03499,0.25176 5.05058,1.76557 6.07226,2.75976 2.04338,1.98838 1.98625,2.75954 2.15235,3.1836 0.10108,0.25806 0.11332,0.25825 0.15234,0.33984 -1.23211,-0.74974 -8.55491,-5.20374 -10.1914,-6.19922 0.59657,-0.0741 1.19884,-0.13505 1.81445,-0.084 z m -4.21289,0.64257 c -1.74046,1.56278 -5.56288,4.99494 -5.6836,5.10352 0.19867,-0.70064 0.62079,-1.62761 2.51563,-3.30078 0.71218,-0.62887 1.83741,-1.31127 3.16797,-1.80274 z m -0.0293,12 c -0.9333,0.37832 -1.65282,0.82583 -2.2207,1.24219 -0.009,-0.006 -0.0121,-0.008 -0.0215,-0.0137 0.0802,-0.0583 0.0646,-0.0708 0.1543,-0.13281 0.46887,-0.3241 1.08577,-0.70601 1.98047,-1.0625 0.0308,-0.0123 0.0709,-0.0199 0.10742,-0.0332 z m 10.28711,16.6836 c -0.17592,0.16366 -0.0761,0.12667 -0.3125,0.31836 -0.0358,0.029 -0.12574,0.0621 -0.16406,0.0918 0.18619,-0.15396 0.34896,-0.28619 0.47656,-0.41015 z"
         id="path451" />
    </g>
  </g>
</svg>
