<?xml version="1.0" encoding="UTF-8" standalone="no"?>
<!-- Created with Inkscape (http://www.inkscape.org/) -->

<svg
   width="1000"
   height="1000"
   viewBox="0 0 1000 1000"
   version="1.1"
   id="svg1"
   xmlns:xlink="http://www.w3.org/1999/xlink"
   xmlns="http://www.w3.org/2000/svg"
   xmlns:svg="http://www.w3.org/2000/svg">
  <defs
     id="defs1">
    <pattern
       xlink:href="#pattern359"
       preserveAspectRatio="xMidYMid"
       id="pattern372"
       patternTransform="matrix(0.5,0,0,0.5,147.15462,1548.2922)" />
    <pattern
       xlink:href="#pattern357"
       preserveAspectRatio="xMidYMid"
       id="pattern371"
       patternTransform="matrix(0.5,0,0,0.5,221.32076,1552.4298)" />
    <pattern
       xlink:href="#pattern358"
       preserveAspectRatio="xMidYMid"
       id="pattern370"
       patternTransform="matrix(0.5,0,0,0.5,230.96346,1527.8214)" />
    <pattern
       xlink:href="#pattern355"
       preserveAspectRatio="xMidYMid"
       id="pattern369"
       patternTransform="matrix(0.5,0,0,0.5,287.08178,1553.6581)" />
    <pattern
       xlink:href="#pattern354"
       preserveAspectRatio="xMidYMid"
       id="pattern368"
       patternTransform="matrix(0.5,0,0,0.5,230.97274,1529.1717)" />
    <pattern
       xlink:href="#pattern342"
       preserveAspectRatio="xMidYMid"
       id="pattern360"
       patternTransform="matrix(0.5,0,0,0.5,210.45332,1525.5392)" />
    <pattern
       xlink:href="#pattern342"
       preserveAspectRatio="xMidYMid"
       id="pattern359"
       patternTransform="matrix(0.5,0,0,0.5,152.11125,1550.7705)" />
    <pattern
       xlink:href="#pattern342"
       preserveAspectRatio="xMidYMid"
       id="pattern358"
       patternTransform="matrix(0.5,0,0,0.5,202.11125,1533.2444)" />
    <pattern
       xlink:href="#pattern342"
       preserveAspectRatio="xMidYMid"
       id="pattern357"
       patternTransform="matrix(0.5,0,0,0.5,211.4075,1546.234)" />
    <pattern
       xlink:href="#pattern342"
       preserveAspectRatio="xMidYMid"
       id="pattern356"
       patternTransform="matrix(0.5,0,0,0.5,232.14929,1573.2544)" />
    <pattern
       xlink:href="#pattern342"
       preserveAspectRatio="xMidYMid"
       id="pattern355"
       patternTransform="matrix(0.5,0,0,0.5,275,1552.7287)" />
    <pattern
       xlink:href="#pattern342"
       preserveAspectRatio="xMidYMid"
       id="pattern354"
       patternTransform="matrix(0.5,0,0,0.5,235,1529.7913)" />
    <pattern
       xlink:href="#shading24"
       preserveAspectRatio="xMidYMid"
       id="pattern342"
       patternTransform="matrix(0.5,0,0,0.5,213.95332,1537.5392)"
       x="0"
       y="0" />
    <pattern
       patternUnits="userSpaceOnUse"
       width="338.5925"
       height="42.989567"
       patternTransform="translate(213.95332,1537.5392) scale(0.5)"
       preserveAspectRatio="xMidYMid"
       id="shading24"
       style="fill:#000000">
      <path
         style="fill-rule:nonzero;stroke:none;stroke-width:0.1;stroke-linecap:square;paint-order:markers fill stroke;stop-color:#000000"
         d="m 1806.4991,-758.06464 v 18.86792 c 55.9187,0 121.0493,0.59523 193.5686,3.15628 72.9408,2.57593 146.0589,6.87694 222.9288,13.47675 119.09,10.22471 223.0762,23.76065 340.6056,39.2177 117.5025,15.4535 222.0471,29.0563 341.8507,39.3312 77.366,6.63525 151.0001,10.96128 224.4674,13.55245 73.0344,2.5759 138.631,3.17493 194.9247,3.17493 -55.9642,0 -122.2215,-1.36594 -194.8324,-5.25394 -73.2143,-3.92032 -146.9676,-10.0663 -223.8166,-18.88656 -118.8791,-13.6442 -223.3242,-31.02113 -339.8009,-50.57815 -116.4705,-19.55598 -221.1862,-36.99475 -340.3724,-50.69165 -77.0605,-8.8558 -150.9942,-15.0266 -224.3694,-18.96225 -72.7637,-3.90286 -139.1256,-5.27261 -195.1541,-5.27261 z m 0,37.81515 v 18.86793 c 55.9187,0 121.0493,0.59523 193.5686,3.15627 72.9408,2.57593 146.0589,6.87694 222.9288,13.47676 119.09,10.22471 223.0762,23.76065 340.6056,39.2177 117.5025,15.4535 222.0471,29.0563 341.8507,39.33119 77.366,6.63526 151.0001,10.96128 224.4674,13.55245 73.0344,2.5759 138.631,3.17493 194.9247,3.17493 -55.9642,0 -122.2215,-1.36594 -194.8324,-5.25394 -73.2143,-3.92031 -146.9676,-10.0663 -223.8166,-18.88656 -118.8791,-13.6442 -223.3242,-31.02112 -339.8009,-50.57815 -116.4705,-19.55598 -221.1862,-36.99475 -340.3724,-50.69165 -77.0605,-8.8558 -150.9942,-15.02659 -224.3694,-18.96225 -72.7637,-3.90286 -139.1256,-5.2726 -195.1541,-5.2726 z m 0,37.81516 v 18.86792 c 55.9187,0 121.0493,0.59523 193.5686,3.15628 72.9408,2.57593 146.0589,6.87694 222.9288,13.47675 119.09,10.22471 223.0762,23.76065 340.6056,39.2177 117.5025,15.4535 222.0471,29.0563 341.8507,39.3312 77.366,6.63525 151.0001,10.96128 224.4674,13.55245 73.0344,2.5759 138.631,3.17493 194.9247,3.17493 -55.9642,0 -122.2215,-1.36594 -194.8324,-5.25394 -73.2143,-3.92032 -146.9676,-10.0663 -223.8166,-18.88656 -118.8791,-13.6442 -223.3242,-31.02113 -339.8009,-50.57815 -116.4705,-19.55598 -221.1862,-36.99475 -340.3724,-50.69165 -77.0605,-8.8558 -150.9942,-15.0266 -224.3694,-18.96225 -72.7637,-3.90286 -139.1256,-5.27261 -195.1541,-5.27261 z m 0,37.81515 v 18.86793 c 55.9187,0 121.0493,0.59523 193.5686,3.15627 72.9408,2.57593 146.0589,6.87694 222.9288,13.47676 119.09,10.22471 223.0762,23.76065 340.6056,39.2177 117.5025,15.4535 222.0471,29.0563 341.8507,39.33119 77.366,6.63526 151.0001,10.96128 224.4674,13.55245 73.0344,2.5759 138.631,3.17494 194.9247,3.17494 -55.9642,0 -122.2215,-1.36595 -194.8324,-5.25395 -73.2143,-3.92031 -146.9676,-10.0663 -223.8166,-18.88656 -118.8791,-13.6442 -223.3242,-31.02112 -339.8009,-50.57815 -116.4705,-19.55598 -221.1862,-36.99475 -340.3724,-50.69165 -77.0605,-8.8558 -150.9942,-15.02659 -224.3694,-18.96225 -72.7637,-3.90286 -139.1256,-5.2726 -195.1541,-5.2726 z m 0,37.81516 v 18.86792 c 55.9187,0 121.0493,0.59523 193.5686,3.15628 72.9408,2.57593 146.0589,6.87694 222.9288,13.47675 119.09,10.22471 223.0762,23.76065 340.6056,39.2177 117.5025,15.4535 222.0471,29.0563 341.8507,39.3312 77.366,6.63525 151.0001,10.96128 224.4674,13.55245 73.0344,2.5759 138.631,3.17493 194.9247,3.17493 -55.9642,0 -122.2215,-1.36594 -194.8324,-5.25394 -73.2143,-3.92032 -146.9676,-10.0663 -223.8166,-18.88656 -118.8791,-13.6442 -223.3242,-31.02113 -339.8009,-50.57815 -116.4705,-19.55598 -221.1862,-36.99475 -340.3724,-50.69165 -77.0605,-8.8558 -150.9942,-15.0266 -224.3694,-18.96225 -72.7637,-3.90286 -139.1256,-5.27261 -195.1541,-5.27261 z m 0,37.81515 v 18.86793 c 55.9187,0 121.0493,0.59523 193.5686,3.15627 72.9408,2.57593 146.0589,6.87694 222.9288,13.47676 119.09,10.22471 223.0762,23.76065 340.6056,39.2177 117.5025,15.4535 222.0471,29.0563 341.8507,39.33119 77.366,6.63526 151.0001,10.96128 224.4674,13.55245 73.0344,2.5759 138.631,3.17494 194.9247,3.17494 -55.9642,0 -122.2215,-1.36595 -194.8324,-5.25395 -73.2143,-3.92031 -146.9676,-10.0663 -223.8166,-18.88656 -118.8791,-13.6442 -223.3242,-31.02112 -339.8009,-50.57815 -116.4705,-19.55598 -221.1862,-36.99475 -340.3724,-50.69165 -77.0605,-8.8558 -150.9942,-15.02659 -224.3694,-18.96225 -72.7637,-3.90286 -139.1256,-5.2726 -195.1541,-5.2726 z m 0,37.81516 v 18.86792 c 55.9187,0 121.0493,0.59523 193.5686,3.15628 72.9408,2.57593 146.0589,6.87694 222.9288,13.47675 119.09,10.22471 223.0762,23.76065 340.6056,39.2177 117.5025,15.4535 222.0471,29.0563 341.8507,39.3312 77.366,6.63525 151.0001,10.96128 224.4674,13.55245 73.0344,2.5759 138.631,3.17493 194.9247,3.17493 -55.9642,0 -122.2215,-1.36594 -194.8324,-5.25394 -73.2143,-3.92032 -146.9676,-10.0663 -223.8166,-18.88656 -118.8791,-13.6442 -223.3242,-31.02113 -339.8009,-50.57815 -116.4705,-19.55598 -221.1862,-36.99475 -340.3724,-50.69165 -77.0605,-8.8558 -150.9942,-15.0266 -224.3694,-18.96225 -72.7637,-3.90286 -139.1256,-5.27261 -195.1541,-5.27261 z"
         id="use26"
         transform="matrix(0.22300099,0,0,0.37823052,-402.85121,237.25945)" />
    </pattern>
    <clipPath
       clipPathUnits="userSpaceOnUse"
       id="clipPath54">
      <path
         id="path336"
         style="stroke-width:0.0999999;stroke-linecap:square;paint-order:markers fill stroke;stop-color:#000000"
         d="m 1691.1994,-792.32001 h 1634.8919 v 92.82806 H 1691.1994 Z" />
    </clipPath>
    <clipPath
       clipPathUnits="userSpaceOnUse"
       id="clipPath33">
      <rect
         style="fill:#000000;stroke:none;stroke-width:0.999995;stroke-linecap:butt;stroke-linejoin:bevel;paint-order:stroke markers fill;stop-color:#000000"
         id="rect33"
         width="46.19186"
         height="80.006783"
         x="74.999985"
         y="399.99661" />
    </clipPath>
    <clipPath
       clipPathUnits="userSpaceOnUse"
       id="clipPath27">
      <rect
         style="fill:none;stroke:#000000;stroke-width:0.999999;stroke-linecap:butt;stroke-linejoin:bevel;paint-order:stroke markers fill;stop-color:#000000"
         id="rect28-6"
         width="46.160622"
         height="39.922417"
         x="86.574379"
         y="420.06253" />
    </clipPath>
    <clipPath
       clipPathUnits="userSpaceOnUse"
       id="clipPath25">
      <rect
         style="fill:#ff0000;stroke:none;stroke-width:3;stroke-linecap:square;stroke-linejoin:miter;paint-order:stroke markers fill;stop-color:#000000"
         id="rect25-8"
         width="78"
         height="45.033199"
         x="763.61322"
         y="452.82422" />
    </clipPath>
    <clipPath
       clipPathUnits="userSpaceOnUse"
       id="clipPath15">
      <rect
         style="fill:none;stroke:#000000;stroke-linecap:butt;stroke-linejoin:bevel;paint-order:stroke markers fill;stop-color:#000000"
         id="rect15-7"
         width="45.034248"
         height="38.955639"
         x="262.48285"
         y="121.00073" />
    </clipPath>
    <linearGradient
       id="swatch75">
      <stop
         style="stop-color:#000000;stop-opacity:1;"
         offset="0"
         id="stop75" />
    </linearGradient>
  </defs>
  <g
     id="layer70"
     style="display:inline">
    <g
       id="layer87"
       style="display:inline">
      <path
         style="baseline-shift:baseline;display:inline;overflow:visible;opacity:1;vector-effect:none;fill-rule:evenodd;enable-background:accumulate;stop-color:#000000;stop-opacity:1"
         d="m 636.13281,422.85156 c -1.73967,0 -4.43963,0.60363 -6.54687,2.34961 -2.10724,1.74599 -3.0928,4.07465 -3.44336,5.59375 -0.18082,0.78355 -0.12692,1.12294 -0.17188,1.66016 -0.26411,0.55192 -0.47833,0.94779 -0.875,1.93945 -1.18258,2.95647 -1.52077,4.71059 -1.6582,5.03125 -0.44534,1.03914 -2.13325,3.31884 -3.67773,7.4375 -1.78215,4.75238 -1.78848,7.04849 -1.52735,6.46094 -1.13579,2.55554 -1.79447,3.77617 -2.19726,4.47265 -0.25556,-0.0162 -0.22661,-0.10533 -1.50196,0.13868 -0.30643,-0.47627 -0.39976,-0.82521 -0.86523,-1.38868 -1.12755,-1.36492 -3.20199,-3.11535 -6.04297,-3.77539 -2.48811,-0.57805 -4.88819,-0.0563 -6.67383,0.66602 -0.90746,-0.55933 -1.6185,-1.1414 -2.73828,-1.65039 -6.61819,-3.00827 -10.40076,-0.89649 -9.39453,-0.89649 h -8.76367 -42.0586 c -15.4807,0 -19.24071,-0.59048 -34.85547,1.875 -15.21526,2.40242 -18.82655,3.98838 -32.27343,7.15235 -5.21918,1.22804 -10.35935,2.41679 -15.44336,3.43359 -2.1921,0.43843 -6.19966,0.37093 -11.49414,2 -7.23651,2.22662 -10.73883,3.36543 -13.29102,4.43164 -0.63804,0.26656 -1.21936,0.5115 -2.07031,1.00586 -0.71298,0.41421 -1.93811,0.55135 -3.49219,3.13477 -0.39142,0.14638 -0.44779,0.18503 -0.90039,0.34961 -2.18583,0.79485 -6.89616,1.03058 -12.98633,3.79883 -5.27082,2.39581 -7.68409,5.46961 -8.87304,6.36132 -2.24304,1.68228 -4.65835,3.42655 -7.14844,5.36328 -3.16869,2.46454 -6.02551,4.88161 -8.76172,7.00977 -1.37585,1.07011 -4.46086,2.59953 -7.94141,6.08008 -3.75172,3.75171 -5.07278,6.76454 -5.71289,7.49609 -0.86785,0.99184 -4.17071,2.95268 -7.62109,7.78321 -3.57225,5.00114 -3.23844,8.20058 -2.90039,7.35546 0.27712,-0.69279 -0.76945,0.5056 -1.95313,4.05664 -1.44976,4.3493 -1.56551,6.47212 -1.40429,6.10938 -0.51621,1.16146 -2.71982,3.66232 -5.06446,8.35156 -3.46722,6.93446 -3.6237,9.47917 -4.45898,15.32617 -0.63129,4.41904 -0.12827,6.26835 -0.0234,5.42969 -0.18842,1.50734 -1.20148,4.35986 -1.75195,8.76367 -0.52508,4.20049 -0.0903,5.97851 0,5.25586 -0.15435,1.23478 -1.38102,4.20511 -1.79492,9.17188 -0.43152,5.17832 -0.0352,9.56227 -0.0352,13.09765 v 5.25782 7.00976 c 0,0.65643 -0.51175,3.00963 0.13672,6.90039 0.64555,3.87332 1.87355,6.0113 2.12891,6.77735 0.58414,1.75243 1.16779,3.50339 1.75195,5.25586 1.11493,3.3448 1.89771,6.54566 4.41797,10.74609 0.95766,1.59609 1.50189,2.41041 1.95703,3.05273 -0.14989,1.31569 -0.18379,3.02286 0.63476,5.47852 1.07753,3.23257 2.74194,4.9911 3.51368,5.91211 0.18153,0.21665 0.18075,0.23348 0.27539,0.36133 -0.23484,-0.10855 -0.23898,2.09862 1.76367,6.77148 3.10364,7.24183 8.23788,11.00155 10.88281,13.64649 1.16827,1.16827 2.3356,2.33559 3.50391,3.5039 -0.90664,-0.90662 -0.15866,1.36993 4.35156,3.625 2.92793,1.46399 5.41331,1.20408 6.4082,1.09571 0.9949,-0.10838 1.01505,-0.0391 -0.18359,-0.0391 h 1.75391 1.75195 c -0.44863,0 1.65905,0.76882 5.92969,-0.29883 1.49523,-0.37381 2.53805,-0.85301 3.32421,-1.29101 1.45697,0.0942 3.31118,-0.008 5.73243,-1.21875 2.46782,-1.2339 3.64648,-2.56909 4.43359,-3.58203 0.71484,-0.19703 1.89931,-0.61533 3.79492,-1.42774 3.39891,-1.45668 5.65667,-2.90252 7.13281,-3.55859 1.72459,-0.76648 5.12248,-1.51232 9.44141,-3.83789 5.84195,-3.14568 10.2863,-6.62537 14.24024,-8.88477 3.2637,-1.86497 3.63304,-2.05213 5.23046,-2.94922 0.26109,0.009 0.59805,0.0625 0.82618,0.0645 4.97919,0.0428 7.16413,-1.13249 13.42773,-3.41016 6.25784,-2.27558 8.9058,-5.28375 9.53516,-5.57422 3.00651,-1.38762 8.1523,-2.31736 14.30273,-5.39258 10.5226,-5.26129 13.61685,-9.92593 20.53906,-14.77148 1.7635,-1.23445 4.82258,-2.6278 8.57422,-5.12891 8.18635,-5.45755 18.47943,-12.94818 26.0586,-20.52734 4.89279,-4.89281 7.79017,-9.54408 10.51367,-12.26758 2.56103,-2.56104 7.47305,-5.36944 12.50586,-10.76172 12.04354,-12.90379 15.64178,-21.39474 23.97461,-34.85547 1.10974,-1.79266 0.37146,-0.54823 1.29297,-2.02343 -0.55917,1.90942 -1.1624,4.07898 -1.75782,5.86523 -1.93578,5.80737 -4.83976,12.13422 -7.08984,19.52735 -2.3749,7.80324 -3.50694,15.02378 -5.29102,21.14062 -2.0059,6.87739 -4.23396,13.65468 -6.7539,20.26953 -1.45898,3.8298 -5.09116,8.9187 -7.28125,16.58399 -2.37868,8.32539 -2.66773,15.89553 -3.74024,22.0625 -1.10151,6.33369 -2.31476,12.72532 -3.49218,19.20117 l -0.0859,0.47656 -0.041,0.48242 c -0.61665,7.39985 -0.80151,14.25706 -1.68554,20.44531 -1.69166,11.84159 -6.34832,23.6332 -10.23047,37.22071 -1.22712,4.29488 -2.62199,9.02721 -3.56055,14.23633 -5.16504,14.03772 -0.97056,25.83205 -1.97461,32.60937 -1.54078,10.4003 -4.52123,21.18793 -6.91016,32.73438 -1.25357,6.05892 -2.25343,11.88554 -3.47461,17.38086 -0.8354,3.75933 -2.68098,8.51918 -3.62695,14.66796 -0.75238,4.89059 -0.11523,8.37619 -0.11523,10.28321 0,2.81404 0.0857,3.7948 0.11133,4.39843 -0.40263,0.64941 -0.88071,1.54251 -1.35157,2.95508 -1.51801,4.55411 -0.51172,6.43805 -0.51172,4.91407 v 3.5039 c 0,-3.0412 0.24877,-2.23604 -0.0254,-0.86523 -0.13708,0.6854 -0.66595,1.63762 0.0352,4.67578 0.35055,1.51908 1.33417,3.84579 3.44141,5.5918 2.10723,1.746 4.80913,2.35156 6.54882,2.35156 1.98376,0 5.81392,-1.08553 8.00977,-3.87696 0.11269,-0.14325 0.16018,-0.27594 0.26172,-0.41796 0.21402,-0.17562 0.54123,-0.35196 0.7168,-0.51954 1.92779,-0.60941 4.65387,-0.71663 10.29492,-2.83203 4.27078,-1.60153 6.46206,-3.28443 7.21093,-3.58398 1.82575,-0.7303 5.93439,-1.17618 11.27344,-3.8457 5.81235,-2.90619 7.59737,-5.55162 7.00977,-5.25782 l 1.63476,-0.8164 1.24024,-1.34375 c 0.76514,-0.82877 1.41439,-1.1253 4.38867,-1.61133 2.97428,-0.48603 7.726,-0.54098 13.35547,-3.04297 8.45282,-3.75681 13.52605,-8.73901 17.52344,-10.51562 -0.71983,0.31992 1.68348,0.38597 6.66211,-1.60547 5.3768,-2.15073 8.49177,-4.51654 10.21875,-5.14453 -0.54873,0.19953 0.0941,0.013 1.87109,-0.13477 1.77696,-0.14773 4.88757,-0.30462 8.43555,-2.33203 3.01874,-1.725 4.26129,-3.66332 5.04492,-5.2793 0.76887,-0.18172 1.38917,-0.32679 2.93359,-0.71289 0.93358,-0.23339 4.31539,-0.13718 9.05664,-2.50781 2.94489,-1.47245 5.38234,-4.1685 6.48828,-5.71289 0.58255,-0.23593 1.69975,-0.82325 3.34766,-1.92188 0.0955,-0.0637 0.0991,-0.10308 0.18945,-0.16601 0.84547,-0.0798 1.58176,-0.0526 2.6836,-0.41992 2.7885,-0.92952 4.24646,-2.47078 5.08789,-3.46485 0.063,-0.0201 0.10593,-0.0177 0.16992,-0.0391 3.02792,-1.00933 4.48936,-2.13237 4.81445,-2.29492 L 674.11532,790.957 c 0.13562,-0.004 0.39656,-0.0856 0.51172,-0.082 -0.18078,-0.035 -0.34663,-0.0472 -0.59179,-0.0762 l -0.31641,-0.63281 c -1.02783,0.51392 -0.76141,0.41982 -1.12109,0.61718 -1.15445,0.0785 -2.52277,0.32877 -4.13477,1.13477 -1.98385,0.99191 -3.14028,1.94423 -3.84766,2.67187 -0.64059,0.10561 -1.09243,0.0373 -1.85351,0.29102 -2.33992,0.77998 -3.63691,1.89122 -4.54492,2.87891 -0.62668,0.28126 -1.61722,0.80536 -3.09571,1.79101 -2.37863,1.58576 -3.82401,3.59821 -4.5664,4.71094 0.10213,-0.12862 -1.12887,0.0552 -4.58008,0.91797 -0.1613,0.0403 -4.39556,-0.69073 -10.13086,3.13281 -2.47895,1.65263 -3.63825,3.33085 -4.36523,4.76367 -1.377,0.084 -3.20383,0.23622 -5.77149,1.16992 -5.6383,2.05029 -8.91272,4.60923 -10.8125,5.36914 0.50617,-0.20246 -2.23578,-0.37589 -7.35742,1.90039 -8.45282,3.75681 -13.52606,8.73706 -17.52344,10.51368 -1.1226,0.49893 -4.03151,0.85885 -8.45703,1.58203 -3.91828,0.64028 -9.40501,2.20588 -14.05273,6.23633 -4.84278,2.64296 -6.48377,4.91473 -5.93946,4.64257 -1.26979,0.6349 -4.72311,1.15019 -9.75781,3.16407 -4.10218,1.64087 -6.18534,3.19474 -6.80664,3.42773 -0.1045,0.0392 -0.3136,0.0546 -0.42383,0.0898 -0.0328,-0.38114 -0.084,-0.995 -0.084,-1.24218 0,-3.93442 -0.25302,-6.35925 -0.11719,-7.24219 0.51918,-3.37296 2.13045,-7.72471 3.38477,-13.36914 1.36338,-6.13523 2.37482,-12.05973 3.53515,-17.66797 2.207,-10.66716 5.32584,-21.81856 7.10938,-33.85742 2.05306,-13.85813 -1.28186,-23.29546 1.13086,-29.25977 l 0.41211,-1.01953 0.18164,-1.08594 c 0.65345,-3.92072 1.90878,-8.20127 3.25586,-12.91601 3.51341,-12.29693 8.67066,-24.9896 10.79882,-39.88672 1.08346,-7.5842 1.26511,-14.68678 1.79102,-21.19922 1.12986,-6.19944 2.31345,-12.45569 3.41797,-18.80664 1.36273,-7.83572 1.7417,-14.65551 3.26758,-19.99609 0.97095,-3.39831 4.10301,-8.03629 6.74023,-14.95899 2.74088,-7.19482 5.13375,-14.47975 7.26563,-21.78906 2.26218,-7.75605 3.38999,-14.89638 5.22265,-20.91797 1.7314,-5.68887 4.54124,-11.86002 6.92969,-19.02539 2.09125,-6.27374 3.57997,-12.24603 5.30078,-17.6543 2.15728,-6.78002 4.68636,-13.72716 7.00977,-21.02929 1.84728,-5.80572 3.75871,-11.78074 5.39843,-18.01172 1.70178,-6.46674 2.09761,-11.65416 3.27344,-15.01367 1.93601,-5.53147 5.25724,-11.47063 8.42578,-18.44141 l 0.59375,-1.30664 0.20313,-1.41797 c 0.71234,-4.98642 0.83014,-8.70529 1.46679,-10.93359 0.60801,-2.12804 3.1053,-5.78075 5.12891,-11.85157 1.35586,-4.06763 0.92097,-5.89459 0.66992,-6.23437 0.0162,-0.10628 0.0275,-0.0611 0.043,-0.17578 0.12822,-0.94718 0.51059,-2.22915 -0.47461,-5.08008 -0.9852,-2.85093 -6.15967,-6.92969 -9.72461,-6.92969 z m -114.48242,47.98047 c 4.0866,-0.11632 8.33237,0.0586 16.3457,0.0586 h 42.0586 8.76367 c 1.54647,0 1.8885,0.0524 2.42383,0.0918 0.81461,0.57111 1.56423,1.08475 3.36718,2.55469 0.57818,0.47138 1.47657,1.03563 2.19141,1.57226 -0.0197,2.76136 0.35886,5.27514 0.69141,7.29102 0.71021,4.30535 0.9925,7.16104 0.83008,7.9082 -0.655,3.01295 -4.42003,7.70017 -8.03907,15.39063 -12.59466,26.76366 4.85784,-4.73504 -16.97851,30.53906 -8.9226,14.41342 -11.12477,20.52374 -21.58985,31.73633 -2.31651,2.48198 -6.97208,5.2123 -12.02734,10.26758 -4.89282,4.8928 -7.79016,9.54211 -10.51367,12.26562 -5.70231,5.7023 -15.5162,13.03164 -23.00977,18.02735 -1.91648,1.27766 -5.13386,2.7146 -8.95117,5.38671 -9.06556,6.3459 -10.42187,9.47168 -18.01367,13.26758 -2.77761,1.38881 -7.68168,2.32574 -13.73828,5.1211 -5.55589,2.56425 -7.84402,4.88699 -7.98828,4.93945 -1.55934,0.56703 -2.35565,0.72105 -3.49024,1.0332 -1.34768,-0.45606 -2.51273,-0.63124 -3.28711,-0.62695 -2.09046,0.0116 -2.72477,0.36614 -3.28515,0.55469 -1.12077,0.37709 -1.47962,0.59925 -1.96875,0.8457 -1.95655,0.9858 -4.53507,2.48488 -10.54297,5.91797 -5.61551,3.20887 -9.93658,6.56094 -13.79883,8.64062 -1.22049,0.65719 -4.05744,1.38318 -8.08203,3.17188 -3.29828,1.46591 -5.48332,2.84971 -6.88672,3.45117 0.65669,-0.28144 -1.93095,-0.35003 -6.46289,2.36914 -1.28238,0.76943 -2.07462,1.53099 -2.75977,2.23242 -0.55095,0.0675 -0.8667,-0.0216 -1.53125,0.14453 -1.70422,0.42605 -2.76252,0.96329 -3.55859,1.4375 -0.37364,0.01 -0.41409,0.0176 -1.02539,0.0176 h -1.11524 c -0.77624,-0.77625 -1.55185,-1.55185 -2.32812,-2.32812 -3.67099,-3.67099 -6.08652,-6.08536 -6.64258,-7.38281 0.30575,0.71341 0.4513,-1.86886 -1.75195,-7.00977 -0.91384,-2.13228 -1.85152,-3.32051 -2.58399,-4.17773 0.16031,-1.31633 0.21402,-3.04352 -0.625,-5.56055 -1.87279,-5.61836 -4.56783,-7.49001 -4.41797,-7.24024 -1.34754,-2.24591 -1.19906,-2.6011 -2.59179,-6.77929 -0.58414,-1.75242 -1.16977,-3.50539 -1.75391,-5.25782 -0.91295,-2.73883 -1.41319,-3.96742 -1.375,-3.73828 0.0723,0.43359 0.13672,-0.76485 0.13672,-3.61328 v -7.00976 -5.25782 c 0,-4.64264 -0.28277,-8.46409 -0.0352,-11.43554 0.0808,-0.96977 1.12639,-3.67717 1.71094,-8.35352 0.52505,-4.20045 0.0903,-5.97854 0,-5.25586 0.18841,-1.50732 1.20147,-4.35988 1.75195,-8.76367 0.53956,-4.31645 0.11219,-6.03143 -0.0234,-5.08203 -0.3861,2.70271 4.01875,-12.14884 2.54883,-9.20899 0.7019,-1.40379 3.20067,-4.11018 5.45117,-9.17382 1.9374,-4.35915 1.99523,-6.90849 2.05273,-7.52539 0.13378,-0.0523 0.70725,-1.10507 1.59961,-3.33594 1.71013,-4.27534 2.03036,-5.155 0.60547,-3.16016 0.39094,-0.54732 2.91433,-2.2545 6.39844,-6.23633 3.20651,-3.66456 4.42197,-6.14462 4.80078,-6.52343 0.64997,-0.64997 2.84301,-1.91936 6.07812,-4.43555 3.1687,-2.46454 6.02747,-4.8816 8.76368,-7.00977 2.12086,-1.64956 4.43901,-3.3278 6.86914,-5.15039 3.48419,-2.61314 5.1014,-4.13291 5.14843,-4.15429 1.65276,-0.75125 5.73951,-1.09722 11.54688,-3.20899 2.51632,-0.91502 4.3189,-1.61998 5.79297,-2.27344 1.47406,-0.65345 2.28312,-0.53514 4.85156,-3.04296 0.22937,-0.22396 0.50499,-0.54484 0.77539,-0.86133 1.85641,-0.64035 2.83601,-1.02797 7.37891,-2.42578 1.49767,-0.46083 4.75881,-0.54863 9.53515,-1.50391 5.47791,-1.09558 10.83598,-2.33721 16.10157,-3.57617 14.10129,-3.31795 16.43352,-4.59682 30.8125,-6.86719 7.37687,-1.16477 11.30402,-1.57118 15.39062,-1.6875 z m -61.63086,180.7832 c -0.3439,2.12149 -1.23711,2.20033 -1.28711,2.27344 -0.0341,0.0499 0.0378,-0.0289 0.37305,-0.54492 0.16762,-0.25801 0.41136,-0.58808 0.8164,-1.49414 0.0219,-0.049 0.0702,-0.18096 0.0977,-0.23438 z m -62.07617,33.02539 c 0.0248,0.004 0.12624,0.0106 0.1543,0.0156 -0.52803,-0.0185 -0.65766,-0.0996 -0.1543,-0.0156 z M 668.875,794.41016 c 0.50253,0.0143 0.62573,0.12039 0.32617,0.0742 -0.0601,-0.009 -0.33014,-0.0377 -0.42383,-0.0566 0.0199,2.8e-4 0.0788,-0.0181 0.0977,-0.0176 z M 666.1543,814.25 c 0.0591,0.009 0.32457,0.0362 0.41601,0.0547 -0.54799,-0.008 -0.72615,-0.1025 -0.41601,-0.0547 z m -35.63672,1.02734 c -0.0159,0.0422 -0.079,0.17918 -0.0937,0.21485 -0.20003,0.48429 -0.24822,0.29127 0.0937,-0.21485 z m -87.08399,55.45899 c 0.13013,-0.17756 0.0273,0.0821 -0.40625,0.5332 0.10295,-0.15486 0.36078,-0.47115 0.40625,-0.5332 z"
         id="path452" />
    </g>
  </g>
</svg>
