<?xml version="1.0" encoding="UTF-8" standalone="no"?>
<!-- Created with Inkscape (http://www.inkscape.org/) -->

<svg
   width="1000"
   height="1000"
   viewBox="0 0 1000 1000"
   version="1.1"
   id="svg1"
   xmlns:xlink="http://www.w3.org/1999/xlink"
   xmlns="http://www.w3.org/2000/svg"
   xmlns:svg="http://www.w3.org/2000/svg">
  <defs
     id="defs1">
    <pattern
       xlink:href="#pattern359"
       preserveAspectRatio="xMidYMid"
       id="pattern372"
       patternTransform="matrix(0.5,0,0,0.5,147.15462,1548.2922)" />
    <pattern
       xlink:href="#pattern357"
       preserveAspectRatio="xMidYMid"
       id="pattern371"
       patternTransform="matrix(0.5,0,0,0.5,221.32076,1552.4298)" />
    <pattern
       xlink:href="#pattern358"
       preserveAspectRatio="xMidYMid"
       id="pattern370"
       patternTransform="matrix(0.5,0,0,0.5,230.96346,1527.8214)" />
    <pattern
       xlink:href="#pattern355"
       preserveAspectRatio="xMidYMid"
       id="pattern369"
       patternTransform="matrix(0.5,0,0,0.5,287.08178,1553.6581)" />
    <pattern
       xlink:href="#pattern354"
       preserveAspectRatio="xMidYMid"
       id="pattern368"
       patternTransform="matrix(0.5,0,0,0.5,230.97274,1529.1717)" />
    <pattern
       xlink:href="#pattern342"
       preserveAspectRatio="xMidYMid"
       id="pattern360"
       patternTransform="matrix(0.5,0,0,0.5,210.45332,1525.5392)" />
    <pattern
       xlink:href="#pattern342"
       preserveAspectRatio="xMidYMid"
       id="pattern359"
       patternTransform="matrix(0.5,0,0,0.5,152.11125,1550.7705)" />
    <pattern
       xlink:href="#pattern342"
       preserveAspectRatio="xMidYMid"
       id="pattern358"
       patternTransform="matrix(0.5,0,0,0.5,202.11125,1533.2444)" />
    <pattern
       xlink:href="#pattern342"
       preserveAspectRatio="xMidYMid"
       id="pattern357"
       patternTransform="matrix(0.5,0,0,0.5,211.4075,1546.234)" />
    <pattern
       xlink:href="#pattern342"
       preserveAspectRatio="xMidYMid"
       id="pattern356"
       patternTransform="matrix(0.5,0,0,0.5,232.14929,1573.2544)" />
    <pattern
       xlink:href="#pattern342"
       preserveAspectRatio="xMidYMid"
       id="pattern355"
       patternTransform="matrix(0.5,0,0,0.5,275,1552.7287)" />
    <pattern
       xlink:href="#pattern342"
       preserveAspectRatio="xMidYMid"
       id="pattern354"
       patternTransform="matrix(0.5,0,0,0.5,235,1529.7913)" />
    <pattern
       xlink:href="#shading24"
       preserveAspectRatio="xMidYMid"
       id="pattern342"
       patternTransform="matrix(0.5,0,0,0.5,213.95332,1537.5392)"
       x="0"
       y="0" />
    <pattern
       patternUnits="userSpaceOnUse"
       width="338.5925"
       height="42.989567"
       patternTransform="translate(213.95332,1537.5392) scale(0.5)"
       preserveAspectRatio="xMidYMid"
       id="shading24"
       style="fill:#000000">
      <path
         style="fill-rule:nonzero;stroke:none;stroke-width:0.1;stroke-linecap:square;paint-order:markers fill stroke;stop-color:#000000"
         d="m 1806.4991,-758.06464 v 18.86792 c 55.9187,0 121.0493,0.59523 193.5686,3.15628 72.9408,2.57593 146.0589,6.87694 222.9288,13.47675 119.09,10.22471 223.0762,23.76065 340.6056,39.2177 117.5025,15.4535 222.0471,29.0563 341.8507,39.3312 77.366,6.63525 151.0001,10.96128 224.4674,13.55245 73.0344,2.5759 138.631,3.17493 194.9247,3.17493 -55.9642,0 -122.2215,-1.36594 -194.8324,-5.25394 -73.2143,-3.92032 -146.9676,-10.0663 -223.8166,-18.88656 -118.8791,-13.6442 -223.3242,-31.02113 -339.8009,-50.57815 -116.4705,-19.55598 -221.1862,-36.99475 -340.3724,-50.69165 -77.0605,-8.8558 -150.9942,-15.0266 -224.3694,-18.96225 -72.7637,-3.90286 -139.1256,-5.27261 -195.1541,-5.27261 z m 0,37.81515 v 18.86793 c 55.9187,0 121.0493,0.59523 193.5686,3.15627 72.9408,2.57593 146.0589,6.87694 222.9288,13.47676 119.09,10.22471 223.0762,23.76065 340.6056,39.2177 117.5025,15.4535 222.0471,29.0563 341.8507,39.33119 77.366,6.63526 151.0001,10.96128 224.4674,13.55245 73.0344,2.5759 138.631,3.17493 194.9247,3.17493 -55.9642,0 -122.2215,-1.36594 -194.8324,-5.25394 -73.2143,-3.92031 -146.9676,-10.0663 -223.8166,-18.88656 -118.8791,-13.6442 -223.3242,-31.02112 -339.8009,-50.57815 -116.4705,-19.55598 -221.1862,-36.99475 -340.3724,-50.69165 -77.0605,-8.8558 -150.9942,-15.02659 -224.3694,-18.96225 -72.7637,-3.90286 -139.1256,-5.2726 -195.1541,-5.2726 z m 0,37.81516 v 18.86792 c 55.9187,0 121.0493,0.59523 193.5686,3.15628 72.9408,2.57593 146.0589,6.87694 222.9288,13.47675 119.09,10.22471 223.0762,23.76065 340.6056,39.2177 117.5025,15.4535 222.0471,29.0563 341.8507,39.3312 77.366,6.63525 151.0001,10.96128 224.4674,13.55245 73.0344,2.5759 138.631,3.17493 194.9247,3.17493 -55.9642,0 -122.2215,-1.36594 -194.8324,-5.25394 -73.2143,-3.92032 -146.9676,-10.0663 -223.8166,-18.88656 -118.8791,-13.6442 -223.3242,-31.02113 -339.8009,-50.57815 -116.4705,-19.55598 -221.1862,-36.99475 -340.3724,-50.69165 -77.0605,-8.8558 -150.9942,-15.0266 -224.3694,-18.96225 -72.7637,-3.90286 -139.1256,-5.27261 -195.1541,-5.27261 z m 0,37.81515 v 18.86793 c 55.9187,0 121.0493,0.59523 193.5686,3.15627 72.9408,2.57593 146.0589,6.87694 222.9288,13.47676 119.09,10.22471 223.0762,23.76065 340.6056,39.2177 117.5025,15.4535 222.0471,29.0563 341.8507,39.33119 77.366,6.63526 151.0001,10.96128 224.4674,13.55245 73.0344,2.5759 138.631,3.17494 194.9247,3.17494 -55.9642,0 -122.2215,-1.36595 -194.8324,-5.25395 -73.2143,-3.92031 -146.9676,-10.0663 -223.8166,-18.88656 -118.8791,-13.6442 -223.3242,-31.02112 -339.8009,-50.57815 -116.4705,-19.55598 -221.1862,-36.99475 -340.3724,-50.69165 -77.0605,-8.8558 -150.9942,-15.02659 -224.3694,-18.96225 -72.7637,-3.90286 -139.1256,-5.2726 -195.1541,-5.2726 z m 0,37.81516 v 18.86792 c 55.9187,0 121.0493,0.59523 193.5686,3.15628 72.9408,2.57593 146.0589,6.87694 222.9288,13.47675 119.09,10.22471 223.0762,23.76065 340.6056,39.2177 117.5025,15.4535 222.0471,29.0563 341.8507,39.3312 77.366,6.63525 151.0001,10.96128 224.4674,13.55245 73.0344,2.5759 138.631,3.17493 194.9247,3.17493 -55.9642,0 -122.2215,-1.36594 -194.8324,-5.25394 -73.2143,-3.92032 -146.9676,-10.0663 -223.8166,-18.88656 -118.8791,-13.6442 -223.3242,-31.02113 -339.8009,-50.57815 -116.4705,-19.55598 -221.1862,-36.99475 -340.3724,-50.69165 -77.0605,-8.8558 -150.9942,-15.0266 -224.3694,-18.96225 -72.7637,-3.90286 -139.1256,-5.27261 -195.1541,-5.27261 z m 0,37.81515 v 18.86793 c 55.9187,0 121.0493,0.59523 193.5686,3.15627 72.9408,2.57593 146.0589,6.87694 222.9288,13.47676 119.09,10.22471 223.0762,23.76065 340.6056,39.2177 117.5025,15.4535 222.0471,29.0563 341.8507,39.33119 77.366,6.63526 151.0001,10.96128 224.4674,13.55245 73.0344,2.5759 138.631,3.17494 194.9247,3.17494 -55.9642,0 -122.2215,-1.36595 -194.8324,-5.25395 -73.2143,-3.92031 -146.9676,-10.0663 -223.8166,-18.88656 -118.8791,-13.6442 -223.3242,-31.02112 -339.8009,-50.57815 -116.4705,-19.55598 -221.1862,-36.99475 -340.3724,-50.69165 -77.0605,-8.8558 -150.9942,-15.02659 -224.3694,-18.96225 -72.7637,-3.90286 -139.1256,-5.2726 -195.1541,-5.2726 z m 0,37.81516 v 18.86792 c 55.9187,0 121.0493,0.59523 193.5686,3.15628 72.9408,2.57593 146.0589,6.87694 222.9288,13.47675 119.09,10.22471 223.0762,23.76065 340.6056,39.2177 117.5025,15.4535 222.0471,29.0563 341.8507,39.3312 77.366,6.63525 151.0001,10.96128 224.4674,13.55245 73.0344,2.5759 138.631,3.17493 194.9247,3.17493 -55.9642,0 -122.2215,-1.36594 -194.8324,-5.25394 -73.2143,-3.92032 -146.9676,-10.0663 -223.8166,-18.88656 -118.8791,-13.6442 -223.3242,-31.02113 -339.8009,-50.57815 -116.4705,-19.55598 -221.1862,-36.99475 -340.3724,-50.69165 -77.0605,-8.8558 -150.9942,-15.0266 -224.3694,-18.96225 -72.7637,-3.90286 -139.1256,-5.27261 -195.1541,-5.27261 z"
         id="use26"
         transform="matrix(0.22300099,0,0,0.37823052,-402.85121,237.25945)" />
    </pattern>
    <clipPath
       clipPathUnits="userSpaceOnUse"
       id="clipPath54">
      <path
         id="path336"
         style="stroke-width:0.0999999;stroke-linecap:square;paint-order:markers fill stroke;stop-color:#000000"
         d="m 1691.1994,-792.32001 h 1634.8919 v 92.82806 H 1691.1994 Z" />
    </clipPath>
    <clipPath
       clipPathUnits="userSpaceOnUse"
       id="clipPath33">
      <rect
         style="fill:#000000;stroke:none;stroke-width:0.999995;stroke-linecap:butt;stroke-linejoin:bevel;paint-order:stroke markers fill;stop-color:#000000"
         id="rect33"
         width="46.19186"
         height="80.006783"
         x="74.999985"
         y="399.99661" />
    </clipPath>
    <clipPath
       clipPathUnits="userSpaceOnUse"
       id="clipPath27">
      <rect
         style="fill:none;stroke:#000000;stroke-width:0.999999;stroke-linecap:butt;stroke-linejoin:bevel;paint-order:stroke markers fill;stop-color:#000000"
         id="rect28-6"
         width="46.160622"
         height="39.922417"
         x="86.574379"
         y="420.06253" />
    </clipPath>
    <clipPath
       clipPathUnits="userSpaceOnUse"
       id="clipPath25">
      <rect
         style="fill:#ff0000;stroke:none;stroke-width:3;stroke-linecap:square;stroke-linejoin:miter;paint-order:stroke markers fill;stop-color:#000000"
         id="rect25-8"
         width="78"
         height="45.033199"
         x="763.61322"
         y="452.82422" />
    </clipPath>
    <clipPath
       clipPathUnits="userSpaceOnUse"
       id="clipPath15">
      <rect
         style="fill:none;stroke:#000000;stroke-linecap:butt;stroke-linejoin:bevel;paint-order:stroke markers fill;stop-color:#000000"
         id="rect15-7"
         width="45.034248"
         height="38.955639"
         x="262.48285"
         y="121.00073" />
    </clipPath>
    <linearGradient
       id="swatch75">
      <stop
         style="stop-color:#000000;stop-opacity:1;"
         offset="0"
         id="stop75" />
    </linearGradient>
  </defs>
  <g
     id="layer70"
     style="display:inline">
    <g
       id="layer89"
       style="display:inline">
      <path
         style="baseline-shift:baseline;display:inline;overflow:visible;opacity:1;vector-effect:none;fill-rule:evenodd;enable-background:accumulate;stop-color:#000000;stop-opacity:1"
         d="m 629.12305,436.87109 c -2.36708,0 -5.57769,-0.30131 -9.5918,0.0332 -5.28664,0.44055 -9.32171,1.50842 -12.26758,1.7539 -0.61395,0.0512 -3.96044,-0.92038 -9.7207,0.12696 -5.15202,0.93673 -8.86242,2.54314 -11.14258,3.51757 -2.28016,0.97444 -3.02725,1.34201 -5.69727,1.63868 -3.57916,0.39768 -5.24082,0.40312 -5.40429,0.40234 -0.67971,-0.26079 -1.34751,-0.47639 -1.88672,-0.50586 -2.4205,-0.1323 -2.95062,0.21757 -3.67774,0.39063 -1.45423,0.34611 -3.02361,0.81143 -6.44531,1.78906 -6.42757,1.83645 -8.07754,2.9704 -13.99219,5.92773 -0.7829,0.39146 -0.88204,0.42285 -1.2871,0.60352 -0.67515,-0.22769 -2.4285,-0.43151 -6.4004,0.23047 -5.68481,0.94749 -7.22627,2.9909 -5.57421,2.33007 -0.98815,0.39526 -2.58129,0.84286 -4.70508,1.55079 -1.51832,0.50611 -3.41575,1.05508 -5.60742,1.87695 -3.58347,1.3438 -6.30792,2.67946 -8.41211,3.38086 -0.82967,0.27655 -3.26966,0.50525 -7.00977,1.75195 -2.68205,0.89403 -4.34255,2.00685 -5.30469,2.55664 -3.32674,1.90099 -6.17376,3.77898 -8.76172,5.25781 -1.30601,0.7463 -1.90886,1.0152 -1.70507,0.94727 -3.07413,1.02471 -3.88949,1.17037 -3.99219,1.22266 -1.41979,0.0346 -2.32213,0.27566 -2.97852,0.50195 -0.9017,0.31086 -1.56671,0.59608 -2.61523,1.32422 -0.52426,0.36407 -1.15708,0.80305 -2.04688,1.875 -0.0222,0.0267 -0.055,0.0951 -0.0781,0.12305 -0.54226,0.39513 -1.3643,1.04385 -4.44727,2.9707 -1.14331,0.71457 -3.27973,1.59006 -6.18164,3.04101 -2.0058,1.00291 -4.5877,2.10257 -7.49804,3.76563 -5.06544,2.89454 -10.52737,7.36085 -13.30664,9.44531 -1.58236,1.18676 -4.6815,2.78698 -8.08008,6.18555 -3.7517,3.75169 -5.07277,6.76453 -5.71289,7.49609 -1.59193,1.81935 -3.90454,3.87329 -6.55469,6.52344 -1.32563,1.32563 -3.50976,3.09452 -5.86914,5.92578 -2.10014,2.52015 -3.00411,4.03493 -3.14844,4.54102 -0.72711,0.0643 -3.84254,1.43597 -7.57617,6.23632 -4.15489,5.34202 -5.12193,9.99406 -6.14258,11.86524 -1.88867,3.46256 -1.77063,3.22525 -2.5918,4.62109 -0.41708,0.41406 -0.64003,0.71955 -0.80859,0.9336 -1.16436,1.47861 -0.96829,1.43819 -1.1582,1.78711 -0.18992,0.34891 -0.35098,0.66718 -0.51563,1 -0.32929,0.66562 -0.60288,1.19897 -0.99219,2.21875 -0.0973,0.25494 -0.20635,0.5252 -0.36914,1.11523 -0.0219,0.0793 -0.0516,0.27482 -0.0762,0.36914 -0.81026,1.87023 -1.54728,3.60962 -4.30469,9.58399 -1.46757,3.17975 -3.27553,6.54131 -5.12109,10.23242 -1.41069,2.82138 -3.8495,6.44943 -5.71094,11.56836 -1.12814,3.10239 -1.79621,5.08756 -2.25195,7.09179 -0.45574,2.00424 -0.53661,5.10353 0.0293,7.10157 0.12407,0.43807 0.0917,0.30299 0.14258,0.47461 -0.0263,-0.23542 0.0387,-0.13235 -0.17383,1.35546 -0.0715,0.50043 -1.03317,2.67748 -1.7168,6.7793 -0.55245,3.3146 -0.13672,5.07812 -0.13672,5.15039 v 3.50391 c 0,-0.4486 -0.76882,1.65905 0.29883,5.92969 0.65082,2.60326 1.2177,3.25761 1.83594,4.39843 0.61823,1.14083 1.2876,2.25437 1.95508,3.32032 0.66747,1.06594 1.3247,2.06398 1.9082,2.9121 0.5835,0.84813 0.0399,0.62978 2.1875,2.77735 3.74219,3.74219 6.36518,4.46871 6.08203,4.24219 1.74211,1.39368 0.15566,0.40253 3.00977,3.08789 1.42705,1.34268 3.73384,2.5335 5.29296,3.0332 1.55912,0.4997 2.86683,0.75891 4.7461,1.13477 5.33036,1.06606 9.41536,1.09795 11.97851,1.68945 1.1409,0.26328 4.67281,2.77133 11.44141,3.67383 6.9579,0.92771 12.71754,0.0879 17.09375,0.0879 h 14.01953 15.77149 c 4.47835,0 10.1729,0.72793 16.9414,-0.0684 7.35968,-0.86584 11.78679,-3.25713 13.95508,-3.49805 4.34231,-0.48248 9.84227,0.0605 16.41992,0.0605 H 539.75 555.52148 c 6.57766,0 12.07763,-0.54303 16.41993,-0.0605 2.27061,0.25229 6.65922,2.52605 13.80273,3.47852 6.67323,0.88976 10.83258,-0.19108 12.26563,0 3.17248,0.42299 7.43454,2.02997 13.09375,3.33593 3.39215,0.78281 6.33634,1.22034 8.76367,1.75586 0.29948,0.0749 0.59895,0.14974 0.89843,0.22461 -0.36138,0.72639 -0.73978,1.47131 -1.1289,2.63867 -0.98677,2.96029 -1.37951,4.62107 -1.40235,5.28711 -0.58643,0.5014 -1.6246,1.50352 -3.1914,3.07032 -1.51733,1.51733 -4.90711,3.74033 -8.13086,8.3457 -4.41252,6.3036 -4.90301,10.00541 -4.46484,9.52344 -1.38439,1.52282 -5.47067,3.44089 -10.86719,7.48828 -6.15767,4.61826 -10.68227,9.14998 -14.91797,11.6914 -4.78376,2.87026 -11.15283,5.04455 -18.2207,8.2129 -41.09626,18.42246 -19.1068,10.13442 -60.09571,22.32031 -37.42147,11.12531 -33.56426,10.34533 -71.6875,20.98437 -12.67723,3.53784 -25.61304,6.8169 -38.61328,10.53125 -11.75464,3.35847 -23.58669,6.79016 -35.38672,10.61719 -10.94045,3.54825 -20.29811,8.11603 -29.13086,10.32422 -6.45998,1.61499 -15.53909,0.92494 -26.19531,3.48242 -8.69757,2.08742 -14.13968,6.06419 -17.86719,7.09961 -2.19497,0.60971 -6.77507,0.27611 -13.30468,1.58203 -2.21446,0.44323 -3.45222,1.13465 -4.32032,1.70313 -0.0844,-0.0791 -0.17836,-0.14453 -2.48047,-0.14453 h -1.75195 v 20 h 1.75195 c 0.44499,0 2.93625,0.66118 7.21875,-0.19532 2.40237,-0.48046 3.67834,-1.25736 4.51563,-1.83008 2.85403,-0.3483 7.44303,-0.10082 13.72461,-1.8457 8.39629,-2.3323 13.64381,-6.07084 17.18164,-6.91992 6.53503,-1.5684 15.68538,-0.85446 26.37695,-3.52734 11.60004,-2.90002 21.35732,-7.75573 30.45117,-10.70508 11.40468,-3.69881 23.0096,-7.06692 34.71094,-10.41016 12.61578,-3.60451 25.5108,-6.87478 38.49414,-10.49805 38.21596,-10.66491 34.7047,-9.98488 72.01172,-21.07617 40.51899,-12.04618 21.83633,-4.97949 62.57617,-23.24218 5.81355,-2.60607 13.01102,-4.9199 20.33203,-9.3125 7.18656,-4.31194 12.12819,-9.46772 16.62696,-12.8418 2.64348,-1.98261 8.29004,-4.12158 13.66601,-10.03516 5.70998,-6.28097 5.96901,-11.39099 6.05078,-11.50781 0.56617,-0.80881 2.73287,-2.51607 5.88868,-5.67188 0.5121,-0.51209 3.89703,-2.16942 6.86718,-7.36718 3.23283,-5.65744 2.69354,-9.21927 2.55664,-8.8086 -0.18322,0.54969 0.20518,-0.18379 1.21094,-2.19531 0.16249,-0.32498 1.28558,-1.78641 2.29492,-4.81445 1.51801,-4.55411 0.51368,-6.44005 0.51368,-4.91602 v -1.75195 c 0,2.06491 -0.19205,1.98191 0.0215,0.68555 0.21353,-1.29637 0.58859,-5.96797 -2.95117,-9.50782 -1.19791,-1.19791 -2.71254,-1.94438 -4.17578,-2.42578 l -1.28711,-1.28711 -2.6875,-0.66992 c -2.33656,-0.58413 -4.67316,-1.16976 -7.00977,-1.75391 l -0.12695,-0.0312 -0.12891,-0.0293 c -3.37583,-0.75019 -6.30142,-1.18464 -8.68359,-1.73438 -3.72804,-0.86031 -8.56836,-2.82161 -14.94531,-3.67187 -6.67324,-0.88977 -10.83454,0.19107 -12.26758,0 -2.40593,-0.32079 -6.9319,-2.71964 -14.23633,-3.53125 -7.26913,-0.80768 -13.52367,-0.0625 -18.62891,-0.0625 H 539.75 527.48242 c -5.10523,0 -11.35977,-0.74518 -18.6289,0.0625 -7.40675,0.82298 -11.87568,3.25192 -14.08399,3.51172 -3.67408,0.43224 -8.56727,-0.0684 -14.60351,-0.0684 H 464.39453 450.375 c -6.13839,0 -10.98474,0.54982 -14.44922,0.0879 -0.55548,-0.0741 -3.5291,-1.93971 -9.58789,-3.33789 -5.48634,-1.26608 -9.78441,-1.2604 -12.55469,-1.81446 -0.79355,-0.15871 -0.78154,-0.16856 -1.21679,-0.26953 -0.85008,-0.86175 -1.88164,-1.88773 -3.25977,-2.99023 -2.56145,-2.04916 -4.07244,-2.93915 -4.46875,-3.01758 -0.36919,-0.5442 -0.80626,-1.19839 -1.25195,-1.91016 -0.3935,-0.62841 -0.71997,-1.19592 -1.01953,-1.72265 -0.0119,-0.39399 -0.0215,-0.53005 -0.0215,-1.3125 v -3.50391 c 0,-2.26431 0.0316,-2.87115 -0.13672,-1.86133 0.10827,-0.64961 1.17933,-2.97207 1.78907,-7.24023 0.3944,-2.76082 0.51937,-4.88768 0.2246,-7.07813 -0.10129,-0.75275 -0.10828,-0.46192 -0.25781,-1.04101 0.17377,-0.62184 0.44275,-1.58522 1.28321,-3.89649 0.81686,-2.24635 2.71051,-5.27257 4.80468,-9.46093 1.65932,-3.31864 3.57596,-6.8589 5.39258,-10.79493 3.10766,-6.73326 4.19797,-9.25116 5.125,-11.44531 1.23608,-1.90601 2.31584,-3.90422 5.08789,-8.98633 2.73218,-5.00898 3.71641,-8.31981 4.37305,-9.16406 -0.92996,1.19566 1.53753,0.32382 6.1875,-4.32617 3.83602,-3.836 4.51734,-6.40831 4.11523,-5.92578 0.81378,-0.97654 2.46726,-2.40867 4.64649,-4.58789 2.02301,-2.02301 4.70483,-4.34179 7.46484,-7.4961 3.2065,-3.66455 4.42391,-6.14461 4.80274,-6.52343 0.73195,-0.73196 2.84669,-2.01003 5.9375,-4.32813 3.2387,-2.42903 9.11895,-6.87461 11.22851,-8.08008 1.626,-0.92914 3.85413,-1.90851 6.52149,-3.24218 1.77125,-0.88563 4.54867,-1.91616 7.83593,-3.97071 3.47298,-2.17061 5.00801,-3.29377 6.58594,-4.5332 1.48505,-0.37457 2.64354,-0.58431 5.29688,-1.46875 2.6821,-0.89403 4.34253,-2.00684 5.30468,-2.55664 3.32673,-1.90099 6.17378,-3.779 8.76172,-5.25781 1.30605,-0.74631 1.90882,-1.01518 1.70508,-0.94727 0.82967,-0.27655 3.26965,-0.5072 7.00977,-1.75391 3.86438,-1.28812 6.80393,-2.76167 9.11132,-3.62695 1.26755,-0.47532 2.92166,-0.96672 4.90821,-1.6289 1.38108,-0.46036 3.36654,-0.97826 5.80859,-1.95508 1.30362,-0.52145 1.61516,-0.65785 2.18164,-0.89063 0.88807,0.19766 2.64626,0.31972 6.26367,-0.2832 5.15622,-0.85934 6.9173,-2.96451 6.33203,-2.67188 6.5471,-3.27355 4.93737,-2.98433 10.54297,-4.58593 2.50047,-0.71442 3.24181,-0.91464 4.07617,-1.14258 0.3654,0.036 0.87251,0.21092 1.2168,0.22851 2.26348,0.11568 4.62954,-0.0482 8.83594,-0.51562 4.99499,-0.555 8.8586,-2.06129 11.34766,-3.125 2.48905,-1.06371 3.70655,-1.65883 6.86132,-2.23242 -0.013,0.002 2.59541,0.56089 7.80274,0.12695 5.28663,-0.44055 9.3217,-1.50646 12.26758,-1.75195 1.80714,-0.1506 4.45726,0.0351 7.93164,0.0351 h 15.77148 v -20 z m -53.38477,7.63672 c 0.24995,0.0236 0.30553,-0.0323 1.12109,0.26172 1.28143,0.462 3.60422,2.39496 3.58204,2.37109 -0.0161,-0.0174 -2.44787,-1.67285 -4.70313,-2.63281 z m 54.57813,200.74805 c 0.34729,-0.0398 0.88032,0.0302 1.38281,0.084 -1.25826,0.0818 -2.19032,0.27293 -2.44531,0.33985 -0.3051,0.0801 0.0481,-0.3075 1.0625,-0.42383 z"
         id="path456" />
    </g>
  </g>
</svg>
