<?xml version="1.0" encoding="UTF-8" standalone="no"?>
<!-- Created with Inkscape (http://www.inkscape.org/) -->

<svg
   width="1000"
   height="1000"
   viewBox="0 0 1000 1000"
   version="1.1"
   id="svg1"
   xmlns:xlink="http://www.w3.org/1999/xlink"
   xmlns="http://www.w3.org/2000/svg"
   xmlns:svg="http://www.w3.org/2000/svg">
  <defs
     id="defs1">
    <pattern
       xlink:href="#pattern359"
       preserveAspectRatio="xMidYMid"
       id="pattern372"
       patternTransform="matrix(0.5,0,0,0.5,147.15462,1548.2922)" />
    <pattern
       xlink:href="#pattern357"
       preserveAspectRatio="xMidYMid"
       id="pattern371"
       patternTransform="matrix(0.5,0,0,0.5,221.32076,1552.4298)" />
    <pattern
       xlink:href="#pattern358"
       preserveAspectRatio="xMidYMid"
       id="pattern370"
       patternTransform="matrix(0.5,0,0,0.5,230.96346,1527.8214)" />
    <pattern
       xlink:href="#pattern355"
       preserveAspectRatio="xMidYMid"
       id="pattern369"
       patternTransform="matrix(0.5,0,0,0.5,287.08178,1553.6581)" />
    <pattern
       xlink:href="#pattern354"
       preserveAspectRatio="xMidYMid"
       id="pattern368"
       patternTransform="matrix(0.5,0,0,0.5,230.97274,1529.1717)" />
    <pattern
       xlink:href="#pattern342"
       preserveAspectRatio="xMidYMid"
       id="pattern360"
       patternTransform="matrix(0.5,0,0,0.5,210.45332,1525.5392)" />
    <pattern
       xlink:href="#pattern342"
       preserveAspectRatio="xMidYMid"
       id="pattern359"
       patternTransform="matrix(0.5,0,0,0.5,152.11125,1550.7705)" />
    <pattern
       xlink:href="#pattern342"
       preserveAspectRatio="xMidYMid"
       id="pattern358"
       patternTransform="matrix(0.5,0,0,0.5,202.11125,1533.2444)" />
    <pattern
       xlink:href="#pattern342"
       preserveAspectRatio="xMidYMid"
       id="pattern357"
       patternTransform="matrix(0.5,0,0,0.5,211.4075,1546.234)" />
    <pattern
       xlink:href="#pattern342"
       preserveAspectRatio="xMidYMid"
       id="pattern356"
       patternTransform="matrix(0.5,0,0,0.5,232.14929,1573.2544)" />
    <pattern
       xlink:href="#pattern342"
       preserveAspectRatio="xMidYMid"
       id="pattern355"
       patternTransform="matrix(0.5,0,0,0.5,275,1552.7287)" />
    <pattern
       xlink:href="#pattern342"
       preserveAspectRatio="xMidYMid"
       id="pattern354"
       patternTransform="matrix(0.5,0,0,0.5,235,1529.7913)" />
    <pattern
       xlink:href="#shading24"
       preserveAspectRatio="xMidYMid"
       id="pattern342"
       patternTransform="matrix(0.5,0,0,0.5,213.95332,1537.5392)"
       x="0"
       y="0" />
    <pattern
       patternUnits="userSpaceOnUse"
       width="338.5925"
       height="42.989567"
       patternTransform="translate(213.95332,1537.5392) scale(0.5)"
       preserveAspectRatio="xMidYMid"
       id="shading24"
       style="fill:#000000">
      <path
         style="fill-rule:nonzero;stroke:none;stroke-width:0.1;stroke-linecap:square;paint-order:markers fill stroke;stop-color:#000000"
         d="m 1806.4991,-758.06464 v 18.86792 c 55.9187,0 121.0493,0.59523 193.5686,3.15628 72.9408,2.57593 146.0589,6.87694 222.9288,13.47675 119.09,10.22471 223.0762,23.76065 340.6056,39.2177 117.5025,15.4535 222.0471,29.0563 341.8507,39.3312 77.366,6.63525 151.0001,10.96128 224.4674,13.55245 73.0344,2.5759 138.631,3.17493 194.9247,3.17493 -55.9642,0 -122.2215,-1.36594 -194.8324,-5.25394 -73.2143,-3.92032 -146.9676,-10.0663 -223.8166,-18.88656 -118.8791,-13.6442 -223.3242,-31.02113 -339.8009,-50.57815 -116.4705,-19.55598 -221.1862,-36.99475 -340.3724,-50.69165 -77.0605,-8.8558 -150.9942,-15.0266 -224.3694,-18.96225 -72.7637,-3.90286 -139.1256,-5.27261 -195.1541,-5.27261 z m 0,37.81515 v 18.86793 c 55.9187,0 121.0493,0.59523 193.5686,3.15627 72.9408,2.57593 146.0589,6.87694 222.9288,13.47676 119.09,10.22471 223.0762,23.76065 340.6056,39.2177 117.5025,15.4535 222.0471,29.0563 341.8507,39.33119 77.366,6.63526 151.0001,10.96128 224.4674,13.55245 73.0344,2.5759 138.631,3.17493 194.9247,3.17493 -55.9642,0 -122.2215,-1.36594 -194.8324,-5.25394 -73.2143,-3.92031 -146.9676,-10.0663 -223.8166,-18.88656 -118.8791,-13.6442 -223.3242,-31.02112 -339.8009,-50.57815 -116.4705,-19.55598 -221.1862,-36.99475 -340.3724,-50.69165 -77.0605,-8.8558 -150.9942,-15.02659 -224.3694,-18.96225 -72.7637,-3.90286 -139.1256,-5.2726 -195.1541,-5.2726 z m 0,37.81516 v 18.86792 c 55.9187,0 121.0493,0.59523 193.5686,3.15628 72.9408,2.57593 146.0589,6.87694 222.9288,13.47675 119.09,10.22471 223.0762,23.76065 340.6056,39.2177 117.5025,15.4535 222.0471,29.0563 341.8507,39.3312 77.366,6.63525 151.0001,10.96128 224.4674,13.55245 73.0344,2.5759 138.631,3.17493 194.9247,3.17493 -55.9642,0 -122.2215,-1.36594 -194.8324,-5.25394 -73.2143,-3.92032 -146.9676,-10.0663 -223.8166,-18.88656 -118.8791,-13.6442 -223.3242,-31.02113 -339.8009,-50.57815 -116.4705,-19.55598 -221.1862,-36.99475 -340.3724,-50.69165 -77.0605,-8.8558 -150.9942,-15.0266 -224.3694,-18.96225 -72.7637,-3.90286 -139.1256,-5.27261 -195.1541,-5.27261 z m 0,37.81515 v 18.86793 c 55.9187,0 121.0493,0.59523 193.5686,3.15627 72.9408,2.57593 146.0589,6.87694 222.9288,13.47676 119.09,10.22471 223.0762,23.76065 340.6056,39.2177 117.5025,15.4535 222.0471,29.0563 341.8507,39.33119 77.366,6.63526 151.0001,10.96128 224.4674,13.55245 73.0344,2.5759 138.631,3.17494 194.9247,3.17494 -55.9642,0 -122.2215,-1.36595 -194.8324,-5.25395 -73.2143,-3.92031 -146.9676,-10.0663 -223.8166,-18.88656 -118.8791,-13.6442 -223.3242,-31.02112 -339.8009,-50.57815 -116.4705,-19.55598 -221.1862,-36.99475 -340.3724,-50.69165 -77.0605,-8.8558 -150.9942,-15.02659 -224.3694,-18.96225 -72.7637,-3.90286 -139.1256,-5.2726 -195.1541,-5.2726 z m 0,37.81516 v 18.86792 c 55.9187,0 121.0493,0.59523 193.5686,3.15628 72.9408,2.57593 146.0589,6.87694 222.9288,13.47675 119.09,10.22471 223.0762,23.76065 340.6056,39.2177 117.5025,15.4535 222.0471,29.0563 341.8507,39.3312 77.366,6.63525 151.0001,10.96128 224.4674,13.55245 73.0344,2.5759 138.631,3.17493 194.9247,3.17493 -55.9642,0 -122.2215,-1.36594 -194.8324,-5.25394 -73.2143,-3.92032 -146.9676,-10.0663 -223.8166,-18.88656 -118.8791,-13.6442 -223.3242,-31.02113 -339.8009,-50.57815 -116.4705,-19.55598 -221.1862,-36.99475 -340.3724,-50.69165 -77.0605,-8.8558 -150.9942,-15.0266 -224.3694,-18.96225 -72.7637,-3.90286 -139.1256,-5.27261 -195.1541,-5.27261 z m 0,37.81515 v 18.86793 c 55.9187,0 121.0493,0.59523 193.5686,3.15627 72.9408,2.57593 146.0589,6.87694 222.9288,13.47676 119.09,10.22471 223.0762,23.76065 340.6056,39.2177 117.5025,15.4535 222.0471,29.0563 341.8507,39.33119 77.366,6.63526 151.0001,10.96128 224.4674,13.55245 73.0344,2.5759 138.631,3.17494 194.9247,3.17494 -55.9642,0 -122.2215,-1.36595 -194.8324,-5.25395 -73.2143,-3.92031 -146.9676,-10.0663 -223.8166,-18.88656 -118.8791,-13.6442 -223.3242,-31.02112 -339.8009,-50.57815 -116.4705,-19.55598 -221.1862,-36.99475 -340.3724,-50.69165 -77.0605,-8.8558 -150.9942,-15.02659 -224.3694,-18.96225 -72.7637,-3.90286 -139.1256,-5.2726 -195.1541,-5.2726 z m 0,37.81516 v 18.86792 c 55.9187,0 121.0493,0.59523 193.5686,3.15628 72.9408,2.57593 146.0589,6.87694 222.9288,13.47675 119.09,10.22471 223.0762,23.76065 340.6056,39.2177 117.5025,15.4535 222.0471,29.0563 341.8507,39.3312 77.366,6.63525 151.0001,10.96128 224.4674,13.55245 73.0344,2.5759 138.631,3.17493 194.9247,3.17493 -55.9642,0 -122.2215,-1.36594 -194.8324,-5.25394 -73.2143,-3.92032 -146.9676,-10.0663 -223.8166,-18.88656 -118.8791,-13.6442 -223.3242,-31.02113 -339.8009,-50.57815 -116.4705,-19.55598 -221.1862,-36.99475 -340.3724,-50.69165 -77.0605,-8.8558 -150.9942,-15.0266 -224.3694,-18.96225 -72.7637,-3.90286 -139.1256,-5.27261 -195.1541,-5.27261 z"
         id="use26"
         transform="matrix(0.22300099,0,0,0.37823052,-402.85121,237.25945)" />
    </pattern>
    <clipPath
       clipPathUnits="userSpaceOnUse"
       id="clipPath54">
      <path
         id="path336"
         style="stroke-width:0.0999999;stroke-linecap:square;paint-order:markers fill stroke;stop-color:#000000"
         d="m 1691.1994,-792.32001 h 1634.8919 v 92.82806 H 1691.1994 Z" />
    </clipPath>
    <clipPath
       clipPathUnits="userSpaceOnUse"
       id="clipPath33">
      <rect
         style="fill:#000000;stroke:none;stroke-width:0.999995;stroke-linecap:butt;stroke-linejoin:bevel;paint-order:stroke markers fill;stop-color:#000000"
         id="rect33"
         width="46.19186"
         height="80.006783"
         x="74.999985"
         y="399.99661" />
    </clipPath>
    <clipPath
       clipPathUnits="userSpaceOnUse"
       id="clipPath27">
      <rect
         style="fill:none;stroke:#000000;stroke-width:0.999999;stroke-linecap:butt;stroke-linejoin:bevel;paint-order:stroke markers fill;stop-color:#000000"
         id="rect28-6"
         width="46.160622"
         height="39.922417"
         x="86.574379"
         y="420.06253" />
    </clipPath>
    <clipPath
       clipPathUnits="userSpaceOnUse"
       id="clipPath25">
      <rect
         style="fill:#ff0000;stroke:none;stroke-width:3;stroke-linecap:square;stroke-linejoin:miter;paint-order:stroke markers fill;stop-color:#000000"
         id="rect25-8"
         width="78"
         height="45.033199"
         x="763.61322"
         y="452.82422" />
    </clipPath>
    <clipPath
       clipPathUnits="userSpaceOnUse"
       id="clipPath15">
      <rect
         style="fill:none;stroke:#000000;stroke-linecap:butt;stroke-linejoin:bevel;paint-order:stroke markers fill;stop-color:#000000"
         id="rect15-7"
         width="45.034248"
         height="38.955639"
         x="262.48285"
         y="121.00073" />
    </clipPath>
    <linearGradient
       id="swatch75">
      <stop
         style="stop-color:#000000;stop-opacity:1;"
         offset="0"
         id="stop75" />
    </linearGradient>
  </defs>
  <g
     id="layer70"
     style="display:inline">
    <g
       id="layer92"
       style="display:inline">
      <path
         style="baseline-shift:baseline;display:inline;overflow:visible;opacity:1;vector-effect:none;fill-rule:evenodd;enable-background:accumulate;stop-color:#000000;stop-opacity:1"
         d="m 689.16992,413.9082 c -0.92019,-0.0442 -2.32288,0.004 -4.17773,0.375 -1.8381,0.36762 -3.2209,0.68699 -4.49219,1.0625 -1.09388,0.32311 -2.1444,0.60368 -3.84766,1.72071 -1.47257,0.1477 -2.57726,0.27502 -6.23828,0.55664 -2.27953,0.17534 -6.55316,-0.68032 -12.66797,0.0391 -7.02967,0.82702 -11.14782,1.44105 -14.26562,2.13867 -3.11781,0.69762 -5.89758,1.94612 -7.17774,2.68945 -1.28015,0.74334 -0.7974,0.59317 -2.51562,1.17969 -1.71822,0.58652 -5.26981,1.55826 -11.88281,2.88086 -18.21635,3.64327 -20.0872,3.41681 -23.69532,3.32227 -3.60811,-0.0945 -9.0771,-0.0482 -27.18945,3.69922 -10.10978,2.09168 -18.54608,5.55759 -26.10351,6.9746 -8.86077,1.6614 -18.71251,2.05911 -29.22852,3.41602 -8.40455,1.08446 -16.59097,2.40802 -24.62109,3.51563 -8.69717,1.1996 -17.44823,2.32773 -26.24024,3.5 -9.18278,1.22437 -17.68221,2.88965 -25.6543,3.43945 -7.24346,0.49954 -15.209,-0.0234 -23.8457,-0.0234 h -21.0293 v 20 h 21.0293 c 7.71935,0 16.14884,0.60234 25.22266,-0.0234 9.66545,-0.66658 18.57839,-2.45615 26.91992,-3.56836 8.73233,-1.16431 17.5156,-2.29566 26.33203,-3.51171 8.33702,-1.14994 16.46557,-2.46229 24.44727,-3.49219 9.31745,-1.20226 19.55892,-1.57172 30.35351,-3.59571 10.26862,-1.92536 18.81993,-5.462 26.47071,-7.04492 17.54175,-3.62932 18.97718,-3.38629 22.61328,-3.29101 3.63609,0.0953 9.34873,0.0537 28.14257,-3.70508 7.07471,-1.41494 11.30532,-2.50323 14.41993,-3.56641 3.1146,-1.06318 5.48176,-2.45292 6.09765,-2.81054 0.61589,-0.35763 -0.2576,-0.0731 1.50196,-0.4668 1.75955,-0.39371 5.48922,-0.99919 12.23632,-1.79297 2.0072,-0.23614 5.99083,0.49094 11.86524,0.0391 5.38095,-0.41391 8.15935,-0.65191 10.18164,-0.92968 1.01114,-0.13889 1.31545,0.22004 4.16406,-1.1211 0.47551,-0.22387 1.26575,-0.86036 1.99414,-1.41601 0.27317,0.0108 0.96672,-0.01 2.16992,-0.01 h 1.75196 v -20 h -1.75196 c 0.0696,0 -0.36887,-0.13549 -1.28906,-0.17969 z m -16.68555,15.23047 c 0.34953,1.00505 0.72092,2.0505 1.125,2.61524 0.39585,0.55322 0.49569,0.5566 0.80469,0.92382 -0.73219,-0.66393 -1.46584,-1.53977 -1.92969,-3.53906 z m 16.42969,4.75586 c -0.60042,0.12009 -0.67061,0.15043 -0.58203,0.17188 0.0294,-0.0228 0.0502,-0.033 0.0801,-0.0566 0.23447,-0.0498 0.23041,-0.0609 0.50195,-0.11524 z"
         id="path457" />
      <path
         style="baseline-shift:baseline;display:inline;overflow:visible;opacity:1;vector-effect:none;fill-rule:evenodd;enable-background:accumulate;stop-color:#000000;stop-opacity:1"
         d="m 492.94922,304.92383 c 0,4.0167 0.25457,6.39833 0.13476,7.11719 -0.4638,2.78283 -0.88319,4.51133 -1.25976,6.11328 -0.89233,0.94621 -1.51452,1.92749 -1.8125,2.50195 -1.33014,2.56432 -1.03839,2.97062 -1.14063,3.63867 -0.10224,0.66805 -0.15729,1.22507 -0.21679,1.9043 -0.23802,2.71693 -0.47965,7.3469 -0.95118,16.77734 -0.37985,7.59696 0.66881,13.10634 0.12305,16.38086 -1.0696,6.41762 -4.86108,14.11629 -6.9375,24.15235 -2.04069,9.86331 -2.20468,18.891 -3.56055,26.57421 -1.86775,10.58394 -4.82018,21.53056 -6.99218,33.20508 -4.31901,23.21461 -10.63772,65.60512 -14.07227,87.92969 -2.33956,15.20717 -4.63064,30.39316 -7.00586,45.53516 -2.24752,14.32797 -5.19701,28.95748 -7.05664,44.14453 -1.77546,14.49962 -2.34881,28.6978 -3.54101,42.4082 -1.11716,12.84736 -2.24714,25.66554 -3.49414,38.44727 -1.04507,10.71198 -2.8212,21.88181 -3.53516,33.66211 -0.54353,8.96816 -0.0176,17.3659 -0.0176,25.14062 v 42.05859 h 20 v -42.05859 c 0,-8.58132 -0.46351,-16.57177 -0.0176,-23.92969 0.6363,-10.49894 2.3524,-21.42701 3.47461,-32.92968 1.259,-12.90468 2.39703,-25.79424 3.51563,-38.65821 1.24521,-14.31994 1.82256,-28.28106 3.46679,-41.70898 1.73539,-14.17238 4.62863,-28.58313 6.96485,-43.47656 2.38738,-15.2196 4.68008,-30.4254 7.01367,-45.59375 3.45175,-22.43636 9.80938,-64.96641 13.9668,-87.3125 1.97708,-10.62686 4.95098,-21.63176 7.02539,-33.38672 1.71656,-9.72719 1.9099,-18.55058 3.45117,-26 1.37,-6.6217 5.35316,-14.55454 7.08008,-24.91602 1.3749,-8.2494 -0.0805,-14.5966 0.12304,-18.66797 0.36503,-7.30045 0.53368,-9.93994 0.69922,-12.44922 0.47758,-0.7022 0.75986,-1.30882 1.00196,-1.82617 1.83322,-3.91756 2.1647,-6.75775 3.43359,-14.37109 0.84051,-5.04313 0.13672,-8.58152 0.13672,-10.40625 z m 15.69336,22.39648 c -0.007,0.0478 0.0396,0.19026 -0.0625,0.60938 0.0383,-0.42961 0.0755,-0.69449 0.0625,-0.60938 z m -18.41602,2.61719 c 0.0111,0.0224 0.26059,0.4732 0.46875,0.84766 -0.41863,-0.60565 -0.47935,-0.86905 -0.46875,-0.84766 z"
         id="path458" />
    </g>
  </g>
</svg>
