<?xml version="1.0" encoding="UTF-8" standalone="no"?>
<!-- Created with Inkscape (http://www.inkscape.org/) -->

<svg
   width="1000"
   height="1000"
   viewBox="0 0 1000 1000"
   version="1.1"
   id="svg1"
   xmlns:xlink="http://www.w3.org/1999/xlink"
   xmlns="http://www.w3.org/2000/svg"
   xmlns:svg="http://www.w3.org/2000/svg">
  <defs
     id="defs1">
    <pattern
       xlink:href="#pattern359"
       preserveAspectRatio="xMidYMid"
       id="pattern372"
       patternTransform="matrix(0.5,0,0,0.5,147.15462,1548.2922)" />
    <pattern
       xlink:href="#pattern357"
       preserveAspectRatio="xMidYMid"
       id="pattern371"
       patternTransform="matrix(0.5,0,0,0.5,221.32076,1552.4298)" />
    <pattern
       xlink:href="#pattern358"
       preserveAspectRatio="xMidYMid"
       id="pattern370"
       patternTransform="matrix(0.5,0,0,0.5,230.96346,1527.8214)" />
    <pattern
       xlink:href="#pattern355"
       preserveAspectRatio="xMidYMid"
       id="pattern369"
       patternTransform="matrix(0.5,0,0,0.5,287.08178,1553.6581)" />
    <pattern
       xlink:href="#pattern354"
       preserveAspectRatio="xMidYMid"
       id="pattern368"
       patternTransform="matrix(0.5,0,0,0.5,230.97274,1529.1717)" />
    <pattern
       xlink:href="#pattern342"
       preserveAspectRatio="xMidYMid"
       id="pattern360"
       patternTransform="matrix(0.5,0,0,0.5,210.45332,1525.5392)" />
    <pattern
       xlink:href="#pattern342"
       preserveAspectRatio="xMidYMid"
       id="pattern359"
       patternTransform="matrix(0.5,0,0,0.5,152.11125,1550.7705)" />
    <pattern
       xlink:href="#pattern342"
       preserveAspectRatio="xMidYMid"
       id="pattern358"
       patternTransform="matrix(0.5,0,0,0.5,202.11125,1533.2444)" />
    <pattern
       xlink:href="#pattern342"
       preserveAspectRatio="xMidYMid"
       id="pattern357"
       patternTransform="matrix(0.5,0,0,0.5,211.4075,1546.234)" />
    <pattern
       xlink:href="#pattern342"
       preserveAspectRatio="xMidYMid"
       id="pattern356"
       patternTransform="matrix(0.5,0,0,0.5,232.14929,1573.2544)" />
    <pattern
       xlink:href="#pattern342"
       preserveAspectRatio="xMidYMid"
       id="pattern355"
       patternTransform="matrix(0.5,0,0,0.5,275,1552.7287)" />
    <pattern
       xlink:href="#pattern342"
       preserveAspectRatio="xMidYMid"
       id="pattern354"
       patternTransform="matrix(0.5,0,0,0.5,235,1529.7913)" />
    <pattern
       xlink:href="#shading24"
       preserveAspectRatio="xMidYMid"
       id="pattern342"
       patternTransform="matrix(0.5,0,0,0.5,213.95332,1537.5392)"
       x="0"
       y="0" />
    <pattern
       patternUnits="userSpaceOnUse"
       width="338.5925"
       height="42.989567"
       patternTransform="translate(213.95332,1537.5392) scale(0.5)"
       preserveAspectRatio="xMidYMid"
       id="shading24"
       style="fill:#000000">
      <path
         style="fill-rule:nonzero;stroke:none;stroke-width:0.1;stroke-linecap:square;paint-order:markers fill stroke;stop-color:#000000"
         d="m 1806.4991,-758.06464 v 18.86792 c 55.9187,0 121.0493,0.59523 193.5686,3.15628 72.9408,2.57593 146.0589,6.87694 222.9288,13.47675 119.09,10.22471 223.0762,23.76065 340.6056,39.2177 117.5025,15.4535 222.0471,29.0563 341.8507,39.3312 77.366,6.63525 151.0001,10.96128 224.4674,13.55245 73.0344,2.5759 138.631,3.17493 194.9247,3.17493 -55.9642,0 -122.2215,-1.36594 -194.8324,-5.25394 -73.2143,-3.92032 -146.9676,-10.0663 -223.8166,-18.88656 -118.8791,-13.6442 -223.3242,-31.02113 -339.8009,-50.57815 -116.4705,-19.55598 -221.1862,-36.99475 -340.3724,-50.69165 -77.0605,-8.8558 -150.9942,-15.0266 -224.3694,-18.96225 -72.7637,-3.90286 -139.1256,-5.27261 -195.1541,-5.27261 z m 0,37.81515 v 18.86793 c 55.9187,0 121.0493,0.59523 193.5686,3.15627 72.9408,2.57593 146.0589,6.87694 222.9288,13.47676 119.09,10.22471 223.0762,23.76065 340.6056,39.2177 117.5025,15.4535 222.0471,29.0563 341.8507,39.33119 77.366,6.63526 151.0001,10.96128 224.4674,13.55245 73.0344,2.5759 138.631,3.17493 194.9247,3.17493 -55.9642,0 -122.2215,-1.36594 -194.8324,-5.25394 -73.2143,-3.92031 -146.9676,-10.0663 -223.8166,-18.88656 -118.8791,-13.6442 -223.3242,-31.02112 -339.8009,-50.57815 -116.4705,-19.55598 -221.1862,-36.99475 -340.3724,-50.69165 -77.0605,-8.8558 -150.9942,-15.02659 -224.3694,-18.96225 -72.7637,-3.90286 -139.1256,-5.2726 -195.1541,-5.2726 z m 0,37.81516 v 18.86792 c 55.9187,0 121.0493,0.59523 193.5686,3.15628 72.9408,2.57593 146.0589,6.87694 222.9288,13.47675 119.09,10.22471 223.0762,23.76065 340.6056,39.2177 117.5025,15.4535 222.0471,29.0563 341.8507,39.3312 77.366,6.63525 151.0001,10.96128 224.4674,13.55245 73.0344,2.5759 138.631,3.17493 194.9247,3.17493 -55.9642,0 -122.2215,-1.36594 -194.8324,-5.25394 -73.2143,-3.92032 -146.9676,-10.0663 -223.8166,-18.88656 -118.8791,-13.6442 -223.3242,-31.02113 -339.8009,-50.57815 -116.4705,-19.55598 -221.1862,-36.99475 -340.3724,-50.69165 -77.0605,-8.8558 -150.9942,-15.0266 -224.3694,-18.96225 -72.7637,-3.90286 -139.1256,-5.27261 -195.1541,-5.27261 z m 0,37.81515 v 18.86793 c 55.9187,0 121.0493,0.59523 193.5686,3.15627 72.9408,2.57593 146.0589,6.87694 222.9288,13.47676 119.09,10.22471 223.0762,23.76065 340.6056,39.2177 117.5025,15.4535 222.0471,29.0563 341.8507,39.33119 77.366,6.63526 151.0001,10.96128 224.4674,13.55245 73.0344,2.5759 138.631,3.17494 194.9247,3.17494 -55.9642,0 -122.2215,-1.36595 -194.8324,-5.25395 -73.2143,-3.92031 -146.9676,-10.0663 -223.8166,-18.88656 -118.8791,-13.6442 -223.3242,-31.02112 -339.8009,-50.57815 -116.4705,-19.55598 -221.1862,-36.99475 -340.3724,-50.69165 -77.0605,-8.8558 -150.9942,-15.02659 -224.3694,-18.96225 -72.7637,-3.90286 -139.1256,-5.2726 -195.1541,-5.2726 z m 0,37.81516 v 18.86792 c 55.9187,0 121.0493,0.59523 193.5686,3.15628 72.9408,2.57593 146.0589,6.87694 222.9288,13.47675 119.09,10.22471 223.0762,23.76065 340.6056,39.2177 117.5025,15.4535 222.0471,29.0563 341.8507,39.3312 77.366,6.63525 151.0001,10.96128 224.4674,13.55245 73.0344,2.5759 138.631,3.17493 194.9247,3.17493 -55.9642,0 -122.2215,-1.36594 -194.8324,-5.25394 -73.2143,-3.92032 -146.9676,-10.0663 -223.8166,-18.88656 -118.8791,-13.6442 -223.3242,-31.02113 -339.8009,-50.57815 -116.4705,-19.55598 -221.1862,-36.99475 -340.3724,-50.69165 -77.0605,-8.8558 -150.9942,-15.0266 -224.3694,-18.96225 -72.7637,-3.90286 -139.1256,-5.27261 -195.1541,-5.27261 z m 0,37.81515 v 18.86793 c 55.9187,0 121.0493,0.59523 193.5686,3.15627 72.9408,2.57593 146.0589,6.87694 222.9288,13.47676 119.09,10.22471 223.0762,23.76065 340.6056,39.2177 117.5025,15.4535 222.0471,29.0563 341.8507,39.33119 77.366,6.63526 151.0001,10.96128 224.4674,13.55245 73.0344,2.5759 138.631,3.17494 194.9247,3.17494 -55.9642,0 -122.2215,-1.36595 -194.8324,-5.25395 -73.2143,-3.92031 -146.9676,-10.0663 -223.8166,-18.88656 -118.8791,-13.6442 -223.3242,-31.02112 -339.8009,-50.57815 -116.4705,-19.55598 -221.1862,-36.99475 -340.3724,-50.69165 -77.0605,-8.8558 -150.9942,-15.02659 -224.3694,-18.96225 -72.7637,-3.90286 -139.1256,-5.2726 -195.1541,-5.2726 z m 0,37.81516 v 18.86792 c 55.9187,0 121.0493,0.59523 193.5686,3.15628 72.9408,2.57593 146.0589,6.87694 222.9288,13.47675 119.09,10.22471 223.0762,23.76065 340.6056,39.2177 117.5025,15.4535 222.0471,29.0563 341.8507,39.3312 77.366,6.63525 151.0001,10.96128 224.4674,13.55245 73.0344,2.5759 138.631,3.17493 194.9247,3.17493 -55.9642,0 -122.2215,-1.36594 -194.8324,-5.25394 -73.2143,-3.92032 -146.9676,-10.0663 -223.8166,-18.88656 -118.8791,-13.6442 -223.3242,-31.02113 -339.8009,-50.57815 -116.4705,-19.55598 -221.1862,-36.99475 -340.3724,-50.69165 -77.0605,-8.8558 -150.9942,-15.0266 -224.3694,-18.96225 -72.7637,-3.90286 -139.1256,-5.27261 -195.1541,-5.27261 z"
         id="use26"
         transform="matrix(0.22300099,0,0,0.37823052,-402.85121,237.25945)" />
    </pattern>
    <clipPath
       clipPathUnits="userSpaceOnUse"
       id="clipPath54">
      <path
         id="path336"
         style="stroke-width:0.0999999;stroke-linecap:square;paint-order:markers fill stroke;stop-color:#000000"
         d="m 1691.1994,-792.32001 h 1634.8919 v 92.82806 H 1691.1994 Z" />
    </clipPath>
    <clipPath
       clipPathUnits="userSpaceOnUse"
       id="clipPath33">
      <rect
         style="fill:#000000;stroke:none;stroke-width:0.999995;stroke-linecap:butt;stroke-linejoin:bevel;paint-order:stroke markers fill;stop-color:#000000"
         id="rect33"
         width="46.19186"
         height="80.006783"
         x="74.999985"
         y="399.99661" />
    </clipPath>
    <clipPath
       clipPathUnits="userSpaceOnUse"
       id="clipPath27">
      <rect
         style="fill:none;stroke:#000000;stroke-width:0.999999;stroke-linecap:butt;stroke-linejoin:bevel;paint-order:stroke markers fill;stop-color:#000000"
         id="rect28-6"
         width="46.160622"
         height="39.922417"
         x="86.574379"
         y="420.06253" />
    </clipPath>
    <clipPath
       clipPathUnits="userSpaceOnUse"
       id="clipPath25">
      <rect
         style="fill:#ff0000;stroke:none;stroke-width:3;stroke-linecap:square;stroke-linejoin:miter;paint-order:stroke markers fill;stop-color:#000000"
         id="rect25-8"
         width="78"
         height="45.033199"
         x="763.61322"
         y="452.82422" />
    </clipPath>
    <clipPath
       clipPathUnits="userSpaceOnUse"
       id="clipPath15">
      <rect
         style="fill:none;stroke:#000000;stroke-linecap:butt;stroke-linejoin:bevel;paint-order:stroke markers fill;stop-color:#000000"
         id="rect15-7"
         width="45.034248"
         height="38.955639"
         x="262.48285"
         y="121.00073" />
    </clipPath>
    <linearGradient
       id="swatch75">
      <stop
         style="stop-color:#000000;stop-opacity:1;"
         offset="0"
         id="stop75" />
    </linearGradient>
  </defs>
  <g
     id="layer70"
     style="display:inline">
    <g
       id="layer93"
       style="display:inline">
      <path
         style="baseline-shift:baseline;display:inline;overflow:visible;opacity:1;vector-effect:none;fill-rule:evenodd;enable-background:accumulate;stop-color:#000000;stop-opacity:1"
         d="m 646.64844,417.59375 c -1.73967,0 -4.44159,0.60558 -6.54883,2.35156 -2.10724,1.74599 -3.09084,4.0727 -3.44141,5.5918 -0.49667,2.15225 -0.37046,3.12098 -0.20898,3.82617 -0.19593,0.95226 -0.54213,2.60771 -0.49805,2.51953 -0.56892,1.13784 -0.72533,1.3285 -1.19922,2.23828 -0.40623,0.20256 -1.04395,0.36869 -1.3164,0.55469 -1.44808,0.98857 -1.94323,1.69706 -2.34375,2.2168 -0.80105,1.03946 -0.99285,1.52128 -1.20899,1.96289 -0.43227,0.88321 -0.63004,1.44992 -0.84375,2.07812 -0.42741,1.25642 -0.78189,2.41656 -1.02539,4.21875 -0.0839,0.62076 -0.16099,1.43981 -0.0703,2.61914 -0.77826,3.47475 -1.74702,7.76114 -4.94531,19.1836 -1.79548,6.4124 -4.50437,13.17793 -6.9043,20.67773 -2.46082,7.69008 -4.74731,15.34942 -7.05078,22.91797 -1.87892,6.17357 -3.32404,11.97047 -5.13086,17.13281 -1.78461,5.09888 -4.65238,10.74868 -7.01563,17.54297 -2.90085,8.33995 -4.50472,16.09335 -6.92773,22.55469 -3.95676,10.55138 -11.55106,24.10736 -17.19922,36.03125 -3.04503,6.42838 -4.4543,11.66481 -6.36719,14.62109 -2.19895,3.39839 -6.80353,7.20276 -11.63281,13.14649 -6.33451,7.79632 -8.77291,11.70898 -10.69141,14.24414 -1.91849,2.53516 -3.79603,4.59399 -10.91406,10.82226 -13.5705,11.8742 -15.33819,11.27572 -30.72461,22.13672 -13.02125,9.19148 -16.1894,13.10791 -29.03515,20.54492 -4.74113,2.74487 -10.79366,5.08828 -17.30274,8.63868 -7.58325,4.13632 -14.41557,8.59241 -21.09765,12.30468 -8.18697,4.54831 -17.38433,8.67161 -26.57422,14.18555 -9.92789,5.95673 -18.04494,12.73685 -26.16407,17.45117 -8.31735,4.82943 -17.77001,8.86352 -27.48828,13.72266 l -0.13672,0.0684 -0.13281,0.0723 c -7.36052,3.96336 -15.24723,7.80359 -23.1289,12.46094 -8.88641,5.25106 -12.75937,8.71386 -13.83594,9.52539 -0.53829,0.40577 -1.6e-4,0.11596 -0.55469,0.3086 -0.10105,0.0351 -0.783,0.17578 -0.95898,0.22656 -0.44348,-1.0033 -0.8608,-1.85313 -1.47266,-3.61524 -0.91066,-2.62261 -1.86264,-6.56752 -1.55664,-4.93554 -0.81125,-4.3267 -0.63854,-10.14498 -1.69141,-17.16407 -1.08508,-7.23391 -3.05399,-12.75013 -3.43554,-16.94726 -0.52534,-5.77877 0.041,-12.50975 0.041,-20.12305 0,-9.74961 -0.53614,-18.90953 -0.0195,-27.43359 0.53444,-8.81827 2.88673,-18.66222 3.50781,-29.8418 1.36171,-24.51072 0.49864,-30.7201 0.0508,-34.17773 -0.44785,-3.45763 -0.68008,-4.80624 1.66016,-26.64844 0.12478,-1.16463 6.09092,-34.73746 6.70313,-36.94141 3.88805,-13.99701 14.63429,-28.51361 19.34961,-47.59375 L 319.75,518.07422 c -3.41811,13.8311 -13.97688,28.21558 -19.20508,47.03711 -2.42165,8.71795 -6.54083,32.92724 -7.3164,40.16601 -2.37721,22.18723 -2.13805,27.26413 -1.60938,31.34571 0.52867,4.08158 1.14631,6.52668 -0.18555,30.5 -0.48819,8.78752 -2.82662,18.59724 -3.50195,29.74023 -0.61421,10.13432 -0.0176,19.70153 -0.0176,28.64453 0,6.40616 -0.7029,13.75046 0.041,21.9336 0.6971,7.66818 2.89194,13.55499 3.57422,18.10351 0.68883,4.59218 0.45999,10.66945 1.8125,17.88281 0.58303,3.10953 1.20093,4.58684 2.32031,7.81055 1.11938,3.22371 2.02394,6.28201 4.44531,9.91406 0.19962,0.29943 0.33985,0.37598 0.53125,0.625 0.47036,1.53699 1.20215,3.13379 2.4707,4.40235 3.24474,3.24474 7.17994,3.13395 8.85547,2.93945 -0.5483,0.0296 0.66381,0.40044 3.68164,-0.20312 3.33314,-0.66663 5.61673,-1.16235 7.9043,-1.95704 2.28757,-0.79468 4.57016,-2.13055 6.0293,-3.23046 2.91827,-2.19983 4.04922,-3.59417 11.97461,-8.27735 6.91923,-4.08863 14.50668,-7.80647 22.27539,-11.98437 8.94614,-4.46715 18.76079,-8.62113 28.47851,-14.26368 10.09474,-5.86145 18.27784,-12.71631 26.41016,-17.5957 7.84068,-4.70441 16.82345,-8.75652 25.99805,-13.85351 7.50583,-4.16991 14.2956,-8.59483 20.96093,-12.23047 4.95789,-2.7043 11.18315,-5.08712 17.7461,-8.88672 14.24438,-8.24675 18.52582,-13.02685 30.54883,-21.51367 14.48182,-10.22248 17.86208,-10.73894 32.36132,-23.42578 7.50921,-6.57056 10.92487,-10.1489 13.69141,-13.80469 2.76654,-3.65579 4.40615,-6.48712 10.26758,-13.70117 3.0021,-3.69489 8.35266,-7.86428 12.90039,-14.89258 4.33793,-6.70408 5.77167,-12.95353 7.65234,-16.92383 5.13501,-10.84057 12.98528,-24.59874 17.84961,-37.57031 3.15651,-8.41735 4.77231,-16.33928 7.0918,-23.00782 1.7705,-5.09016 4.63176,-10.72831 7.00391,-17.50585 2.22256,-6.35018 3.71228,-12.42077 5.38476,-17.91602 2.32321,-7.63343 4.5846,-15.20212 6.9668,-22.64648 0.48721,-1.52253 1.08537,-3.16241 1.63281,-4.73438 0.12225,7.61451 0.24148,15.08239 -0.11523,22.2168 -0.58469,11.69361 -2.30277,23.77771 -3.47461,36.375 -4.63432,49.81898 -2.60004,28.80624 -7.01563,80.68945 -1.11654,13.11945 -2.93427,26.65372 -3.5332,40.72852 -0.63244,14.86246 0.57345,28.90437 0.002,42.04882 -0.52105,11.98431 -2.83263,24.74076 -3.5039,38.50196 -0.57242,11.73443 -0.0117,23.00928 -0.0117,33.7832 0,8.91709 -0.63553,18.49807 0.0215,28.68164 1.55187,24.05401 4.90567,28.08601 7.03906,49.41992 0.23081,2.30806 -0.40251,6.30997 -0.0273,11.9375 l 0.0176,0.28907 0.0371,0.28515 c 0.58414,4.67318 1.16781,9.3464 1.75195,14.01953 l 0.12305,0.98242 0.3125,0.93946 c 0.91293,2.73877 1.41318,3.96933 1.375,3.74023 -0.0723,-0.43358 -0.13477,0.76485 -0.13477,3.61328 V 900.75 h 20 v -3.50391 c 0,-0.65642 0.51175,-3.01157 -0.13672,-6.90234 -0.54715,-3.28295 -1.41234,-5.0871 -1.84961,-6.09766 -0.51301,-4.10409 -1.0241,-8.20842 -1.53711,-12.3125 -0.14744,-2.54169 0.54517,-6.72022 -0.0312,-12.48437 -2.3065,-23.06495 -5.54131,-26.40985 -6.98046,-48.7168 -0.54648,-8.47026 0.0195,-17.619 0.0195,-27.39453 0,-11.42356 -0.52083,-22.37189 -0.0117,-32.80859 0.58616,-12.01649 2.90783,-24.80773 3.50781,-38.60743 0.64644,-14.868 -0.55962,-28.91529 0,-42.0664 0.54779,-12.87286 2.30784,-26.12933 3.47852,-39.88477 4.42089,-51.9455 2.36955,-30.73484 7.00195,-80.5332 1.11087,-11.94185 2.88912,-24.30778 3.53516,-37.22852 0.58749,-11.74988 0.0137,-23.02908 0.0137,-33.79492 v -17.52344 -17.52539 -12.92968 c 0.0761,-0.32685 0.0241,0.0915 0.13476,-0.59961 0.13574,-0.84757 0.5893,-2.0156 -0.30468,-4.95703 -0.44699,-1.47072 -1.51119,-3.56456 -3.51172,-5.12305 -2.00053,-1.5585 -4.56249,-2.16211 -6.31836,-2.16211 z m -14.92774,22.17773 c -0.37441,0.60435 -0.6381,0.95243 -0.5332,0.82227 0.0564,-0.0699 0.0614,-0.36962 0.5332,-0.82227 z M 300.45117,795.73633 c -0.067,0.2552 -0.2602,1.18692 -0.3418,2.44726 -0.21233,-1.97286 0.44935,-2.85706 0.3418,-2.44726 z"
         id="path459" />
    </g>
  </g>
</svg>
