<?xml version="1.0" encoding="UTF-8" standalone="no"?>
<!-- Created with Inkscape (http://www.inkscape.org/) -->

<svg
   width="1000"
   height="1000"
   viewBox="0 0 1000 1000"
   version="1.1"
   id="svg1"
   xmlns:xlink="http://www.w3.org/1999/xlink"
   xmlns="http://www.w3.org/2000/svg"
   xmlns:svg="http://www.w3.org/2000/svg">
  <defs
     id="defs1">
    <pattern
       xlink:href="#pattern359"
       preserveAspectRatio="xMidYMid"
       id="pattern372"
       patternTransform="matrix(0.5,0,0,0.5,147.15462,1548.2922)" />
    <pattern
       xlink:href="#pattern357"
       preserveAspectRatio="xMidYMid"
       id="pattern371"
       patternTransform="matrix(0.5,0,0,0.5,221.32076,1552.4298)" />
    <pattern
       xlink:href="#pattern358"
       preserveAspectRatio="xMidYMid"
       id="pattern370"
       patternTransform="matrix(0.5,0,0,0.5,230.96346,1527.8214)" />
    <pattern
       xlink:href="#pattern355"
       preserveAspectRatio="xMidYMid"
       id="pattern369"
       patternTransform="matrix(0.5,0,0,0.5,287.08178,1553.6581)" />
    <pattern
       xlink:href="#pattern354"
       preserveAspectRatio="xMidYMid"
       id="pattern368"
       patternTransform="matrix(0.5,0,0,0.5,230.97274,1529.1717)" />
    <pattern
       xlink:href="#pattern342"
       preserveAspectRatio="xMidYMid"
       id="pattern360"
       patternTransform="matrix(0.5,0,0,0.5,210.45332,1525.5392)" />
    <pattern
       xlink:href="#pattern342"
       preserveAspectRatio="xMidYMid"
       id="pattern359"
       patternTransform="matrix(0.5,0,0,0.5,152.11125,1550.7705)" />
    <pattern
       xlink:href="#pattern342"
       preserveAspectRatio="xMidYMid"
       id="pattern358"
       patternTransform="matrix(0.5,0,0,0.5,202.11125,1533.2444)" />
    <pattern
       xlink:href="#pattern342"
       preserveAspectRatio="xMidYMid"
       id="pattern357"
       patternTransform="matrix(0.5,0,0,0.5,211.4075,1546.234)" />
    <pattern
       xlink:href="#pattern342"
       preserveAspectRatio="xMidYMid"
       id="pattern356"
       patternTransform="matrix(0.5,0,0,0.5,232.14929,1573.2544)" />
    <pattern
       xlink:href="#pattern342"
       preserveAspectRatio="xMidYMid"
       id="pattern355"
       patternTransform="matrix(0.5,0,0,0.5,275,1552.7287)" />
    <pattern
       xlink:href="#pattern342"
       preserveAspectRatio="xMidYMid"
       id="pattern354"
       patternTransform="matrix(0.5,0,0,0.5,235,1529.7913)" />
    <pattern
       xlink:href="#shading24"
       preserveAspectRatio="xMidYMid"
       id="pattern342"
       patternTransform="matrix(0.5,0,0,0.5,213.95332,1537.5392)"
       x="0"
       y="0" />
    <pattern
       patternUnits="userSpaceOnUse"
       width="338.5925"
       height="42.989567"
       patternTransform="translate(213.95332,1537.5392) scale(0.5)"
       preserveAspectRatio="xMidYMid"
       id="shading24"
       style="fill:#000000">
      <path
         style="fill-rule:nonzero;stroke:none;stroke-width:0.1;stroke-linecap:square;paint-order:markers fill stroke;stop-color:#000000"
         d="m 1806.4991,-758.06464 v 18.86792 c 55.9187,0 121.0493,0.59523 193.5686,3.15628 72.9408,2.57593 146.0589,6.87694 222.9288,13.47675 119.09,10.22471 223.0762,23.76065 340.6056,39.2177 117.5025,15.4535 222.0471,29.0563 341.8507,39.3312 77.366,6.63525 151.0001,10.96128 224.4674,13.55245 73.0344,2.5759 138.631,3.17493 194.9247,3.17493 -55.9642,0 -122.2215,-1.36594 -194.8324,-5.25394 -73.2143,-3.92032 -146.9676,-10.0663 -223.8166,-18.88656 -118.8791,-13.6442 -223.3242,-31.02113 -339.8009,-50.57815 -116.4705,-19.55598 -221.1862,-36.99475 -340.3724,-50.69165 -77.0605,-8.8558 -150.9942,-15.0266 -224.3694,-18.96225 -72.7637,-3.90286 -139.1256,-5.27261 -195.1541,-5.27261 z m 0,37.81515 v 18.86793 c 55.9187,0 121.0493,0.59523 193.5686,3.15627 72.9408,2.57593 146.0589,6.87694 222.9288,13.47676 119.09,10.22471 223.0762,23.76065 340.6056,39.2177 117.5025,15.4535 222.0471,29.0563 341.8507,39.33119 77.366,6.63526 151.0001,10.96128 224.4674,13.55245 73.0344,2.5759 138.631,3.17493 194.9247,3.17493 -55.9642,0 -122.2215,-1.36594 -194.8324,-5.25394 -73.2143,-3.92031 -146.9676,-10.0663 -223.8166,-18.88656 -118.8791,-13.6442 -223.3242,-31.02112 -339.8009,-50.57815 -116.4705,-19.55598 -221.1862,-36.99475 -340.3724,-50.69165 -77.0605,-8.8558 -150.9942,-15.02659 -224.3694,-18.96225 -72.7637,-3.90286 -139.1256,-5.2726 -195.1541,-5.2726 z m 0,37.81516 v 18.86792 c 55.9187,0 121.0493,0.59523 193.5686,3.15628 72.9408,2.57593 146.0589,6.87694 222.9288,13.47675 119.09,10.22471 223.0762,23.76065 340.6056,39.2177 117.5025,15.4535 222.0471,29.0563 341.8507,39.3312 77.366,6.63525 151.0001,10.96128 224.4674,13.55245 73.0344,2.5759 138.631,3.17493 194.9247,3.17493 -55.9642,0 -122.2215,-1.36594 -194.8324,-5.25394 -73.2143,-3.92032 -146.9676,-10.0663 -223.8166,-18.88656 -118.8791,-13.6442 -223.3242,-31.02113 -339.8009,-50.57815 -116.4705,-19.55598 -221.1862,-36.99475 -340.3724,-50.69165 -77.0605,-8.8558 -150.9942,-15.0266 -224.3694,-18.96225 -72.7637,-3.90286 -139.1256,-5.27261 -195.1541,-5.27261 z m 0,37.81515 v 18.86793 c 55.9187,0 121.0493,0.59523 193.5686,3.15627 72.9408,2.57593 146.0589,6.87694 222.9288,13.47676 119.09,10.22471 223.0762,23.76065 340.6056,39.2177 117.5025,15.4535 222.0471,29.0563 341.8507,39.33119 77.366,6.63526 151.0001,10.96128 224.4674,13.55245 73.0344,2.5759 138.631,3.17494 194.9247,3.17494 -55.9642,0 -122.2215,-1.36595 -194.8324,-5.25395 -73.2143,-3.92031 -146.9676,-10.0663 -223.8166,-18.88656 -118.8791,-13.6442 -223.3242,-31.02112 -339.8009,-50.57815 -116.4705,-19.55598 -221.1862,-36.99475 -340.3724,-50.69165 -77.0605,-8.8558 -150.9942,-15.02659 -224.3694,-18.96225 -72.7637,-3.90286 -139.1256,-5.2726 -195.1541,-5.2726 z m 0,37.81516 v 18.86792 c 55.9187,0 121.0493,0.59523 193.5686,3.15628 72.9408,2.57593 146.0589,6.87694 222.9288,13.47675 119.09,10.22471 223.0762,23.76065 340.6056,39.2177 117.5025,15.4535 222.0471,29.0563 341.8507,39.3312 77.366,6.63525 151.0001,10.96128 224.4674,13.55245 73.0344,2.5759 138.631,3.17493 194.9247,3.17493 -55.9642,0 -122.2215,-1.36594 -194.8324,-5.25394 -73.2143,-3.92032 -146.9676,-10.0663 -223.8166,-18.88656 -118.8791,-13.6442 -223.3242,-31.02113 -339.8009,-50.57815 -116.4705,-19.55598 -221.1862,-36.99475 -340.3724,-50.69165 -77.0605,-8.8558 -150.9942,-15.0266 -224.3694,-18.96225 -72.7637,-3.90286 -139.1256,-5.27261 -195.1541,-5.27261 z m 0,37.81515 v 18.86793 c 55.9187,0 121.0493,0.59523 193.5686,3.15627 72.9408,2.57593 146.0589,6.87694 222.9288,13.47676 119.09,10.22471 223.0762,23.76065 340.6056,39.2177 117.5025,15.4535 222.0471,29.0563 341.8507,39.33119 77.366,6.63526 151.0001,10.96128 224.4674,13.55245 73.0344,2.5759 138.631,3.17494 194.9247,3.17494 -55.9642,0 -122.2215,-1.36595 -194.8324,-5.25395 -73.2143,-3.92031 -146.9676,-10.0663 -223.8166,-18.88656 -118.8791,-13.6442 -223.3242,-31.02112 -339.8009,-50.57815 -116.4705,-19.55598 -221.1862,-36.99475 -340.3724,-50.69165 -77.0605,-8.8558 -150.9942,-15.02659 -224.3694,-18.96225 -72.7637,-3.90286 -139.1256,-5.2726 -195.1541,-5.2726 z m 0,37.81516 v 18.86792 c 55.9187,0 121.0493,0.59523 193.5686,3.15628 72.9408,2.57593 146.0589,6.87694 222.9288,13.47675 119.09,10.22471 223.0762,23.76065 340.6056,39.2177 117.5025,15.4535 222.0471,29.0563 341.8507,39.3312 77.366,6.63525 151.0001,10.96128 224.4674,13.55245 73.0344,2.5759 138.631,3.17493 194.9247,3.17493 -55.9642,0 -122.2215,-1.36594 -194.8324,-5.25394 -73.2143,-3.92032 -146.9676,-10.0663 -223.8166,-18.88656 -118.8791,-13.6442 -223.3242,-31.02113 -339.8009,-50.57815 -116.4705,-19.55598 -221.1862,-36.99475 -340.3724,-50.69165 -77.0605,-8.8558 -150.9942,-15.0266 -224.3694,-18.96225 -72.7637,-3.90286 -139.1256,-5.27261 -195.1541,-5.27261 z"
         id="use26"
         transform="matrix(0.22300099,0,0,0.37823052,-402.85121,237.25945)" />
    </pattern>
    <clipPath
       clipPathUnits="userSpaceOnUse"
       id="clipPath54">
      <path
         id="path336"
         style="stroke-width:0.0999999;stroke-linecap:square;paint-order:markers fill stroke;stop-color:#000000"
         d="m 1691.1994,-792.32001 h 1634.8919 v 92.82806 H 1691.1994 Z" />
    </clipPath>
    <clipPath
       clipPathUnits="userSpaceOnUse"
       id="clipPath33">
      <rect
         style="fill:#000000;stroke:none;stroke-width:0.999995;stroke-linecap:butt;stroke-linejoin:bevel;paint-order:stroke markers fill;stop-color:#000000"
         id="rect33"
         width="46.19186"
         height="80.006783"
         x="74.999985"
         y="399.99661" />
    </clipPath>
    <clipPath
       clipPathUnits="userSpaceOnUse"
       id="clipPath27">
      <rect
         style="fill:none;stroke:#000000;stroke-width:0.999999;stroke-linecap:butt;stroke-linejoin:bevel;paint-order:stroke markers fill;stop-color:#000000"
         id="rect28-6"
         width="46.160622"
         height="39.922417"
         x="86.574379"
         y="420.06253" />
    </clipPath>
    <clipPath
       clipPathUnits="userSpaceOnUse"
       id="clipPath25">
      <rect
         style="fill:#ff0000;stroke:none;stroke-width:3;stroke-linecap:square;stroke-linejoin:miter;paint-order:stroke markers fill;stop-color:#000000"
         id="rect25-8"
         width="78"
         height="45.033199"
         x="763.61322"
         y="452.82422" />
    </clipPath>
    <clipPath
       clipPathUnits="userSpaceOnUse"
       id="clipPath15">
      <rect
         style="fill:none;stroke:#000000;stroke-linecap:butt;stroke-linejoin:bevel;paint-order:stroke markers fill;stop-color:#000000"
         id="rect15-7"
         width="45.034248"
         height="38.955639"
         x="262.48285"
         y="121.00073" />
    </clipPath>
    <linearGradient
       id="swatch75">
      <stop
         style="stop-color:#000000;stop-opacity:1;"
         offset="0"
         id="stop75" />
    </linearGradient>
  </defs>
  <g
     id="layer70"
     style="display:inline">
    <g
       id="layer94"
       style="display:inline">
      <path
         style="baseline-shift:baseline;display:inline;overflow:visible;opacity:1;vector-effect:none;fill-rule:evenodd;enable-background:accumulate;stop-color:#000000;stop-opacity:1"
         d="m 690.27734,440.64648 c -0.95392,1.90787 -1.32173,2.71893 -1.1289,2.42969 -0.43168,0.64752 -3.47047,2.8465 -6.01758,8.36524 -3.44445,7.46297 -3.77862,13.03392 -4.93945,15.14453 -2.79722,5.08584 -8.58499,10.55277 -13.73633,18.79492 -5.21028,8.33646 -8.44117,16.47767 -12.33594,22.89258 -5.12032,8.43347 -11.40815,16.80002 -17.37891,26.05468 -12.10599,18.7643 -23.25437,37.79671 -35.04882,56.07813 -5.46249,8.46685 -11.82539,16.98484 -17.64649,26.48242 -5.92672,9.66991 -10.69648,19.37641 -15.87305,28.20703 -4.26907,7.28254 -9.33841,14.66693 -14.05468,22.8418 -4.63791,8.03905 -8.1963,15.89078 -12.21485,22.69141 -2.8463,4.81681 -6.52101,9.75418 -10.22656,15.3125 l -0.82812,1.24218 -0.42969,1.43164 c -2.08066,6.93555 -2.91733,12.51434 -4.62305,15.92579 -1.7347,3.46939 -2.88449,4.9791 -3.24609,5.3789 -0.3616,0.39981 0.3936,-0.14832 -0.57227,0.37891 -0.96586,0.52722 -3.97347,2.41389 -5.91992,5.0039 -0.896,1.19225 -1.63234,2.47276 -2.33398,3.875 -0.16322,-0.58878 -0.44268,-1.47397 -0.53321,-1.82812 0.0387,-0.16613 0.19337,-0.82613 0.19336,-0.82617 -6e-5,-3.8e-4 -0.31423,-1.38759 -0.42383,-1.70703 -0.10959,-0.31945 -0.18695,-0.50932 -0.25,-0.65821 -0.25218,-0.59554 -0.30529,-0.65459 -0.35937,-0.75781 -0.10815,-0.20643 -0.12622,-0.2325 -0.1543,-0.2832 -0.11231,-0.20282 -0.23368,-0.42053 -0.57226,-1.05469 -0.61556,-1.15291 -2.09668,-4.02627 -4.3086,-8.43164 -0.0852,-0.49287 -0.073,-3.20782 -1.57031,-8.07422 -4.66822,-15.17172 -6.49021,-15.88304 -12.76367,-29.32617 -1.70239,-3.64797 -3.2912,-7.69508 -5.12695,-11.97852 -1.87351,-4.37153 -3.73974,-8.24802 -5.08594,-11.83789 -1.65753,-4.42009 -2.96544,-9.88154 -5.30078,-15.88672 -4.0806,-10.49296 -6.29863,-14.30455 -7.40039,-16.65625 -1.10176,-2.35169 -1.89279,-4.55202 -4.45899,-15.33007 -1.22677,-5.15244 -1.54455,-11.84509 -3.56055,-19.50586 -1.25026,-4.75104 -3.82078,-10.67411 -6.61132,-17.59375 -2.79055,-6.91965 -5.92459,-14.82258 -5.83985,-14.56836 -3.35434,-10.06305 -3.11705,-13.30675 -4.86133,-24.64453 -0.37083,-2.41041 -0.15369,-6.85319 -2.27343,-12.50586 -0.8638,-2.30346 -2.01691,-3.74252 -3.08008,-4.73438 0.0824,-1.1841 0.21289,-2.11822 0.21289,-5.77344 h -20 c 0,1.88798 -1.33553,6.40395 0.29883,12.94141 0.90008,3.60034 2.629,5.28499 4.10156,6.38477 0.24808,1.41765 0.41237,3.08667 0.97266,6.72851 1.61012,10.4658 1.75966,16.24384 5.65429,27.92774 1.15412,3.46235 3.51088,8.89372 6.26563,15.7246 2.75475,6.83089 5.78512,15.07684 5.81836,15.20313 1.30816,4.97102 1.64864,11.49265 3.44726,19.04687 2.65156,11.13656 4.04983,15.43982 5.80469,19.18555 1.75486,3.74574 3.06187,5.62477 6.87109,15.41992 1.68178,4.32459 2.97881,9.70062 5.2129,15.65821 1.77789,4.74105 3.79833,8.88882 5.42968,12.69531 1.66911,3.89458 3.32651,8.14191 5.38672,12.55664 6.77179,14.51097 7.45093,12.70816 11.77149,26.75 v 0.002 c 0.18378,0.59728 -0.022,3.9195 1.91211,9.23828 l 0.19531,0.53907 0.25781,0.51562 c 2.34781,4.69563 3.46272,6.82392 4.32031,8.44922 0.34193,2.42304 0.8996,4.02497 2.14649,7.76563 1.19108,3.57325 2.58763,6.70835 3.80078,9.53906 1.11748,2.60744 2.1083,4.22954 2.29883,4.60742 0.1197,0.23741 0.25452,0.89644 0.37109,1.36719 -0.0155,0.51459 -0.0158,0.95131 -0.0254,1.14062 -0.0107,0.34445 -0.0856,0.77835 -0.11719,1.09375 -0.0403,0.40325 -0.0717,0.77094 -0.0605,1.39649 0.006,0.31277 0.002,0.65254 0.12109,1.42187 0.0597,0.38467 0.12458,0.8636 0.44726,1.78711 0.16135,0.46176 0.38072,1.04483 0.87891,1.87109 0.2491,0.41314 0.57247,0.88861 1.04492,1.42774 0.47246,0.53913 1.97408,1.73206 1.97461,1.73242 5.4e-4,3.6e-4 3.32562,1.42956 3.32617,1.42969 1e-4,2e-5 0.5082,0.0109 0.72071,0.0156 1.29722,0.477 2.59231,0.78907 3.46875,0.78907 1.85843,0 5.25808,-0.82627 7.52343,-3.29493 1.77348,-1.93263 2.25454,-3.83416 2.45704,-5.33203 0.17863,-0.16504 0.58414,-0.40704 0.72656,-0.54883 1.92482,-1.91631 2.1653,-2.72285 2.77344,-3.7832 0.60813,-1.06034 1.09709,-1.99396 1.5957,-3.23242 0.2493,-0.61923 0.59519,-0.8107 0.85937,-3.29102 0.0661,-0.62007 0.16487,-1.43018 -0.10351,-2.91601 -0.0403,-0.22325 -0.23082,-0.60903 -0.30078,-0.88281 0.34431,-0.98657 0.43844,-1.3776 0.875,-2.57813 1.08344,-2.97946 1.72514,-3.96043 1.78906,-4.07422 1.05944,-0.59902 3.45796,-2.065 5.47656,-4.29687 2.17436,-2.40408 4.08453,-5.41906 6.30078,-9.85157 3.46188,-6.92376 4.33878,-13.13954 5.57422,-17.8164 3.10325,-4.56219 6.59869,-9.34054 9.86328,-14.86524 4.75682,-8.04999 8.33823,-15.9688 12.32032,-22.87109 4.19536,-7.27195 9.23486,-14.62055 13.98437,-22.72266 5.66955,-9.67159 10.38929,-19.25337 15.66992,-27.86914 5.1849,-8.45957 11.44676,-16.86064 17.40235,-26.09179 12.10598,-18.7643 23.25436,-37.79671 35.04882,-56.07813 5.44733,-8.44334 11.85778,-16.94785 17.66797,-26.51758 5.0574,-8.32981 8.26726,-16.38073 12.19922,-22.67187 3.27058,-5.23293 9.44205,-10.91824 14.30274,-19.75586 4.18044,-7.60082 4.37409,-13.80208 5.57422,-16.40234 -0.0992,0.21495 1.68946,-1.43949 4.49804,-5.65235 1.64191,-2.46286 2.1626,-4.15137 2.37696,-4.58008 z M 423.39062,535.5625 c 0.11799,0.0698 0.41968,0.31435 0.4961,0.36328 0.48984,0.31361 0.12414,0.27936 -0.4961,-0.36328 z m 85.11133,195.37109 c 0.0483,0.0455 0.10424,0.092 0.13086,0.11914 0.29857,0.30394 0.40213,0.43399 0.48633,0.53321 0.066,0.0778 0.0531,0.0656 0.084,0.10351 -0.11097,-0.13868 -0.42314,-0.46215 -0.70117,-0.75586 z m 2.58789,6.8418 c 0.0659,0.46957 0.0995,1.15693 -0.39648,2.86719 -0.11219,0.38688 -0.38032,0.93796 -0.61133,1.45312 0.36272,-1.55569 0.72125,-3.09093 1.00781,-4.32031 z m -2.40234,6.32813 c -0.39433,0.48029 -0.65374,0.95355 -1.23438,1.42773 -2.16743,1.77004 -5.60693,2.44169 -7.70117,2.13867 -0.75382,-0.10907 -1.26911,-0.26434 -1.80664,-0.41406 0.39329,-0.11524 9.10479,-2.67186 10.74219,-3.15234 z m -13.58984,1.64062 c 3.4e-4,2.9e-4 1.82755,1.09922 2.3125,1.39063 -1.4106,-0.46289 -1.91519,-0.94672 -2.3125,-1.39063 z"
         id="path460" />
    </g>
  </g>
</svg>
