<?xml version="1.0" encoding="UTF-8" standalone="no"?>
<!-- Created with Inkscape (http://www.inkscape.org/) -->

<svg
   width="1000"
   height="1000"
   viewBox="0 0 1000 1000"
   version="1.1"
   id="svg1"
   xmlns:xlink="http://www.w3.org/1999/xlink"
   xmlns="http://www.w3.org/2000/svg"
   xmlns:svg="http://www.w3.org/2000/svg">
  <defs
     id="defs1">
    <pattern
       xlink:href="#pattern359"
       preserveAspectRatio="xMidYMid"
       id="pattern372"
       patternTransform="matrix(0.5,0,0,0.5,147.15462,1548.2922)" />
    <pattern
       xlink:href="#pattern357"
       preserveAspectRatio="xMidYMid"
       id="pattern371"
       patternTransform="matrix(0.5,0,0,0.5,221.32076,1552.4298)" />
    <pattern
       xlink:href="#pattern358"
       preserveAspectRatio="xMidYMid"
       id="pattern370"
       patternTransform="matrix(0.5,0,0,0.5,230.96346,1527.8214)" />
    <pattern
       xlink:href="#pattern355"
       preserveAspectRatio="xMidYMid"
       id="pattern369"
       patternTransform="matrix(0.5,0,0,0.5,287.08178,1553.6581)" />
    <pattern
       xlink:href="#pattern354"
       preserveAspectRatio="xMidYMid"
       id="pattern368"
       patternTransform="matrix(0.5,0,0,0.5,230.97274,1529.1717)" />
    <pattern
       xlink:href="#pattern342"
       preserveAspectRatio="xMidYMid"
       id="pattern360"
       patternTransform="matrix(0.5,0,0,0.5,210.45332,1525.5392)" />
    <pattern
       xlink:href="#pattern342"
       preserveAspectRatio="xMidYMid"
       id="pattern359"
       patternTransform="matrix(0.5,0,0,0.5,152.11125,1550.7705)" />
    <pattern
       xlink:href="#pattern342"
       preserveAspectRatio="xMidYMid"
       id="pattern358"
       patternTransform="matrix(0.5,0,0,0.5,202.11125,1533.2444)" />
    <pattern
       xlink:href="#pattern342"
       preserveAspectRatio="xMidYMid"
       id="pattern357"
       patternTransform="matrix(0.5,0,0,0.5,211.4075,1546.234)" />
    <pattern
       xlink:href="#pattern342"
       preserveAspectRatio="xMidYMid"
       id="pattern356"
       patternTransform="matrix(0.5,0,0,0.5,232.14929,1573.2544)" />
    <pattern
       xlink:href="#pattern342"
       preserveAspectRatio="xMidYMid"
       id="pattern355"
       patternTransform="matrix(0.5,0,0,0.5,275,1552.7287)" />
    <pattern
       xlink:href="#pattern342"
       preserveAspectRatio="xMidYMid"
       id="pattern354"
       patternTransform="matrix(0.5,0,0,0.5,235,1529.7913)" />
    <pattern
       xlink:href="#shading24"
       preserveAspectRatio="xMidYMid"
       id="pattern342"
       patternTransform="matrix(0.5,0,0,0.5,213.95332,1537.5392)"
       x="0"
       y="0" />
    <pattern
       patternUnits="userSpaceOnUse"
       width="338.5925"
       height="42.989567"
       patternTransform="translate(213.95332,1537.5392) scale(0.5)"
       preserveAspectRatio="xMidYMid"
       id="shading24"
       style="fill:#000000">
      <path
         style="fill-rule:nonzero;stroke:none;stroke-width:0.1;stroke-linecap:square;paint-order:markers fill stroke;stop-color:#000000"
         d="m 1806.4991,-758.06464 v 18.86792 c 55.9187,0 121.0493,0.59523 193.5686,3.15628 72.9408,2.57593 146.0589,6.87694 222.9288,13.47675 119.09,10.22471 223.0762,23.76065 340.6056,39.2177 117.5025,15.4535 222.0471,29.0563 341.8507,39.3312 77.366,6.63525 151.0001,10.96128 224.4674,13.55245 73.0344,2.5759 138.631,3.17493 194.9247,3.17493 -55.9642,0 -122.2215,-1.36594 -194.8324,-5.25394 -73.2143,-3.92032 -146.9676,-10.0663 -223.8166,-18.88656 -118.8791,-13.6442 -223.3242,-31.02113 -339.8009,-50.57815 -116.4705,-19.55598 -221.1862,-36.99475 -340.3724,-50.69165 -77.0605,-8.8558 -150.9942,-15.0266 -224.3694,-18.96225 -72.7637,-3.90286 -139.1256,-5.27261 -195.1541,-5.27261 z m 0,37.81515 v 18.86793 c 55.9187,0 121.0493,0.59523 193.5686,3.15627 72.9408,2.57593 146.0589,6.87694 222.9288,13.47676 119.09,10.22471 223.0762,23.76065 340.6056,39.2177 117.5025,15.4535 222.0471,29.0563 341.8507,39.33119 77.366,6.63526 151.0001,10.96128 224.4674,13.55245 73.0344,2.5759 138.631,3.17493 194.9247,3.17493 -55.9642,0 -122.2215,-1.36594 -194.8324,-5.25394 -73.2143,-3.92031 -146.9676,-10.0663 -223.8166,-18.88656 -118.8791,-13.6442 -223.3242,-31.02112 -339.8009,-50.57815 -116.4705,-19.55598 -221.1862,-36.99475 -340.3724,-50.69165 -77.0605,-8.8558 -150.9942,-15.02659 -224.3694,-18.96225 -72.7637,-3.90286 -139.1256,-5.2726 -195.1541,-5.2726 z m 0,37.81516 v 18.86792 c 55.9187,0 121.0493,0.59523 193.5686,3.15628 72.9408,2.57593 146.0589,6.87694 222.9288,13.47675 119.09,10.22471 223.0762,23.76065 340.6056,39.2177 117.5025,15.4535 222.0471,29.0563 341.8507,39.3312 77.366,6.63525 151.0001,10.96128 224.4674,13.55245 73.0344,2.5759 138.631,3.17493 194.9247,3.17493 -55.9642,0 -122.2215,-1.36594 -194.8324,-5.25394 -73.2143,-3.92032 -146.9676,-10.0663 -223.8166,-18.88656 -118.8791,-13.6442 -223.3242,-31.02113 -339.8009,-50.57815 -116.4705,-19.55598 -221.1862,-36.99475 -340.3724,-50.69165 -77.0605,-8.8558 -150.9942,-15.0266 -224.3694,-18.96225 -72.7637,-3.90286 -139.1256,-5.27261 -195.1541,-5.27261 z m 0,37.81515 v 18.86793 c 55.9187,0 121.0493,0.59523 193.5686,3.15627 72.9408,2.57593 146.0589,6.87694 222.9288,13.47676 119.09,10.22471 223.0762,23.76065 340.6056,39.2177 117.5025,15.4535 222.0471,29.0563 341.8507,39.33119 77.366,6.63526 151.0001,10.96128 224.4674,13.55245 73.0344,2.5759 138.631,3.17494 194.9247,3.17494 -55.9642,0 -122.2215,-1.36595 -194.8324,-5.25395 -73.2143,-3.92031 -146.9676,-10.0663 -223.8166,-18.88656 -118.8791,-13.6442 -223.3242,-31.02112 -339.8009,-50.57815 -116.4705,-19.55598 -221.1862,-36.99475 -340.3724,-50.69165 -77.0605,-8.8558 -150.9942,-15.02659 -224.3694,-18.96225 -72.7637,-3.90286 -139.1256,-5.2726 -195.1541,-5.2726 z m 0,37.81516 v 18.86792 c 55.9187,0 121.0493,0.59523 193.5686,3.15628 72.9408,2.57593 146.0589,6.87694 222.9288,13.47675 119.09,10.22471 223.0762,23.76065 340.6056,39.2177 117.5025,15.4535 222.0471,29.0563 341.8507,39.3312 77.366,6.63525 151.0001,10.96128 224.4674,13.55245 73.0344,2.5759 138.631,3.17493 194.9247,3.17493 -55.9642,0 -122.2215,-1.36594 -194.8324,-5.25394 -73.2143,-3.92032 -146.9676,-10.0663 -223.8166,-18.88656 -118.8791,-13.6442 -223.3242,-31.02113 -339.8009,-50.57815 -116.4705,-19.55598 -221.1862,-36.99475 -340.3724,-50.69165 -77.0605,-8.8558 -150.9942,-15.0266 -224.3694,-18.96225 -72.7637,-3.90286 -139.1256,-5.27261 -195.1541,-5.27261 z m 0,37.81515 v 18.86793 c 55.9187,0 121.0493,0.59523 193.5686,3.15627 72.9408,2.57593 146.0589,6.87694 222.9288,13.47676 119.09,10.22471 223.0762,23.76065 340.6056,39.2177 117.5025,15.4535 222.0471,29.0563 341.8507,39.33119 77.366,6.63526 151.0001,10.96128 224.4674,13.55245 73.0344,2.5759 138.631,3.17494 194.9247,3.17494 -55.9642,0 -122.2215,-1.36595 -194.8324,-5.25395 -73.2143,-3.92031 -146.9676,-10.0663 -223.8166,-18.88656 -118.8791,-13.6442 -223.3242,-31.02112 -339.8009,-50.57815 -116.4705,-19.55598 -221.1862,-36.99475 -340.3724,-50.69165 -77.0605,-8.8558 -150.9942,-15.02659 -224.3694,-18.96225 -72.7637,-3.90286 -139.1256,-5.2726 -195.1541,-5.2726 z m 0,37.81516 v 18.86792 c 55.9187,0 121.0493,0.59523 193.5686,3.15628 72.9408,2.57593 146.0589,6.87694 222.9288,13.47675 119.09,10.22471 223.0762,23.76065 340.6056,39.2177 117.5025,15.4535 222.0471,29.0563 341.8507,39.3312 77.366,6.63525 151.0001,10.96128 224.4674,13.55245 73.0344,2.5759 138.631,3.17493 194.9247,3.17493 -55.9642,0 -122.2215,-1.36594 -194.8324,-5.25394 -73.2143,-3.92032 -146.9676,-10.0663 -223.8166,-18.88656 -118.8791,-13.6442 -223.3242,-31.02113 -339.8009,-50.57815 -116.4705,-19.55598 -221.1862,-36.99475 -340.3724,-50.69165 -77.0605,-8.8558 -150.9942,-15.0266 -224.3694,-18.96225 -72.7637,-3.90286 -139.1256,-5.27261 -195.1541,-5.27261 z"
         id="use26"
         transform="matrix(0.22300099,0,0,0.37823052,-402.85121,237.25945)" />
    </pattern>
    <clipPath
       clipPathUnits="userSpaceOnUse"
       id="clipPath54">
      <path
         id="path336"
         style="stroke-width:0.0999999;stroke-linecap:square;paint-order:markers fill stroke;stop-color:#000000"
         d="m 1691.1994,-792.32001 h 1634.8919 v 92.82806 H 1691.1994 Z" />
    </clipPath>
    <clipPath
       clipPathUnits="userSpaceOnUse"
       id="clipPath33">
      <rect
         style="fill:#000000;stroke:none;stroke-width:0.999995;stroke-linecap:butt;stroke-linejoin:bevel;paint-order:stroke markers fill;stop-color:#000000"
         id="rect33"
         width="46.19186"
         height="80.006783"
         x="74.999985"
         y="399.99661" />
    </clipPath>
    <clipPath
       clipPathUnits="userSpaceOnUse"
       id="clipPath27">
      <rect
         style="fill:none;stroke:#000000;stroke-width:0.999999;stroke-linecap:butt;stroke-linejoin:bevel;paint-order:stroke markers fill;stop-color:#000000"
         id="rect28-6"
         width="46.160622"
         height="39.922417"
         x="86.574379"
         y="420.06253" />
    </clipPath>
    <clipPath
       clipPathUnits="userSpaceOnUse"
       id="clipPath25">
      <rect
         style="fill:#ff0000;stroke:none;stroke-width:3;stroke-linecap:square;stroke-linejoin:miter;paint-order:stroke markers fill;stop-color:#000000"
         id="rect25-8"
         width="78"
         height="45.033199"
         x="763.61322"
         y="452.82422" />
    </clipPath>
    <clipPath
       clipPathUnits="userSpaceOnUse"
       id="clipPath15">
      <rect
         style="fill:none;stroke:#000000;stroke-linecap:butt;stroke-linejoin:bevel;paint-order:stroke markers fill;stop-color:#000000"
         id="rect15-7"
         width="45.034248"
         height="38.955639"
         x="262.48285"
         y="121.00073" />
    </clipPath>
    <linearGradient
       id="swatch75">
      <stop
         style="stop-color:#000000;stop-opacity:1;"
         offset="0"
         id="stop75" />
    </linearGradient>
  </defs>
  <g
     id="layer70"
     style="display:inline">
    <g
       id="layer96"
       style="display:inline">
      <path
         style="baseline-shift:baseline;display:inline;overflow:visible;opacity:1;vector-effect:none;fill-rule:evenodd;enable-background:accumulate;stop-color:#000000;stop-opacity:1"
         d="m 343.69336,480.26367 -14.45313,13.82422 c 13.11361,13.70968 26.59945,26.31711 38.17188,39.88477 5.97842,7.00919 13.14226,22.37908 20.10547,33.77343 4.52409,7.40306 18.937,28.14176 23.26367,34.01368 4.15662,5.64113 8.4413,10.85811 12.42383,15.97851 4.1608,5.34961 8.30432,10.49171 12.16015,15.63281 4.77095,6.36128 9.45493,12.59926 13.75782,18.91016 3.40371,4.99212 6.31864,12.91077 13.14453,20.38672 8.31097,9.10251 17.72973,15.32412 25.26953,21.76562 10.68213,10.64915 21.55324,20.27853 30.68164,30.66602 6.23131,7.0908 11.52301,16.53002 18.95312,25.89844 3.69822,4.66295 13.49629,15.92453 23.44922,27.32422 9.95294,11.39968 19.84629,22.64595 22.39258,25.58398 7.00659,8.08453 13.95875,16.28651 20.99219,24.49219 6.87375,8.01936 13.69389,16.50661 21.23828,24.76953 5.56627,6.09639 11.27737,10.97958 15.86133,15.86914 7.73565,8.25136 10.31979,13.42867 20.06445,21.78125 1.59372,1.36604 3.04015,2.13494 4.33789,2.69336 0.0101,0.0113 0.007,0.016 0.0176,0.0273 0.49357,0.54667 1.99352,1.69882 1.99414,1.69922 6.2e-4,4e-4 3.11067,1.32992 3.11133,1.33008 6.5e-4,1.6e-4 3.57353,0.19345 3.57422,0.19336 6.8e-4,-9e-5 2.88795,-0.81804 2.88867,-0.81836 7.2e-4,-3.3e-4 1.39393,-0.75196 1.87891,-1.11719 0.48497,-0.36523 0.85118,-0.70476 1.14843,-1.00976 1.18902,-1.22003 1.46927,-1.8959 1.72852,-2.39649 0.5185,-1.00117 0.59463,-1.3718 0.69922,-1.71094 0.41835,-1.35652 0.40019,-1.66624 0.47851,-2.36328 0.0783,-0.69703 0.14917,-1.4433 0.0449,-2.67773 -0.10425,-1.23443 0.37024,-3.3232 -3.06641,-6.75977 -0.51767,-0.51768 -1.19721,-0.76301 -1.81445,-1.14258 v -3.53906 h -3.50391 c 2.68929,0 2.34926,0.27107 0.92969,-0.008 -0.68761,-0.13508 -1.8596,-0.43162 -4.05078,-0.0547 -5.64865,-5.37746 -8.12203,-9.54097 -15.8711,-17.80664 -5.58616,-5.95858 -11.22159,-10.79097 -15.68164,-15.67578 -6.98083,-7.64568 -13.67653,-15.96215 -20.82226,-24.29883 -6.98603,-8.15036 -13.96243,-16.37957 -21.06446,-24.57422 -2.78335,-3.21155 -12.5191,-14.27826 -22.43945,-25.64062 -9.92035,-11.36236 -20.24012,-23.31236 -22.8457,-26.59766 -6.07367,-7.6581 -11.48569,-17.44074 -19.59961,-26.67383 -10.3825,-11.81456 -21.77328,-21.80257 -31.98438,-32.01367 l -0.27148,-0.27148 -0.29297,-0.25 c -8.795,-7.53857 -17.48948,-13.4256 -23.65625,-20.17969 -3.44502,-3.77311 -6.21326,-10.57448 -11.39063,-18.16797 -4.64878,-6.81822 -9.51793,-13.29149 -14.28125,-19.64258 -4.13648,-5.51531 -8.35583,-10.74711 -12.37304,-15.91211 -4.19549,-5.3942 -8.36428,-10.4818 -12.10938,-15.56445 -3.37482,-4.58012 -19.2228,-27.54144 -22.30078,-32.57812 -5.70165,-9.32999 -12.46219,-25.19691 -21.95312,-36.32422 -12.55795,-14.7231 -26.34681,-27.56756 -38.93555,-40.72852 z m 334.49805,398.09766 c 0.0212,0.009 0.18753,0.0801 0.1875,0.0801 -6.3e-4,-4.1e-4 1.49784,1.14995 1.99023,1.69531 0.98479,1.09072 1.4144,1.96237 1.70898,2.62305 0.48911,1.09691 0.53155,1.56853 0.60547,2.02539 -0.0275,0.69072 -0.16632,1.63732 -0.80468,2.91406 -0.73441,1.46878 -2.17713,2.69209 -3.6875,3.65234 z m 4.60351,6.79101 c 0.002,0.009 0.0122,0.0376 0.0137,0.0469 0.15803,0.96713 0.125,1.27312 0.125,1.53125 0,-1.13657 -0.0684,-1.11654 -0.13867,-1.57813 z"
         id="path462" />
      <path
         style="baseline-shift:baseline;display:inline;overflow:visible;opacity:1;vector-effect:none;fill-rule:evenodd;enable-background:accumulate;stop-color:#000000;stop-opacity:1"
         d="m 667.61523,406.50391 c -6.01502,6.01502 -9.08141,8.99814 -10.64843,10.51562 -0.78351,0.75874 -1.09663,1.04417 -1.63282,1.59766 -0.26809,0.27674 -0.52629,-0.13643 -1.93554,2.69726 -0.0803,0.16149 -0.12266,0.657 -0.20899,0.89063 -0.58375,0.9004 -2.65428,3.7993 -7.33984,9.65625 -3.22986,4.03733 -7.92581,8.31424 -12.41406,14.20508 -5.99624,7.87004 -10.91226,15.86626 -15.99414,23.08789 -29.89419,42.4812 -5.50873,6.50526 -35.19141,51.02929 -7.14832,10.72247 -13.71012,21.39489 -20.81641,31.23438 -7.31056,10.12231 -16.49661,19.96794 -24.64062,31.69531 -7.695,11.08081 -12.9149,22.383 -19.27735,31.54492 -7.05195,10.15482 -16.13823,19.91753 -24.42578,31.39258 -7.89005,10.92469 -13.96899,22.03646 -20.95117,31.43555 0.37752,-0.50819 -2.7226,3.3797 -6.30469,7.73242 -3.58208,4.35272 -8.24317,9.99208 -13.01953,15.75586 -9.55271,11.52756 -19.6433,23.64911 -22.33984,26.83594 -6.88947,8.1421 -13.96914,16.24502 -21.00781,24.50781 -6.63303,7.7866 -12.70666,15.54744 -19.06446,22.54101 l -0.4707,0.51954 -0.39648,0.58007 c -6.03144,8.86105 -17.91649,15.19544 -28.82032,26.82618 -5.65691,6.03404 -9.02154,12.05447 -12.49609,16.02539 -2.69995,3.08565 -7.77819,6.53001 -12.60547,12.67382 -4.46859,5.68732 -5.89798,10.63173 -7.36719,12.75391 -1.7731,2.56114 -5.00536,5.60951 -8.46679,10.10938 -3.65461,4.75098 -6.08887,9.04609 -8.51953,11.96289 -1.87151,2.2458 -4.80288,4.74428 -8.1504,8.09179 l -10.51367,10.51563 14.14063,14.14062 10.51562,-10.51367 c 2.49393,-2.49393 5.95596,-5.33113 9.37305,-9.43164 4.00318,-4.80382 6.53286,-9.35737 9.00586,-12.57226 2.10195,-2.73254 5.63785,-5.97691 9.05859,-10.91797 3.8922,-5.62208 5.29971,-10.06219 6.65039,-11.78125 2.31812,-2.95033 7.01372,-6.24309 11.92969,-11.86133 5.29709,-6.05382 8.58356,-11.83379 12.03711,-15.51758 7.60212,-8.10892 20.57711,-14.84406 30.18555,-28.48828 6.89978,-7.62145 13.02176,-15.43376 19.19922,-22.68555 6.93071,-8.13605 14.02525,-16.25765 21.05078,-24.56054 2.94819,-3.48423 12.89915,-15.44385 22.4707,-26.99415 4.78578,-5.77514 9.45742,-11.4236 13.06445,-15.80664 3.60704,-4.38303 5.551,-6.67809 6.91602,-8.51562 8.08928,-10.88941 14.20177,-22.08798 21.10937,-31.65234 7.31058,-10.12233 16.49662,-19.96795 24.64063,-31.69532 7.695,-11.0808 12.9149,-22.38103 19.27734,-31.54297 7.05196,-10.15481 16.1402,-19.91753 24.42774,-31.39257 7.69137,-10.6496 14.37102,-21.54484 21.24218,-31.85157 29.72958,-44.59436 4.89916,-7.97162 34.90625,-50.61328 5.54878,-7.88511 10.35007,-15.65319 15.54883,-22.47656 3.03825,-3.98771 7.59282,-8.17168 12.1211,-13.83203 4.93929,-6.17412 7.23889,-9.26757 8.67773,-11.51367 0.39485,-0.61637 0.75996,-1.12277 1.12305,-1.83985 1.66538,-1.614 4.62722,-4.49441 10.49023,-10.35742 z m -1.43164,10.07031 c 0.35467,0.14613 2.14728,0.54987 4.05078,3.16406 -2.06397,-2.56782 -4.77218,-3.4613 -4.05078,-3.16406 z m -13.13672,6.23633 c -0.14508,0.47732 -0.26825,0.911 -0.36328,1.53711 0.0328,-0.16895 0.0231,-0.5046 0.0547,-0.63477 0.32104,-1.32473 0.21877,-0.78979 0.30859,-0.90234 z m -0.51367,3.29687 c 0.005,0.41226 0.023,0.82508 0.0781,1.25391 -0.0683,-0.48859 -0.0808,-0.82931 -0.0781,-1.25391 z m 0.27539,2.3125 c 0.0982,0.40586 0.29224,0.80341 0.45118,1.20703 -0.16852,-0.41305 -0.3491,-0.81487 -0.45118,-1.20703 z m 17.42969,3.58985 c -0.33221,0.41831 -0.49927,0.48235 -0.53906,0.52343 -0.0619,0.0639 0.36497,-0.3536 0.53906,-0.52343 z"
         id="path463" />
    </g>
  </g>
</svg>
