<?xml version="1.0" encoding="UTF-8" standalone="no"?>
<!-- Created with Inkscape (http://www.inkscape.org/) -->

<svg
   width="1000"
   height="1000"
   viewBox="0 0 1000 1000"
   version="1.1"
   id="svg1"
   xmlns:xlink="http://www.w3.org/1999/xlink"
   xmlns="http://www.w3.org/2000/svg"
   xmlns:svg="http://www.w3.org/2000/svg">
  <defs
     id="defs1">
    <pattern
       xlink:href="#pattern359"
       preserveAspectRatio="xMidYMid"
       id="pattern372"
       patternTransform="matrix(0.5,0,0,0.5,147.15462,1548.2922)" />
    <pattern
       xlink:href="#pattern357"
       preserveAspectRatio="xMidYMid"
       id="pattern371"
       patternTransform="matrix(0.5,0,0,0.5,221.32076,1552.4298)" />
    <pattern
       xlink:href="#pattern358"
       preserveAspectRatio="xMidYMid"
       id="pattern370"
       patternTransform="matrix(0.5,0,0,0.5,230.96346,1527.8214)" />
    <pattern
       xlink:href="#pattern355"
       preserveAspectRatio="xMidYMid"
       id="pattern369"
       patternTransform="matrix(0.5,0,0,0.5,287.08178,1553.6581)" />
    <pattern
       xlink:href="#pattern354"
       preserveAspectRatio="xMidYMid"
       id="pattern368"
       patternTransform="matrix(0.5,0,0,0.5,230.97274,1529.1717)" />
    <pattern
       xlink:href="#pattern342"
       preserveAspectRatio="xMidYMid"
       id="pattern360"
       patternTransform="matrix(0.5,0,0,0.5,210.45332,1525.5392)" />
    <pattern
       xlink:href="#pattern342"
       preserveAspectRatio="xMidYMid"
       id="pattern359"
       patternTransform="matrix(0.5,0,0,0.5,152.11125,1550.7705)" />
    <pattern
       xlink:href="#pattern342"
       preserveAspectRatio="xMidYMid"
       id="pattern358"
       patternTransform="matrix(0.5,0,0,0.5,202.11125,1533.2444)" />
    <pattern
       xlink:href="#pattern342"
       preserveAspectRatio="xMidYMid"
       id="pattern357"
       patternTransform="matrix(0.5,0,0,0.5,211.4075,1546.234)" />
    <pattern
       xlink:href="#pattern342"
       preserveAspectRatio="xMidYMid"
       id="pattern356"
       patternTransform="matrix(0.5,0,0,0.5,232.14929,1573.2544)" />
    <pattern
       xlink:href="#pattern342"
       preserveAspectRatio="xMidYMid"
       id="pattern355"
       patternTransform="matrix(0.5,0,0,0.5,275,1552.7287)" />
    <pattern
       xlink:href="#pattern342"
       preserveAspectRatio="xMidYMid"
       id="pattern354"
       patternTransform="matrix(0.5,0,0,0.5,235,1529.7913)" />
    <pattern
       xlink:href="#shading24"
       preserveAspectRatio="xMidYMid"
       id="pattern342"
       patternTransform="matrix(0.5,0,0,0.5,213.95332,1537.5392)"
       x="0"
       y="0" />
    <pattern
       patternUnits="userSpaceOnUse"
       width="338.5925"
       height="42.989567"
       patternTransform="translate(213.95332,1537.5392) scale(0.5)"
       preserveAspectRatio="xMidYMid"
       id="shading24"
       style="fill:#000000">
      <path
         style="fill-rule:nonzero;stroke:none;stroke-width:0.1;stroke-linecap:square;paint-order:markers fill stroke;stop-color:#000000"
         d="m 1806.4991,-758.06464 v 18.86792 c 55.9187,0 121.0493,0.59523 193.5686,3.15628 72.9408,2.57593 146.0589,6.87694 222.9288,13.47675 119.09,10.22471 223.0762,23.76065 340.6056,39.2177 117.5025,15.4535 222.0471,29.0563 341.8507,39.3312 77.366,6.63525 151.0001,10.96128 224.4674,13.55245 73.0344,2.5759 138.631,3.17493 194.9247,3.17493 -55.9642,0 -122.2215,-1.36594 -194.8324,-5.25394 -73.2143,-3.92032 -146.9676,-10.0663 -223.8166,-18.88656 -118.8791,-13.6442 -223.3242,-31.02113 -339.8009,-50.57815 -116.4705,-19.55598 -221.1862,-36.99475 -340.3724,-50.69165 -77.0605,-8.8558 -150.9942,-15.0266 -224.3694,-18.96225 -72.7637,-3.90286 -139.1256,-5.27261 -195.1541,-5.27261 z m 0,37.81515 v 18.86793 c 55.9187,0 121.0493,0.59523 193.5686,3.15627 72.9408,2.57593 146.0589,6.87694 222.9288,13.47676 119.09,10.22471 223.0762,23.76065 340.6056,39.2177 117.5025,15.4535 222.0471,29.0563 341.8507,39.33119 77.366,6.63526 151.0001,10.96128 224.4674,13.55245 73.0344,2.5759 138.631,3.17493 194.9247,3.17493 -55.9642,0 -122.2215,-1.36594 -194.8324,-5.25394 -73.2143,-3.92031 -146.9676,-10.0663 -223.8166,-18.88656 -118.8791,-13.6442 -223.3242,-31.02112 -339.8009,-50.57815 -116.4705,-19.55598 -221.1862,-36.99475 -340.3724,-50.69165 -77.0605,-8.8558 -150.9942,-15.02659 -224.3694,-18.96225 -72.7637,-3.90286 -139.1256,-5.2726 -195.1541,-5.2726 z m 0,37.81516 v 18.86792 c 55.9187,0 121.0493,0.59523 193.5686,3.15628 72.9408,2.57593 146.0589,6.87694 222.9288,13.47675 119.09,10.22471 223.0762,23.76065 340.6056,39.2177 117.5025,15.4535 222.0471,29.0563 341.8507,39.3312 77.366,6.63525 151.0001,10.96128 224.4674,13.55245 73.0344,2.5759 138.631,3.17493 194.9247,3.17493 -55.9642,0 -122.2215,-1.36594 -194.8324,-5.25394 -73.2143,-3.92032 -146.9676,-10.0663 -223.8166,-18.88656 -118.8791,-13.6442 -223.3242,-31.02113 -339.8009,-50.57815 -116.4705,-19.55598 -221.1862,-36.99475 -340.3724,-50.69165 -77.0605,-8.8558 -150.9942,-15.0266 -224.3694,-18.96225 -72.7637,-3.90286 -139.1256,-5.27261 -195.1541,-5.27261 z m 0,37.81515 v 18.86793 c 55.9187,0 121.0493,0.59523 193.5686,3.15627 72.9408,2.57593 146.0589,6.87694 222.9288,13.47676 119.09,10.22471 223.0762,23.76065 340.6056,39.2177 117.5025,15.4535 222.0471,29.0563 341.8507,39.33119 77.366,6.63526 151.0001,10.96128 224.4674,13.55245 73.0344,2.5759 138.631,3.17494 194.9247,3.17494 -55.9642,0 -122.2215,-1.36595 -194.8324,-5.25395 -73.2143,-3.92031 -146.9676,-10.0663 -223.8166,-18.88656 -118.8791,-13.6442 -223.3242,-31.02112 -339.8009,-50.57815 -116.4705,-19.55598 -221.1862,-36.99475 -340.3724,-50.69165 -77.0605,-8.8558 -150.9942,-15.02659 -224.3694,-18.96225 -72.7637,-3.90286 -139.1256,-5.2726 -195.1541,-5.2726 z m 0,37.81516 v 18.86792 c 55.9187,0 121.0493,0.59523 193.5686,3.15628 72.9408,2.57593 146.0589,6.87694 222.9288,13.47675 119.09,10.22471 223.0762,23.76065 340.6056,39.2177 117.5025,15.4535 222.0471,29.0563 341.8507,39.3312 77.366,6.63525 151.0001,10.96128 224.4674,13.55245 73.0344,2.5759 138.631,3.17493 194.9247,3.17493 -55.9642,0 -122.2215,-1.36594 -194.8324,-5.25394 -73.2143,-3.92032 -146.9676,-10.0663 -223.8166,-18.88656 -118.8791,-13.6442 -223.3242,-31.02113 -339.8009,-50.57815 -116.4705,-19.55598 -221.1862,-36.99475 -340.3724,-50.69165 -77.0605,-8.8558 -150.9942,-15.0266 -224.3694,-18.96225 -72.7637,-3.90286 -139.1256,-5.27261 -195.1541,-5.27261 z m 0,37.81515 v 18.86793 c 55.9187,0 121.0493,0.59523 193.5686,3.15627 72.9408,2.57593 146.0589,6.87694 222.9288,13.47676 119.09,10.22471 223.0762,23.76065 340.6056,39.2177 117.5025,15.4535 222.0471,29.0563 341.8507,39.33119 77.366,6.63526 151.0001,10.96128 224.4674,13.55245 73.0344,2.5759 138.631,3.17494 194.9247,3.17494 -55.9642,0 -122.2215,-1.36595 -194.8324,-5.25395 -73.2143,-3.92031 -146.9676,-10.0663 -223.8166,-18.88656 -118.8791,-13.6442 -223.3242,-31.02112 -339.8009,-50.57815 -116.4705,-19.55598 -221.1862,-36.99475 -340.3724,-50.69165 -77.0605,-8.8558 -150.9942,-15.02659 -224.3694,-18.96225 -72.7637,-3.90286 -139.1256,-5.2726 -195.1541,-5.2726 z m 0,37.81516 v 18.86792 c 55.9187,0 121.0493,0.59523 193.5686,3.15628 72.9408,2.57593 146.0589,6.87694 222.9288,13.47675 119.09,10.22471 223.0762,23.76065 340.6056,39.2177 117.5025,15.4535 222.0471,29.0563 341.8507,39.3312 77.366,6.63525 151.0001,10.96128 224.4674,13.55245 73.0344,2.5759 138.631,3.17493 194.9247,3.17493 -55.9642,0 -122.2215,-1.36594 -194.8324,-5.25394 -73.2143,-3.92032 -146.9676,-10.0663 -223.8166,-18.88656 -118.8791,-13.6442 -223.3242,-31.02113 -339.8009,-50.57815 -116.4705,-19.55598 -221.1862,-36.99475 -340.3724,-50.69165 -77.0605,-8.8558 -150.9942,-15.0266 -224.3694,-18.96225 -72.7637,-3.90286 -139.1256,-5.27261 -195.1541,-5.27261 z"
         id="use26"
         transform="matrix(0.22300099,0,0,0.37823052,-402.85121,237.25945)" />
    </pattern>
    <clipPath
       clipPathUnits="userSpaceOnUse"
       id="clipPath54">
      <path
         id="path336"
         style="stroke-width:0.0999999;stroke-linecap:square;paint-order:markers fill stroke;stop-color:#000000"
         d="m 1691.1994,-792.32001 h 1634.8919 v 92.82806 H 1691.1994 Z" />
    </clipPath>
    <clipPath
       clipPathUnits="userSpaceOnUse"
       id="clipPath33">
      <rect
         style="fill:#000000;stroke:none;stroke-width:0.999995;stroke-linecap:butt;stroke-linejoin:bevel;paint-order:stroke markers fill;stop-color:#000000"
         id="rect33"
         width="46.19186"
         height="80.006783"
         x="74.999985"
         y="399.99661" />
    </clipPath>
    <clipPath
       clipPathUnits="userSpaceOnUse"
       id="clipPath27">
      <rect
         style="fill:none;stroke:#000000;stroke-width:0.999999;stroke-linecap:butt;stroke-linejoin:bevel;paint-order:stroke markers fill;stop-color:#000000"
         id="rect28-6"
         width="46.160622"
         height="39.922417"
         x="86.574379"
         y="420.06253" />
    </clipPath>
    <clipPath
       clipPathUnits="userSpaceOnUse"
       id="clipPath25">
      <rect
         style="fill:#ff0000;stroke:none;stroke-width:3;stroke-linecap:square;stroke-linejoin:miter;paint-order:stroke markers fill;stop-color:#000000"
         id="rect25-8"
         width="78"
         height="45.033199"
         x="763.61322"
         y="452.82422" />
    </clipPath>
    <clipPath
       clipPathUnits="userSpaceOnUse"
       id="clipPath15">
      <rect
         style="fill:none;stroke:#000000;stroke-linecap:butt;stroke-linejoin:bevel;paint-order:stroke markers fill;stop-color:#000000"
         id="rect15-7"
         width="45.034248"
         height="38.955639"
         x="262.48285"
         y="121.00073" />
    </clipPath>
    <linearGradient
       id="swatch75">
      <stop
         style="stop-color:#000000;stop-opacity:1;"
         offset="0"
         id="stop75" />
    </linearGradient>
  </defs>
  <g
     id="layer70"
     style="display:inline">
    <g
       id="layer98"
       style="display:inline">
      <path
         style="baseline-shift:baseline;display:inline;overflow:visible;opacity:1;vector-effect:none;fill-rule:evenodd;enable-background:accumulate;stop-color:#000000;stop-opacity:1"
         d="m 657.36133,482.23437 c -3.06213,-0.0635 -6.32865,-0.0541 -9.79102,0.23438 -9.04481,0.75373 -17.33842,2.49799 -25.07031,3.56445 -8.34862,1.15154 -17.35425,1.81776 -26.76367,3.58203 -10.62616,1.99241 -20.60457,4.83677 -30.23828,7.10352 -10.11243,2.3794 -19.89172,4.96743 -29.51758,6.94922 -9.15005,1.88383 -19.33464,2.81493 -30.04688,5.31445 -8.91695,2.08062 -16.35066,5.32899 -23.0332,7.07227 -5.01909,1.30933 -10.74193,2.1312 -16.96094,3.375 -5.36106,1.0722 -11.55638,1.81915 -18.24023,3.67578 -8.96701,2.49083 -12.71561,3.55566 -15.72461,4.81445 -0.75225,0.3147 -1.37857,0.41748 -3.08008,1.74805 -0.50015,0.39112 -1.23864,1.07275 -1.99219,2.10547 -1.81326,0.67035 -1.5202,0.62115 -5.7539,1.92383 -1.31105,0.40339 -4.69403,0.38296 -9.82227,1.5664 -4.81251,1.11059 -9.00659,2.5588 -12.76562,3.63281 l 5.49414,19.23047 c 4.41898,-1.26257 8.29263,-2.57504 11.76758,-3.37695 1.79617,-0.4145 5.72589,-0.251 11.20703,-1.9375 8.2272,-2.53145 11.05189,-3.22993 14.71484,-5.30078 0.75444,-0.42652 1.83185,-0.55141 3.375,-2.76367 2.15607,-0.67832 2.72058,-0.92499 7.93359,-2.37305 4.79575,-1.33215 10.48678,-2.06963 16.8086,-3.33398 5.4639,-1.09278 11.57659,-1.93668 18.08594,-3.63477 8.69332,-2.26783 15.97342,-5.41711 22.53125,-6.94727 8.92798,-2.08319 18.93172,-3.01811 29.53515,-5.20117 10.35829,-2.13258 20.31598,-4.77655 30.06445,-7.07031 10.22721,-2.40639 19.91609,-5.14832 29.34375,-6.91602 7.96718,-1.49384 16.64555,-2.16163 25.81055,-3.42578 8.63525,-1.19106 16.57784,-2.82891 23.99805,-3.44726 4.71781,-0.39316 10.29828,0.0351 16.69336,0.0351 h 12.26758 10.51562 c 4.15318,0 5.23938,-0.091 6.08008,0.0781 0.18241,0.27723 1.24803,1.1313 2.20898,1.92578 -0.21297,0.43969 -0.68322,1.49457 -0.83789,1.72656 -1.47452,2.21179 -3.78842,4.74835 -6.42968,7.97656 -2.99472,3.66022 -5.69881,7.12378 -8.42188,10.11915 -2.35188,2.58706 -5.28865,5.27302 -8.43359,8.41796 -4.08902,4.08902 -8.17857,8.17858 -12.26758,12.26758 -13.75427,13.75428 -15.25833,15.06628 -13.68555,14.17383 0.78639,-0.44622 -1.23795,0.46689 -4.2793,2.25195 -3.04134,1.78506 -7.69439,4.78695 -15.79296,10.52344 -8.66336,6.13655 -15.52761,12.77542 -22.47266,17.31641 -5.89105,3.85183 -14.09368,6.79365 -22.63867,12.17383 -9.34415,5.88334 -17.07104,12.54541 -24.75196,17.66601 -6.81432,4.54288 -14.75748,8.67035 -22.78125,14.01953 -9.21899,6.146 -16.59398,12.84901 -24.04492,17.2168 -6.72926,3.94475 -16.33299,6.43241 -26.28711,12.26758 -9.83662,5.7663 -17.53943,12.74189 -25.09961,17.88281 -8.50091,5.78062 -12.9945,8.68629 -15.26757,10.07227 -2.27308,1.38597 -1.12015,0.76058 -2.36133,1.2871 -1.24118,0.52653 -2.93767,1.55973 -5.59961,3.49415 -2.66194,1.93441 -7.1773,5.30826 -15.70117,11.70117 -9.95947,7.4696 -14.41327,10.82607 -16.4375,12.41406 -0.50606,0.397 -0.79163,0.60861 -1.35547,1.11328 -0.14096,0.12617 -0.30168,0.27055 -0.58008,0.55664 -0.2784,0.2861 -0.6099,0.32789 -1.64648,2.22656 -0.0278,0.0509 -0.0646,0.17968 -0.0937,0.23438 -1.9805,1.6899 -3.40632,2.96607 -9.92579,8.18164 -3.35678,2.68544 -7.44755,5.30183 -11.83203,8.43359 -14.6085,10.43465 -8.46138,5.90366 -19.46484,14.15625 -2.06344,1.54758 -4.64375,3.26724 -7.41211,5.57422 -0.99128,0.82606 -1.33059,1.19836 -1.86328,1.70703 -1.41795,0.47731 -2.89681,1.24447 -4.0625,2.41016 -2.84956,2.84949 -3.23828,5.55644 -3.23828,7.94727 0,1.91547 0.31411,4.03941 1.8789,6.27148 0.52361,1.58701 1.26266,2.9852 1.99024,3.74805 3.1982,3.35321 4.21112,2.66741 4.95508,2.84765 1.48791,0.36049 1.85692,0.2937 2.3789,0.31055 0.79303,0.0256 1.52472,-0.0572 2.31446,-0.15039 -0.19009,-0.0534 -0.26911,-0.20056 -0.36719,-0.18359 -0.24626,0.0426 -0.17654,0.0241 0.0234,0.006 0.0748,-0.007 0.76566,-0.0135 0.8789,-0.0215 -0.0559,0.0153 -0.28921,0.18067 -0.33398,0.1875 0.18641,-0.0244 0.32731,-0.002 0.53125,-0.0352 0.28821,-0.0465 0.68493,-0.13369 1.01562,-0.17968 1.39384,-0.0743 2.93902,-0.17188 7.31055,-0.17188 h 36.80078 54.32617 c 10.74836,0 22.03906,0.60649 33.82227,-0.0137 21.08564,-1.10977 30.75732,-1.83687 35.64648,-2.48828 1.22229,-0.16285 2.02229,-0.24381 3.48633,-0.66992 0.37806,-0.11004 0.79351,-0.11904 1.44141,-0.38477 4.13379,0.0223 6.53813,0.0508 18.48242,0.0508 h 70.09765 19.2754 8.76367 c -0.93992,0 1.55762,1.18916 6.66601,-0.51367 1.04369,-0.3479 1.91433,-0.77907 2.64063,-1.23828 h 1.20703 v -0.95899 c 0.92359,-0.80704 1.32987,-1.35668 1.63867,-1.83203 -0.2977,0.31598 -0.96825,0.74335 -1.63867,1.17188 v -18.38086 h -3.50391 c 1.19867,0 1.17849,0.0693 0.1836,-0.0391 -0.9949,-0.10838 -3.48026,-0.37026 -6.40821,1.09375 -0.4544,0.2272 -0.74772,0.46333 -1.11914,0.69726 h -8.42968 -19.2754 -70.09765 c -17.58588,0 -24.79893,-0.0572 -27.13477,-0.0742 -0.29198,-0.002 -0.50782,-0.003 -0.67773,-0.004 -0.16991,-7.7e-4 0.35496,-0.0464 -0.8086,0.0137 -0.14544,0.008 -0.1865,-0.0287 -1.08007,0.11523 -0.10752,0.0173 -0.21187,0.97774 -0.31836,1.47852 -4.78482,0.45954 -13.16991,1.09971 -30.08985,1.99023 -10.38359,0.5465 -21.32039,-0.0137 -32.76953,-0.0137 h -54.32617 -22.91797 c 1.8148,-1.3341 2.58942,-1.99495 11.20703,-8.15039 3.79355,-2.70967 8.21024,-5.49708 12.70117,-9.08984 9.27583,-7.42066 13.05328,-10.53424 15.27735,-12.66211 0.53634,-0.51315 0.8568,-0.50073 2.11914,-2.51172 2.39934,-1.82984 4.64125,-3.53953 12.14844,-9.16992 8.51233,-6.38425 13.05072,-9.77142 15.45898,-11.52149 2.40826,-1.75006 1.79649,-1.32287 1.65234,-1.26172 -0.14414,0.0611 2.11927,-0.88919 4.9629,-2.62304 2.84362,-1.73386 7.47327,-4.7441 16.10156,-10.61133 9.06104,-6.1615 16.46515,-12.76736 23.96875,-17.16602 6.72928,-3.94475 16.33299,-6.4324 26.28711,-12.26757 9.88928,-5.79717 17.51823,-12.82662 25.02343,-17.83008 6.81432,-4.54288 14.75748,-8.67035 22.78125,-14.01953 9.04329,-6.02886 16.64932,-12.55662 24.31446,-17.38282 6.05216,-3.81062 14.37944,-6.77139 22.92578,-12.35937 9.09243,-5.94505 16.11706,-12.79532 23.08984,-17.73438 7.8283,-5.54504 12.10636,-8.27367 14.35547,-9.59375 2.24912,-1.32007 1.87447,-0.88581 4.02735,-2.10742 4.30575,-2.44322 4.3996,-3.86835 17.95703,-17.42578 4.08903,-4.08902 8.17857,-8.17857 12.26757,-12.26758 2.6965,-2.69649 5.88475,-5.57985 9.08985,-9.10547 3.41483,-3.75631 6.31822,-7.50829 9.10156,-10.91015 2.09579,-2.56152 4.91678,-5.53434 7.5918,-9.54688 2.36647,-3.54968 3.33042,-6.48701 4.1289,-8.08398 l 1.05469,-2.11328 v -0.22266 c 0.68187,-0.92189 1.37336,-2.08781 1.83399,-4.08789 0.71594,-3.10869 -0.7003,-8.06748 -3.00977,-10.37695 -1.71152,-1.71153 -4.03887,-2.48591 -5.87695,-2.79688 -0.32006,-0.63179 -1.68224,-2.08785 -4.81055,-3.96484 -7.00156,-4.20094 -13.81504,-3.17774 -17.41211,-3.17774 h -10.51562 -12.26758 c -2.6439,0 -5.50037,-0.13572 -8.5625,-0.19922 z m 49.67383,7.10938 c 0.38508,-0.0608 0.98818,-0.0509 1.75195,0.0547 -0.90865,0.0703 -1.89158,0.16145 -2.16797,0.22656 -0.39492,0.093 -0.29707,-0.16871 0.41602,-0.28125 z m 8.70117,19.99219 c -0.37679,0.44644 -0.61501,0.58783 -0.71289,0.67968 -0.17206,0.16147 -0.10356,0.0922 0.0488,-0.0391 0.11058,-0.0953 0.4668,-0.46598 0.66406,-0.64062 z m -277.85156,18.56054 c 0.15849,0.0322 0.44401,0.19804 0.6621,0.29102 -0.1445,-0.011 -0.35018,-0.0414 -0.47656,-0.0586 -0.59472,-0.0809 -0.93378,-0.1011 -1.16406,-0.11914 0.17118,0.003 0.36556,-0.23794 0.97852,-0.11329 z m -3.16797,19.98438 c 0.1307,0.0109 0.38526,0.0456 0.47461,0.0527 -0.10125,0.005 -0.19992,0.008 -0.47461,-0.0527 z m -80.04883,213.32812 c 1.14048,0.12584 1.38336,0.27319 1.14258,0.20508 -0.10509,-0.0297 -0.87545,-0.11642 -1.21485,-0.20117 0.0163,0.002 0.0565,-0.006 0.0723,-0.004 z m 163.30469,5.00196 c -0.35862,3.76384 -0.54447,6.77241 -0.70899,9.7832 -0.51323,-1.01938 -0.94799,-2.18017 -1.05859,-3.66406 -0.1983,-2.66043 0.7358,-4.60001 1.76758,-6.11914 z m -162.35938,16.34179 c 0.40982,-0.10755 -0.47445,0.5541 -2.44726,0.3418 1.26037,-0.0816 2.19204,-0.27482 2.44726,-0.3418 z"
         id="path466" />
    </g>
  </g>
</svg>
